<?xml version="1.0" encoding="UTF-8"?>
<svg version="1.1" xmlns="http://www.w3.org/2000/svg" width="353" height="248">
<path d="M0 0 C0.90795822 -0.00014603 1.81591644 -0.00029205 2.75138855 -0.0004425 C5.73809234 0.00025148 8.72473295 0.00801976 11.71142578 0.01586914 C13.787933 0.01773515 15.86444067 0.01915819 17.94094849 0.02015686 C23.39564233 0.02396765 28.85030939 0.03378564 34.30499268 0.04486084 C39.87536252 0.0551059 45.44573672 0.05966111 51.01611328 0.06469727 C61.93800003 0.07540922 72.85986692 0.09246835 83.78173828 0.11352539 C83.82428249 5.3438042 83.38821987 9.19367551 81.78173828 14.11352539 C81.12173828 14.11352539 80.46173828 14.11352539 79.78173828 14.11352539 C79.74048828 14.91790039 79.69923828 15.72227539 79.65673828 16.55102539 C77.47745806 25.42380915 70.8548403 31.7136303 63.78173828 37.11352539 C60.37050871 39.13499477 58.71196609 40.11352539 54.78173828 40.11352539 C54.78173828 40.77352539 54.78173828 41.43352539 54.78173828 42.11352539 C52.14173828 42.77352539 49.50173828 43.43352539 46.78173828 44.11352539 C47.56677734 44.35586914 48.35181641 44.59821289 49.16064453 44.84790039 C55.14713218 46.75770013 60.47606709 48.73718918 65.78173828 52.11352539 C65.78173828 52.77352539 65.78173828 53.43352539 65.78173828 54.11352539 C66.33861328 54.34040039 66.89548828 54.56727539 67.46923828 54.80102539 C75.50275253 59.36058753 79.53733005 68.31119503 81.94580078 76.94946289 C82.95626246 81.29222107 83.04371661 85.48476531 82.96923828 89.92602539 C82.96827148 91.05041016 82.96827148 91.05041016 82.96728516 92.19750977 C82.94136106 95.42073916 82.8073912 98.03656665 81.78173828 101.11352539 C81.12173828 101.11352539 80.46173828 101.11352539 79.78173828 101.11352539 C79.76111328 101.91790039 79.74048828 102.72227539 79.71923828 103.55102539 C77.74479929 111.05389357 70.85354309 118.35798596 64.78173828 123.11352539 C62.57470703 123.80102539 62.57470703 123.80102539 60.78173828 124.11352539 C60.78173828 124.77352539 60.78173828 125.43352539 60.78173828 126.11352539 C59.24337121 126.76717939 57.70085062 127.41106143 56.15673828 128.05102539 C55.29822266 128.41067383 54.43970703 128.77032227 53.55517578 129.14086914 C47.63926851 131.21560282 41.84439967 131.25358198 35.65527344 131.22705078 C34.75706879 131.22719681 33.85886414 131.22734283 32.93344116 131.22749329 C29.97920271 131.22679937 27.02502815 131.21903144 24.07080078 131.21118164 C22.01671381 131.20931561 19.96262639 131.20789258 17.90853882 131.20689392 C12.51302859 131.20308333 7.11754545 131.19326551 1.7220459 131.18218994 C-3.78800083 131.17194445 -9.29805195 131.16738958 -14.80810547 131.16235352 C-25.61150276 131.15164192 -36.41487998 131.13458303 -47.21826172 131.11352539 C-47.24531471 129.52377638 -47.26454809 127.93389312 -47.28051758 126.34399414 C-47.29207382 125.4586499 -47.30363007 124.57330566 -47.3155365 123.66113281 C-46.96068358 114.36760451 -40.93695288 105.74527461 -34.65576172 99.30493164 C-27.54716838 92.91403283 -20.78214761 88.4480211 -11.21826172 87.11352539 C-12.52150391 86.75000977 -12.52150391 86.75000977 -13.85107422 86.37915039 C-25.70019757 82.93309662 -35.52929386 77.25122366 -41.90185547 66.19165039 C-43.11610506 63.52534565 -44.20511406 60.86168841 -45.21826172 58.11352539 C-45.75773437 57.00750977 -45.75773437 57.00750977 -46.30810547 55.87915039 C-49.16481407 47.19867962 -48.80526826 35.44943048 -45.06640625 27.11547852 C-39.28440517 15.99171451 -30.80027844 6.92156069 -18.96826172 2.23852539 C-12.55571904 0.31476259 -6.63613881 -0.02813376 0 0 Z " fill="#131313" transform="translate(154.21826171875,81.886474609375)"/>
<path d="M0 0 C2.06792898 0.00560511 4.13586198 0.00987088 6.20379639 0.01286316 C11.6091845 0.02423988 17.01432533 0.05364432 22.4196167 0.0869751 C27.95028337 0.11783171 33.48099055 0.13140162 39.01171875 0.14648438 C49.8360453 0.17852171 60.66018947 0.22962994 71.484375 0.29296875 C71.52691921 5.52324756 71.09085659 9.37311887 69.484375 14.29296875 C68.824375 14.29296875 68.164375 14.29296875 67.484375 14.29296875 C67.443125 15.09734375 67.401875 15.90171875 67.359375 16.73046875 C65.18009478 25.60325251 58.55747702 31.89307366 51.484375 37.29296875 C48.07314542 39.31443813 46.4146028 40.29296875 42.484375 40.29296875 C42.484375 40.95296875 42.484375 41.61296875 42.484375 42.29296875 C39.844375 42.95296875 37.204375 43.61296875 34.484375 44.29296875 C35.26941406 44.5353125 36.05445313 44.77765625 36.86328125 45.02734375 C42.8497689 46.93714349 48.17870381 48.91663254 53.484375 52.29296875 C53.484375 52.95296875 53.484375 53.61296875 53.484375 54.29296875 C54.04125 54.51984375 54.598125 54.74671875 55.171875 54.98046875 C63.03977424 59.44603319 66.71240665 67.97706371 69.484375 76.29296875 C69.57711714 77.88463387 69.61505925 79.47985542 69.6171875 81.07421875 C69.61847656 81.99847656 69.61976563 82.92273438 69.62109375 83.875 C69.61722656 84.83792969 69.61335937 85.80085938 69.609375 86.79296875 C69.61324219 87.75589844 69.61710938 88.71882813 69.62109375 89.7109375 C69.61916016 91.09732422 69.61916016 91.09732422 69.6171875 92.51171875 C69.61605957 93.35669922 69.61493164 94.20167969 69.61376953 95.07226562 C69.38087311 99.06929547 68.5499799 100.23294725 65.546875 102.98046875 C62.484375 105.29296875 62.484375 105.29296875 60.484375 105.29296875 C60.484375 105.95296875 60.484375 106.61296875 60.484375 107.29296875 C59.824375 107.29296875 59.164375 107.29296875 58.484375 107.29296875 C58.21625 107.91171875 57.948125 108.53046875 57.671875 109.16796875 C56.484375 111.29296875 56.484375 111.29296875 53.484375 113.29296875 C53.154375 112.30296875 52.824375 111.31296875 52.484375 110.29296875 C51.17191255 109.58609921 49.83534331 108.92313288 48.484375 108.29296875 C46.83691406 106.90429688 46.83691406 106.90429688 45.25 105.32421875 C44.38955078 104.46763672 44.38955078 104.46763672 43.51171875 103.59375 C42.92519531 102.99949219 42.33867187 102.40523438 41.734375 101.79296875 C41.13238281 101.19871094 40.53039062 100.60445313 39.91015625 99.9921875 C39.34167969 99.42113281 38.77320313 98.85007812 38.1875 98.26171875 C37.66833008 97.74029297 37.14916016 97.21886719 36.61425781 96.68164062 C35.484375 95.29296875 35.484375 95.29296875 35.484375 93.29296875 C33.504375 92.30296875 33.504375 92.30296875 31.484375 91.29296875 C31.979375 89.31296875 31.979375 89.31296875 32.484375 87.29296875 C31.164375 87.62296875 29.844375 87.95296875 28.484375 88.29296875 C27.824375 86.97296875 27.164375 85.65296875 26.484375 84.29296875 C26.95875 83.85984375 27.433125 83.42671875 27.921875 82.98046875 C29.72124457 81.26987262 29.72124457 81.26987262 30.484375 78.29296875 C37.93633249 72.26043174 47.5610088 69.4150398 56.484375 66.29296875 C56.484375 65.30296875 56.484375 64.31296875 56.484375 63.29296875 C55.411875 63.23109375 54.339375 63.16921875 53.234375 63.10546875 C37.75057028 61.17688097 26.92571554 50.82799568 17.484375 39.29296875 C14.484375 34.71897772 14.484375 34.71897772 14.484375 32.29296875 C13.824375 32.29296875 13.164375 32.29296875 12.484375 32.29296875 C11.67104757 30.18912177 10.85874083 28.08488018 10.046875 25.98046875 C9.59441406 24.80871094 9.14195312 23.63695312 8.67578125 22.4296875 C6.89387435 17.73830638 6.38950822 14.32090807 6.484375 9.29296875 C5.824375 9.29296875 5.164375 9.29296875 4.484375 9.29296875 C4.47019531 9.86402344 4.45601562 10.43507813 4.44140625 11.0234375 C3.98747813 18.74021561 1.48834575 25.22089002 -1.515625 32.29296875 C-2.175625 32.29296875 -2.835625 32.29296875 -3.515625 32.29296875 C-3.78117187 33.02773437 -4.04671875 33.7625 -4.3203125 34.51953125 C-9.24503095 45.94616557 -21.30766501 55.8565971 -32.61328125 60.58984375 C-42.03770531 63.93362482 -42.03770531 63.93362482 -45.515625 62.29296875 C-47.53787827 60.48254368 -49.40200472 58.68947117 -51.265625 56.73046875 C-51.77222656 56.21033203 -52.27882813 55.69019531 -52.80078125 55.15429688 C-54.04596905 53.87386791 -55.28174002 52.58429321 -56.515625 51.29296875 C-57.505625 51.78796875 -57.505625 51.78796875 -58.515625 52.29296875 C-59.09280945 32.4763027 -59.09280945 32.4763027 -55.515625 25.29296875 C-55.18691406 24.55046875 -54.85820313 23.80796875 -54.51953125 23.04296875 C-51.42602306 16.70609384 -47.05162609 12.56653716 -41.515625 8.29296875 C-40.87625 7.79667969 -40.236875 7.30039063 -39.578125 6.7890625 C-27.9463977 -1.32891385 -13.49923667 -0.10813798 0 0 Z " fill="#0D0D0D" transform="translate(166.515625,81.70703125)"/>
<path d="M0 0 C0.66 0 1.32 0 2 0 C2.18175781 0.90621094 2.36351562 1.81242187 2.55078125 2.74609375 C3.98264883 9.68514432 5.58757545 16.33711314 8 23 C8.66 23 9.32 23 10 23 C11.08067776 24.62850055 12.08860872 26.30547522 13.0625 28 C16.62528254 33.79605713 20.78949882 37.7185029 26 42 C26.46921875 42.5053125 26.9384375 43.010625 27.421875 43.53125 C33.86495004 49.52777528 43.61682399 52.11873609 52 54 C52 54.66 52 55.32 52 56 C53.98 56.495 53.98 56.495 56 57 C55.05640625 57.29132813 54.1128125 57.58265625 53.140625 57.8828125 C45.53784056 60.28976414 38.4631798 63.01678448 31.390625 66.765625 C29 68 29 68 26 69 C26 69.66 26 70.32 26 71 C24.49609375 72.41015625 24.49609375 72.41015625 22.4375 74.0625 C11.02270109 83.84661335 4.95021123 96.40421811 2 111 C1.34 111 0.68 111 0 111 C-0.20753906 110.05640625 -0.41507813 109.1128125 -0.62890625 108.140625 C-4.50259558 91.58585982 -12.81784702 78.65593395 -27 69 C-27 68.34 -27 67.68 -27 67 C-35.61371851 63.5321393 -44.29889531 60.24158802 -53 57 C-50.35261084 55.5393715 -49.10551666 55 -46 55 C-46 54.34 -46 53.68 -46 53 C-45.29617187 52.82726562 -44.59234375 52.65453125 -43.8671875 52.4765625 C-29.58957053 48.41321981 -17.00731497 38.82937192 -9.5 25.9375 C-9.005 24.968125 -8.51 23.99875 -8 23 C-7.34 23 -6.68 23 -6 23 C-3.27072787 15.46201031 -1.57532681 7.85428897 0 0 Z " fill="#F6F6F6" transform="translate(171,91)"/>
<path d="M0 0 C0 0.66 0 1.32 0 2 C0.57234375 2.24492187 1.1446875 2.48984375 1.734375 2.7421875 C4.38024402 4.21110099 6.14853139 5.95348244 8.25 8.125 C8.95640625 8.84945312 9.6628125 9.57390625 10.390625 10.3203125 C10.92171875 10.87460938 11.4528125 11.42890625 12 12 C12.66 11.67 13.32 11.34 14 11 C14.0269501 13.93756119 14.04681474 16.87487555 14.0625 19.8125 C14.07087891 20.64587891 14.07925781 21.47925781 14.08789062 22.33789062 C14.09111328 23.14033203 14.09433594 23.94277344 14.09765625 24.76953125 C14.10289307 25.50792236 14.10812988 26.24631348 14.11352539 27.00708008 C13.8921123 30.8939511 12.97115293 32.026392 10.0625 34.6875 C7 37 7 37 5 37 C5 37.66 5 38.32 5 39 C4.34 39 3.68 39 3 39 C2.731875 39.61875 2.46375 40.2375 2.1875 40.875 C1 43 1 43 -2 45 C-2.33 44.01 -2.66 43.02 -3 42 C-4.31246245 41.29313046 -5.64903169 40.63016413 -7 40 C-8.64746094 38.61132812 -8.64746094 38.61132812 -10.234375 37.03125 C-10.80800781 36.46019531 -11.38164062 35.88914063 -11.97265625 35.30078125 C-12.55917969 34.70652344 -13.14570313 34.11226562 -13.75 33.5 C-14.35199219 32.90574219 -14.95398438 32.31148437 -15.57421875 31.69921875 C-16.14269531 31.12816406 -16.71117187 30.55710938 -17.296875 29.96875 C-17.81604492 29.44732422 -18.33521484 28.92589844 -18.87011719 28.38867188 C-20 27 -20 27 -20 25 C-21.32 24.34 -22.64 23.68 -24 23 C-23.67 21.68 -23.34 20.36 -23 19 C-24.32 19.33 -25.64 19.66 -27 20 C-27.66 18.68 -28.32 17.36 -29 16 C-28.525625 15.566875 -28.05125 15.13375 -27.5625 14.6875 C-25.76313043 12.97690387 -25.76313043 12.97690387 -25 10 C-18.07398176 4.65585012 -8.83528989 0 0 0 Z " fill="#010101" transform="translate(222,150)"/>
<path d="M0 0 C0.99 0 1.98 0 3 0 C3 0.66 3 1.32 3 2 C3.66 2 4.32 2 5 2 C5 2.66 5 3.32 5 4 C5.58426758 4.2582959 6.16853516 4.5165918 6.77050781 4.78271484 C9.17716622 6.09673136 10.75319337 7.52480015 12.671875 9.4765625 C13.66767578 10.48203125 13.66767578 10.48203125 14.68359375 11.5078125 C15.36550781 12.20648438 16.04742187 12.90515625 16.75 13.625 C17.44738281 14.33140625 18.14476562 15.0378125 18.86328125 15.765625 C20.58012488 17.50598703 22.29211832 19.25084981 24 21 C22.58900308 24.20794169 20.90205371 26.33399143 18.41015625 28.78515625 C17.70826172 29.48060547 17.00636719 30.17605469 16.28320312 30.89257812 C15.18395508 31.96668945 15.18395508 31.96668945 14.0625 33.0625 C13.33353516 33.78244141 12.60457031 34.50238281 11.85351562 35.24414062 C10.49714001 36.58311087 9.13871817 37.92001378 7.77758789 39.25415039 C6.62260009 40.38851625 5.48889037 41.54511165 4.3815918 42.72607422 C3 44 3 44 1.171875 44.03515625 C-2.07231183 42.48891613 -4.3070362 40.00549738 -6.75 37.4375 C-7.25660156 36.91736328 -7.76320313 36.39722656 -8.28515625 35.86132812 C-9.53034405 34.58089916 -10.76611502 33.29132446 -12 32 C-12.99 32.495 -12.99 32.495 -14 33 C-14.0269501 30.06243881 -14.04681474 27.12512445 -14.0625 24.1875 C-14.07087891 23.35412109 -14.07925781 22.52074219 -14.08789062 21.66210938 C-14.09111328 20.85966797 -14.09433594 20.05722656 -14.09765625 19.23046875 C-14.10289307 18.49207764 -14.10812988 17.75368652 -14.11352539 16.99291992 C-14 15 -14 15 -13 12 C-11.328125 10.60546875 -11.328125 10.60546875 -9.25 9.1875 C-6.47031034 7.20342813 -4.27664673 5.32747421 -2.1875 2.625 C-1.465625 1.75875 -0.74375 0.8925 0 0 Z " fill="#010101" transform="translate(122,101)"/>
<path d="M0 0 C4.52134218 3.71754802 8.77415761 7.64047364 12.9375 11.75 C13.43419189 12.23380127 13.93088379 12.71760254 14.44262695 13.21606445 C15.66847329 14.43848364 16.83934827 15.71551743 18 17 C18 17.66 18 18.32 18 19 C19.32 19.66 20.64 20.32 22 21 C22 22.32 22 23.64 22 25 C21.34 25 20.68 25 20 25 C19.7525 25.5775 19.505 26.155 19.25 26.75 C17.81700012 29.32939979 16.21575324 31.06121592 14 33 C13.34 33 12.68 33 12 33 C11.67 34.65 11.34 36.3 11 38 C-6.37852205 39.78287428 -6.37852205 39.78287428 -11.640625 35.5859375 C-14.3785165 32.95625271 -16.68159697 30.00221483 -19 27 C-19.66 26.67 -20.32 26.34 -21 26 C-21 22.45944513 -20.98185977 20.10291097 -18.57421875 17.3984375 C-17.2466668 16.28252427 -15.90105086 15.18792473 -14.54296875 14.109375 C-11.33017274 11.44438292 -8.43078194 8.5306278 -5.5 5.5625 C-4.95947998 5.01762939 -4.41895996 4.47275879 -3.86206055 3.91137695 C-2.57248895 2.60977848 -1.2859187 1.30520748 0 0 Z " fill="#010101" transform="translate(196,173)"/>
<path d="M0 0 C5.29362869 4.33115075 10.0868644 9.0237029 14.82324219 13.94824219 C17.19878874 16.37928497 18.72625077 17.90875026 22 19 C22.3125 21.6875 22.3125 21.6875 22 25 C20 27.375 20 27.375 17 30 C16.48824219 30.68964844 15.97648437 31.37929687 15.44921875 32.08984375 C12.42244078 35.90855033 10.14218183 37.71903549 5.34765625 38.8984375 C-0.57287491 39.52233068 -5.71349638 39.28641216 -10.59765625 35.625 C-13.66520416 32.97414997 -16.33663587 30.05204745 -19 27 C-19.99147168 25.9915438 -20.98662389 24.98644253 -22 24 C-20.71480435 21.13302508 -19.42870746 19.02392288 -17 17 C-16.34 17 -15.68 17 -15 17 C-15 16.34 -15 15.68 -15 15 C-14.34 15 -13.68 15 -13 15 C-12.773125 14.4225 -12.54625 13.845 -12.3125 13.25 C-10.66511725 10.42591529 -8.56545162 9.0023037 -6 7 C-5.443125 6.2575 -4.88625 5.515 -4.3125 4.75 C-3.879375 4.1725 -3.44625 3.595 -3 3 C-2.34 3 -1.68 3 -1 3 C-0.67 2.01 -0.34 1.02 0 0 Z " fill="#010101" transform="translate(147,173)"/>
<path d="M0 0 C0.78826172 0.02255859 1.57652344 0.04511719 2.38867188 0.06835938 C4.32243929 0.12695839 6.25522167 0.21663173 8.1875 0.3125 C8.1875 0.9725 8.1875 1.6325 8.1875 2.3125 C9.01507813 2.64894531 9.01507813 2.64894531 9.859375 2.9921875 C12.89961744 4.71635183 15.00175673 6.93765822 17.4375 9.4375 C18.32953125 10.34757812 19.2215625 11.25765625 20.140625 12.1953125 C20.81609375 12.89398438 21.4915625 13.59265625 22.1875 14.3125 C21.11762423 17.52212732 20.60360306 18.01155837 18.0625 20 C14.51611113 22.90424438 11.65719197 26.12888252 8.765625 29.67578125 C7.1875 31.3125 7.1875 31.3125 4.1875 32.3125 C4.1875 32.9725 4.1875 33.6325 4.1875 34.3125 C2.56123596 35.69482443 0.8949998 37.03187515 -0.8125 38.3125 C-1.98512904 37.19371617 -3.15045138 36.06726949 -4.3125 34.9375 C-4.9621875 34.31101563 -5.611875 33.68453125 -6.28125 33.0390625 C-7.8125 31.3125 -7.8125 31.3125 -7.8125 29.3125 C-8.39902344 29.05339844 -8.98554688 28.79429688 -9.58984375 28.52734375 C-11.96847158 27.22725016 -13.50168393 25.82375162 -15.375 23.875 C-15.95378906 23.27816406 -16.53257812 22.68132812 -17.12890625 22.06640625 C-17.68449219 21.48761719 -18.24007812 20.90882812 -18.8125 20.3125 C-19.36421875 19.80203125 -19.9159375 19.2915625 -20.484375 18.765625 C-21.8125 17.3125 -21.8125 17.3125 -22.5 14.5 C-21.57816703 10.22604714 -19.60880254 9.2140525 -16.05078125 6.90234375 C-13.63424183 5.32949042 -13.63424183 5.32949042 -11.59375 2.6484375 C-7.72634836 -0.59974534 -4.87538186 -0.26563271 0 0 Z " fill="#010101" transform="translate(196.8125,83.6875)"/>
<path d="M0 0 C2.90820155 1.69011761 5.20432358 3.73911913 7.5625 6.125 C8.1282373 6.6936377 8.69397461 7.26227539 9.27685547 7.84814453 C11.90712781 10.79041238 12.98832672 12.19454339 13.046875 16.234375 C11.92747538 19.19159489 11.1712087 20.24293503 8.6875 22.125 C4.70099902 25.34179405 1.09684445 28.7996188 -2.5 32.4375 C-3.04052002 32.98229004 -3.58104004 33.52708008 -4.13793945 34.08837891 C-5.42744813 35.39012122 -6.71404066 36.69475127 -8 38 C-8.33 37.34 -8.66 36.68 -9 36 C-9.639375 35.71125 -10.27875 35.4225 -10.9375 35.125 C-13.4515143 33.75371947 -13.7825445 32.5160747 -15 30 C-15.99 29.67 -16.98 29.34 -18 29 C-18 28.34 -18 27.68 -18 27 C-19.32 26.34 -20.64 25.68 -22 25 C-22 24.34 -22 23.68 -22 23 C-22.8353125 22.690625 -22.8353125 22.690625 -23.6875 22.375 C-26.92501302 20.44999226 -28.68231141 17.96149098 -31 15 C-29.625 13 -29.625 13 -28 11 C-27.34 11 -26.68 11 -26 11 C-25.773125 10.46375 -25.54625 9.9275 -25.3125 9.375 C-20.0075787 -0.22438141 -10.45712189 -2.95573994 0 0 Z " fill="#010101" transform="translate(156,84)"/>
<path d="M0 0 C0.90795822 -0.00014603 1.81591644 -0.00029205 2.75138855 -0.0004425 C5.73809234 0.00025148 8.72473295 0.00801976 11.71142578 0.01586914 C13.787933 0.01773515 15.86444067 0.01915819 17.94094849 0.02015686 C23.39564233 0.02396765 28.85030939 0.03378564 34.30499268 0.04486084 C39.87536252 0.0551059 45.44573672 0.05966111 51.01611328 0.06469727 C61.93800003 0.07540922 72.85986692 0.09246835 83.78173828 0.11352539 C83.82428249 5.3438042 83.38821987 9.19367551 81.78173828 14.11352539 C80.78173828 10.11352539 80.78173828 10.11352539 81.78173828 1.11352539 C56.37173828 1.11352539 30.96173828 1.11352539 4.78173828 1.11352539 C10.91313935 8.67765805 10.91313935 8.67765805 15.78173828 12.11352539 C17.07221428 15.98495338 16.20659402 17.69904515 14.96923828 21.55102539 C14.43363281 23.2506543 14.43363281 23.2506543 13.88720703 24.98461914 C12.99874411 27.49931455 12.05087132 29.77625324 10.78173828 32.11352539 C10.12173828 32.11352539 9.46173828 32.11352539 8.78173828 32.11352539 C8.51619141 32.84829102 8.25064453 33.58305664 7.97705078 34.34008789 C3.39368998 44.97468322 -7.20586216 53.70584641 -17.21826172 59.11352539 C-20.50660315 60.33688038 -23.80637599 61.30151083 -27.21826172 62.11352539 C-25.79180392 58.85486179 -24.0512201 56.71103999 -21.52294922 54.22290039 C-20.80751953 53.51391602 -20.09208984 52.80493164 -19.35498047 52.07446289 C-18.60861328 51.34485352 -17.86224609 50.61524414 -17.09326172 49.86352539 C-15.96210938 48.7459082 -15.96210938 48.7459082 -14.80810547 47.60571289 C-12.949254 45.77039119 -11.08589167 43.9399063 -9.21826172 42.11352539 C-10.56715992 39.10441315 -12.06991885 37.01436176 -14.40576172 34.69555664 C-15.02193359 34.08131836 -15.63810547 33.46708008 -16.27294922 32.83422852 C-16.91490234 32.20452148 -17.55685547 31.57481445 -18.21826172 30.92602539 C-18.86021484 30.2847168 -19.50216797 29.6434082 -20.16357422 28.98266602 C-23.39031514 25.64292217 -23.39031514 25.64292217 -27.21826172 23.11352539 C-27.21826172 22.45352539 -27.21826172 21.79352539 -27.21826172 21.11352539 C-27.87826172 21.11352539 -28.53826172 21.11352539 -29.21826172 21.11352539 C-29.21826172 20.45352539 -29.21826172 19.79352539 -29.21826172 19.11352539 C-33.2510986 21.24196708 -35.43486073 23.54729287 -38.21826172 27.11352539 C-42.75880226 31.11352539 -42.75880226 31.11352539 -45.21826172 31.11352539 C-42.07430952 18.44788941 -33.99195527 11.02819954 -23.21826172 4.11352539 C-15.79455997 0.32111682 -8.15603054 -0.0345773 0 0 Z M-20.90576172 7.05102539 C-21.52837891 7.76129883 -22.15099609 8.47157227 -22.79248047 9.20336914 C-24.41764937 10.98338355 -24.41764937 10.98338355 -24.21826172 13.11352539 C-24.87826172 13.11352539 -25.53826172 13.11352539 -26.21826172 13.11352539 C-27.86292912 15.57679251 -27.86292912 15.57679251 -29.21826172 18.11352539 C-28.09947789 19.28615443 -26.97303121 20.45147677 -25.84326172 21.61352539 C-25.21677734 22.26321289 -24.59029297 22.91290039 -23.94482422 23.58227539 C-22.35350265 25.3346997 -22.35350265 25.3346997 -20.21826172 25.11352539 C-19.55826172 26.43352539 -18.89826172 27.75352539 -18.21826172 29.11352539 C-17.55826172 29.11352539 -16.89826172 29.11352539 -16.21826172 29.11352539 C-15.88826172 30.10352539 -15.55826172 31.09352539 -15.21826172 32.11352539 C-14.55826172 32.11352539 -13.89826172 32.11352539 -13.21826172 32.11352539 C-12.97076172 32.73227539 -12.72326172 33.35102539 -12.46826172 33.98852539 C-10.99580109 36.49170845 -9.80797334 36.94397821 -7.21826172 38.11352539 C-6.88826172 38.77352539 -6.55826172 39.43352539 -6.21826172 40.11352539 C-5.68869873 39.5839624 -5.15913574 39.05439941 -4.61352539 38.50878906 C11.78173828 22.11352539 11.78173828 22.11352539 13.54589844 20.49243164 C15.03627472 19.13754731 15.03627472 19.13754731 14.78564453 16.82055664 C12.55745502 10.81224796 7.32826451 5.31869014 1.78173828 2.11352539 C-6.09714098 -0.01111621 -15.47153181 0.7509643 -20.90576172 7.05102539 Z " fill="#181818" transform="translate(154.21826171875,81.886474609375)"/>
<path d="M0 0 C0.66 0 1.32 0 2 0 C3.38509525 1.62390477 4.70758949 3.30140333 6 5 C9.91935491 9.94539741 14.01675728 13.67109503 19.12890625 17.34375 C20.05509766 18.16359375 20.05509766 18.16359375 21 19 C21 19.99 21 20.98 21 22 C19.34765625 23.47265625 19.34765625 23.47265625 17.0625 25.0625 C11.40845518 29.25599125 5.19539916 34.60920169 2 41 C1.34 41 0.68 41 0 41 C-1.41015625 39.3125 -1.41015625 39.3125 -3.0625 37 C-7.63411395 30.94595893 -12.98123404 25.15289938 -20 22 C-20 21.01 -20 20.02 -20 19 C-18.3828125 17.78125 -18.3828125 17.78125 -16.125 16.5 C-10.00758204 12.65476585 -3.28066737 6.56133475 0 0 Z " fill="#0A0A0A" transform="translate(171,127)"/>
<path d="M0 0 C0.33 0.66 0.66 1.32 1 2 C1.60972656 2.30292969 2.21945313 2.60585937 2.84765625 2.91796875 C5.20734559 4.10423726 6.61436984 5.41358152 8.4375 7.3125 C9.04207031 7.93382813 9.64664063 8.55515625 10.26953125 9.1953125 C10.84058594 9.79085937 11.41164062 10.38640625 12 11 C14.50975872 13.56951487 16.90712286 15.9282313 19.75 18.125 C22 20 22 20 23 23 C25.64 23 28.28 23 31 23 C31 23.33 31 23.66 31 24 C29.35 24.33 27.7 24.66 26 25 C26.78503906 25.24234375 27.57007813 25.4846875 28.37890625 25.734375 C34.3653939 27.64417474 39.69432881 29.62366379 45 33 C45 33.66 45 34.32 45 35 C45.556875 35.226875 46.11375 35.45375 46.6875 35.6875 C53.82883853 39.74069214 56.987798 46.59341471 60 54 C60.796875 57.25390625 60.796875 57.25390625 61 60 C60.34 60.66 59.68 61.32 59 62 C54.66666667 57.66666667 50.33333333 53.33333333 46 49 C46.66 48.01 47.32 47.02 48 46 C48 45.34 48 44.68 48 44 C46.9275 43.938125 45.855 43.87625 44.75 43.8125 C29.26619528 41.88391222 18.44134054 31.53502693 9 20 C6 15.42600897 6 15.42600897 6 13 C5.34 13 4.68 13 4 13 C3.32404685 11.58774074 2.65959941 10.16997095 2 8.75 C1.62875 7.96109375 1.2575 7.1721875 0.875 6.359375 C0 4 0 4 0 0 Z " fill="#0E0E0E" transform="translate(175,101)"/>
<path d="M0 0 C0.99 0.495 0.99 0.495 2 1 C1.01 1.99 0.02 2.98 -1 4 C-0.505 5.485 -0.505 5.485 0 7 C1.32 7 2.64 7 4 7 C4.061875 7.721875 4.12375 8.44375 4.1875 9.1875 C5.26390489 12.91351694 7.20135838 14.32118972 10 17 C10.99395169 17.99956444 11.98476099 19.00226192 12.97265625 20.0078125 C14.002581 21.04689796 15.03252915 22.08596023 16.0625 23.125 C16.8369043 23.91197266 16.8369043 23.91197266 17.62695312 24.71484375 C20.27685063 27.38161959 22.91028006 29.8512739 26 32 C26.61875 31.175 27.2375 30.35 27.875 29.5 C28.926875 28.2625 28.926875 28.2625 30 27 C30.66 27 31.32 27 32 27 C32 26.34 32 25.68 32 25 C37.47619048 20 37.47619048 20 40 20 C40.33 13.73 40.66 7.46 41 1 C41.33 1 41.66 1 42 1 C42.02696009 3.7708983 42.04681952 6.5415345 42.0625 9.3125 C42.07087891 10.09818359 42.07925781 10.88386719 42.08789062 11.69335938 C42.09111328 12.45068359 42.09433594 13.20800781 42.09765625 13.98828125 C42.10289307 14.68477783 42.10812988 15.38127441 42.11352539 16.09887695 C42 18 42 18 41 21 C40.34 21 39.68 21 39 21 C38.979375 21.804375 38.95875 22.60875 38.9375 23.4375 C36.96306101 30.94036818 30.07180481 38.24446057 24 43 C21.79296875 43.6875 21.79296875 43.6875 20 44 C20 44.66 20 45.32 20 46 C17.09399739 47.25664978 15.20395416 48 12 48 C12.56009026 44.49565146 13.61571748 43.12047667 16.375 40.9375 C18.71874942 39.05751376 20.90954514 37.16099168 23 35 C21.44942362 31.1940398 18.880506 28.81417098 16 26 C14.81506145 24.81775258 13.63155051 23.63407315 12.44921875 22.44921875 C11.83369141 21.83369141 11.21816406 21.21816406 10.58398438 20.58398438 C7.72265625 17.72265625 4.86132812 14.86132812 2 12 C-3.2890965 16.39656763 -8.1381951 21.07184877 -12.90039062 26.02734375 C-14.23137092 27.38729545 -15.61197054 28.69832746 -17 30 C-17.66 30 -18.32 30 -19 30 C-19.33 32.31 -19.66 34.62 -20 37 C-19.41605469 37.23589844 -18.83210938 37.47179687 -18.23046875 37.71484375 C-15.53039629 39.27057727 -14.24146676 41.12488075 -12.3125 43.5625 C-7.84110954 48.25971826 -4.14748879 48.86126525 2.0625 49.0625 C4.71736856 49.10693641 7.3444433 49.07622149 10 49 C10 49.33 10 49.66 10 50 C4.90582947 51.03348066 0.04373745 51.13568872 -5.12646484 51.11352539 C-6.02466949 51.11367142 -6.92287415 51.11381744 -7.84829712 51.1139679 C-10.80253557 51.11327398 -13.75671013 51.10550605 -16.7109375 51.09765625 C-18.76502447 51.09579022 -20.81911189 51.09436719 -22.87319946 51.09336853 C-28.26870969 51.08955794 -33.66419283 51.07974012 -39.05969238 51.06866455 C-44.56973911 51.05841906 -50.07979023 51.05386419 -55.58984375 51.04882812 C-66.39324104 51.03811653 -77.19661826 51.02105764 -88 51 C-88.05395478 49.37536158 -88.09277195 47.75021459 -88.125 46.125 C-88.15980469 44.76761719 -88.15980469 44.76761719 -88.1953125 43.3828125 C-88 41 -88 41 -86 39 C-86.33 42.63 -86.66 46.26 -87 50 C-61.92 49.67 -36.84 49.34 -11 49 C-15.37372561 43.88306599 -15.37372561 43.88306599 -20 39 C-20.66 41.31 -21.32 43.62 -22 46 C-22.66 46 -23.32 46 -24 46 C-24 44.02 -24 42.04 -24 40 C-23.34 40 -22.68 40 -22 40 C-21.938125 38.7625 -21.87625 37.525 -21.8125 36.25 C-20.10075195 21.49195602 -10.54059433 9.78368995 0 0 Z " fill="#373737" transform="translate(195,162)"/>
<path d="M0 0 C1.30167652 2.60335303 0.89602866 4.71872887 0.73095703 7.56103516 C0.24946621 14.13426224 0.24946621 14.13426224 2.34375 20.1796875 C4.15143147 21.64644659 6.00435665 22.80581984 8 24 C9.11368884 25.05210236 10.19882412 26.13543663 11.25 27.25 C13.88559892 30.06537205 13.88559892 30.06537205 17 32 C15.68 32.66 14.36 33.32 13 34 C14.61068359 34.58007812 14.61068359 34.58007812 16.25390625 35.171875 C17.69022507 35.69758646 19.12641622 36.22364683 20.5625 36.75 C21.61920898 37.12898438 21.61920898 37.12898438 22.69726562 37.515625 C27.44694414 39.26665856 31.66652192 41.38055201 36 44 C36 44.66 36 45.32 36 46 C36.5775 46.268125 37.155 46.53625 37.75 46.8125 C40.0325868 48.01719859 41.9737942 49.40798115 44 51 C42.25 54.875 42.25 54.875 40 56 C40 55.34 40 54.68 40 54 C39.41734375 54.05800781 38.8346875 54.11601562 38.234375 54.17578125 C29.22967282 54.67132304 21.67049791 52.2363471 14.74609375 46.3828125 C8.2156307 40.41638004 3.9546509 34.42474782 1 26 C0.63519531 25.28199219 0.27039063 24.56398437 -0.10546875 23.82421875 C-1.47581444 19.49775617 -1.24832584 15.25751459 -1.1875 10.75 C-1.18685547 9.82703125 -1.18621094 8.9040625 -1.18554688 7.953125 C-1.14046308 1.14046308 -1.14046308 1.14046308 0 0 Z " fill="#0D0D0D" transform="translate(108,114)"/>
<path d="M0 0 C-1.5391801 3.66752005 -3.75485452 5.98580573 -6.5703125 8.765625 C-7.46621094 9.65507812 -8.36210937 10.54453125 -9.28515625 11.4609375 C-10.22230469 12.38132813 -11.15945312 13.30171875 -12.125 14.25 C-13.07988637 15.19484856 -14.03431859 16.14015633 -14.98828125 17.0859375 C-17.32109087 19.39518338 -19.65844086 21.69963203 -22 24 C-23.17539996 23.07347299 -24.34010577 22.13336613 -25.5 21.1875 C-26.1496875 20.66542969 -26.799375 20.14335937 -27.46875 19.60546875 C-29 18 -29 18 -29 15 C-25.89443605 8.75872099 -20.20870321 3.87138346 -13.84765625 1.04296875 C-9.2634272 -0.21882895 -4.70612632 -0.16807594 0 0 Z " fill="#060606" transform="translate(146,171)"/>
<path d="M0 0 C1.36259445 -0.00043808 1.36259445 -0.00043808 2.75271606 -0.00088501 C5.72318434 0.00049638 8.69339448 0.01600095 11.66381836 0.03173828 C13.73603681 0.03547265 15.80825705 0.03831762 17.88047791 0.04031372 C23.3105057 0.04791677 28.74042497 0.06753645 34.17041016 0.08972168 C39.72093234 0.11025207 45.27147221 0.11933077 50.82202148 0.12939453 C61.69511581 0.15078567 72.5681299 0.18488112 83.44116211 0.22705078 C83.48370632 5.4573296 83.0476437 9.3072009 81.44116211 14.22705078 C80.44116211 10.22705078 80.44116211 10.22705078 81.44116211 1.22705078 C56.03116211 1.22705078 30.62116211 1.22705078 4.44116211 1.22705078 C10.57256317 8.79118345 10.57256317 8.79118345 15.44116211 12.22705078 C16.44116211 15.22705078 16.44116211 15.22705078 15.50366211 17.41455078 C14.97772461 18.31173828 14.97772461 18.31173828 14.44116211 19.22705078 C14.20268555 18.52193359 13.96420898 17.81681641 13.71850586 17.09033203 C11.17909179 11.39800631 7.06482039 6.11220746 1.44116211 3.22705078 C-4.82241812 1.9120592 -11.24491047 2.57930071 -17.55883789 3.22705078 C-17.83727539 3.82001953 -18.11571289 4.41298828 -18.40258789 5.02392578 C-20.07426925 8.20915648 -22.13694553 10.56296919 -24.55883789 13.22705078 C-25.21883789 13.22705078 -25.87883789 13.22705078 -26.55883789 13.22705078 C-27.21883789 14.54705078 -27.87883789 15.86705078 -28.55883789 17.22705078 C-29.21883789 16.23705078 -29.87883789 15.24705078 -30.55883789 14.22705078 C-29.35227539 13.32986328 -29.35227539 13.32986328 -28.12133789 12.41455078 C-25.33555805 10.41757802 -25.33555805 10.41757802 -24.55883789 7.22705078 C-25.21883789 6.89705078 -25.87883789 6.56705078 -26.55883789 6.22705078 C-17.81983331 1.46032101 -9.92091182 -0.0852026 0 0 Z " fill="#585758" transform="translate(154.558837890625,81.77294921875)"/>
<path d="M0 0 C4.23909658 1.3854241 6.70658025 3.32712012 9.8125 6.5 C10.60269531 7.2940625 11.39289063 8.088125 12.20703125 8.90625 C14 11 14 11 14 13 C5.42 13 -3.16 13 -12 13 C-8.04354855 8.38413998 -4.30058488 4.19819 0 0 Z " fill="#010101" transform="translate(122,198)"/>
<path d="M0 0 C8.58 0 17.16 0 26 0 C19.25 7.875 19.25 7.875 16.125 10.9375 C15.52945313 11.52402344 14.93390625 12.11054687 14.3203125 12.71484375 C13.88460937 13.13894531 13.44890625 13.56304687 13 14 C12.67 13.34 12.34 12.68 12 12 C11.01 11.67 10.02 11.34 9 11 C7.5 9.44140625 7.5 9.44140625 6 7.5625 C4.03571068 5.11225368 2.67929132 3.78619422 0 2 C0 1.34 0 0.68 0 0 Z " fill="#010101" transform="translate(208,84)"/>
<path d="M0 0 C0.66 0 1.32 0 2 0 C2 0.66 2 1.32 2 2 C2.66 2 3.32 2 4 2 C4 2.66 4 3.32 4 4 C4.639375 4.2475 5.27875 4.495 5.9375 4.75 C8 6 8 6 8.8359375 7.78125 C9.07578971 11.02496555 7.70735937 12.27273761 5.6875 14.75 C4.73423828 15.94882813 4.73423828 15.94882813 3.76171875 17.171875 C3.18035156 17.77515625 2.59898437 18.3784375 2 19 C1.34 19 0.68 19 0 19 C-1.76171875 17.171875 -1.76171875 17.171875 -3.6875 14.75 C-4.33074219 13.96109375 -4.97398437 13.1721875 -5.63671875 12.359375 C-7 10 -7 10 -6.70703125 7.703125 C-6.47371094 7.14109375 -6.24039063 6.5790625 -6 6 C-5.34 6 -4.68 6 -4 6 C-4 5.34 -4 4.68 -4 4 C-3.34 4 -2.68 4 -2 4 C-1.34 2.68 -0.68 1.36 0 0 Z " fill="#060606" transform="translate(171,149)"/>
<path d="M0 0 C-2.15997541 4.81825337 -5.6361558 8.04211424 -9.3125 11.75 C-9.97701172 12.44738281 -10.64152344 13.14476562 -11.32617188 13.86328125 C-11.97779297 14.52199219 -12.62941406 15.18070313 -13.30078125 15.859375 C-13.89028564 16.46233398 -14.47979004 17.06529297 -15.0871582 17.68652344 C-17.51985266 19.35696328 -19.11057364 19.24998373 -22 19 C-22.66 17.68 -23.32 16.36 -24 15 C-23.525625 14.566875 -23.05125 14.13375 -22.5625 13.6875 C-20.76313043 11.97690387 -20.76313043 11.97690387 -20 9 C-14.50634674 4.95869185 -6.98397061 0 0 0 Z " fill="#0E0E0E" transform="translate(217,151)"/>
<path d="M0 0 C8.58 0 17.16 0 26 0 C19.25 7.875 19.25 7.875 15 11 C15 9.68 15 8.36 15 7 C14.01 7 13.02 7 12 7 C11.67 8.32 11.34 9.64 11 11 C9.91160226 10.11032656 8.82955392 9.21288426 7.75 8.3125 C7.14671875 7.81363281 6.5434375 7.31476563 5.921875 6.80078125 C4 5 4 5 0 0 Z " fill="#080808" transform="translate(159,84)"/>
<path d="M0 0 C0.66 0 1.32 0 2 0 C3.76171875 1.828125 3.76171875 1.828125 5.6875 4.25 C6.33074219 5.03890625 6.97398437 5.8278125 7.63671875 6.640625 C9 9 9 9 8.8984375 11.09375 C7.86410098 13.28834228 6.70531305 14.59502608 4.9375 16.25 C4.38964844 16.77078125 3.84179688 17.2915625 3.27734375 17.828125 C2.85582031 18.21484375 2.43429688 18.6015625 2 19 C0.0625 18.1875 0.0625 18.1875 -2 17 C-2.33 16.01 -2.66 15.02 -3 14 C-5.00016466 12.79117904 -5.00016466 12.79117904 -7 12 C-6.57847656 11.46890625 -6.15695313 10.9378125 -5.72265625 10.390625 C-5.17480469 9.68421875 -4.62695312 8.9778125 -4.0625 8.25 C-3.51722656 7.55390625 -2.97195312 6.8578125 -2.41015625 6.140625 C-1.02574346 4.03907872 -0.43713013 2.45678201 0 0 Z " fill="#060606" transform="translate(171,127)"/>
<path d="M0 0 C0.66 0.33 1.32 0.66 2 1 C2 3.31 2 5.62 2 8 C2.66 7.67 3.32 7.34 4 7 C4.40729228 4.67843403 4.74438677 2.3431213 5 0 C6.08839774 0.88967344 7.17044608 1.78711574 8.25 2.6875 C8.85328125 3.18636719 9.4565625 3.68523437 10.078125 4.19921875 C12 6 12 6 16 11 C7.42 11 -1.16 11 -10 11 C-3.25 3.125 -3.25 3.125 0 0 Z " fill="#020202" transform="translate(169,200)"/>
<path d="M0 0 C1.30167652 2.60335303 0.89602866 4.71872887 0.73095703 7.56103516 C0.24946621 14.13426224 0.24946621 14.13426224 2.34375 20.1796875 C4.15143147 21.64644659 6.00435665 22.80581984 8 24 C9.11368884 25.05210236 10.19882412 26.13543663 11.25 27.25 C13.88559892 30.06537205 13.88559892 30.06537205 17 32 C15.68 32.66 14.36 33.32 13 34 C13 34.33 13 34.66 13 35 C11.02 35 9.04 35 7 35 C6.67 35.66 6.34 36.32 6 37 C5.20688633 35.27149655 4.4155741 33.54216646 3.625 31.8125 C3.18414062 30.84957031 2.74328125 29.88664062 2.2890625 28.89453125 C1.86367187 27.93933594 1.43828125 26.98414063 1 26 C0.42958984 24.89978516 0.42958984 24.89978516 -0.15234375 23.77734375 C-1.46728727 19.46893433 -1.24789737 15.22576304 -1.1875 10.75 C-1.18685547 9.82703125 -1.18621094 8.9040625 -1.18554688 7.953125 C-1.14046308 1.14046308 -1.14046308 1.14046308 0 0 Z " fill="#373737" transform="translate(108,114)"/>
<path d="M0 0 C0.33 0 0.66 0 1 0 C1.60241173 7.8313525 -0.49177956 14.98355913 -4 22 C-7.24271506 21.4409112 -8.93057424 20.5867822 -11 18 C-11 17.34 -11 16.68 -11 16 C-11.66 16 -12.32 16 -13 16 C-11.53033642 12.60140297 -9.61962486 10.35036291 -7 7.75 C-5.948125 6.69039063 -5.948125 6.69039063 -4.875 5.609375 C-3 4 -3 4 -1 4 C-0.67 2.68 -0.34 1.36 0 0 Z " fill="#060606" transform="translate(235,84)"/>
<path d="M0 0 C0 0.66 0 1.32 0 2 C0.66 2 1.32 2 2 2 C2 2.66 2 3.32 2 4 C2.66 4 3.32 4 4 4 C2.61867539 7.1268791 1.02096237 9.19920392 -1.4375 11.5625 C-2.03433594 12.14128906 -2.63117188 12.72007812 -3.24609375 13.31640625 C-4.11427734 14.14978516 -4.11427734 14.14978516 -5 15 C-6.00244797 15.99754602 -7.00278163 16.99722609 -8 18 C-8.66 18.66 -9.32 19.32 -10 20 C-9.38784286 5.96260343 -9.38784286 5.96260343 -6 0 C-3.50907189 -1.24546405 -2.58919267 -0.7767578 0 0 Z " fill="#060606" transform="translate(118,191)"/>
<path d="M0 0 C2.97337774 2.53611631 4.2368853 5.30582943 5.75 8.875 C6.19859375 9.90367187 6.6471875 10.93234375 7.109375 11.9921875 C8.05535828 15.18695559 7.95265968 16.85157594 7 20 C6.56429687 19.62488281 6.12859375 19.24976563 5.6796875 18.86328125 C4.78636719 18.09564453 4.78636719 18.09564453 3.875 17.3125 C3.24078125 16.7659375 2.6065625 16.219375 1.953125 15.65625 C0.2027984 14.17197304 -1.5798273 12.74166661 -3.375 11.3125 C-6 9 -6 9 -7 6 C-6.34 5.34 -5.68 4.68 -5 4 C-5 3.67 -5 3.34 -5 3 C-3.35 2.67 -1.7 2.34 0 2 C0 1.34 0 0.68 0 0 Z " fill="#191919" transform="translate(228,143)"/>
<path d="M0 0 C2.59498255 0.28652932 3.74398252 0.73182169 5.5625 2.63671875 C6.036875 3.31347656 6.51125 3.99023438 7 4.6875 C7.50789062 5.409375 8.01578125 6.13125 8.5390625 6.875 C9.02117187 7.57625 9.50328125 8.2775 10 9 C10.78375 10.051875 11.5675 11.10375 12.375 12.1875 C14.08376033 15.14496981 14.39378877 16.65279542 14 20 C12.33770914 18.57517927 10.67577103 17.14997692 9.015625 15.72265625 C7.69932571 14.59767954 6.3766416 13.48011909 5.046875 12.37109375 C4.43328125 11.85675781 3.8196875 11.34242188 3.1875 10.8125 C2.62417969 10.34457031 2.06085938 9.87664062 1.48046875 9.39453125 C0 8 0 8 -2 5 C-1.48275862 1.48275862 -1.48275862 1.48275862 0 0 Z " fill="#101010" transform="translate(152,168)"/>
<path d="M0 0 C0.66 0.66 1.32 1.32 2 2 C0.02 4.31 -1.96 6.62 -4 9 C-1.75041666 11.58333229 -1.75041666 11.58333229 1 14 C4.88595704 14.44572515 4.88595704 14.44572515 6.703125 12.46875 C7.21359375 11.8190625 7.7240625 11.169375 8.25 10.5 C8.77078125 9.8503125 9.2915625 9.200625 9.828125 8.53125 C10.21484375 8.0259375 10.6015625 7.520625 11 7 C11.66 7.66 12.32 8.32 13 9 C12.50628906 9.47050781 12.01257813 9.94101563 11.50390625 10.42578125 C10.86324219 11.04839844 10.22257812 11.67101562 9.5625 12.3125 C8.92441406 12.92738281 8.28632813 13.54226562 7.62890625 14.17578125 C5.7778582 16.00644056 5.7778582 16.00644056 5 19 C6.32 19.66 7.64 20.32 9 21 C9 21.66 9 22.32 9 23 C9.66 23 10.32 23 11 23 C11.66 24.32 12.32 25.64 13 27 C12.34 27.33 11.68 27.66 11 28 C9.29115995 26.37660195 7.62553283 24.70680947 6 23 C6 22.34 6 21.68 6 21 C5.34 21 4.68 21 4 21 C4 20.34 4 19.68 4 19 C3.071875 19.99 3.071875 19.99 2.125 21 C0 23 0 23 -2 23 C-2 23.66 -2 24.32 -2 25 C-4 26.625 -4 26.625 -6 28 C-6 27.01 -6 26.02 -6 25 C-4.33333333 23.33333333 -2.66666667 21.66666667 -1 20 C-0.13880866 17.82653432 -0.13880866 17.82653432 0 16 C-1.175625 15.13375 -1.175625 15.13375 -2.375 14.25 C-5 12 -5 12 -7 8 C-4.69 5.36 -2.38 2.72 0 0 Z " fill="#151515" transform="translate(169,130)"/>
<path d="M0 0 C0.66 0.66 1.32 1.32 2 2 C1.01 2.66 0.02 3.32 -1 4 C-0.81584568 6.94091587 -0.81584568 6.94091587 0 10 C1.32374391 10.68551024 2.65930156 11.34827159 4 12 C5.62859293 13.49377563 7.21016976 15.03988064 8.75 16.625 C9.54921875 17.44226563 10.3484375 18.25953125 11.171875 19.1015625 C12.07679688 20.04128906 12.07679688 20.04128906 13 21 C13.66 20.34 14.32 19.68 15 19 C15.66 21.31 16.32 23.62 17 26 C13.02952371 25.46370609 11.38863752 23.64457913 8.734375 20.74609375 C7.52201172 19.46508789 7.52201172 19.46508789 6.28515625 18.15820312 C4.600338 16.35007383 2.92573912 14.5323658 1.26171875 12.70507812 C-2.87491642 8.0860201 -2.87491642 8.0860201 -8.26953125 5.39306641 C-10.65261242 5.31487892 -10.65261242 5.31487892 -14 6 C-15.155 6.165 -16.31 6.33 -17.5 6.5 C-18.325 6.665 -19.15 6.83 -20 7 C-17.73624013 4.73624013 -16.75136227 4.55027245 -13.6875 3.9375 C-12.88570312 3.77378906 -12.08390625 3.61007813 -11.2578125 3.44140625 C-10.14019531 3.22291016 -10.14019531 3.22291016 -9 3 C-8.030625 2.79375 -7.06125 2.5875 -6.0625 2.375 C-4 2 -4 2 -2 2 C-1.34 1.34 -0.68 0.68 0 0 Z " fill="#151515" transform="translate(152,166)"/>
<path d="M0 0 C1.32 0.66 2.64 1.32 4 2 C3.70231946 5.26886931 3.37892684 6.65033116 0.92578125 8.9140625 C-9.10008271 15.47808106 -9.10008271 15.47808106 -13 17 C-13.99 16.67 -14.98 16.34 -16 16 C-14.21427748 14.16052663 -12.42197551 12.32842259 -10.625 10.5 C-10.11710938 9.97535156 -9.60921875 9.45070312 -9.0859375 8.91015625 C-7.76167396 7.56846819 -6.38394135 6.28004185 -5 5 C-4.34 5 -3.68 5 -3 5 C-2.690625 4.360625 -2.38125 3.72125 -2.0625 3.0625 C-1 1 -1 1 0 0 Z " fill="#090909" transform="translate(147,125)"/>
<path d="M0 0 C0.6875 1.73046875 0.6875 1.73046875 1 4 C-2.17987626 9.65892453 -8.79075946 18.68880295 -15.20703125 20.6875 C-15.79871094 20.790625 -16.39039063 20.89375 -17 21 C-17 21.66 -17 22.32 -17 23 C-18.65 23 -20.3 23 -22 23 C-20.38405168 20.95880212 -18.7143618 18.95927063 -17 17 C-16.34 17 -15.68 17 -15 17 C-14.67 16.01 -14.34 15.02 -14 14 C-11.9375 12.8125 -11.9375 12.8125 -10 12 C-10 11.34 -10 10.68 -10 10 C-7.625 7.375 -7.625 7.375 -5 5 C-4.34 5 -3.68 5 -3 5 C-2.690625 4.360625 -2.38125 3.72125 -2.0625 3.0625 C-1 1 -1 1 0 0 Z " fill="#0F0F0F" transform="translate(232,185)"/>
<path d="M0 0 C0 1.65 0 3.3 0 5 C-0.66 5 -1.32 5 -2 5 C-2.20625 5.66 -2.4125 6.32 -2.625 7 C-4.51152871 11.11606263 -7.20567979 14.4587703 -10 18 C-11.875 17.6875 -11.875 17.6875 -14 17 C-14.66 16.01 -15.32 15.02 -16 14 C-14.06555623 12.03856399 -12.12763179 10.08079606 -10.1875 8.125 C-9.64029297 7.56941406 -9.09308594 7.01382813 -8.52929688 6.44140625 C-7.99755859 5.90644531 -7.46582031 5.37148437 -6.91796875 4.8203125 C-6.18743286 4.08192139 -6.18743286 4.08192139 -5.44213867 3.32861328 C-1.82910695 0 -1.82910695 0 0 0 Z " fill="#0A0A0A" transform="translate(165,109)"/>
<path d="M0 0 C1.32 0.99 2.64 1.98 4 3 C3.01 3.33 2.02 3.66 1 4 C0.72285156 4.56203125 0.44570312 5.1240625 0.16015625 5.703125 C-1.48061103 8.95151275 -3.9875752 11.23771742 -6.5625 13.75 C-7.06974609 14.25660156 -7.57699219 14.76320312 -8.09960938 15.28515625 C-11.85951188 19 -11.85951188 19 -13 19 C-12.7464147 14.68904992 -12.4154009 12.50285372 -9.625 9.125 C-7 7 -7 7 -4 6 C-2.90833725 4.06669397 -2.90833725 4.06669397 -2 2 C-1.34 1.34 -0.68 0.68 0 0 Z " fill="#0C0C0C" transform="translate(191,169)"/>
<path d="M0 0 C1.10844919 3.32534757 0.84454356 5.62182575 0 9 C0.58394531 9.23589844 1.16789063 9.47179687 1.76953125 9.71484375 C4.46960371 11.27057727 5.75853324 13.12488075 7.6875 15.5625 C12.15889046 20.25971826 15.85251121 20.86126525 22.0625 21.0625 C24.71736856 21.10693641 27.3444433 21.07622149 30 21 C30 21.33 30 21.66 30 22 C23.07 22 16.14 22 9 22 C8.34 20.68 7.68 19.36 7 18 C5.29004456 16.0500371 5.29004456 16.0500371 3.375 14.25 C2.74335938 13.63640625 2.11171875 13.0228125 1.4609375 12.390625 C0.97882813 11.93171875 0.49671875 11.4728125 0 11 C-0.66 13.31 -1.32 15.62 -2 18 C-2.66 18 -3.32 18 -4 18 C-4 16.02 -4 14.04 -4 12 C-3.34 12 -2.68 12 -2 12 C-1.90912109 11.07767578 -1.90912109 11.07767578 -1.81640625 10.13671875 C-1.69072266 8.92435547 -1.69072266 8.92435547 -1.5625 7.6875 C-1.48128906 6.88699219 -1.40007812 6.08648437 -1.31640625 5.26171875 C-1 3 -1 3 0 0 Z " fill="#1C1C1C" transform="translate(175,190)"/>
<path d="M0 0 C0.95465783 2.16967689 1.14401212 3.56328793 0.3984375 5.82421875 C-0.35870385 7.5684743 -1.17609198 9.28627131 -2 11 C-2.66 10.34 -3.32 9.68 -4 9 C-4.66386719 9.60328125 -5.32773438 10.2065625 -6.01171875 10.828125 C-6.89472656 11.62734375 -7.77773437 12.4265625 -8.6875 13.25 C-9.55761719 14.03890625 -10.42773438 14.8278125 -11.32421875 15.640625 C-13.82420863 17.84499564 -16.37945728 19.94133941 -19 22 C-19 19 -19 19 -17.47119141 17.09887695 C-16.77171387 16.40238037 -16.07223633 15.70588379 -15.3515625 14.98828125 C-14.21460938 13.85229492 -14.21460938 13.85229492 -13.0546875 12.69335938 C-12.25289062 11.90767578 -11.45109375 11.12199219 -10.625 10.3125 C-9.8309375 9.51521484 -9.036875 8.71792969 -8.21875 7.89648438 C-2.26678117 2 -2.26678117 2 0 2 C0 1.34 0 0.68 0 0 Z " fill="#121212" transform="translate(168,101)"/>
<path d="M0 0 C1.09570312 0.00902344 2.19140625 0.01804687 3.3203125 0.02734375 C4.16335937 0.03894531 5.00640625 0.05054687 5.875 0.0625 C2.4939962 4.19871084 -0.79090534 7.87566569 -5.125 11.0625 C-5.19847656 10.10537109 -5.19847656 10.10537109 -5.2734375 9.12890625 C-5.34820312 8.30261719 -5.42296875 7.47632812 -5.5 6.625 C-5.56960937 5.80128906 -5.63921875 4.97757812 -5.7109375 4.12890625 C-5.84757813 3.44699219 -5.98421875 2.76507813 -6.125 2.0625 C-6.785 1.7325 -7.445 1.4025 -8.125 1.0625 C-5.36047967 -0.31976016 -3.0788637 -0.03275387 0 0 Z " fill="#020202" transform="translate(179.125,83.9375)"/>
<path d="M0 0 C0.33 0 0.66 0 1 0 C1.02696009 2.7708983 1.04681952 5.5415345 1.0625 8.3125 C1.07087891 9.09818359 1.07925781 9.88386719 1.08789062 10.69335938 C1.09272461 11.8293457 1.09272461 11.8293457 1.09765625 12.98828125 C1.10551147 14.03302612 1.10551147 14.03302612 1.11352539 15.09887695 C1 17 1 17 0 20 C-0.66 20 -1.32 20 -2 20 C-2.33 20.99 -2.66 21.98 -3 23 C-4.48705316 24.26076246 -5.9776234 25.51851847 -7.5078125 26.7265625 C-9.32149815 28.27436753 -10.58629346 30.09149618 -12 32 C-12.66 32 -13.32 32 -14 32 C-14 32.66 -14 33.32 -14 34 C-14.66 34 -15.32 34 -16 34 C-14.63055898 31.05043472 -13.12169591 28.47531189 -11 26 C-10.34 26 -9.68 26 -9 26 C-9 25.34 -9 24.68 -9 24 C-3.52380952 19 -3.52380952 19 -1 19 C-0.67 12.73 -0.34 6.46 0 0 Z " fill="#383838" transform="translate(236,163)"/>
<path d="M0 0 C3.42857143 7.28571429 3.42857143 7.28571429 3 12 C1.8944811 11.06409496 0.79064547 10.12620142 -0.3125 9.1875 C-0.92738281 8.66542969 -1.54226562 8.14335937 -2.17578125 7.60546875 C-5.51952278 4.6626898 -5.51952278 4.6626898 -7 3 C-7 2.34 -7 1.68 -7 1 C-4 0 -4 0 0 0 Z " fill="#0B0B0B" transform="translate(232,148)"/>
<path d="M0 0 C-1.423125 0.12375 -1.423125 0.12375 -2.875 0.25 C-6.03779089 0.62430069 -6.03779089 0.62430069 -7.0625 2.6875 C-7.371875 3.450625 -7.68125 4.21375 -8 5 C-9.55052216 7.149707 -11.20922994 9.03015294 -13 11 C-13.66 11 -14.32 11 -15 11 C-15.66 12.32 -16.32 13.64 -17 15 C-17.66 14.01 -18.32 13.02 -19 12 C-17.7934375 11.1028125 -17.7934375 11.1028125 -16.5625 10.1875 C-13.77672016 8.19052724 -13.77672016 8.19052724 -13 5 C-13.66 4.67 -14.32 4.34 -15 4 C-13.730447 3.35165346 -12.45930294 2.70642185 -11.1875 2.0625 C-10.47980469 1.70285156 -9.77210938 1.34320313 -9.04296875 0.97265625 C-5.54717095 -0.69169108 -3.67208522 -1.13961265 0 0 Z " fill="#2D2D2D" transform="translate(143,84)"/>
<path d="M0 0 C1.1055189 0.93590504 2.20935453 1.87379858 3.3125 2.8125 C3.92738281 3.33457031 4.54226562 3.85664063 5.17578125 4.39453125 C8.51952278 7.3373102 8.51952278 7.3373102 10 9 C10 9.66 10 10.32 10 11 C7.69 11 5.38 11 3 11 C0.84694043 7.14243493 -0.39253254 4.44870215 0 0 Z " fill="#070707" transform="translate(109,135)"/>
<path d="M0 0 C0.66 0.66 1.32 1.32 2 2 C1.50628906 2.47050781 1.01257813 2.94101563 0.50390625 3.42578125 C-0.45708984 4.35970703 -0.45708984 4.35970703 -1.4375 5.3125 C-2.07558594 5.92738281 -2.71367187 6.54226562 -3.37109375 7.17578125 C-5.2221418 9.00644056 -5.2221418 9.00644056 -6 12 C-4.68 12.66 -3.36 13.32 -2 14 C-2 14.66 -2 15.32 -2 16 C-1.34 16 -0.68 16 0 16 C0.66 17.32 1.32 18.64 2 20 C1.34 20.33 0.68 20.66 0 21 C-1.70884005 19.37660195 -3.37446717 17.70680947 -5 16 C-5 15.34 -5 14.68 -5 14 C-5.66 14 -6.32 14 -7 14 C-7 13.34 -7 12.68 -7 12 C-7.66 12 -8.32 12 -9 12 C-9 9 -9 9 -7.28515625 7.24609375 C-6.55167969 6.64925781 -5.81820312 6.05242187 -5.0625 5.4375 C-2.07351045 3.08714476 -2.07351045 3.08714476 0 0 Z " fill="#171717" transform="translate(180,137)"/>
<path d="M0 0 C-1.32120828 2.93230193 -2.74638197 4.98664899 -5.0390625 7.234375 C-5.90917969 8.09482422 -5.90917969 8.09482422 -6.796875 8.97265625 C-7.40015625 9.55917969 -8.0034375 10.14570313 -8.625 10.75 C-9.23601562 11.35199219 -9.84703125 11.95398438 -10.4765625 12.57421875 C-11.97988624 14.05405305 -13.48934856 15.52764676 -15 17 C-15.66 16.67 -16.32 16.34 -17 16 C-16.13375 15.08476562 -15.2675 14.16953125 -14.375 13.2265625 C-13.2497401 12.02628527 -12.12475421 10.82575112 -11 9.625 C-10.42765625 9.02171875 -9.8553125 8.4184375 -9.265625 7.796875 C-8.72421875 7.21679688 -8.1828125 6.63671875 -7.625 6.0390625 C-7.12226563 5.50490723 -6.61953125 4.97075195 -6.1015625 4.42041016 C-4.79572319 3.03617846 -4.79572319 3.03617846 -5 1 C-3 0 -3 0 0 0 Z " fill="#141414" transform="translate(217,151)"/>
<path d="M0 0 C1.14626322 0.97866338 2.29199788 1.95794587 3.4375 2.9375 C4.07558594 3.48277344 4.71367187 4.02804688 5.37109375 4.58984375 C6.26991149 5.36795695 7.15936528 6.15936528 8 7 C8.66 6.34 9.32 5.68 10 5 C10.66 7.31 11.32 9.62 12 12 C7.89552608 11.48223379 6.04300477 9.35372556 3.25 6.4375 C2.45078125 5.61121094 1.6515625 4.78492188 0.828125 3.93359375 C0.22484375 3.29550781 -0.3784375 2.65742188 -1 2 C-0.67 1.34 -0.34 0.68 0 0 Z " fill="#232323" transform="translate(157,180)"/>
<path d="M0 0 C1.10844919 3.32534757 0.84454356 5.62182575 0 9 C1.32 9.66 2.64 10.32 4 11 C3.01 11.33 2.02 11.66 1 12 C0.67 11.67 0.34 11.34 0 11 C-0.66 13.31 -1.32 15.62 -2 18 C-2.66 18 -3.32 18 -4 18 C-4 16.02 -4 14.04 -4 12 C-3.34 12 -2.68 12 -2 12 C-1.90912109 11.07767578 -1.90912109 11.07767578 -1.81640625 10.13671875 C-1.69072266 8.92435547 -1.69072266 8.92435547 -1.5625 7.6875 C-1.48128906 6.88699219 -1.40007812 6.08648437 -1.31640625 5.26171875 C-1 3 -1 3 0 0 Z " fill="#333333" transform="translate(175,190)"/>
<path d="M0 0 C-0.33 1.32 -0.66 2.64 -1 4 C-1.66 4 -2.32 4 -3 4 C-3.33 4.99 -3.66 5.98 -4 7 C-6.0625 7.6875 -6.0625 7.6875 -8 8 C-8.33 7.34 -8.66 6.68 -9 6 C-4.38461538 0 -4.38461538 0 0 0 Z " fill="#030303" transform="translate(130,89)"/>
<path d="M0 0 C0.33 0.99 0.66 1.98 1 3 C3.64 3 6.28 3 9 3 C9 3.33 9 3.66 9 4 C6.03 4.66 3.06 5.32 0 6 C0 5.34 0 4.68 0 4 C-3.16666667 5.83333333 -3.16666667 5.83333333 -5 9 C-5.99 7.68 -6.98 6.36 -8 5 C-7.13375 4.87625 -7.13375 4.87625 -6.25 4.75 C-3.3840696 3.79468987 -2.0009236 2.21530827 0 0 Z " fill="#2A2A2A" transform="translate(197,121)"/>
<path d="M0 0 C0.33 0.66 0.66 1.32 1 2 C1.8353125 2.37125 1.8353125 2.37125 2.6875 2.75 C6.08907973 4.58869174 8.33134055 7.21003785 11 10 C10.67 10.66 10.34 11.32 10 12 C8.02 10.35 6.04 8.7 4 7 C3.34 7.66 2.68 8.32 2 9 C0.50178941 5.62902617 0 3.79557881 0 0 Z " fill="#242424" transform="translate(175,101)"/>
<path d="M0 0 C0 0.99 0 1.98 0 3 C1.44802604 4.85743816 3.05151023 6.49079878 4.6875 8.18359375 C6 10 6 10 6 14 C5.01 14.66 4.02 15.32 3 16 C3.66 14.35 4.32 12.7 5 11 C4.34 11 3.68 11 3 11 C3 10.34 3 9.68 3 9 C2.34 9 1.68 9 1 9 C0.67 8.34 0.34 7.68 0 7 C-1.32 7 -2.64 7 -4 7 C-2.92598892 4.08482708 -2.22189824 2.22189824 0 0 Z " fill="#232323" transform="translate(117,184)"/>
<path d="M0 0 C0.66 0.33 1.32 0.66 2 1 C0.58474822 2.58459815 -0.8322642 4.16762391 -2.25 5.75 C-3.03890625 6.63171875 -3.8278125 7.5134375 -4.640625 8.421875 C-6.70592672 10.67866165 -8.81735064 12.85739926 -11 15 C-11 11.30165104 -10.18635778 10.72918572 -7.75 8.0625 C-7.11449219 7.36253906 -6.47898438 6.66257813 -5.82421875 5.94140625 C-3.92272554 3.91776145 -2.00339585 1.92326002 0 0 Z " fill="#262626" transform="translate(195,162)"/>
<path d="M0 0 C0.33 0.99 0.66 1.98 1 3 C-0.11878383 4.17262904 -1.24523051 5.33795138 -2.375 6.5 C-3.00148437 7.1496875 -3.62796875 7.799375 -4.2734375 8.46875 C-6 10 -6 10 -8 10 C-7.67 7.69 -7.34 5.38 -7 3 C-6.34 3.66 -5.68 4.32 -5 5 C-3.35 3.35 -1.7 1.7 0 0 Z " fill="#222222" transform="translate(184,182)"/>
<path d="M0 0 C0.99 0 1.98 0 3 0 C3 0.99 3 1.98 3 3 C3.66 3 4.32 3 5 3 C5 3.66 5 4.32 5 5 C4.01 4.67 3.02 4.34 2 4 C-2.84815131 3.84104422 -7.22480555 4.04496111 -12 5 C-9.68789868 2.68789868 -8.58208523 2.53815111 -5.4375 1.9375 C-2.4322803 1.53522134 -2.4322803 1.53522134 0 0 Z " fill="#4C4C4C" transform="translate(144,168)"/>
<path d="M0 0 C3.3 0 6.6 0 10 0 C9.21625 0.61875 8.4325 1.2375 7.625 1.875 C5.03162353 3.89858661 5.03162353 3.89858661 3 6 C1.5 4.6875 1.5 4.6875 0 3 C0 2.01 0 1.02 0 0 Z " fill="#252525" transform="translate(115,149)"/>
<path d="M0 0 C-1.98 0.99 -1.98 0.99 -4 2 C-4 2.33 -4 2.66 -4 3 C-5.98 3 -7.96 3 -10 3 C-10.33 3.66 -10.66 4.32 -11 5 C-11.66 3.35 -12.32 1.7 -13 0 C-11.58456585 -0.19658808 -10.16755969 -0.38187546 -8.75 -0.5625 C-7.96109375 -0.66691406 -7.1721875 -0.77132812 -6.359375 -0.87890625 C-3.99467126 -1.00027349 -2.2488963 -0.69633257 0 0 Z " fill="#767676" transform="translate(125,146)"/>
<path d="M0 0 C0.66 0.33 1.32 0.66 2 1 C-3.94 6.445 -3.94 6.445 -10 12 C-10.66 11.67 -11.32 11.34 -12 11 C-10.75323147 9.72599623 -9.5024352 8.45593346 -8.25 7.1875 C-7.55390625 6.47980469 -6.8578125 5.77210938 -6.140625 5.04296875 C-4.18571355 3.17724121 -2.19661447 1.56830358 0 0 Z " fill="#D8D8D8" transform="translate(190,149)"/>
<path d="M0 0 C0.95465783 2.16967689 1.14401212 3.56328793 0.3984375 5.82421875 C-0.35870385 7.5684743 -1.17609198 9.28627131 -2 11 C-3.36741555 8.74778616 -4.04066478 7.47442242 -3.8125 4.8125 C-3.4103125 3.9153125 -3.4103125 3.9153125 -3 3 C-2.01 2.67 -1.02 2.34 0 2 C0 1.34 0 0.68 0 0 Z " fill="#303030" transform="translate(168,101)"/>
<path d="M0 0 C4.2742558 1.5830577 6.26531794 4.50568404 9 8 C6 8 6 8 4.39453125 6.7578125 C3.87246094 6.21898438 3.35039062 5.68015625 2.8125 5.125 C2.28269531 4.59132813 1.75289062 4.05765625 1.20703125 3.5078125 C0 2 0 2 0 0 Z " fill="#121212" transform="translate(187,114)"/>
<path d="M0 0 C0.66 0.66 1.32 1.32 2 2 C-0.31 4.31 -2.62 6.62 -5 9 C-5.66 8.67 -6.32 8.34 -7 8 C-4.69 5.36 -2.38 2.72 0 0 Z " fill="#2C2C2C" transform="translate(169,130)"/>
<path d="M0 0 C1.32168051 2.17688554 2.0131712 3.55217933 1.9375 6.125 C1 8 1 8 -1.5625 9.25 C-2.366875 9.4975 -3.17125 9.745 -4 10 C-3.525625 9.278125 -3.05125 8.55625 -2.5625 7.8125 C-1.05847097 5.10524774 -0.43400818 3.03805725 0 0 Z " fill="#2C2C2C" transform="translate(169,193)"/>
<path d="M0 0 C1.5 1.375 1.5 1.375 3 3 C3 3.66 3 4.32 3 5 C0.36 5.33 -2.28 5.66 -5 6 C-5 5.01 -5 4.02 -5 3 C-3.35 2.67 -1.7 2.34 0 2 C0 1.34 0 0.68 0 0 Z " fill="#737373" transform="translate(228,143)"/>
<path d="M0 0 C2.475 0.99 2.475 0.99 5 2 C4.67 4.31 4.34 6.62 4 9 C3.731875 8.4225 3.46375 7.845 3.1875 7.25 C1.98280141 4.9674132 0.59201885 3.0262058 -1 1 C-0.67 0.67 -0.34 0.34 0 0 Z " fill="#202020" transform="translate(166,92)"/>
<path d="M0 0 C-0.33 1.32 -0.66 2.64 -1 4 C-2.65 4 -4.3 4 -6 4 C-5.67 3.01 -5.34 2.02 -5 1 C-3 0 -3 0 0 0 Z " fill="#0F0F0F" transform="translate(130,89)"/>
<path d="M0 0 C0 1.98 0 3.96 0 6 C-0.99 6.33 -1.98 6.66 -3 7 C-3 5.02 -3 3.04 -3 1 C-1 0 -1 0 0 0 Z " fill="#484848" transform="translate(174,201)"/>
<path d="M0 0 C-1.36983503 3.16115776 -1.9890638 3.9927092 -5 6 C-5 4.35 -5 2.7 -5 1 C-3 0 -3 0 0 0 Z " fill="#1A1A1A" transform="translate(217,151)"/>
<path d="M0 0 C0 3 0 3 -1 6 C-1.99 6 -2.98 6 -4 6 C-4.33 6.66 -4.66 7.32 -5 8 C-5.33 7.01 -5.66 6.02 -6 5 C-4.02 3.35 -2.04 1.7 0 0 Z " fill="#E5E5E5" transform="translate(224,113)"/>
</svg>
