<svg width="220" height="220" viewBox="0 0 220 220" fill="none" xmlns="http://www.w3.org/2000/svg">
<g clip-path="url(#clip0_108_22)">
<path d="M110 220C170.751 220 220 170.751 220 110C220 49.2487 170.751 0 110 0C49.2487 0 0 49.2487 0 110C0 170.751 49.2487 220 110 220Z" fill="#FF914D"/>
<path fill-rule="evenodd" clip-rule="evenodd" d="M110 187.398C67.2513 187.398 32.6013 152.748 32.6013 109.999C32.6013 67.2506 67.2513 32.6006 110 32.6006C152.749 32.6006 187.399 67.2506 187.399 109.999C187.399 152.748 152.749 187.398 110 187.398ZM110 182.847C150.233 182.847 182.848 150.232 182.848 109.999C182.848 69.7668 150.233 37.1518 110 37.1518C69.7675 37.1518 37.1525 69.7668 37.1525 109.999C37.1525 150.232 69.7675 182.847 110 182.847Z" fill="white"/>
<path d="M96.8688 165.907C98.5738 165.206 105.243 160.063 111.684 154.529C119.669 147.738 127.349 140.597 134.702 133.127C141.756 126.073 144.375 123.041 144.808 121.474C146.334 115.967 129.649 55.4326 126.253 54.1332C124.183 53.3357 105.676 68.7288 89.2857 84.8438C79.6744 94.2901 77.0138 97.432 76.8075 99.4876C76.67 101.076 77.22 105.056 78.2444 109.773C82.3213 128.486 89.7394 154.343 93.4932 162.834C95.0675 166.436 95.2463 166.594 96.8619 165.907H96.8688Z" fill="white"/>
</g>
<defs>
<clipPath id="clip0_108_22">
<rect width="220" height="220" fill="white"/>
</clipPath>
</defs>
</svg>
