<svg width="220" height="220" viewBox="0 0 220 220" fill="none" xmlns="http://www.w3.org/2000/svg">
<g clip-path="url(#clip0_306_17)">
<circle cx="110" cy="110" r="110" fill="white"/>
<path d="M68.0591 124.414L72.6586 89.8556L32.763 62.1599L69.2151 74.5074L77.8239 61.299L109.258 41.7939L178.547 79.9678L182.138 138.213L151.269 181.109L126.869 184.848L139.488 161.751V139.516L130.313 122.151L120.991 115.977L106.651 130.76V146.403L95.4596 156.881L81.2428 158.603L74.9461 162.17L64.6155 158.874L60.3111 143.378L68.0591 132.481V124.414Z" fill="white"/>
<path d="M131.764 61.8646C124.164 60.2904 115.85 60.7085 115.85 60.7085C115.85 60.7085 113.12 73.3266 96.1973 76.6471C96.3203 76.6471 118.556 84.2474 131.764 61.8646Z" fill="#94A6C3"/>
<path d="M138.651 176.361C147.826 169.179 154.713 159.291 157.886 148.1C158.033 147.682 159.312 146.944 160.173 146.378C161.6 145.517 163.051 144.804 163.321 143.648C163.887 140.352 164.182 136.909 164.182 133.465C164.182 132.186 162.879 130.882 161.6 129.603C160.591 128.743 159.583 127.734 159.583 127.021C158.156 113.96 152.13 101.76 142.513 92.8807L141.504 93.8891C150.826 102.646 156.853 114.55 158.156 127.168C158.304 128.324 159.435 129.456 160.591 130.612C161.6 131.473 162.756 132.776 162.756 133.342C162.756 136.638 162.461 139.934 161.895 143.23C161.747 143.796 160.468 144.386 159.46 144.952C158.033 145.665 156.73 146.378 156.459 147.534C153.016 159.734 145.12 170.36 134.642 177.247C136.511 173.238 142.39 160.177 145.538 153.56L144.972 132.334L126.746 114.698L116.416 116.124L105.077 134.498C105.077 134.498 110.39 141.238 102.912 149.133C95.6071 156.881 89.8515 158.603 89.8515 158.603L84.5387 155.725C86.1128 153.708 89.2858 150.707 91.7209 148.69C95.8777 145.247 100.035 144.952 100.035 141.238C100.207 133.465 91.8684 135.605 91.8684 135.605L88.8431 138.483L87.564 149.108L81.2673 157.004L80.554 156.856L70.2234 154.569C70.2234 154.569 76.5448 151.273 77.5532 147.534C78.5617 143.943 75.5363 132.038 75.3887 131.325C75.5363 131.473 78.4141 133.908 79.6931 137.917C81.9806 131.596 85.006 125.57 85.8669 125.004C86.7278 124.438 98.3373 118.264 98.3373 118.264L94.4757 128.447L97.3535 126.873L104.241 109.951C104.241 109.951 110.98 106.655 115.998 106.655C125.025 106.507 138.381 95.4633 132.354 75.6631C134.076 76.3764 163.912 91.3065 169.077 120.576C172.939 143.082 160.173 164.162 138.651 176.361Z" fill="#94A6C3"/>
<path d="M104.512 65.0128C107.808 61.1265 106.529 55.3955 106.529 55.3955L96.9114 69.6123C96.7638 69.6123 100.33 69.7599 104.512 65.0128Z" fill="#1B314F"/>
<path d="M72.2158 142.639L73.3718 136.908C73.3718 136.908 68.6247 145.222 68.2066 146.378C67.7638 147.682 68.5017 149.969 70.3464 149.821C72.2158 149.674 74.5033 146.944 74.5033 144.951C74.5033 142.369 72.2158 142.639 72.2158 142.639Z" fill="#1B314F"/>
<path d="M159.533 48.9609C159.533 48.9609 166.829 49.2609 174.4 50.1357C157.335 36.7131 141.169 32.7888 128.052 32.7888C109.988 32.7888 97.7452 40.2375 96.9956 40.6624L102.692 31.614C102.692 31.614 79.9557 29.4144 71.9355 53.4851C69.8867 48.386 68.0128 40.9374 68.0128 40.9374C68.0128 40.9374 56.1949 51.3105 61.7416 68.5074C48.1746 63.5583 28.8111 56.6846 28.0616 56.5596C27.0372 56.4096 26.7374 56.8595 26.7374 56.8595C26.7374 56.8595 26.4375 57.2845 27.312 58.0343C28.936 59.3091 59.5429 81.93 66.2639 86.3043C64.8147 91.5533 64.8147 94.0279 66.2639 96.5024C68.3127 99.8518 68.4376 101.602 68.1627 104.076C67.8629 106.551 65.2395 127.997 64.6648 130.621C64.0902 133.246 57.9688 142.569 58.2436 145.344C58.5435 148.118 62.3162 159.916 65.6892 161.241C68.1627 162.116 74.2841 164.015 78.3567 164.015C79.8058 164.015 81.13 163.715 81.7047 163.141C84.1782 160.966 84.9028 160.516 86.6518 160.516C86.8017 160.516 86.9516 160.516 87.0765 160.516C87.8011 160.516 88.6756 160.666 89.7 160.666C92.0236 160.666 95.0967 160.216 97.2705 158.191C100.469 154.992 106.015 150.618 107.764 148.568C109.963 145.794 111.112 142.019 110.538 138.22C110.088 134.721 111.987 131.646 114.185 128.597C116.959 124.947 122.056 118.399 122.056 118.399C132.125 125.947 138.396 137.47 138.396 150.293C138.396 173.039 118.583 191.41 94.0973 191.41C90.2996 191.41 86.6767 190.986 83.0289 190.111C94.2472 194.035 103.717 195.36 111.462 195.36C127.927 195.36 136.672 189.386 136.672 189.386C136.672 189.386 133.624 193.335 128.652 197.834C128.802 197.834 128.802 197.834 128.802 197.834C156.061 194.035 169.328 171.589 169.328 171.589C169.328 171.589 168.303 178.888 167.004 183.837C203.257 156.567 197.136 122.448 196.986 121.298C197.286 121.723 200.934 126.097 202.808 128.447C208.654 68.3575 159.533 48.9609 159.533 48.9609ZM103.717 144.919C103.142 145.644 100.668 147.843 98.9195 149.443C97.1705 151.043 95.2716 152.642 93.8225 154.117C93.2478 154.692 92.0735 154.992 90.3246 154.992C89.7499 154.992 89.1503 154.992 88.7255 154.992C88.4257 154.992 88.1509 154.992 87.851 154.992C87.5512 154.992 87.4013 154.992 87.2764 154.992C86.8267 154.992 86.4019 154.992 85.9522 154.992C88.1509 152.068 94.5471 145.369 96.7458 143.919C99.3692 142.169 100.693 140.42 99.0694 137.37C97.4703 134.296 93.2478 135.046 93.2478 135.046C93.2478 135.046 95.7214 134.021 97.9201 134.021C95.1467 133.296 91.6488 134.021 90.0497 135.62C88.3008 137.22 88.6006 142.919 87.876 146.544C87.1515 150.343 84.6779 152.242 80.8802 155.742C78.8314 157.642 77.3823 158.216 76.208 158.216C73.7344 157.791 70.8112 157.042 68.7624 156.317C67.3132 154.417 65.1146 148.143 64.5399 145.519C64.9646 144.069 66.7136 140.994 67.5881 139.245C69.337 135.895 70.3614 133.996 70.6613 132.246C71.2359 129.771 73.1348 114.449 73.8594 108.05C75.7582 110.525 78.3817 114.624 77.782 117.249C82.0045 111.275 78.9563 105.426 77.4822 103.101C76.183 100.777 74.434 96.1025 75.8832 91.1534C77.3323 86.2043 82.5792 72.4817 82.5792 72.4817C82.5792 72.4817 84.3281 75.5562 86.8017 74.9563C89.2752 74.3814 109.238 44.3368 109.238 44.3368C109.238 44.3368 114.635 56.1347 108.939 64.7581C103.117 73.3566 97.4204 74.9563 97.4204 74.9563C97.4204 74.9563 105.441 76.406 112.861 71.007C115.909 78.1557 118.833 85.5794 118.983 86.6042C118.533 87.629 112.711 101.627 112.137 102.501C111.837 102.801 109.813 103.376 108.339 103.676C105.865 104.401 104.416 104.851 103.817 105.276C102.792 106.151 98.1199 118.973 95.9462 125.247C93.3228 125.972 90.6994 127.447 88.8005 130.346C89.8249 129.622 93.023 129.172 95.3716 128.897C97.4204 128.747 103.667 132.096 105.291 138.37C105.291 138.52 105.291 138.52 105.291 138.67C105.616 140.969 104.891 143.169 103.717 144.919ZM90.0248 146.668C91.349 144.769 91.1991 141.569 91.349 140.545C91.4989 139.52 91.7737 137.62 92.948 137.345C94.1223 137.045 96.8957 137.495 96.8957 139.52C96.8957 141.419 94.8469 141.844 93.3978 143.169C92.3484 144.169 90.2996 146.369 90.0248 146.668ZM148.165 118.798C149.614 111.375 149.764 104.951 149.34 99.7019C155.011 107.276 158.509 116.474 159.533 125.947C159.683 127.122 160.833 128.272 162.007 129.447C163.031 130.321 164.206 131.496 164.206 132.221C164.206 135.57 163.906 138.92 163.331 142.294C163.181 142.719 161.882 143.469 160.858 144.044C159.409 144.769 158.084 145.494 157.809 146.668C154.611 157.891 147.74 167.815 138.571 174.813C152.113 160.666 158.659 137.32 148.165 118.798ZM138.996 176.113C148.465 168.815 155.761 158.616 158.959 147.093C159.109 146.668 160.408 145.919 161.282 145.344C162.732 144.619 164.206 143.744 164.481 142.569C165.055 139.22 165.355 135.72 165.355 132.221C165.355 130.921 164.031 129.597 162.732 128.297C162.007 127.422 160.833 126.397 160.833 125.672C159.658 115.024 155.436 104.976 148.89 96.6524C145.967 79.1555 134.323 73.7565 134.024 73.6065C134.323 74.0565 141.894 84.9795 136.647 97.8022C131.25 110.775 117.408 108.75 116.234 108.875C115.06 108.875 110.563 114.699 104.866 125.497C104.141 125.197 101.068 124.472 97.5703 125.072C100.194 117.774 104.141 107.425 104.866 106.551C105.166 106.251 107.339 105.676 108.814 105.251C111.587 104.526 112.886 104.076 113.336 103.501C113.636 103.051 115.085 99.7019 116.534 96.2025C117.858 96.2025 121.206 95.9025 121.481 95.7526C121.781 95.4526 124.554 88.3289 124.554 87.4541C124.554 86.7292 118.858 72.5817 116.684 67.1827C117.708 66.0079 118.733 64.5582 119.732 62.9584C149.614 66.1829 172.951 91.5533 172.951 122.298C172.951 145.919 159.109 166.49 138.996 176.113Z" fill="#1B314F"/>
<path d="M99.0508 99.0301C101.781 95.8818 100.354 90.0032 95.3122 88.9947C96.6158 85.9939 98.4605 79.9678 98.4605 79.9678C98.4605 79.9678 83.8256 102.916 82.5465 103.359C81.2429 103.802 79.9639 98.7596 79.9639 98.7596C77.2337 109.238 84.5634 110.664 85.4243 107.368C89.4336 106.335 96.3206 102.031 99.0508 99.0301Z" fill="#1B314F"/>
<path d="M86.5557 104.613L94.0085 91.8477C94.0085 91.8477 98.3129 94.0122 96.1484 97.4557C93.4428 101.465 86.5557 104.613 86.5557 104.613Z" fill="#FFD923"/>
<path d="M178.818 163.743C176.653 166.621 174.218 169.622 171.365 172.5C189.861 136.908 172.226 104.342 171.512 103.063C172.816 104.367 174.095 105.794 175.251 107.073C189.443 122.839 191.165 146.526 178.818 163.743Z" fill="#D82122"/>
<path d="M196.035 117.969C189.566 100.604 180.391 85.8217 160.173 72.4903C140.668 59.5771 119.712 60.5856 118.556 60.7332C118.408 60.7332 118.26 60.7332 118.26 60.7332C118.974 60.438 119.687 60.2904 120.4 60.1675C124.852 58.7409 130.583 57.5848 136.339 56.8715C151.564 54.6824 166.912 59.8477 177.391 70.9162C177.538 71.0637 177.538 71.0637 177.686 71.2113C189.591 83.8294 195.764 99.5958 196.035 117.969Z" fill="#D82122"/>
<path d="M155.574 46.9341C134.199 42.9248 120.425 44.9172 110.513 48.6558C110.217 47.4998 109.209 45.2123 108.348 43.343C105.372 46.9341 102.199 51.2385 100.207 53.9687C94.7462 57.7074 92.4587 61.2985 92.4587 61.2985C95.6071 50.5252 104.806 42.5067 115.998 40.4898C119.146 39.9241 122.59 39.6289 126.328 39.6289C136.216 39.7765 146.104 42.2115 155.574 46.9341Z" fill="#D82122"/>
<path d="M76.5201 74.4827C59.7453 73.917 65.3287 54.3873 65.6239 53.2559C65.6239 53.4034 66.7553 68.6041 76.5201 74.4827Z" fill="#D82122"/>
<path d="M93.025 39.334C80.1119 47.0819 82.6945 65.5785 82.6945 65.5785C70.347 46.8113 92.0166 39.7767 93.025 39.334Z" fill="#D82122"/>
<path d="M71.7979 79.6479C72.6588 80.3612 73.5196 81.6648 72.5112 83.5342C71.9455 84.5426 71.0846 84.3951 69.781 83.8293C68.0592 82.9685 57.7286 76.9423 48.4065 70.7686C59.0322 74.5072 69.781 78.5165 71.5027 79.3774C71.5027 79.3774 71.6503 79.5249 71.7979 79.6479Z" fill="white"/>
</g>
<defs>
<clipPath id="clip0_306_17">
<rect width="220" height="220" fill="white"/>
</clipPath>
</defs>
</svg>
