<svg width="220" height="220" viewBox="0 0 220 220" fill="none" xmlns="http://www.w3.org/2000/svg">
<g clip-path="url(#clip0_108_32)">
<path d="M110 220C170.751 220 220 170.751 220 110C220 49.2487 170.751 0 110 0C49.2487 0 0 49.2487 0 110C0 170.751 49.2487 220 110 220Z" fill="#F1CB60"/>
<path d="M104.933 170.885V180.943H110V165.894H99.942V170.885H104.933ZM54.4914 115.679H49.5001V140.786H54.4914V130.728H59.5582V120.67H54.4914V115.679ZM115.067 145.778H120.058V160.827H115.067V145.778ZM110 160.827H115.067V165.894H110V160.827ZM59.5582 155.836H74.6832V170.885H59.5582V155.836ZM49.5001 105.621H54.567V110.612H49.5001V105.621ZM79.7501 95.5625H84.817V100.629H79.7501V95.5625ZM110 90.4957H115.067V100.554H110V90.4957ZM44.4332 75.4463H59.5582V90.4957H44.4332V75.4463ZM89.8082 170.885H94.8751V180.943H89.8082V170.885ZM94.8751 90.4957H89.8839V100.554H94.8751V95.5625H99.942V85.5044H94.8751V90.4957ZM99.942 80.5132H104.933V85.5044H99.942V80.5132ZM99.942 95.5625H104.933V100.554H99.942V95.5625ZM74.6832 105.621H89.8082V110.612H74.6832V105.621Z" fill="white"/>
<path d="M94.875 85.5045V80.5132H99.8662V75.4464H94.875V65.4639H79.75V70.4551H89.8081V75.4464H84.7413V80.4376H79.75V85.4289H74.7587V80.5132H69.6163V75.522H74.6831V80.4376H79.75V75.4464H74.7587V65.4639H34.375V100.629H74.7587V95.5626H79.75V85.5045H84.8169V90.4957H89.8838V85.5045H94.875ZM64.625 95.5626H39.4419V70.4551H64.625V95.5626ZM69.6163 95.5626V85.5045H74.6831V95.5626H69.6163ZM89.8081 80.4376V75.522H94.875V80.4376H89.8081ZM130.192 135.719V130.728H120.058V120.67H115.067V125.661H110.076V120.67H115.067V105.545H105.009V110.612H99.8662V120.67H94.875V125.661H99.9419V120.67H104.933V135.719H94.875V130.728H89.8081V120.67H84.8169V115.679H74.6831V110.688H69.6163V105.696H59.5581V110.688H54.4913V115.679H59.5581V120.67H64.625V115.679H69.6919V120.67H64.625V125.661H69.6919V130.653H74.6831V125.661H79.75V120.67H84.7413V125.661H79.75V130.653H74.7587V140.711H84.8169V145.778H74.6831V140.786H69.6163V145.778H59.5581V140.786H54.5669V145.778H49.5V180.943H84.8169V150.769H89.8081V165.894H99.9419V160.903H105.009V150.769H99.9419V145.778H94.875V150.769H89.8838V140.711H105.009V145.702H110.076V135.719H120.058V140.786H125.125V135.719H130.192ZM79.75 175.876H54.5669V150.769H79.75V175.876ZM84.8169 135.719H79.75V130.728H84.8169V135.719ZM94.875 155.836H99.9419V160.827H94.875V155.836ZM130.192 65.4639H135.183V75.4464H130.192V65.4639ZM120.058 65.4639H115.067V80.5132H110V85.5045H115.067V90.4957H120.058V100.554H125.125V90.4957H130.192V100.629H135.183V95.5626H140.25V85.5045H130.192V75.4464H120.058V65.4639Z" fill="white"/>
<path fill-rule="evenodd" clip-rule="evenodd" d="M165.433 120.67H155.375V125.662H150.308V130.729H145.317V115.679H150.308V110.612H145.317V115.604H140.25V120.67H135.183V110.612H130.192V120.67H125.125V125.737L130.192 125.662H135.183V135.72H150.308V140.787H135.183V145.778H130.192V150.769H125.125V155.836H130.192V160.827H125.125V165.894H130.192V170.885H135.183V175.877H130.192V180.944H170.5V150.769H165.433V175.877H140.25V150.769H155.375V130.729H160.442V135.72H170.5V125.737H165.509V120.67H170.5V105.621H165.433V120.67Z" fill="white"/>
<path d="M125.125 140.786H130.192V145.778H125.125V140.786ZM150.308 115.679H155.375V120.67H150.308V115.679ZM160.442 140.786H170.5V145.853H160.442V140.786ZM160.442 75.5219H175.567V90.5713H160.442V75.5219ZM140.25 95.5625H145.317V100.629H140.25V95.5625ZM120.058 105.621H125.125V110.612H120.058V105.621ZM155.375 105.621H160.442V110.612H155.375V105.621ZM145.317 155.836H160.442V170.885H145.317V155.836ZM140.25 105.621H145.317V110.612H140.25V105.621ZM104.933 75.4463H110V80.5132H104.933V75.4463Z" fill="white"/>
<path d="M140.25 65.4639V70.4551H150.308V75.4464H145.241V80.4376H140.25V75.4464H135.183V80.5133H140.25V85.4289H145.317V90.4201H150.384V100.478H185.625V65.4639H140.25ZM180.558 95.5626H155.375V70.4551H180.558V95.5626ZM67.7256 56.6157C71.2044 58.9601 75.1369 59.4139 78.2375 59.5651C80.8844 59.7164 85.3462 59.7164 90.035 59.7164C98.7319 59.7164 108.941 59.8676 110 59.8676C112.798 59.9433 121.344 59.9432 128.906 59.9432C133.595 59.9432 137.981 59.8676 140.704 59.792C143.804 59.6407 147.737 59.1114 151.216 56.8426C155.602 53.8932 157.795 49.0532 157.795 42.4739C157.795 37.1801 155.602 34.0039 153.787 32.1889C148.871 27.4245 141.309 27.727 138.813 27.8026H138.511C136.998 27.8026 131.553 28.6345 125.125 32.2645C119.453 35.4407 114.537 39.9782 110.529 45.6501L110.076 46.7845L109.697 46.1795C105.462 39.827 99.9419 35.5164 93.8162 32.0376C87.4637 28.4076 82.0187 27.6514 80.5062 27.6514H80.2037C77.7081 27.5757 70.1456 27.2732 65.23 32.0376C61.9025 35.2139 61.2219 39.3732 61.2219 42.3226C61.1462 48.8264 63.3394 53.6664 67.7256 56.6157ZM128.831 39.6757C134.2 36.5751 138.284 36.1214 138.586 36.1214H139.116C143.426 35.9701 146.451 36.6507 148.039 38.1632C149.022 39.1464 149.552 40.5076 149.552 42.4739C149.552 49.6582 146.149 51.2464 140.326 51.5489C135.41 51.7757 123.991 51.7001 116.579 51.6245C119.629 46.7029 123.834 42.601 128.831 39.6757ZM70.9019 37.9364C72.3387 36.5751 74.91 35.8945 78.6156 35.8945H80.4306C80.7331 35.8945 84.8169 36.3482 90.1862 39.4489C95.0262 42.247 99.1856 46.2551 102.513 51.3976C95.0262 51.4732 83.6069 51.5489 78.6912 51.322C72.8681 51.0195 69.465 49.4314 69.465 42.247C69.465 40.2807 69.9187 38.9195 70.9019 37.9364ZM120.058 170.885H115.067V180.943H120.134V170.885H125.125V165.894H120.058V170.885Z" fill="white"/>
</g>
<defs>
<clipPath id="clip0_108_32">
<rect width="220" height="220" fill="white"/>
</clipPath>
</defs>
</svg>
