<svg width="220" height="220" viewBox="0 0 220 220" fill="none" xmlns="http://www.w3.org/2000/svg">
<path d="M110 216.7C168.929 216.7 216.7 168.929 216.7 110C216.7 51.071 168.929 3.2998 110 3.2998C51.0713 3.2998 3.30005 51.071 3.30005 110C3.30005 168.929 51.0713 216.7 110 216.7Z" fill="url(#paint0_linear_215_8)"/>
<path d="M156.695 152.515L120.615 65.2852C118.58 60.7752 115.555 58.5752 111.568 58.5752H108.378C104.39 58.5752 101.365 60.7752 99.3301 65.2852L83.6276 103.29H71.7476C68.2001 103.318 65.3126 106.178 65.2851 109.753V109.835C65.3126 113.383 68.2001 116.27 71.7476 116.298H78.1276L63.1401 152.515C62.8651 153.313 62.7001 154.138 62.7001 154.99C62.7001 157.025 63.3326 158.62 64.4601 159.858C65.5876 161.095 67.2101 161.7 69.2451 161.7C70.5926 161.673 71.8851 161.26 72.9576 160.463C74.1126 159.665 74.9101 158.51 75.5426 157.19L92.0426 116.27H103.483C107.03 116.243 109.918 113.383 109.945 109.808V109.643C109.918 106.095 107.03 103.208 103.483 103.18H97.3776L109.973 71.8027L144.293 157.163C144.925 158.483 145.723 159.638 146.878 160.435C147.95 161.233 149.27 161.645 150.59 161.673C152.625 161.673 154.22 161.068 155.375 159.83C156.53 158.593 157.135 156.998 157.135 154.963C157.163 154.138 157.025 153.285 156.695 152.515Z" fill="white"/>
<defs>
<linearGradient id="paint0_linear_215_8" x1="189.554" y1="43.0611" x2="30.7844" y2="176.649" gradientUnits="userSpaceOnUse">
<stop stop-color="#B6509E"/>
<stop offset="1" stop-color="#2EBAC6"/>
</linearGradient>
</defs>
</svg>
