<svg width="220" height="220" viewBox="0 0 220 220" fill="none" xmlns="http://www.w3.org/2000/svg">
<g clip-path="url(#clip0_108_27)">
<path d="M110 220C170.751 220 220 170.751 220 110C220 49.2487 170.751 0 110 0C49.2487 0 0 49.2487 0 110C0 170.751 49.2487 220 110 220Z" fill="#767DFF"/>
<path fill-rule="evenodd" clip-rule="evenodd" d="M94.6688 44.6875H125.331C126.394 44.687 127.437 44.9695 128.354 45.506C129.272 46.0425 130.029 46.8136 130.549 47.74L178.028 132.433C178.528 133.326 178.79 134.332 178.79 135.355C178.79 136.378 178.528 137.384 178.028 138.277L162.834 165.378C162.316 166.305 161.559 167.077 160.644 167.614C159.728 168.152 158.685 168.436 157.623 168.438H62.377C61.3138 168.437 60.2698 168.154 59.3527 167.616C58.4355 167.078 57.6782 166.306 57.1588 165.378L41.972 138.277C41.4722 137.384 41.2097 136.378 41.2097 135.355C41.2097 134.332 41.4722 133.326 41.972 132.433L89.4507 47.74C89.971 46.8136 90.7286 46.0425 91.6457 45.506C92.5629 44.9695 93.6063 44.687 94.6688 44.6875ZM110 78.3819L78.0107 135.355H141.989L110 78.3819Z" fill="white"/>
</g>
<defs>
<clipPath id="clip0_108_27">
<rect width="220" height="220" fill="white"/>
</clipPath>
</defs>
</svg>
