<svg width="220" height="220" viewBox="0 0 220 220" fill="none" xmlns="http://www.w3.org/2000/svg">
<g clip-path="url(#clip0_108_23)">
<path d="M110 220C170.751 220 220 170.751 220 110C220 49.2487 170.751 0 110 0C49.2487 0 0 49.2487 0 110C0 170.751 49.2487 220 110 220Z" fill="#FEC807"/>
<path fill-rule="evenodd" clip-rule="evenodd" d="M171.765 121.214H137.885L131.835 103.064H171.71C173.074 103.064 174.382 102.522 175.346 101.557C176.311 100.593 176.853 99.285 176.853 97.9211C176.853 96.5572 176.311 95.2492 175.346 94.2848C174.382 93.3204 173.074 92.7786 171.71 92.7786H128.563L111.258 40.0267C111.039 38.2839 110.205 36.6764 108.907 35.4929C107.609 34.3094 105.932 33.6274 104.176 33.5695C102.42 33.5115 100.701 34.0813 99.3282 35.1766C97.9549 36.2719 97.0171 37.8209 96.6831 39.5455L55.2956 165.379C55.1856 166.066 55.1856 166.754 55.2956 167.441C55.3243 169.118 55.9575 170.728 57.0788 171.974C58.2001 173.221 59.7339 174.021 61.3981 174.227C63.0623 174.433 64.7448 174.031 66.1361 173.095C67.5274 172.159 68.5337 170.751 68.97 169.132L103.696 63.2574L113.616 92.7786H105.023C103.659 92.7786 102.351 93.3204 101.386 94.2848C100.422 95.2492 99.88 96.5572 99.88 97.9211C99.88 99.285 100.422 100.593 101.386 101.557C102.351 102.522 103.659 103.064 105.023 103.064H117.123L123.173 121.214H105.023C104.347 121.214 103.678 121.347 103.055 121.605C102.431 121.864 101.864 122.242 101.386 122.72C100.909 123.197 100.53 123.764 100.271 124.388C100.013 125.012 99.88 125.681 99.88 126.356C99.88 127.031 100.013 127.7 100.271 128.324C100.53 128.948 100.909 129.515 101.386 129.992C101.864 130.47 102.431 130.849 103.055 131.107C103.678 131.366 104.347 131.499 105.023 131.499H126.748L136.544 160.539H84.5763C82.6508 160.539 80.8042 161.304 79.4427 162.665C78.0811 164.027 77.3163 165.873 77.3163 167.799C77.3163 169.724 78.0811 171.571 79.4427 172.932C80.8042 174.294 82.6508 175.059 84.5763 175.059H146.046C149.854 175.059 152.941 171.972 152.941 168.163C152.945 167.118 152.717 166.085 152.274 165.138L141.206 131.499H171.456C172.131 131.499 172.8 131.366 173.424 131.107C174.047 130.849 174.614 130.47 175.092 129.992C175.569 129.515 175.948 128.948 176.207 128.324C176.465 127.7 176.598 127.031 176.598 126.356C176.598 125.681 176.465 125.012 176.207 124.388C175.948 123.764 175.569 123.197 175.092 122.72C174.614 122.242 174.047 121.864 173.424 121.605C172.8 121.347 172.131 121.214 171.456 121.214H171.758H171.765Z" fill="white"/>
</g>
<defs>
<clipPath id="clip0_108_23">
<rect width="220" height="220" fill="white"/>
</clipPath>
</defs>
</svg>
