<svg width="220" height="220" viewBox="0 0 220 220" fill="none" xmlns="http://www.w3.org/2000/svg">
<g clip-path="url(#clip0_108_26)">
<path d="M110 220C170.751 220 220 170.751 220 110C220 49.2487 170.751 0 110 0C49.2487 0 0 49.2487 0 110C0 170.751 49.2487 220 110 220Z" fill="#134451"/>
<path d="M96.243 112.214C92.8262 112.214 90.2412 112.791 88.4537 113.884C86.7349 114.95 85.8687 116.565 85.8687 118.683C85.8687 120.264 86.4049 121.543 87.4155 122.45C88.4537 123.365 89.9112 123.819 91.7262 123.819C94.5449 123.819 96.8962 122.939 98.7662 121.206C100.643 119.446 101.915 116.985 102.547 113.829L102.836 112.214H96.2362H96.243ZM132.433 97.3017C131.395 96.3942 129.937 95.9404 128.129 95.9404C125.304 95.9404 122.952 96.8204 121.082 98.5529C119.212 100.313 117.934 102.774 117.308 105.93L117.012 107.539L123.612 107.511C127.029 107.511 129.614 106.934 131.395 105.84C133.114 104.775 133.98 103.166 133.98 101.042C133.98 99.4604 133.478 98.2161 132.433 97.3017Z" fill="white"/>
<path d="M185.384 101.131C183.129 80.7537 147.503 68.1449 105.841 72.9781C64.1781 77.8043 32.2368 98.2437 34.4918 118.628C36.7537 139.006 72.3524 151.607 114.036 146.781C155.732 141.948 187.646 121.509 185.384 101.131ZM141.797 111.334C137.576 114.345 131.422 115.83 123.344 115.864L115.5 115.892L115.259 117.012C115.188 117.258 115.149 117.513 115.142 117.769C115.108 117.927 115.108 118.078 115.108 118.202C115.108 119.934 115.912 121.206 117.487 122.052C119.068 122.939 121.406 123.358 124.472 123.358C127.38 123.358 130.178 123.028 132.818 122.423C135.431 121.811 137.961 120.904 140.367 119.687L138.373 130.377C135.376 131.106 132.495 131.684 129.642 132.048C126.895 132.442 124.125 132.646 121.351 132.66C117.549 132.66 114.4 132.199 111.87 131.23C109.257 130.226 106.342 128.04 104.892 124.912C102.202 127.477 99.0839 129.552 95.6793 131.044C92.5219 132.393 89.1232 133.085 85.6899 133.079C81.3587 133.114 77.9349 132.048 75.5012 129.951C73.0331 127.861 71.8162 124.939 71.7887 121.268C71.7543 115.617 73.8649 111.334 78.0587 108.357C82.2731 105.352 88.4262 103.867 96.5112 103.833L104.349 103.806L104.589 102.678C104.663 102.432 104.704 102.178 104.713 101.922C104.741 101.771 104.741 101.619 104.741 101.496C104.741 99.7631 103.936 98.4912 102.362 97.6387C100.787 96.7587 98.4431 96.3324 95.3768 96.3324C92.4687 96.3324 89.6706 96.6693 87.0306 97.2743C84.4181 97.8793 81.8881 98.7868 79.4818 100.011L81.4756 89.3199C84.4731 88.5912 87.3537 88.0137 90.2068 87.6493C92.9533 87.2556 95.7235 87.0512 98.4981 87.0374C102.307 87.0374 105.456 87.4981 107.986 88.4674C110.598 89.4712 113.506 91.6574 114.964 94.7856C117.653 92.2179 120.771 90.1402 124.176 88.6462C127.331 87.2987 130.728 86.6064 134.159 86.6112C138.497 86.5837 141.914 87.6424 144.347 89.7393C146.822 91.8362 148.032 94.7581 148.06 98.4293C148.094 104.046 146.018 108.357 141.797 111.334Z" fill="white"/>
<path d="M113.596 149.209C107.566 149.91 101.592 150.24 95.7964 150.24C82.0052 150.24 69.1145 148.301 58.3827 144.5C53.9451 142.973 49.6999 140.936 45.7327 138.429C44.2683 146.115 45.2514 152.887 49.0258 157.926C59.8677 172.412 90.207 167.799 120.223 148.301C118.023 148.631 115.823 148.934 113.596 149.209ZM106.556 70.8545C126.906 68.4827 146.52 70.1533 161.762 75.5571C166.205 77.0849 170.455 79.1244 174.426 81.6346C175.876 73.9483 174.9 67.1764 171.126 62.137C160.277 47.6514 129.945 52.2645 99.9283 71.762C102.128 71.3977 104.356 71.0952 106.556 70.8545Z" fill="white"/>
<path d="M84.4179 166.822C80.4487 167.773 76.3961 168.332 72.3179 168.493C75.3841 176.605 80.1691 182.284 86.4941 184.408C101.77 189.544 121.529 172.721 135.527 144.863C132.227 145.778 128.81 146.596 125.365 147.297C111.691 156.956 97.4322 163.79 84.4179 166.822ZM136.654 53.0202C140.625 52.0884 144.678 51.5496 148.754 51.4115C145.715 43.299 140.965 37.5927 134.633 35.4409C119.391 30.2434 99.5429 46.9771 85.456 74.7384C88.756 73.8309 92.1729 73.0402 95.6447 72.3734C109.319 62.7484 123.612 55.9971 136.654 53.0202Z" fill="white"/>
</g>
<defs>
<clipPath id="clip0_108_26">
<rect width="220" height="220" fill="white"/>
</clipPath>
</defs>
</svg>
