<svg width="220" height="220" viewBox="0 0 220 220" fill="none" xmlns="http://www.w3.org/2000/svg">
<g clip-path="url(#clip0_108_33)">
<path d="M110 220C170.751 220 220 170.751 220 110C220 49.2487 170.751 0 110 0C49.2487 0 0 49.2487 0 110C0 170.751 49.2487 220 110 220Z" fill="#15073A"/>
<path d="M117.865 44.1644C117.483 43.8887 117.215 43.4824 117.112 43.0224C117.01 42.5625 117.079 42.0809 117.308 41.6688C117.628 41.4636 118 41.3545 118.381 41.3545C118.761 41.3545 119.133 41.4636 119.453 41.6688C124.298 43.6801 128.684 46.6554 132.344 50.4138C134.427 52.3457 136.173 54.6007 137.5 57.0826C138.903 59.6126 140.051 62.2594 140.938 65.0026C141.783 67.8419 142.223 70.7913 142.23 73.7476C141.797 76.6694 141.371 90.8319 133.203 97.5007C132.164 98.1258 130.929 98.3438 129.739 98.1127C128.548 97.8817 127.485 97.2179 126.754 96.2494C126.171 95.565 125.816 94.715 125.739 93.8188C125.663 92.9225 125.869 92.0247 126.328 91.2513C129.801 85.8757 131.719 79.6444 131.87 73.2466C132.022 66.8487 130.401 60.5336 127.188 54.9994C124.438 51.1082 121.316 47.4851 117.865 44.1644ZM105.188 171.916C106.047 172.748 106.047 173.579 105.621 173.999C105.194 174.418 104.328 174.831 103.902 174.411C99.0568 172.4 94.6711 169.425 91.0112 165.666C88.9344 163.745 87.1919 161.491 85.855 158.998C84.4552 156.478 83.3039 153.827 82.4175 151.084C81.5679 148.244 81.1326 145.297 81.125 142.333C81.5581 139.418 81.9844 125.248 90.1519 118.579C91.1908 117.956 92.4234 117.739 93.6126 117.97C94.8018 118.201 95.8636 118.864 96.5938 119.831C97.2194 120.514 97.5664 121.407 97.5664 122.333C97.5664 123.26 97.2194 124.152 96.5938 124.836C93.1227 130.211 91.2054 136.441 91.0537 142.837C90.902 149.233 92.5219 155.547 95.7344 161.081C98.5188 164.979 101.688 168.609 105.188 171.916Z" fill="white"/>
<path d="M142.271 137.541C141.649 129.542 138.486 121.952 133.244 115.878C127.938 110.545 121.853 106.048 115.197 102.541C109.392 99.3315 103.922 95.5498 98.8693 91.2518C94.714 87.3463 91.8643 82.2542 90.7087 76.6699C89.6826 70.9042 90.4157 64.9632 92.8125 59.6199C95.6841 53.6753 99.8015 48.4184 104.885 44.2061C105.171 43.9512 105.367 43.6111 105.445 43.236C105.523 42.861 105.479 42.4708 105.318 42.123C105.195 41.9038 105.025 41.7151 104.819 41.5713C104.613 41.4274 104.377 41.3321 104.129 41.2924C103.881 41.2527 103.627 41.2697 103.386 41.3421C103.146 41.4145 102.925 41.5405 102.74 41.7105C95.8925 44.6976 90.0667 49.6201 85.9787 55.873C81.4068 62.4421 79.2652 70.3984 79.9218 78.3749C80.2648 82.4051 81.2827 86.349 82.9331 90.0418C84.719 93.6969 87.0357 97.0678 89.8081 100.045C95.2716 105.265 101.501 109.619 108.281 112.956C114.111 115.981 119.591 119.618 124.609 123.791C129.024 127.665 131.919 132.982 132.777 138.792C133.987 144.836 133.231 151.099 130.625 156.709C127.7 162.615 123.431 167.753 118.161 171.71C117.986 171.81 117.835 171.946 117.717 172.109C117.599 172.271 117.517 172.457 117.476 172.654C117.435 172.851 117.437 173.054 117.48 173.251C117.523 173.447 117.608 173.632 117.727 173.793C117.968 174.233 118.415 174.549 118.917 174.625C119.419 174.701 119.941 174.556 120.312 174.212C126.701 170.524 132.259 165.558 136.641 159.624C140.903 153.037 142.869 145.296 142.271 137.541Z" fill="white"/>
</g>
<defs>
<clipPath id="clip0_108_33">
<rect width="220" height="220" fill="white"/>
</clipPath>
</defs>
</svg>
