<svg width="220" height="220" viewBox="0 0 220 220" fill="none" xmlns="http://www.w3.org/2000/svg">
<g clip-path="url(#clip0_108_29)">
<path d="M110 220C170.751 220 220 170.751 220 110C220 49.2487 170.751 0 110 0C49.2487 0 0 49.2487 0 110C0 170.751 49.2487 220 110 220Z" fill="#F49E00"/>
<path d="M135.816 119.171C151.257 94.9781 163.281 55 163.281 55L137.535 60.8369L128.109 94.1806C127.222 69.1831 110.083 60.0325 110.083 60.0325C96.3534 53.3431 84.1159 56.2856 75.2952 60.885C64.3777 66.5637 56.4371 76.4637 52.6352 87.8625C47.2315 104.081 47.8915 122.279 48.6065 130.515C48.8952 134.379 49.7477 138.181 51.1502 141.811C60.624 166.375 86.8659 164.979 86.8659 164.979C110.908 164.127 125.517 135.816 125.517 135.816L132.406 156.633C138.58 167.076 152.254 163.164 155.066 162.58C155.561 162.47 156.001 162.415 156.503 162.305L171.875 159.961V153.271C138.408 154.179 135.816 119.178 135.816 119.178V119.171ZM103.235 144.334C101.165 146.456 98.555 147.972 95.6865 148.72C89.4509 150.274 84.659 147.654 81.3521 144.444C77.6576 140.713 75.128 135.988 74.0715 130.845C68.0077 96.5387 76.3884 81.5031 81.9571 74.5938C83.4739 72.6569 85.4294 71.1082 87.6622 70.0755C89.8951 69.0427 92.3414 68.5554 94.7996 68.6537C116.415 69.7812 121.268 115.005 121.268 115.005C115.15 131.058 107.264 140.374 103.235 144.334Z" fill="white"/>
</g>
<defs>
<clipPath id="clip0_108_29">
<rect width="220" height="220" fill="white"/>
</clipPath>
</defs>
</svg>
