<svg width="220" height="220" viewBox="0 0 220 220" fill="none" xmlns="http://www.w3.org/2000/svg">
<g clip-path="url(#clip0_108_31)">
<path d="M110 220C170.751 220 220 170.751 220 110C220 49.2487 170.751 0 110 0C49.2487 0 0 49.2487 0 110C0 170.751 49.2487 220 110 220Z" fill="#00BFEC"/>
<path d="M109.801 159.157C82.5969 159.157 60.4663 137.163 60.4663 110.138C60.4663 83.1053 82.6038 61.1191 109.801 61.1191C137.006 61.1191 159.136 83.1053 159.136 110.138C159.136 137.163 137.006 159.157 109.801 159.157ZM109.801 70.7166C87.9319 70.7166 70.1326 88.3991 70.1326 110.138C70.1326 131.87 87.9319 149.552 109.801 149.552C131.678 149.552 149.47 131.87 149.47 110.138C149.47 88.3991 131.678 70.7166 109.801 70.7166ZM144.348 54.1134C133.94 47.7761 121.987 44.4314 109.801 44.4472C98.5848 44.4425 87.5495 47.2759 77.7226 52.6834L73.0201 44.2959C84.2855 38.0887 96.939 34.8343 109.801 34.8359C123.826 34.8359 137.521 38.6722 149.408 45.9322L144.348 54.1134ZM158.751 167.62L152.502 160.284C159.83 154.143 165.724 146.471 169.768 137.807C173.812 129.144 175.909 119.699 175.911 110.138H185.578C185.578 132.317 175.801 153.265 158.751 167.613V167.62ZM109.801 185.426C92.2219 185.426 75.0894 179.307 61.5663 168.204L67.7263 160.807C79.5977 170.519 94.4631 175.826 109.801 175.828C120.526 175.828 130.756 173.353 140.203 168.486L144.651 177.011C133.867 182.544 121.922 185.431 109.801 185.433V185.426Z" fill="white"/>
<path opacity="0.5" d="M174.282 92.2966C171.754 83.231 167.309 74.8141 161.247 67.6154L167.434 62.4866C174.23 70.5573 179.213 79.9944 182.044 90.1585L174.289 92.2966H174.282ZM47.1629 151.085C39.1057 138.95 34.8169 124.703 34.836 110.137C34.836 89.7735 42.9485 70.7573 57.6816 56.5879L63.2779 62.3423C56.8102 68.5057 51.6664 75.9225 48.1605 84.14C44.6546 92.3574 42.8602 101.203 42.8866 110.137C42.8866 123.193 46.6954 135.829 53.8866 146.685L47.1629 151.085Z" fill="white"/>
</g>
<defs>
<clipPath id="clip0_108_31">
<rect width="220" height="220" fill="white"/>
</clipPath>
</defs>
</svg>
