<svg width="220" height="220" viewBox="0 0 220 220" fill="none" xmlns="http://www.w3.org/2000/svg">
<g clip-path="url(#clip0_108_36)">
<path d="M110 220C170.751 220 220 170.751 220 110C220 49.2487 170.751 0 110 0C49.2487 0 0 49.2487 0 110C0 170.751 49.2487 220 110 220Z" fill="#2DAEE4"/>
<path fill-rule="evenodd" clip-rule="evenodd" d="M57.0836 82.2036H57.8399C64.4605 82.0798 70.2149 79.5773 75.0961 74.703C79.8399 69.5742 82.2186 63.6961 82.2186 57.0686C82.2186 53.693 83.4355 50.7848 85.8761 48.3442C87.0327 47.1584 88.42 46.2221 89.9525 45.593C91.4849 44.964 93.1299 44.6555 94.7861 44.6867C98.1549 44.6867 101.07 45.9036 103.504 48.3442C105.944 50.7848 107.161 53.693 107.161 57.0686C107.161 60.4373 106.006 63.3523 103.696 65.793C102.634 66.9611 101.348 67.9034 99.914 68.5637C98.4801 69.224 96.9278 69.5887 95.3499 69.6361C88.2205 69.3817 82.0949 71.8223 76.9661 76.9511C71.8374 82.0798 69.4036 88.0817 69.6511 94.9636C69.8986 102.086 72.4699 108.026 77.3442 112.777C82.7205 117.527 88.7224 119.844 95.3499 119.72C96.9283 119.769 98.4809 120.135 99.9148 120.796C101.349 121.457 102.635 122.401 103.696 123.57C106.006 126.004 107.161 128.85 107.161 132.095C107.161 135.602 105.944 138.572 103.504 141.012C102.377 142.185 101.023 143.114 99.5234 143.743C98.0241 144.372 96.4119 144.688 94.7861 144.67C91.2799 144.67 88.3167 143.446 85.8761 141.012C84.6903 139.856 83.754 138.468 83.1249 136.936C82.4959 135.404 82.1874 133.759 82.2186 132.102C82.2716 128.892 81.6664 125.704 80.4402 122.736C79.2141 119.768 77.393 117.083 75.0892 114.846C72.8643 112.486 70.1938 110.59 67.2318 109.269C64.2699 107.947 61.0754 107.226 57.833 107.146C55.4611 107.277 53.433 106.899 51.7417 106.025C50.0803 105.174 48.6613 103.916 47.6167 102.368C46.5395 100.776 45.7743 98.9932 45.3617 97.1155C44.9293 95.2405 44.8362 93.3033 45.0867 91.3955C46.7092 85.2698 50.7105 82.2036 57.0836 82.2036ZM57.2555 119.72C60.5074 119.72 63.3536 120.91 65.7874 123.289C68.228 125.66 69.5067 128.479 69.6374 131.731C69.5067 138.606 71.8855 144.608 76.7599 149.737C81.6411 154.735 87.5124 157.237 94.3942 157.237H94.958C101.709 157.237 107.519 154.735 112.4 149.737C117.398 144.732 119.839 138.737 119.715 131.724C119.705 128.443 119.017 125.2 117.693 122.198C116.369 119.197 114.438 116.501 112.022 114.282C107.085 109.587 101.345 107.208 94.7861 107.153H94.0161C92.4382 107.106 90.8859 106.741 89.452 106.081C88.018 105.42 86.7317 104.478 85.6699 103.31C84.5453 102.156 83.6597 100.791 83.0639 99.2939C82.4681 97.7967 82.1738 96.1967 82.198 94.5855C82.198 91.2167 83.4217 88.3017 85.8555 85.8611C87.9249 83.7986 90.3792 82.6023 93.2117 82.2861L94.0367 82.2036L94.353 82.2105C94.6807 82.2018 95.0086 82.2041 95.3361 82.2173C101.799 82.1348 107.422 79.6942 112.228 74.8886C117.357 69.7598 119.859 63.6961 119.729 56.6905C119.729 53.9405 120.67 51.438 122.547 49.1898L122.733 49.0042L122.919 48.8117C122.919 48.688 122.987 48.6261 123.104 48.6261L123.297 48.4405V48.2548H123.482V48.0555C123.606 48.0555 123.668 47.9936 123.668 47.8698L123.854 47.6842H124.232C124.232 47.5536 124.3 47.4917 124.417 47.4917L124.61 47.3061V47.1205H124.981C124.981 46.9898 125.05 46.928 125.167 46.928L125.359 46.7423L125.545 46.5567H125.73C125.73 46.433 125.799 46.3711 125.923 46.3711C126.047 46.3711 126.109 46.3023 126.109 46.1786H126.294L126.48 45.993H126.858V45.8073H127.044L127.236 45.6148H127.607V45.443H127.985L128.171 45.2573H128.549L128.735 45.0717H129.299L129.484 44.8792H130.048C130.172 44.8792 130.234 44.8173 130.234 44.6936H134.173L134.269 44.7898C134.331 44.8517 134.42 44.8792 134.544 44.8792H134.922L135.019 44.9755C135.08 45.0373 135.17 45.0717 135.294 45.0717H135.672L135.857 45.2573H136.235L136.421 45.443H136.799C136.923 45.5667 137.047 45.6286 137.17 45.6286L137.363 45.8211H137.734V46.0067H137.927L138.112 46.1923L138.202 46.2886C138.27 46.3573 138.36 46.3848 138.484 46.3848L138.676 46.5705H138.862C138.862 46.6942 138.985 46.7561 139.233 46.7561L139.425 46.9417V47.1342H139.611C139.611 47.258 139.735 47.3198 139.989 47.3198C139.989 47.4436 140.051 47.5055 140.175 47.5055V47.698H140.36L140.553 47.8836C140.677 48.0073 140.8 48.0692 140.924 48.0692L141.11 48.2617C141.11 48.3855 141.179 48.4473 141.302 48.4473V48.633H141.488C141.488 48.7567 141.522 48.853 141.584 48.908L141.674 49.0111C141.674 49.1348 141.742 49.1967 141.866 49.1967L142.052 49.3823C142.052 49.5061 142.079 49.6023 142.141 49.6642L142.237 49.7605L142.423 49.9461L142.615 50.1317V50.5098L142.801 50.6955V50.8742H142.987C142.987 51.0048 143.021 51.0942 143.083 51.1561L143.172 51.2523C143.172 51.3761 143.241 51.438 143.365 51.438V51.6305C143.365 51.7542 143.392 51.8436 143.454 51.9055L143.55 52.0017L143.736 52.1873C143.736 52.4417 143.805 52.5655 143.929 52.5655V52.7511C143.929 52.8817 143.956 52.9711 144.018 53.033L144.114 53.1292V53.5005L144.3 53.693V54.2567C144.424 54.3805 144.485 54.5042 144.485 54.628V55.1917C144.616 55.3155 144.678 55.4392 144.678 55.5698V57.0617C144.678 63.6892 147.05 69.5673 151.8 74.6961C156.682 79.5705 162.498 82.073 169.249 82.1967C172.618 82.073 175.622 83.228 178.255 85.6686C180.875 88.1023 182.188 91.0723 182.188 94.5786C182.188 98.078 180.971 101.041 178.531 103.489C177.403 104.662 176.048 105.592 174.547 106.221C173.047 106.85 171.433 107.165 169.806 107.146C168.196 107.169 166.597 106.875 165.101 106.279C163.605 105.683 162.242 104.798 161.089 103.674C159.905 102.583 158.954 101.265 158.293 99.7976C157.631 98.3303 157.273 96.7446 157.239 95.1355C157.369 88.2605 154.867 82.1967 149.745 76.9442C144.74 71.9392 138.676 69.5055 131.547 69.6292C128.305 69.7079 125.111 70.4283 122.149 71.7488C119.187 73.0693 116.516 74.9636 114.29 77.3223C111.986 79.5591 110.165 82.2443 108.939 85.2122C107.713 88.1801 107.108 91.3678 107.161 94.5786L107.154 95.1561C107.292 101.55 109.664 107.235 114.277 112.206C119.151 117.087 124.967 119.59 131.719 119.714C136.215 119.466 139.659 121.089 142.031 124.595C144.41 127.964 145.159 131.539 144.286 135.285C142.533 141.542 138.532 144.663 132.282 144.663H131.719C124.713 144.91 118.897 147.482 114.277 152.356C109.519 157.107 107.147 162.923 107.147 169.798C107.147 173.174 105.93 176.082 103.49 178.522C102.363 179.696 101.007 180.626 99.5065 181.255C98.006 181.884 96.3924 182.199 94.7655 182.18H94.3942C91.0186 182.18 88.138 180.963 85.7661 178.522C84.6163 177.382 83.7079 176.022 83.0949 174.523C82.4818 173.024 82.1768 171.417 82.198 169.798C82.198 162.923 79.8261 157.107 75.0755 152.356C72.85 149.997 70.1792 148.103 67.2173 146.783C64.2554 145.462 61.0612 144.742 57.8192 144.663C56.1162 144.758 54.412 144.498 52.8144 143.901C51.2168 143.303 49.7606 142.38 48.538 141.191C47.2899 140.033 46.3014 138.624 45.6378 137.056C44.9742 135.488 44.6505 133.798 44.688 132.095C44.688 128.72 45.9049 125.812 48.3455 123.371C49.5021 122.185 50.8894 121.249 52.4218 120.62C53.9542 119.991 55.5993 119.682 57.2555 119.714V119.72Z" fill="white"/>
</g>
<defs>
<clipPath id="clip0_108_36">
<rect width="220" height="220" fill="white"/>
</clipPath>
</defs>
</svg>
