<svg width="220" height="220" viewBox="0 0 220 220" fill="none" xmlns="http://www.w3.org/2000/svg">
<g clip-path="url(#clip0_108_40)">
<path d="M110 220C170.751 220 220 170.751 220 110C220 49.2487 170.751 0 110 0C49.2487 0 0 49.2487 0 110C0 170.751 49.2487 220 110 220Z" fill="#2CD3E1"/>
<path d="M54.7594 120.986C54.7147 120.261 54.6917 119.534 54.6906 118.807C54.6906 94.6275 73.5419 74.9719 97.1231 74.1331C97.6869 74.1331 98.2919 74.1331 98.8556 74.1813L93.2319 68.5919C93.2319 68.5919 115.871 64.8106 144.939 82.2869C144.939 82.2869 145.365 83.1738 144.939 85.7794C144.939 85.7794 158.634 91.6506 159.802 103.063C160.971 114.476 153.711 121 147.847 121.928C147.847 121.928 150.893 117.226 146.211 114.709C145.19 114.157 144.035 113.9 142.876 113.967C133.925 113.967 132.894 124.121 132.894 124.121C132.798 124.63 132.798 125.146 132.798 125.654C132.798 125.654 131.491 138.573 152.886 140.092C157.776 133.785 162.059 127.032 165.681 119.921C171.396 108.71 175.676 96.823 178.42 84.5419C165.956 74.3256 151.257 65.5669 135.451 58.2313C129.525 55.4813 123.784 53.0956 118.346 51.0469C115.574 49.9955 112.777 49.0099 109.959 48.0906C107.745 48.8056 104.94 49.7819 101.571 51.0469C96.14 53.0888 90.3925 55.4813 84.4731 58.2313C68.6812 65.56 53.9756 74.3188 41.5113 84.5488C42.185 87.7938 43.2094 91.8431 44.6806 96.5456C47.3044 104.977 50.6775 113.156 54.7594 120.986ZM185.625 81.8263L185.281 83.7513C185.103 85.2431 183.886 90.5919 182.387 95.7137C179.65 105.084 176.038 114.176 171.6 122.87C165.371 135.011 157.809 145.599 149.132 154.316C138.428 165.048 126.039 172.975 112.234 177.911L111.464 178.186L110 178.75L108.549 178.241L107.738 177.959C93.8243 172.963 81.215 164.896 70.8469 154.357C62.1294 145.557 54.5738 134.991 48.3794 122.911C42.6054 111.562 38.2418 99.5495 35.3856 87.1406C35.0419 85.6006 34.6638 83.6756 34.7325 83.9506L34.375 81.9706L35.2 81.2831L35.805 80.7675C48.4825 70.0975 63.4769 60.9469 79.6675 53.2537C88.7801 48.8787 98.1657 45.0964 107.766 41.9306L109.952 41.25L111.444 41.6969L112.186 41.9375C119.611 44.3231 129.477 48.125 140.264 53.2537C156.434 60.9331 171.408 70.07 184.071 80.7194L185.625 81.8194V81.8263ZM133.361 86.8038C133.739 86.6181 134.956 86.0131 136.366 84.5694C139.177 84.9406 141.941 85.8275 141.941 85.8275C136.833 82.7544 129.841 80.9325 122.107 80.9806C122.107 80.9806 125.063 85.1744 133.265 86.8931L133.361 86.8038Z" fill="white"/>
</g>
<defs>
<clipPath id="clip0_108_40">
<rect width="220" height="220" fill="white"/>
</clipPath>
</defs>
</svg>
