<svg width="220" height="220" viewBox="0 0 220 220" fill="none" xmlns="http://www.w3.org/2000/svg">
<g clip-path="url(#clip0_108_38)">
<path d="M110 220C170.751 220 220 170.751 220 110C220 49.2487 170.751 0 110 0C49.2487 0 0 49.2487 0 110C0 170.751 49.2487 220 110 220Z" fill="#1F4C9F"/>
<path fill-rule="evenodd" clip-rule="evenodd" d="M41.25 132.344L110 44.6875L178.75 132.344V161.562L110 73.9062L41.25 161.562V132.344ZM113.438 140.938C108.879 140.938 104.507 139.127 101.284 135.903C98.0608 132.68 96.25 128.308 96.25 123.75C96.25 119.192 98.0608 114.82 101.284 111.597C104.507 108.373 108.879 106.562 113.438 106.562C117.996 106.562 122.368 108.373 125.591 111.597C128.814 114.82 130.625 119.192 130.625 123.75C130.625 128.308 128.814 132.68 125.591 135.903C122.368 139.127 117.996 140.938 113.438 140.938Z" fill="white"/>
</g>
<defs>
<clipPath id="clip0_108_38">
<rect width="220" height="220" fill="white"/>
</clipPath>
</defs>
</svg>
