<svg width="220" height="220" viewBox="0 0 220 220" fill="none" xmlns="http://www.w3.org/2000/svg">
<g clip-path="url(#clip0_108_41)">
<path d="M110 220C170.751 220 220 170.751 220 110C220 49.2487 170.751 0 110 0C49.2487 0 0 49.2487 0 110C0 170.751 49.2487 220 110 220Z" fill="#FD875E"/>
<path d="M93.9125 119.529L110.316 70.6335L127.022 119.529H93.9125ZM163.432 150.445L149.868 113.946H157.967C159.501 113.948 160.974 113.346 162.067 112.271C163.161 111.195 163.787 109.732 163.811 108.199C163.811 106.755 163.219 105.359 162.181 104.342C161.143 103.324 159.72 102.74 158.242 102.74H145.592L143.564 97.061H157.967C159.468 97.0746 160.915 96.5028 162.001 95.4669C163.086 94.431 163.726 93.0126 163.783 91.5129C163.79 89.9866 163.178 88.5291 162.078 87.4566C160.978 86.3841 159.493 85.7791 157.939 85.786H139.239L129.113 58.506C127.588 54.5921 125.086 51.134 121.846 48.4616C118.614 45.8681 114.553 44.5301 110.412 44.6941C106.259 44.56 102.192 45.894 98.9244 48.4616C95.6846 51.1365 93.1771 54.5903 91.6369 58.4991L81.0288 86.0266H62.4387C60.9689 86.0138 59.5535 86.5826 58.5013 87.609C57.4491 88.6354 56.8454 90.0363 56.8219 91.506C56.8219 94.6548 59.4275 97.2054 62.645 97.2054H76.7594L74.5869 102.733H61.9369C61.2065 102.725 60.4816 102.861 59.8037 103.132C59.1257 103.404 58.508 103.807 57.9858 104.318C57.4636 104.829 57.0471 105.437 56.7601 106.109C56.4731 106.781 56.3212 107.502 56.3131 108.233C56.3131 111.354 58.8844 113.877 62.0606 113.891H70.18L56.3887 150.439C55.5431 152.501 55.0756 154.687 55 156.908C55.1375 160.022 56.5263 162.958 58.85 165.089C61.4221 167.267 64.6924 168.446 68.0625 168.41C70.8778 168.58 73.6667 167.783 75.9673 166.151C78.2678 164.52 79.942 162.151 80.7125 159.438L86.0475 143.839H135.162L140.504 159.809C141.371 162.43 143.083 164.69 145.373 166.233C147.662 167.776 150.399 168.515 153.154 168.334C155.286 168.382 157.382 167.853 159.232 166.822C160.834 165.653 162.257 164.278 163.453 162.71C164.497 160.957 165.033 158.948 165 156.908C164.665 154.742 164.141 152.609 163.432 150.535V150.445Z" fill="#FEFEFE"/>
</g>
<defs>
<clipPath id="clip0_108_41">
<rect width="220" height="220" fill="white"/>
</clipPath>
</defs>
</svg>
