<svg width="220" height="220" viewBox="0 0 220 220" fill="none" xmlns="http://www.w3.org/2000/svg">
<g clip-path="url(#clip0_108_39)">
<path d="M110 220C170.751 220 220 170.751 220 110C220 49.2487 170.751 0 110 0C49.2487 0 0 49.2487 0 110C0 170.751 49.2487 220 110 220Z" fill="#A71435"/>
<path d="M73.9407 36.0661C90.9329 27.6383 110.32 25.3571 128.804 29.6105C147.289 33.8639 163.729 44.3892 175.328 59.3962C186.928 74.4033 192.971 92.9652 192.429 111.925C191.887 130.885 184.794 149.071 172.356 163.391C168.266 154.481 165.131 145.138 161.624 135.939L140.449 80.458C138.408 74.8343 134.977 69.4305 129.649 66.5086C122.188 62.9119 113.827 61.6149 105.628 62.7824C99.055 63.518 92.1938 65.7799 87.7388 70.9636C83.5038 75.8518 81.6063 82.1355 79.2 88.048L63.9375 126.741C58.8294 139.006 54.5188 151.711 48.9707 163.9C40.979 155.269 35.1064 144.896 31.8175 133.602C26.1343 114.97 27.2579 94.9249 34.9876 77.0451C42.7174 59.1652 56.5501 44.6144 74.0163 35.9905L73.9407 36.0593V36.0661Z" fill="white"/>
<path d="M104.459 91.9875C105.916 87.6082 111.76 86.1438 115.555 88.6325C117.597 90.1657 118.333 92.7919 119.281 95.1294C128.769 119.948 138.119 144.918 147.538 169.819C148.775 173.394 150.597 176.825 151.333 180.544C150.735 181.181 150.044 181.724 149.284 182.153C138.983 187.664 127.627 190.919 115.971 191.7C104.315 192.481 92.626 190.771 81.682 186.684C77.5914 184.999 73.3633 183.542 69.7814 180.984C70.1458 177.629 71.8233 174.632 73.0677 171.566C83.5795 145.069 93.8714 118.491 104.459 91.9875Z" fill="white"/>
</g>
<defs>
<clipPath id="clip0_108_39">
<rect width="220" height="220" fill="white"/>
</clipPath>
</defs>
</svg>
