<svg width="220" height="220" viewBox="0 0 220 220" fill="none" xmlns="http://www.w3.org/2000/svg">
<g clip-path="url(#clip0_108_43)">
<path d="M110 220C170.751 220 220 170.751 220 110C220 49.2487 170.751 0 110 0C49.2487 0 0 49.2487 0 110C0 170.751 49.2487 220 110 220Z" fill="#F70000"/>
<path d="M109.636 91.7606L34.375 171.119L109.973 48.125L185.625 171.875L109.636 91.7606ZM120.553 123.282H97.0269L109.127 109.973L120.553 123.399V123.282ZM75.1781 145.124V144.959L88.5225 131.299V131.237L129.222 131.065L142.959 145.124H75.185H75.1781Z" fill="white"/>
</g>
<defs>
<clipPath id="clip0_108_43">
<rect width="220" height="220" fill="white"/>
</clipPath>
</defs>
</svg>
