<svg width="220" height="220" viewBox="0 0 220 220" fill="none" xmlns="http://www.w3.org/2000/svg">
<g clip-path="url(#clip0_108_44)">
<path d="M110 220C170.751 220 220 170.751 220 110C220 49.2487 170.751 0 110 0C49.2487 0 0 49.2487 0 110C0 170.751 49.2487 220 110 220Z" fill="#0092B5"/>
<path d="M80.85 96.9513L110.289 45.1275C110.344 45.0313 110.454 44.9694 110.839 45.1275L138.847 96.0094C138.062 96.6503 137.432 97.4609 137.005 98.3802C136.578 99.2995 136.365 100.304 136.381 101.317C136.398 102.331 136.644 103.328 137.101 104.232C137.557 105.137 138.214 105.927 139.019 106.542L113.149 153.209C112.227 152.767 111.219 152.534 110.197 152.527C109.175 152.519 108.164 152.739 107.236 153.168L80.6093 105.737C81.7054 104.549 82.3333 103.004 82.3762 101.388C82.4192 99.7724 81.8745 98.1959 80.8431 96.9513H80.85ZM78.0312 107.497L104.761 155.107C104.184 155.829 103.763 156.662 103.524 157.554C81.9431 152.384 68.5368 149.188 63.2912 147.957C61.0727 144.837 59.1311 141.529 57.4887 138.071L74.6212 107.917C75.7745 108.063 76.946 107.921 78.0312 107.504V107.497ZM74.3256 94.5519L53.1025 56.7394C67.5675 49.06 85.5181 45.0312 106.968 44.6875L78.3543 95.0538C77.0916 94.488 75.6885 94.3132 74.3256 94.5519ZM71.4381 95.7619C70.5561 96.3983 69.8418 97.2395 69.3567 98.213C68.8716 99.1865 68.6301 100.263 68.6531 101.351C68.6761 102.438 68.9628 103.504 69.4887 104.456C70.0145 105.408 70.7637 106.218 71.6718 106.817L55.9281 134.523C53.3123 128.045 51.7569 121.187 51.3218 114.214L48.1387 63.4631C48.0794 62.4858 48.2558 61.5085 48.653 60.6136C49.0503 59.7187 49.6567 58.9323 50.4212 58.3206L71.4381 95.7619ZM116.813 157.623C116.583 156.736 116.174 155.905 115.61 155.183L141.859 107.834C142.992 108.062 144.163 108.005 145.269 107.669L162.277 138.566C160.834 141.536 159.17 144.396 157.3 147.125L116.813 157.623ZM111.719 165.873C112.964 165.591 114.106 164.966 115.014 164.068C115.921 163.17 116.559 162.035 116.854 160.793L154.364 151.064C149.83 156.701 144.405 161.559 138.304 165.447L113.396 181.356C112.877 181.689 112.312 181.943 111.719 182.112V165.873ZM108.597 165.873V182.188C107.89 182.027 107.215 181.746 106.604 181.356L81.6956 165.447C75.8716 161.735 70.6619 157.138 66.2543 151.821C73.0606 153.436 85.4562 156.393 103.441 160.696C103.991 163.261 106.012 165.289 108.597 165.88V165.873ZM145.516 94.8269C144.268 94.3957 142.923 94.329 141.639 94.6344L114.159 44.7081C135.004 45.1687 152.522 49.1494 166.691 56.6362L145.516 94.8269ZM148.149 96.4838L169.393 58.1762C170.213 58.7815 170.869 59.5822 171.302 60.5055C171.734 61.4288 171.929 62.4455 171.868 63.4631L168.685 114.221C168.237 121.371 166.61 128.398 163.872 135.018L147.964 106.122C148.623 105.51 149.153 104.772 149.521 103.95C149.888 103.129 150.087 102.242 150.104 101.343C150.122 100.443 149.957 99.5489 149.622 98.7141C149.286 97.8793 148.785 97.1207 148.149 96.4838ZM110 77.2338C109.027 77.2493 108.097 77.6396 107.404 78.3234C106.711 79.0073 106.309 79.9319 106.281 80.905V94.3388L86.4393 106.562L88.5637 111.148L106.281 105.346V118.779L101.317 122.444V126.108L110 123.661L118.683 126.101V122.437L113.719 118.772V105.339L131.134 111.457L133.561 106.562L113.719 94.3388V80.905C113.689 79.9343 113.287 79.0124 112.596 78.3302C111.905 77.6479 110.978 77.2578 110.007 77.2406L110 77.2338Z" fill="white"/>
</g>
<defs>
<clipPath id="clip0_108_44">
<rect width="220" height="220" fill="white"/>
</clipPath>
</defs>
</svg>
