<svg width="220" height="220" viewBox="0 0 220 220" fill="none" xmlns="http://www.w3.org/2000/svg">
<g clip-path="url(#clip0_108_48)">
<path d="M110 220C170.751 220 220 170.751 220 110C220 49.2487 170.751 0 110 0C49.2487 0 0 49.2487 0 110C0 170.751 49.2487 220 110 220Z" fill="#436697"/>
<path d="M131.141 142.422C130.806 142.407 130.481 142.297 130.206 142.106C129.955 141.95 129.744 141.738 129.587 141.487H129.525L114.276 168.266C129.773 164.862 145.214 161.391 160.703 157.981C160.349 157.542 160.019 157.086 159.713 156.612C159.28 155.994 158.909 155.251 158.476 154.447C158.08 153.715 157.708 152.969 157.362 152.212V152.151C157.362 152.089 157.293 152.027 157.293 152.027C156.557 150.461 155.876 148.869 155.251 147.256C155.066 146.822 154.942 146.451 154.756 146.08C153.813 143.745 152.923 141.389 152.089 139.012C149.483 139.507 147.318 139.941 145.833 140.25C145.764 140.25 145.702 140.25 145.64 140.312C143.351 140.807 141.178 141.24 139.074 141.618C137.892 141.859 136.778 141.982 135.726 142.168C135.479 142.237 135.169 142.237 134.798 142.299C134.798 142.299 134.049 142.422 133.059 142.484C132.417 142.533 131.771 142.51 131.134 142.416L131.141 142.422ZM145.393 118.738C145.062 117.554 144.794 116.354 144.588 115.142L132.935 135.602L133.004 135.534C133.492 135.355 134.049 135.169 134.736 134.984C136.345 134.482 138.325 133.987 140.745 133.368C143.165 132.749 146.018 132.062 149.359 131.202C148.679 129.154 147.936 127.05 147.256 124.877C146.558 122.856 145.939 120.808 145.399 118.738H145.393ZM163.371 82.4793H163.123L148.067 108.948C148.122 108.948 148.246 109.01 148.431 109.01C148.5 109.01 148.5 109.01 148.555 109.072C148.624 109.072 148.624 109.072 148.679 109.134C148.748 109.134 148.748 109.196 148.803 109.196C148.871 109.196 148.871 109.196 148.926 109.257C149.109 109.355 149.276 109.48 149.421 109.629C149.669 109.876 149.861 110.124 149.923 110.186C149.985 110.254 149.985 110.309 150.047 110.371C150.184 110.569 150.308 110.776 150.418 110.99C150.728 111.547 150.913 111.856 150.913 111.856C151.656 113.286 152.398 114.957 153.141 116.944C153.89 118.924 154.694 121.034 155.437 123.269C155.623 123.764 155.746 124.197 155.932 124.692C156.365 125.998 156.922 127.607 157.548 129.463C160.146 128.968 162.628 128.473 165.041 128.04C167.461 127.607 169.634 127.297 171.614 127.112C173.601 126.919 175.271 126.796 176.701 126.857C177.506 126.857 178.124 126.926 178.681 127.05C178.805 127.05 178.991 127.112 179.114 127.112C177.939 123.826 176.701 120.168 175.271 116.263L163.378 82.4793H163.371ZM177.568 132.626C175.855 133.255 174.116 133.812 172.356 134.296C171.985 134.42 171.614 134.482 171.304 134.612C170.995 134.674 170.686 134.798 170.376 134.86C169.515 135.096 168.646 135.303 167.771 135.479C167.279 135.617 166.784 135.741 166.286 135.85H166.217C164.732 136.221 162.752 136.654 160.456 137.156C160.951 138.889 161.576 140.807 162.312 142.979C162.999 145.145 163.687 147.256 164.237 149.236C164.423 149.854 164.546 150.418 164.732 151.037C165.048 151.965 165.296 152.893 165.481 154.014C165.543 154.199 165.543 154.385 165.605 154.564C165.853 155.561 165.914 156.303 165.853 156.86C165.853 156.86 168.451 156.365 169.758 156.056C174.9 149.431 178.901 141.996 181.596 134.056C181.225 132.935 180.854 131.883 180.483 130.762C179.919 131.512 178.991 132.069 177.568 132.626ZM96.0507 36.5474H96.2982C96.5457 36.5474 96.8619 36.6712 97.2332 36.9187C97.4188 37.0424 97.6663 37.1662 97.8519 37.3518C98.1143 37.5395 98.3625 37.7463 98.5944 37.9705C99.7082 38.9605 100.953 40.143 102.376 41.5662C103.737 42.9274 105.167 44.4193 106.652 46.0349C108.075 47.5749 109.381 49.0049 110.557 50.1805C111.114 49.6237 111.671 49.0049 112.234 48.3243C112.915 47.5749 113.596 46.8324 114.276 46.028C114.964 45.2855 115.638 44.4812 116.387 43.7937C117.068 43.0512 117.748 42.3705 118.429 41.6899L119.419 40.6999C119.797 40.3287 120.168 40.0124 120.478 39.703C121.096 39.153 121.653 38.6512 122.21 38.218C123.393 37.228 124.259 36.7949 124.939 36.7949C125.187 36.7949 125.434 36.8568 125.682 36.9187L125.001 36.1074L123.2 35.7362C123.138 35.7362 123.076 35.7362 123.014 35.6743C122.464 35.5505 121.901 35.4887 121.344 35.4268H121.22C120.663 35.3649 120.044 35.2412 119.488 35.1793H119.419C116.325 34.808 113.163 34.5605 109.938 34.5605H108.199C107.649 34.5605 107.147 34.6293 106.652 34.6293H106.466C105.909 34.6293 105.414 34.6843 104.858 34.7462H104.789C101.943 34.9318 99.1513 35.303 96.4219 35.798C96.1744 36.0455 95.9888 36.2999 95.7413 36.6093C95.8651 36.6093 95.9269 36.5405 96.0507 36.5405V36.5474ZM53.5288 71.8162C53.8382 71.5687 54.2163 71.1974 54.8351 70.9499C55.5554 70.619 56.3326 70.43 57.1244 70.393C58.1763 70.3243 58.9807 70.6405 59.4207 70.7643C69.2726 59.668 79.1313 48.6268 88.9832 37.5374L86.5701 38.2799C81.0494 40.1362 73.7344 43.2368 66.1101 48.6955C59.4502 53.5322 53.5942 59.3882 48.7576 66.048C48.2626 66.7974 47.7057 67.478 47.2038 68.2205C49.3144 69.3962 51.4251 70.6405 53.5288 71.8162ZM51.9201 79.193C51.468 78.3544 51.2317 77.4164 51.2326 76.4637V76.0305C51.2326 76.0305 51.3013 75.7212 51.3013 75.5974L44.9076 72.0018C38.6365 82.6682 35.103 94.721 34.6226 107.085V112.296C34.8082 118.119 35.6126 123.764 37.0426 129.154C42.5563 113.162 48.1388 97.233 53.6526 81.2349C52.9339 80.6879 52.3427 79.9912 51.9201 79.193ZM127.174 40.4524C127.031 40.8936 126.822 41.3108 126.555 41.6899C126.137 42.4572 125.68 43.203 125.187 43.9243C124.878 44.3574 124.568 44.8524 124.259 45.3474C123.449 46.5323 122.601 47.6903 121.715 48.8193C121.282 49.3143 120.911 49.8712 120.478 50.428C120.409 50.4968 120.354 50.6137 120.292 50.6755C119.488 51.6724 118.614 52.7243 117.686 53.7762C116.999 54.5805 116.38 55.3299 115.638 56.1343C116.573 57.1862 117.624 58.2999 118.676 59.5443C119.048 59.9155 119.419 60.3487 119.735 60.7818C120.478 61.5862 121.158 62.3905 121.839 63.2018L123.826 65.553C125.063 67.1068 126.115 68.468 126.988 69.7055C127.731 70.8262 128.102 71.6305 128.226 72.2493V72.4968C128.226 73.1155 127.916 73.7343 127.359 74.298H156.991C157.176 73.8109 157.426 73.3507 157.733 72.9299L127.414 38.8987V39.0224C127.433 39.5105 127.351 39.9972 127.174 40.4524ZM144.959 43.1749C144.836 43.113 144.774 43.0512 144.65 43.0512C143.821 42.6016 142.972 42.1887 142.106 41.8137C141.943 41.7692 141.794 41.684 141.673 41.5662C140.853 41.1834 140.028 40.8121 139.198 40.4524C139.013 40.3837 138.889 40.3287 138.703 40.2668C137.808 39.8766 136.898 39.5234 135.974 39.208C135.85 39.1462 135.726 39.1462 135.603 39.0843C134.674 38.713 133.678 38.4037 132.688 38.0943C142.299 48.8812 151.903 59.7299 161.576 70.5168C161.7 70.5168 161.886 70.448 162.009 70.448H163.309C163.618 70.5168 164.175 70.5787 164.863 70.8262C164.924 70.8262 164.986 70.888 165.048 70.9499C165.11 71.0118 165.234 71.0118 165.296 71.0737C165.761 71.3115 166.197 71.6022 166.595 71.9399C166.657 71.9399 166.657 72.0018 166.719 72.0018C166.904 72.1255 167.028 72.3112 167.152 72.4349C169.201 71.2593 171.243 70.1387 173.229 68.963C166.718 59.0073 157.972 50.709 147.689 44.7287H147.627C146.761 44.1718 145.826 43.6699 144.959 43.1749ZM121.715 73.4249C121.406 73.1774 121.158 72.9299 120.849 72.6824L118.924 70.9499L117.934 69.953C116.834 68.8836 115.779 67.7689 114.771 66.6118C114.029 65.8005 113.348 64.9962 112.668 64.2537C111.98 63.4493 111.238 62.6999 110.557 61.9574C108.268 64.3155 106.343 66.3574 104.734 68.0968C104.363 68.468 103.984 68.9012 103.613 69.2724L103.489 69.3962C102.747 70.1387 102.128 70.8262 101.509 71.4449L100.643 72.3112C99.8971 73.0387 99.1097 73.7228 98.2851 74.3599H122.767C122.705 74.2912 122.581 74.2362 122.519 74.1743C122.272 73.858 121.969 73.6724 121.715 73.4249ZM62.9544 74.298H93.5757C93.4519 74.1743 93.3282 73.9818 93.2044 73.858C93.0807 73.7343 93.0188 73.5487 92.9501 73.4249C92.8263 73.1155 92.7026 72.8062 92.7026 72.4968C92.7026 72.3112 92.7713 72.0637 92.8263 71.7543C92.8263 71.6855 92.8951 71.6305 92.8951 71.5687C92.9501 71.4449 93.0188 71.2593 93.1426 71.0737C93.3282 70.7024 93.5757 70.2624 93.8851 69.8362C93.9469 69.7674 93.9469 69.7055 94.0088 69.7055C95.8664 67.0945 97.8726 64.5924 100.018 62.2118C100.413 61.7405 100.826 61.2841 101.255 60.8437C101.695 60.4105 102.066 59.9155 102.499 59.4824C103.428 58.4237 104.356 57.3718 105.167 56.3818C105.229 56.313 105.291 56.258 105.291 56.1962C103.028 53.5737 100.816 50.908 98.6563 48.2005C98.0376 47.3893 97.4807 46.5849 96.9238 45.8424C96.0047 44.5458 95.1555 43.201 94.3801 41.8137L94.0088 41.0712C93.8851 40.8237 93.8232 40.5762 93.6994 40.3837C93.5757 39.9505 93.4519 39.5793 93.4519 39.2699L62.7001 73.7343C62.7688 73.9199 62.8926 74.1124 62.9544 74.298ZM112.791 185.316C132.591 184.596 151.306 176.087 164.863 161.638C147.503 165.481 130.144 169.324 112.791 173.106V185.316ZM184.573 121.096C184.635 120.849 184.635 120.663 184.697 120.409C184.759 119.79 184.883 119.24 184.944 118.621V118.552L185.13 116.627C185.13 116.449 185.192 116.263 185.192 116.077C185.192 115.706 185.254 115.39 185.254 115.019C185.378 113.094 185.439 111.306 185.439 109.629C185.384 98.3509 182.8 87.2291 177.877 77.0824L177.691 76.7112C177.444 76.1543 177.134 75.6593 176.887 75.1024L176.516 74.3599C176.206 73.7962 175.897 73.1774 175.581 72.6205C173.291 73.9268 171.057 75.1643 168.768 76.4705C168.768 76.6493 168.768 76.8349 168.699 77.0205C168.644 77.3918 168.575 77.708 168.513 78.0174C168.451 78.203 168.389 78.3268 168.328 78.5124C168.151 78.9701 167.923 79.4061 167.647 79.8118C167.523 79.9355 167.461 80.0593 167.338 80.183C172.734 95.7412 178.124 111.237 183.514 126.796C183.831 125.496 184.078 124.135 184.326 122.829C184.326 122.705 184.388 122.581 184.388 122.396C184.463 121.962 184.525 121.527 184.573 121.089V121.096Z" fill="white"/>
<path d="M157.046 78.6357C157.42 79.6035 158.041 80.4566 158.847 81.1107L110.309 166.471L61.5861 80.7395C62.1678 80.1284 62.6316 79.4152 62.9543 78.6357H157.046ZM108.013 134.612C107.161 134.612 106.466 135.299 106.466 136.159V136.186C106.466 136.943 106.941 137.541 107.601 137.713L108.013 137.768C108.22 137.771 108.426 137.731 108.617 137.653C108.809 137.574 108.983 137.457 109.128 137.309C109.273 137.161 109.387 136.986 109.462 136.793C109.538 136.6 109.573 136.393 109.567 136.186V136.159C109.567 135.955 109.527 135.753 109.448 135.565C109.37 135.377 109.256 135.206 109.111 135.063C108.967 134.919 108.796 134.805 108.607 134.728C108.419 134.65 108.217 134.611 108.013 134.612ZM94.9436 119.349C94.6347 119.349 94.3328 119.441 94.0767 119.614C93.8206 119.787 93.6221 120.032 93.5068 120.319L93.4518 120.484L93.3968 120.896C93.3968 121.769 94.0774 122.45 94.9436 122.45C95.8099 122.45 96.4905 121.769 96.4905 120.903C96.4905 120.037 95.8099 119.349 94.9436 119.349ZM119.804 88.852C116.703 87.7039 114.867 88.9551 114.07 89.787L114.008 89.8557C113.823 90.036 113.666 90.2421 113.541 90.4676C113.541 90.5295 113.472 90.5914 113.541 90.5914C113.541 90.6532 113.602 90.6532 113.664 90.7151C119.178 93.4445 123.337 95.5482 125.132 96.4764L125.317 96.6001C125.503 96.7239 126.06 96.9782 126.122 97.4114C126.197 97.7757 125.964 98.147 125.654 98.477L125.386 98.7382L125.07 99.0201L124.795 99.2539C124.087 99.8451 123.138 100.615 117.941 104.664C117.729 104.878 117.476 105.046 117.198 105.159C116.932 105.306 116.636 105.391 116.332 105.407H116.146C115.837 105.407 115.582 105.407 114.531 104.974C114.078 104.8 113.59 104.736 113.107 104.788L112.489 104.974C112.365 105.036 112.303 105.098 112.179 105.159C112.122 105.213 112.063 105.264 112.001 105.311L112.117 105.221C111.958 105.329 111.811 105.454 111.677 105.593C111.616 105.654 111.616 105.716 111.616 105.778C111.712 105.778 111.774 105.778 111.822 105.806L111.842 105.861L111.932 105.902C112.056 105.902 112.117 105.902 112.241 105.964C112.394 105.967 112.543 106.01 112.674 106.088C113.185 106.296 113.67 106.564 114.118 106.885L113.788 106.644C114.05 106.832 114.299 107.039 114.531 107.263C114.755 107.495 114.962 107.743 115.149 108.006L115.713 108.817L116.208 109.498C116.348 109.772 116.452 110.063 116.517 110.364C116.64 110.788 116.703 111.228 116.703 111.67V112.413C116.703 112.474 116.703 112.536 116.765 112.598L116.792 112.612L116.827 112.66H117.012C117.198 112.536 117.384 112.474 117.507 112.351C117.569 112.227 117.693 112.165 117.755 112.103C117.931 111.982 118.062 111.805 118.126 111.601C118.374 111.051 118.374 110.488 118.374 110.178C118.25 109.003 118.374 108.755 118.497 108.508C118.497 108.439 118.566 108.384 118.566 108.322C118.677 108.042 118.843 107.787 119.054 107.573C119.288 107.348 119.539 107.141 119.804 106.954C122.118 105.286 124.477 103.681 126.878 102.141L127.304 101.866C127.854 101.564 128.666 101.007 129.229 101.316C129.304 101.361 129.371 101.416 129.429 101.481C129.594 101.749 129.676 102.128 129.717 102.306L129.786 102.616C130.151 104.788 130.9 109.25 131.828 115.197C131.828 115.266 131.89 115.321 131.89 115.321C131.897 115.362 131.911 115.389 131.952 115.389C132.014 115.444 132.014 115.444 132.076 115.444C132.137 115.444 135.671 114.64 135.424 109.993L134.929 98.8964V98.6214C134.941 98.0436 135.087 97.4764 135.355 96.9646C135.623 96.4528 136.007 96.0103 136.476 95.672L139.824 93.0114C139.824 93.0114 141.866 91.5814 141.494 89.3539C141.432 89.2851 141.432 89.2301 141.371 89.2301L141.419 89.2576C141.371 89.182 141.343 89.1614 141.309 89.1614C139.267 88.1095 137.342 89.6632 137.342 89.6632L133.746 92.0764C133.255 92.4663 132.668 92.7178 132.047 92.8048C131.425 92.8919 130.792 92.8113 130.212 92.5714L126.864 91.4026L119.804 88.852ZM91.9049 92.5714C91.494 92.5732 91.1006 92.7377 90.8107 93.0289C90.5208 93.3201 90.358 93.7142 90.358 94.1251V94.1526C90.358 94.9089 90.8324 95.5001 91.4924 95.6789L91.9049 95.7339C92.1121 95.7368 92.3177 95.6976 92.5093 95.6188C92.7009 95.54 92.8746 95.4232 93.0198 95.2754C93.1651 95.1276 93.2788 94.9519 93.3542 94.759C93.4296 94.566 93.4652 94.3597 93.4586 94.1526V94.1251C93.4586 93.713 93.295 93.3178 93.0036 93.0265C92.7122 92.7351 92.317 92.5714 91.9049 92.5714ZM103.62 84.8232C103.209 84.8251 102.816 84.9896 102.526 85.2808C102.236 85.5719 102.073 85.9661 102.073 86.377V86.4045C102.073 87.1607 102.547 87.752 103.207 87.9307L103.62 87.9857C103.827 87.9886 104.033 87.9495 104.224 87.8707C104.416 87.7919 104.59 87.6751 104.735 87.5273C104.88 87.3795 104.994 87.2038 105.069 87.0108C105.145 86.8179 105.18 86.6116 105.174 86.4045V86.377C105.174 85.9649 105.01 85.5697 104.719 85.2783C104.427 84.9869 104.032 84.8232 103.62 84.8232ZM75.2949 84.8232C75.0909 84.8232 74.8888 84.8634 74.7003 84.9415C74.5118 85.0196 74.3405 85.134 74.1962 85.2783C74.0519 85.4226 73.9375 85.5939 73.8594 85.7824C73.7813 85.9709 73.7411 86.173 73.7411 86.377L73.748 86.4045C73.748 87.1607 74.2155 87.752 74.8755 87.9307L75.288 87.9857C75.4952 87.9886 75.7008 87.9495 75.8924 87.8707C76.0841 87.7919 76.2577 87.6751 76.403 87.5273C76.5482 87.3795 76.6619 87.2038 76.7374 87.0108C76.8128 86.8179 76.8483 86.6116 76.8418 86.4045V86.377C76.8418 85.5176 76.1543 84.8232 75.2949 84.8232ZM55.2061 154.632C55.4536 153.45 55.7561 152.212 56.1343 150.782L56.5055 149.297C57.0624 147.317 57.6811 145.206 58.4305 143.041C58.6093 142.484 58.7949 141.982 58.9186 141.487C59.2349 140.497 59.5374 139.507 59.8537 138.579C59.969 138.134 60.1137 137.698 60.2868 137.273C58.6093 136.901 56.6293 136.406 54.5186 135.966C52.4414 135.502 50.376 134.986 48.3243 134.419C46.8324 133.986 45.4711 133.615 44.2955 133.182C43.8624 133.058 43.4843 132.873 43.113 132.749C42.6706 132.586 42.2369 132.4 41.8136 132.192C41.4884 132.034 41.1778 131.848 40.8855 131.635C40.3286 133.182 39.8268 134.729 39.2699 136.283C41.9374 143.412 45.5949 149.984 50.1805 155.931C51.7961 156.303 53.343 156.619 54.9518 156.983C54.932 156.192 55.0176 155.401 55.2061 154.632ZM42.4324 127.049C42.9274 126.981 43.4224 126.919 44.048 126.919C45.4711 126.919 47.1418 126.988 49.0668 127.173C51.0468 127.359 53.2193 127.668 55.5774 128.101C57.9905 128.534 60.4724 128.968 63.0162 129.524C63.6968 127.599 64.3774 125.558 65.1199 123.33C66.1524 120.294 67.2898 117.295 68.5299 114.338C68.8771 113.543 69.2485 112.759 69.6436 111.986C69.8911 111.423 70.1387 110.989 70.393 110.618C70.5931 110.309 70.8209 110.019 71.0737 109.752C71.2027 109.629 71.3485 109.525 71.5068 109.443C71.7869 109.275 72.1085 109.189 72.4349 109.195L57.7499 82.9739L42.4393 127.043L42.4324 127.049ZM81.4205 141.673C80.9255 141.549 80.3686 141.487 79.8736 141.363C78.7735 141.16 77.6778 140.933 76.5874 140.683L74.9168 140.311C72.6205 139.816 70.5168 139.383 68.5299 139.005C68.0968 140.249 67.6637 141.425 67.1687 142.67C66.7502 143.841 66.2939 144.999 65.8005 146.141C65.3674 147.255 64.9343 148.307 64.5011 149.359C64.0893 150.321 63.6537 151.272 63.1949 152.212C62.4738 153.745 61.6682 155.237 60.7818 156.681C60.5328 157.154 60.2206 157.591 59.8537 157.98L106.219 168.203L90.7843 141.734L90.5368 141.982C90.4288 142.088 90.3031 142.174 90.1655 142.236C89.6086 142.546 88.5499 142.608 86.9343 142.484C85.6084 142.34 84.2877 142.152 82.9743 141.92C82.4174 141.858 81.9224 141.734 81.4205 141.673ZM75.5974 116.819C75.4737 117.438 75.288 118.126 75.1024 118.861L74.7311 120.353C74.298 121.838 73.858 123.392 73.3011 125.001C72.9226 126.066 72.5718 127.141 72.2493 128.225C71.878 129.277 71.5618 130.329 71.1974 131.319C72.868 131.759 74.4837 132.13 75.9068 132.501C76.6493 132.687 77.3299 132.873 78.0174 132.996C78.698 133.182 79.3168 133.306 79.9355 133.491C80.2449 133.56 80.5543 133.615 80.8018 133.739L81.6749 133.924C82.2249 134.048 82.7268 134.172 83.2218 134.358C84.2118 134.612 85.1468 134.859 85.8893 135.107C86.6318 135.293 87.2505 135.54 87.8143 135.726L76.0305 115.018C75.8427 115.607 75.6979 116.209 75.5974 116.819ZM68.0968 172.672C69.3343 173.476 70.6405 174.281 72.0637 175.085C75.9068 177.319 79.5643 178.99 82.8505 180.296C83.7786 180.668 84.7068 181.039 85.7655 181.41C93.0417 183.871 100.65 185.208 108.329 185.377V173.167C90.4749 169.262 72.6824 165.295 54.828 161.39C58.8403 165.607 63.288 169.386 68.0968 172.665V172.672Z" fill="white"/>
</g>
<defs>
<clipPath id="clip0_108_48">
<rect width="220" height="220" fill="white"/>
</clipPath>
</defs>
</svg>
