<svg width="220" height="220" viewBox="0 0 220 220" fill="none" xmlns="http://www.w3.org/2000/svg">
<g clip-path="url(#clip0_108_42)">
<path d="M110 220C170.751 220 220 170.751 220 110C220 49.2487 170.751 0 110 0C49.2487 0 0 49.2487 0 110C0 170.751 49.2487 220 110 220Z" fill="#343434"/>
<path d="M164.429 145.132C165.642 144.714 166.683 143.909 167.391 142.84C168.1 141.771 168.436 140.498 168.348 139.219V146.782C168.357 148.068 167.969 149.326 167.237 150.384C166.505 151.442 165.464 152.249 164.257 152.694L112.09 171.484C110.774 172.007 109.308 172.007 107.992 171.484L55.8248 152.701C54.6121 152.264 53.566 151.46 52.8326 150.4C52.0993 149.34 51.7153 148.077 51.7342 146.789V139.226C51.7342 141.832 53.3498 144.265 55.8248 145.139L108.164 163.921C109.478 164.443 110.941 164.443 112.255 163.921L164.429 145.132ZM164.429 131.739C165.63 131.303 166.658 130.494 167.364 129.429C168.069 128.365 168.414 127.102 168.348 125.827V133.389C168.357 134.676 167.969 135.934 167.237 136.992C166.505 138.05 165.464 138.856 164.257 139.302L112.09 158.091C110.774 158.615 109.308 158.615 107.992 158.091L55.8248 139.309C54.6121 138.872 53.566 138.067 52.8326 137.007C52.0993 135.947 51.7153 134.685 51.7342 133.396V125.744C51.7342 128.439 53.3498 130.784 55.8248 131.739L108.164 150.529C109.478 151.05 110.941 151.05 112.255 150.529L164.429 131.739ZM164.429 118.264C165.625 117.836 166.655 117.042 167.374 115.996C168.094 114.95 168.466 113.704 168.437 112.434V119.997C168.446 121.284 168.057 122.543 167.323 123.601C166.59 124.659 165.548 125.465 164.34 125.909L112.172 144.699C110.859 145.22 109.395 145.22 108.082 144.699L55.8248 125.827C54.6121 125.39 53.566 124.585 52.8326 123.525C52.0993 122.465 51.7153 121.203 51.7342 119.914V112.352C51.7342 114.957 53.3498 117.391 55.8248 118.264L108.164 137.047C109.478 137.568 110.941 137.568 112.255 137.047L164.429 118.264ZM51.5623 73.3016C51.5434 72.0128 51.9274 70.7503 52.6608 69.6903C53.3941 68.6303 54.4402 67.8258 55.6529 67.3891L107.91 48.5173C109.223 47.9955 110.687 47.9955 112 48.5173L164.257 67.3891C165.47 67.8258 166.516 68.6303 167.249 69.6903C167.983 70.7503 168.367 72.0128 168.348 73.3016V106.522C168.357 107.808 167.969 109.066 167.237 110.124C166.505 111.182 165.464 111.989 164.257 112.434L111.918 131.217C110.604 131.738 109.141 131.738 107.827 131.217L55.6529 112.434C54.4402 111.997 53.3941 111.193 52.6608 110.133C51.9274 109.073 51.5434 107.81 51.5623 106.522V73.3016Z" fill="white"/>
</g>
<defs>
<clipPath id="clip0_108_42">
<rect width="220" height="220" fill="white"/>
</clipPath>
</defs>
</svg>
