<svg width="220" height="220" viewBox="0 0 220 220" fill="none" xmlns="http://www.w3.org/2000/svg">
<g clip-path="url(#clip0_108_46)">
<path d="M110 220C170.751 220 220 170.751 220 110C220 49.2487 170.751 0 110 0C49.2487 0 0 49.2487 0 110C0 170.751 49.2487 220 110 220Z" fill="#0061FF"/>
<path d="M110.069 41.25L178.75 110.962L176.172 113.3C175 114.407 173.779 115.463 172.514 116.463C170.273 118.257 167.908 120.044 165.529 121.632C155.911 128.145 145.212 132.899 133.932 135.671C126.122 137.596 118.106 138.559 110.069 138.559C99.8938 138.559 89.7875 137.046 80.0937 133.952C70.1766 130.837 60.8176 126.166 52.3669 120.113C49.4448 117.97 46.6188 115.699 43.8969 113.307L41.25 110.962L48.7781 103.317L110.069 41.25ZM170.143 113.231C171.16 112.406 172.171 111.581 173.058 110.688L110 46.8187L46.9494 110.688L48.235 111.787C50.3387 113.506 52.4356 115.225 54.6081 116.737C70.7651 128.347 90.1736 134.561 110.069 134.496C117.815 134.487 125.533 133.54 133.052 131.677C143.89 128.999 154.172 124.433 163.426 118.188C165.749 116.662 167.991 115.005 170.143 113.238V113.231ZM66.8113 109.931C80.0877 104.016 94.4481 100.923 108.982 100.849C126.074 100.849 142.883 105.387 157.596 114.063L158.551 114.613L157.596 115.232C147.874 121.473 137.026 125.751 125.661 127.827L125.393 127.896L125.187 127.758C107.873 116.971 87.8843 111.248 67.485 111.238H63.7588L66.8113 109.931ZM126.204 123.695C134.812 122.045 143.021 119.089 150.611 114.819C137.698 108.237 123.407 104.816 108.914 104.837C100.182 104.837 91.4994 106.006 83.0844 108.343C98.3469 110.406 113.018 115.631 126.204 123.695ZM148.919 137.253C145.857 141.419 142.599 145.438 139.157 149.298L110.069 178.75L89.595 158.036L93.9262 157.761C108.41 156.864 122.493 152.648 135.087 145.441C138.882 143.584 148.919 137.253 148.919 137.253ZM98.4088 161.343L110.069 173.174L130.68 152.254C120.525 157.115 109.608 160.189 98.4088 161.343Z" fill="white"/>
</g>
<defs>
<clipPath id="clip0_108_46">
<rect width="220" height="220" fill="white"/>
</clipPath>
</defs>
</svg>
