<svg width="220" height="220" viewBox="0 0 220 220" fill="none" xmlns="http://www.w3.org/2000/svg">
<g clip-path="url(#clip0_108_47)">
<path d="M110 220C170.751 220 220 170.751 220 110C220 49.2487 170.751 0 110 0C49.2487 0 0 49.2487 0 110C0 170.751 49.2487 220 110 220Z" fill="#346FCE"/>
<path fill-rule="evenodd" clip-rule="evenodd" d="M138.6 128.604L145.172 140.958C148.911 147.991 149.703 156.221 147.375 163.838C145.046 171.455 139.788 177.835 132.756 181.576L131.904 182.029C128.421 183.882 124.607 185.03 120.681 185.408C116.755 185.787 112.792 185.388 109.02 184.235C105.247 183.082 101.739 181.197 98.6952 178.688C95.6512 176.18 93.1312 173.096 91.2791 169.613L69.121 127.937C65.5184 121.162 64.6452 113.265 66.6804 105.867C68.7157 98.4688 73.5051 92.13 80.066 88.1512L73.4935 75.7968C69.7554 68.763 68.9642 60.5325 71.2939 52.9154C73.6237 45.2984 78.8835 38.9186 85.9166 35.1793L86.7691 34.7255C93.8021 30.9869 102.032 30.1947 109.649 32.5231C117.266 34.8515 123.646 40.1099 127.387 47.1418L149.545 88.818C153.148 95.592 154.022 103.488 151.988 110.886C149.954 118.284 145.166 124.624 138.607 128.604H138.6ZM138.6 128.604L123.014 99.2818C119.274 92.2499 112.893 86.9915 105.276 84.6631C97.6594 82.3347 89.4296 83.1269 82.3966 86.8655L81.5441 87.3124C81.0423 87.5874 80.5473 87.8624 80.066 88.1512L95.6585 117.473C99.399 124.505 105.779 129.763 113.396 132.092C121.013 134.42 129.243 133.628 136.276 129.889L137.128 129.442C137.63 129.167 138.125 128.892 138.607 128.604H138.6Z" fill="white"/>
</g>
<defs>
<clipPath id="clip0_108_47">
<rect width="220" height="220" fill="white"/>
</clipPath>
</defs>
</svg>
