<svg width="220" height="220" viewBox="0 0 220 220" fill="none" xmlns="http://www.w3.org/2000/svg">
<g clip-path="url(#clip0_108_45)">
<path d="M110 220C170.751 220 220 170.751 220 110C220 49.2487 170.751 0 110 0C49.2487 0 0 49.2487 0 110C0 170.751 49.2487 220 110 220Z" fill="#2E3148"/>
<path d="M110.137 38.0186C101.234 38.0186 94.0156 70.3104 94.0156 110.137C94.0156 149.964 101.234 182.256 110.137 182.256C119.034 182.256 126.252 149.964 126.252 110.137C126.252 70.3104 119.034 38.0186 110.137 38.0186ZM111.251 178.179C110.234 179.54 109.209 178.523 109.209 178.523C105.112 173.765 103.063 164.945 103.063 164.945C95.8925 141.865 97.5975 92.3173 97.5975 92.3173C100.966 52.9854 107.099 43.6904 109.182 41.6279C109.395 41.4164 109.677 41.2872 109.976 41.2633C110.276 41.2394 110.574 41.3223 110.818 41.4973C113.843 43.6492 116.387 52.6142 116.387 52.6142C123.881 80.4442 123.2 106.569 123.2 106.569C123.881 129.312 119.446 154.763 119.446 154.763C116.029 174.109 111.251 178.179 111.251 178.179Z" fill="white"/>
<path d="M172.686 74.2498C168.252 66.5223 136.661 76.3329 102.101 96.1536C67.54 115.974 43.1612 138.297 47.5819 146.025C52.0162 153.752 83.6137 143.942 118.174 124.121C152.735 104.3 177.121 81.9704 172.693 74.2498H172.686ZM51.6656 144.959C49.9744 144.753 50.3594 143.35 50.3594 143.35C52.4356 137.438 59.0631 131.264 59.0631 131.264C75.515 113.561 119.35 90.3854 119.35 90.3854C155.141 73.7342 166.258 74.4354 169.077 75.2054C169.368 75.2853 169.621 75.4661 169.791 75.7155C169.961 75.9648 170.037 76.2666 170.005 76.5667C169.661 80.2586 163.13 86.9273 163.13 86.9273C142.739 107.284 119.735 119.707 119.735 119.707C100.347 131.615 76.0581 140.422 76.0581 140.422C57.5781 147.077 51.6656 144.959 51.6656 144.959Z" fill="white"/>
<path d="M172.528 146.279C176.997 138.579 152.68 116.146 118.229 96.174C83.7856 76.209 52.2018 66.2815 47.7399 73.9952C43.2712 81.7158 67.5949 104.128 102.052 124.1C136.517 144.065 168.066 153.993 172.528 146.279ZM50.7031 76.9721C50.0362 75.4046 51.4318 75.0265 51.4318 75.0265C57.5987 73.8577 66.2612 76.5183 66.2612 76.5183C89.8218 81.8808 131.835 108.198 131.835 108.198C164.182 130.831 169.146 140.806 169.888 143.632C169.963 143.922 169.933 144.23 169.804 144.5C169.674 144.771 169.453 144.987 169.18 145.11C165.811 146.657 156.771 144.354 156.771 144.354C128.927 136.888 106.659 123.213 106.659 123.213C86.6524 112.42 66.8662 95.8165 66.8662 95.8165C51.8306 83.1527 50.7099 76.979 50.7099 76.979L50.6962 76.9721H50.7031Z" fill="white"/>
<path d="M109.966 118.449C114.651 118.449 118.449 114.651 118.449 109.965C118.449 105.28 114.651 101.481 109.966 101.481C105.28 101.481 101.482 105.28 101.482 109.965C101.482 114.651 105.28 118.449 109.966 118.449Z" fill="white"/>
<path d="M144.753 84.2598C148.55 84.2598 151.628 81.1817 151.628 77.3848C151.628 73.5878 148.55 70.5098 144.753 70.5098C140.956 70.5098 137.878 73.5878 137.878 77.3848C137.878 81.1817 140.956 84.2598 144.753 84.2598Z" fill="white"/>
<path d="M63.9788 101.57C67.7757 101.57 70.8538 98.4923 70.8538 94.6953C70.8538 90.8984 67.7757 87.8203 63.9788 87.8203C60.1818 87.8203 57.1038 90.8984 57.1038 94.6953C57.1038 98.4923 60.1818 101.57 63.9788 101.57Z" fill="white"/>
<path d="M99.9556 164.01C103.753 164.01 106.831 160.932 106.831 157.135C106.831 153.338 103.753 150.26 99.9556 150.26C96.1586 150.26 93.0806 153.338 93.0806 157.135C93.0806 160.932 96.1586 164.01 99.9556 164.01Z" fill="white"/>
</g>
<defs>
<clipPath id="clip0_108_45">
<rect width="220" height="220" fill="white"/>
</clipPath>
</defs>
</svg>
