<svg width="220" height="220" viewBox="0 0 220 220" fill="none" xmlns="http://www.w3.org/2000/svg">
<g clip-path="url(#clip0_108_0)">
<path d="M220 110C220 131.756 213.549 153.023 201.462 171.113C189.375 189.202 172.195 203.301 152.095 211.627C131.995 219.952 109.878 222.131 88.5401 217.886C67.2022 213.642 47.6021 203.166 32.2183 187.782C16.8345 172.398 6.35804 152.798 2.11367 131.46C-2.13071 110.122 0.0476608 88.0047 8.3733 67.9048C16.6989 47.805 30.7979 30.6253 48.8873 18.5383C66.9767 6.45139 88.2441 0 110 0C139.174 0 167.153 11.5893 187.782 32.2183C208.411 52.8473 220 80.8262 220 110Z" fill="#001B69"/>
<path d="M105.41 152.46L96.09 125.65H64.37L54.94 152.46H44L75.26 65.5898H85.15L116.46 152.46H105.41ZM92.66 115.89L84 90.7999C83.7667 90.0932 83.4767 89.2232 83.13 88.1898C82.82 87.1898 82.49 86.0598 82.13 84.8798C81.77 83.6998 81.43 82.4698 81.08 81.2098C80.73 79.9498 80.41 78.6498 80.08 77.4198C79.8 78.6498 79.49 79.9098 79.14 81.2098C78.79 82.5098 78.45 83.7798 78.14 84.9998C77.83 86.2198 77.44 87.2898 77.14 88.3098C76.84 89.3298 76.56 90.1299 76.32 90.7999L67.88 115.89H92.66Z" fill="white"/>
<path d="M176 126.07C176.034 128.647 175.537 131.203 174.54 133.58C173.584 135.813 172.154 137.813 170.35 139.44C168.42 141.195 166.196 142.597 163.78 143.58C160.979 144.715 158.046 145.491 155.05 145.89V159.5H147.05V146.42C145.11 146.42 143.153 146.343 141.18 146.19C139.207 146.037 137.283 145.76 135.41 145.36C133.639 145.026 131.89 144.589 130.17 144.05C128.684 143.597 127.244 143.004 125.87 142.28V132.1C127.15 132.727 128.623 133.393 130.29 134.1C132 134.74 133.78 135.31 135.65 135.82C137.52 136.33 139.41 136.77 141.35 137.12C143.234 137.432 145.14 137.593 147.05 137.6V111.86C143.968 110.83 140.961 109.587 138.05 108.14C135.746 106.983 133.629 105.486 131.77 103.7C130.119 102.054 128.834 100.077 128 97.9C127.143 95.4496 126.729 92.8657 126.78 90.27C126.745 87.7926 127.222 85.3347 128.18 83.05C129.122 80.8738 130.508 78.9185 132.25 77.31C134.129 75.6067 136.296 74.2521 138.65 73.31C141.319 72.2036 144.13 71.4765 147 71.15V60.5H155V70.91C158.612 71.0694 162.2 71.5852 165.71 72.45C168.748 73.1927 171.708 74.2241 174.55 75.53L170.71 84.11C168.334 83.0492 165.884 82.1603 163.38 81.45C160.652 80.6194 157.842 80.0831 155 79.85V104.85C158.071 105.938 161.076 107.204 164 108.64C166.404 109.781 168.623 111.278 170.58 113.08C172.312 114.635 173.678 116.554 174.58 118.7C175.544 121.036 176.027 123.543 176 126.07ZM165.76 126.07C165.775 124.861 165.575 123.659 165.17 122.52C164.792 121.389 164.155 120.361 163.31 119.52C162.372 118.512 161.269 117.67 160.05 117.03C158.443 116.172 156.771 115.439 155.05 114.84V137C158.66 136.45 161.33 135.21 163.05 133.28C164.862 131.324 165.835 128.735 165.76 126.07ZM137 90.38C136.986 91.6784 137.144 92.973 137.47 94.23C137.831 95.3553 138.405 96.4009 139.16 97.31C140.043 98.3013 141.083 99.1393 142.24 99.79C143.76 100.648 145.357 101.361 147.01 101.92V80.09C143.563 80.7167 141.023 81.92 139.39 83.7C137.76 85.5339 136.903 87.9281 137 90.38Z" fill="white"/>
</g>
<defs>
<clipPath id="clip0_108_0">
<rect width="220" height="220" fill="white"/>
</clipPath>
</defs>
</svg>
