<svg width="220" height="220" viewBox="0 0 220 220" fill="none" xmlns="http://www.w3.org/2000/svg">
<g clip-path="url(#clip0_108_51)">
<path d="M110 220C170.751 220 220 170.751 220 110C220 49.2487 170.751 0 110 0C49.2487 0 0 49.2487 0 110C0 170.751 49.2487 220 110 220Z" fill="#FAB431"/>
<path fill-rule="evenodd" clip-rule="evenodd" d="M168.438 132.461L139.666 115.198L142.966 101.523L155.251 108.776V83.8062L115.789 60.28V114.592L106.404 119.783L158.228 150.514L110 178.75L51.5625 144.526V76.0856L110 41.25L168.438 76.0856V132.461ZM64.7488 83.8062V128.342L102.685 106.343V61.1875L64.7488 83.7994V83.8062ZM92.9156 127.421L71.3419 140.614L110 163.247L131.828 150.459L92.9156 127.414V127.421Z" fill="white"/>
</g>
<defs>
<clipPath id="clip0_108_51">
<rect width="220" height="220" fill="white"/>
</clipPath>
</defs>
</svg>
