<svg width="220" height="220" viewBox="0 0 220 220" fill="none" xmlns="http://www.w3.org/2000/svg">
<g clip-path="url(#clip0_108_50)">
<path d="M110 220C170.751 220 220 170.751 220 110C220 49.2487 170.751 0 110 0C49.2487 0 0 49.2487 0 110C0 170.751 49.2487 220 110 220Z" fill="#3355B5"/>
<path d="M110 27.5C64.4394 27.5 27.5 64.4394 27.5 110C27.5 155.561 64.4394 192.5 110 192.5C155.561 192.5 192.5 155.561 192.5 110C192.5 88.1196 183.808 67.1354 168.336 51.6637C152.865 36.1919 131.88 27.5 110 27.5ZM110 190.919C65.3125 190.919 29.0813 154.688 29.0813 110C29.0813 65.3125 65.3125 29.0813 110 29.0813C154.688 29.0813 190.919 65.3125 190.919 110C190.919 131.461 182.393 152.043 167.218 167.218C152.043 182.393 131.461 190.919 110 190.919Z" fill="white"/>
<path fill-rule="evenodd" clip-rule="evenodd" d="M132.619 92.8127L132.412 92.0564L132.206 91.3002L132 90.4752L131.725 89.7877L131.519 89.0314L131.244 88.3439L130.9 87.5877L130.625 86.9002L130.281 86.2814L129.937 85.5939L129.594 84.9752L129.181 84.3564L128.837 83.8064L128.425 83.1877L128.012 82.7064L127.531 82.1564L127.119 81.6752L126.706 81.1939L126.225 80.7814L125.744 80.3689L125.262 79.9564L124.781 79.6127L124.231 79.2689L123.75 78.9939L123.2 78.6502L122.719 78.4439L122.169 78.1689L121.619 77.9627L121.069 77.7564L120.45 77.6189L119.9 77.4814L119.35 77.3439L118.731 77.2752L118.112 77.2064L117.562 77.1377H115.706L115.087 77.2064L114.469 77.2752L113.781 77.3439L113.162 77.4814L112.544 77.6189L111.925 77.7564L111.237 77.9627L110.619 78.1689L109.931 78.3752L109.244 78.6502L108.625 78.9252L107.937 79.2689L107.319 79.5439L106.631 79.8877L105.944 80.3002L105.325 80.6439L104.637 81.0564L103.95 81.5377L103.331 81.9502L102.644 82.4314L101.956 82.9814L101.269 83.4627L100.65 84.0127L99.9624 84.5627L99.3436 85.1814L98.6561 85.8002L97.9686 86.4189L97.3499 87.1064L96.6624 87.7939L96.0436 88.4814L95.4249 89.1689L94.7374 89.9252L94.1186 90.6814L93.4999 91.4377L92.8811 92.2627L92.2624 93.0877L91.6436 93.9814L90.8186 95.1502L89.9936 96.3877L89.1686 97.6939L88.4124 98.9314L87.6561 100.306L86.8999 101.613L86.2124 102.919L85.5249 104.294L84.9061 105.669L84.2874 107.044L83.7374 108.419L83.2561 109.519L132.687 93.3627L132.619 92.8127ZM87.9999 116.944L131.794 116.6L132 115.638L132.206 114.675L132.412 113.713L132.619 112.681L132.756 111.719L132.962 110.756L133.1 109.794L133.169 108.831L133.306 107.869L133.375 106.906L133.444 106.013L133.512 105.05L133.581 104.088V102.094L87.9999 116.944Z" fill="white"/>
<path d="M110 31.3506C66.5639 31.3506 31.3501 66.5643 31.3501 110.001C31.3501 153.437 66.5639 188.651 110 188.651C153.436 188.651 188.65 153.437 188.65 110.001C188.65 99.6721 186.616 89.4448 182.663 79.9025C178.711 70.3603 172.917 61.69 165.614 54.3866C158.311 47.0833 149.64 41.29 140.098 37.3375C130.556 33.3849 120.329 31.3506 110 31.3506ZM154.55 116.326L153.175 124.438H140.869L140.456 125.813L139.7 127.876L138.944 129.938L138.119 132.001L137.5 134.063L136.606 136.057L135.644 138.051L134.681 140.044L133.65 141.969L132.619 143.894L131.519 145.751L130.419 147.607L129.25 149.463L127.875 151.251L127.256 152.144L126.638 153.038L120.244 142.313L120.863 141.419L121.481 140.526L122.031 139.632L122.581 138.738L123.131 137.844L123.681 136.951L124.231 136.057L124.713 135.163L125.194 134.201L125.675 133.238L126.156 132.276L126.638 131.313L127.05 130.351L127.463 129.388L127.875 128.426L128.288 127.463L128.7 126.501L129.044 125.538V124.713L79.0626 125.126V137.844L66.2751 146.713V125.126H62.5626L61.1876 125.607L58.8501 117.426L70.4001 113.644V112.751L70.8814 111.307L71.5688 110.001L72.0501 108.626L72.6001 107.251L73.1501 105.876L73.7001 104.501L74.2501 103.126L74.8689 101.751L75.4876 100.376L76.1063 99.0006L76.7251 97.6943L77.4126 96.3881L78.1001 95.0818L78.7876 93.7756L79.4751 92.4693L80.2313 91.1631L80.9876 89.9256L81.7439 88.6881L82.5001 87.3818L83.2563 86.1443L84.0813 84.9756L84.9063 83.8068L85.6626 82.5006L86.4876 81.3318L87.3126 80.2318L88.2064 79.1318L89.3751 78.1693L90.2688 77.1381L91.1626 76.1068L92.0563 75.0756L93.0188 74.1131L93.9814 73.1506L94.9438 72.1881L95.9063 71.2943L96.8689 70.4006L97.8313 69.5068L98.5876 68.7506L99.6189 67.9256L100.65 67.1693L101.681 66.4131L102.713 65.6568L103.744 64.9693L104.775 64.3506L105.806 63.7318L106.838 63.1818L107.869 62.6318L108.763 61.8756L110 61.5318L110.963 61.1193L111.925 60.7068L112.888 60.3631H129.456L130.213 60.7068L130.969 61.0506L131.725 61.4631L132.481 61.8756L133.169 62.3568L133.856 62.8381L134.544 63.3881L135.231 63.9381L135.85 64.5568L136.469 65.1756L137.088 65.8631L137.706 66.5506L138.256 67.3068L138.806 68.0631L139.356 68.8193L139.906 69.6443L140.388 70.4693L140.869 71.3631L141.35 72.2568L141.763 73.2193L142.175 74.1818L142.588 75.1443L143 76.1756L143.344 77.2068V89.3756L150.219 87.1756L152.556 95.3568L143.756 98.2443V109.451L143.413 111.513L143 113.576L142.519 115.638V116.532L154.55 116.326Z" fill="white"/>
</g>
<defs>
<clipPath id="clip0_108_50">
<rect width="220" height="220" fill="white"/>
</clipPath>
</defs>
</svg>
