<svg width="220" height="220" viewBox="0 0 220 220" fill="none" xmlns="http://www.w3.org/2000/svg">
<g clip-path="url(#clip0_108_53)">
<path d="M110 220C170.751 220 220 170.751 220 110C220 49.2487 170.751 0 110 0C49.2487 0 0 49.2487 0 110C0 170.751 49.2487 220 110 220Z" fill="#F19F13"/>
<path d="M156.544 95.9062H190.025L192.5 82.1562H160.119C153.735 82.3549 147.547 84.4094 142.313 88.0688C140.388 81.1938 121.688 82.1562 121.688 82.1562L124.162 68.4062H116.875L114.4 82.1562H106.769L108.9 68.4062H100.994L98.1063 82.1562H89.925L85.7313 103.606L80.1625 82.5688H61.875L27.5 133.1H55.825L58.7125 119.694H52.9375L69.4375 95.5625L75.625 119.831H69.4375L66.7562 133.1H87.7938L86.075 142.312H94.325L96.25 133.1H103.125L101.406 142.312H110L111.719 133.1H122.444C127.375 132.541 131.94 130.222 135.3 126.569C139.305 130.623 144.728 132.964 150.425 133.1H182.806L184.938 119.694H155.856C135.85 119.35 144.375 95.7687 156.544 95.9062ZM120.175 119.35H98.725L100.444 112.819H121.069C126.294 113.162 124.575 119.35 120.175 119.35ZM123.406 101.75H101.956L103.675 95.2188H124.3C129.525 95.5625 127.6 102.025 123.406 102.025V101.75Z" fill="white"/>
</g>
<defs>
<clipPath id="clip0_108_53">
<rect width="220" height="220" fill="white"/>
</clipPath>
</defs>
</svg>
