<svg width="220" height="220" viewBox="0 0 220 220" fill="none" xmlns="http://www.w3.org/2000/svg">
<g clip-path="url(#clip0_108_54)">
<path d="M110 220C170.751 220 220 170.751 220 110C220 49.2487 170.751 0 110 0C49.2487 0 0 49.2487 0 110C0 170.751 49.2487 220 110 220Z" fill="#1E1E1E"/>
<path d="M110.632 159.472C72.3112 159.472 41.25 148.404 41.25 133.567C41.25 125.826 49.7062 118.855 63.25 113.932C73.8237 120.718 91.5544 124.197 111.664 124.197C131.299 124.197 148.651 119.955 159.307 113.458C172.088 118.319 180.022 125.104 180.022 132.584C180.022 147.441 148.961 159.472 110.632 159.472Z" fill="white"/>
<path d="M111.045 120.863C81.9913 120.863 58.4375 111.754 58.4375 100.513C58.4375 94.2843 65.6975 88.7018 77.0825 84.9824C85.2087 89.2243 97.3844 91.933 111.045 91.933C124.706 91.933 136.881 89.2243 145.007 84.9893C156.413 88.7224 163.652 94.2843 163.652 100.513C163.673 111.754 140.112 120.863 111.045 120.863Z" fill="white"/>
<path d="M110.853 88.55C88.3921 88.55 70.1802 81.0287 70.1802 71.775C70.1802 62.5281 88.3989 55 110.853 55C133.306 55 151.525 62.5281 151.525 71.775C151.525 81.0287 133.306 88.55 110.853 88.55Z" fill="white"/>
</g>
<defs>
<clipPath id="clip0_108_54">
<rect width="220" height="220" fill="white"/>
</clipPath>
</defs>
</svg>
