<svg width="220" height="220" viewBox="0 0 220 220" fill="none" xmlns="http://www.w3.org/2000/svg">
<g clip-path="url(#clip0_108_52)">
<path d="M110 220C170.751 220 220 170.751 220 110C220 49.2487 170.751 0 110 0C49.2487 0 0 49.2487 0 110C0 170.751 49.2487 220 110 220Z" fill="#516AFF"/>
<path d="M125.716 85.7931L140.841 94.435V51.2187L110.591 36.0938L63.5938 62.5625V156.551L110.591 183.562L157.046 156.014V109.56L112.207 82.5481L97.0819 90.1106L141.921 116.579L142.457 148.452L110.591 166.279L78.1756 147.909V70.125L110.591 52.2981L125.716 60.4037V85.7931Z" fill="white"/>
<path d="M108.968 111.72L119.233 106.316L130.577 113.342L97.0815 132.248V93.3564L108.968 100.376" fill="white"/>
</g>
<defs>
<clipPath id="clip0_108_52">
<rect width="220" height="220" fill="white"/>
</clipPath>
</defs>
</svg>
