<svg width="220" height="220" viewBox="0 0 220 220" fill="none" xmlns="http://www.w3.org/2000/svg">
<g clip-path="url(#clip0_108_55)">
<path d="M110 220C170.751 220 220 170.751 220 110C220 49.2487 170.751 0 110 0C49.2487 0 0 49.2487 0 110C0 170.751 49.2487 220 110 220Z" fill="#6356AB"/>
<path d="M156.64 109.821C157.039 109.374 157.486 108.927 157.933 108.474C159.376 106.92 160.957 105.263 162.449 103.661C168.426 97.4305 171.768 89.1335 171.779 80.4994C171.779 79.9012 171.875 77.44 171.875 77.0894C171.181 57.3444 154.557 41.25 134.908 41.25H73.0331V66.2131H48.125V178.75H135.898C155.403 178.75 171.875 161.404 171.875 140.855C171.923 126.163 162.841 115.789 156.64 109.821ZM85.4356 78.7463L134.709 78.7944L103.751 110.179L134.365 141.254H85.4356V78.7463ZM135.898 166.169H60.5275V78.6981H73.04V153.739H134.365C139.425 153.739 143.942 150.679 145.874 145.97C146.825 143.678 147.078 141.156 146.601 138.721C146.124 136.286 144.938 134.046 143.192 132.282L121.316 110.124L143.543 87.615C147.118 84.0056 148.156 78.6431 146.224 73.9337C145.296 71.6396 143.705 69.6747 141.653 68.2906C139.602 66.9066 137.184 66.1664 134.709 66.165H85.4837V53.735H134.956C148.06 53.735 159.074 64.4119 159.521 77.3919C159.521 77.9419 159.417 80.1006 159.417 80.1488V80.3963C159.417 85.84 157.302 91.0706 153.519 94.985C151.979 96.5938 150.391 98.2919 148.954 99.7975C146.52 102.355 144.437 104.562 143.44 105.566L138.971 109.973L143.392 114.441C143.99 115.039 144.732 115.741 145.626 116.593C150.782 121.406 159.472 129.422 159.472 140.752C159.521 154.289 148.507 166.169 135.898 166.169Z" fill="white"/>
</g>
<defs>
<clipPath id="clip0_108_55">
<rect width="220" height="220" fill="white"/>
</clipPath>
</defs>
</svg>
