<svg width="220" height="220" viewBox="0 0 220 220" fill="none" xmlns="http://www.w3.org/2000/svg">
<g clip-path="url(#clip0_108_59)">
<path d="M110 220C170.751 220 220 170.751 220 110C220 49.2487 170.751 0 110 0C49.2487 0 0 49.2487 0 110C0 170.751 49.2487 220 110 220Z" fill="#004AB5"/>
<path d="M85.8207 53.5773C76.748 56.996 68.6355 62.5557 62.1733 69.7834C55.711 77.0111 51.0904 85.6929 48.7046 95.0901C46.3187 104.487 46.2382 114.322 48.4699 123.757C50.7016 133.192 55.1795 141.948 61.5225 149.281C67.8655 156.613 75.886 162.305 84.9014 165.872C93.9169 169.438 103.661 170.775 113.303 169.766C122.946 168.758 132.203 165.435 140.285 160.081C148.368 154.727 155.038 147.499 159.727 139.013L107.051 109.897L128.425 53.6255C114.706 48.4175 99.5579 48.4004 85.8276 53.5773H85.8207ZM89.5744 64.3917C100.694 60.1988 112.963 60.2135 124.073 64.433L106.769 109.994L149.421 133.575C145.624 140.445 140.223 146.295 133.678 150.629C127.133 154.963 119.639 157.653 111.832 158.468C104.024 159.284 96.1359 158.201 88.8369 155.313C81.5379 152.425 75.0445 147.817 69.909 141.88C64.7736 135.944 61.148 128.854 59.3408 121.216C57.5336 113.577 57.5982 105.615 59.5291 98.0062C61.46 90.3978 65.2001 83.3684 70.4311 77.5159C75.6622 71.6634 82.2296 67.161 89.5744 64.3917ZM109.759 34.238C117.948 34.5611 126.026 36.2111 133.684 39.1192L106.769 109.994L173.119 146.672C166.591 158.484 157.028 168.339 145.418 175.219C133.808 182.1 120.572 185.757 107.076 185.813C93.58 185.869 80.314 182.321 68.6475 175.536C56.981 168.752 47.337 158.976 40.7113 147.218C34.0856 135.461 30.7183 122.148 30.9572 108.654C31.1961 95.1603 35.0325 81.9749 42.0703 70.4593C49.1081 58.9437 59.0921 49.5154 70.9914 43.1479C82.8908 36.7804 96.2741 33.7046 109.759 34.238ZM161.521 60.4455C163.336 60.4455 165.028 60.6586 166.581 61.0986C171.16 62.3567 174.254 65.203 175.863 69.6305C176.846 72.3186 177.059 74.9586 176.509 77.5505C176.014 80.1217 174.824 82.4317 172.941 84.4942C176.474 84.3361 179.561 85.1267 182.222 86.8455C184.855 88.5092 186.801 91.0598 188.045 94.4836C189.812 99.3373 189.283 103.772 186.443 107.787C183.638 111.733 178.626 115.026 171.401 117.652L142.773 128.075L122.623 72.7105L149.669 62.8655C154.096 61.2567 158.049 60.4455 161.521 60.4455ZM157.328 71.8992C155.678 71.8992 153.773 72.298 151.601 73.0886L138.868 77.7223L143.612 90.778L156.351 86.1373C159.514 84.9892 161.714 83.5661 162.938 81.8611C164.175 80.1561 164.395 78.2242 163.604 76.0655C162.821 73.9067 161.418 72.5936 159.397 72.133C158.72 71.9695 158.024 71.8909 157.328 71.8992ZM168.066 93.363C166.334 93.3836 164.299 93.8167 161.961 94.6692L147.015 100.107L151.993 113.789L166.939 108.35C170.308 107.12 172.645 105.649 173.924 103.923C175.264 102.184 175.505 100.155 174.666 97.8317C173.566 94.8273 171.366 93.3355 168.066 93.363Z" fill="white"/>
</g>
<defs>
<clipPath id="clip0_108_59">
<rect width="220" height="220" fill="white"/>
</clipPath>
</defs>
</svg>
