<svg width="220" height="220" viewBox="0 0 220 220" fill="none" xmlns="http://www.w3.org/2000/svg">
<g clip-path="url(#clip0_108_56)">
<path d="M110 220C170.751 220 220 170.751 220 110C220 49.2487 170.751 0 110 0C49.2487 0 0 49.2487 0 110C0 170.751 49.2487 220 110 220Z" fill="#F7931C"/>
<path d="M50.5382 132.825C50.4832 112.118 65.0651 94.7379 85.9239 90.826C87.7114 90.496 88.2201 89.8979 88.172 88.1516C88.0587 83.5025 88.0587 78.8513 88.172 74.2022C88.2064 72.5316 87.677 71.5347 86.2401 70.5997C81.2282 67.3341 79.1795 61.3941 81.0151 56.0522C81.8977 53.3494 83.6491 51.0142 85.9967 49.4102C88.3443 47.8062 91.1564 47.0233 93.9951 47.1835C99.2889 47.431 104.136 51.3704 105.566 56.6022C107.009 61.8547 105.002 67.5679 100.341 70.531C98.6907 71.576 98.1751 72.6279 98.2301 74.4979C98.3676 79.1454 98.3195 83.7929 98.2576 88.4472C98.237 89.7947 98.4364 90.5166 100.038 90.7229C103.084 91.1285 106.061 91.9466 108.879 93.1566C109.938 93.6104 110.509 93.3354 111.217 92.5516C121.083 81.6822 130.983 70.8335 140.903 60.0122C141.928 58.8985 141.632 58.1354 141.165 56.9872C138.745 51.0197 140.161 44.5779 144.726 40.3154C148.892 36.431 155.781 35.3241 160.758 37.7372C166.616 40.5766 169.833 46.0216 169.435 52.4154C168.898 60.9679 160.579 67.4097 152.137 65.6566C150.425 65.2991 149.435 65.7116 148.328 66.9354C139.145 77.0857 129.923 87.2012 120.663 97.2816C119.543 98.4985 119.385 99.1516 120.78 100.362C135.933 113.575 140.058 133.485 131.423 151.622C130.769 152.997 130.914 153.78 131.973 154.784C134.496 157.183 136.936 159.665 139.356 162.175C140.319 163.172 141.22 163.433 142.65 163.068C148.218 161.666 153.993 164.168 156.771 169.002C158.147 171.394 158.715 174.165 158.392 176.906C158.069 179.646 156.871 182.21 154.976 184.216C151.168 188.265 144.946 189.441 140.113 187.021C134.833 184.381 131.918 178.737 133.169 172.941C133.533 171.277 133.148 170.328 132.035 169.277C129.984 167.338 127.996 165.334 126.074 163.268C124.953 162.058 124.259 162.037 122.98 163.24C109.925 175.409 94.7857 178.558 78.0795 172.618C61.4695 166.726 50.5864 150.577 50.5382 132.832" fill="#FEFDFC"/>
</g>
<defs>
<clipPath id="clip0_108_56">
<rect width="220" height="220" fill="white"/>
</clipPath>
</defs>
</svg>
