<svg width="220" height="220" viewBox="0 0 220 220" fill="none" xmlns="http://www.w3.org/2000/svg">
<g clip-path="url(#clip0_108_61)">
<path d="M110 220C170.751 220 220 170.751 220 110C220 49.2487 170.751 0 110 0C49.2487 0 0 49.2487 0 110C0 170.751 49.2487 220 110 220Z" fill="#FCC339"/>
<path d="M155.272 66.6463L155.801 67.8219L134.805 77.4606L144.251 108.742L175.333 93.0463L175.746 93.8644L175.869 93.7131L155.733 66.8594L155.272 66.6463ZM154.137 66.1169L135.073 57.2481H85.7725L65.4087 66.5981L86.5837 75.5081H133.678L154.137 66.1169ZM63.7037 68.3169L44.6394 93.0737L75.6731 108.749L85.1606 77.3438L63.7037 68.3169ZM87.3538 77.7563L77.5569 110.206L109.959 167.489L142.368 110.206L132.564 77.7563H87.3538ZM173.374 96.5456L144.375 111.196L115.466 162.298L173.374 96.5456ZM104.301 162.023L75.5494 111.196L46.7019 96.6281L104.301 162.023ZM44.2131 93.7956L44.44 93.335L44.1444 93.72L44.2131 93.7956ZM63.4013 65.0512L85.2844 55H135.554L157.169 65.0512L178.75 93.83L110 171.875L41.25 93.8162L63.4013 65.0512ZM126.658 101.984C127.064 106.157 125.338 108.666 122.574 110.089C127.119 111.189 129.965 113.926 129.401 120.058C128.714 127.662 123.111 129.697 115.108 130.164V138.16H110.351V130.274C109.113 130.274 107.855 130.261 106.549 130.233V138.16H101.798V130.144C100.684 130.137 99.55 130.116 98.395 130.116H92.2075L93.1494 124.362C93.1494 124.362 96.6694 124.417 96.6075 124.362C97.955 124.362 98.3125 123.379 98.395 122.767V110.138H98.9037C98.7351 110.115 98.5652 110.103 98.395 110.103V101.09C98.2163 100.107 97.5906 98.9794 95.6587 98.9725C95.7206 98.9037 92.2075 98.9725 92.2075 98.9725V93.83H98.7663V93.8575C99.7563 93.8575 100.76 93.8369 101.791 93.8162V85.9031H106.556V93.665C107.821 93.6375 109.099 93.61 110.351 93.61V85.91L115.108 85.9031V93.8162C121.254 94.3662 126.115 96.2775 126.658 101.984ZM120.003 119.102C120.003 112.86 109.89 113.802 106.666 113.802V124.41C109.89 124.41 120.003 125.084 120.003 119.102ZM117.789 104.136C117.789 98.4569 109.347 99.3231 106.666 99.3231V108.948C109.347 108.948 117.789 109.581 117.789 104.136Z" fill="white"/>
</g>
<defs>
<clipPath id="clip0_108_61">
<rect width="220" height="220" fill="white"/>
</clipPath>
</defs>
</svg>
