<svg width="220" height="220" viewBox="0 0 220 220" fill="none" xmlns="http://www.w3.org/2000/svg">
<g clip-path="url(#clip0_108_58)">
<path d="M110 220C170.751 220 220 170.751 220 110C220 49.2487 170.751 0 110 0C49.2487 0 0 49.2487 0 110C0 170.751 49.2487 220 110 220Z" fill="#8DC351"/>
<path d="M145.798 72.4208C140.463 58.8633 127.084 57.6396 111.506 60.6646L105.957 41.3252L94.1874 44.7008L99.5912 63.5383C96.4974 64.4183 93.3487 65.3946 90.2206 66.3571L84.7893 47.3958L73.0262 50.7646L78.5605 70.1039C76.0305 70.8877 73.5418 71.6577 71.1012 72.3589L71.0805 72.2902L54.8418 76.9446L58.4512 89.5258C58.4512 89.5258 67.0999 86.8583 66.9968 87.0646C71.768 85.6964 74.1124 88.0202 75.2468 90.2821L81.5718 112.31C81.8949 112.22 82.328 112.11 82.8368 112.035L81.5924 112.392L90.4405 143.261C90.6605 144.821 90.4681 147.468 87.1406 148.431C87.3262 148.52 78.5743 150.878 78.5743 150.878L80.2724 165.611L95.5899 161.211C98.4431 160.407 101.262 159.651 104.019 158.874L109.636 178.433L121.392 175.065L115.844 155.711C118.997 154.875 122.142 154.004 125.276 153.099L130.79 172.37L142.567 168.994L136.971 149.469C156.434 142.656 168.857 133.698 165.247 114.613C162.346 99.2539 153.395 94.5927 141.384 95.1152C147.214 89.6839 149.724 82.3414 145.798 72.4277V72.4208ZM141.329 118.965C145.523 133.588 120.017 139.101 112.042 141.398L104.61 115.479C112.585 113.19 136.95 103.723 141.322 118.971L141.329 118.965ZM125.366 83.9708C129.174 97.2739 107.855 101.708 101.207 103.613L94.4693 80.1071C101.111 78.2027 121.385 70.1039 125.366 83.9777V83.9708Z" fill="white"/>
</g>
<defs>
<clipPath id="clip0_108_58">
<rect width="220" height="220" fill="white"/>
</clipPath>
</defs>
</svg>
