<svg width="220" height="220" viewBox="0 0 220 220" fill="none" xmlns="http://www.w3.org/2000/svg">
<g clip-path="url(#clip0_108_60)">
<path d="M110 220C170.751 220 220 170.751 220 110C220 49.2487 170.751 0 110 0C49.2487 0 0 49.2487 0 110C0 170.751 49.2487 220 110 220Z" fill="#3F43AD"/>
<path d="M82.0874 51.1232C80.552 51.2132 79.109 51.8865 78.0536 53.0054C76.9983 54.1243 76.4105 55.6042 76.4105 57.1423C76.4105 58.6804 76.9983 60.1603 78.0536 61.2792C79.109 62.3981 80.552 63.0714 82.0874 63.1614C83.6229 63.0714 85.0659 62.3981 86.1212 61.2792C87.1765 60.1603 87.7643 58.6804 87.7643 57.1423C87.7643 55.6042 87.1765 54.1243 86.1212 53.0054C85.0659 51.8865 83.6229 51.2132 82.0874 51.1232ZM109.931 34.417C108.384 34.491 106.924 35.1578 105.855 36.2791C104.786 37.4004 104.19 38.8902 104.19 40.4395C104.19 41.9887 104.786 43.4786 105.855 44.5999C106.924 45.7212 108.384 46.388 109.931 46.462C111.479 46.388 112.938 45.7212 114.007 44.5999C115.076 43.4786 115.673 41.9887 115.673 40.4395C115.673 38.8902 115.076 37.4004 114.007 36.2791C112.938 35.1578 111.479 34.491 109.931 34.417ZM109.931 101.235C108.396 101.325 106.953 101.998 105.897 103.117C104.842 104.236 104.254 105.716 104.254 107.254C104.254 108.792 104.842 110.272 105.897 111.391C106.953 112.51 108.396 113.183 109.931 113.273C111.467 113.183 112.91 112.51 113.965 111.391C115.02 110.272 115.608 108.792 115.608 107.254C115.608 105.716 115.02 104.236 113.965 103.117C112.91 101.998 111.467 101.325 109.931 101.235ZM137.768 84.5289C136.977 84.5298 136.193 84.6865 135.463 84.9902C134.732 85.2939 134.068 85.7385 133.509 86.2987C132.95 86.8589 132.507 87.5237 132.205 88.2551C131.903 88.9866 131.748 89.7703 131.749 90.5617C131.75 91.353 131.907 92.1364 132.21 92.8672C132.514 93.5979 132.959 94.2617 133.519 94.8206C134.079 95.3796 134.744 95.8227 135.475 96.1247C136.207 96.4267 136.99 96.5816 137.782 96.5807C139.38 96.5789 140.912 95.9423 142.041 94.8109C143.17 93.6796 143.803 92.1461 143.801 90.5479C143.799 88.9497 143.162 87.4178 142.031 86.289C140.9 85.1602 139.366 84.527 137.768 84.5289ZM165.605 67.8295C164.796 67.8031 163.991 67.9397 163.236 68.2311C162.482 68.5225 161.793 68.9628 161.213 69.5257C160.632 70.0886 160.17 70.7627 159.855 71.5077C159.54 72.2528 159.378 73.0536 159.379 73.8625C159.38 74.6715 159.544 75.4719 159.86 76.2163C160.177 76.9606 160.64 77.6336 161.222 78.1952C161.805 78.7568 162.494 79.1955 163.249 79.4852C164.004 79.7748 164.81 79.9096 165.619 79.8814C167.182 79.8268 168.662 79.1671 169.748 78.0416C170.834 76.916 171.44 75.4126 171.438 73.8488C171.436 72.2849 170.827 70.7829 169.738 69.6599C168.65 68.5368 167.168 67.8805 165.605 67.8295ZM82.0874 117.941C80.552 118.031 79.109 118.705 78.0536 119.824C76.9983 120.942 76.4105 122.422 76.4105 123.96C76.4105 125.498 76.9983 126.978 78.0536 128.097C79.109 129.216 80.552 129.89 82.0874 129.979C83.6229 129.89 85.0659 129.216 86.1212 128.097C87.1765 126.978 87.7643 125.498 87.7643 123.96C87.7643 122.422 87.1765 120.942 86.1212 119.824C85.0659 118.705 83.6229 118.031 82.0874 117.941ZM54.2437 67.8295C53.4528 67.8304 52.6698 67.9871 51.9395 68.2906C51.2091 68.5941 50.5457 69.0384 49.9871 69.5983C49.4285 70.1582 48.9857 70.8226 48.6839 71.5536C48.382 72.2847 48.2271 73.068 48.228 73.8589C48.229 74.6497 48.3856 75.4327 48.6891 76.1631C48.9926 76.8934 49.437 77.5568 49.9969 78.1154C50.5567 78.674 51.2212 79.1169 51.9522 79.4187C52.6832 79.7205 53.4665 79.8754 54.2574 79.8745C55.8547 79.8727 57.3858 79.2364 58.514 78.1057C59.6421 76.975 60.2749 75.4424 60.2731 73.8451C60.2712 72.2478 59.635 70.7167 58.5042 69.5886C57.3735 68.4604 55.8409 67.8277 54.2437 67.8295ZM54.2437 134.641C53.4523 134.642 52.6689 134.798 51.9382 135.102C51.2074 135.406 50.5436 135.85 49.9847 136.411C48.8559 137.542 48.2228 139.075 48.2246 140.674C48.2264 142.272 48.8631 143.804 49.9944 144.933C51.1258 146.061 52.6592 146.694 54.2574 146.693C55.8556 146.691 57.3876 146.054 58.5164 144.923C59.6452 143.791 60.2783 142.258 60.2765 140.66C60.2747 139.062 59.638 137.53 58.5067 136.401C57.3753 135.272 55.8419 134.639 54.2437 134.641ZM54.2437 101.235C52.7082 101.325 51.2652 101.998 50.2099 103.117C49.1546 104.236 48.5668 105.716 48.5668 107.254C48.5668 108.792 49.1546 110.272 50.2099 111.391C51.2652 112.51 52.7082 113.183 54.2437 113.273C55.7791 113.183 57.2221 112.51 58.2775 111.391C59.3328 110.272 59.9206 108.792 59.9206 107.254C59.9206 105.716 59.3328 104.236 58.2775 103.117C57.2221 101.998 55.7791 101.325 54.2437 101.235ZM109.931 67.8295C109.123 67.8022 108.317 67.9378 107.562 68.2284C106.807 68.5189 106.118 68.9584 105.537 69.5206C104.955 70.0829 104.493 70.7564 104.177 71.5011C103.861 72.2459 103.698 73.0465 103.698 73.8554C103.698 74.6644 103.861 75.465 104.177 76.2097C104.493 76.9544 104.955 77.628 105.537 78.1902C106.118 78.7525 106.807 79.192 107.562 79.4825C108.317 79.773 109.123 79.9087 109.931 79.8814C111.494 79.8286 112.975 79.1706 114.062 78.0462C115.149 76.9219 115.757 75.4193 115.757 73.8554C115.757 72.2916 115.149 70.7889 114.062 69.6646C112.975 68.5403 111.494 67.8823 109.931 67.8295ZM137.768 51.1232C136.96 51.0969 136.154 51.2334 135.399 51.5249C134.645 51.8163 133.957 52.2565 133.376 52.8194C132.795 53.3824 132.333 54.0564 132.018 54.8015C131.703 55.5465 131.541 56.3474 131.542 57.1563C131.543 57.9652 131.707 58.7657 132.023 59.51C132.34 60.2543 132.803 60.9273 133.386 61.4889C133.968 62.0505 134.657 62.4892 135.412 62.7789C136.168 63.0686 136.973 63.2033 137.782 63.1751C139.345 63.1206 140.825 62.4609 141.911 61.3353C142.997 60.2098 143.603 58.7064 143.601 57.1425C143.599 55.5787 142.99 54.0767 141.901 52.9536C140.813 51.8305 139.331 51.1742 137.768 51.1232ZM137.768 117.941C136.977 117.942 136.194 118.098 135.464 118.401C134.733 118.704 134.069 119.148 133.511 119.708C132.952 120.267 132.508 120.931 132.206 121.662C131.904 122.393 131.749 123.176 131.749 123.967C131.749 124.758 131.906 125.541 132.209 126.272C132.512 127.002 132.956 127.666 133.515 128.225C134.075 128.784 134.739 129.227 135.47 129.529C136.201 129.831 136.984 129.987 137.775 129.986C139.372 129.985 140.904 129.35 142.032 128.22C143.161 127.09 143.795 125.558 143.794 123.96C143.793 122.363 143.158 120.832 142.028 119.703C140.898 118.574 139.365 117.94 137.768 117.941ZM165.605 101.235C164.069 101.325 162.626 101.998 161.571 103.117C160.516 104.236 159.928 105.716 159.928 107.254C159.928 108.792 160.516 110.272 161.571 111.391C162.626 112.51 164.069 113.183 165.605 113.273C167.14 113.183 168.583 112.51 169.639 111.391C170.694 110.272 171.282 108.792 171.282 107.254C171.282 105.716 170.694 104.236 169.639 103.117C168.583 101.998 167.14 101.325 165.605 101.235ZM137.768 151.347C136.977 151.347 136.193 151.504 135.462 151.807C134.731 152.11 134.067 152.554 133.508 153.114C132.949 153.674 132.505 154.339 132.203 155.07C131.901 155.801 131.745 156.585 131.746 157.376C131.746 158.168 131.902 158.951 132.206 159.682C132.509 160.413 132.953 161.077 133.513 161.636C134.073 162.196 134.737 162.639 135.469 162.941C136.2 163.244 136.984 163.399 137.775 163.399C139.373 163.398 140.905 162.762 142.035 161.631C143.164 160.501 143.798 158.968 143.797 157.369C143.797 155.771 143.161 154.239 142.03 153.11C140.899 151.98 139.366 151.346 137.768 151.347ZM165.605 134.641C164.057 134.715 162.598 135.381 161.529 136.503C160.46 137.624 159.863 139.114 159.863 140.663C159.863 142.212 160.46 143.702 161.529 144.824C162.598 145.945 164.057 146.612 165.605 146.686C167.152 146.612 168.612 145.945 169.681 144.824C170.75 143.702 171.346 142.212 171.346 140.663C171.346 139.114 170.75 137.624 169.681 136.503C168.612 135.381 167.152 134.715 165.605 134.641ZM109.931 168.053C108.396 168.143 106.953 168.816 105.897 169.935C104.842 171.054 104.254 172.534 104.254 174.072C104.254 175.61 104.842 177.09 105.897 178.209C106.953 179.328 108.396 180.001 109.931 180.091C111.527 180.09 113.056 179.455 114.185 178.328C115.314 177.2 115.95 175.671 115.954 174.076C115.952 172.479 115.317 170.948 114.188 169.819C113.059 168.69 111.528 168.055 109.931 168.053ZM109.931 134.641C109.139 134.641 108.355 134.798 107.624 135.101C106.893 135.404 106.228 135.849 105.669 136.409C105.109 136.969 104.665 137.634 104.363 138.366C104.06 139.098 103.905 139.882 103.905 140.674C103.906 141.465 104.062 142.249 104.366 142.981C104.669 143.712 105.113 144.376 105.674 144.936C106.234 145.496 106.899 145.939 107.63 146.242C108.362 146.544 109.146 146.7 109.938 146.699C111.537 146.699 113.07 146.062 114.2 144.931C115.331 143.8 115.965 142.266 115.964 140.667C115.963 139.068 115.327 137.534 114.196 136.404C113.064 135.274 111.53 134.64 109.931 134.641ZM82.0874 84.5289C80.552 84.6188 79.109 85.2921 78.0536 86.411C76.9983 87.5299 76.4105 89.0098 76.4105 90.5479C76.4105 92.086 76.9983 93.5659 78.0536 94.6848C79.109 95.8037 80.552 96.4771 82.0874 96.567C83.6126 96.4638 85.0416 95.7852 86.0854 94.6684C87.1292 93.5516 87.7098 92.08 87.7098 90.5514C87.7098 89.0227 87.1292 87.5511 86.0854 86.4343C85.0416 85.3176 83.6126 84.6389 82.0874 84.5357V84.5289ZM82.0874 151.347C80.552 151.437 79.109 152.11 78.0536 153.229C76.9983 154.348 76.4105 155.828 76.4105 157.366C76.4105 158.904 76.9983 160.384 78.0536 161.503C79.109 162.622 80.552 163.295 82.0874 163.385C83.6229 163.295 85.0659 162.622 86.1212 161.503C87.1765 160.384 87.7643 158.904 87.7643 157.366C87.7643 155.828 87.1765 154.348 86.1212 153.229C85.0659 152.11 83.6229 151.437 82.0874 151.347Z" fill="white"/>
</g>
<defs>
<clipPath id="clip0_108_60">
<rect width="220" height="220" fill="white"/>
</clipPath>
</defs>
</svg>
