<svg width="220" height="220" viewBox="0 0 220 220" fill="none" xmlns="http://www.w3.org/2000/svg">
<g clip-path="url(#clip0_108_63)">
<path d="M109.993 219.986C170.741 219.986 219.986 170.741 219.986 109.993C219.986 49.2456 170.741 0 109.993 0C49.2456 0 0 49.2456 0 109.993C0 170.741 49.2456 219.986 109.993 219.986Z" fill="#F04086"/>
<path d="M161.129 115.183C156.798 110.398 150.569 107.428 142.429 106.273V106.102C149.559 104.947 155.162 102.025 158.971 97.3496C162.836 92.7133 164.935 86.8583 164.897 80.8221C164.897 70.7778 161.666 63.9509 154.969 58.5815C148.273 53.219 138.222 51.4521 124.602 51.4521H73.1705V99.3228H43.6355V117.658H124.259C130.604 117.658 135.369 118.105 138.517 120.642C141.666 123.179 143.275 126.458 143.275 131.305C143.275 136.152 141.687 140.291 138.517 142.89C135.355 145.482 130.584 147.193 124.259 147.193H96.5937V132.935H73.1705V165.529H126.294C139.803 165.529 150.129 162.002 157.293 156.523C164.45 151.043 167.812 142.952 167.812 133.017C167.901 126.445 165.516 120.079 161.129 115.183ZM121.302 99.2746H96.5937V69.7396H121.302C134.007 69.7396 140.346 74.6965 140.346 84.5071C140.346 94.3178 134.007 99.2746 121.302 99.2746Z" fill="white"/>
</g>
<defs>
<clipPath id="clip0_108_63">
<rect width="220" height="220" fill="white"/>
</clipPath>
</defs>
</svg>
