<svg width="220" height="220" viewBox="0 0 220 220" fill="none" xmlns="http://www.w3.org/2000/svg">
<g clip-path="url(#clip0_108_69)">
<path d="M110 220C170.751 220 220 170.751 220 110C220 49.2487 170.751 0 110 0C49.2487 0 0 49.2487 0 110C0 170.751 49.2487 220 110 220Z" fill="#2C76B7"/>
<path d="M97.0887 143.179L86.735 137.349C84.1225 140.889 79.8738 143.192 75.0613 143.192C70.2488 143.192 65.9862 140.882 63.3806 137.328L60.0187 139.233C60.3186 139.951 60.4729 140.722 60.4725 141.501C60.4626 142.302 60.2951 143.093 59.9795 143.829C59.6639 144.565 59.2064 145.232 58.6331 145.791C58.0598 146.351 57.3819 146.791 56.6382 147.089C55.8945 147.386 55.0996 147.534 54.2987 147.524C50.8887 147.524 48.125 144.829 48.125 141.501C48.125 138.174 50.8887 135.472 54.2987 135.472C56.2856 135.472 58.0456 136.386 59.18 137.809L62.48 135.939C61.3108 133.877 60.6973 131.545 60.6994 129.174C60.6994 121.612 66.8319 115.452 74.5044 115.163V104.479C67.0312 104.191 61.0706 98.1888 61.0706 90.8256C61.0706 88.4881 61.6756 86.2744 62.7413 84.3494L59.235 82.3969C58.6515 83.1493 57.9029 83.7576 57.0471 84.1748C56.1912 84.592 55.2509 84.807 54.2987 84.8031C50.8887 84.8031 48.125 82.1012 48.125 78.7738C48.125 75.4463 50.8887 72.7512 54.2987 72.7512C57.7087 72.7512 60.4725 75.4463 60.4725 78.7738C60.4725 79.5438 60.3212 80.2863 60.0531 80.96L63.6281 82.9538C66.1581 79.4475 70.3381 77.165 75.0613 77.165C79.8875 77.165 84.1362 79.5438 86.6525 83.1669L97.1919 77.33C96.2294 75.46 95.6794 73.3425 95.6794 71.1081C95.6794 63.7381 101.578 57.7156 109.017 57.2894V53.2469C107.556 53.0654 106.21 52.3597 105.23 51.2608C104.25 50.162 103.703 48.7448 103.689 47.2725C103.689 43.945 106.452 41.25 109.862 41.25C113.272 41.25 116.036 43.945 116.036 47.2725C116.036 50.325 113.712 52.8412 110.701 53.2469V57.2894C118.14 57.7156 124.039 63.7381 124.039 71.1081C124.039 73.3494 123.489 75.4738 122.519 77.3506L133.038 83.27C134.33 81.3402 136.08 79.7602 138.132 78.671C140.183 77.5817 142.472 77.0171 144.794 77.0275C149.669 77.0275 153.952 79.4544 156.461 83.1394L159.933 80.9325C159.664 80.2448 159.526 79.5124 159.528 78.7738C159.528 75.4463 162.291 72.7512 165.701 72.7512C169.111 72.7512 171.875 75.4463 171.875 78.7738C171.875 82.1012 169.111 84.8031 165.701 84.8031C164.745 84.8066 163.801 84.5895 162.942 84.1686C162.084 83.7476 161.334 83.1343 160.751 82.3763L157.314 84.5625C158.256 86.405 158.792 88.4813 158.792 90.6881C158.792 98.1888 152.604 104.28 144.939 104.349V115.472C152.708 115.541 158.978 121.715 158.978 129.312C158.978 131.615 158.4 133.787 157.376 135.706L160.909 137.699C161.496 136.999 162.229 136.437 163.057 136.052C163.885 135.667 164.788 135.469 165.701 135.472C169.111 135.472 171.875 138.174 171.875 141.501C171.875 144.829 169.111 147.524 165.701 147.524C164.9 147.534 164.105 147.386 163.362 147.089C162.618 146.791 161.94 146.351 161.367 145.791C160.794 145.232 160.336 144.565 160.021 143.829C159.705 143.093 159.537 142.302 159.528 141.501C159.525 140.674 159.699 139.857 160.036 139.102L156.509 137.108C153.959 140.752 149.662 143.151 144.794 143.151C139.975 143.151 135.719 140.8 133.155 137.211L122.609 143.144C123.757 145.172 124.41 147.51 124.41 149.992C124.41 157.465 118.497 163.591 110.983 164.154V166.794C112.388 167.033 113.664 167.758 114.587 168.843C115.511 169.928 116.024 171.303 116.036 172.728C116.026 173.528 115.859 174.319 115.543 175.055C115.228 175.792 114.77 176.458 114.197 177.018C113.624 177.577 112.946 178.018 112.202 178.315C111.458 178.612 110.663 178.76 109.862 178.75C109.062 178.76 108.267 178.612 107.523 178.315C106.779 178.018 106.101 177.577 105.528 177.018C104.955 176.458 104.497 175.792 104.182 175.055C103.866 174.319 103.699 173.528 103.689 172.728C103.689 169.579 106.15 167.001 109.299 166.726V164.182C101.53 163.893 95.315 157.651 95.315 149.992C95.315 147.517 95.9544 145.2 97.0887 143.179ZM97.9825 141.783C99.3485 139.917 101.137 138.4 103.202 137.358C105.267 136.316 107.55 135.778 109.862 135.788C114.744 135.788 119.075 138.146 121.715 141.756L132.275 135.809C131.186 133.817 130.616 131.582 130.618 129.312C130.618 122.176 136.146 116.304 143.254 115.548V104.273C136.249 103.517 130.804 97.7281 130.804 90.6881C130.804 88.5431 131.306 86.5081 132.213 84.7069L121.667 78.7669C119.123 82.4931 114.792 84.9475 109.862 84.9475C104.926 84.9475 100.581 82.4863 98.0375 78.76L87.5187 84.5831C88.5019 86.4531 89.0588 88.5706 89.0588 90.8256C89.0588 98.0031 83.3937 103.888 76.1887 104.438V115.198C83.5931 115.748 89.43 121.798 89.43 129.174C89.43 131.636 88.7769 133.946 87.6356 135.96L97.9825 141.783ZM75.0613 136.517C79.2206 136.517 82.5894 133.231 82.5894 129.174C82.5894 125.118 79.2206 121.832 75.0613 121.832C70.9088 121.832 67.54 125.118 67.54 129.174C67.54 133.231 70.9088 136.517 75.0613 136.517ZM75.0613 97.9825C79.1175 97.9825 82.3969 94.7787 82.3969 90.8325C82.3969 86.8862 79.1106 83.6688 75.0613 83.6688C71.0119 83.6688 67.7325 86.8725 67.7325 90.8256C67.7325 94.7788 71.0119 97.9825 75.0613 97.9825ZM109.862 78.3544C113.96 78.3544 117.287 75.1094 117.287 71.1081C117.287 67.1 113.96 63.855 109.862 63.855C105.758 63.855 102.437 67.1 102.437 71.1081C102.437 75.1094 105.758 78.3544 109.862 78.3544ZM144.794 97.845C148.851 97.845 152.13 94.6413 152.13 90.695C152.13 86.735 148.844 83.5312 144.794 83.5312C140.745 83.5312 137.466 86.735 137.466 90.6881C137.466 94.6413 140.745 97.845 144.794 97.845ZM144.794 136.558C148.899 136.558 152.219 133.313 152.219 129.312C152.219 125.304 148.899 122.059 144.794 122.059C140.697 122.059 137.369 125.304 137.369 129.312C137.369 133.313 140.697 136.558 144.794 136.558ZM109.862 157.438C114.07 157.438 117.48 154.103 117.48 149.999C117.48 145.894 114.07 142.56 109.862 142.56C105.648 142.56 102.238 145.888 102.238 149.999C102.238 154.11 105.648 157.438 109.862 157.438ZM109.862 130.075C98.505 130.075 89.2994 121.089 89.2994 110.007C89.2994 98.9244 98.505 89.9319 109.856 89.9319C121.22 89.9319 130.426 98.9244 130.426 110.007C130.426 121.089 121.213 130.082 109.862 130.082V130.075ZM109.862 117.872C114.311 117.872 117.92 114.352 117.92 110.007C117.92 105.662 114.311 102.142 109.862 102.142C105.407 102.142 101.798 105.662 101.798 110.007C101.798 114.352 105.407 117.872 109.862 117.872Z" fill="white"/>
</g>
<defs>
<clipPath id="clip0_108_69">
<rect width="220" height="220" fill="white"/>
</clipPath>
</defs>
</svg>
