<svg width="220" height="220" viewBox="0 0 220 220" fill="none" xmlns="http://www.w3.org/2000/svg">
<g clip-path="url(#clip0_108_62)">
<path d="M110 220C170.751 220 220 170.751 220 110C220 49.2487 170.751 0 110 0C49.2487 0 0 49.2487 0 110C0 170.751 49.2487 220 110 220Z" fill="#404040"/>
<path d="M110 185.625C68.2344 185.625 34.375 151.766 34.375 110C34.375 68.2344 68.2344 34.375 110 34.375C151.766 34.375 185.625 68.2344 185.625 110C185.625 151.766 151.766 185.625 110 185.625ZM110 178.049C147.579 178.049 178.049 147.579 178.049 110C178.049 72.4212 147.579 41.9513 110 41.9513C72.4212 41.9513 41.9513 72.4212 41.9513 110C41.9513 147.579 72.4212 178.049 110 178.049ZM151.546 83.325C152.68 103.524 134.014 108.859 134.014 108.859C155.347 111.904 154.206 130.199 154.206 130.199C154.206 159.912 121.055 161.074 121.055 161.074H74.5594V58.9325H116.483C151.546 60.4587 151.546 83.325 151.546 83.325ZM98.5669 77.2269V101.991H115.342C115.342 101.991 127.153 101.613 127.909 92.0838V85.9856C127.909 85.9856 127.909 77.99 116.476 77.2269H98.5669ZM130.192 133.258V127.153C130.192 127.153 130.192 119.144 118.766 118.381H98.56V143.165H117.624C117.624 143.165 129.436 142.787 130.199 133.251L130.192 133.258Z" fill="white"/>
</g>
<defs>
<clipPath id="clip0_108_62">
<rect width="220" height="220" fill="white"/>
</clipPath>
</defs>
</svg>
