<svg width="220" height="220" viewBox="0 0 220 220" fill="none" xmlns="http://www.w3.org/2000/svg">
<g clip-path="url(#clip0_108_64)">
<path d="M110 220C170.751 220 220 170.751 220 110C220 49.2487 170.751 0 110 0C49.2487 0 0 49.2487 0 110C0 170.751 49.2487 220 110 220Z" fill="#E54C40"/>
<path d="M64.1301 59.2426C63.9926 58.232 64.9413 57.627 65.4845 56.9395C72.3187 50.1774 79.1205 43.3825 85.8895 36.5551C85.7932 55.2276 85.9445 73.9001 85.8138 92.5726C99.9007 84.8038 117.645 84.4601 132.124 91.4176C132.11 92.6207 132.11 93.817 132.11 95.027C120.553 88.812 106.343 88.0145 94.0157 92.3457C79.8326 97.227 68.5301 109.238 64.1095 123.531C64.1301 102.094 64.1026 80.672 64.1301 59.2426ZM156.186 139.419C155.756 150.784 151.106 161.581 143.144 169.703C135.658 177.398 125.718 182.234 115.044 183.377C104.369 184.519 93.6314 181.895 84.6863 175.959C74.5113 169.263 67.1551 158.401 64.9001 146.424C62.9407 136.937 64.2676 126.865 68.3445 118.099C72.9771 108.241 80.9306 100.326 90.812 95.742C103.764 89.637 119.549 90.1526 132.089 97.062C132.014 107.333 132.021 117.604 132.096 127.876C130.048 123.634 127.009 119.839 122.987 117.323C115.033 112.187 103.978 112.428 96.2982 117.996C87.842 123.813 84.0263 135.349 87.3882 145.049C90.3926 154.613 99.9007 161.632 109.952 161.522C119.618 161.763 128.948 155.444 132.406 146.431C134.606 141.323 134.056 135.679 134.104 130.275C134.145 102.397 134.035 74.5188 134.049 46.6476C134.056 43.1413 134.118 39.6351 133.911 36.1426C141.405 43.5263 148.83 50.9995 156.255 58.4588C156.104 85.4432 156.255 112.428 156.186 139.426V139.419Z" fill="white"/>
</g>
<defs>
<clipPath id="clip0_108_64">
<rect width="220" height="220" fill="white"/>
</clipPath>
</defs>
</svg>
