<svg width="220" height="220" viewBox="0 0 220 220" fill="none" xmlns="http://www.w3.org/2000/svg">
<g clip-path="url(#clip0_108_65)">
<path d="M110 220C170.751 220 220 170.751 220 110C220 49.2487 170.751 0 110 0C49.2487 0 0 49.2487 0 110C0 170.751 49.2487 220 110 220Z" fill="#0B76FF"/>
<path d="M186.725 87.0371V71.9121L137.5 100.581L107.113 48.1934V82.5684L122.581 109.381L116.325 113.093L107.113 96.8684L97.2125 114.468L90.3375 111.65L107.113 82.5684V48.1934L73.8375 104.843L27.5 85.6621V103.193L68.75 113.368L42.625 158.193H107.113V139.7H74.1813L86.4875 118.112L93.9125 119.968L86.4875 133.031H127.738L121.55 122.1L129.731 121.481L140.25 139.7H107.113V158.193H171.875L149.6 120.175L187 117.425V102.231L144.925 112.612L186.931 101.818V88.0684L141.35 106.562L186.725 87.0371ZM126.912 116.943L119.487 118.8L126.775 116.943H126.912ZM124.575 112.818L117.7 115.568L124.575 112.75V112.818Z" fill="white"/>
</g>
<defs>
<clipPath id="clip0_108_65">
<rect width="220" height="220" fill="white"/>
</clipPath>
</defs>
</svg>
