<svg width="220" height="220" viewBox="0 0 220 220" fill="none" xmlns="http://www.w3.org/2000/svg">
<g clip-path="url(#clip0_108_68)">
<path d="M110 220C170.751 220 220 170.751 220 110C220 49.2487 170.751 0 110 0C49.2487 0 0 49.2487 0 110C0 170.751 49.2487 220 110 220Z" fill="#13A0F6"/>
<path fill-rule="evenodd" clip-rule="evenodd" d="M57.0422 79.5302C54.3512 78.1187 52.0977 75.9977 50.5259 73.3971C48.9541 70.7964 48.1239 67.8152 48.1253 64.7764C46.9503 62.5484 46.2973 60.0823 46.216 57.5647C46.1346 55.0471 46.6268 52.5439 47.6555 50.2447C48.6842 47.9454 50.2224 45.9102 52.1536 44.293C54.0849 42.6759 56.3587 41.5191 58.8029 40.9104C61.2472 40.3016 63.7979 40.2567 66.262 40.7791C68.7262 41.3015 71.0392 42.3775 73.0262 43.9257C75.0132 45.4739 76.622 47.4537 77.731 49.7154C78.8399 51.977 79.42 54.4613 79.4272 56.9802C88.8147 51.4905 99.4968 48.6046 110.372 48.6202C144.334 48.6202 171.875 76.2164 171.875 110.248C171.875 144.279 144.341 171.875 110.372 171.875C76.4022 171.875 48.8678 144.286 48.8678 110.248C48.852 99.4689 51.6711 88.8754 57.0422 79.5302ZM110.372 140.566C127.078 140.566 140.622 126.995 140.622 110.248C140.622 93.5002 127.078 79.9289 110.372 79.9289C93.6653 79.9289 80.1216 93.5071 80.1216 110.248C80.1216 126.988 93.6653 140.566 110.372 140.566Z" fill="white"/>
</g>
<defs>
<clipPath id="clip0_108_68">
<rect width="220" height="220" fill="white"/>
</clipPath>
</defs>
</svg>
