<svg width="220" height="220" viewBox="0 0 220 220" fill="none" xmlns="http://www.w3.org/2000/svg">
<g clip-path="url(#clip0_108_66)">
<path d="M110 220C170.751 220 220 170.751 220 110C220 49.2487 170.751 0 110 0C49.2487 0 0 49.2487 0 110C0 170.751 49.2487 220 110 220Z" fill="black"/>
<path d="M116.469 168.967C116.827 169.806 117.019 170.72 117.019 171.683C117.019 175.588 113.802 178.75 109.835 178.75C105.868 178.75 102.651 175.588 102.651 171.683C102.651 170.748 102.836 169.854 103.173 169.036L60.4794 144.788C59.805 145.474 59.0002 146.018 58.1123 146.389C57.2245 146.76 56.2715 146.949 55.3094 146.946C51.3425 146.946 48.125 143.784 48.125 139.879C48.125 136.579 50.4144 133.815 53.515 133.031V84.7207C51.9829 84.3415 50.6211 83.4622 49.6448 82.222C48.6686 80.9818 48.1338 79.4515 48.125 77.8732C48.125 73.9682 51.3425 70.8057 55.3094 70.8057C57.6881 70.8057 59.7987 71.947 61.1119 73.707L102.857 49.9882C102.718 49.4422 102.649 48.8809 102.651 48.3176C102.651 44.4126 105.875 41.2501 109.835 41.2501C110.908 41.2445 111.967 41.481 112.936 41.942C113.904 42.4029 114.756 43.0764 115.428 43.9123C116.1 44.7482 116.575 45.725 116.817 46.7698C117.059 47.8147 117.063 48.9007 116.827 49.947L158.819 73.8032C160.126 71.9882 162.264 70.8057 164.691 70.8057C168.658 70.8057 171.875 73.9682 171.875 77.8732C171.875 81.1732 169.572 83.9507 166.464 84.7276L166.341 132.99C169.51 133.726 171.875 136.531 171.875 139.879C171.875 143.784 168.658 146.946 164.691 146.946C163.688 146.949 162.695 146.742 161.777 146.34C160.858 145.937 160.034 145.348 159.356 144.609L116.469 168.967ZM114.551 166.354L157.774 141.797C157.37 140.392 157.418 138.896 157.912 137.521L116.215 110.708C115.416 111.553 114.452 112.226 113.383 112.685C112.315 113.143 111.163 113.379 110 113.376C108.704 113.379 107.424 113.087 106.257 112.521C105.091 111.955 104.069 111.13 103.269 110.11L62.1775 137.796C62.6082 139.176 62.5986 140.656 62.15 142.031L105.064 166.403C106.384 165.247 108.08 164.611 109.835 164.615C111.643 164.615 113.293 165.268 114.551 166.348V166.354ZM115.369 52.8276C114.392 53.9815 113.076 54.7991 111.609 55.1651L111.499 96.8001C113.445 97.1299 115.213 98.1349 116.491 99.6387C117.77 101.142 118.478 103.049 118.491 105.023C118.491 106.061 118.298 107.064 117.941 107.979L159.672 134.819C160.6 133.925 161.769 133.286 163.075 132.99L163.199 84.7895C161.422 84.4273 159.852 83.3996 158.809 81.9168C157.766 80.4341 157.329 78.6087 157.589 76.8145L115.369 52.8276ZM104.335 52.862L62.3906 76.6838C62.6884 78.4994 62.2701 80.3596 61.2237 81.8728C60.1772 83.3861 58.5844 84.4341 56.7806 84.7963V132.956C58.2381 133.258 59.5306 133.987 60.5206 135.018L101.805 107.209C101.514 106.106 101.452 104.955 101.621 103.827C101.791 102.699 102.188 101.617 102.79 100.648C103.392 99.6789 104.185 98.8427 105.121 98.1905C106.056 97.5383 107.116 97.0839 108.233 96.8551L108.343 55.2338C106.781 54.9092 105.371 54.0749 104.335 52.862Z" fill="white"/>
</g>
<defs>
<clipPath id="clip0_108_66">
<rect width="220" height="220" fill="white"/>
</clipPath>
</defs>
</svg>
