<svg width="220" height="220" viewBox="0 0 220 220" fill="none" xmlns="http://www.w3.org/2000/svg">
<g clip-path="url(#clip0_108_67)">
<path d="M110 220C170.751 220 220 170.751 220 110C220 49.2487 170.751 0 110 0C49.2487 0 0 49.2487 0 110C0 170.751 49.2487 220 110 220Z" fill="#2AABE4"/>
<path fill-rule="evenodd" clip-rule="evenodd" d="M54.3125 48.125H96.9375C98.5785 48.125 100.152 48.7769 101.313 49.9373C102.473 51.0977 103.125 52.6715 103.125 54.3125V96.9375C103.125 98.5785 102.473 100.152 101.313 101.313C100.152 102.473 98.5785 103.125 96.9375 103.125H54.3125C52.6715 103.125 51.0977 102.473 49.9373 101.313C48.7769 100.152 48.125 98.5785 48.125 96.9375V54.3125C48.125 52.6715 48.7769 51.0977 49.9373 49.9373C51.0977 48.7769 52.6715 48.125 54.3125 48.125ZM123.062 48.125H165.688C167.329 48.125 168.902 48.7769 170.063 49.9373C171.223 51.0977 171.875 52.6715 171.875 54.3125V96.9375C171.875 98.5785 171.223 100.152 170.063 101.313C168.902 102.473 167.329 103.125 165.688 103.125H123.062C121.421 103.125 119.848 102.473 118.687 101.313C117.527 100.152 116.875 98.5785 116.875 96.9375V54.3125C116.875 52.6715 117.527 51.0977 118.687 49.9373C119.848 48.7769 121.421 48.125 123.062 48.125ZM123.062 116.875H165.688C167.329 116.875 168.902 117.527 170.063 118.687C171.223 119.848 171.875 121.421 171.875 123.062V165.688C171.875 167.329 171.223 168.902 170.063 170.063C168.902 171.223 167.329 171.875 165.688 171.875H123.062C121.421 171.875 119.848 171.223 118.687 170.063C117.527 168.902 116.875 167.329 116.875 165.688V123.062C116.875 121.421 117.527 119.848 118.687 118.687C119.848 117.527 121.421 116.875 123.062 116.875ZM54.3125 116.875H96.9375C98.5785 116.875 100.152 117.527 101.313 118.687C102.473 119.848 103.125 121.421 103.125 123.062V165.688C103.125 167.329 102.473 168.902 101.313 170.063C100.152 171.223 98.5785 171.875 96.9375 171.875H54.3125C52.6715 171.875 51.0977 171.223 49.9373 170.063C48.7769 168.902 48.125 167.329 48.125 165.688V123.062C48.125 121.421 48.7769 119.848 49.9373 118.687C51.0977 117.527 52.6715 116.875 54.3125 116.875Z" fill="white"/>
</g>
<defs>
<clipPath id="clip0_108_67">
<rect width="220" height="220" fill="white"/>
</clipPath>
</defs>
</svg>
