<svg width="220" height="220" viewBox="0 0 220 220" fill="none" xmlns="http://www.w3.org/2000/svg">
<g clip-path="url(#clip0_108_73)">
<path d="M110 220C170.751 220 220 170.751 220 110C220 49.2487 170.751 0 110 0C49.2487 0 0 49.2487 0 110C0 170.751 49.2487 220 110 220Z" fill="#181818"/>
<path d="M158.813 76.5188C159.075 82.0136 157.598 87.4512 154.591 92.0578C151.584 96.6643 147.201 100.205 142.065 102.176C142.065 102.176 149.023 95.3012 148.699 77.6806C148.369 60.06 135.431 51.3494 135.431 51.3494C135.431 51.3494 158.489 56.485 158.806 76.5119L158.813 76.5188ZM82.06 170.631L58.4375 171.793V169.586C58.4375 169.586 72.8956 168.094 72.8956 142.154V75.8794C72.8956 53.9206 58.4375 50.1187 58.4375 50.1187V48.125L82.06 49.28V170.631ZM119.818 171.868C109.539 171.958 90.475 170.521 90.475 170.521V49.4519C103.043 49.28 107.436 47.5475 117.789 49.0394C128.15 50.5244 137.046 60.8713 139.473 71.2181C141.9 81.565 139.315 91.4169 135.994 96.7931C132.674 102.169 125.4 105.903 125.4 105.903C125.4 105.903 136.4 109.711 140.284 113.018C144.169 116.332 151.697 125.352 148.782 144.973C145.867 164.594 130.089 171.786 119.818 171.868ZM147.118 167.399C147.118 167.399 158.324 157.637 157.829 137.83C157.334 118.023 147.118 108.714 147.118 108.714C147.118 108.714 168.197 114.008 168.431 137.603C168.678 161.191 147.118 167.406 147.118 167.406V167.399ZM125.806 96.3531C133.354 86.3088 130.983 67.4094 121.839 60.9469C112.695 54.4844 103.07 57.7156 101.214 59.5375C99.3438 61.3594 99.4263 103.744 99.4263 103.744C99.4263 103.744 118.25 106.398 125.799 96.3531H125.806ZM127.201 114.4C120.134 111.251 99.4263 112.076 99.4263 112.076C99.4263 112.076 99.1031 122.781 99.8594 142.814C100.616 162.848 107.305 162.738 114.263 163.013C121.22 163.288 134.489 162.793 138.854 145.516C143.227 128.246 134.269 117.542 127.201 114.4Z" fill="white"/>
</g>
<defs>
<clipPath id="clip0_108_73">
<rect width="220" height="220" fill="white"/>
</clipPath>
</defs>
</svg>
