<svg width="220" height="220" viewBox="0 0 220 220" fill="none" xmlns="http://www.w3.org/2000/svg">
<g clip-path="url(#clip0_108_71)">
<path d="M110 220C170.751 220 220 170.751 220 110C220 49.2487 170.751 0 110 0C49.2487 0 0 49.2487 0 110C0 170.751 49.2487 220 110 220Z" fill="#101341"/>
<path fill-rule="evenodd" clip-rule="evenodd" d="M75.7765 48.125H146.094L182.188 110L146.094 171.875H75.1509L110.626 110L75.7696 48.125H75.7765ZM113.108 69.8913L136.146 110L113.115 150.109H133.657L156.675 110L133.643 69.8913H113.115H113.108Z" fill="white"/>
<path opacity="0.5" fill-rule="evenodd" clip-rule="evenodd" d="M83.2769 75.8042L63.3256 110L83.0981 143.894L70.455 165.956L37.8125 110L70.7369 53.5498L83.2769 75.8042Z" fill="white"/>
</g>
<defs>
<clipPath id="clip0_108_71">
<rect width="220" height="220" fill="white"/>
</clipPath>
</defs>
</svg>
