<svg width="220" height="220" viewBox="0 0 220 220" fill="none" xmlns="http://www.w3.org/2000/svg">
<g clip-path="url(#clip0_108_70)">
<path d="M110 220C170.751 220 220 170.751 220 110C220 49.2487 170.751 0 110 0C49.2487 0 0 49.2487 0 110C0 170.751 49.2487 220 110 220Z" fill="#18578C"/>
<path d="M79.9769 139.81C84.5281 144.451 84.5281 151.972 79.9769 156.613C75.4256 161.253 68.0419 161.267 63.4769 156.633C61.2769 154.406 60.0394 151.374 60.0394 148.211C60.0394 145.049 61.2769 142.024 63.4769 139.789C64.5517 138.69 65.8358 137.816 67.2534 137.221C68.671 136.625 70.1935 136.319 71.7312 136.321C73.2689 136.323 74.7906 136.633 76.2068 137.232C77.6229 137.831 78.9048 138.708 79.9769 139.81ZM156.035 59.9912C158.183 60.9128 160.013 62.447 161.294 64.4021C162.575 66.3573 163.252 68.6467 163.24 70.9844C163.24 75.7969 160.394 80.1281 156.035 81.9706C151.676 83.8131 146.651 82.7956 143.316 79.3925C141.118 77.1465 139.888 74.1274 139.892 70.9844C139.892 67.8219 141.123 64.7969 143.316 62.5763C144.931 60.9179 147.009 59.7848 149.278 59.3249C151.547 58.8651 153.901 59.0996 156.035 59.9981V59.9912ZM78.4437 130.646L89.6981 119.123C90.8 121.945 92.4622 124.515 94.5843 126.677C96.7064 128.84 99.2446 130.55 102.046 131.704L90.7637 143.192L78.4437 130.646ZM145.111 88.4538L133.829 99.9487C132.734 97.1257 131.073 94.5567 128.948 92.4C126.836 90.246 124.307 88.5454 121.516 87.4019L132.791 75.9069L145.111 88.4538ZM140.387 143.055C141.251 140.897 142.739 139.047 144.661 137.74C146.582 136.433 148.85 135.73 151.174 135.719C155.897 135.719 160.153 138.614 161.961 143.055C163.763 147.503 162.766 152.611 159.431 156.014C158.357 157.117 157.073 157.995 155.655 158.594C154.238 159.194 152.714 159.504 151.174 159.507C149.636 159.504 148.114 159.193 146.697 158.593C145.28 157.993 143.998 157.117 142.924 156.014C141.286 154.335 140.174 152.215 139.723 149.913C139.272 147.611 139.503 145.228 140.387 143.055ZM62.1156 65.3813C62.9781 63.2224 64.4656 61.3703 66.3874 60.0621C68.3092 58.754 70.5778 58.0494 72.9025 58.0388C77.6256 58.0388 81.8813 60.9331 83.6894 65.3813C85.4906 69.8225 84.4938 74.9375 81.1594 78.3406C80.0848 79.4425 78.8008 80.3184 77.3828 80.917C75.9649 81.5155 74.4416 81.8247 72.9025 81.8263C71.3646 81.8238 69.8426 81.5142 68.4259 80.9156C67.0092 80.3171 65.7263 79.4416 64.6525 78.3406C63.0144 76.6617 61.9018 74.5413 61.4512 72.2393C61.0005 69.9373 61.2315 67.5539 62.1156 65.3813ZM131.863 142.684L120.553 131.223C123.354 130.069 125.892 128.358 128.014 126.196C130.137 124.034 131.799 121.464 132.901 118.642L144.176 130.137L131.863 142.684ZM91.7056 75.24L102.981 86.7419C100.196 87.8707 97.6754 89.563 95.5763 91.7125C93.4588 93.8713 91.7881 96.4563 90.6675 99.2888L79.3925 87.7938L91.7056 75.24ZM111.932 65.0581C105.476 65.0581 100.244 59.73 100.244 53.1506C100.244 46.5712 105.476 41.25 111.932 41.25C115.026 41.25 118.002 42.5012 120.196 44.7356C122.389 46.97 123.619 49.995 123.612 53.1506C123.612 59.73 118.388 65.0581 111.925 65.0581H111.932ZM123.619 166.849C123.619 173.422 118.381 178.75 111.932 178.75C105.483 178.75 100.244 173.422 100.244 166.849C100.244 160.277 105.476 154.942 111.932 154.942C115.026 154.942 118.002 156.193 120.196 158.428C122.389 160.662 123.619 163.687 123.612 166.849H123.619ZM116.174 71.2869V86.0269C113.741 85.597 111.251 85.597 108.817 86.0269V71.2869H116.174ZM116.174 134.619V149.366H108.817V134.613C111.251 135.046 113.74 135.046 116.174 134.613V134.619ZM152.831 111.299C151.946 109.125 151.714 106.739 152.165 104.434C152.616 102.13 153.729 100.007 155.368 98.3263C156.985 96.6656 159.064 95.5306 161.336 95.0695C163.607 94.6084 165.964 94.8425 168.101 95.7412C172.466 97.5837 175.312 101.929 175.312 106.741C175.312 109.904 174.082 112.929 171.896 115.163C170.545 116.549 168.868 117.574 167.019 118.145C165.17 118.715 163.207 118.813 161.31 118.428C159.413 118.044 157.643 117.19 156.162 115.945C154.681 114.699 153.536 113.102 152.831 111.299ZM44.6875 108.762C44.6875 102.19 49.9125 96.8619 56.375 96.8619C62.8237 96.8619 68.0556 102.183 68.0625 108.756C68.0625 111.918 66.825 114.943 64.6388 117.178C63.5626 118.279 62.2774 119.155 60.8583 119.754C59.4393 120.352 57.9151 120.661 56.375 120.663C49.9194 120.663 44.6875 115.335 44.6875 108.769V108.762ZM148.383 112.509L133.918 112.496C134.34 110.016 134.34 107.482 133.918 105.002H148.383V112.509ZM88.9625 112.509H74.4906V105.016H88.9625C88.5406 107.496 88.5406 110.029 88.9625 112.509ZM111.581 126.514C102.431 126.514 95.0125 118.958 95.0125 109.643C95.0125 100.327 102.431 92.7644 111.581 92.7644C120.725 92.7644 128.143 100.327 128.15 109.643C128.15 118.958 120.725 126.514 111.581 126.514Z" fill="white"/>
</g>
<defs>
<clipPath id="clip0_108_70">
<rect width="220" height="220" fill="white"/>
</clipPath>
</defs>
</svg>
