<svg width="220" height="220" viewBox="0 0 220 220" fill="none" xmlns="http://www.w3.org/2000/svg">
<g clip-path="url(#clip0_108_72)">
<path d="M110 220C170.751 220 220 170.751 220 110C220 49.2487 170.751 0 110 0C49.2487 0 0 49.2487 0 110C0 170.751 49.2487 220 110 220Z" fill="#000D2B"/>
<path d="M109.45 40.4238L78.3884 58.622L109.45 76.827L141.095 58.622L109.45 40.4238ZM114.558 137.595V173.998L156.75 149.929V113.519L114.558 137.595ZM146.203 70.0688V106.479L114.551 124.684V88.2738L146.203 70.0688ZM70.0146 106.479L101.667 124.684V88.2738L70.0146 70.0688V106.479ZM70.0146 155.8L101.667 173.998V137.595L70.0146 119.397V155.793V155.8Z" fill="white"/>
</g>
<defs>
<clipPath id="clip0_108_72">
<rect width="220" height="220" fill="white"/>
</clipPath>
</defs>
</svg>
