<svg width="220" height="220" viewBox="0 0 220 220" fill="none" xmlns="http://www.w3.org/2000/svg">
<g clip-path="url(#clip0_108_75)">
<path d="M110 220C170.751 220 220 170.751 220 110C220 49.2487 170.751 0 110 0C49.2487 0 0 49.2487 0 110C0 170.751 49.2487 220 110 220Z" fill="#FD7A3D"/>
<path d="M173.216 133.375C178.509 136.262 180.276 142.904 176.743 148.101C173.807 153.299 167.049 155.031 161.755 152.144C160.161 151.225 158.817 149.927 157.842 148.366C156.868 146.805 156.292 145.028 156.166 143.192H129.113L116.174 165.131C116.174 165.419 115.878 165.708 115.589 165.997C118.525 167.729 120.588 171.194 120.588 174.948C120.588 180.723 115.589 185.625 109.704 185.625C103.826 185.625 98.8281 181.005 98.8281 174.948C98.8281 171.194 100.891 168.018 103.826 165.997C103.826 165.708 103.531 165.419 103.235 165.131L90.3032 143.199H63.25C62.9544 146.946 60.8988 150.122 57.6607 152.137C52.3669 155.024 45.6088 153.299 42.6663 148.101C39.7238 142.904 41.4907 136.269 46.7844 133.382C50.3113 131.361 54.1338 131.361 57.3719 133.093C57.6607 132.804 57.6607 132.227 57.9563 131.938L71.1906 110L58.2519 88.0688C57.9405 87.7511 57.7341 87.3456 57.6607 86.9069C54.4294 88.3506 50.3113 88.6394 47.0732 86.6181C45.8274 85.9309 44.731 85.0024 43.848 83.8869C42.9651 82.7713 42.3132 81.491 41.9305 80.1207C41.5477 78.7504 41.4418 77.3176 41.6189 75.9059C41.796 74.4943 42.2526 73.132 42.9619 71.8988C45.8975 66.7013 52.6625 64.9688 57.9563 67.8563C61.4832 69.8775 63.25 73.3425 63.5457 76.8075H90.8875L103.826 54.8694C103.826 54.5806 104.122 54.2919 104.411 54.0031C102.883 53.0613 101.622 51.7444 100.747 50.1776C99.8724 48.6109 99.4129 46.8463 99.4125 45.0519C99.4125 39.2769 104.411 34.375 110.296 34.375C116.174 34.375 121.172 38.995 121.172 45.0519C121.172 48.8056 119.109 51.9819 116.174 54.0031C116.174 54.2919 116.469 54.5806 116.765 54.8694L129.697 76.8006H156.75C157.046 73.0537 159.101 69.8775 162.339 67.8631C167.633 64.9756 174.391 66.7013 177.334 71.8988C178.043 73.1324 178.499 74.4951 178.676 75.907C178.852 77.319 178.746 78.7519 178.362 80.1223C177.979 81.4926 177.326 82.7728 176.443 83.8881C175.559 85.0034 174.462 85.9315 173.216 86.6181C169.689 88.6394 165.866 88.6394 162.628 86.9069C162.339 87.1956 162.339 87.7731 162.044 88.0619L149.105 110L162.044 131.931C162.355 132.249 162.562 132.654 162.635 133.093C165.866 131.649 169.984 131.361 173.223 133.382L173.216 133.375ZM124.114 102.781C124.114 96.7244 119.116 91.8156 112.943 91.8156H98.8281C98.4833 91.8111 98.141 91.8748 97.821 92.0032C97.501 92.1316 97.2095 92.3221 96.9634 92.5637C96.7174 92.8053 96.5216 93.0932 96.3873 93.4108C96.2531 93.7285 96.1831 94.0695 96.1813 94.4144V125.586C96.1813 127.029 97.3569 128.184 98.8281 128.184H112.943C119.116 128.184 124.114 123.276 124.114 117.219C124.114 114.62 123.234 112.021 121.468 110.289C122.939 107.979 124.114 105.669 124.114 102.781Z" fill="white"/>
</g>
<defs>
<clipPath id="clip0_108_75">
<rect width="220" height="220" fill="white"/>
</clipPath>
</defs>
</svg>
