<svg width="220" height="220" viewBox="0 0 220 220" fill="none" xmlns="http://www.w3.org/2000/svg">
<g clip-path="url(#clip0_108_76)">
<path d="M110 220C170.751 220 220 170.751 220 110C220 49.2487 170.751 0 110 0C49.2487 0 0 49.2487 0 110C0 170.751 49.2487 220 110 220Z" fill="#00B4F4"/>
<path d="M53.4394 157.988V159.06H42.3706V138.758L42.0269 139.879L31.4394 136.647L37.4206 117.081L36.6781 118.174L27.5 111.987L38.9675 94.9781L37.8744 95.865L30.91 87.2575L47.41 73.8925L45.3063 74.7038L41.3394 64.3638L61.05 56.8013L58.7469 56.9594L57.9769 45.9181L78.6156 44.4744L76.7594 44.0413L79.2481 33.2475L98.9656 37.8056L97.7212 37.0906L103.256 27.5L120.457 37.4275L119.783 36.7125L127.882 29.1569L141.274 43.5256L140.992 42.9344L150.941 38.0806L159.534 55.6944L159.459 55.1994L170.39 53.4669L173.614 73.8169L173.841 72.3662L184.779 74.0987L181.507 94.7444L182.318 93.0875L192.273 97.9413L183.061 116.827L184.401 115.383L192.5 122.939L178.186 138.284L179.919 137.287L185.453 146.878L167.461 157.259L169.269 156.846L171.758 167.633L151.876 172.226L153.409 172.329L152.632 183.377L132.729 181.981L133.746 182.373L129.779 192.706L110.722 185.398L111.925 186.367L104.961 194.975L89.2306 182.242L90.0075 183.391L80.8294 189.578L69.5887 172.92L69.9256 174.013L59.3313 177.244L53.4394 157.988ZM53.4394 144.829L60.3556 142.718L65.7319 160.298L71.7131 156.262L81.9294 171.414L86.4944 165.777L100.657 177.244L103.194 170.644L120.258 177.196L120.759 170.046L139.019 171.325L137.376 164.209L155.286 160.071L151.573 153.649L167.557 144.423L162.078 139.322L174.708 125.778L167.97 122.499L176.089 105.854L168.726 104.686L171.614 86.4119L164.574 87.5256L161.686 69.2519L155.341 72.3456L147.276 55.825L142.106 60.6444L129.635 47.2725L126.06 53.4531L110.275 44.3369L108.646 51.4044L90.8806 47.3L91.3962 54.6769L73.1637 55.9487L75.8588 62.975L58.6919 69.5612L63.3119 75.2675L48.895 86.9412L54.9794 91.0387L44.5913 106.439L51.59 108.584L46.1588 126.335H53.4394V144.829ZM77.9144 77.1169H100.238C102.836 77.1169 105.414 77.3025 107.979 77.6669C110.543 78.0312 112.798 78.7669 114.744 79.8669C116.689 80.9669 118.174 82.5 119.185 84.4731C120.202 86.4462 120.484 89.0725 120.031 92.3381C119.584 95.7275 118.243 98.5256 116.016 100.753C113.788 102.981 111.066 104.576 107.855 105.531V105.703C109.766 105.985 111.478 106.535 112.97 107.353C114.462 108.171 115.692 109.209 116.648 110.481C117.611 111.753 118.284 113.231 118.676 114.923C119.075 116.614 119.13 118.415 118.848 120.333C118.394 123.496 117.356 126.129 115.72 128.239C114.115 130.33 112.101 132.073 109.801 133.361C107.422 134.683 104.852 135.624 102.183 136.153C99.5143 136.706 96.7963 136.99 94.0706 136.998H69.5406L77.9075 77.1169H77.9144ZM87.725 101.062H97.2812C98.2919 101.062 99.3094 100.946 100.327 100.719C101.322 100.5 102.277 100.129 103.159 99.6188C104.033 99.1124 104.784 98.42 105.359 97.5906C105.951 96.745 106.329 95.7344 106.501 94.545C106.695 93.501 106.56 92.4224 106.116 91.4581C105.711 90.6585 105.08 89.996 104.301 89.5537C103.444 89.0799 102.515 88.7523 101.551 88.5844C100.533 88.3896 99.4997 88.2907 98.4637 88.2887H89.4987L87.725 101.062ZM84.2531 125.84H96.0987C97.1094 125.84 98.1681 125.723 99.2612 125.496C101.411 125.081 103.327 123.874 104.631 122.114C105.338 121.144 105.778 120.006 105.909 118.814C106.074 117.411 105.882 116.27 105.318 115.397C104.744 114.511 103.918 113.817 102.946 113.403C101.881 112.939 100.757 112.626 99.605 112.475C98.471 112.311 97.327 112.226 96.1813 112.221H86.1987L84.2531 125.833V125.84ZM147.916 78.0725L133.911 129.222L122.347 128.411L131.065 75.68L147.909 78.0725H147.916ZM135.706 134.558L132.069 152.625L116.689 148.143L120.209 130.811L135.706 134.551V134.558Z" fill="#FEFFFF"/>
</g>
<defs>
<clipPath id="clip0_108_76">
<rect width="220" height="220" fill="white"/>
</clipPath>
</defs>
</svg>
