<svg width="220" height="220" viewBox="0 0 220 220" fill="none" xmlns="http://www.w3.org/2000/svg">
<g clip-path="url(#clip0_108_77)">
<path d="M110 220C170.751 220 220 170.751 220 110C220 49.2487 170.751 0 110 0C49.2487 0 0 49.2487 0 110C0 170.751 49.2487 220 110 220Z" fill="#00A8D6"/>
<path fill-rule="evenodd" clip-rule="evenodd" d="M99.22 130.281V117.102H119.529C133.072 117.102 139.844 113.719 139.844 106.954V71.4519C139.844 64.6937 133.072 61.3113 119.529 61.3113H87.0375V82.61H68.75V48.125H117.494C144.581 48.125 158.125 55.5638 158.125 70.4413V107.972C158.125 122.849 144.581 130.288 117.494 130.288H99.22V130.281ZM139.844 138.401H158.125V149.559C158.125 164.436 144.581 171.875 117.494 171.875H68.75V92.7575H117.494C120.361 92.7575 123.063 92.84 125.627 93.005V106.212C123.6 106.022 121.565 105.93 119.529 105.937H87.0375V158.689H119.536C133.079 158.689 139.851 155.306 139.851 148.548V138.394L139.844 138.401Z" fill="white"/>
</g>
<defs>
<clipPath id="clip0_108_77">
<rect width="220" height="220" fill="white"/>
</clipPath>
</defs>
</svg>
