<svg width="220" height="220" viewBox="0 0 220 220" fill="none" xmlns="http://www.w3.org/2000/svg">
<g clip-path="url(#clip0_108_79)">
<path d="M110 220C170.751 220 220 170.751 220 110C220 49.2487 170.751 0 110 0C49.2487 0 0 49.2487 0 110C0 170.751 49.2487 220 110 220Z" fill="#0F63D8"/>
<path d="M177.952 142.567C177.29 143.931 176.563 145.261 175.773 146.555C175.244 147.503 174.735 148.452 174.178 149.353C173.924 149.772 173.717 150.205 173.463 150.611H173.381C168.043 159.092 161.058 166.417 152.839 172.15C144.62 177.884 135.334 181.91 125.531 183.991C115.729 186.072 105.608 186.165 95.7685 184.264C85.9291 182.364 76.571 178.509 68.2481 172.927C67.9044 172.693 67.6087 172.439 67.2719 172.212C65.9709 171.371 64.7113 170.467 63.4975 169.503C61.5773 168.041 59.741 166.471 57.9975 164.801C57.1638 164.029 56.3499 163.236 55.5569 162.422C54.7044 161.549 53.9619 160.703 53.0956 159.72C52.2248 158.741 51.3767 157.741 50.5519 156.723C49.9068 155.899 49.281 155.06 48.675 154.207C47.8315 153.049 47.0199 151.868 46.2412 150.666C45.7394 149.882 45.2719 149.085 44.7975 148.273C44.0207 146.979 43.2893 145.658 42.6044 144.313C42.1988 143.516 41.8206 142.705 41.4425 141.893C40.8083 140.526 40.2055 139.143 39.6344 137.748C39.2906 136.882 38.9812 136.002 38.6719 135.122C38.1975 133.747 37.73 132.31 37.3244 130.962C37.0494 129.986 36.8775 129.058 36.575 128.054C36.231 126.711 35.9261 125.358 35.6606 123.998C35.5231 122.967 35.2962 121.88 35.2 120.904C34.9994 119.556 34.8321 118.204 34.6981 116.848C34.6019 115.782 34.485 114.717 34.485 113.644C34.375 112.297 34.375 110.942 34.375 109.588C34.375 108.557 34.4575 107.525 34.4575 106.487C34.5669 104.095 34.7871 101.709 35.1175 99.3372C35.7947 94.5017 36.9367 89.7428 38.5275 85.1266C39.1119 83.4353 39.765 81.7578 40.4869 80.0872C40.645 79.7091 40.8306 79.2484 40.9269 78.9391C41.0382 78.5984 41.2264 78.2879 41.4769 78.0316C42.185 76.5053 42.9687 74.9928 43.7937 73.4941C44.1856 72.6553 44.66 71.8303 45.1481 71.0191C45.4919 70.4278 45.7256 69.8709 46.1794 69.2247C46.6194 68.5716 47.135 67.8978 47.5956 67.2241C48.1852 66.2989 48.8113 65.3976 49.4725 64.5222C50.3388 63.3534 51.2394 62.2191 52.1744 61.1122C53.8119 59.176 55.5442 57.3221 57.365 55.5572C58.0387 54.9247 58.7056 54.2853 59.3931 53.6803C61.247 52.0899 63.1524 50.5605 65.1063 49.0947C66.3988 48.2009 67.7187 47.2934 69.0525 46.3928C69.7633 45.9261 70.4854 45.4768 71.2181 45.0453C72.5725 44.2616 73.92 43.5053 75.2744 42.7972C78.3319 41.2139 81.4977 39.8492 84.7481 38.7134C88.1372 37.5014 91.6118 36.5431 95.1431 35.8466C97.4555 35.3951 99.7859 35.0419 102.128 34.7878C103.654 34.6228 105.194 34.5128 106.748 34.4441C107.587 34.3753 108.439 34.3753 109.292 34.3753C111.736 34.3458 114.18 34.4422 116.614 34.6641C120.574 35.0062 124.499 35.6731 128.349 36.6578C129.333 36.9191 130.323 37.1941 131.306 37.4828C132.749 37.8953 134.104 38.3422 135.458 38.8372C136.469 39.2016 137.486 39.5934 138.483 40.0128C139.239 40.3291 140.009 40.5697 140.766 40.9066V41.0166C149.952 45.0392 158.238 50.8659 165.131 58.1508C172.023 65.4358 177.383 74.0308 180.892 83.4261C184.4 92.8213 185.986 102.825 185.556 112.845C185.125 122.865 182.687 132.696 178.386 141.756C178.248 142.045 178.083 142.285 177.952 142.567ZM81.3175 173.505V173.491C96.7552 180.408 114.18 181.478 130.349 176.504C146.517 171.53 160.327 160.85 169.207 146.452C169.702 145.627 170.17 144.774 170.637 143.935C171.284 142.698 172.012 141.502 172.638 140.154C176.795 131.606 179.15 122.295 179.558 112.799C179.965 103.303 178.416 93.8247 175.007 84.9523C171.598 76.0799 166.401 68.003 159.74 61.2232C153.078 54.4433 145.094 49.1052 136.283 45.5403C135.392 45.1607 134.491 44.8054 133.581 44.4747C131.417 43.7064 129.219 43.0343 126.995 42.4603C123.399 41.5414 119.734 40.9183 116.036 40.5972L113.726 40.4322C112.234 40.3634 110.756 40.3291 109.278 40.3291H106.954C105.518 40.3909 104.094 40.4941 102.671 40.6384C101.812 40.7347 100.959 40.8447 100.114 40.9616C97.8249 41.2713 95.555 41.7074 93.3144 42.2678C91.057 42.811 88.8307 43.4766 86.6456 44.2616C85.6762 44.5916 84.7412 44.9491 83.8406 45.3134C81.834 46.1337 79.8616 47.0351 77.9281 48.0153C75.9655 49.0317 74.0478 50.1327 72.1806 51.3153C70.9216 52.098 69.6989 52.9376 68.5162 53.8316C67.8975 54.2509 67.2788 54.7047 66.6737 55.1791C64.8701 56.6056 63.1356 58.1175 61.4763 59.7097C60.4656 60.7272 59.4756 61.7584 58.4994 62.8034C56.9628 64.4874 55.506 66.2425 54.1338 68.0628C52.7075 69.9813 51.3723 71.9658 50.1325 74.0097C49.6856 74.7522 49.28 75.4947 48.8606 76.2372C48.0356 77.6259 47.3619 79.0353 46.6881 80.4997C45.4094 83.2602 44.3116 86.101 43.4019 89.0041C42.6435 91.2331 42.0303 93.5089 41.5662 95.8172C41.2706 97.2609 41.0231 98.7253 40.8238 100.183C40.7138 101.022 40.59 101.874 40.5144 102.713C40.3769 104.067 40.2256 105.415 40.2256 106.769C40.1431 107.69 40.1431 108.625 40.1431 109.553C40.1431 110.839 40.2531 112.118 40.2531 113.403C40.3719 115.636 40.5968 117.861 40.9269 120.072C41.1056 121 41.2569 121.88 41.4288 122.877C41.6762 124.149 41.9719 125.421 42.2813 126.693C42.5013 127.552 42.7144 128.418 42.9688 129.298C43.3469 130.605 43.78 131.89 44.2406 133.176C44.5225 133.96 44.7906 134.757 45.1069 135.541C45.6225 136.84 46.1863 138.098 46.7156 139.432C47.0663 140.175 47.4031 140.924 47.7812 141.653C48.455 142.883 49.1081 144.1 49.8094 145.297C50.27 146.046 50.7031 146.775 51.1637 147.503C51.865 148.61 52.635 149.69 53.405 150.776C53.9756 151.56 54.3881 152.206 55.1375 153.1C55.88 153.993 56.7188 154.963 57.4475 155.802C58.1763 156.64 58.9875 157.548 59.7162 158.304C60.445 159.06 61.0156 159.597 61.9575 160.49C63.5543 162.033 65.2392 163.481 67.0038 164.828C71.4089 168.285 76.2148 171.199 81.3175 173.505ZM109.862 167.833C98.4156 167.841 87.2233 164.454 77.7012 158.101C68.1791 151.748 60.7548 142.714 56.3674 132.141C51.9799 121.569 50.8263 109.932 53.0525 98.7039C55.2787 87.4755 60.7846 77.1595 68.874 69.0605C76.9634 60.9615 87.2729 55.4433 98.4986 53.2037C109.724 50.9642 121.362 52.104 131.94 56.4789C142.518 60.8538 151.561 68.2673 157.925 77.7818C164.29 87.2964 167.69 98.4846 167.695 109.932C167.684 125.273 161.59 139.983 150.748 150.838C139.907 161.692 125.204 167.804 109.862 167.833ZM109.862 71.0466C102.163 71.037 94.634 73.3118 88.2279 77.583C81.8219 81.8542 76.8269 87.9298 73.8751 95.0409C70.9233 102.152 70.1475 109.979 71.6457 117.531C73.144 125.083 76.8489 132.021 82.2918 137.467C87.7346 142.913 94.6707 146.621 102.222 148.124C109.773 149.626 117.601 148.854 124.713 145.906C131.826 142.958 137.904 137.966 142.179 131.563C146.454 125.159 148.732 117.631 148.727 109.932C148.716 99.623 144.619 89.7391 137.335 82.4453C130.05 75.1515 120.171 71.0427 109.862 71.0191V71.0466Z" fill="white"/>
</g>
<defs>
<clipPath id="clip0_108_79">
<rect width="220" height="220" fill="white"/>
</clipPath>
</defs>
</svg>
