<svg width="220" height="220" viewBox="0 0 220 220" fill="none" xmlns="http://www.w3.org/2000/svg">
<g clip-path="url(#clip0_108_78)">
<path d="M110 220C170.751 220 220 170.751 220 110C220 49.2487 170.751 0 110 0C49.2487 0 0 49.2487 0 110C0 170.751 49.2487 220 110 220Z" fill="#1D1D1D"/>
<path fill-rule="evenodd" clip-rule="evenodd" d="M68.4887 116.559C68.4896 120.045 69.1793 123.496 70.5181 126.715C71.8569 129.934 73.8185 132.856 76.2902 135.314C78.7619 137.773 81.695 139.718 84.921 141.04C88.1469 142.361 91.6021 143.032 95.0881 143.014C109.677 142.924 121.529 131.216 121.536 116.889C121.568 113.393 120.905 109.926 119.584 106.689C118.263 103.453 116.312 100.511 113.844 98.0357C111.375 95.5603 108.439 93.6006 105.206 92.2708C101.973 90.9409 98.5082 90.2673 95.0125 90.2894C80.355 90.31 68.4887 102.059 68.4887 116.559ZM68.5162 145.021V153.773H55V55C58.8431 55.0688 62.0881 56.4437 64.6937 59.1594C67.1894 61.7719 68.4337 64.9 68.42 68.53C68.3856 75.0406 68.4062 81.5513 68.4062 88.3713C77.8456 80.4856 88.3575 76.6012 100.602 78.4712C112.736 80.3275 122.052 86.4325 128.404 96.8756C137.995 112.654 134.888 132.804 120.993 145.344C107.443 157.582 84.9269 159.479 68.5162 145.021ZM112.234 153.594C112.771 153.271 113.052 153.079 113.348 152.927C117.606 150.835 121.449 147.989 124.692 144.526C125.02 144.153 125.421 143.852 125.87 143.64C126.32 143.428 126.808 143.311 127.304 143.296C138.786 142.636 149.132 133.396 151.078 122.093C153.636 107.243 144.616 94.1394 129.697 91.2931C127.648 90.983 125.773 89.9606 124.403 88.4056C121.653 85.3669 118.312 82.995 114.757 80.9531C114.455 80.7812 114.166 80.5956 113.671 80.2931C120.436 78.4369 127.029 77.9969 133.712 79.5163C140.36 81.0219 146.087 84.2806 151.449 88.7288V79.9631H165V178.75C163.199 178.739 161.419 178.367 159.765 177.656C158.11 176.945 156.615 175.91 155.368 174.611C154.134 173.369 153.163 171.891 152.511 170.266C151.859 168.641 151.54 166.902 151.573 165.151V145.42C139.899 155.203 126.988 158.132 112.234 153.594Z" fill="white"/>
</g>
<defs>
<clipPath id="clip0_108_78">
<rect width="220" height="220" fill="white"/>
</clipPath>
</defs>
</svg>
