<svg width="220" height="220" viewBox="0 0 220 220" fill="none" xmlns="http://www.w3.org/2000/svg">
<g clip-path="url(#clip0_108_81)">
<path d="M110 220C170.751 220 220 170.751 220 110C220 49.2487 170.751 0 110 0C49.2487 0 0 49.2487 0 110C0 170.751 49.2487 220 110 220Z" fill="#FE5D86"/>
<path d="M55 62.1431C55 58.1969 58.245 55 62.2462 55H114.414C145.186 55 156.042 58.63 163.522 66.0069C165.835 68.3563 167.63 71.1646 168.79 74.2506C169.951 77.3366 170.451 80.6317 170.259 83.9231C170.259 96.6487 163.405 105.277 144.911 109.065C162.772 112.186 171.841 119.446 171.841 134.049C172.01 137.454 171.475 140.859 170.268 144.048C169.061 147.237 167.21 150.143 164.828 152.584C157.506 159.802 145.544 165 113.348 165H62.2462C60.3384 165.013 58.5034 164.268 57.1447 162.928C55.7859 161.589 55.0145 159.765 55 157.857V62.1431ZM94.6069 103.132C94.6069 100.499 96.7725 98.3675 99.44 98.3675H116.236C125.819 98.3675 132.99 97.9 136.311 94.4625C137.084 93.6504 137.681 92.6868 138.063 91.6324C138.445 90.5781 138.605 89.4559 138.531 88.3369C138.737 86.1369 137.995 83.9506 136.469 82.3212C133.1 79.0075 125.936 78.4231 116.236 78.4231H84.975V141.893H115.913C126.445 141.893 134.248 141.109 137.892 137.479C139.569 135.761 140.436 133.423 140.271 131.037C140.422 128.611 139.562 126.225 137.892 124.438C134.207 120.814 126.411 120.539 115.913 120.539H99.55C98.8942 120.556 98.2419 120.439 97.6323 120.197C97.0227 119.955 96.4683 119.592 96.0025 119.13C95.5401 118.673 95.1769 118.126 94.9356 117.523C94.6943 116.92 94.58 116.273 94.6 115.624L94.6069 103.132Z" fill="white"/>
</g>
<defs>
<clipPath id="clip0_108_81">
<rect width="220" height="220" fill="white"/>
</clipPath>
</defs>
</svg>
