<svg width="220" height="220" viewBox="0 0 220 220" fill="none" xmlns="http://www.w3.org/2000/svg">
<g clip-path="url(#clip0_108_83)">
<path d="M110 220C170.751 220 220 170.751 220 110C220 49.2487 170.751 0 110 0C49.2487 0 0 49.2487 0 110C0 170.751 49.2487 220 110 220Z" fill="#EAB304"/>
<path d="M152.282 100.168L152.763 99.2059C152.763 98.7247 152.763 98.2434 153.725 98.5872C153.8 98.1549 153.8 97.7132 153.725 97.2809C153.957 96.6602 153.957 95.9766 153.725 95.3559C152.75 92.9778 152.581 90.3455 153.244 87.8622C153.32 87.5458 153.32 87.216 153.244 86.8997L153.725 86.4184C153.92 86.5952 154.083 86.8046 154.207 87.0372C154.282 87.3535 154.282 87.6833 154.207 87.9997V88.4809C154.207 88.9622 155.032 87.9997 155.375 87.6559C155.8 87.3282 156.261 87.0513 156.75 86.8309C156.842 85.5736 156.678 84.3108 156.269 83.1184C155.503 80.5306 155.674 77.7557 156.75 75.2809C156.75 75.7622 157.369 76.1059 157.369 76.5872C157.486 78.3747 158.242 80.059 159.5 81.3309C160.896 82.9328 161.948 84.8028 162.594 86.8309C162.594 86.8309 162.594 87.4497 163.075 87.4497C165.055 88.0203 166.857 89.079 168.3 90.5434C169.964 92.0422 171.545 93.6234 173.044 95.2872C173.304 95.5704 173.513 95.8959 173.663 96.2497H174.144C174.224 94.7382 174.224 93.2236 174.144 91.7122C174.144 90.4059 174.763 89.0997 176.069 89.3059H176.688C176.717 88.7256 176.934 88.1705 177.306 87.7241C177.678 87.2777 178.185 86.9643 178.75 86.8309C178.992 87.249 179.119 87.7232 179.119 88.2059C179.119 88.6886 178.992 89.1629 178.75 89.5809C179.713 90.7497 179.919 91.3684 178.75 92.6747C177.582 93.9809 178.132 94.1184 178.75 95.4247C178.884 94.6674 179.164 93.9434 179.575 93.2934C179.919 92.6059 180.057 91.5059 180.882 91.1622C181.148 91.0678 181.44 91.0678 181.707 91.1622C182.501 91.3196 183.318 91.3196 184.113 91.1622C184.614 91.1209 185.116 91.238 185.548 91.497C185.98 91.756 186.319 92.1438 186.519 92.6059L184.25 93.7059C184.732 94.6684 184.25 95.0122 183.288 95.6309C182.809 96.0707 182.371 96.5541 181.982 97.0747C182.863 96.9183 183.736 96.7118 184.594 96.4559C185.178 96.3075 185.796 96.3711 186.337 96.6355C186.878 96.8999 187.308 97.3479 187.55 97.8997C187.734 98.2885 188.019 98.6208 188.375 98.8622C189.042 99.4404 189.46 100.253 189.544 101.131C189.596 101.334 189.596 101.547 189.544 101.75L188.238 100.787C188.071 100.628 187.85 100.538 187.619 100.538C187.388 100.538 187.167 100.628 187 100.787C186.77 101.01 186.462 101.134 186.141 101.134C185.82 101.134 185.512 101.01 185.282 100.787C184.814 100.509 184.279 100.362 183.735 100.362C183.19 100.362 182.656 100.509 182.188 100.787C181.458 101.267 180.7 101.703 179.919 102.093C180.821 102.215 181.683 102.545 182.435 103.058C183.187 103.572 183.809 104.254 184.25 105.05C184.732 106.012 185.419 106.975 185.9 108.006C186.089 108.417 186.108 108.885 185.953 109.31C185.799 109.734 185.483 110.081 185.075 110.275H184.732V109.931C184.732 109.106 184.25 108.968 183.425 109.106C183.2 109.181 182.961 109.209 182.725 109.191C182.488 109.172 182.257 109.107 182.046 108.998C181.834 108.889 181.647 108.739 181.494 108.557C181.342 108.375 181.227 108.164 181.157 107.937C180.359 106.336 179.019 105.069 177.375 104.362L175.932 103.743C175.824 104.369 175.615 104.973 175.313 105.531C175.086 105.89 174.808 106.215 174.488 106.493C173.525 107.318 173.525 107.456 174.488 108.625C175.45 109.793 174.969 109.243 175.313 109.793C174.795 109.823 174.278 109.733 173.801 109.531C173.324 109.328 172.9 109.018 172.563 108.625C171.709 107.663 171.013 106.573 170.5 105.393C170.301 104.843 170.288 104.243 170.461 103.685C170.635 103.126 170.987 102.64 171.463 102.3C171.945 101.822 172.341 101.263 172.632 100.65L167.75 99.3434C167.828 100.098 167.828 100.858 167.75 101.612C167.915 104.383 167.915 107.16 167.75 109.931C167.584 114.048 166.938 118.132 165.825 122.1C165.02 125.155 163.867 128.108 162.388 130.9C161.147 133.416 159.746 135.85 158.194 138.187C156.868 140.129 155.397 141.967 153.794 143.687C152.171 145.59 150.376 147.34 148.432 148.912C146.3 150.7 144.032 152.143 141.557 153.656C138.224 155.771 134.615 157.414 130.832 158.537C128.279 159.286 125.685 159.883 123.063 160.325C121.608 160.611 120.14 160.817 118.663 160.943C118.211 161.087 117.801 161.336 117.466 161.671C117.131 162.006 116.881 162.417 116.738 162.868C116.536 163.958 116.115 164.995 115.501 165.917C114.886 166.838 114.091 167.626 113.163 168.231C112.338 168.85 111.375 169.4 110.413 170.018L110.894 168.575C110.977 168.261 110.977 167.93 110.892 167.617C110.808 167.303 110.642 167.017 110.413 166.787C109.932 166.306 109.244 166.787 108.625 166.787C108.007 166.787 107.457 167.612 107.319 168.575C107.187 169.457 106.834 170.291 106.293 171C105.752 171.709 105.041 172.27 104.225 172.631H103.4C103.616 172.051 103.777 171.453 103.882 170.843C103.882 170.362 103.4 169.881 103.057 169.4C102.713 168.918 102.438 169.4 102.094 169.4L99.1378 170.843L98.1753 171.325L100.788 172.493C102.202 173.171 103.342 174.311 104.019 175.725C104.298 176.103 104.449 176.561 104.449 177.031C104.449 177.501 104.298 177.959 104.019 178.337C103.939 178.46 103.897 178.603 103.897 178.75C103.897 178.896 103.939 179.039 104.019 179.162C104.243 179.976 104.304 180.827 104.198 181.665C104.092 182.503 103.821 183.311 103.4 184.043C103.4 184.525 102.575 185.006 102.232 185.487L101.75 182.187C101.75 182.023 101.685 181.866 101.569 181.75C101.453 181.634 101.296 181.568 101.132 181.568C100.161 181.611 99.1981 181.375 98.3575 180.887C97.5168 180.4 96.8333 179.682 96.3878 178.818L95.9065 178.2C95.0552 179.418 93.7808 180.276 92.3315 180.606C91.349 181.051 90.4763 181.706 89.7754 182.526C89.0744 183.346 88.5623 184.31 88.2753 185.35C88.0394 186.542 87.6464 187.698 87.1065 188.787C86.8136 189.536 86.2408 190.141 85.5093 190.475C84.7778 190.809 83.9452 190.844 83.1878 190.575V193.187C82.8154 193.092 82.4659 192.923 82.1598 192.69C81.8536 192.458 81.5969 192.166 81.4048 191.833C81.2127 191.5 81.089 191.132 81.041 190.751C80.993 190.37 81.0217 189.982 81.1253 189.612C81.209 189.227 81.209 188.828 81.1253 188.443C80.6469 187.51 80.5296 186.432 80.796 185.417C81.0624 184.403 81.6937 183.522 82.569 182.943C83.9153 181.962 85.0788 180.752 86.0065 179.368C86.0544 179.212 86.0544 179.044 86.0065 178.887L81.1253 178.268C80.5277 178.104 79.903 178.062 79.2887 178.145C78.6744 178.227 78.0831 178.433 77.5503 178.75L76.5878 179.987C75.144 181.637 74.4565 181.775 72.5315 180.812C71.7734 182.146 71.483 183.695 71.7065 185.212C70.9782 184.503 70.4759 183.594 70.2628 182.6C70.1788 182.053 70.1788 181.496 70.2628 180.95V179.987C70.1056 179.519 70.1056 179.012 70.2628 178.543C70.8387 177.219 71.8951 176.163 73.219 175.587C74.679 174.63 76.3592 174.062 78.1003 173.937C79.4065 173.855 80.7128 173.855 82.019 173.937H82.9815C82.6897 173.224 82.2513 172.58 81.6947 172.047C81.138 171.514 80.4756 171.104 79.7503 170.843L76.0378 169.4C75.6282 169.459 75.2115 169.356 74.8773 169.112C74.5431 168.867 74.318 168.502 74.2503 168.093C74.2503 167.929 74.1851 167.772 74.0691 167.656C73.953 167.54 73.7956 167.475 73.6315 167.475C72.4833 167.471 71.3594 167.806 70.4003 168.437C70.8815 166.993 71.569 165.481 73.1503 165.206C73.8583 165.123 74.5735 165.123 75.2815 165.206H75.9003C76.8628 163.762 78.3065 164.037 79.6128 164.725C81.5172 165.632 83.0984 167.09 84.1503 168.918C84.3901 169.393 84.7291 169.81 85.1442 170.142C85.5594 170.474 86.041 170.714 86.5565 170.843C86.648 169.586 86.4843 168.323 86.0753 167.131C86.0509 166.578 85.8513 166.046 85.5053 165.614C85.1593 165.181 84.6848 164.87 84.1503 164.725C82.5003 164.243 82.019 163.075 82.844 161.287C82.3006 160.804 81.6392 160.474 80.9269 160.329C80.2146 160.184 79.4766 160.23 78.7878 160.462C79.269 159.156 81.194 158.675 82.5003 158.812C83.6809 159.518 85.0459 159.853 86.419 159.775C86.8796 159.861 87.3131 160.056 87.6836 160.343C88.0542 160.63 88.3512 161 88.5503 161.425L89.5128 163.35C90.3378 164.793 90.9565 166.443 91.644 167.887C92.6065 165.137 93.7753 162.181 94.8753 159.087L93.2253 158.468L88.4815 156.543C84.8625 154.978 81.4271 153.018 78.2378 150.7C77.6795 150.398 77.0758 150.189 76.4503 150.081C75.969 150.081 75.2815 150.7 75.6253 151.25C75.969 151.8 76.4503 151.868 76.794 152.418C77.1378 152.968 76.794 152.9 77.4128 153.243H76.5878C75.4708 153.269 74.3725 152.954 73.4391 152.34C72.5057 151.726 71.7815 150.842 71.3628 149.806C70.3498 147.765 69.7427 145.547 69.5753 143.275C69.6074 143.199 69.624 143.117 69.624 143.034C69.624 142.951 69.6074 142.87 69.5753 142.793L65.1753 137.912C64.8457 138.752 64.8457 139.685 65.1753 140.525L65.6565 141.487V142.656H64.3503C63.6077 141.843 63.0038 140.914 62.5628 139.906C61.944 137.5 61.6003 135.025 61.119 132.618C61.0008 131.413 60.794 130.218 60.5003 129.043C60.1441 127.667 59.7079 126.313 59.194 124.987V128.768C59.194 129.112 58.369 128.768 58.2315 128.15C57.4854 126.868 57.0388 125.434 56.9253 123.956C56.8447 120.485 57.3324 117.025 58.369 113.712C58.6843 112.497 59.0746 111.304 59.5378 110.137C59.38 110.529 59.172 110.899 58.919 111.237L58.3003 111.856V111.031C58.2803 109.485 58.6845 107.963 59.469 106.631C60.6378 104.018 62.0815 101.406 63.3878 98.8622C63.9274 97.9542 64.5245 97.0816 65.1753 96.2497L64.0065 97.4872L63.1815 97.9684V97.4872C63.624 96.7512 64.1059 96.0398 64.6253 95.3559C66.1719 93.4824 67.9775 91.8388 69.9878 90.4747C70.4553 90.3123 70.964 90.3123 71.4315 90.4747L78.3065 91.9184L80.7128 92.5372C80.0579 93.2113 79.5023 93.9752 79.0628 94.8059C78.8515 95.2212 78.7413 95.6806 78.7413 96.1465C78.7413 96.6125 78.8515 97.0719 79.0628 97.4872C79.181 97.6591 79.2443 97.8629 79.2443 98.0715C79.2443 98.2802 79.181 98.484 79.0628 98.6559C77.498 100.004 76.173 101.608 75.144 103.4V104.018C75.144 104.018 77.4128 106.287 78.5815 107.593C78.6503 107.8 78.6503 108.006 78.5815 108.212C78.0618 109.098 77.7878 110.107 77.7878 111.134C77.7878 112.161 78.0618 113.17 78.5815 114.056C78.6604 114.363 78.8008 114.65 78.9941 114.901C79.1874 115.151 79.4296 115.36 79.7061 115.514C79.9825 115.669 80.2874 115.765 80.6023 115.798C80.9171 115.831 81.2354 115.8 81.5378 115.706C81.4802 117.042 81.8939 118.356 82.7065 119.418C83.1878 119.9 83.8753 120.243 84.3565 120.725C84.6456 120.926 84.8625 121.216 84.9753 121.55C85.3578 122.775 86.0757 123.869 87.0477 124.707C88.0197 125.546 89.2071 126.095 90.4753 126.293C92.4553 126.568 94.4628 126.156 96.1815 125.125C96.8003 125.125 97.0065 124.643 97.144 125.125C97.529 127.524 98.299 129.841 99.4128 132C100.836 134.516 102.596 136.826 104.638 138.875C106.473 140.628 108.722 141.9 111.169 142.587C114.194 143.268 117.357 142.415 119.625 140.318C121.05 138.876 122.255 137.231 123.2 135.437L126.157 130.693C127.458 128.901 129.121 127.402 131.038 126.293C131.356 126.048 131.725 125.878 132.117 125.795C132.51 125.712 132.916 125.717 133.307 125.812L132.825 126.775C132.46 127.363 132.266 128.042 132.266 128.734C132.266 129.427 132.46 130.105 132.825 130.693C133.307 131.312 133.65 131.312 133.994 130.693C134.338 130.075 134.957 128.906 136.263 129.043C137.569 129.181 137.569 128.218 137.707 127.393C137.842 123.813 138.909 120.33 140.8 117.287C141.153 116.924 141.545 116.601 141.969 116.325V118.937C142.1 119.666 142.313 120.381 142.588 121.068L143 120.175C143.118 119.928 143.303 119.719 143.534 119.573C143.765 119.427 144.033 119.349 144.307 119.35C144.63 119.293 144.923 119.122 145.132 118.868C145.585 118.336 145.898 117.698 146.042 117.014C146.186 116.329 146.157 115.62 145.957 114.95C145.793 113.925 145.793 112.881 145.957 111.856C145.953 110.556 146.285 109.278 146.919 108.143C147.069 107.79 147.278 107.464 147.538 107.181H148.019V109.45C147.967 109.653 147.967 109.865 148.019 110.068H148.638L149.875 109.243C150.344 108.406 150.559 107.451 150.494 106.493C150.399 105.948 150.399 105.389 150.494 104.843V99.2059C150.494 98.4497 150.494 98.3809 150.975 97.8997L151.732 97.4872V100.512C151.782 100.41 151.861 100.323 151.958 100.262C152.055 100.202 152.167 100.169 152.282 100.168ZM67.7878 68.8184L71.844 64.7622C72.0786 64.5069 72.3583 64.2972 72.669 64.1434C73.1503 63.6622 72.669 63.1809 72.669 62.6997C72.669 62.2184 72.0503 62.6997 71.5003 62.6997H70.8815V61.8747C71.0525 61.3115 71.344 60.7922 71.7358 60.3529C72.1275 59.9137 72.6102 59.5649 73.1503 59.3309C74.9277 58.6905 76.8729 58.6905 78.6503 59.3309C78.8002 59.4039 78.9648 59.4418 79.1315 59.4418C79.2983 59.4418 79.4628 59.4039 79.6128 59.3309L83.5315 57.1997C84.1503 57.1997 84.0128 56.5809 83.5315 56.2372C83.0503 55.8934 82.3628 55.4122 81.744 56.2372C81.5411 56.2896 81.3282 56.2896 81.1253 56.2372C81.1253 55.0684 82.294 54.1059 83.394 53.6247C85.2503 53.054 87.244 53.054 89.1003 53.6247H89.3753C89.8565 53.6247 91.3003 54.2434 92.469 53.6247L94.8753 52.7997C95.494 52.7997 95.494 52.3184 94.8753 51.9747C94.2565 51.6309 94.0503 51.0122 93.4315 51.4934C92.8128 51.9747 93.4315 51.4934 92.8128 51.4934C92.6823 51.3534 92.6097 51.1692 92.6097 50.9778C92.6097 50.7864 92.6823 50.6022 92.8128 50.4622C94.0115 49.558 95.5183 49.1628 97.0065 49.3622C98.3594 49.4665 99.6511 49.9689 100.719 50.8059H101.2C101.432 51.0774 101.735 51.2791 102.075 51.3884C102.415 51.4977 102.779 51.5102 103.125 51.4247C103.52 51.1884 103.971 51.0637 104.432 51.0637C104.892 51.0637 105.343 51.1884 105.738 51.4247H106.219V50.8059C106.11 50.3824 105.86 50.0086 105.51 49.7462C105.16 49.4838 104.731 49.3483 104.294 49.3622H103.813C104.629 48.7249 105.599 48.3132 106.624 48.1684C107.65 48.0236 108.696 48.1508 109.657 48.5372C111.073 49.1147 112.31 50.0634 113.232 51.2872C113.593 51.5098 113.987 51.6723 114.4 51.7684C115.34 51.7391 116.276 51.9029 117.15 52.2497C117.975 52.7309 117.632 52.2497 117.769 52.8684C117.873 52.6473 117.933 52.4078 117.945 52.1635C117.956 51.9193 117.92 51.6752 117.836 51.4452C117.753 51.2152 117.626 51.0039 117.461 50.8234C117.296 50.6429 117.097 50.4968 116.875 50.3934H115.5V49.3622C116.249 49.2157 117.02 49.2157 117.769 49.3622C119.942 49.6165 121.894 50.7922 123.132 52.5934C123.613 53.4184 124.012 54.2915 124.3 55.2059C124.885 55.134 125.479 55.2168 126.022 55.4461C126.564 55.6753 127.038 56.0429 127.394 56.5122H127.875C128.16 56.4544 128.437 56.3621 128.7 56.2372C128.685 55.7011 128.506 55.1827 128.186 54.7522C127.866 54.3217 127.422 54.0001 126.913 53.8309H126.432C127.05 53.8309 127.6 53.3497 128.219 53.8309C129.25 53.9272 130.247 54.209 131.175 54.6559C133.623 55.6528 135.452 57.7428 136.125 60.2934C137.294 60.9122 138.05 61.5997 138.875 62.0809H139.838V60.6372C139.736 60.1463 139.522 59.6857 139.212 59.292C138.901 58.8982 138.504 58.582 138.05 58.3684L137.432 57.8872C138.184 57.7184 138.967 57.7503 139.703 57.9795C140.439 58.2088 141.102 58.6274 141.625 59.1934C142.897 60.2659 143.846 61.6684 144.375 63.2497C144.431 63.5072 144.547 63.7476 144.715 63.951C144.882 64.1543 145.096 64.3146 145.338 64.4184C145.86 64.8103 146.342 65.2434 146.782 65.7247C147.4 63.9372 145.957 62.9747 145.475 61.6684C146 61.6794 146.516 61.8015 146.99 62.0267C147.464 62.2518 147.885 62.5749 148.225 62.9747C149.188 63.9784 150.054 65.0578 150.838 66.2059C151.333 67.0447 151.883 67.849 152.488 68.6122C152.983 69.5334 153.306 70.5372 153.45 71.5684C153.547 73.8994 153.221 76.2287 152.488 78.4434C152.405 79.9548 152.405 81.4696 152.488 82.9809C152.557 83.1872 152.557 83.3934 152.488 83.5997C151.881 84.1 151.379 84.7164 151.013 85.4129C150.647 86.1095 150.424 86.872 150.357 87.6559C150.03 89.7055 150.03 91.7938 150.357 93.8434V94.3247C149.411 94.9475 148.634 95.7942 148.094 96.7897C147.554 97.7852 147.269 98.8986 147.263 100.031V103.606C146.272 103.807 145.354 104.27 144.604 104.947C143.855 105.625 143.301 106.491 143 107.456C142.519 108.418 142.382 109.587 141.832 110.55C141.282 111.512 141.213 111.168 140.869 111.512V110.206C141.28 108.055 141.441 105.863 141.35 103.675C141.418 100.445 140.809 97.2365 139.563 94.2559V93.0872C140.64 91.9886 141.318 90.5603 141.488 89.0309C141.66 86.7425 141.66 84.4443 141.488 82.1559C141.516 80.533 140.926 78.96 139.838 77.7559C139.279 77.1823 138.56 76.7903 137.776 76.6309C136.991 76.4715 136.176 76.5521 135.438 76.8622C134.479 77.2678 133.661 77.9473 133.086 78.8155C132.511 79.6838 132.205 80.7022 132.207 81.7434V84.1497C129.776 81.7129 126.843 79.8359 123.613 78.6497C121.758 77.9965 119.848 77.5133 117.907 77.2059H113.713C111.002 77.2159 108.31 77.6569 105.738 78.5122C104.294 78.9934 102.988 79.6809 101.544 80.1622C101.396 80.2404 101.23 80.2813 101.063 80.2813C100.895 80.2813 100.73 80.2404 100.582 80.1622C97.4973 78.3015 94.1638 76.8894 90.6815 75.9684C89.0409 75.5242 87.3593 75.2477 85.6628 75.1434C82.2253 74.4559 78.7878 73.9747 75.9003 73.0809C73.3154 72.464 70.8521 71.4183 68.6128 69.9872C68.4588 69.5249 68.1718 69.1183 67.7878 68.8184ZM132.757 101.131C132.757 102.3 130.625 102.575 128.357 101.956V104.362C128.391 104.636 128.391 104.913 128.357 105.187H127.394C126.713 104.635 126.07 104.038 125.469 103.4C125.066 103.574 124.707 103.838 124.421 104.171C124.136 104.505 123.929 104.899 123.819 105.325C123.338 106.631 122.65 106.768 121.688 105.325C121.333 104.964 120.941 104.642 120.519 104.362C120.078 104.989 119.596 105.587 119.075 106.15C118.955 106.29 118.808 106.406 118.643 106.488C118.478 106.571 118.297 106.62 118.113 106.631C117.866 106.389 117.658 106.11 117.494 105.806C117.423 105.327 117.423 104.841 117.494 104.362C116.669 106.493 115.707 108.281 113.3 108.762C113.212 107.863 113.379 106.958 113.782 106.15C114.263 105.325 113.782 106.15 113.782 105.668C112.708 106.699 112.069 108.101 111.994 109.587C112.104 112.564 112.874 115.479 114.263 118.112C115.225 120.518 116.394 122.856 117.357 124.987C118.237 127.167 118.635 129.511 118.525 131.862C118.636 133.057 118.396 134.259 117.836 135.321C117.275 136.382 116.418 137.258 115.369 137.841C114.32 138.424 113.123 138.689 111.926 138.604C110.729 138.519 109.582 138.088 108.625 137.362C107.054 136.388 105.678 135.129 104.569 133.65C103.607 132.343 102.644 131.037 101.819 129.731C101.358 128.775 100.967 127.787 100.65 126.775V125.812C101.034 125.789 101.416 125.89 101.738 126.1C102.06 126.311 102.305 126.62 102.438 126.981C102.782 127.531 104.225 129.731 105.188 131.037C105.978 132.618 107.168 133.966 108.625 134.956C109.108 135.159 109.627 135.266 110.151 135.269C110.675 135.272 111.194 135.171 111.68 134.973C112.165 134.775 112.606 134.484 112.979 134.115C113.351 133.746 113.647 133.308 113.85 132.825V132.343C114.14 131.487 114.247 130.58 114.164 129.68C114.081 128.78 113.81 127.907 113.369 127.118C112.2 124.506 110.757 121.893 109.45 119.35C107.939 116.608 106.893 113.634 106.357 110.55C106.275 109.796 106.275 109.035 106.357 108.281C105.325 108.363 104.294 108.363 103.263 108.281L100.169 107.456L98.7253 108.418C98.7901 108.101 98.7901 107.773 98.7253 107.456C98.7395 106.826 98.5803 106.204 98.2651 105.659C97.9498 105.113 97.4907 104.664 96.9378 104.362C96.5913 104.362 96.2591 104.5 96.0141 104.745C95.7692 104.99 95.6315 105.322 95.6315 105.668C95.5813 106.37 95.7207 107.072 96.0352 107.701C96.3497 108.33 96.8277 108.863 97.419 109.243L100.169 111.168C101.132 111.787 100.994 111.787 101.475 111.168C101.542 110.851 101.542 110.523 101.475 110.206C102.782 110.206 103.263 111.031 103.4 112.337C103.717 113.987 104.157 115.623 104.707 117.218C104.736 117.564 104.697 117.913 104.591 118.243C104.485 118.574 104.314 118.88 104.088 119.143C103.239 120.213 102.125 121.043 100.857 121.55C99.8172 121.953 98.6647 121.953 97.6253 121.55C98.2254 120.953 98.8689 120.402 99.5503 119.9C99.8389 119.606 100.047 119.243 100.156 118.846C100.264 118.449 100.269 118.03 100.169 117.631C100.12 117.502 100.036 117.389 99.9269 117.304C99.8178 117.219 99.6875 117.166 99.5503 117.15C98.911 117.071 98.2645 117.071 97.6253 117.15C97.1278 117.185 96.6617 117.406 96.319 117.768C95.1921 118.663 93.9968 119.467 92.744 120.175C91.7236 120.704 90.5614 120.897 89.4248 120.724C88.2881 120.551 87.2357 120.021 86.419 119.212C85.8318 118.554 85.3871 117.782 85.1128 116.943L84.6315 115.981C84.3892 116.227 84.1111 116.436 83.8065 116.6C83.4628 116.6 83.3253 115.775 83.8065 115.637C84.0059 114.743 84.2878 113.87 84.6315 113.025C84.7098 112.876 84.7507 112.711 84.7507 112.543C84.7507 112.376 84.7098 112.211 84.6315 112.062C84.0816 111.298 83.3489 110.683 82.5003 110.275C81.8815 109.793 81.3315 110.275 80.8503 110.275H80.0253C80.0418 110 80.0418 109.724 80.0253 109.45C80.1415 108.726 80.462 108.05 80.9491 107.502C81.4363 106.954 82.0699 106.556 82.7753 106.356H83.6003C81.6294 105.604 79.8463 104.431 78.3753 102.918C77.894 102.437 77.7565 102.093 78.3753 101.612C78.994 101.131 80.1628 100.031 81.1253 99.3434C82.9709 98.6879 84.9859 98.6879 86.8315 99.3434C88.5297 99.9072 90.0834 100.842 91.369 102.093L91.8503 102.575C91.4623 101.397 90.8075 100.325 89.9369 99.443C89.0663 98.5604 88.0035 97.8911 86.8315 97.4872C84.7376 96.7077 82.5329 96.2667 80.3003 96.1809C80.4108 95.7646 80.6377 95.3883 80.9542 95.0961C81.2707 94.8039 81.6639 94.6079 82.0878 94.5309L85.8003 93.8434C87.1204 93.5496 88.3481 92.9358 89.3753 92.0559C88.7116 91.5091 87.998 91.0257 87.244 90.6122C85.319 89.7872 83.3253 88.8247 81.4003 88.2059C79.6512 87.4343 77.798 86.9246 75.9003 86.6934C73.2509 86.3234 70.6472 85.6782 68.1315 84.7684C65.0958 83.9397 62.1997 82.6654 59.5378 80.9872C56.7878 79.1997 54.4503 76.8622 52.6628 74.1122C52.2461 73.4003 51.9226 72.6378 51.7003 71.8434V71.0184H52.5253L53.6253 71.6372C55.4128 73.0809 57.0628 74.8684 58.8503 76.1747C61.043 77.7663 63.515 78.9323 66.1378 79.6122C68.269 80.0934 70.3315 80.5747 72.4628 80.9184C74.594 81.2622 76.0378 80.9184 77.8253 81.3997L81.744 81.8809C83.2359 81.984 84.714 82.259 86.144 82.7059C88.4128 83.5309 90.544 84.4934 92.6753 85.3184C92.798 85.3983 92.9413 85.4408 93.0878 85.4408C93.2342 85.4408 93.3775 85.3983 93.5003 85.3184C94.394 85.119 95.2672 84.8372 96.1128 84.4934V83.7372C94.5276 82.8527 92.8984 82.0495 91.2315 81.3309C88.1057 80.1018 84.8166 79.3374 81.469 79.0622L76.9315 78.5809C74.4445 78.1694 71.9872 77.5952 69.5753 76.8622C67.0787 75.9537 64.7541 74.6287 62.7003 72.9434C60.9715 71.6089 59.6792 69.79 58.9878 67.7184V66.2747C59.1729 66.1971 59.3715 66.1572 59.5722 66.1572C59.7728 66.1572 59.9715 66.1971 60.1565 66.2747L61.944 68.1997C62.9065 69.1622 63.869 70.1247 65.0378 71.1559C67.7603 73.2872 70.8953 74.834 74.2503 75.6934C76.1753 76.1747 78.169 76.5184 80.094 76.8622C83.1878 77.3434 86.419 77.8247 89.5128 78.5122C93.1807 79.17 96.6019 80.8093 99.4128 83.2559C100.582 84.2184 101.544 83.7372 102.644 83.2559C103.227 83.1457 103.829 83.2268 104.362 83.487C104.895 83.7471 105.329 84.1725 105.6 84.6997C106.425 86.9203 106.425 89.354 105.6 91.5747C105.526 91.9856 105.578 92.4093 105.75 92.7899C105.922 93.1704 106.205 93.4899 106.563 93.7059H107.388C108.347 93.3125 109.394 93.1815 110.421 93.3265C111.448 93.4715 112.418 93.8872 113.232 94.5309C113.486 94.7317 113.801 94.8408 114.125 94.8408C114.45 94.8408 114.764 94.7317 115.019 94.5309C116.367 93.9007 117.676 93.189 118.938 92.3997C120.244 91.5747 119.557 91.2309 119.9 90.6122C120.369 89.6604 121.127 88.8816 122.066 88.3875C123.004 87.8934 124.076 87.7095 125.125 87.8622C126.603 87.8622 128.082 88.0203 129.525 88.3434C130.696 88.6587 131.929 88.6587 133.1 88.3434C133.838 88.2548 134.529 87.934 135.072 87.4274C135.616 86.9207 135.985 86.2545 136.125 85.5247V81.1247C136.125 80.6434 136.125 80.1622 136.95 80.1622C137.775 80.1622 137.569 80.7809 137.569 81.3309C138.064 83.5997 138.064 85.9372 137.569 88.2059C137.432 89.1863 136.916 90.0738 136.132 90.6779C135.348 91.2821 134.358 91.5547 133.375 91.4372H127.532C126.74 91.3871 125.957 91.6235 125.326 92.1032C124.695 92.583 124.258 93.2739 124.094 94.0497C124.018 94.366 124.018 94.6958 124.094 95.0122C124.575 95.9747 124.919 96.7997 126.363 96.6622C127.133 96.7309 127.738 97.3359 127.807 98.1059C127.956 98.9293 128.375 99.6797 128.997 100.24C129.619 100.799 130.409 101.137 131.244 101.2L132.757 101.131ZM94.4628 96.3872C95.2878 97.2328 96.1609 98.0372 97.0753 98.7934C97.5406 99.1448 98.1078 99.3348 98.6909 99.3348C99.274 99.3348 99.8412 99.1448 100.307 98.7934C101.215 98.2538 102.087 97.6567 102.919 97.0059V96.5247C102.841 96.2133 102.696 95.9228 102.495 95.6734C102.293 95.424 102.039 95.2218 101.75 95.0809C101.164 94.9265 100.549 94.9265 99.9628 95.0809L98.794 95.5622C97.6232 95.8774 96.3899 95.8774 95.219 95.5622L94.4628 96.3872ZM116.875 98.6559C117.156 98.8869 117.485 99.0515 117.838 99.1372C119.041 99.367 120.131 99.997 120.932 100.925C121.729 101 122.54 101 123.338 100.925C123.819 100.925 124.163 100.443 124.644 100.306C124.251 99.8305 123.813 99.3931 123.338 98.9997C121.289 98.137 119.004 98.0154 116.875 98.6559ZM31.2128 119.831C32.0726 120.751 33.1685 121.416 34.3808 121.756C35.5932 122.095 36.8754 122.095 38.0878 121.756C38.4923 121.636 38.8639 121.425 39.1739 121.139C39.4839 120.853 39.7238 120.5 39.8753 120.106C37.298 120.702 34.5928 120.36 32.244 119.143C31.1331 118.51 30.1675 117.65 29.4096 116.62C28.6517 115.589 28.1183 114.411 27.844 113.162C27.3292 111.332 27.4117 109.385 28.0793 107.604C28.747 105.824 29.9651 104.303 31.5565 103.262C30.8465 105.541 31.0704 108.009 32.1791 110.123C33.2878 112.238 35.1904 113.825 37.469 114.537H38.4315C40.4812 114.964 42.6146 114.695 44.4945 113.774C46.3745 112.852 47.8939 111.331 48.8128 109.45C48.0924 110.006 47.4038 110.603 46.7503 111.237C43.7459 113.3 39.7859 113.3 36.7815 111.237C35.9667 110.699 35.2924 109.974 34.815 109.123C34.3376 108.271 34.0709 107.317 34.0372 106.341C34.0036 105.366 34.2039 104.396 34.6216 103.513C35.0392 102.631 35.6619 101.861 36.4378 101.268C36.5302 101.842 36.7514 102.388 37.0848 102.864C37.4182 103.341 37.8551 103.735 38.3628 104.018C39.372 104.575 40.4624 104.969 41.594 105.187C42.8267 105.385 44.0884 105.295 45.2808 104.926C46.4733 104.556 47.5643 103.916 48.469 103.056C49.4644 102.034 50.2369 100.817 50.7378 99.4809C52.044 96.3872 53.0065 93.1559 54.4503 90.0622C55.385 88.1762 56.4177 86.3404 57.544 84.5622C57.544 84.0809 58.1628 84.5622 58.5065 84.5622L62.0815 86.4872L64.3503 87.4497L63.3878 88.2747C61.2336 90.5711 59.385 93.136 57.8878 95.9059C56.719 98.0372 55.619 99.9622 54.6565 102.093C53.694 104.225 52.7315 106.975 51.9065 109.381L49.9815 114.881C49.5003 116.325 48.8128 117.631 48.194 119.075C47.2724 121.165 45.6741 122.884 43.6565 123.956C42.4713 124.532 41.1889 124.882 39.8753 124.987C38.5742 125.151 37.2576 125.151 35.9565 124.987C34.9035 124.906 33.8997 124.508 33.0774 123.846C32.2551 123.183 31.6529 122.287 31.3503 121.275C31.4455 120.79 31.3977 120.289 31.2128 119.831ZM127.944 114.331C128.027 115.087 128.027 115.843 127.944 116.6C127.944 117.562 127.325 117.562 126.5 117.081L124.575 116.118H123.75C124.028 116.673 124.173 117.285 124.173 117.906C124.173 118.527 124.028 119.139 123.75 119.693C123.637 120.027 123.421 120.317 123.132 120.518H122.375L121.894 119.075C121.728 118.694 121.418 118.393 121.032 118.239C120.646 118.085 120.215 118.088 119.832 118.25C119.194 118.424 118.59 118.703 118.044 119.075H117.082C115.894 116.801 115.126 114.333 114.813 111.787L115.5 112.612C116.063 113.041 116.752 113.274 117.46 113.274C118.168 113.274 118.856 113.041 119.419 112.612C119.585 112.257 119.671 111.87 119.671 111.478C119.671 111.086 119.585 110.699 119.419 110.343C119.419 109.862 118.938 109.518 118.8 109.037C119.763 109.037 119.763 108.212 122.238 111.168L124.025 110.206C124.644 110.206 124.025 109.243 124.025 108.9V107.456L125.194 107.937C125.528 108.05 125.817 108.267 126.019 108.556C127.045 109.713 128.198 110.751 129.457 111.65C129.839 111.966 130.143 112.366 130.346 112.819C130.549 113.273 130.644 113.766 130.625 114.262V114.881H130.144C128.425 114.331 128.425 114.331 127.944 114.331ZM46.7503 103.4C45.4238 102.618 43.8821 102.281 42.3503 102.437C41.7111 102.516 41.0645 102.516 40.4253 102.437C40.0249 102.371 39.6456 102.212 39.3173 101.973C38.989 101.735 38.7208 101.423 38.534 101.063C38.3471 100.702 38.2468 100.303 38.241 99.8976C38.2351 99.4918 38.3239 99.0902 38.5003 98.7247C39.119 98.7247 39.669 99.5497 40.2878 99.8934C40.9065 100.237 41.1128 99.8934 41.1128 99.4122C41.0909 99.0109 41.1908 98.6124 41.3993 98.2688C41.6079 97.9253 41.9154 97.6529 42.2815 97.4872C42.8053 97.3033 43.3689 97.2637 43.9132 97.3725C44.4575 97.4814 44.9625 97.7347 45.3753 98.1059C46.764 99.4809 47.3003 101.516 46.7503 103.4Z" fill="white"/>
</g>
<defs>
<clipPath id="clip0_108_83">
<rect width="220" height="220" fill="white"/>
</clipPath>
</defs>
</svg>
