<svg width="220" height="220" viewBox="0 0 220 220" fill="none" xmlns="http://www.w3.org/2000/svg">
<g clip-path="url(#clip0_108_82)">
<path d="M110 220C170.751 220 220 170.751 220 110C220 49.2487 170.751 0 110 0C49.2487 0 0 49.2487 0 110C0 170.751 49.2487 220 110 220Z" fill="#FF6600"/>
<path d="M117.411 133.073C152.336 122.299 139.872 86.0887 117.411 84.7137C123.117 84.7137 127.779 68.3719 127.779 48.125C182.614 52.0231 208.374 142.388 126.129 170.658C126.658 163.323 123.654 142.849 117.418 133.073H117.411ZM41.25 122.375V84.7894H41.3188C61.1531 84.7138 77.1512 68.2894 77.0825 48.2006H115.307C115.314 89.2169 82.1906 122.375 41.25 122.375ZM91.3481 115.569C114.036 134.214 115.314 165.612 115.314 171.875H77.0825C77.0825 151.099 63.5594 134.289 46.8119 134.289C75.2056 129.711 80.9875 124.898 91.3481 115.576V115.569Z" fill="white"/>
</g>
<defs>
<clipPath id="clip0_108_82">
<rect width="220" height="220" fill="white"/>
</clipPath>
</defs>
</svg>
