<svg width="220" height="220" viewBox="0 0 220 220" fill="none" xmlns="http://www.w3.org/2000/svg">
<g clip-path="url(#clip0_108_85)">
<path d="M110 220C170.751 220 220 170.751 220 110C220 49.2487 170.751 0 110 0C49.2487 0 0 49.2487 0 110C0 170.751 49.2487 220 110 220Z" fill="#4700C2"/>
<path fill-rule="evenodd" clip-rule="evenodd" d="M94.0637 99.756C91.9325 101.145 89.4918 102.616 86.9618 104.156V118.05C89.2581 116.889 91.6231 115.713 94.0637 114.551V99.7492V99.756ZM58.5406 125.448C59.186 126.699 60.298 127.646 61.6361 128.083C62.9742 128.521 64.4308 128.414 65.6906 127.785L72.3318 124.437C72.3731 118.855 72.4006 114.613 72.4006 112.929V112.482C66.7631 115.287 62.4868 117.439 60.8437 118.257C59.5852 118.905 58.6356 120.027 58.2038 121.376C57.7719 122.724 57.8931 124.189 58.5406 125.448ZM96.0712 124.039C96.0685 124.735 96.2034 125.426 96.4682 126.071C96.7331 126.715 97.1226 127.301 97.6144 127.795C98.1062 128.289 98.6907 128.681 99.3344 128.948C99.978 129.215 100.668 129.353 101.365 129.353H101.427C102.835 129.351 104.185 128.79 105.18 127.794C106.175 126.797 106.734 125.447 106.734 124.039V80.0179C106.734 79.2614 106.572 78.5136 106.26 77.8245C105.947 77.1355 105.492 76.5209 104.923 76.0219C104.354 75.5229 103.686 75.1508 102.962 74.9306C102.238 74.7104 101.476 74.647 100.726 74.7448C99.4448 74.9027 98.2661 75.5243 97.4124 76.4921C96.5586 77.4598 96.0889 78.7068 96.0918 79.9973V101.984C96.0712 109.367 96.0712 116.696 96.0712 124.039Z" fill="white"/>
<path fill-rule="evenodd" clip-rule="evenodd" d="M171.772 89.946C171.435 87.3748 169.73 85.9448 167.138 85.271C165.076 84.7416 162.945 84.6385 160.772 84.6179C155.712 84.5973 150.693 85.4154 145.716 86.3848C138.525 87.7804 131.416 89.5679 124.424 91.7473C122.313 92.3935 120.23 93.0673 118.12 93.741L118.099 93.6585L118.477 93.3423C122.547 89.8635 126.59 86.3848 130.687 82.9473C139.666 75.3573 147.765 67.0316 155.286 58.2454C157.335 55.8598 159.101 53.3091 160.009 50.401C161.384 46.0354 159.844 43.3198 155.416 42.096C153.54 41.6419 151.613 41.4294 149.683 41.4635C145.461 41.4429 141.295 42.1373 137.177 42.976C132.88 43.8698 126.658 45.451 122.444 46.7298C115.7 48.7923 107.367 52.3398 99.9283 55.351C96.1333 56.8291 92.0908 58.7266 88.3095 60.2048L74.0164 66.021C55.0414 74.1816 49.5208 68.3173 49.5208 68.3173C49.5208 68.3448 49.5277 68.3654 49.5414 68.386C49.5054 68.3332 49.4776 68.2753 49.4589 68.2141C45.767 75.4879 48.8402 88.7016 70.1802 79.2623C73.5352 77.956 76.9452 76.5398 80.2795 75.2541C86.7077 72.7448 93.0739 69.6441 99.5295 67.1623C103.97 65.3356 108.446 63.5982 112.956 61.951L117.026 60.3698C121.2 58.9948 125.373 57.6335 129.628 56.5748C134.269 55.3785 138.318 54.6566 140.766 54.9729C141.013 54.9935 141.268 55.0141 141.501 55.0623C142.615 55.2066 143.206 55.7979 143.103 56.5748C143.062 57.7779 141.123 61.7654 123.475 76.4573C122.19 77.5573 120.904 78.671 119.618 79.7641C117.638 81.476 115.72 83.1604 113.775 84.8516L112.152 86.2816L112.131 86.3023L111.375 86.976C111.316 87.0386 111.252 87.0961 111.183 87.1479L110.997 87.3129L109.519 88.4335C109.418 88.5303 109.313 88.6221 109.203 88.7085V107.36C115.445 105.229 145.819 95.0954 149.091 98.0654C149.346 98.4091 153.203 100.809 117.886 124.967C116.497 126.019 115.15 127.071 113.761 128.13L108.653 132.028C102.266 136.648 95.9202 141.282 89.5402 145.902L86.7695 147.902C86.7283 152.942 86.7077 157.768 86.687 162.202L154.062 112.482C158.171 109.02 162.065 105.31 165.722 101.372C167.785 99.1654 169.641 96.821 170.865 94.1466C171.497 92.751 171.965 91.4035 171.772 89.9529V89.946ZM61.9989 166.41C61.1305 167.492 60.6876 168.855 60.7534 170.241C60.8193 171.628 61.3893 172.942 62.3564 173.938C63.239 174.873 64.4146 175.48 65.6886 175.656C66.9626 175.832 68.2586 175.568 69.362 174.907L72.057 172.927C72.0777 168.878 72.1258 163.949 72.1602 158.627L63.0577 165.379C62.6644 165.678 62.3089 166.024 61.9989 166.41Z" fill="white"/>
<path fill-rule="evenodd" clip-rule="evenodd" d="M85.003 88.9976C84.6686 87.7489 83.8912 86.6646 82.8158 85.9473C81.7404 85.2299 80.4406 84.9285 79.1593 85.0995C77.8784 85.2574 76.6998 85.879 75.8461 86.8468C74.9923 87.8145 74.5225 89.0614 74.5255 90.352V112.338C74.5255 116.786 74.333 138.862 74.168 157.177C74.1268 162.429 74.0786 167.359 74.058 171.477C74.0168 176.702 73.9961 180.621 73.9961 182.223C73.9934 182.92 74.1283 183.61 74.3932 184.255C74.658 184.899 75.0475 185.485 75.5393 185.979C76.0312 186.473 76.6157 186.865 77.2593 187.132C77.9029 187.399 78.593 187.537 79.2899 187.537H79.3518C80.7612 187.537 82.113 186.977 83.1096 185.98C84.1062 184.984 84.6661 183.632 84.6661 182.223C84.6661 178.538 84.7074 171.807 84.7486 163.564C84.7693 159.164 84.8174 154.31 84.8311 149.271C84.9824 126.356 85.1886 99.3582 85.1749 90.352C85.1702 89.8954 85.1125 89.4409 85.003 88.9976Z" fill="white"/>
</g>
<defs>
<clipPath id="clip0_108_85">
<rect width="220" height="220" fill="white"/>
</clipPath>
</defs>
</svg>
