<svg width="220" height="220" viewBox="0 0 220 220" fill="none" xmlns="http://www.w3.org/2000/svg">
<g clip-path="url(#clip0_108_84)">
<path d="M110 220C170.751 220 220 170.751 220 110C220 49.2487 170.751 0 110 0C49.2487 0 0 49.2487 0 110C0 170.751 49.2487 220 110 220Z" fill="#272D63"/>
<path d="M138.978 49.5L134.166 69.0387C149.043 74.2362 159.995 82.0325 157.857 96.47C157.238 100.856 155.726 105.249 152.604 108.57C149.93 111.437 145.75 112.956 142.182 114.125C137.903 115.572 133.429 116.358 128.913 116.456C125.888 116.456 122.946 116.366 119.921 116.098C115.026 115.734 110.034 115.287 105.229 114.214C103.716 113.857 102.286 113.589 100.952 113.224L94.4487 139.487L90.6194 153.828L85.8069 173.463L73.9681 170.507L78.87 150.693C76.1062 149.978 73.2531 149.174 70.4069 148.452L55 144.602L60.8781 131.058C60.8781 131.058 69.6094 133.396 69.5131 133.217C72.9025 134.021 74.3256 131.78 74.9444 130.35L81.6269 103.455L84.7412 90.9975L88.3094 76.6562C88.4813 74.1469 87.5944 70.9225 82.7819 69.7537C82.9606 69.6644 74.1469 67.6019 74.1469 67.6019L77.2612 54.8762L93.555 59.0012C96.0575 59.62 98.5462 60.1631 101.131 60.7887L105.944 41.25L117.782 44.2062L113.066 63.3875C116.181 64.1094 119.391 64.8244 122.506 65.6287L127.132 46.5369L138.978 49.5ZM138.002 120.312C141.295 119.769 145.303 118.429 148.149 117.26C148.239 117.171 148.424 117.171 148.507 117.081C154.653 122.547 157.589 131.422 153.581 142.807C147.256 161.274 132.034 162.793 111.904 158.943L107.009 178.75L95.2531 175.794L99.7906 156.881L99.9694 156.255L103.537 141.728C114.042 144.066 128.205 145.585 130.872 134.647C132.302 128.824 129.539 124.609 125.084 121.564L129.717 121.289C133.017 121.117 134.702 120.849 138.002 120.306V120.312ZM134.523 96.2844C138.002 82.2113 116.442 79.1656 109.773 77.3781L103.888 101.214C110.571 102.919 131.23 109.732 134.523 96.2844Z" fill="#FEFEFE"/>
</g>
<defs>
<clipPath id="clip0_108_84">
<rect width="220" height="220" fill="white"/>
</clipPath>
</defs>
</svg>
