<svg width="220" height="220" viewBox="0 0 220 220" fill="none" xmlns="http://www.w3.org/2000/svg">
<g clip-path="url(#clip0_108_87)">
<path d="M110 220C170.751 220 220 170.751 220 110C220 49.2487 170.751 0 110 0C49.2487 0 0 49.2487 0 110C0 170.751 49.2487 220 110 220Z" fill="#00AAFF"/>
<path d="M109.739 33.9619C67.8838 33.9619 33.9625 67.8832 33.9625 109.738C33.9625 151.586 67.8838 185.521 109.739 185.521C151.587 185.521 185.522 151.586 185.522 109.738C185.522 67.8832 151.587 33.9619 109.739 33.9619ZM109.979 45.9657C116.043 45.9638 122.017 47.4262 127.394 50.2286C132.771 53.031 137.392 57.0905 140.863 62.0619C144.335 67.0332 146.554 72.7694 147.333 78.7826C148.112 84.7958 147.428 90.9082 145.338 96.6C142.082 96.0284 138.745 96.1185 135.525 96.865C132.305 97.6115 129.268 98.9991 126.596 100.945C128.934 98.7101 130.793 96.0242 132.062 93.0498C133.331 90.0754 133.984 86.8745 133.98 83.6407C133.978 77.2703 131.448 71.1611 126.946 66.6546C122.443 62.1482 116.336 59.613 109.966 59.6057C104.02 59.6105 98.2874 61.8194 93.8759 65.8055C89.4645 69.7916 86.6875 75.2716 86.0819 81.1863C81.5655 80.3794 76.9461 80.333 72.4144 81.0488C73.0675 71.5304 77.3088 62.6147 84.2816 56.1027C91.2543 49.5906 100.439 45.9677 109.979 45.9657ZM123.833 116.723L110.509 108.748C110.074 108.486 109.576 108.35 109.069 108.353C108.562 108.357 108.066 108.501 107.635 108.769L95.9475 115.988C95.4905 116.266 95.1247 116.672 94.8951 117.156C94.6655 117.64 94.5821 118.18 94.655 118.71C94.9624 120.933 94.7997 123.195 94.1775 125.351C93.5553 127.507 92.4874 129.509 91.0429 131.226C89.5985 132.943 87.8096 134.338 85.7921 135.321C83.7746 136.303 81.5733 136.851 79.3307 136.929C77.1898 136.996 75.0572 136.632 73.0599 135.858C71.0626 135.085 69.2413 133.917 67.7044 132.425C66.1676 130.933 64.9465 129.147 64.114 127.174C63.2814 125.2 62.8543 123.079 62.8581 120.938C62.8823 116.754 64.5381 112.745 67.4734 109.763C70.4086 106.782 74.3915 105.063 78.5744 104.974C80.8715 104.935 83.1499 105.393 85.2537 106.316C87.3576 107.239 89.2371 108.606 90.7638 110.323C91.6163 111.285 93.0325 111.491 94.1463 110.873L105.408 104.554C105.835 104.312 106.191 103.962 106.44 103.538C106.689 103.114 106.821 102.633 106.824 102.141V101.454C106.82 100.873 106.634 100.308 106.293 99.8378C105.951 99.368 105.471 99.017 104.919 98.8344C101.257 97.6129 98.16 95.1076 96.2004 91.781C94.2409 88.4544 93.551 84.5312 94.2581 80.7357C94.9653 76.9401 97.0217 73.5286 100.048 71.1309C103.074 68.7332 106.865 67.5113 110.722 67.6907C114.616 67.8916 118.304 69.5044 121.096 72.2275C123.887 74.9506 125.591 78.5974 125.888 82.4857C126.165 86.2123 125.125 89.9178 122.95 92.9567C120.776 95.9957 117.604 98.1754 113.988 99.1163C113.387 99.2644 112.853 99.6084 112.469 100.094C112.086 100.579 111.875 101.179 111.87 101.798V101.914C111.87 102.877 112.379 103.764 113.19 104.273L125.022 111.546C125.591 111.9 126.27 112.034 126.931 111.922C127.591 111.811 128.189 111.462 128.611 110.941C130.149 109.022 132.109 107.484 134.339 106.446C136.569 105.409 139.008 104.9 141.467 104.96C145.706 105.123 149.707 106.964 152.589 110.077C155.472 113.19 156.999 117.32 156.836 121.56C156.673 125.799 154.832 129.8 151.719 132.682C148.606 135.564 144.476 137.092 140.236 136.929C138.077 136.811 135.964 136.257 134.024 135.302C132.084 134.346 130.358 133.008 128.949 131.367C127.539 129.727 126.477 127.818 125.824 125.757C125.172 123.695 124.943 121.522 125.153 119.37C125.208 118.849 125.113 118.323 124.879 117.854C124.645 117.385 124.282 116.993 123.833 116.723ZM78.8219 158.2C73.9259 158.202 69.0775 157.239 64.5537 155.366C60.03 153.494 55.9195 150.748 52.4572 147.287C48.9948 143.825 46.2485 139.715 44.3751 135.191C42.5017 130.668 41.5379 125.82 41.5388 120.924C41.5352 115.422 42.7498 109.988 45.0954 105.011C47.441 100.034 50.8594 95.6382 55.1051 92.1391C59.3509 88.64 64.3187 86.1243 69.6519 84.7726C74.9851 83.4209 80.5514 83.2668 85.9513 84.3213C86.1299 90.6241 88.7824 96.6032 93.335 100.966C89.1288 97.8921 84.052 96.24 78.8425 96.2494C72.3689 96.3575 66.1969 99.005 61.6571 103.621C57.1173 108.237 54.5732 114.453 54.5732 120.927C54.5732 127.402 57.1173 133.617 61.6571 138.233C66.1969 142.849 72.3689 145.497 78.8425 145.605C83.7754 145.604 88.5945 144.123 92.6761 141.353C96.7578 138.583 99.914 134.651 101.736 130.068C102.912 135.196 105.084 139.933 108.013 144.113C104.527 148.513 100.089 152.067 95.0337 154.507C89.9782 156.948 84.4358 158.213 78.8219 158.207V158.2ZM141.082 158.2C131.633 158.199 122.536 154.612 115.631 148.162C108.725 141.712 104.526 132.881 103.881 123.454C108.078 124.093 112.349 124.067 116.538 123.378C116.983 127.84 118.635 132.097 121.317 135.691C123.999 139.285 127.609 142.08 131.76 143.776C135.911 145.473 140.445 146.007 144.877 145.32C149.308 144.634 153.468 142.753 156.911 139.88C160.354 137.007 162.949 133.25 164.418 129.013C165.886 124.776 166.173 120.219 165.247 115.832C164.32 111.444 162.216 107.392 159.16 104.11C156.105 100.828 152.212 98.4413 147.902 97.205C149.333 93.2118 150.118 89.0156 150.226 84.775C159.025 87.0175 166.704 92.3937 171.821 99.8951C176.939 107.396 179.143 116.507 178.021 125.518C176.899 134.529 172.527 142.821 165.726 148.838C158.925 154.855 150.163 158.184 141.082 158.2Z" fill="white"/>
<path d="M110 20.625C60.6444 20.625 20.625 60.6444 20.625 110C20.625 159.356 60.6444 199.375 110 199.375C159.356 199.375 199.375 159.356 199.375 110C199.375 60.6444 159.356 20.625 110 20.625ZM109.739 192.651C63.9513 192.651 26.84 155.54 26.84 109.752C26.84 63.965 63.9513 26.8606 109.739 26.8606C155.519 26.8606 192.631 63.9719 192.631 109.752C192.631 155.54 155.519 192.651 109.739 192.651Z" fill="white"/>
</g>
<defs>
<clipPath id="clip0_108_87">
<rect width="220" height="220" fill="white"/>
</clipPath>
</defs>
</svg>
