<svg width="220" height="220" viewBox="0 0 220 220" fill="none" xmlns="http://www.w3.org/2000/svg">
<g clip-path="url(#clip0_108_88)">
<path d="M110 220C170.751 220 220 170.751 220 110C220 49.2487 170.751 0 110 0C49.2487 0 0 49.2487 0 110C0 170.751 49.2487 220 110 220Z" fill="#504C4C"/>
<path d="M74.4356 105.71L62.4387 131.134L68.0212 151.979L82.225 155.774L99.8525 173.422L94.545 178.75L52.525 167.475L41.25 125.455L49.7063 117.013L86.4325 80.2794L74.4356 105.71L62.4387 131.134L99.8525 93.72L86.4325 80.2794L74.4356 105.71ZM93.72 120.147L131.134 157.561L151.979 151.979L155.787 137.775L173.422 120.147L178.75 125.455L167.489 167.489L125.455 178.75L80.2931 133.567L93.72 120.147ZM126.28 99.8525L88.8662 62.4387L68.0075 68.0212L64.2125 82.2044L46.5781 99.8525L41.25 94.545L52.525 52.5113L94.545 41.25L102.987 49.7063L139.7 86.4187L126.28 99.8525ZM137.775 64.2125L120.147 46.5781L125.455 41.25L167.489 52.5113L178.75 94.545L133.567 139.707L120.147 126.28L157.575 88.8525L151.979 68.0075L137.775 64.2125Z" fill="white"/>
</g>
<defs>
<clipPath id="clip0_108_88">
<rect width="220" height="220" fill="white"/>
</clipPath>
</defs>
</svg>
