<svg width="220" height="220" viewBox="0 0 220 220" fill="none" xmlns="http://www.w3.org/2000/svg">
<g clip-path="url(#clip0_108_92)">
<path d="M110 220C170.751 220 220 170.751 220 110C220 49.2487 170.751 0 110 0C49.2487 0 0 49.2487 0 110C0 170.751 49.2487 220 110 220Z" fill="#35BAEB"/>
<path d="M62.0814 34.375L105.215 72.6344C105.717 73.095 106.26 73.48 106.68 73.975C106.727 74.2681 106.748 74.565 106.741 74.8619C106.721 91.3413 106.783 107.807 106.721 124.266C104.563 124.71 102.495 125.512 100.602 126.638L62.4939 88.5363C62.347 88.4168 62.2328 88.2621 62.1618 88.0866C62.0909 87.9111 62.0656 87.7205 62.0883 87.5325C62.1295 69.8088 62.0883 52.0987 62.1295 34.3887L62.0814 34.375ZM113.28 93.5481C123.725 94.2468 133.654 98.347 141.55 105.222C139.301 107.628 136.875 109.897 134.551 112.255C129.642 117.15 124.768 122.086 119.838 126.933C117.847 125.634 115.625 124.729 113.293 124.266C113.238 114.043 113.293 103.799 113.293 93.5481H113.28ZM62.102 98.1406C73.2945 109.23 84.4183 120.395 95.5901 131.505C94.2839 133.533 93.3489 135.768 92.8264 138.126H62.0814V98.12L62.102 98.1406ZM141.893 114.18C143.358 112.778 144.698 111.272 146.245 109.918C153.121 117.781 157.226 127.683 157.933 138.105C147.847 138.146 137.741 138.105 127.655 138.126C127.05 138.263 127.05 137.562 126.933 137.184C126.45 135.193 125.614 133.305 124.465 131.608C130.24 125.792 136.077 119.996 141.893 114.201V114.18ZM62.0814 144.664H88.3508C89.8564 144.664 91.362 144.595 92.8883 144.698C93.3558 147.022 94.2633 149.236 95.5489 151.216L74.2364 172.473C74.0783 172.597 73.817 172.975 73.6314 172.679C66.8298 164.85 62.7739 155.012 62.0814 144.664ZM127.133 144.698C131.464 144.602 135.754 144.698 140.085 144.664H157.933C157.258 154.925 153.259 164.687 146.541 172.473L134.111 160.084C131.003 156.956 127.834 153.883 124.761 150.714C125.909 148.871 126.713 146.829 127.133 144.698ZM118.511 156.592C118.993 156.317 119.474 156.028 119.955 155.788L141.653 177.444C133.747 184.377 123.772 188.503 113.28 189.179V158.496C115.106 158.129 116.864 157.48 118.491 156.571L118.511 156.592ZM86.9483 168.926C91.362 164.553 95.7276 160.126 100.183 155.794C102.176 157.073 104.397 157.994 106.714 158.496V189.179C96.2644 188.498 86.3298 184.395 78.4439 177.506C81.2145 174.598 84.1226 171.813 86.9483 168.946V168.926Z" fill="white"/>
</g>
<defs>
<clipPath id="clip0_108_92">
<rect width="220" height="220" fill="white"/>
</clipPath>
</defs>
</svg>
