<svg width="220" height="220" viewBox="0 0 220 220" fill="none" xmlns="http://www.w3.org/2000/svg">
<g clip-path="url(#clip0_108_98)">
<path d="M110 220C170.751 220 220 170.751 220 110C220 49.2487 170.751 0 110 0C49.2487 0 0 49.2487 0 110C0 170.751 49.2487 220 110 220Z" fill="black"/>
<path d="M190.733 93.0812C189.646 87.7998 188.038 82.639 185.934 77.6743C183.861 72.7842 181.324 68.1039 178.358 63.6974C175.417 59.3441 172.063 55.285 168.341 51.5768C164.631 47.855 160.57 44.5004 156.214 41.5599C151.801 38.6091 147.124 36.0728 142.244 33.9837C132.151 29.7031 121.3 27.4971 110.337 27.4971C99.3739 27.4971 88.5229 29.7031 78.4301 33.9837C68.6706 38.1002 59.8064 44.0782 52.3326 51.5837C48.6114 55.2897 45.2569 59.3465 42.3157 63.6974C39.3644 68.1127 36.8282 72.7916 34.7394 77.6743C30.4588 87.7671 28.2528 98.6181 28.2528 109.581C28.2528 120.544 30.4588 131.395 34.7394 141.488C36.7607 146.369 39.3732 150.996 42.3157 155.458C45.2567 159.813 48.6112 163.875 52.3326 167.586C56.0429 171.307 60.1043 174.662 64.4601 177.602C68.8326 180.545 73.5488 183.075 78.4301 185.179C88.5229 189.459 99.3739 191.665 110.337 191.665C121.3 191.665 132.151 189.459 142.244 185.179C147.125 183.157 151.752 180.545 156.214 177.602C160.57 174.662 164.631 171.307 168.341 167.586C172.063 163.875 175.418 159.814 178.358 155.458C181.301 151.086 183.831 146.369 185.934 141.488C192.411 126.214 194.085 109.33 190.733 93.0812ZM110.413 181.391C70.7644 181.391 38.6926 149.229 38.6926 109.664C38.6926 70.0981 70.8538 37.9368 110.413 37.9368C149.978 37.9368 182.139 70.0981 182.139 109.664C182.139 149.229 149.985 181.391 110.413 181.391Z" fill="white"/>
<path d="M111.684 175.162H113.623C113.96 175.162 114.29 175.162 114.627 175.072H114.716C115.053 175.072 115.301 175.072 115.637 174.99H115.892C116.146 174.99 116.401 174.99 116.648 174.907H116.902C117.157 174.907 117.411 174.825 117.748 174.825H117.913C118.25 174.825 118.587 174.735 118.924 174.735C119.261 174.735 119.515 174.653 119.852 174.57H120.017C120.271 174.57 120.526 174.488 120.773 174.488H120.945C121.282 174.398 121.536 174.398 121.873 174.316C122.54 174.233 123.214 174.062 123.805 173.897H123.977C124.224 173.814 124.561 173.814 124.816 173.725H124.898C125.572 173.56 126.163 173.388 126.837 173.223C120.531 173.423 114.226 172.829 108.068 171.456C98.8005 169.435 89.9662 165.818 82.4724 159.583C76.5646 154.666 71.8234 148.498 68.5917 141.525C65.36 134.551 63.7186 126.947 63.7862 119.261C63.8468 107.795 67.9267 96.7133 75.3155 87.9453C84.913 76.5809 98.553 70.5997 112.523 70.2628H114.462V59.0703H112.276C108.026 59.1482 103.794 59.6549 99.6462 60.5828C95.4719 61.5267 91.409 62.9094 87.5255 64.7078C83.5655 66.5641 79.8599 68.8328 76.4087 71.4453C72.8423 74.1563 69.5949 77.263 66.7287 80.7059C64.03 83.8923 61.6877 87.3642 59.7437 91.0597C57.8204 94.6222 56.2677 98.3727 55.1099 102.252C53.9742 106.072 53.2144 109.993 52.8412 113.96L52.5868 117.659V119.845C52.6693 124.142 53.178 128.35 54.0993 132.475C55.0274 136.689 56.4574 140.725 58.2243 144.602C60.3349 149.229 64.123 156.049 69.7605 161.185C81.2714 170.259 95.5075 175.184 110.165 175.162H111.684Z" fill="white"/>
<path d="M130.034 164.381C125.882 164.233 121.746 163.783 117.659 163.034C100.32 159.919 85.4152 149.311 79.9496 133.32C73.2946 113.871 83.4833 92.8264 102.843 86.4326C106.533 85.1962 110.399 84.5692 114.29 84.5764C119.261 84.5764 124.225 85.587 128.776 87.4364L133.485 77.4195C132.069 76.8517 130.638 76.3198 129.195 75.8245C124.372 74.3106 119.346 73.5432 114.29 73.5489C109.225 73.5583 104.195 74.3824 99.3921 75.9895C93.2621 78.0113 87.6164 81.2789 82.8096 85.587C80.4914 87.652 78.3778 89.9359 76.4984 92.407C74.6404 94.8498 73.0327 97.4732 71.6996 100.238C68.985 105.795 67.3829 111.83 66.9834 118.003C66.564 124.396 67.4027 130.79 69.5065 136.854C71.65 143.092 75.0949 148.803 79.6127 153.608C83.7377 158.07 88.5365 161.439 94.339 164.553C100.403 167.75 107.896 169.434 115.72 170.534C120.773 171.201 127.511 171.373 131.464 171.373C134.915 170.108 136.345 169.517 138.201 168.761C139.803 168.004 141.398 167.248 143 166.32C144.602 165.392 144.856 165.22 147.545 163.46C147.784 163.311 148.01 163.141 148.218 162.951C138.958 164.553 136.6 164.464 130.034 164.381Z" fill="white"/>
<path d="M150.748 151.842C148.136 152.007 144.43 152.254 140.222 152.254C132.729 152.254 123.551 151.587 115.727 148.975C103.599 144.939 92.1524 134.585 92.1524 121.784C92.1497 118.754 92.7444 115.754 93.9026 112.954C95.0608 110.154 96.7597 107.611 98.9021 105.468C101.044 103.326 103.588 101.627 106.388 100.469C109.188 99.3106 112.188 98.7158 115.218 98.7185C123.887 98.7185 131.381 103.517 135.341 110.502L145.358 105.539C143.787 102.582 141.77 99.8846 139.377 97.5429C136.206 94.3664 132.439 91.8463 128.293 90.1269C124.147 88.4075 119.703 87.5225 115.215 87.5225C110.726 87.5225 106.282 88.4075 102.136 90.1269C97.9898 91.8463 94.2235 94.3664 91.0524 97.5429C87.8769 100.714 85.3578 104.48 83.639 108.625C81.9202 112.77 81.0355 117.214 81.0355 121.702C81.058 126.405 82.065 131.051 83.9918 135.342C85.7518 139.212 88.1993 142.835 91.3136 146.204C96.7861 152.089 104.273 156.805 112.276 159.5C119.934 162.024 131.216 162.952 142.161 162.195C145.186 161.941 147.462 161.687 151.332 160.848C155.068 157.9 158.458 154.54 161.439 150.831C158.826 151.085 154.027 151.587 150.748 151.842Z" fill="white"/>
</g>
<defs>
<clipPath id="clip0_108_98">
<rect width="220" height="220" fill="white"/>
</clipPath>
</defs>
</svg>
