<svg width="220" height="220" viewBox="0 0 220 220" fill="none" xmlns="http://www.w3.org/2000/svg">
<g clip-path="url(#clip0_108_91)">
<path d="M110 220C170.751 220 220 170.751 220 110C220 49.2487 170.751 0 110 0C49.2487 0 0 49.2487 0 110C0 170.751 49.2487 220 110 220Z" fill="#FB2EA3"/>
<path d="M155.595 96.3875C154.034 106.941 148.184 112.049 140.422 113.836C151.078 119.384 156.509 127.902 151.339 142.656C144.925 160.985 129.69 162.525 109.429 158.696L104.5 178.406L92.62 175.443L97.4738 156.001C94.3071 155.214 91.149 154.394 88 153.539L83.1325 173.078L71.2594 170.122L76.1819 150.37C73.4044 149.662 70.5857 148.906 67.705 148.184L52.2432 144.334L58.1419 130.721C58.1419 130.721 66.9007 133.059 66.7769 132.88C70.1457 133.712 71.6375 131.519 72.2288 130.061L79.9975 98.9037L81.2557 99.2131C80.8522 99.0554 80.4388 98.9245 80.0182 98.8212L85.5594 76.5806C85.7038 74.0506 84.8375 70.8744 80.025 69.6644C80.2107 69.5406 71.39 67.5194 71.39 67.5194L74.5525 54.8281L90.9425 58.9187L90.9288 58.9875C93.39 59.5925 95.9338 60.1769 98.5188 60.7681L103.393 41.25L115.273 44.2062L110.502 63.3462C113.685 64.075 116.896 64.8037 120.017 65.5875L124.761 46.5781L136.641 49.5344L131.773 69.0594C146.781 74.2294 157.754 81.9775 155.595 96.3875ZM128.439 134.461C132.289 119.075 106.453 115.094 98.395 113.08L91.8707 139.239C99.9282 141.24 124.774 149.222 128.446 134.461H128.439ZM132.117 96.1744C135.609 82.17 114.008 79.0556 107.298 77.3781L101.386 101.104C108.089 102.781 128.769 109.601 132.117 96.1744ZM166.698 148.624C166.122 148.547 165.536 148.584 164.975 148.734C164.413 148.884 163.887 149.143 163.426 149.497C162.532 150.263 161.926 151.31 161.707 152.467C161.566 153.11 161.52 153.77 161.569 154.426C161.628 155.174 161.869 155.896 162.271 156.53C162.683 157.217 163.343 157.864 164.237 158.469C165.131 159.067 166.368 159.548 167.949 159.912C168.802 160.119 169.682 160.215 170.583 160.208C171.49 160.208 172.329 160.064 173.099 159.775C173.913 159.488 174.639 158.994 175.205 158.342C175.772 157.69 176.159 156.902 176.33 156.056C176.492 155.452 176.533 154.822 176.451 154.203C176.368 153.583 176.163 152.986 175.849 152.446C175.216 151.387 174.178 150.576 172.728 150.012L173.786 145.434C176.399 146.486 178.228 147.991 179.286 149.937C180.345 151.889 180.565 154.206 179.946 156.887C179.633 158.374 179.013 159.779 178.124 161.012C177.326 162.1 176.304 163.003 175.126 163.66C173.948 164.318 172.642 164.714 171.298 164.821C169.819 164.955 168.328 164.846 166.884 164.498C165.399 164.167 163.973 163.61 162.656 162.848C161.441 162.153 160.382 161.217 159.541 160.098C158.724 158.987 158.165 157.706 157.905 156.351C157.628 154.796 157.686 153.2 158.077 151.669C158.34 150.507 158.763 149.387 159.335 148.342C159.892 147.324 160.573 146.465 161.391 145.764C162.202 145.062 163.137 144.554 164.196 144.237C165.261 143.914 166.444 143.852 167.757 144.038L166.698 148.624ZM185.206 134.097C184.882 135.625 184.253 137.073 183.356 138.352C182.511 139.521 181.5 140.442 180.331 141.123C179.122 141.81 177.783 142.236 176.399 142.374C174.863 142.528 173.313 142.421 171.813 142.058C170.319 141.728 168.892 141.147 167.592 140.339C166.41 139.609 165.394 138.639 164.608 137.493C163.837 136.341 163.322 135.038 163.096 133.671C162.853 132.13 162.923 130.557 163.302 129.044C163.626 127.515 164.255 126.068 165.151 124.788C166.004 123.619 167.008 122.691 168.183 122.017C169.392 121.331 170.732 120.904 172.116 120.766C173.559 120.608 175.072 120.711 176.653 121.076C178.16 121.405 179.601 121.986 180.916 122.794C182.153 123.578 183.143 124.527 183.899 125.647C184.656 126.768 185.158 128.04 185.412 129.463C185.655 131.006 185.585 132.582 185.206 134.097ZM167.166 114.861L168.163 110.564L172.178 111.492L172.198 111.409C171.637 111.121 171.14 110.723 170.734 110.241C169.801 109.156 169.183 107.836 168.946 106.425C168.831 105.712 168.854 104.984 169.015 104.28C169.139 103.7 169.314 103.132 169.538 102.582L173.958 103.599C173.829 103.915 173.708 104.234 173.594 104.555C173.478 104.872 173.382 105.196 173.305 105.524C173.115 106.279 173.098 107.066 173.255 107.828C173.412 108.59 173.74 109.307 174.213 109.924C174.748 110.616 175.411 111.2 176.165 111.643C176.983 112.145 177.966 112.53 179.121 112.798L189.008 115.081L187.949 119.659L167.166 114.861ZM182.841 99.8044C183.638 99.9969 184.443 100.059 185.247 100.011C186.011 99.9627 186.758 99.7665 187.447 99.4331C188.13 99.0986 188.729 98.6146 189.2 98.0169C189.731 97.3168 190.098 96.5061 190.273 95.645C190.592 94.5149 190.551 93.3134 190.156 92.2075C189.709 91.1895 188.951 90.3397 187.99 89.7806L188.987 85.4425C190.478 86.1204 191.753 87.198 192.669 88.5559C193.585 89.9139 194.107 91.499 194.178 93.1356C194.246 94.2356 194.15 95.3494 193.896 96.4769C193.518 98.1131 192.913 99.5019 192.088 100.636C191.295 101.75 190.264 102.673 189.07 103.339C187.876 104.005 186.549 104.397 185.185 104.486C182.173 104.727 179.162 104.015 176.578 102.451C175.396 101.712 174.365 100.756 173.539 99.6325C172.735 98.5234 172.17 97.2591 171.882 95.92C171.573 94.5587 171.607 93.1012 171.958 91.5406C172.286 90.0052 172.987 88.5743 173.999 87.3744C174.948 86.2621 176.128 85.3705 177.458 84.7619C178.817 84.16 180.282 83.8329 181.768 83.7994C183.322 83.7444 184.848 83.9919 186.361 84.535L182.834 99.8112L182.841 99.8044ZM181.589 133.265C181.816 132.384 181.816 131.46 181.59 130.579C181.365 129.698 180.92 128.889 180.297 128.226C179.696 127.57 178.984 127.025 178.193 126.617C176.553 125.754 174.718 125.328 172.865 125.379C171.976 125.396 171.098 125.576 170.273 125.909C169.427 126.235 168.676 126.77 168.091 127.463C167.506 128.157 167.105 128.986 166.925 129.876C166.696 130.753 166.692 131.674 166.913 132.554C167.134 133.433 167.573 134.243 168.19 134.908C168.761 135.554 169.462 136.084 170.294 136.517C171.935 137.377 173.769 137.803 175.622 137.754C176.513 137.732 177.392 137.553 178.221 137.225C179.07 136.902 179.824 136.37 180.413 135.677C181.002 134.985 181.407 134.155 181.589 133.265ZM182.291 88.4194C181.562 88.3056 180.821 88.2986 180.091 88.3987C179.395 88.4765 178.722 88.6909 178.11 89.0295C177.498 89.3681 176.958 89.8243 176.523 90.3719C176.072 90.9812 175.748 91.6751 175.571 92.4121C175.394 93.1491 175.367 93.9142 175.491 94.6619C175.629 95.3837 175.883 96.0369 176.268 96.6212C177.117 97.8509 178.378 98.7361 179.823 99.1169L182.291 88.4194Z" fill="white"/>
</g>
<defs>
<clipPath id="clip0_108_91">
<rect width="220" height="220" fill="white"/>
</clipPath>
</defs>
</svg>
