<svg width="220" height="220" viewBox="0 0 220 220" fill="none" xmlns="http://www.w3.org/2000/svg">
<g clip-path="url(#clip0_108_93)">
<path d="M110 220C170.751 220 220 170.751 220 110C220 49.2487 170.751 0 110 0C49.2487 0 0 49.2487 0 110C0 170.751 49.2487 220 110 220Z" fill="#2D2D2D"/>
<path d="M80.4788 132.66L27.5 115.294H62.9406L66.4469 98.4981L97.9206 98.5187L105.772 55H137.438C158.874 55 167.564 63.6281 164.354 81.4344L163.666 85.25C161.789 95.6244 157.053 102.52 148.912 106.501C156.977 110.626 159.686 118.429 157.658 129.669L156.09 138.373C152.955 155.739 140.181 165 119.432 165H85.9169L94.6 116.923H84.0812L80.4788 132.66ZM115.307 113.774L108.817 149.731H122.189C130.123 149.731 134.53 146.211 136.029 137.906L137.713 128.604C139.624 117.996 135.953 113.774 125.551 113.774H115.307ZM123.166 70.2625L117.501 101.64H127.208C136.063 101.64 141.24 97.8588 142.828 89.0588L143.907 83.105C145.454 74.5319 142.251 70.2625 134.131 70.2625H124.438H123.166Z" fill="white"/>
</g>
<defs>
<clipPath id="clip0_108_93">
<rect width="220" height="220" fill="white"/>
</clipPath>
</defs>
</svg>
