<svg width="220" height="220" viewBox="0 0 220 220" fill="none" xmlns="http://www.w3.org/2000/svg">
<g clip-path="url(#clip0_108_95)">
<path d="M110 220C170.751 220 220 170.751 220 110C220 49.2487 170.751 0 110 0C49.2487 0 0 49.2487 0 110C0 170.751 49.2487 220 110 220Z" fill="#00AEEF"/>
<path d="M95.92 168.169H56.815L64.4875 124.754L105.084 88.1856H70.5581L98.4775 71.0738H143.873L85.1606 129.03L81.2144 151.168C81.2144 151.168 94.325 152.13 104.658 151.168C114.998 150.102 126.61 145.826 126.61 145.826L95.92 168.169ZM157.41 75.2469L139.934 92.3587C139.934 92.3587 154.639 108.721 141.103 131.175C127.786 153.202 83.5588 149.139 83.5588 149.139L86.9688 129.786L149.201 69.0456H97.625L102.85 39.5312H77.9144L68.9631 90.0006H100.719L62.9956 124.011L55 169.778C55 169.778 85.1606 170.631 110.736 169.778C136.414 168.919 166.354 146.891 170.727 121.976C176.694 88.2888 157.41 75.2469 157.41 75.2469Z" fill="white"/>
</g>
<defs>
<clipPath id="clip0_108_95">
<rect width="220" height="220" fill="white"/>
</clipPath>
</defs>
</svg>
