<svg width="220" height="220" viewBox="0 0 220 220" fill="none" xmlns="http://www.w3.org/2000/svg">
<g clip-path="url(#clip0_108_97)">
<path d="M110 220C170.751 220 220 170.751 220 110C220 49.2487 170.751 0 110 0C49.2487 0 0 49.2487 0 110C0 170.751 49.2487 220 110 220Z" fill="#FBB413"/>
<path d="M110.117 149.904C114.68 150.112 119.234 149.324 123.462 147.594C125.139 146.995 126.741 146.205 128.24 145.242C128.372 145.125 128.528 145.037 128.698 144.985C128.867 144.932 129.045 144.917 129.221 144.939C129.397 144.961 129.566 145.02 129.716 145.113C129.867 145.206 129.997 145.329 130.096 145.476L140.952 156.648C141.729 157.459 141.701 157.72 140.773 158.36C137.002 160.945 132.906 163.018 128.59 164.527C123.249 166.353 117.669 167.386 112.029 167.593C104.847 167.963 97.6592 166.981 90.8398 164.699C84.9685 162.664 79.5086 159.595 74.7179 155.637C70.3916 152.059 66.5913 147.888 63.4292 143.249C61.6432 140.719 60.1009 138.026 58.8229 135.205C57.8578 132.974 56.9884 130.703 56.2173 128.399C54.9366 124.169 54.1228 119.812 53.7904 115.405C53.4321 112.169 53.4782 108.901 53.9279 105.677C54.2717 102.487 54.8354 99.3242 55.6123 96.2099C56.9108 91.4498 58.7977 86.8701 61.2292 82.5767C66.4531 73.5361 74.1181 66.1498 83.3461 61.2642C86.8477 59.366 90.5453 57.8538 94.3736 56.7542C97.4789 55.8245 100.668 55.2027 103.895 54.898C106.381 54.5859 108.892 54.5284 111.389 54.7261C111.836 54.7536 112.283 54.7536 112.723 54.7261C116.814 54.8308 120.873 55.4734 124.795 56.6374C128.144 57.5311 131.382 58.7961 134.434 60.4324C137.659 62.0274 140.69 63.9661 143.495 66.2211C144.045 66.7092 144.479 66.4824 144.912 66.0149L151.601 58.9542L161.24 48.7105C162.367 47.4936 162.656 47.4592 163.873 48.5592C167.585 51.9074 171.023 55.558 174.117 59.4767C178.049 64.3595 181.401 69.682 184.106 75.3374C186.272 80.0124 188.052 84.8524 189.434 89.8092C190.596 93.893 190.967 98.0592 191.868 102.143C191.877 102.221 191.877 102.299 191.868 102.377C191.868 106.165 192.707 109.96 192.301 113.748C191.84 118.065 191.607 122.438 190.706 126.694C189.943 130.269 188.974 133.789 187.819 137.254C184.977 145.851 180.72 153.914 175.224 161.11C174.385 162.21 174.124 162.237 173.161 161.11C169.985 157.892 166.802 154.627 163.584 151.444C162.917 150.777 163.007 150.254 163.584 149.532C166.973 144.781 169.72 139.603 171.752 134.132C173.574 128.997 174.825 123.675 175.485 118.265C175.884 114.119 175.966 109.946 175.746 105.794C175.649 103.428 175.366 101.075 174.9 98.7536C173.146 89.224 169.29 80.2053 163.612 72.3536C163.007 71.4874 162.25 70.7036 161.7 69.7824C161.15 68.8542 161.095 69.1155 160.573 69.638C157.507 72.7317 154.351 75.743 151.367 78.8986C150.329 79.9986 149.14 80.8649 148.157 81.9924C147.174 83.1267 145.984 84.1924 144.884 85.2924L141.529 88.6542C141.007 89.1767 140.601 88.9705 140.25 88.4824C137.41 84.3202 133.757 80.7751 129.512 78.0599C125.409 75.4179 120.809 73.6444 115.995 72.8486C112.239 72.2712 108.421 72.2226 104.652 72.7042C100.018 73.1995 95.5301 74.616 91.4517 76.8705C87.0736 79.275 83.2304 82.545 80.1561 86.4817C77.48 89.8711 75.4142 93.7003 74.0511 97.798C72.5163 102.654 71.8211 107.737 71.9954 112.827C71.9338 121.959 75.325 130.777 81.4898 137.515C85.193 141.611 89.735 144.861 94.8067 147.044C99.6192 149.161 104.865 150.144 110.117 149.904Z" fill="white"/>
<path d="M172.129 163.013L142.842 133.196C142.203 132.53 141.673 132.509 141.158 133.196C139.088 136.214 136.581 138.906 133.719 141.185C133.024 141.735 133.024 142.168 133.719 142.808C136.352 145.441 138.958 148.136 141.563 150.769C144.953 154.213 148.335 157.658 151.752 161.102C152.357 161.707 152.329 161.996 151.752 162.518C150.391 163.536 149.057 164.581 147.641 165.413C140.217 170.538 131.791 174.031 122.918 175.663C119.47 176.445 115.948 176.853 112.413 176.88H110.997C108.494 177.052 105.978 176.976 103.503 176.646C100.602 176.213 97.8795 175.863 95.1295 175.258C91.6449 174.464 88.2359 173.369 84.9407 171.985C79.3432 169.654 74.0921 166.566 69.3345 162.807C64.6359 159.109 60.443 154.809 56.8632 150.02C53.0895 145.002 50.0843 139.45 47.9464 133.547C45.604 127.767 44.2715 121.628 44.007 115.397C43.9577 114.74 43.9577 114.081 44.007 113.424V106.597C43.8491 105.861 43.8491 105.099 44.007 104.363C44.007 103.813 44.2407 103.297 44.3301 102.747C44.6189 100.183 45.0726 97.639 45.6914 95.1296C46.482 91.7608 47.5339 88.4608 48.847 85.2571C54.6745 70.9859 65.2736 59.1792 78.8357 51.8515C86.8576 47.3983 95.7446 44.7252 104.892 44.014H106.563C116.086 43.4096 125.626 44.9119 134.503 48.414L136.991 49.4521C140.786 51.1346 144.42 53.1597 147.847 55.5021C147.97 55.6146 148.115 55.7001 148.274 55.7528C148.432 55.8055 148.599 55.8244 148.765 55.8082C148.931 55.792 149.092 55.741 149.237 55.6587C149.382 55.5764 149.508 55.4645 149.607 55.3302C152.68 51.824 155.918 48.4965 159.136 45.1415C159.741 44.5021 159.768 43.9246 159.136 43.4021C148.525 35.6865 136.231 30.6058 123.269 28.5796C119.55 27.9887 115.798 27.6305 112.035 27.5071C106.205 27.4149 100.381 27.9589 94.6689 29.1296C91.0199 29.8548 87.4233 30.8217 83.9026 32.024C77.6326 34.1209 71.6514 36.9946 66.0964 40.5627C59.4276 44.8252 53.3982 49.9952 48.1801 55.9352C41.2106 63.8448 35.8344 73.0261 32.347 82.9746C30.8895 87.1821 29.7345 91.4859 28.9026 95.8584C28.2632 99.6877 27.8301 103.558 27.5964 107.436C27.3603 111.602 27.5539 115.781 28.1739 119.907C28.6276 124.011 29.4114 128.068 30.5182 132.041C31.302 134.73 32.0857 137.425 33.0964 140.03C35.1176 145.255 37.6545 150.274 40.6795 154.997C44.4425 160.808 48.8828 166.15 53.907 170.913C57.1589 173.91 60.6445 176.64 64.3295 179.08C69.2657 182.456 74.5732 185.268 80.142 187.447C85.6832 189.647 91.4651 191.215 97.357 192.136C101.778 192.796 106.239 193.181 110.708 193.291C113.596 193.291 116.497 192.83 119.213 192.768C121.275 192.617 123.317 192.308 125.324 191.847C127.552 191.469 129.752 190.885 131.952 190.307C140.18 188.155 148.001 184.674 155.107 180.001C161.549 175.876 167.393 170.892 172.48 165.186C173.319 164.223 173.291 164.058 172.136 163.013H172.129Z" fill="white"/>
</g>
<defs>
<clipPath id="clip0_108_97">
<rect width="220" height="220" fill="white"/>
</clipPath>
</defs>
</svg>
