<svg width="220" height="220" viewBox="0 0 220 220" fill="none" xmlns="http://www.w3.org/2000/svg">
<g clip-path="url(#clip0_108_94)">
<path d="M110 220C170.751 220 220 170.751 220 110C220 49.2487 170.751 0 110 0C49.2487 0 0 49.2487 0 110C0 170.751 49.2487 220 110 220Z" fill="#36B0F3"/>
<path fill-rule="evenodd" clip-rule="evenodd" d="M96.8689 29.2945C102.369 28.1945 107.972 27.7202 113.575 27.8783C117.068 27.8783 120.56 28.1945 124.005 28.8202C130.708 29.7414 137.17 31.8727 143.475 34.2652C148.06 36.3139 152.866 38.2389 156.592 41.7177C157.63 42.4739 157.073 43.9864 156.152 44.5845C154.021 45.9527 151.456 46.3445 149.023 46.8808C138.05 48.7645 126.885 49.6102 116.105 52.532C111.272 53.6183 106.625 55.392 102.025 57.2277C93.4795 61.0502 85.6214 66.667 79.9358 74.1745C78.8494 75.763 77.804 77.3792 76.8008 79.0214C75.9002 80.7745 74.9927 82.5277 74.257 84.3633C73.707 85.6764 73.1983 87.0033 72.717 88.337C71.7477 91.1764 71.2733 94.1395 70.5514 97.0545C70.3245 98.9658 70.1939 100.891 69.7952 102.781C69.5408 107.113 69.6645 111.444 69.6989 115.775C69.6989 117.219 70.0908 118.635 70.1114 120.086C70.132 121.42 70.3177 122.746 70.6752 124.032C71.3627 127.641 72.2014 131.299 73.7345 134.675C75.7214 139.466 78.8152 143.956 83.2152 146.809C86.8658 149.518 91.3827 150.673 95.8102 151.36C101.723 152.13 107.725 151.429 113.548 150.37C116.593 149.82 119.618 149.133 122.623 148.328C124.527 147.792 126.486 147.435 128.37 146.795C129.093 146.67 129.823 146.602 130.556 146.589C128.198 148.693 125.826 150.783 123.159 152.481C114.07 158.338 103.503 161.391 92.9639 163.357C88.1995 164.333 83.3527 164.911 78.5539 165.736C73.0883 166.526 67.4233 167.18 62.4939 169.861C61.0227 170.892 59.8814 172.295 58.857 173.752C58.5477 174.385 57.9633 173.752 57.6195 173.525C56.4989 172.24 55.062 171.298 53.8452 170.108C52.5471 168.858 51.2727 167.584 50.0227 166.286C48.022 163.955 45.9664 161.659 44.1995 159.15C40.6795 154.378 37.5652 149.27 35.2827 143.798L34.8839 143.619C34.5952 142.045 33.7977 140.656 33.2683 139.164C32.02 135.895 31.009 132.541 30.2433 129.126C29.941 128.084 29.7044 127.023 29.5352 125.95C29.1658 124.744 28.9442 123.497 28.8752 122.238C28.2014 119.281 28.3252 116.229 27.8989 113.245C27.8989 110.756 27.7339 108.247 28.0364 105.765C28.3664 103.703 28.2289 101.592 28.6552 99.5364C29.0745 97.8658 28.992 96.1195 29.5214 94.4764C30.1819 90.7999 31.1477 87.1849 32.4089 83.6689C32.9039 82.3764 33.3508 81.0702 33.8114 79.7708C34.0864 79.1727 34.3133 78.5608 34.4989 77.9352L34.8633 77.502C35.3039 76.2109 35.8728 74.9672 36.5614 73.7895C37.246 72.3559 37.9915 70.9521 38.7958 69.582C39.0295 69.0939 39.2908 68.6195 39.5658 68.1383C43.897 61.3527 48.957 54.9245 55.0483 49.617C62.6046 42.8908 71.2816 37.5413 80.6852 33.8114C85.9134 31.7562 91.3387 30.2427 96.8758 29.2945H96.8689Z" fill="white"/>
<path fill-rule="evenodd" clip-rule="evenodd" d="M159.782 50.8069C161.294 49.9269 162.332 48.5038 163.377 47.1494C171.63 54.2049 178.408 62.8195 183.325 72.4995C188.242 82.1796 191.201 92.7347 192.031 103.56C192.861 114.386 191.547 125.268 188.164 135.585C184.78 145.902 179.395 155.449 172.315 163.681C159.685 178.517 141.549 188.596 122.224 191.27C113.334 192.576 104.28 192.233 95.3974 191.016C88.5911 190.053 81.9361 188.197 75.618 185.481C72.1805 183.969 68.7636 182.195 66.0755 179.514C65.3811 178.909 64.9411 177.905 65.4017 177.032C66.0892 175.966 67.3267 175.437 68.4955 175.059C71.8299 174.096 75.2605 173.533 78.6911 173.003C84.8924 171.924 91.1555 171.229 97.3086 169.875C107.532 167.668 117.755 164.54 126.596 158.806C132.605 154.97 137.899 149.979 141.797 143.998C147.393 135.555 149.978 125.442 150.597 115.418C150.906 107.959 150.734 100.431 149.174 93.1019C147.75 86.7769 145.255 80.4038 140.532 75.7975C136.922 72.0919 132.007 69.7888 126.933 68.9088C118.511 67.3344 109.91 68.8538 101.66 70.71C97.7967 71.6244 93.988 72.7725 90.083 73.5288C95.638 68.2969 102.437 64.5569 109.58 61.9994C113.685 60.48 117.947 59.4694 122.189 58.4725C131.484 56.3825 140.999 55.585 150.377 53.9763C153.649 53.2888 156.977 52.6288 159.782 50.8069Z" fill="white"/>
</g>
<defs>
<clipPath id="clip0_108_94">
<rect width="220" height="220" fill="white"/>
</clipPath>
</defs>
</svg>
