<svg width="220" height="220" viewBox="0 0 220 220" fill="none" xmlns="http://www.w3.org/2000/svg">
<g clip-path="url(#clip0_108_96)">
<path d="M110 220C170.751 220 220 170.751 220 110C220 49.2487 170.751 0 110 0C49.2487 0 0 49.2487 0 110C0 170.751 49.2487 220 110 220Z" fill="#F70808"/>
<path d="M110 41.25L98.5875 61.985C97.295 64.24 94.9782 64.0337 92.6544 62.7756L84.4044 58.6025L90.5507 90.4544C91.85 96.2775 87.6975 96.2775 85.6488 93.7544L71.225 78.0313L68.8875 86.02C68.6125 87.0719 67.43 88.1719 65.6494 87.9106L47.4307 84.1706L52.2088 101.138C53.24 104.913 54.0375 106.473 51.1775 107.463L44.6807 110.447L76.0513 135.279C76.6748 135.753 77.1436 136.401 77.3982 137.142C77.6528 137.882 77.6817 138.682 77.4813 139.439L74.7313 148.225C85.5388 147.008 95.2188 145.186 106.026 144.059C106.982 143.963 108.577 145.496 108.57 146.575L107.147 178.75H112.399L111.574 146.644C111.568 145.564 113.018 143.963 113.967 144.059C124.774 145.186 134.454 147.015 145.255 148.225L142.512 139.439C142.311 138.682 142.339 137.882 142.594 137.141C142.848 136.401 143.318 135.752 143.942 135.279L175.313 110.447L168.816 107.47C165.956 106.473 166.753 104.913 167.784 101.138L172.569 84.1706L154.344 87.9106C152.563 88.1719 151.374 87.0719 151.113 86.02L148.768 78.0313L134.351 93.7612C132.303 96.2775 128.15 96.2775 129.449 90.4613L135.603 58.6025L127.346 62.7756C125.022 64.0337 122.705 64.24 121.413 61.985L110 41.25Z" fill="white"/>
</g>
<defs>
<clipPath id="clip0_108_96">
<rect width="220" height="220" fill="white"/>
</clipPath>
</defs>
</svg>
