<svg width="220" height="220" viewBox="0 0 220 220" fill="none" xmlns="http://www.w3.org/2000/svg">
<g clip-path="url(#clip0_108_99)">
<path d="M110 220C170.751 220 220 170.751 220 110C220 49.2487 170.751 0 110 0C49.2487 0 0 49.2487 0 110C0 170.751 49.2487 220 110 220Z" fill="#272731"/>
<path d="M185.625 110.206C185.625 130.213 177.753 149.394 163.721 163.542C156.8 170.535 148.562 176.087 139.483 179.877C130.404 183.667 120.664 185.621 110.825 185.625V166.361C137.968 166.444 161.184 146.719 165.715 119.735H138.971C140.03 116.6 140.573 113.314 140.58 110C140.537 106.693 139.994 103.411 138.971 100.265H165.715C161.122 73.315 137.94 53.625 110.825 53.6388V34.375C152.13 34.7737 185.453 68.5575 185.625 110.206ZM135.754 126.424H156.874C149.064 149.146 126.129 162.862 102.609 158.874C79.0969 154.873 61.875 134.344 61.875 110.296C61.875 86.2469 79.0969 65.725 102.609 61.7306C126.129 57.7431 149.064 71.4588 156.874 94.1806H135.754C133.376 90.567 130.3 87.4651 126.706 85.0575C123.421 82.9439 119.748 81.5027 115.902 80.8172C112.056 80.1318 108.112 80.2156 104.298 81.064C100.485 81.9124 96.8772 83.5085 93.6844 85.7599C90.4915 88.0113 87.7766 90.8734 85.6969 94.1806C76.8694 108.116 80.9188 126.631 94.7444 135.534C98.0297 137.648 101.701 139.089 105.547 139.775C109.393 140.461 113.337 140.378 117.151 139.53C120.964 138.682 124.572 137.087 127.765 134.836C130.958 132.586 133.673 129.724 135.754 126.418V126.424Z" fill="white"/>
</g>
<defs>
<clipPath id="clip0_108_99">
<rect width="220" height="220" fill="white"/>
</clipPath>
</defs>
</svg>
