<svg width="220" height="220" viewBox="0 0 220 220" fill="none" xmlns="http://www.w3.org/2000/svg">
<g clip-path="url(#clip0_108_105)">
<path d="M110 220C170.751 220 220 170.751 220 110C220 49.2487 170.751 0 110 0C49.2487 0 0 49.2487 0 110C0 170.751 49.2487 220 110 220Z" fill="#3089F2"/>
<path d="M148.686 122.912C145.785 125.408 143.186 127.628 140.615 129.877C140.326 130.131 140.037 130.585 140.037 130.949C139.996 135.335 140.01 139.715 140.01 144.252C146.617 141.461 150.068 132.977 148.686 122.912ZM140.725 96.1203C148.088 91.734 148.961 90.2147 148.988 81.5109C148.988 80.8234 149.009 80.1428 148.982 79.4622C148.665 71.4665 143.193 64.4059 135.617 62.7147C128.81 61.2022 121.949 59.944 115.074 58.7822C111.575 58.184 107.993 57.6753 104.466 57.7922C100.197 57.9297 96.7109 60.1709 93.5003 63.8284C101.283 65.279 108.508 66.7709 115.782 67.9534C125.772 69.5759 133.396 74.5878 137.562 84.1372C139.178 87.8428 139.693 92.0434 140.725 96.1203ZM80.0665 75.4403C74.154 79.1115 71.239 84.089 71.1496 90.2765C70.948 106.982 70.9319 123.689 71.1015 140.395C71.1703 148.487 76.5121 155.424 84.2259 157.308C90.8259 158.917 97.5771 159.907 104.26 161.199C108.495 162.024 112.688 163.275 117.061 162.189C120.636 161.295 123.826 159.79 126.342 156.256C118.326 154.75 110.798 153.093 103.194 151.966C90.1796 150.034 80.0871 138.505 80.0734 125.085C80.0528 109.74 80.0665 94.4015 80.0665 79.0565V75.4403ZM89.2653 73.0272C89.1828 74.7253 89.059 75.9903 89.059 77.2553C89.0384 92.6965 89.0384 108.138 89.059 123.579C89.0796 133.727 95.2121 141.014 104.954 142.719C111.994 143.957 119.007 145.332 126.033 146.638C126.521 146.727 127.016 146.775 127.511 146.83C130.845 147.202 130.962 147.14 130.983 143.798C131.017 138.677 130.845 133.555 131.086 128.447C131.155 126.934 131.918 125.03 133.011 124.06C138.587 119.09 144.375 114.367 150.088 109.554C151.642 108.248 153.237 107.354 155.327 108.365C157.534 109.43 158.112 111.273 158.077 113.59C157.995 119.392 158.118 125.202 157.94 130.99C157.603 141.454 150.013 151.753 140.271 155.053C139.446 155.306 138.679 155.723 138.018 156.278C137.357 156.833 136.814 157.515 136.421 158.284C130.419 168.94 120.134 173.052 109.113 171.594C100.08 170.391 91.1146 168.487 82.1909 166.575C70.6959 164.114 62.2053 153.417 62.0196 140.615C61.7721 123.387 61.8546 106.151 62.1503 88.929C62.329 78.1628 70.3315 68.1665 80.479 64.8665C81.6082 64.4487 82.5628 63.6613 83.1878 62.6322C89.994 50.8209 101.049 46.029 114.187 48.9715C121.475 50.6009 128.893 51.6734 136.222 53.1653C149.229 55.819 157.919 66.5578 158.091 80.074C158.139 83.9172 158.167 87.7603 157.953 91.5897C157.892 92.8065 157.355 94.3603 156.489 95.1234C150.253 100.623 143.942 106.041 137.473 111.252C136.476 112.057 134.242 112.242 133.128 111.644C132.035 111.053 131.113 109.135 131.038 107.746C130.77 103.16 131.278 98.5059 130.832 93.9478C129.938 84.8109 123.716 78.7747 114.338 77.214C106.886 75.9765 99.4471 74.6359 92.0015 73.3572C91.204 73.2197 90.3928 73.1578 89.2653 73.0272Z" fill="white"/>
</g>
<defs>
<clipPath id="clip0_108_105">
<rect width="220" height="220" fill="white"/>
</clipPath>
</defs>
</svg>
