<svg width="220" height="220" viewBox="0 0 220 220" fill="none" xmlns="http://www.w3.org/2000/svg">
<g clip-path="url(#clip0_108_100)">
<path d="M110 220C170.751 220 220 170.751 220 110C220 49.2487 170.751 0 110 0C49.2487 0 0 49.2487 0 110C0 170.751 49.2487 220 110 220Z" fill="#00ACED"/>
<path fill-rule="evenodd" clip-rule="evenodd" d="M41.25 66.7842V94.8067L109.278 134.097L153.416 108.557V131.347L177.176 145.359V66.7842L109.216 106.075L41.25 66.7842Z" fill="white"/>
<path opacity="0.7" fill-rule="evenodd" clip-rule="evenodd" d="M109.216 27.5L41.25 66.7837V145.358L109.216 184.642L176.983 145.358L152.955 131.347L109.216 156.619L65.285 131.347V80.795L109.216 55.5225L152.955 80.795L176.983 66.7837L109.216 27.5Z" fill="white"/>
</g>
<defs>
<clipPath id="clip0_108_100">
<rect width="220" height="220" fill="white"/>
</clipPath>
</defs>
</svg>
