<svg width="220" height="220" viewBox="0 0 220 220" fill="none" xmlns="http://www.w3.org/2000/svg">
<g clip-path="url(#clip0_108_103)">
<path d="M110 220C170.751 220 220 170.751 220 110C220 49.2487 170.751 0 110 0C49.2487 0 0 49.2487 0 110C0 170.751 49.2487 220 110 220Z" fill="#1C98F7"/>
<path fill-rule="evenodd" clip-rule="evenodd" d="M111.925 160.359C116.763 160.023 121.559 159.241 126.253 158.022C132.045 159.789 138.168 160.19 144.141 159.191C144.378 159.152 144.617 159.134 144.856 159.136C146.987 159.136 149.786 160.373 153.862 162.986V158.689C153.863 157.945 154.062 157.216 154.437 156.574C154.813 155.933 155.353 155.403 156.001 155.038C157.774 154.034 159.424 152.879 160.93 151.608C166.87 146.575 170.225 139.865 170.225 132.756C170.225 130.371 169.847 128.054 169.132 125.84C170.926 122.492 172.377 118.972 173.443 115.321C176.888 120.484 178.734 126.549 178.75 132.756C178.75 142.416 174.254 151.422 166.478 158.008C165.18 159.107 163.814 160.122 162.388 161.047V171.091C162.388 174.549 158.4 176.536 155.588 174.481C152.929 172.493 150.176 170.635 147.338 168.912C146.525 168.425 145.68 167.996 144.808 167.626C142.471 167.977 140.078 168.156 137.665 168.156C127.958 168.156 118.993 165.248 111.932 160.359H111.925ZM60.5963 140.271C48.3313 129.869 41.25 115.699 41.25 100.513C41.25 69.4856 70.5237 44.6875 106.267 44.6875C142.017 44.6875 171.291 69.4856 171.291 100.513C171.291 131.546 142.01 156.344 106.267 156.344C102.252 156.344 98.2781 156.035 94.3869 155.416C92.7025 155.815 85.9719 159.816 76.2712 166.897C72.7581 169.469 67.7737 166.987 67.7737 162.663V145.53C65.2616 143.946 62.8633 142.189 60.5963 140.271ZM94.6206 144.849C94.9162 144.849 95.2187 144.87 95.5144 144.918C99.0206 145.509 102.623 145.812 106.267 145.812C136.462 145.812 160.628 125.338 160.628 100.513C160.628 75.6938 136.462 55.22 106.267 55.22C76.0856 55.22 51.9063 75.6938 51.9063 100.513C51.9063 112.516 57.5506 123.819 67.5331 132.275C70.0425 134.393 72.7994 136.318 75.7556 137.995C77.4125 138.93 78.4369 140.676 78.4369 142.56V152.439C86.1094 147.29 91.1556 144.849 94.6206 144.849ZM78.5537 111.052C73.8444 111.052 70.0287 107.271 70.0287 102.623C70.0287 97.9688 73.8444 94.1944 78.5537 94.1944C83.2631 94.1944 87.0788 97.9688 87.0788 102.623C87.0788 107.278 83.2631 111.052 78.5537 111.052ZM106.267 111.052C101.557 111.052 97.7419 107.271 97.7419 102.623C97.7419 97.9688 101.557 94.1944 106.267 94.1944C110.976 94.1944 114.792 97.9688 114.792 102.623C114.792 107.278 110.976 111.052 106.267 111.052ZM133.98 111.052C129.271 111.052 125.455 107.271 125.455 102.623C125.455 97.9688 129.271 94.1944 133.98 94.1944C138.689 94.1944 142.505 97.9688 142.505 102.623C142.505 107.278 138.689 111.052 133.98 111.052Z" fill="white"/>
</g>
<defs>
<clipPath id="clip0_108_103">
<rect width="220" height="220" fill="white"/>
</clipPath>
</defs>
</svg>
