<svg width="220" height="220" viewBox="0 0 220 220" fill="none" xmlns="http://www.w3.org/2000/svg">
<g clip-path="url(#clip0_108_101)">
<path d="M110 220C170.751 220 220 170.751 220 110C220 49.2487 170.751 0 110 0C49.2487 0 0 49.2487 0 110C0 170.751 49.2487 220 110 220Z" fill="#598182"/>
<path fill-rule="evenodd" clip-rule="evenodd" d="M93.1424 174.681C98.9541 167.171 104.766 159.661 110.577 152.151C117.102 153.169 123.53 152.591 129.676 149.924C131.897 148.961 133.884 147.463 135.974 146.197C136.269 146.019 136.544 145.785 136.771 145.613L157.891 166.499C156.138 167.668 154.399 168.933 152.549 170.019C145.394 174.167 137.507 176.898 129.319 178.063C124.487 178.74 119.599 178.925 114.73 178.613C107.39 178.276 100.129 176.953 93.1424 174.681ZM86.5011 172.096C84.1543 171.047 81.8682 169.867 79.6536 168.562C68.3358 162.003 59.4018 152.01 54.1474 140.031C51.3739 133.783 49.5502 127.155 48.7367 120.368C48.0984 115.104 47.9556 109.791 48.3105 104.501C49.1561 90.9225 53.288 78.4444 61.6136 67.465C69.2999 57.3313 79.3924 50.3944 91.3342 45.9463C96.9998 43.7961 102.933 42.4313 108.969 41.89C113.527 41.4981 118.133 41.1063 122.691 41.3056C125.51 41.4225 128.28 41.6975 131.01 42.1306C125.116 50.6878 119.222 59.2448 113.327 67.8019C107.43 68.2961 101.743 70.2218 96.7586 73.4119C87.6149 79.2144 82.1424 87.5744 79.5711 97.8869C78.4801 102.232 77.9806 106.704 78.0861 111.183C78.148 113.534 78.3474 115.838 78.698 118.086L76.5805 121.159C74.8755 123.634 76.9724 126.906 80.0042 126.507L80.7742 126.411C82.548 131.423 85.2361 136.105 88.9555 140.402C91.2655 143.056 93.8436 145.283 96.683 147.071L86.7486 171.071C86.6122 171.4 86.5287 171.748 86.5011 172.103V172.096ZM137.672 43.5469C143.792 45.1776 149.594 47.8297 154.832 51.3913C155.78 52.0375 156.647 52.8006 157.554 53.5088C157.726 53.6394 157.905 53.7563 158.125 53.9075C157.836 54.2375 157.671 54.4575 157.472 54.65C151.209 60.8238 144.932 66.9769 138.689 73.1713C138.002 73.8588 137.569 73.9688 136.737 73.3775C134.217 71.5864 131.43 70.2036 128.48 69.28L137.3 46.0769L137.534 45.4788C137.769 44.8623 137.817 44.1904 137.672 43.5469ZM112.207 118.814L79.5299 123.084L133.897 44.1381L134.2 44.2756L113.197 99.4888L151.525 93.4388L90.3442 172.57L90.0486 172.364L112.207 118.814Z" fill="white"/>
</g>
<defs>
<clipPath id="clip0_108_101">
<rect width="220" height="220" fill="white"/>
</clipPath>
</defs>
</svg>
