<svg width="220" height="220" viewBox="0 0 220 220" fill="none" xmlns="http://www.w3.org/2000/svg">
<g clip-path="url(#clip0_108_107)">
<path d="M110 220C170.751 220 220 170.751 220 110C220 49.2487 170.751 0 110 0C49.2487 0 0 49.2487 0 110C0 170.751 49.2487 220 110 220Z" fill="#20C5D3"/>
<path d="M122.443 54.1062V53.4944C123.66 52.9788 126.073 52.4906 130.226 53.6044C134.976 54.8831 138.648 59.6544 140.332 62.2256L140.318 63.8756C140.236 73.0813 137.307 95.8237 132.233 112.874C127.799 127.772 118.126 147.593 116.16 151.553C115.194 151.34 114.216 151.186 113.231 151.092C114.049 146.066 117.617 123.681 119.865 103.283C122.251 81.6406 122.436 60.1769 122.436 54.1131L122.443 54.1062ZM142.374 63.8962V63.8206C144.161 63.7794 148.121 64.1025 152.638 67.0106C157.011 69.8225 159.266 75.1713 160.201 78.045L159.768 79.7431C158.702 83.8819 150.81 105.215 142.319 121.296C135.114 134.922 123.612 149.999 121.103 153.23C120.157 152.78 119.18 152.396 118.181 152.082C120.518 147.359 129.848 128.081 134.2 113.444C139.328 96.2156 142.285 73.2119 142.374 63.8962ZM144.141 122.224C152.226 106.913 160.393 85.4287 161.741 80.3069C163.521 80.9531 167.344 82.665 169.833 86.0612C171.964 88.9625 172.658 92.8881 172.885 95.3563L172.053 97.295C170.445 101.028 160.641 118.229 150.761 130.487C142.209 141.102 129.36 153.698 126.28 156.681C125.243 155.751 124.12 154.922 122.925 154.206C125.819 150.466 137.039 135.664 144.141 122.224ZM75.659 65.4913L75.4184 63.6075C76.539 61.1669 79.014 57.0969 83.7509 54.9312C88.9071 52.58 92.9152 53.2194 94.7096 53.7419L94.7234 54.1475C94.8609 58.2381 95.9402 78.375 98.5734 102.142C100.993 123.888 104.891 147.015 105.641 151.408C104.61 151.594 103.599 151.848 102.609 152.164C100.698 148.108 92.1865 129.683 86.4665 111.224C80.0865 90.6331 76.429 71.5206 75.659 65.4913ZM96.7721 54.0788L96.7446 53.1369C98.6284 51.4456 103.015 48.125 108.501 48.125C113.973 48.125 118.456 51.4456 120.388 53.1438V54.1062C120.388 60.1494 120.202 81.5238 117.823 103.056C115.548 123.709 111.911 146.417 111.168 150.982L110.632 150.968C109.642 150.968 108.659 151.023 107.676 151.119C106.947 146.891 103.035 123.709 100.615 101.922C97.989 78.2169 96.9165 58.1487 96.7721 54.0719V54.0788ZM110.632 152.989C121.749 152.989 126.871 159.734 128.418 162.305C119.996 168.217 113.141 171.875 110.721 171.875C108.301 171.875 102.286 168.85 92.8259 162.009C94.3384 159.569 99.4396 152.989 110.632 152.989ZM173.889 98.2094C175.58 99.3094 179.052 102.272 178.729 107.972C178.303 115.479 165.426 130.357 149.256 145.406C143.193 151.038 136.787 156.289 130.075 161.129C129.385 160.055 128.601 159.045 127.73 158.111C130.865 155.079 143.763 142.436 152.37 131.746C162.27 119.467 172.122 102.217 173.889 98.2094ZM46.8871 96.7519C46.3864 95.5085 45.9119 94.2546 45.464 92.9912C45.4552 90.7643 45.9985 88.57 47.0452 86.6044C49.3965 82.3419 55.364 80.3894 57.729 79.7638L57.7427 79.805L57.9971 80.6987C59.7159 86.6869 63.7309 100.719 74.3046 121C83.744 139.102 94.0015 151.614 96.8752 154.963C96.105 155.489 95.3701 156.066 94.6752 156.688C84.9742 148.288 75.9853 139.099 67.8009 129.216C57.6121 116.896 50.579 105.978 46.8871 96.7519ZM93.2246 158.132C92.4684 158.957 91.7809 159.851 91.1621 160.799C85.2014 156.354 79.3998 151.699 73.7684 146.843C53.0609 129.14 41.7309 116.827 41.2771 109.051C40.9334 103.118 43.9446 99.77 45.4021 98.5119C49.2659 107.704 56.2509 118.449 66.2059 130.494C74.4388 140.43 83.4755 149.672 93.2246 158.125V158.132ZM59.7227 79.2481C59.499 78.484 59.2881 77.7162 59.0902 76.945C59.6196 74.4288 60.9259 70.6612 64.1227 68.3375C66.8675 66.3458 70.2091 65.3491 73.5965 65.5119L73.6309 65.7456C74.4077 71.83 78.0859 91.1006 84.5071 111.808C90.1996 130.171 98.6215 148.5 100.684 152.886C99.9843 153.18 99.3005 153.511 98.6352 153.876C96.1259 150.975 85.7171 138.456 76.1402 120.079C65.6559 99.9762 61.6821 86.0819 59.984 80.1488L59.7227 79.2481Z" fill="white"/>
</g>
<defs>
<clipPath id="clip0_108_107">
<rect width="220" height="220" fill="white"/>
</clipPath>
</defs>
</svg>
