<svg width="220" height="220" viewBox="0 0 220 220" fill="none" xmlns="http://www.w3.org/2000/svg">
<g clip-path="url(#clip0_108_106)">
<path d="M110 220C170.751 220 220 170.751 220 110C220 49.2487 170.751 0 110 0C49.2487 0 0 49.2487 0 110C0 170.751 49.2487 220 110 220Z" fill="#FF3A00"/>
<path d="M110.021 34.375C151.731 34.4438 185.639 68.3787 185.625 110.021C185.611 151.711 151.676 185.625 109.973 185.625H109.904C68.2413 185.584 34.3544 151.614 34.375 109.904C34.3956 68.2687 68.3375 34.375 110.021 34.375ZM110 44.1238C73.7206 44.1238 44.1925 73.6725 44.1788 109.986C44.1719 146.259 73.6588 175.794 109.918 175.821C146.238 175.821 175.814 146.286 175.842 109.986C175.868 101.338 174.176 92.7706 170.866 84.781C167.556 76.7913 162.692 69.5383 156.558 63.4425C150.463 57.3041 143.211 52.4359 135.221 49.1197C127.232 45.8036 118.664 44.1055 110.014 44.1238H110ZM142.505 103.242C144.836 115.06 141.838 124.988 133.348 133.609L132.179 134.784L130.694 134.056C129.872 133.654 129.037 133.278 128.191 132.928L124.829 131.526L127.538 129.092C132.825 124.348 135.637 118.154 135.905 110.688C136.18 103.221 133.533 96.7106 128.047 91.3413C123.238 86.6234 116.764 83.9903 110.028 84.0125C106.346 84.0097 102.705 84.7926 99.3502 86.3089C95.9951 87.8253 93.0021 90.0402 90.5713 92.8056C85.085 99.0619 82.9881 106.679 84.5213 114.826C85.469 120.216 88.1596 125.146 92.18 128.858L94.8406 131.326L91.4788 132.681C90.64 133.018 89.76 133.382 88.8181 133.781L87.3744 134.386L86.2744 133.265C80.6163 127.435 77.55 120.725 76.9106 112.75C75.5563 95.9406 86.4531 81.1319 102.829 77.5431C105.245 77.0086 107.711 76.7366 110.186 76.7319C117.805 76.7392 125.186 79.3837 131.076 84.2162C136.967 89.0487 141.002 95.7712 142.498 103.242H142.505ZM68.5644 146.486C58.4169 135.169 50.1875 115.094 57.5438 92.6956C61.1789 81.6603 68.2023 72.0528 77.6142 65.2404C87.0261 58.428 98.347 54.7579 109.966 54.7525C121.486 54.7391 132.721 58.3308 142.098 65.0242C151.474 71.7176 158.52 81.1771 162.25 92.0769C168.754 111.134 164.23 132.804 150.734 147.283L149.016 149.119L142.849 142.23L144.21 140.697C152.653 131.189 156.571 119.914 155.863 107.195C155.203 95.5762 150.583 85.4563 142.127 77.1238C133.588 68.678 122.051 63.959 110.041 63.9994C99.0097 64.0042 88.3463 67.9685 79.9906 75.1712C73.5165 80.6952 68.7297 87.9314 66.1788 96.0506C63.587 104.121 63.3013 112.755 65.3538 120.979C67.0612 128.022 70.4325 134.553 75.185 140.023L76.5325 141.584L70.235 148.363L68.5644 146.486Z" fill="white"/>
</g>
<defs>
<clipPath id="clip0_108_106">
<rect width="220" height="220" fill="white"/>
</clipPath>
</defs>
</svg>
