<svg width="220" height="220" viewBox="0 0 220 220" fill="none" xmlns="http://www.w3.org/2000/svg">
<g clip-path="url(#clip0_108_104)">
<path d="M110 220C170.751 220 220 170.751 220 110C220 49.2487 170.751 0 110 0C49.2487 0 0 49.2487 0 110C0 170.751 49.2487 220 110 220Z" fill="#2FD2E5"/>
<path d="M113.919 27.5489C95.3421 26.9035 77.1083 32.6635 62.2736 43.8633C60.8353 44.9443 59.6554 46.3317 58.8194 47.9249C57.9833 49.5181 57.5121 51.2773 57.4397 53.0751C57.3673 54.8729 57.6956 56.6643 58.4009 58.3196C59.1061 59.9749 60.1707 61.4526 61.5174 62.6458C65.7936 66.6883 72.3799 67.0045 77.0274 63.3951C88.4075 54.5387 102.693 50.2684 117.067 51.4265C131.441 52.5846 144.858 59.0871 154.674 69.6514C158.73 73.8451 158.854 80.452 154.962 84.797C153.984 85.846 152.809 86.692 151.504 87.2867C150.199 87.8814 148.79 88.2131 147.356 88.2629C145.923 88.3127 144.494 88.0796 143.151 87.5769C141.807 87.0742 140.576 86.3118 139.528 85.3333L138.999 84.797C134.104 79.43 127.701 75.6686 120.63 74.0065C113.56 72.3445 106.151 72.8595 99.3786 75.484C92.6057 78.1085 86.7848 82.7198 82.6802 88.7124C78.5755 94.705 76.379 101.799 76.379 109.062C76.379 116.326 78.5755 123.42 82.6802 129.412C86.7848 135.405 92.6057 140.016 99.3786 142.641C106.151 145.265 113.56 145.78 120.63 144.118C127.701 142.456 134.104 138.695 138.999 133.328C140.566 131.573 142.669 130.384 144.981 129.946C147.293 129.507 149.684 129.843 151.786 130.901C153.281 131.651 154.583 132.736 155.589 134.072C156.595 135.409 157.279 136.959 157.586 138.604C157.894 140.248 157.817 141.941 157.362 143.55C156.907 145.16 156.085 146.642 154.962 147.882C145.188 158.582 131.752 165.224 117.315 166.492C102.878 167.76 88.4903 163.562 76.9999 154.73C74.7262 152.997 71.9139 152.123 69.0588 152.262C66.2038 152.4 63.4892 153.542 61.3936 155.486C60.0558 156.712 59.0063 158.219 58.3206 159.899C57.6349 161.579 57.3301 163.39 57.4281 165.202C57.526 167.013 58.0243 168.781 58.8871 170.377C59.75 171.974 60.9558 173.359 62.418 174.433C72.6732 182.039 84.5721 187.128 97.1552 189.29C109.738 191.452 122.654 190.628 134.859 186.882C147.065 183.136 158.22 176.575 167.424 167.727C176.629 158.879 183.625 147.991 187.849 135.943C192.073 123.894 193.407 111.022 191.743 98.363C190.078 85.7044 185.463 73.614 178.268 63.0668C171.073 52.5196 161.5 43.8107 150.321 37.6424C139.143 31.4741 126.671 28.019 113.912 27.5558L113.919 27.5489ZM112.406 129.216C109.758 129.206 107.138 128.675 104.695 127.653C102.253 126.63 100.035 125.136 98.1699 123.257C96.3045 121.377 94.8275 119.149 93.8234 116.699C92.8192 114.248 92.3074 111.624 92.3174 108.976C92.3273 106.328 92.8587 103.708 93.8812 101.266C94.9038 98.8229 96.3974 96.6056 98.2769 94.7402C100.156 92.8748 102.385 91.3978 104.835 90.3936C107.285 89.3894 109.909 88.8777 112.557 88.8876C117.905 88.9068 123.027 91.0496 126.795 94.8447C130.563 98.6398 132.669 103.776 132.65 109.124C132.63 114.472 130.488 119.593 126.693 123.361C122.897 127.129 117.761 129.236 112.413 129.216H112.406Z" fill="white"/>
</g>
<defs>
<clipPath id="clip0_108_104">
<rect width="220" height="220" fill="white"/>
</clipPath>
</defs>
</svg>
