<svg width="220" height="220" viewBox="0 0 220 220" fill="none" xmlns="http://www.w3.org/2000/svg">
<g clip-path="url(#clip0_108_109)">
<path d="M110 220C170.751 220 220 170.751 220 110C220 49.2487 170.751 0 110 0C49.2487 0 0 49.2487 0 110C0 170.751 49.2487 220 110 220Z" fill="#C1A05C"/>
<path fill-rule="evenodd" clip-rule="evenodd" d="M111.898 178.75C95.9545 178.709 81.682 173.814 68.9357 164.45C65.5464 161.961 65.4432 160.531 68.3307 157.431L68.592 157.156C72.1189 153.333 72.0982 153.354 76.2851 156.365C85.9334 163.414 97.4983 167.361 109.443 167.681C122.134 168.121 133.794 165.089 144.334 158.29C156.977 150.136 165.598 138.779 169.208 124.279C173.738 106.074 170.369 89.2169 158.435 74.4012C150.075 64.02 139.212 57.3306 126.088 54.1613C114.373 51.3288 102.864 52.0231 91.5545 55.9144C85.5664 57.9769 80.032 61.0156 75.0339 64.9206C72.5657 66.8456 71.6307 66.8044 69.5339 64.4531C68.525 63.3573 67.5793 62.2051 66.7014 61.0019C65.4089 59.1731 65.5876 58.0869 67.3339 56.6981C75.6312 50.1167 85.2985 45.4792 95.6245 43.1269C104.97 40.9118 114.672 40.6543 124.121 42.3706C136.964 44.6944 148.39 49.9744 158.201 58.5269C165.461 64.8656 171.332 72.2769 175.416 80.9394C181.039 92.8744 183.329 105.373 181.645 118.559C180.142 130.591 175.415 141.994 167.963 151.559C160.353 161.473 150.611 168.706 138.964 173.456C130.384 177.004 121.182 178.804 111.898 178.75ZM107.525 134.867C107.064 135.568 106.824 136.091 106.439 136.489C104.115 138.93 101.276 140.394 97.852 140.504C95.4801 140.573 93.1014 140.374 90.7295 140.429C89.812 140.42 88.9078 140.648 88.1032 141.089C77.1445 147.964 65.347 148.967 52.917 146.327C48.8264 145.461 45.162 143.887 42.0407 141.206C39.6895 139.191 38.0326 136.812 37.8332 133.471C37.4895 127.648 41.8001 123.674 46.2414 122.375C54.4432 119.969 62.2464 121.433 69.7126 125.056C73.1226 126.706 76.3126 128.81 79.5714 130.762C81.4414 131.869 81.9982 131.828 82.9332 129.917C87.1614 121.282 84.432 111.76 74.1057 108.24C65.0445 105.146 56.1826 105.456 47.4582 109.477C46.1795 110.069 44.777 111.196 43.2714 109.986C41.7107 108.721 42.7557 107.216 43.1545 105.882C46.0214 96.2294 48.9295 86.5975 51.8789 76.9725C52.5251 74.8619 54.2095 73.7756 56.6707 73.9062C60.2939 74.1056 63.8964 74.6488 67.5195 74.7313C72.9507 74.8688 78.4026 74.9169 83.827 74.6488C87.8626 74.4425 91.4032 72.6688 94.5176 70.0975C94.8957 69.7881 95.6589 69.4306 95.9064 69.5956C96.2707 69.8363 96.4907 70.51 96.5251 71.0188C96.7795 75.185 94.992 78.3956 91.6782 80.8913C87.7595 83.8475 83.2839 85.2225 78.3957 85.3394C73.3289 85.4562 68.262 85.525 63.202 85.5456C62.0607 85.5594 61.4557 85.9719 61.1876 87.0444C60.7339 88.8319 60.2526 90.6263 59.737 92.4069C59.3451 93.7337 59.847 94.2631 61.1876 94.2081C64.3776 94.0913 67.5676 93.8781 70.7507 93.8988C78.0778 93.856 85.1529 96.5702 90.5714 101.502C95.8857 106.232 98.0376 112.338 98.3607 119.158C98.6151 124.623 97.5701 129.855 94.5657 134.564C93.7476 135.85 94.1189 136.407 95.5007 136.771C99.172 137.741 102.561 137.081 105.799 135.272C106.074 135.121 106.329 134.949 106.611 134.819C106.707 134.777 106.851 134.826 107.525 134.867ZM76.1201 136.421L76.0101 135.754C75.5495 135.472 75.1164 135.121 74.6145 134.901C70.9707 133.286 67.3751 131.498 63.6351 130.137C59.8195 128.741 55.8526 127.744 51.7001 128.714C49.8301 129.147 47.9601 129.621 47.417 131.773C46.812 134.145 48.2626 135.623 49.9539 136.916C50.4832 137.321 51.1364 137.61 51.7689 137.857C58.1901 140.332 64.7076 140.401 71.2526 138.462C72.9301 137.967 74.5045 137.108 76.1201 136.421Z" fill="white"/>
</g>
<defs>
<clipPath id="clip0_108_109">
<rect width="220" height="220" fill="white"/>
</clipPath>
</defs>
</svg>
