<svg width="220" height="220" viewBox="0 0 220 220" fill="none" xmlns="http://www.w3.org/2000/svg">
<g clip-path="url(#clip0_108_117)">
<path d="M110 220C170.751 220 220 170.751 220 110C220 49.2487 170.751 0 110 0C49.2487 0 0 49.2487 0 110C0 170.751 49.2487 220 110 220Z" fill="#383939"/>
<path fill-rule="evenodd" clip-rule="evenodd" d="M133.877 78.9181L152.212 74.7175L159.314 63.0231L152.302 51.5212L143.323 45.32L124.877 41.25L113.499 47.6644L95.2944 44.4194L70.2969 61.7375L68.3513 81.9637L57.7431 86.3913L58.9669 105.153L51.5625 111.052L58.96 132.172L60.0737 134.386L67.8975 156.131L83.9781 161.824L95.8994 173.951L109.608 178.75L115.809 176.962L125.647 175.828L140.071 171.696L161.562 159.562L155.939 137.342L145.118 133.079L139.727 139.246L124.568 142.972L102.52 139.48L95.4044 131.251L97.8794 123.2L87.4569 106.707L96.2225 96.0094L97.1575 77.825L109.711 70.62L118.319 67.1825L130.006 69.2931L133.877 78.9181Z" fill="white"/>
</g>
<defs>
<clipPath id="clip0_108_117">
<rect width="220" height="220" fill="white"/>
</clipPath>
</defs>
</svg>
