<svg width="220" height="220" viewBox="0 0 220 220" fill="none" xmlns="http://www.w3.org/2000/svg">
<g clip-path="url(#clip0_108_108)">
<path d="M110 220C170.751 220 220 170.751 220 110C220 49.2487 170.751 0 110 0C49.2487 0 0 49.2487 0 110C0 170.751 49.2487 220 110 220Z" fill="#4C6BAE"/>
<path opacity="0.5" fill-rule="evenodd" clip-rule="evenodd" d="M43.8831 116.944L34.375 117.927C39.4625 103.696 49.5206 92.3105 64.5631 83.7718C65.9862 95.5693 71.5756 105.325 81.3381 113.052L72.4006 113.981C73.2714 122.187 76.8014 129.883 82.4526 135.897C88.1038 141.91 95.5662 145.911 103.702 147.29C97.7111 151.797 90.6185 154.611 83.1669 155.437C87.8488 163.687 93.39 170.445 99.7838 175.697C85.2915 173.439 71.9524 166.452 61.8424 155.826C51.7323 145.2 45.4184 131.53 43.8831 116.944ZM176.117 103.056L185.625 102.073C180.538 116.304 170.479 127.689 155.437 136.228C154.014 124.431 148.424 114.675 138.662 106.947L147.599 106.019C146.72 97.7264 143.124 89.9565 137.373 83.9178C131.621 77.8791 124.036 73.9099 115.796 72.6274C121.767 68.1672 128.821 65.3831 136.228 64.563C131.505 56.2511 125.923 49.4655 119.467 44.1924C134.112 46.3044 147.635 53.2398 157.895 63.9011C168.155 74.5624 174.568 88.3409 176.117 103.056Z" fill="white"/>
<path fill-rule="evenodd" clip-rule="evenodd" d="M116.339 176.179L117.322 185.625C103.091 180.538 91.7055 170.479 83.1668 155.437C94.9574 154.014 104.713 148.424 112.441 138.662L113.376 147.668C121.787 146.912 129.703 143.363 135.864 137.587C142.025 131.812 146.076 124.14 147.372 115.796C151.833 121.767 154.617 128.821 155.437 136.228C163.749 131.505 170.534 125.923 175.807 119.467C173.681 134.215 166.663 147.822 155.879 158.106C145.096 168.39 131.171 174.754 116.339 176.179ZM103.056 43.8831L102.073 34.375C116.304 39.4625 127.689 49.5206 136.228 64.5631C124.431 65.9862 114.675 71.5756 106.947 81.3381L106.019 72.4006C97.7264 73.2804 89.9565 76.8755 83.9178 82.627C77.8791 88.3786 73.9099 95.9641 72.6274 104.204C68.1672 98.2335 65.3831 91.1795 64.563 83.7719C56.2511 88.495 49.4655 94.0775 44.1924 100.533C46.3044 85.888 53.2398 72.3654 63.9011 62.105C74.5624 51.8446 88.3409 45.4325 103.056 43.8831Z" fill="white"/>
</g>
<defs>
<clipPath id="clip0_108_108">
<rect width="220" height="220" fill="white"/>
</clipPath>
</defs>
</svg>
