<svg width="220" height="220" viewBox="0 0 220 220" fill="none" xmlns="http://www.w3.org/2000/svg">
<g clip-path="url(#clip0_108_119)">
<path d="M110 220C170.751 220 220 170.751 220 110C220 49.2487 170.751 0 110 0C49.2487 0 0 49.2487 0 110C0 170.751 49.2487 220 110 220Z" fill="#FF4314"/>
<path fill-rule="evenodd" clip-rule="evenodd" d="M63.0506 55H158.036V68.2344H63.0438L63.0506 55ZM52.4631 93.7819H169.84V107.154H133.884V151.889C133.884 155.327 135.376 157.046 138.49 157.046H153.423C155.052 157.046 156.406 155.994 157.217 154.007C158.173 151.889 158.847 145.399 159.122 134.681L171.875 138.655C170.926 153.608 169.159 162.477 166.719 165.261C164.278 167.901 160.751 169.359 155.994 169.359H134.427C124.788 169.359 120.044 164.464 120.044 154.798V107.154H99.9556V109.801C99.2819 126.61 95.4869 140.106 88.5638 150.171C81.7781 159.431 70.9225 166.712 55.7219 171.875L48.125 160.229C62.7825 155.196 72.5519 148.844 77.7081 141.433C82.8644 133.224 85.5731 122.767 86.1162 109.801V107.154H52.47L52.4631 93.7819Z" fill="white"/>
</g>
<defs>
<clipPath id="clip0_108_119">
<rect width="220" height="220" fill="white"/>
</clipPath>
</defs>
</svg>
