<svg width="220" height="220" viewBox="0 0 220 220" fill="none" xmlns="http://www.w3.org/2000/svg">
<g clip-path="url(#clip0_108_111)">
<path d="M110 220C170.751 220 220 170.751 220 110C220 49.2487 170.751 0 110 0C49.2487 0 0 49.2487 0 110C0 170.751 49.2487 220 110 220Z" fill="#13BF99"/>
<path d="M110 171.875H78.815L94.435 144.671H125.565L141.185 171.875H110ZM94.4419 75.3225H94.435L78.815 48.125H141.185L125.565 75.3225H94.435H94.4419ZM163.185 140.903H163.171H163.185L147.558 168.114L131.993 140.91H132L147.558 113.699H178.75L163.185 140.903ZM56.815 79.035L72.435 51.8306L88 79.035L72.435 106.232H41.25L56.815 79.035ZM87.9931 140.91H88L72.435 168.114L56.815 140.91L41.25 113.692H72.435L88 140.896L87.9931 140.91ZM163.185 79.035L178.75 106.239H147.565L131.993 79.035L147.558 51.8306L163.185 79.035Z" fill="white"/>
</g>
<defs>
<clipPath id="clip0_108_111">
<rect width="220" height="220" fill="white"/>
</clipPath>
</defs>
</svg>
