<svg width="220" height="220" viewBox="0 0 220 220" fill="none" xmlns="http://www.w3.org/2000/svg">
<g clip-path="url(#clip0_108_112)">
<path d="M110 220C170.751 220 220 170.751 220 110C220 49.2487 170.751 0 110 0C49.2487 0 0 49.2487 0 110C0 170.751 49.2487 220 110 220Z" fill="#77C3B0"/>
<path d="M176.536 91.3197L164.931 79.7147C163.188 77.9622 161.113 76.5735 158.828 75.6294C156.543 74.6852 154.094 74.2043 151.621 74.2147H149.834V72.3585C149.834 69.1066 149.064 66.0128 147.441 63.2285C146.606 61.6137 145.507 60.1498 144.189 58.8972L132.584 47.2853C130.84 45.532 128.764 44.1428 126.478 43.1987C124.192 42.2545 121.741 41.7741 119.268 41.7854H65.7938C60.7613 41.7854 56.0451 43.7241 52.4838 47.2853L40.8788 58.8904C39.1214 60.6147 37.7288 62.675 36.7839 64.9486C35.839 67.2222 35.3612 69.6627 35.3788 72.1247L35.0695 122.278C35.0007 127.303 37.0082 132.178 40.5695 135.739L52.1745 147.351C53.9186 149.103 55.9933 150.49 58.2782 151.433C60.5631 152.376 63.0126 152.856 65.4845 152.844H67.5745V154.7C67.5745 157.952 68.3513 161.046 69.9738 163.83C70.8263 165.46 71.9057 166.924 73.2257 168.162L84.8307 179.78C86.5765 181.529 88.6518 182.915 90.9364 183.856C93.221 184.798 95.6696 185.277 98.1407 185.267H151.697C156.729 185.267 161.446 183.335 165.007 179.773L176.619 168.168C178.369 166.423 179.755 164.348 180.698 162.063C181.641 159.779 182.121 157.33 182.112 154.858V104.554C182.099 102.09 181.6 99.6535 180.645 97.3827C179.689 95.1118 178.295 93.0516 176.543 91.3197H176.536ZM65.4845 135.815C64.9933 135.815 64.5216 135.623 64.1713 135.278L58.3688 129.469L52.5595 123.667C52.3102 123.374 52.1252 123.032 52.0163 122.663V72.2072C52.0163 71.6572 52.2501 71.1966 52.5663 70.8872L64.1713 59.2822C64.3226 59.1241 64.4807 59.0485 64.632 58.9729C64.9187 58.8232 65.2367 58.7432 65.5601 58.7391H119.116C119.426 58.7391 119.659 58.8147 119.969 58.9729C120.203 59.0485 120.354 59.2066 120.512 59.3579L132.117 70.9697C132.287 71.1149 132.419 71.2989 132.502 71.506C132.584 71.5885 132.584 71.6641 132.584 71.7397C132.584 71.8154 132.653 71.8979 132.653 71.9735C132.653 72.0491 132.736 72.2829 132.736 72.4341V74.9091C132.736 75.9953 131.883 76.7654 130.879 76.7654H121.598C121.105 76.7678 120.63 76.575 120.278 76.2291L115.012 70.9697H69.6645L67.7326 72.8947L65.0995 75.5347V119.102L69.6645 123.667H114.936L120.203 118.332L120.271 118.249C120.429 118.173 120.588 118.015 120.739 117.94C120.973 117.788 121.289 117.788 121.516 117.788H130.797C131.416 117.788 131.966 118.098 132.351 118.558C132.591 118.87 132.726 119.251 132.736 119.645V122.278C132.735 122.77 132.539 123.242 132.193 123.591L126.39 129.393L120.588 135.196C120.512 135.278 120.354 135.354 120.278 135.43C120.278 135.43 120.203 135.505 120.12 135.505C120.044 135.588 119.969 135.588 119.886 135.588C119.818 135.588 119.818 135.588 119.735 135.663C119.659 135.663 119.577 135.739 119.501 135.739H65.4845V135.815ZM165.165 154.7C165.162 155.193 164.964 155.665 164.615 156.013L153.01 167.625C152.875 167.754 152.719 167.858 152.549 167.935C152.263 168.084 151.945 168.164 151.621 168.168H98.0651C97.7657 168.164 97.4724 168.084 97.2126 167.935C97.0055 167.851 96.8215 167.719 96.6763 167.55L85.0645 155.938C84.9132 155.787 84.7551 155.628 84.6795 155.395C84.597 155.326 84.597 155.243 84.597 155.168C84.597 155.085 84.5282 155.01 84.5282 154.934C84.5282 154.858 84.4457 154.625 84.4457 154.467V151.992C84.4457 150.912 85.2982 150.135 86.302 150.135H95.5832C96.1332 150.135 96.5938 150.369 96.9032 150.678L102.169 155.938H147.441L149.373 154.006L152.006 151.373V107.806L147.441 103.234H102.245L96.9857 108.576L96.9032 108.652C96.752 108.734 96.5938 108.885 96.4426 108.961C96.2088 109.119 95.8995 109.119 95.6657 109.119H86.3845C86.084 109.113 85.7887 109.04 85.5199 108.906C85.2511 108.772 85.0157 108.579 84.8307 108.342C84.5913 108.032 84.4565 107.654 84.4457 107.263V104.63C84.4456 104.386 84.4935 104.144 84.5866 103.919C84.6798 103.694 84.8165 103.489 84.9888 103.317L90.7913 97.5141L96.5938 91.7047C96.6763 91.6291 96.8276 91.5535 96.9032 91.471C96.9032 91.471 96.9857 91.4022 97.0613 91.4022C97.137 91.3197 97.2126 91.3197 97.2951 91.3197C97.3638 91.3197 97.3638 91.3197 97.4463 91.2441C97.522 91.2441 97.6045 91.1616 97.6801 91.1616H151.621C152.158 91.1616 152.625 91.3954 152.934 91.7116L158.737 97.5141L164.546 103.317C164.615 103.392 164.698 103.468 164.773 103.626C164.91 103.841 165.015 104.075 165.083 104.32V104.705C165.165 104.554 165.165 154.7 165.165 154.7Z" fill="white"/>
</g>
<defs>
<clipPath id="clip0_108_112">
<rect width="220" height="220" fill="white"/>
</clipPath>
</defs>
</svg>
