<svg width="220" height="220" viewBox="0 0 220 220" fill="none" xmlns="http://www.w3.org/2000/svg">
<g clip-path="url(#clip0_108_110)">
<path d="M110 220C170.751 220 220 170.751 220 110C220 49.2487 170.751 0 110 0C49.2487 0 0 49.2487 0 110C0 170.751 49.2487 220 110 220Z" fill="#00D395"/>
<path fill-rule="evenodd" clip-rule="evenodd" d="M58.9187 148.411C57.2099 147.4 55.7922 145.964 54.8041 144.242C53.8161 142.52 53.2914 140.571 53.2812 138.586V116.222C53.2812 113.561 55.495 111.409 58.2037 111.423C59.07 111.423 59.9225 111.65 60.6788 112.076L112.262 141.508C115.28 143.227 117.143 146.389 117.143 149.806V172.975C117.139 173.741 116.983 174.498 116.685 175.203C116.386 175.909 115.951 176.548 115.405 177.085C114.859 177.622 114.212 178.045 113.501 178.331C112.791 178.617 112.031 178.759 111.265 178.75C110.177 178.75 109.108 178.458 108.171 177.904L58.9187 148.411ZM135.809 105.951C138.834 107.669 140.676 110.839 140.69 114.249V161.274C140.69 162.662 139.934 163.948 138.689 164.622L127.401 170.837C127.255 170.918 127.101 170.98 126.94 171.022V144.911C126.94 141.529 125.132 138.394 122.155 136.661L76.8625 110.137V80.6643C76.8625 78.0036 79.0763 75.8518 81.7919 75.8655C82.6571 75.8668 83.5073 76.0918 84.26 76.5186L135.823 105.951H135.809ZM158.393 71.218C161.418 72.9368 163.281 76.0993 163.281 79.5299V148.211C163.273 148.909 163.076 149.592 162.712 150.187C162.347 150.782 161.829 151.268 161.212 151.594L150.507 157.252V109.429C150.507 106.054 148.692 102.926 145.743 101.186L99.4331 74.0093V46.0624C99.4331 45.2099 99.6738 44.378 100.093 43.6424C100.767 42.5367 101.845 41.7368 103.099 41.4121C104.353 41.0874 105.684 41.2635 106.81 41.903L158.393 71.2249V71.218Z" fill="white"/>
</g>
<defs>
<clipPath id="clip0_108_110">
<rect width="220" height="220" fill="white"/>
</clipPath>
</defs>
</svg>
