<svg width="220" height="220" viewBox="0 0 220 220" fill="none" xmlns="http://www.w3.org/2000/svg">
<g clip-path="url(#clip0_108_114)">
<path d="M110 220C170.751 220 220 170.751 220 110C220 49.2487 170.751 0 110 0C49.2487 0 0 49.2487 0 110C0 170.751 49.2487 220 110 220Z" fill="#71C800"/>
<path fill-rule="evenodd" clip-rule="evenodd" d="M177.512 101.165C172.102 101.419 166.671 101.736 161.26 101.543C156.406 101.364 151.573 100.56 146.733 99.9963C146.233 99.9116 145.765 99.693 145.379 99.3638C137.369 92.7982 129.497 86.0813 122.595 78.3057C120.079 75.4664 118.044 72.4001 116.902 68.6739C115.369 63.6482 108.927 61.7163 104.156 64.6245C99.1512 67.677 98.2918 74.7788 102.506 78.8488C103.252 79.5906 104.175 80.13 105.187 80.4163C108.831 81.2963 111.65 83.4688 114.311 85.9301C119.082 90.337 123.358 95.2113 127.511 100.203C128.7 101.626 128.095 103.276 126.273 103.482C123.454 103.812 120.615 104.108 117.776 104.224C112.427 104.444 107.071 104.658 101.716 104.603C98.7249 104.568 95.7206 104.108 92.7574 103.613C91.3603 103.34 90.0251 102.813 88.8181 102.059C84.8374 99.6732 80.7124 101.303 78.4162 103.654C77.0288 105.075 76.1432 106.91 75.8938 108.881C75.6444 110.851 76.0448 112.849 77.0343 114.571C78.9456 117.844 82.7131 119.755 86.0956 119.04C87.0718 118.834 88.0343 118.401 88.9006 117.899C91.1693 116.606 93.6306 116.001 96.1743 115.843C100.258 115.596 104.369 115.362 108.46 115.458C113.664 115.582 118.869 116.043 124.073 116.366C124.781 116.414 125.496 116.448 126.197 116.558C128.15 116.874 128.714 118.435 127.421 119.968C125.867 121.811 124.369 123.715 122.691 125.434C119.162 129.05 115.575 132.61 111.932 136.111C110.278 137.692 108.228 138.799 105.999 139.314C101.489 140.394 99.2612 144.746 99.8937 149.146C100.526 153.518 104.431 156.804 108.852 156.811C112.949 156.811 116.098 154.625 117.191 150.706C118.312 146.678 120.897 143.639 123.592 140.676C130.24 133.381 137.713 126.967 145.337 120.738C145.783 120.376 146.317 120.139 146.884 120.051C150.741 119.549 154.598 118.923 158.469 118.683C162.833 118.4 167.209 118.34 171.579 118.504C176.137 118.689 180.675 119.288 185.35 119.721C185.267 121.302 185.247 122.649 185.123 123.983C184.284 132.646 182.077 140.944 178.001 148.651C167.936 167.66 152.412 179.561 131.409 184.201C126.701 185.196 121.899 185.668 117.088 185.611C111.966 185.604 106.844 185.652 101.722 185.597C87.5256 185.446 74.5387 181.403 62.9818 173.126C49.0737 163.157 40.0881 149.771 36.2243 133.072C35.3561 129.343 34.8405 125.54 34.6843 121.714C34.3597 114.487 34.2955 107.249 34.4918 100.017C34.911 85.5164 39.985 71.5356 48.9636 60.1415C57.9422 48.7474 70.3488 40.5448 84.3493 36.7463C89.9446 35.2209 95.7167 34.4396 101.516 34.4226C107.456 34.402 113.389 34.3126 119.322 34.4501C133.526 34.7801 146.431 39.1113 157.843 47.5951C171.49 57.7357 180.173 71.1901 183.831 87.807C184.717 91.7945 185.027 95.9057 185.625 100.161C182.669 100.539 180.104 101.041 177.512 101.165Z" fill="white"/>
</g>
<defs>
<clipPath id="clip0_108_114">
<rect width="220" height="220" fill="white"/>
</clipPath>
</defs>
</svg>
