<svg width="220" height="220" viewBox="0 0 220 220" fill="none" xmlns="http://www.w3.org/2000/svg">
<g clip-path="url(#clip0_108_118)">
<path d="M110 220C170.751 220 220 170.751 220 110C220 49.2487 170.751 0 110 0C49.2487 0 0 49.2487 0 110C0 170.751 49.2487 220 110 220Z" fill="#37E8A3"/>
<path d="M83.435 109.766L107.374 133.781L170.143 70.5925L178.75 79.3238L107.374 151.25L74.8206 118.504L83.435 109.766ZM97.9413 107.635L136.565 68.75L145.179 77.4813L106.562 116.394L97.9413 107.635ZM82.2938 140.841L73.7963 149.408L41.25 116.669L49.8506 107.938L82.2938 140.841Z" fill="white"/>
</g>
<defs>
<clipPath id="clip0_108_118">
<rect width="220" height="220" fill="white"/>
</clipPath>
</defs>
</svg>
