<svg width="220" height="220" viewBox="0 0 220 220" fill="none" xmlns="http://www.w3.org/2000/svg">
<g clip-path="url(#clip0_108_113)">
<path d="M110 220C170.751 220 220 170.751 220 110C220 49.2487 170.751 0 110 0C49.2487 0 0 49.2487 0 110C0 170.751 49.2487 220 110 220Z" fill="#00BDCD"/>
<path d="M150.102 66.99C140.397 58.7446 128.063 54.2408 115.328 54.2919C86.4875 54.2919 62.7344 77.0963 60.7544 106.246H55.1031C57.0831 73.6313 83.38 48.5169 115.328 48.5169C129.47 48.5169 143.034 53.7144 154.062 62.9544L150.102 66.99ZM148.122 86.0406C144.41 80.7929 139.496 76.5091 133.791 73.5467C128.087 70.5843 121.756 69.0293 115.328 69.0112C92.9912 69.0112 74.8963 87.4844 74.8963 110C74.8963 132.798 92.9913 151.277 115.321 151.277C128.287 151.277 140.477 144.952 148.122 134.241L152.089 138.284C143.316 150.116 129.745 157.052 115.328 157.052C89.8769 157.052 69.2381 135.974 69.2381 110C69.2381 84.315 89.8769 63.2362 115.328 63.2362C122.498 63.2657 129.56 64.9797 135.945 68.2398C142.331 71.5 147.86 76.2151 152.089 82.005L148.122 86.0406ZM154.626 71.3212L158.593 67.2788C160.002 68.7225 161.136 70.1663 162.264 71.61L158.304 75.6456C157.16 74.1341 155.932 72.6881 154.626 71.3144V71.3212ZM115.046 171.765C83.0981 171.765 56.8012 146.657 54.8212 114.042H60.4725C62.4525 143.192 86.2056 165.997 115.046 165.997C127.765 165.997 139.934 161.666 149.82 153.299L153.78 157.334C142.999 166.604 129.264 171.723 115.046 171.772V171.765ZM154.626 148.967C156.042 147.524 157.169 146.08 158.304 144.636L162.264 148.672C161.129 150.116 160.002 151.559 158.593 153.003L154.626 148.967ZM46.9081 110C46.9081 148.39 77.7219 179.85 115.328 179.85C135.685 179.85 154.907 170.906 167.922 154.454L171.875 158.489C157.74 175.814 137.383 185.625 115.328 185.625C74.3325 185.625 41.25 151.559 41.25 110C41.25 68.145 74.6144 34.375 115.328 34.375C137.087 34.375 157.747 44.1856 171.875 61.5106L167.915 65.5531C154.908 49.39 135.685 40.15 115.321 40.15C77.715 40.15 46.9081 71.61 46.9081 110Z" fill="white"/>
</g>
<defs>
<clipPath id="clip0_108_113">
<rect width="220" height="220" fill="white"/>
</clipPath>
</defs>
</svg>
