<svg width="220" height="220" viewBox="0 0 220 220" fill="none" xmlns="http://www.w3.org/2000/svg">
<g clip-path="url(#clip0_108_116)">
<path d="M110 220C170.751 220 220 170.751 220 110C220 49.2487 170.751 0 110 0C49.2487 0 0 49.2487 0 110C0 170.751 49.2487 220 110 220Z" fill="#0F1529"/>
<path fill-rule="evenodd" clip-rule="evenodd" d="M170.727 105.504C169.345 105.813 168.396 105.992 167.468 106.239C161.659 107.759 155.808 108.962 149.758 108.735C141.673 108.426 134.729 105.174 128.604 99.935C126.129 97.8106 123.832 95.4662 121.467 93.2112C120.319 92.125 120.044 90.8875 120.917 89.4712L123.152 85.8481L126.17 89.1619C130.522 93.9881 135.176 98.3812 141.316 100.726C147.345 103.022 153.484 102.685 159.651 101.647C168.369 100.189 176.419 96.7037 184.312 92.7919C184.573 92.6612 184.862 92.5787 185.625 92.2762C185.102 93.2594 184.814 93.8437 184.484 94.3937C172.961 113.767 161.439 133.141 149.903 152.508C148.486 154.887 147.957 155.066 145.496 153.862C129.229 145.874 112.193 144.354 94.6069 147.379C91.8569 147.854 91.3688 147.62 90.0556 144.801C88.6188 141.721 88.6325 141.804 91.8844 141.178C100.945 139.408 110.223 139.03 119.398 140.057C127.985 141.02 136.544 142.285 144.423 146.327C145.551 146.912 146.149 146.424 146.713 145.489C151.711 137.143 156.709 128.796 161.734 120.464C164.423 116.002 167.166 111.574 169.868 107.126C170.101 106.741 170.287 106.336 170.727 105.504ZM49.3556 106.336C50.5106 108.281 51.6656 110.227 52.8344 112.166L75.9619 150.528C77.0619 152.357 77.0619 152.412 75.1575 153.285C71.0531 155.176 71.5619 155.664 69.0525 151.463C60.1837 136.579 51.3288 121.681 42.4738 106.789L35.2962 94.7237C34.9525 94.1531 34.6775 93.5344 34.375 92.9362L34.6431 92.5787C35.6538 93.0256 36.6713 93.445 37.6681 93.9125C43.7388 96.7519 49.8781 99.3919 56.3819 101.001C64.7281 103.077 72.9712 103.317 80.9256 99.3506C85.8756 96.8825 89.9525 93.2456 93.6237 89.1C99.5019 82.445 104.273 74.9788 108.597 67.1963L109.649 65.3125C110.22 66.165 110.584 66.8113 111.045 67.375C113.582 70.4825 112.984 73.2462 110.846 76.4637C106.074 83.6412 101.269 90.75 94.9162 96.58C89.2375 101.791 82.8712 105.724 75.3912 107.518C69.52 108.927 63.6213 108.646 57.7294 107.552C55.0344 107.051 52.3531 106.487 49.665 105.951L49.3556 106.336Z" fill="white"/>
</g>
<defs>
<clipPath id="clip0_108_116">
<rect width="220" height="220" fill="white"/>
</clipPath>
</defs>
</svg>
