<svg width="220" height="220" viewBox="0 0 220 220" fill="none" xmlns="http://www.w3.org/2000/svg">
<g clip-path="url(#clip0_108_115)">
<path d="M110 220C170.751 220 220 170.751 220 110C220 49.2487 170.751 0 110 0C49.2487 0 0 49.2487 0 110C0 170.751 49.2487 220 110 220Z" fill="#262626"/>
<path fill-rule="evenodd" clip-rule="evenodd" d="M116.401 66.1719C133.265 67.4162 141.446 77.4813 141.446 79.3031C141.446 80.5887 141.137 83.3937 141.137 85.1125C141.137 86.2606 141.549 88.0963 142.374 90.6125C142.168 92.3313 141.034 93.1975 138.964 93.1975C135.871 93.1975 136.737 89.7256 132.144 82.8506C127.194 75.4462 122.189 73.8925 116.373 73.5694C116.49 89.3544 116.923 132.804 116.958 147.751C132.461 145.496 141.068 133.918 143.303 133.918C144.54 133.918 146.094 134.881 146.094 137.149C146.094 141.927 133.843 152.735 116.724 154.873C115.445 168.823 108.845 185.625 92.4688 185.625C84.7207 185.625 78.21 179.644 78.21 172.7C78.21 168.176 81.62 166.238 84.7207 166.238C87.8144 166.238 90.915 168.499 90.915 172.7C90.915 175.498 89.9869 177.444 88.1307 178.516C89.9869 179.809 91.8432 180.455 93.7063 180.455C99.9075 180.455 104.569 169.235 105.366 154.811C87.2988 151.91 70.4619 134.695 70.4619 109.677C70.4619 81.5375 87.9932 69.3687 105.188 66.6531C105.531 54.0031 112.138 34.6844 129.044 34.375C139.267 34.375 143.605 42.7763 143.605 47.3C143.605 51.8238 140.353 53.7625 137.101 53.7625C133.843 53.7625 130.591 51.1775 130.591 47.3C130.591 44.715 131.622 42.8862 133.684 41.8069C132.241 40.5144 130.384 39.8681 128.116 39.8681C119.515 39.8681 116.813 58.0044 116.394 66.1719H116.401ZM105.49 147.214C105.463 130.481 105.249 91.9188 105.194 74.2019C89.3269 78.1 84.1088 96.9788 84.1088 109.677C84.1088 129.807 93.6238 143.632 105.49 147.214Z" fill="white"/>
</g>
<defs>
<clipPath id="clip0_108_115">
<rect width="220" height="220" fill="white"/>
</clipPath>
</defs>
</svg>
