<svg width="220" height="220" viewBox="0 0 220 220" fill="none" xmlns="http://www.w3.org/2000/svg">
<g clip-path="url(#clip0_108_120)">
<path d="M110 220C170.751 220 220 170.751 220 110C220 49.2487 170.751 0 110 0C49.2487 0 0 49.2487 0 110C0 170.751 49.2487 220 110 220Z" fill="#FDDE6C"/>
<path fill-rule="evenodd" clip-rule="evenodd" d="M110 185.625C68.2344 185.625 34.375 151.766 34.375 110C34.375 68.2344 68.2344 34.375 110 34.375C151.766 34.375 185.625 68.2344 185.625 110C185.625 151.766 151.766 185.625 110 185.625ZM110 174.996C127.238 174.996 143.77 168.148 155.959 155.959C168.148 143.77 174.996 127.238 174.996 110C174.996 92.7619 168.148 76.2299 155.959 64.0407C143.77 51.8516 127.238 45.0037 110 45.0037C92.7619 45.0037 76.2299 51.8516 64.0407 64.0407C51.8516 76.2299 45.0037 92.7619 45.0037 110C45.0037 127.238 51.8516 143.77 64.0407 155.959C76.2299 168.148 92.7619 174.996 110 174.996ZM110.495 154.969C85.7656 154.969 65.8488 136.063 65.8488 110.247V110C65.8488 84.7962 85.2706 65.0375 111.485 65.0375C129.167 65.0375 140.546 72.4488 148.218 83.0706L130.157 97.0269C125.207 90.8531 119.522 86.9 111.238 86.9C99.1169 86.9 90.585 97.1506 90.585 109.752V110C90.585 122.973 99.1169 133.1 111.238 133.1C120.264 133.1 125.586 128.906 130.776 122.602L148.837 135.451C140.669 146.692 129.663 154.969 110.495 154.969Z" fill="white"/>
</g>
<defs>
<clipPath id="clip0_108_120">
<rect width="220" height="220" fill="white"/>
</clipPath>
</defs>
</svg>
