<svg width="220" height="220" viewBox="0 0 220 220" fill="none" xmlns="http://www.w3.org/2000/svg">
<g clip-path="url(#clip0_108_121)">
<path d="M110 220C170.751 220 220 170.751 220 110C220 49.2487 170.751 0 110 0C49.2487 0 0 49.2487 0 110C0 170.751 49.2487 220 110 220Z" fill="black"/>
<path d="M109.292 30.2368C108.288 27.968 111.918 26.3593 112.922 28.518C136.517 69.163 160.112 109.829 183.707 150.536C182.449 150.536 181.239 150.123 180.029 149.931L117.054 137.377C114.991 137.274 114.537 133.939 116.552 133.444L141.26 126.638C141.555 126.563 141.829 126.425 142.064 126.232C142.299 126.039 142.488 125.796 142.618 125.522C142.748 125.247 142.816 124.947 142.816 124.643C142.817 124.34 142.75 124.039 142.622 123.764L109.292 30.1818V30.2299V30.2368Z" fill="white"/>
<path d="M105.669 30.4424C105.896 30.7724 106.095 31.1299 106.267 31.5011C113.733 52.6761 121.392 73.8511 128.803 95.0261C129.463 96.7861 126.988 98.2505 125.778 96.9374C119.426 90.2824 113.376 83.428 107.126 76.773C106.116 75.8655 104.651 76.4705 103.998 77.4261L39.0638 153.711C38.3075 154.516 37.6544 155.726 36.3894 155.877C35.4819 155.877 34.8769 155.169 34.375 154.467V153.299C58.1694 112.365 81.9363 71.4174 105.669 30.4424Z" fill="white"/>
<path d="M85.8 103.091C87.01 102.741 88.6188 103.593 88.22 105.058C85.6969 113.83 83.0294 122.554 80.4032 131.272C80.0044 132.386 81.0082 133.389 82.0669 133.444C116.05 140.251 150.033 147.304 184.009 154.111C184.669 154.214 185.123 154.716 185.625 155.121V156.531L184.663 157.541H40.425C55.55 139.391 70.6269 121.138 85.8 103.091Z" fill="white"/>
</g>
<defs>
<clipPath id="clip0_108_121">
<rect width="220" height="220" fill="white"/>
</clipPath>
</defs>
</svg>
