<svg width="220" height="220" viewBox="0 0 220 220" fill="none" xmlns="http://www.w3.org/2000/svg">
<g clip-path="url(#clip0_108_122)">
<path d="M110 220C170.751 220 220 170.751 220 110C220 49.2487 170.751 0 110 0C49.2487 0 0 49.2487 0 110C0 170.751 49.2487 220 110 220Z" fill="#3AB03E"/>
<path d="M117.982 115.356C120.715 114.046 123.022 111.992 124.64 109.43C126.258 106.867 127.119 103.9 127.126 100.87C127.126 91.9738 119.824 84.7619 110.832 84.7619C101.826 84.7619 94.5175 91.9738 94.5175 100.87C94.525 103.901 95.3885 106.868 97.0087 109.43C98.6288 111.991 100.94 114.043 103.675 115.349V135.245H117.982V115.356ZM110.832 161.562C82.0531 161.562 58.6506 138.435 58.6506 110C58.6506 81.565 82.0531 58.4375 110.832 58.4375C134.31 58.4375 154.213 73.8375 160.744 94.9575H178.729C171.786 64.2263 144.024 41.25 110.825 41.25C72.4006 41.25 41.25 72.0294 41.25 110C41.25 147.971 72.4006 178.75 110.825 178.75C144.024 178.75 171.786 155.774 178.729 125.042H160.737C154.206 146.162 134.303 161.562 110.825 161.562" fill="white"/>
</g>
<defs>
<clipPath id="clip0_108_122">
<rect width="220" height="220" fill="white"/>
</clipPath>
</defs>
</svg>
