<svg width="220" height="220" viewBox="0 0 220 220" fill="none" xmlns="http://www.w3.org/2000/svg">
<g clip-path="url(#clip0_108_125)">
<path d="M110 220C170.751 220 220 170.751 220 110C220 49.2487 170.751 0 110 0C49.2487 0 0 49.2487 0 110C0 170.751 49.2487 220 110 220Z" fill="#008CE7"/>
<path d="M131.216 55.0273H81.194L77.0552 78.1755L122.169 78.2442C144.382 78.2442 150.975 86.3086 150.762 99.6942C150.666 106.555 147.675 118.16 146.41 121.9C142.993 131.938 135.953 143.364 109.567 143.33L65.7183 143.302L61.5796 166.478H111.471C129.065 166.478 136.558 164.422 144.471 160.772C162.03 152.673 172.487 135.327 176.688 112.688C182.916 79.0005 175.148 55.0273 131.21 55.0273H131.216Z" fill="white"/>
<path d="M108.673 108.612C110.303 101.84 110.818 99.124 110.818 99.124H59.6272C46.5372 99.124 44.6672 107.649 43.4228 112.805C41.7935 119.55 41.2778 122.3 41.2778 122.3H92.476C105.559 122.3 107.429 113.775 108.673 108.612Z" fill="white"/>
</g>
<defs>
<clipPath id="clip0_108_125">
<rect width="220" height="220" fill="white"/>
</clipPath>
</defs>
</svg>
