<svg width="220" height="220" viewBox="0 0 220 220" fill="none" xmlns="http://www.w3.org/2000/svg">
<g clip-path="url(#clip0_108_126)">
<path d="M110 220C170.751 220 220 170.751 220 110C220 49.2487 170.751 0 110 0C49.2487 0 0 49.2487 0 110C0 170.751 49.2487 220 110 220Z" fill="#2D9CDB"/>
<path d="M137.872 38.5408C140.567 38.5408 142.739 39.3658 144.382 41.0089C146.025 42.652 146.843 44.8176 146.843 47.5195V127.778C146.843 136.922 144.678 145.261 140.333 152.769C136.191 160.078 130.178 166.153 122.912 170.369C115.638 174.59 107.484 176.701 98.4435 176.701C89.4097 176.701 81.1391 174.59 73.6247 170.369C66.3581 166.153 60.345 160.078 56.2035 152.769C51.9822 145.261 49.8716 136.929 49.8716 127.778C49.8716 118.628 51.8035 110.35 55.681 102.96C59.6685 95.452 65.0653 89.5808 71.8716 85.3595C78.7947 81.1383 86.481 79.0208 94.9235 79.0208C101.424 78.9731 107.853 80.388 113.733 83.1608C119.613 85.9336 124.794 89.9934 128.893 95.0395V47.5195C128.893 44.8176 129.718 42.652 131.361 41.0089C133.121 39.3598 135.461 38.4727 137.872 38.5408ZM98.4435 160.861C104.315 160.861 109.595 159.458 114.283 156.64C119.056 153.749 122.952 149.614 125.552 144.677C128.247 139.624 129.601 133.993 129.601 127.778C129.601 121.563 128.247 115.981 125.545 111.058C122.975 106.145 119.072 102.056 114.283 99.2608C109.595 96.332 104.315 94.8608 98.4435 94.8608C92.5791 94.8608 87.2372 96.332 82.4247 99.2608C77.6892 102.123 73.8021 106.195 71.1635 111.058C68.4685 115.981 67.121 121.556 67.121 127.778C67.121 134 68.4685 139.624 71.1635 144.67C73.8324 149.559 77.7124 153.681 82.4316 156.64C87.2441 159.458 92.5791 160.861 98.4503 160.861H98.4435Z" fill="white"/>
</g>
<defs>
<clipPath id="clip0_108_126">
<rect width="220" height="220" fill="white"/>
</clipPath>
</defs>
</svg>
