<svg width="220" height="220" viewBox="0 0 220 220" fill="none" xmlns="http://www.w3.org/2000/svg">
<g clip-path="url(#clip0_108_127)">
<path d="M110 220C170.751 220 220 170.751 220 110C220 49.2487 170.751 0 110 0C49.2487 0 0 49.2487 0 110C0 170.751 49.2487 220 110 220Z" fill="#E9570F"/>
<path d="M165.963 68.158L177.011 57.1992C179.623 54.6142 179.08 49.8842 175.815 46.6461C172.549 43.4011 167.771 42.8717 165.165 45.4636L144.43 66.0199L143.722 66.728L125.655 84.6374C119.649 80.3066 112.304 78.2414 104.921 78.8077C97.5383 79.374 90.5942 82.5351 85.319 87.7311C80.0872 92.9137 76.8934 99.8047 76.3204 107.147C75.7473 114.488 77.8334 121.791 82.1978 127.723L68.4065 141.404C64.8293 136.637 62.0671 131.31 60.2321 125.64C55.6052 111.629 56.8496 96.2836 64.3571 83.6336C76.0652 63.9024 97.0134 55.3224 116.868 57.8386C117.868 57.9788 118.886 57.9116 119.859 57.6413C120.832 57.371 121.738 56.9034 122.523 56.2675C123.307 55.6316 123.952 54.8411 124.417 53.9452C124.883 53.0492 125.159 52.0671 125.228 51.0599C125.359 48.7488 124.592 46.4767 123.089 44.7169C121.585 42.9571 119.46 41.8455 117.157 41.6136C97.2128 39.5717 76.5946 46.0824 61.3665 61.1799C36.1352 86.1911 34.6571 125.867 56.829 152.879L44.179 165.425C41.6834 167.9 42.3021 172.541 45.5746 175.779C48.8402 179.017 53.5152 179.643 56.0109 177.168L69.6302 163.665H69.6371L79.4821 153.903L79.5028 153.875L95.4665 138.049C101.143 140.361 107.373 140.958 113.385 139.765C119.397 138.573 124.928 135.643 129.292 131.339C133.624 127.053 136.582 121.573 137.788 115.599C138.994 109.625 138.394 103.428 136.063 97.7961L154.172 79.8455C167.448 99.838 164.815 127.517 146.541 145.625C141.046 151.1 134.44 155.331 127.17 158.034C119.899 160.737 112.134 161.849 104.397 161.294C102.655 161.194 100.943 161.775 99.6217 162.914C98.3004 164.053 97.4736 165.661 97.3159 167.399L97.1234 169.599C97.0369 170.561 97.1468 171.531 97.4463 172.449C97.7458 173.368 98.2287 174.216 98.8657 174.942C99.5028 175.669 100.281 176.258 101.152 176.675C102.024 177.092 102.971 177.327 103.937 177.367C113.854 177.9 123.772 176.341 133.049 172.793C142.325 169.244 150.751 163.785 157.782 156.77C182.511 132.247 185.371 94.4755 165.963 68.1511V68.158ZM117.831 119.961C115.027 122.724 111.248 124.272 107.312 124.272C103.376 124.272 99.5974 122.724 96.7934 119.961C95.4163 118.596 94.3232 116.972 93.5772 115.183C92.8312 113.393 92.4471 111.474 92.4471 109.535C92.4471 107.596 92.8312 105.677 93.5772 103.887C94.3232 102.098 95.4163 100.474 96.7934 99.1092C99.5965 96.3449 103.375 94.7951 107.312 94.7951C111.249 94.7951 115.028 96.3449 117.831 99.1092C119.208 100.474 120.301 102.098 121.047 103.887C121.793 105.677 122.177 107.596 122.177 109.535C122.177 111.474 121.793 113.393 121.047 115.183C120.301 116.972 119.208 118.596 117.831 119.961Z" fill="white"/>
</g>
<defs>
<clipPath id="clip0_108_127">
<rect width="220" height="220" fill="white"/>
</clipPath>
</defs>
</svg>
