<svg width="220" height="220" viewBox="0 0 220 220" fill="none" xmlns="http://www.w3.org/2000/svg">
<g clip-path="url(#clip0_108_128)">
<path d="M110 220C170.751 220 220 170.751 220 110C220 49.2487 170.751 0 110 0C49.2487 0 0 49.2487 0 110C0 170.751 49.2487 220 110 220Z" fill="#5BC1D4"/>
<path fill-rule="evenodd" clip-rule="evenodd" d="M94.7719 116.379L83.4281 128.232C81.3863 130.363 79.3856 132.515 77.3369 134.633C76.9931 134.99 76.505 135.203 76.0856 135.485C75.1919 135.341 74.5044 134.784 74.3875 133.973C74.1977 132.738 74.0281 131.5 73.8788 130.26C73.6725 128.624 73.1706 128.17 71.5138 127.964C68.0969 127.551 64.6869 127.104 61.27 126.658L53.4737 125.647C51.92 125.441 51.3562 124.327 52.1675 123C54.0375 119.989 55.9212 116.991 57.7981 113.994L69.2794 95.6514C69.7331 94.9089 70.2419 94.4001 71.2181 94.4276C71.8369 94.4414 72.4831 94.2901 73.095 94.132C73.8237 93.9532 74.3944 94.1732 74.9031 94.6545C75.8038 95.5001 76.7181 96.3389 77.6119 97.1914L87.9794 107.029C90.2137 109.147 92.4687 111.251 94.7031 113.368C95.8581 114.454 95.8581 115.238 94.7719 116.379ZM171.016 132.323C171.662 132.859 172.363 133.368 172.501 134.282C172.673 135.451 172.205 136.296 171.215 136.936C165.371 140.717 159.528 144.519 153.684 148.307L142.388 155.629C142.032 155.855 141.692 156.105 141.371 156.378C141.086 156.612 140.86 156.909 140.711 157.246C140.561 157.582 140.493 157.949 140.511 158.317C140.566 159.726 140.649 161.136 140.669 162.538C140.69 164.154 139.501 165.164 137.878 164.979C137.294 164.902 136.763 164.598 136.4 164.133C135.041 162.565 133.684 160.996 132.33 159.424C130.632 157.458 128.941 155.478 127.236 153.518C126.884 153.168 126.618 152.741 126.457 152.272C126.297 151.802 126.245 151.302 126.307 150.81L126.541 142.594C126.569 141.631 127.139 141.013 127.909 140.518L137.246 134.55C142.471 131.216 147.709 127.895 152.921 124.526C154.021 123.818 155.045 123.605 156.255 124.224C157.149 124.678 158.159 124.76 159.129 124.458C160.579 123.997 161.693 124.403 162.814 125.393C165.495 127.758 168.279 130.013 171.022 132.323H171.016ZM120.842 139.143C121.266 139.557 121.568 140.08 121.715 140.655C121.969 141.941 121.461 142.814 120.251 143.398C116.229 145.337 112.214 147.296 108.158 149.173C107.429 149.503 106.514 149.544 105.682 149.586C102.321 149.737 98.9587 149.826 95.5969 149.964C93.61 150.039 91.63 150.163 89.8013 150.26H88.4538C88.1489 150.267 87.8457 150.213 87.5622 150.101C87.2787 149.989 87.0208 149.821 86.8038 149.606C86.3775 149.214 85.9375 148.836 85.5181 148.438C83.1531 146.189 80.8294 143.9 78.4163 141.7C77.0688 140.476 77.0481 138.833 78.3338 137.52C81.2281 134.536 84.0881 131.525 86.9619 128.514C90.0625 125.269 93.1631 122.01 96.2569 118.751C96.4916 118.475 96.7804 118.25 97.1055 118.09C97.4306 117.929 97.7851 117.837 98.1471 117.819C98.5091 117.801 98.871 117.858 99.2104 117.985C99.5499 118.112 99.8596 118.307 100.121 118.559L112.496 130.858C115.273 133.622 118.078 136.358 120.842 139.143ZM137.878 83.8057C136.551 81.757 138.05 78.9245 140.257 78.5601C146.156 77.577 152.034 76.4495 157.926 75.4251C159.225 75.1982 160.256 75.7964 160.971 76.8689C162.209 78.7251 163.426 80.5882 164.649 82.4514C167.234 86.3701 169.826 90.2889 172.384 94.2214C172.727 94.7507 172.899 95.3901 173.154 95.9745L173.003 96.0432C172.96 97.047 172.588 98.0088 171.944 98.7795C168.341 103.619 164.698 108.439 161.102 113.286C160.763 113.716 160.324 114.057 159.823 114.279C159.322 114.501 158.775 114.597 158.228 114.56C157.682 114.523 157.152 114.353 156.686 114.065C156.22 113.777 155.832 113.38 155.554 112.908C150.294 104.176 144.98 95.4726 139.686 86.762C139.088 85.772 138.504 84.7682 137.878 83.8057ZM127.531 108.088L126.5 117.266C126.211 119.81 125.902 122.34 125.613 124.884L124.596 133.821C124.527 134.447 124.52 135.086 124.389 135.691C124.321 135.987 124.101 136.365 123.853 136.461C123.606 136.558 123.166 136.42 122.946 136.234C121.969 135.389 121.041 134.495 120.106 133.608C116.737 130.418 113.389 127.221 110.021 124.045C107.092 121.274 104.156 118.524 101.214 115.774C100.237 114.867 100.231 114.578 101.172 113.595L114.634 99.5014L123.826 89.8489L128.336 85.1051C128.466 84.9676 128.576 84.782 128.734 84.727C129.058 84.6101 129.456 84.452 129.738 84.5414C129.972 84.6239 130.082 85.0432 130.151 85.1601L129.463 91.2101L128.576 98.9857L127.531 108.088ZM153.698 115.101C154.138 115.809 154.206 116.483 153.725 117.218C153.2 118.043 152.977 119.025 153.092 119.996C153.175 120.862 152.818 121.391 152.082 121.852C146.327 125.503 140.601 129.181 134.867 132.852C133.066 134.007 131.264 135.155 129.456 136.296C128.741 136.75 128.006 136.716 127.614 136.138C127.394 135.822 127.366 135.382 127.304 135.162L128.061 129.607L129.745 117.356L131.601 103.949L133.409 90.8389L134.097 85.9576C134.111 85.827 134.118 85.6757 134.186 85.5795C134.365 85.3526 134.564 85.0157 134.791 84.9745C135.039 84.9332 135.424 85.1257 135.582 85.3389C136.001 85.9026 136.338 86.5282 136.709 87.1332L150.15 109.243C151.333 111.196 152.501 113.155 153.698 115.094V115.101ZM125.833 81.3857C126.046 81.5232 126.459 81.6676 126.679 81.9632C127.016 82.417 126.72 82.8432 126.369 83.2076L121.694 88.1232L108.068 102.382C105.222 105.373 102.389 108.377 99.5431 111.361C98.5119 112.433 97.6869 112.433 96.6144 111.416C93.2938 108.267 89.9731 105.104 86.6456 101.963C83.4144 98.9101 80.1694 95.8645 76.9244 92.8189C76.4912 92.4064 76.1475 91.9595 76.1956 91.327C76.2644 90.4676 76.7594 89.9795 77.7425 89.8145C79.5369 89.4914 81.3381 89.1751 83.1394 88.8657L100.43 85.8407L120.849 82.2589L125.833 81.3857ZM79.5025 85.7307C82.7062 83.5376 85.91 81.3582 89.1206 79.1789L120.127 58.0589C121.158 57.3576 121.811 57.502 122.327 58.6157C124.465 63.1945 126.589 67.7801 128.721 72.3657C128.996 72.957 129.257 73.5551 129.539 74.1532C129.766 74.6345 129.614 75.0264 129.326 75.4595C128.95 75.9904 128.632 76.5596 128.377 77.1576C128.15 77.7282 127.806 78.0376 127.188 78.1476C122.622 78.9589 118.064 79.7976 113.506 80.6089L97.3225 83.517L79.6538 86.6932C79.4063 86.7345 79.1519 86.6932 78.8975 86.6932L78.7463 86.4114C79.0006 86.1845 79.2275 85.9232 79.5025 85.7307ZM47.2588 96.222C45.2375 96.1807 44.0344 94.2145 45.0038 92.4064C45.8219 90.8801 46.7294 89.4089 47.6094 87.917C50.1394 83.5926 52.6831 79.282 55.1994 74.9576C55.61 74.2515 56.2038 73.6695 56.9181 73.2732C63.6281 69.4164 70.3244 65.5389 77.0344 61.6751C77.4603 61.4145 77.9277 61.2284 78.4163 61.1251C78.8743 61.0347 79.3487 61.0802 79.7812 61.2561C80.2136 61.432 80.5852 61.7306 80.85 62.1151C81.1429 62.4908 81.3208 62.9432 81.3623 63.4177C81.4038 63.8923 81.307 64.3687 81.0837 64.7895C80.0731 66.9482 79.0212 69.0864 77.99 71.2314C76.065 75.1639 74.14 79.0895 72.2356 83.0289C72.0553 83.4643 71.7743 83.8507 71.4158 84.1567C71.0573 84.4626 70.6315 84.6792 70.1731 84.7889C69.3203 84.9922 68.5402 85.4273 67.9191 86.046C67.2979 86.6647 66.8598 87.4431 66.6531 88.2951C66.5487 88.7158 66.3356 89.1018 66.0352 89.4142C65.7348 89.7267 65.3575 89.9548 64.9412 90.0757C59.4275 92.0145 53.9206 93.9945 48.4137 95.9539C48.0425 96.0914 47.6506 96.1326 47.2656 96.2289L47.2588 96.222ZM75.8106 83.6682C75.8379 83.3813 75.9171 83.1018 76.0444 82.8432L83.2494 67.0514C84.7481 63.7651 86.2675 60.4857 87.7456 57.1926C88.0894 56.4364 88.5913 56.0582 89.4438 56.0239C91.6919 55.9551 93.94 55.8382 96.1881 55.7489L109.457 55.247C111.011 55.1782 112.571 55.0751 114.132 54.9995C115.246 54.9514 116.009 55.6251 116.016 56.7182C116.064 57.3851 115.637 57.8182 115.088 58.1964L110.839 61.0907L85.4425 78.3676L77.33 83.8951C77.1408 84.0382 76.9382 84.1625 76.725 84.2664C76.2437 84.4726 75.7831 84.1839 75.8106 83.6682ZM66.44 95.012C65.3194 96.8201 64.185 98.6145 63.0575 100.416C58.8431 107.153 54.6287 113.898 50.4075 120.628C50.2334 120.951 50.0002 121.238 49.72 121.474C48.9912 121.996 48.0219 121.632 47.6781 120.718C47.1281 119.246 46.6056 117.761 46.0763 116.283L41.4769 103.344C41.3669 103.021 41.2913 102.691 41.25 102.533C41.2569 101.66 41.5456 101.289 42.3638 101.021C44.8113 100.23 47.2587 99.4532 49.7063 98.6764L63.5594 94.2764L65.3813 93.7126C65.8144 93.5751 66.2475 93.3895 66.605 93.8707C66.9281 94.3039 66.66 94.6614 66.44 95.012ZM177.251 112.949L178.64 120.896C178.681 121.151 178.709 121.412 178.75 121.749C178.681 122.093 178.606 122.505 178.496 122.904L176.674 129.476C176.151 131.367 174.652 131.814 173.14 130.535C170.039 127.923 166.925 125.31 163.811 122.711C163.103 122.12 162.807 121.439 162.972 120.504C163.174 119.574 163.063 118.602 162.656 117.741C162.229 116.895 162.367 116.146 162.924 115.403C165.467 111.993 167.991 108.569 170.528 105.159L172.074 103.069C172.59 102.361 173.271 102.018 174.137 102.21C175.044 102.416 175.512 103.035 175.663 103.922L177.244 112.949H177.251ZM125.249 58.3339L125.111 58.0451C124.926 57.6326 124.85 57.1514 125.269 56.9176C125.637 56.7526 126.053 56.7281 126.438 56.8489C127.043 57.0345 127.586 57.3782 128.157 57.6601L151.271 69.2032L155.375 71.2657C155.836 71.4926 156.2 71.7607 156.104 72.3382C156.007 72.9089 155.574 73.0326 155.072 73.122C149.518 74.112 143.969 75.1157 138.421 76.1126L137.878 76.2226C137.72 76.1195 137.417 76.0026 137.225 75.7826C136.731 75.1609 136.108 74.653 135.4 74.2935C134.692 73.934 133.914 73.7314 133.121 73.6995C132.502 73.672 132.186 73.3076 131.952 72.792C130.976 70.6745 129.979 68.5707 128.996 66.4601L125.249 58.3339Z" fill="white"/>
</g>
<defs>
<clipPath id="clip0_108_128">
<rect width="220" height="220" fill="white"/>
</clipPath>
</defs>
</svg>
