<svg width="220" height="220" viewBox="0 0 220 220" fill="none" xmlns="http://www.w3.org/2000/svg">
<g clip-path="url(#clip0_108_129)">
<path d="M110 220C170.751 220 220 170.751 220 110C220 49.2487 170.751 0 110 0C49.2487 0 0 49.2487 0 110C0 170.751 49.2487 220 110 220Z" fill="#136485"/>
<path fill-rule="evenodd" clip-rule="evenodd" d="M71.7477 213.166C57.3431 207.814 44.2189 199.505 33.2202 188.774L34.2308 187.007C50.6483 161.067 65.3952 134.221 76.4983 105.538C88.2752 75.1162 97.7008 43.89 106.68 12.54C107.484 9.74187 108.44 6.99187 109.32 4.22125C110.268 5.3075 110.612 6.31812 110.901 7.3425C116.538 27.4587 121.99 47.63 127.841 67.6775C138.497 104.204 153.485 138.854 173.333 171.332C175.65 175.113 179.589 181.452 185.158 190.321C173.303 201.432 159.133 209.776 143.667 214.754C132.268 179.969 120.806 145.204 109.278 110.461L108.22 110.447C100.203 132.976 88.0483 167.214 71.7477 213.166ZM110.516 0.336875H109.663L110 0L110.516 0.336875Z" fill="white"/>
</g>
<defs>
<clipPath id="clip0_108_129">
<rect width="220" height="220" fill="white"/>
</clipPath>
</defs>
</svg>
