<svg width="220" height="220" viewBox="0 0 220 220" fill="none" xmlns="http://www.w3.org/2000/svg">
<g clip-path="url(#clip0_108_130)">
<path d="M110 220C170.751 220 220 170.751 220 110C220 49.2487 170.751 0 110 0C49.2487 0 0 49.2487 0 110C0 170.751 49.2487 220 110 220Z" fill="#2ED6A1"/>
<path d="M102.135 121.138H132.523C135.219 121.129 137.888 120.59 140.377 119.551C142.865 118.511 145.124 116.992 147.025 115.079C148.927 113.166 150.432 110.898 151.457 108.403C152.481 105.909 153.005 103.237 152.996 100.54C153.011 95.0948 150.862 89.8667 147.023 86.0054C143.184 82.1441 137.968 79.9658 132.523 79.9494H122.856L102.135 61.875H132.523C141.46 61.8963 150.112 65.0256 156.996 70.7264C163.88 76.4272 168.566 84.3447 170.253 93.1219C171.975 101.904 170.601 111.012 166.366 118.896C162.131 126.779 155.295 132.953 147.022 136.366L170.981 157.279H143.543L102.135 121.131V121.138ZM116.965 98.0375H86.577C81.133 98.0539 75.9183 100.231 72.0791 104.091C68.2399 107.951 66.0905 113.177 66.1033 118.621C66.0887 124.066 68.2373 129.295 72.0767 133.156C75.9161 137.017 81.1318 139.195 86.577 139.212H96.2502L116.958 157.293H86.577C77.6393 157.272 68.9872 154.143 62.1036 148.442C55.22 142.741 50.5334 134.823 48.847 126.046C47.1251 117.264 48.4986 108.156 52.7338 100.273C56.9691 92.3887 63.8045 86.2154 72.0777 82.8025L48.1389 61.875H75.577L116.965 98.0375Z" fill="white"/>
</g>
<defs>
<clipPath id="clip0_108_130">
<rect width="220" height="220" fill="white"/>
</clipPath>
</defs>
</svg>
