<svg width="220" height="220" viewBox="0 0 220 220" fill="none" xmlns="http://www.w3.org/2000/svg">
<g clip-path="url(#clip0_108_131)">
<path d="M110 220C170.751 220 220 170.751 220 110C220 49.2487 170.751 0 110 0C49.2487 0 0 49.2487 0 110C0 170.751 49.2487 220 110 220Z" fill="#939393"/>
<path fill-rule="evenodd" clip-rule="evenodd" d="M94.2356 136.537C96.745 134.908 113.609 124.575 130.041 114.51C141.886 107.264 141.886 107.264 141.68 106.556C141.474 105.696 68.1175 61.1187 67.3681 60.6719C65.9747 59.849 64.595 59.0032 63.2294 58.135C64.5769 57.2 67.1962 55.4125 70.3312 53.2812L77.9625 48.125L83.2013 51.26C89.6638 55.1237 160.614 98.6425 170.555 104.837C166.499 107.277 152.13 115.782 132.811 127.16L94.4281 149.779C94.3581 147.776 94.3123 145.773 94.2906 143.77C94.2473 141.362 94.2312 138.953 94.2425 136.544L94.2356 136.537ZM77.9556 93.2525C79.2275 94.0087 81.4275 95.3356 84.1362 97.02L91.2106 101.406L91.3619 114.675C91.8087 153.017 91.8088 153.017 92.3656 153.409L92.7369 153.663L93.1494 153.512C93.3556 153.45 93.4313 153.422 167.887 109.498L171.875 107.147L170.562 125.592L170.081 125.868C139.424 143.477 108.741 161.041 78.0313 178.557C78.0038 173.752 77.9625 157.348 77.9556 135.96V93.2525ZM61.875 170.5L62.0469 60.7269L64.7144 62.3013C66.8594 63.5525 81.3244 72.3731 97.6663 82.3694C109.368 89.5438 121.088 96.6892 132.825 103.806L137.741 106.762L121.488 116.703L118.243 114.812C111.734 110.882 105.249 106.913 98.7869 102.905C92.4859 98.9975 86.1608 95.1291 79.8119 91.3L75.3294 88.6875L75.295 135.224C75.2812 156.221 75.2606 173.669 75.2469 178.757C73.92 177.952 71.6581 176.557 69.0044 174.907L61.875 170.5Z" fill="white"/>
</g>
<defs>
<clipPath id="clip0_108_131">
<rect width="220" height="220" fill="white"/>
</clipPath>
</defs>
</svg>
