<svg width="220" height="220" viewBox="0 0 220 220" fill="none" xmlns="http://www.w3.org/2000/svg">
<g clip-path="url(#clip0_108_132)">
<path d="M110 220C170.751 220 220 170.751 220 110C220 49.2487 170.751 0 110 0C49.2487 0 0 49.2487 0 110C0 170.751 49.2487 220 110 220Z" fill="#666666"/>
<path fill-rule="evenodd" clip-rule="evenodd" d="M172.439 145.406C171.024 147.767 168.741 149.481 166.079 150.181C163.417 150.881 160.587 150.512 158.194 149.153L125.338 130.522V118.697L135.774 112.784L168.623 131.409C173.614 134.234 175.319 140.504 172.439 145.399V145.406ZM120.429 170.562C120.429 176.22 115.761 180.806 110 180.806C104.239 180.806 99.5704 176.22 99.5704 170.562V133.306L110 127.394L120.429 133.306V170.562ZM61.806 149.153C59.4118 150.512 56.5809 150.88 53.9188 150.178C51.2568 149.477 48.9748 147.762 47.561 145.399C46.8786 144.234 46.4357 142.944 46.2583 141.605C46.0809 140.266 46.1725 138.905 46.5279 137.602C46.8833 136.299 47.4952 135.08 48.3278 134.016C49.1604 132.953 50.197 132.066 51.3767 131.409L84.2254 112.777L94.6617 118.697V130.522L61.806 149.153ZM51.3767 88.5912C50.197 87.9336 49.1604 87.047 48.3278 85.9835C47.4952 84.9201 46.8833 83.7011 46.5279 82.398C46.1725 81.095 46.0809 79.7341 46.2583 78.3951C46.4357 77.0562 46.8786 75.7662 47.561 74.6006C48.9748 72.2385 51.2568 70.5232 53.9188 69.8217C56.5809 69.1202 59.4118 69.4882 61.806 70.8469L94.6617 89.4781V101.303L84.2254 107.216L51.3767 88.5912ZM99.5704 49.4381C99.5704 43.78 104.245 39.1944 110 39.1944C115.761 39.1944 120.429 43.78 120.429 49.4381V86.6869L110 92.6063L99.5704 86.6937V49.4381ZM125.338 106.872L130.865 110L125.338 113.128V106.872ZM114.909 95.3906L120.429 92.2556V98.5188L114.909 95.3906ZM99.5704 98.5188V92.2625L105.091 95.3906L99.5704 98.5188ZM94.6617 113.128L89.1342 110L94.6617 106.872V113.128ZM105.091 124.609L99.5704 127.744V121.481L105.091 124.609ZM120.429 121.481V127.738L114.909 124.609L120.429 121.481ZM110 121.825L99.5704 115.913V104.088L110 98.175L120.429 104.088V115.913L110 121.825ZM158.194 70.8469C160.588 69.4882 163.419 69.1202 166.081 69.8217C168.743 70.5232 171.025 72.2385 172.439 74.6006C175.326 79.4956 173.607 85.7656 168.623 88.5912L135.774 107.222L125.338 101.303V89.4781L158.194 70.8469ZM171.077 127.236L140.683 110L171.077 92.7644C172.813 91.7981 174.339 90.4948 175.564 88.9309C176.79 87.3671 177.691 85.5741 178.214 83.6574C178.737 81.7407 178.872 79.7388 178.611 77.7691C178.35 75.7995 177.699 73.9018 176.694 72.1875C172.459 64.9825 163.075 62.5144 155.739 66.6737L125.338 83.9094V49.4313C125.338 41.1194 118.47 34.375 110 34.375C101.53 34.375 94.6617 41.1194 94.6617 49.4381V83.9094L64.2604 66.6737C56.9248 62.5144 47.5404 64.9825 43.3123 72.1875C42.308 73.9018 41.6562 75.7995 41.3952 77.7691C41.1342 79.7388 41.2693 81.7407 41.7925 83.6574C42.3157 85.5741 43.2165 87.3671 44.442 88.9309C45.6676 90.4948 47.1931 91.7981 48.9292 92.7644L79.3167 110L48.9292 127.236C47.1925 128.201 45.6663 129.504 44.4401 131.068C43.2139 132.631 42.3124 134.424 41.7885 136.341C41.2647 138.258 41.129 140.26 41.3895 142.23C41.65 144.2 42.3014 146.098 43.3054 147.812C47.5404 155.018 56.9248 157.486 64.2604 153.326L94.6617 136.091V170.562C94.6617 178.881 101.53 185.625 110 185.625C118.47 185.625 125.338 178.881 125.338 170.562V136.091L155.739 153.326C163.075 157.486 172.459 155.018 176.694 147.812C177.699 146.098 178.35 144.201 178.611 142.231C178.872 140.261 178.737 138.259 178.214 136.343C177.691 134.426 176.79 132.633 175.564 131.069C174.339 129.505 172.813 128.202 171.077 127.236Z" fill="white"/>
</g>
<defs>
<clipPath id="clip0_108_132">
<rect width="220" height="220" fill="white"/>
</clipPath>
</defs>
</svg>
