<svg width="220" height="220" viewBox="0 0 220 220" fill="none" xmlns="http://www.w3.org/2000/svg">
<g clip-path="url(#clip0_108_133)">
<path d="M110 220C170.751 220 220 170.751 220 110C220 49.2487 170.751 0 110 0C49.2487 0 0 49.2487 0 110C0 170.751 49.2487 220 110 220Z" fill="#FEC907"/>
<path d="M83.6069 156.86C87.8556 156.86 91.3069 160.229 91.3069 164.368C91.3069 168.513 87.8556 171.875 83.6069 171.875H73.6175C71.4175 171.875 69.3 171.023 67.7463 169.503C66.9784 168.76 66.3674 167.87 65.9494 166.886C65.5314 165.903 65.3148 164.845 65.3125 163.776V56.0244C65.3125 53.9275 66.165 51.92 67.6844 50.435C69.1969 48.9569 71.2594 48.125 73.4113 48.125H84.1156C88.3644 48.125 91.8156 51.4869 91.8156 55.6325C91.8156 57.6263 90.9975 59.5306 89.5538 60.94C88.11 62.3425 86.1506 63.14 84.1156 63.14H81.7438V156.86H83.6069ZM167.276 78.1275C172.631 87.3263 175.312 97.6181 175.312 109.003C175.312 120.388 172.597 130.68 167.186 139.886C161.776 149.091 155.76 156.145 145.881 162.532C136.806 168.403 127.332 171.868 115.583 171.868H111.684C107.436 171.868 103.984 168.506 103.984 164.361C103.984 160.215 107.436 156.86 111.684 156.86H116.428C124.747 156.86 130.79 153.416 137.576 149.504C144.354 145.599 148.699 139.198 152.632 132.296C156.571 125.4 158.544 117.693 158.544 109.182C158.538 100.554 156.544 92.7919 152.549 85.8894C148.66 79.091 143.019 73.4597 136.214 69.5819C129.312 65.615 121.639 63.6281 113.204 63.6281H111.162C106.913 63.6281 103.462 60.2731 103.462 56.1275C103.462 54.1337 104.28 52.2225 105.724 50.82C107.168 49.4106 109.12 48.62 111.162 48.62H113.561C125.194 48.62 135.713 51.2325 145.118 56.4712C154.345 61.5278 162.009 69.0182 167.276 78.1275Z" fill="white"/>
</g>
<defs>
<clipPath id="clip0_108_133">
<rect width="220" height="220" fill="white"/>
</clipPath>
</defs>
</svg>
