<svg width="220" height="220" viewBox="0 0 220 220" fill="none" xmlns="http://www.w3.org/2000/svg">
<g clip-path="url(#clip0_108_134)">
<path d="M110 220C170.751 220 220 170.751 220 110C220 49.2487 170.751 0 110 0C49.2487 0 0 49.2487 0 110C0 170.751 49.2487 220 110 220Z" fill="#006AD2"/>
<path fill-rule="evenodd" clip-rule="evenodd" d="M85.03 171.874L88.3231 163.06L82.4794 163.638L80.3756 169.207C80.2106 169.626 80.0731 170.066 79.86 170.465C79.3994 171.324 78.6913 171.86 77.7081 171.867C73.3769 171.874 69.0594 171.867 64.7281 171.86C64.625 171.86 64.5219 171.799 64.295 171.73L67.0587 164.27C62.0194 164.133 57.1175 164.05 52.2363 163.494C52.3188 162.579 80.1625 92.3717 81.2694 90.2611C81.5444 90.2405 81.8675 90.1924 82.1975 90.1924H104.679C104.906 90.1924 105.133 90.1924 105.353 90.2061C107.628 90.378 108.893 92.303 108.103 94.4892C107.051 97.3767 105.937 100.25 104.857 103.124L90.7088 140.758C90.5644 141.143 90.4406 141.542 90.2619 142.064C90.6606 142.085 90.97 142.126 91.2794 142.112C112.564 141.184 128.184 131.023 138.277 111.931C140.484 107.758 142.037 103.272 142.883 98.628C143.385 95.9124 143.543 93.1899 142.863 90.4742C142.177 87.6091 140.471 85.0918 138.064 83.393C134.846 81.0761 131.23 80.0861 127.325 80.0655H51.5625C51.7275 79.653 51.8031 79.378 51.9337 79.1305L61.4763 61.9361C61.9215 61.0396 62.6167 60.2912 63.478 59.7813C64.3393 59.2713 65.3299 59.0216 66.33 59.0624H106.659L110.791 48.1311H123.042C123.344 48.1311 123.647 48.1105 123.936 48.1517C124.809 48.2892 125.311 48.9767 125.18 49.8705C125.125 50.2417 124.987 50.5992 124.85 50.9567C124.004 53.2324 123.138 55.5011 122.293 57.7767C122.148 58.1617 122.031 58.5536 121.88 59.0142H127.414C127.552 58.7186 127.689 58.4161 127.813 58.1067L131.223 49.0524C131.567 48.138 131.581 48.1311 132.495 48.1311C136.372 48.1311 140.257 48.1174 144.134 48.1311C145.771 48.138 146.355 49.0042 145.771 50.5855C144.842 53.1224 143.887 55.6386 142.938 58.1617C142.808 58.5124 142.691 58.8699 142.526 59.3511C142.904 59.4199 143.213 59.4886 143.522 59.5299C148.919 60.1899 154.172 61.4136 159.156 63.6617C162.944 65.3736 166.389 67.608 169.221 70.743C173.058 74.9711 174.962 80.0242 175.264 85.7305C175.553 91.2649 174.543 96.5999 172.707 101.749C168.362 113.952 162.188 125.042 153.251 134.385C147.091 140.82 139.982 145.935 132.186 150.074C123.771 154.542 114.874 157.67 105.662 159.884C104.837 160.09 104.404 160.448 104.122 161.259C103.111 164.078 102.039 166.883 100.98 169.688C100.327 171.407 99.6738 171.874 97.8725 171.874H85.03Z" fill="white"/>
</g>
<defs>
<clipPath id="clip0_108_134">
<rect width="220" height="220" fill="white"/>
</clipPath>
</defs>
</svg>
