<svg width="220" height="220" viewBox="0 0 220 220" fill="none" xmlns="http://www.w3.org/2000/svg">
<g clip-path="url(#clip0_108_135)">
<path d="M110 220C170.751 220 220 170.751 220 110C220 49.2487 170.751 0 110 0C49.2487 0 0 49.2487 0 110C0 170.751 49.2487 220 110 220Z" fill="#F4D029"/>
<path fill-rule="evenodd" clip-rule="evenodd" d="M85.9375 75.625V96.25H37.8125V75.625H85.9375ZM92.8125 75.625H106.562V144.375H37.8125V103.125H92.8125V75.625ZM51.5625 116.875V130.625H92.8125V116.875H51.5625ZM182.188 89.375H127.188V130.625H168.438V116.875H140.938V103.125H182.188V144.375H113.438V75.625H182.188V89.375Z" fill="white"/>
</g>
<defs>
<clipPath id="clip0_108_135">
<rect width="220" height="220" fill="white"/>
</clipPath>
</defs>
</svg>
