<svg width="220" height="220" viewBox="0 0 220 220" fill="none" xmlns="http://www.w3.org/2000/svg">
<g clip-path="url(#clip0_108_136)">
<path d="M110 220C170.751 220 220 170.751 220 110C220 49.2487 170.751 0 110 0C49.2487 0 0 49.2487 0 110C0 170.751 49.2487 220 110 220Z" fill="#F4AE95"/>
<path d="M108.673 61.5859L66.7768 151.009H136.331C138.346 151.009 140.167 152.247 140.958 154.137L141.034 154.309C141.292 154.925 141.407 155.592 141.371 156.259C141.334 156.926 141.146 157.575 140.821 158.159C140.252 159.185 139.421 160.042 138.412 160.64C137.403 161.238 136.253 161.556 135.08 161.562H61.1599C60.016 161.56 58.8993 161.213 57.9562 160.565L57.5712 160.304C56.4073 159.492 55.5686 158.293 55.2037 156.922C54.8388 155.55 54.9712 154.094 55.5774 152.81L105.009 48.6609C105.524 47.5747 106.26 46.6122 107.161 45.8422C108.01 45.1093 109.092 44.7004 110.214 44.6878C111.336 44.6752 112.427 45.0598 113.293 45.7734C113.686 46.0938 114.003 46.4978 114.221 46.9559L164.361 151.813C165.048 153.237 165.186 154.866 164.759 156.392C164.538 157.223 164.048 157.958 163.368 158.484C162.687 159.009 161.852 159.296 160.992 159.3H160.414C159.26 159.293 158.133 158.955 157.165 158.327C156.197 157.698 155.431 156.805 154.956 155.753L111.712 61.5997C111.582 61.3062 111.37 61.0563 111.102 60.8795C110.834 60.7028 110.52 60.6068 110.199 60.6028C109.877 60.603 109.562 60.6957 109.292 60.8701C109.021 61.0444 108.806 61.2929 108.673 61.5859Z" fill="white"/>
</g>
<defs>
<clipPath id="clip0_108_136">
<rect width="220" height="220" fill="white"/>
</clipPath>
</defs>
</svg>
