<svg width="220" height="220" viewBox="0 0 220 220" fill="none" xmlns="http://www.w3.org/2000/svg">
<g clip-path="url(#clip0_108_465)">
<path d="M110 220C170.751 220 220 170.751 220 110C220 49.2487 170.751 0 110 0C49.2487 0 0 49.2487 0 110C0 170.751 49.2487 220 110 220Z" fill="#0983CB"/>
<path d="M74.7735 185.235C74.4698 185.235 74.0902 185.235 73.7866 185.159C70.9016 184.628 69.0796 181.895 69.611 179.01C72.7237 162.763 78.114 147.731 85.7059 134.217C92.7664 121.615 99.9028 113.491 106.736 105.672C113.796 97.6243 120.401 90.1083 126.778 77.9612C133.004 66.1178 137.255 53.1356 139.381 39.4701C139.836 36.5852 142.493 34.6872 145.378 35.0668C148.263 35.5223 150.161 38.1795 149.782 41.0644C147.428 55.9446 142.873 69.9896 136.116 82.82C129.132 96.03 121.768 104.457 114.631 112.58C107.798 120.324 101.345 127.688 94.8162 139.304C87.8316 151.755 82.821 165.8 79.8601 180.908C79.4046 183.489 77.2029 185.235 74.7735 185.235Z" fill="white"/>
<path d="M96.1069 98.6872C94.4367 98.6872 92.8423 97.928 91.7795 96.4855C88.7427 92.1581 86.0096 87.7548 83.5043 82.9719C76.7475 70.1416 72.1164 56.0965 69.8388 41.2163C69.3833 38.3314 71.3572 35.6742 74.2421 35.2187C77.1271 34.7632 79.7842 36.7371 80.2397 39.622C82.3655 53.3634 86.617 66.3456 92.8423 78.1131C95.1199 82.5164 97.6253 86.5401 100.358 90.4879C102.029 92.8414 101.497 96.1059 99.0677 97.7762C98.2326 98.3835 97.1697 98.6872 96.1069 98.6872Z" fill="white" fill-opacity="0.3"/>
<path d="M96.849 98.8952C95.3306 98.8952 93.8122 98.212 92.7493 96.9213C90.9273 94.6438 89.257 92.518 87.7386 90.3164C86.0684 87.9629 86.5999 84.6983 89.0293 83.0281C91.3828 81.3579 94.6473 81.8893 96.3175 84.3187C97.76 86.3686 99.2784 88.3425 100.949 90.3923C102.771 92.6699 102.391 95.9344 100.113 97.7564C99.1265 98.5156 97.9877 98.8952 96.849 98.8952Z" fill="white" fill-opacity="0.5"/>
<path d="M144.923 185.236C142.418 185.236 140.292 183.489 139.761 180.984C136.876 165.876 131.789 151.831 124.804 139.38C122.831 135.888 120.781 132.548 118.503 129.359C116.833 127.005 117.44 123.741 119.794 122.071C122.147 120.4 125.412 121.008 127.082 123.361C129.511 126.854 131.789 130.422 133.915 134.294C141.507 147.731 146.897 162.839 150.01 179.086C150.541 181.971 148.719 184.704 145.834 185.236C145.53 185.236 145.227 185.236 144.923 185.236Z" fill="white" fill-opacity="0.3"/>
<path d="M126.544 136.711C124.874 136.711 123.28 135.952 122.217 134.434C121.002 132.687 119.863 131.093 118.649 129.575C116.902 127.297 117.282 123.957 119.56 122.211C121.837 120.464 125.178 120.844 126.924 123.197C128.214 124.868 129.505 126.614 130.796 128.512C132.466 130.865 131.858 134.13 129.505 135.8C128.594 136.407 127.531 136.711 126.544 136.711Z" fill="white" fill-opacity="0.5"/>
<path d="M131.181 170.204H88.8185C87.376 170.204 86.1613 169.065 86.1613 167.546C86.1613 166.104 87.3001 164.889 88.8185 164.889H131.181C132.624 164.889 133.839 166.028 133.839 167.546C133.839 169.065 132.624 170.204 131.181 170.204Z" fill="white"/>
<path d="M127.461 159.043H92.1588C90.7163 159.043 89.5016 157.905 89.5016 156.386C89.5016 154.868 90.6404 153.729 92.1588 153.729H127.461C128.904 153.729 130.118 154.868 130.118 156.386C130.118 157.905 128.904 159.043 127.461 159.043Z" fill="white"/>
<path d="M122.147 147.883H97.0937C95.6512 147.883 94.4365 146.744 94.4365 145.226C94.4365 143.708 95.5753 142.569 97.0937 142.569H122.147C123.59 142.569 124.804 143.708 124.804 145.226C124.804 146.744 123.59 147.883 122.147 147.883Z" fill="white"/>
<path d="M115.163 136.723H104.23C102.788 136.723 101.573 135.584 101.573 134.066C101.573 132.547 102.712 131.409 104.23 131.409H115.163C116.605 131.409 117.82 132.547 117.82 134.066C117.82 135.584 116.605 136.723 115.163 136.723Z" fill="white"/>
<path d="M131.182 51.2382H88.8188C87.3763 51.2382 86.1616 50.0994 86.1616 48.581C86.1616 47.0626 87.3004 45.9238 88.8188 45.9238H131.182C132.624 45.9238 133.839 47.0626 133.839 48.581C133.839 50.0994 132.624 51.2382 131.182 51.2382Z" fill="white"/>
<path d="M127.461 62.3983H92.1589C90.7165 62.3983 89.5018 61.2595 89.5018 59.7412C89.5018 58.2228 90.6406 57.084 92.1589 57.084H127.461C128.904 57.084 130.119 58.2228 130.119 59.7412C130.119 61.2595 128.904 62.3983 127.461 62.3983Z" fill="white"/>
<path d="M122.147 73.5585H97.0937C95.6512 73.5585 94.4365 72.4197 94.4365 70.9013C94.4365 69.3829 95.5753 68.2441 97.0937 68.2441H122.147C123.589 68.2441 124.804 69.3829 124.804 70.9013C124.804 72.4197 123.589 73.5585 122.147 73.5585Z" fill="white"/>
<path d="M115.163 84.7186H104.23C102.788 84.7186 101.573 83.5799 101.573 82.0615C101.573 80.5431 102.712 79.4043 104.23 79.4043H115.163C116.605 79.4043 117.82 80.5431 117.82 82.0615C117.82 83.5799 116.605 84.7186 115.163 84.7186Z" fill="white"/>
<path d="M110 193.511C63.917 193.511 26.4888 156.083 26.4888 109.999C26.4888 63.9165 63.917 26.4883 110 26.4883C156.083 26.4883 193.511 63.9165 193.511 109.999C193.511 156.083 156.083 193.511 110 193.511ZM110 36.9651C69.7628 36.9651 36.9657 69.7623 36.9657 109.999C36.9657 150.237 69.6869 183.034 110 183.034C150.313 183.034 183.034 150.313 183.034 109.999C183.034 69.7623 150.237 36.9651 110 36.9651Z" fill="white"/>
</g>
<defs>
<clipPath id="clip0_108_465">
<rect width="220" height="220" fill="white"/>
</clipPath>
</defs>
</svg>
