<svg width="220" height="220" viewBox="0 0 220 220" fill="none" xmlns="http://www.w3.org/2000/svg">
<g clip-path="url(#clip0_108_137)">
<path d="M110 220C170.751 220 220 170.751 220 110C220 49.2487 170.751 0 110 0C49.2487 0 0 49.2487 0 110C0 170.751 49.2487 220 110 220Z" fill="#2C398F"/>
<path d="M172.391 131.312C176.01 131.132 179.463 129.734 182.188 127.345C178.399 146.705 167.812 165.756 149.641 176.226C135.74 184.325 118.36 187.02 101.461 184.958C98.9314 177.656 92.297 169.881 80.7676 164.01C62.597 154.646 54.0651 138.455 46.3238 146.389C45.6088 147.076 45.0176 147.881 44.5845 148.768C44.2385 148.041 43.922 147.3 43.6357 146.547C28.7857 109.725 43.6357 72.7371 73.3357 46.234C91.032 30.5177 111.726 32.264 130.213 40.8371C129.103 41.7334 128.213 42.8713 127.61 44.1641C127.007 45.4568 126.707 46.8703 126.734 48.2965V85.4352C119.049 80.9599 110.02 79.3722 101.269 80.9575C92.5186 82.5428 84.6203 87.1971 78.9939 94.084C73.345 100.985 70.3185 109.662 70.4493 118.58C70.5802 127.497 73.86 136.081 79.7089 142.814C85.5375 149.53 93.5702 153.947 102.364 155.271C111.157 156.596 120.134 154.741 127.683 150.04C128.607 152.031 130.186 153.646 132.156 154.616C134.126 155.586 136.369 155.852 138.511 155.37C140.653 154.887 142.565 153.686 143.93 151.966C145.295 150.246 146.029 148.11 146.011 145.915V50.2008C160.229 60.1971 171.6 72.8952 176.811 81.6265C179.355 86.0127 181.17 90.784 182.188 95.7546C179.953 94.1046 177.348 93.0046 174.604 92.5783C168.761 92.2621 164.333 100.203 167.338 111.622C169.868 121.948 166.705 130.996 172.391 131.312ZM101.145 131.945C81.2351 120.518 97.9826 91.1552 117.893 102.581C123.894 105.916 124.527 116.551 123.42 123.371C121.364 135.121 110.309 137.183 101.145 131.945ZM110.468 56.0721C106.04 56.2302 102.884 61.6271 103.043 64.0127C103.194 66.3915 106.514 67.8215 111.093 66.2333C115.204 64.8033 118.999 65.7521 118.834 63.3734C118.676 60.9946 114.73 55.914 110.468 56.0721Z" fill="white"/>
</g>
<defs>
<clipPath id="clip0_108_137">
<rect width="220" height="220" fill="white"/>
</clipPath>
</defs>
</svg>
