<svg width="220" height="220" viewBox="0 0 220 220" fill="none" xmlns="http://www.w3.org/2000/svg">
<g clip-path="url(#clip0_108_138)">
<path d="M110 220C170.751 220 220 170.751 220 110C220 49.2487 170.751 0 110 0C49.2487 0 0 49.2487 0 110C0 170.751 49.2487 220 110 220Z" fill="#786DBC"/>
<path d="M109.526 74.0507L98.3262 62.8238C96.8183 61.3815 95.9451 59.3993 95.8987 57.3132C95.8523 55.2271 96.6365 53.208 98.0787 51.7C99.521 50.1921 101.503 49.3189 103.589 49.2725C105.675 49.2261 107.695 50.0103 109.202 51.4525L109.464 51.7138L134.461 76.7113C137.534 79.7844 137.534 84.755 134.461 87.8282L109.436 112.826C107.951 114.242 105.971 115.022 103.919 114.998C101.867 114.974 99.9063 114.148 98.4552 112.697C97.0042 111.246 96.1783 109.284 96.1542 107.232C96.1301 105.18 96.9097 103.2 98.3262 101.716L110.062 89.98C102.155 88.5844 94.0105 89.6532 86.7317 93.0418C79.4529 96.4303 73.3917 101.975 69.3697 108.924C65.3476 115.872 63.5591 123.89 64.2465 131.889C64.934 139.889 68.0641 147.483 73.2127 153.644C78.3613 159.805 85.2794 164.234 93.0297 166.331C100.78 168.428 108.987 168.092 116.54 165.368C124.093 162.644 130.625 157.663 135.253 151.102C139.88 144.541 142.378 136.715 142.409 128.686V42.2263C142.409 40.1422 143.237 38.1434 144.71 36.6698C146.184 35.1961 148.183 34.3682 150.267 34.3682C152.351 34.3682 154.35 35.1961 155.823 36.6698C157.297 38.1434 158.125 40.1422 158.125 42.2263V129.738C157.906 140.84 154.331 151.616 147.871 160.648C141.411 169.68 132.369 176.544 121.933 180.34C111.498 184.135 100.158 184.682 89.405 181.91C78.6524 179.138 68.9907 173.176 61.6908 164.808C54.3909 156.441 49.7948 146.06 48.5069 135.03C47.219 124.001 49.2998 112.84 54.4754 103.016C59.6511 93.1918 67.6793 85.1642 77.5039 79.9893C87.3286 74.8144 98.4896 72.7345 109.519 74.0232L109.526 74.0507Z" fill="white"/>
</g>
<defs>
<clipPath id="clip0_108_138">
<rect width="220" height="220" fill="white"/>
</clipPath>
</defs>
</svg>
