<svg width="220" height="220" viewBox="0 0 220 220" fill="none" xmlns="http://www.w3.org/2000/svg">
<g clip-path="url(#clip0_108_142)">
<path d="M110 220C170.751 220 220 170.751 220 110C220 49.2487 170.751 0 110 0C49.2487 0 0 49.2487 0 110C0 170.751 49.2487 220 110 220Z" fill="#242D3D"/>
<path d="M159.046 120.087C155.258 103.401 143.481 85.0039 143.481 85.0039C157.052 122.04 151.827 149.973 148.232 165.82C148.232 165.82 143.488 183.543 153.697 168.776C166.43 150.296 159.046 120.087 159.046 120.087Z" fill="white"/>
<path d="M125.524 54.3896C132.584 79.5384 135.781 100.885 136.778 118.685C138.531 149.017 133.904 168.975 131.031 179.515C130.109 182.945 133.946 185.496 136.18 182.904L136.221 182.863C141.804 176.476 144.444 161.516 145.681 148.385L146.039 144.074C147.194 128.261 146.52 112.305 142.807 97.0146C135.981 68.7996 125.524 54.3896 125.524 54.3896ZM112.874 98.6921C111.155 57.3871 108.041 20.709 108.041 20.709C108.041 20.709 104.892 55.5515 103.173 95.9352C102.898 102.487 102.651 109.149 102.451 115.852C102.176 125.594 102.052 135.377 102.052 144.83C102.094 161.633 102.74 177.397 104.252 189.971C104.851 194.956 111.313 194.956 111.911 189.971C112.949 181.391 113.547 170.852 113.788 159.275C114.011 146.758 113.959 134.238 113.63 121.723C113.424 114.058 113.19 106.316 112.874 98.6921ZM64.6249 148.46C63.6829 140.676 63.4666 132.82 63.9787 124.996C64.3774 118.85 65.2574 112.263 66.7768 105.237C68.1724 98.809 70.0837 92.0646 72.6824 84.9627C72.6824 84.9627 64.3774 97.9359 59.5099 111.94C58.5474 114.621 57.7568 117.371 57.1518 120.046C57.1518 120.046 55.598 127.072 55.3643 136.45C55.1993 142.953 55.7149 150.653 57.7912 157.92C58.8406 161.724 60.414 165.364 62.4662 168.735C62.4662 168.735 72.6824 183.942 67.9318 165.778C66.4538 160.083 65.3469 154.299 64.618 148.46H64.6249Z" fill="white"/>
<path d="M79.1863 140.32C78.853 132.097 78.9861 123.861 79.585 115.653C79.9998 109.593 80.6396 103.55 81.5031 97.5372C83.2906 84.6053 86.2125 70.2778 90.6469 54.3896C90.6469 54.3896 80.1419 68.7997 73.3219 97.0147C72.9575 98.5272 72.6344 100.047 72.3181 101.525C71.0806 107.671 70.2831 113.9 69.8844 120.204C69.4031 128.11 69.5269 136.085 70.0906 144.033L70.4481 148.385C71.6856 161.516 74.2775 176.476 79.9013 182.863L79.9425 182.904C82.1769 185.462 86.0475 182.904 85.0988 179.515C83.0156 171.732 79.9425 158.8 79.1863 140.32Z" fill="white"/>
<path d="M96.6281 141.873C96.4028 132.722 96.3615 123.567 96.5043 114.414C96.5868 108.392 96.745 102.039 97.0268 95.3773C97.7075 78.1761 100.939 53.3092 103.173 32.2373C103.173 32.2373 92.1593 55.0279 87.1268 96.1404C86.4531 101.764 85.8137 107.828 85.3325 114.38L84.975 119.247C84.975 119.247 84.3768 127.944 84.6106 139.68C84.9337 154.764 86.6043 174.88 92.8331 188.052C93.0393 188.451 93.2731 188.809 93.5893 189.084L93.6306 189.132C95.9887 191.366 99.6187 189.249 99.3025 185.777C97.8378 171.183 96.9434 156.537 96.6212 141.873H96.6281ZM119.453 141.873C119.659 133.65 119.735 124.479 119.577 114.414C119.494 108.392 119.336 102.039 119.054 95.3773C118.381 78.1761 115.149 53.3092 112.908 32.2373C112.908 32.2373 123.929 55.0279 128.954 96.1404C129.635 101.764 130.274 107.828 130.749 114.38L131.113 119.247C131.113 119.247 131.711 127.944 131.471 139.68C131.147 154.764 129.477 174.88 123.248 188.052C123.065 188.442 122.808 188.792 122.492 189.084L122.451 189.132C120.092 191.366 116.469 189.249 116.786 185.777C117.583 178.235 118.937 163.268 119.453 141.873Z" fill="white"/>
</g>
<defs>
<clipPath id="clip0_108_142">
<rect width="220" height="220" fill="white"/>
</clipPath>
</defs>
</svg>
