<svg width="220" height="220" viewBox="0 0 220 220" fill="none" xmlns="http://www.w3.org/2000/svg">
<g clip-path="url(#clip0_108_143)">
<path d="M110 220C170.751 220 220 170.751 220 110C220 49.2487 170.751 0 110 0C49.2487 0 0 49.2487 0 110C0 170.751 49.2487 220 110 220Z" fill="#74D269"/>
<path d="M171.621 99.77H171.758L171.875 133.911L95.0331 178.75L74.4631 167.186V167.2L74.3325 167.118L55 154.722V65.2025L76.1269 52.7381L76.1681 52.7587L94.82 41.25L171.476 86.3706L171.621 99.77ZM149.105 121.165L133.024 111.959L79.3512 143.543L95.1087 152.914L149.105 121.165ZM129.401 109.89L96.2912 90.9287L96.1469 129.986L129.401 109.89ZM96.305 86.7487L149.531 117.899V99.3025L96.3737 68.2619L96.305 86.7487ZM74.3875 162.044L74.5938 143.392L74.47 143.467V77.66L58.3344 68.035V152.46L74.3875 162.044ZM77.2475 141.412L93.3694 131.663V68.035L77.2475 77.6669V141.412ZM97.0544 155.375L96.7312 174.873L168.479 132.687L168.685 113.3L97.0544 155.375ZM150.631 96.36L167.331 86.8312L95.4525 44.8594L78.9112 54.4294L150.631 96.36Z" fill="white"/>
</g>
<defs>
<clipPath id="clip0_108_143">
<rect width="220" height="220" fill="white"/>
</clipPath>
</defs>
</svg>
