<svg width="220" height="220" viewBox="0 0 220 220" fill="none" xmlns="http://www.w3.org/2000/svg">
<g clip-path="url(#clip0_108_144)">
<path d="M110 220C170.751 220 220 170.751 220 110C220 49.2487 170.751 0 110 0C49.2487 0 0 49.2487 0 110C0 170.751 49.2487 220 110 220Z" fill="#3C80F1"/>
<path d="M110.578 27.5C72.9713 27.5275 42.4875 57.9975 42.4463 95.5969C42.4807 99.2681 42.8932 102.926 43.67 106.514C43.7096 106.684 43.7905 106.842 43.9055 106.973C44.0206 107.104 44.1662 107.204 44.3294 107.265C44.4927 107.327 44.6685 107.347 44.8413 107.324C45.0141 107.3 45.1786 107.235 45.32 107.133C47.9228 105.269 51.0425 104.265 54.2438 104.259C54.3985 104.265 54.5524 104.235 54.6944 104.174C54.8364 104.112 54.9629 104.02 55.0649 103.903C55.1669 103.787 55.2417 103.649 55.284 103.5C55.3263 103.352 55.335 103.195 55.3094 103.042C54.8567 100.612 54.622 98.1451 54.6082 95.6725C54.6082 88.3234 56.0557 81.0463 58.8681 74.2566C61.6804 67.4669 65.8026 61.2976 70.9992 56.101C76.1958 50.9044 82.3651 46.7823 89.1547 43.9699C95.9444 41.1575 103.222 39.71 110.571 39.71C117.92 39.71 125.197 41.1575 131.987 43.9699C138.776 46.7823 144.946 50.9044 150.142 56.101C155.339 61.2976 159.461 67.4669 162.273 74.2566C165.086 81.0463 166.533 88.3234 166.533 95.6725C166.533 126.541 127.043 165.969 112.908 179.891C112.286 180.502 111.449 180.844 110.578 180.844C109.706 180.844 108.869 180.502 108.247 179.891C102.263 174.051 96.4554 168.033 90.8325 161.844H90.5575C85.1498 161.313 79.8407 160.041 74.7794 158.063L73.8444 157.685C73.6279 157.585 73.3837 157.562 73.1525 157.621C72.9212 157.679 72.7168 157.814 72.5731 158.004C72.4294 158.194 72.3551 158.428 72.3625 158.666C72.3699 158.905 72.4586 159.133 72.6138 159.314C81.3653 169.772 90.6521 179.771 100.437 189.269C103.145 191.91 106.778 193.388 110.56 193.388C114.343 193.388 117.976 191.91 120.684 189.269C145.571 164.684 178.709 128.315 178.709 95.5969C178.668 57.9906 148.184 27.5275 110.578 27.5Z" fill="white"/>
<path d="M138.902 102.486C138.902 103.449 138.827 104.391 138.737 105.326C138.49 108.905 137.661 112.421 136.283 115.734C134.798 119.034 132.818 122.08 130.419 124.782L130.487 124.844C125.734 130.155 119.865 134.348 113.3 137.122C106.799 139.92 99.7043 141.058 92.6542 140.436C85.9357 139.768 79.5142 137.332 74.0436 133.376C75.8104 133.321 77.5636 133.052 79.2686 132.578C80.8082 132.152 82.2836 131.521 83.6548 130.701C86.6194 128.931 88.9193 126.235 90.1998 123.029C90.7979 121.564 91.2036 120.038 91.4236 118.471C91.5611 117.164 91.5954 115.837 91.5473 114.517V69.8987C91.5441 69.8552 91.5441 69.8115 91.5473 69.768V69.5343C91.647 68.9967 91.9141 68.5043 92.3105 68.1277C92.7069 67.7511 93.2122 67.5095 93.7542 67.4374H108.487C111.98 67.7124 115.397 68.6268 118.559 70.1393C125.15 73.2553 130.662 78.265 134.392 84.5287C135.3 86.0687 136.097 87.6774 136.764 89.3412C137.404 90.9912 137.912 92.7099 138.277 94.4424C138.641 96.1749 138.847 97.9349 138.895 99.7018V102.493L138.902 102.486ZM151.03 99.2824C150.955 96.8064 150.658 94.3422 150.143 91.9193C149.121 87.1271 147.318 82.5354 144.808 78.3274C139.832 69.9584 132.464 63.2707 123.654 59.1255C119.152 56.9881 114.295 55.697 109.326 55.3168C108.7 55.3168 108.095 55.3168 107.408 55.248H93.6717C93.2317 55.248 92.7779 55.248 92.3311 55.3443C90.5367 55.5505 88.7904 56.1005 87.1886 56.953C84.9865 58.1297 83.1195 59.8467 81.763 61.9428C80.4065 64.0389 79.6049 66.4453 79.4336 68.9362V114.517C79.4336 115.315 79.3786 116.112 79.2686 116.903C79.1998 117.439 79.0692 117.962 78.8767 118.471C78.7262 118.849 78.5174 119.202 78.2579 119.516C77.6238 120.196 76.7999 120.67 75.8929 120.877C74.5386 121.221 73.1429 121.331 71.7473 121.2C66.7692 120.713 62.085 118.618 58.4029 115.232C57.3454 114.254 55.9748 113.684 54.5356 113.622C53.0964 113.561 51.6821 114.012 50.545 114.897C49.4079 115.781 48.622 117.041 48.3273 118.451C48.0326 119.861 48.2483 121.33 48.9361 122.596C53.2258 130.431 59.1143 137.277 66.2198 142.691C69.8844 145.425 73.8984 147.656 78.1548 149.326C82.4271 150.993 86.9078 152.066 91.4717 152.516C100.532 153.355 109.658 151.928 118.03 148.363C126.368 144.914 133.762 139.524 139.597 132.64L139.672 132.702C142.891 129.062 145.534 124.951 147.51 120.512C149.383 115.992 150.509 111.197 150.844 106.316C150.94 105.092 151.002 103.985 151.044 102.816V101.091C151.092 100.582 151.05 99.8874 151.044 99.2824H151.03Z" fill="white"/>
</g>
<defs>
<clipPath id="clip0_108_144">
<rect width="220" height="220" fill="white"/>
</clipPath>
</defs>
</svg>
