<svg width="220" height="220" viewBox="0 0 220 220" fill="none" xmlns="http://www.w3.org/2000/svg">
<g clip-path="url(#clip0_108_145)">
<path d="M110 220C170.751 220 220 170.751 220 110C220 49.2487 170.751 0 110 0C49.2487 0 0 49.2487 0 110C0 170.751 49.2487 220 110 220Z" fill="#121747"/>
<path d="M123.97 157.23C123.97 165.102 117.645 171.489 109.835 171.489C102.025 171.489 95.7068 165.102 95.7068 157.223V62.4238C95.7068 54.5519 102.032 48.165 109.835 48.165C117.638 48.165 123.97 54.5519 123.97 62.4307V157.23ZM76.3949 157.264C76.4407 159.781 75.819 162.264 74.5933 164.462C73.3676 166.66 71.5815 168.494 69.4168 169.777C67.2639 171.049 64.8089 171.721 62.308 171.721C59.8071 171.721 57.3521 171.049 55.1993 169.777C53.0358 168.493 51.2511 166.658 50.0266 164.461C48.8021 162.263 48.1815 159.78 48.228 157.264V135.952C48.1815 133.436 48.8021 130.954 50.0266 128.756C51.2511 126.558 53.0358 124.724 55.1993 123.439C57.3521 122.167 59.8071 121.495 62.308 121.495C64.8089 121.495 67.2639 122.167 69.4168 123.439C71.5802 124.724 73.3649 126.558 74.5894 128.756C75.8139 130.954 76.4345 133.436 76.388 135.952L76.3949 157.264Z" fill="white"/>
<path opacity="0.5" d="M171.572 119.623C171.572 127.495 165.247 133.882 157.437 133.882C149.627 133.882 143.302 127.488 143.302 119.617V83.6397C143.302 75.7609 149.627 69.374 157.437 69.374C165.247 69.374 171.572 75.7609 171.572 83.6397V119.623Z" fill="white"/>
</g>
<defs>
<clipPath id="clip0_108_145">
<rect width="220" height="220" fill="white"/>
</clipPath>
</defs>
</svg>
