<svg width="220" height="220" viewBox="0 0 220 220" fill="none" xmlns="http://www.w3.org/2000/svg">
<g clip-path="url(#clip0_108_146)">
<path d="M110 220C170.751 220 220 170.751 220 110C220 49.2487 170.751 0 110 0C49.2487 0 0 49.2487 0 110C0 170.751 49.2487 220 110 220Z" fill="#1693D4"/>
<path fill-rule="evenodd" clip-rule="evenodd" d="M68.255 113.946C68.0778 111.475 68.0663 108.994 68.2206 106.521H48.9706L27.5 89.3476H72.1463C76.3162 79.1754 83.4215 70.4758 92.556 64.3584C101.69 58.241 112.44 54.983 123.434 55.0001C153.986 55.0001 178.75 79.6263 178.75 110C178.75 140.374 153.986 165 123.434 165C112.526 165.016 101.857 161.809 92.7664 155.781C83.6757 149.754 76.569 141.174 72.3388 131.12H27.5L48.9706 113.946H68.255ZM154.942 111.024C154.942 105.318 154.172 100.341 152.625 96.0919C151.078 91.8432 148.933 88.2819 146.197 85.4357C143.454 82.5826 140.209 80.4307 136.448 78.9869C132.688 77.5432 128.611 76.8144 124.19 76.8144C119.419 76.8144 114.977 77.6257 110.866 79.2482C106.755 80.8707 103.201 83.1532 100.196 86.0888C97.1919 89.0313 94.8337 92.5788 93.1081 96.7451C91.3825 100.911 90.5231 105.545 90.5231 110.633C90.5231 115.803 91.3825 120.429 93.1081 124.506C94.8269 128.583 97.2125 132.028 100.258 134.833C103.311 137.644 106.913 139.81 111.066 141.35C115.444 142.924 120.067 143.704 124.719 143.653C136.648 143.653 145.757 139.439 152.027 131.017L141.419 122.602C139.652 125.146 137.404 127.139 134.661 128.583C131.924 130.027 128.562 130.756 124.589 130.756C122.292 130.756 120.079 130.364 117.961 129.573C115.844 128.783 113.939 127.71 112.255 126.349C110.564 125.003 109.172 123.319 108.168 121.405C107.165 119.491 106.571 117.388 106.425 115.232H154.811C154.901 114.531 154.942 113.829 154.942 113.128V111.024ZM139.033 103.916H106.425C106.782 99.4469 108.611 95.7826 111.925 92.9294C115.246 90.0832 119.281 88.6532 124.059 88.6532C126.617 88.6532 128.851 89.0657 130.749 89.9044C132.646 90.7432 134.221 91.8569 135.458 93.2594C136.696 94.6619 137.596 96.2844 138.174 98.1269C138.754 100.001 139.043 101.954 139.033 103.916Z" fill="white"/>
</g>
<defs>
<clipPath id="clip0_108_146">
<rect width="220" height="220" fill="white"/>
</clipPath>
</defs>
</svg>
