<svg width="220" height="220" viewBox="0 0 220 220" fill="none" xmlns="http://www.w3.org/2000/svg">
<g clip-path="url(#clip0_108_147)">
<path d="M110 220C170.751 220 220 170.751 220 110C220 49.2487 170.751 0 110 0C49.2487 0 0 49.2487 0 110C0 170.751 49.2487 220 110 220Z" fill="#AA15DD"/>
<path d="M109.993 176.083C111.643 176.09 112.984 177.458 112.991 179.135C112.998 179.937 112.687 180.708 112.127 181.28C111.566 181.852 110.801 182.179 110 182.188C109.603 182.184 109.21 182.103 108.845 181.947C108.479 181.792 108.148 181.566 107.869 181.283C107.591 180.999 107.371 180.664 107.222 180.295C107.074 179.927 106.999 179.533 107.003 179.135C106.999 178.738 107.074 178.344 107.222 177.976C107.371 177.607 107.591 177.272 107.869 176.988C108.148 176.705 108.479 176.479 108.845 176.324C109.21 176.168 109.603 176.087 110 176.083H109.993ZM49.6308 78.0867C48.9363 77.6713 48.4322 77.0004 48.2266 76.2177C48.0209 75.435 48.1301 74.6029 48.5308 73.8998C48.825 73.3769 49.2693 72.9542 49.8063 72.6865C50.3433 72.4189 50.9483 72.3185 51.543 72.3985C52.1376 72.4785 52.6946 72.7351 53.1418 73.1351C53.5891 73.5352 53.9059 74.0602 54.0514 74.6423C54.2061 75.2265 54.1863 75.8431 53.9944 76.4161C53.8026 76.9891 53.4472 77.4934 52.9721 77.8667C52.5019 78.2351 51.9315 78.4532 51.3354 78.4925C50.7393 78.5317 50.1453 78.3903 49.6308 78.0867ZM49.6308 141.983C49.9728 141.785 50.3507 141.657 50.7426 141.606C51.1345 141.555 51.5327 141.582 51.9139 141.687C52.2951 141.791 52.6518 141.97 52.9633 142.213C53.2747 142.456 53.5348 142.759 53.7283 143.104C54.1261 143.804 54.2338 144.632 54.0282 145.411C53.8225 146.19 53.32 146.857 52.6283 147.27C52.2868 147.47 51.9088 147.6 51.5165 147.651C51.1242 147.703 50.7254 147.676 50.3437 147.572C49.962 147.467 49.605 147.288 49.2937 147.044C48.9823 146.799 48.723 146.495 48.5308 146.149C48.133 145.449 48.0253 144.62 48.231 143.842C48.4366 143.063 48.9391 142.396 49.6308 141.983ZM170.356 78.0867C170.014 78.2848 169.636 78.4131 169.244 78.464C168.852 78.5148 168.454 78.4874 168.073 78.3831C167.692 78.2788 167.335 78.0999 167.023 77.8566C166.712 77.6134 166.452 77.3107 166.258 76.9661C165.957 76.4405 165.816 75.8383 165.853 75.2337C165.89 74.6291 166.102 74.0484 166.465 73.563C166.822 73.0817 167.316 72.7193 167.883 72.5231C168.45 72.3269 169.062 72.306 169.641 72.463C170.222 72.6273 170.743 72.9592 171.137 73.4171C171.531 73.875 171.782 74.4389 171.858 75.0383C171.935 75.6378 171.833 76.2465 171.566 76.7885C171.298 77.3306 170.878 77.782 170.356 78.0867ZM110 43.918C109.206 43.8981 108.452 43.5669 107.9 42.9958C107.348 42.4247 107.043 41.6595 107.051 40.8655C107.051 39.628 107.793 38.5073 108.914 38.0398C109.466 37.8101 110.075 37.7528 110.66 37.8755C111.245 37.9983 111.78 38.2952 112.193 38.7273C112.611 39.1631 112.893 39.7117 113.002 40.3054C113.112 40.8991 113.046 41.512 112.812 42.0686C112.582 42.6229 112.191 43.0954 111.69 43.4251C111.189 43.7549 110.6 43.9265 110 43.918ZM163.625 141.502C162.896 142.788 162.649 144.291 162.929 145.743C163.209 147.194 163.997 148.499 165.151 149.422L115.988 178.297C115.799 176.841 115.089 175.504 113.989 174.532C112.889 173.56 111.475 173.019 110.007 173.01C108.539 173.019 107.125 173.56 106.025 174.532C104.926 175.504 104.215 176.841 104.026 178.297L54.8489 149.422C55.9997 148.497 56.7839 147.193 57.061 145.743C57.3381 144.294 57.0901 142.792 56.3614 141.509C55.65 140.231 54.496 139.259 53.1169 138.774C51.7377 138.289 50.2288 138.325 48.8746 138.875V81.1255C50.2272 81.6748 51.7339 81.711 53.1114 81.2274C54.4889 80.7437 55.6422 79.7735 56.3546 78.4992C57.0837 77.2184 57.3339 75.7203 57.0606 74.2721C56.7874 72.8239 56.0084 71.5199 54.8627 70.593L104.026 41.718C104.215 43.1733 104.926 44.5108 106.025 45.4828C107.125 46.4548 108.539 46.9955 110.007 47.0048C111.476 46.9953 112.891 46.4536 113.991 45.4802C115.091 44.5068 115.8 43.1677 115.988 41.7111L165.165 70.5861C164.016 71.5103 163.233 72.8129 162.956 74.2613C162.679 75.7096 162.926 77.2093 163.653 78.4923C164.364 79.7695 165.518 80.7423 166.897 81.2273C168.276 81.7124 169.785 81.6761 171.14 81.1255V138.841C169.779 138.29 168.264 138.256 166.881 138.747C165.497 139.237 164.342 140.217 163.632 141.502H163.625ZM121.605 132.654C116.264 135.794 109.945 136.833 103.879 135.57C97.8132 134.307 92.4346 130.831 88.7908 125.82L121.227 106.817L132.282 100.327L137.521 97.2336L137.823 97.0892L160.098 83.9855C161.473 83.1811 161.955 81.3936 161.171 79.9911C160.991 79.6545 160.744 79.3582 160.446 79.1206C160.147 78.8829 159.803 78.7088 159.435 78.609C159.066 78.5092 158.682 78.4857 158.304 78.5402C157.926 78.5946 157.563 78.7257 157.238 78.9255L140.862 88.5848C137.748 83.9271 133.658 80.0021 128.877 77.0818C124.095 74.1615 118.735 72.3157 113.17 71.6723V52.9105C113.173 52.5168 113.099 52.1263 112.952 51.7612C112.805 51.3962 112.587 51.0637 112.311 50.7828C112.035 50.5019 111.707 50.2781 111.345 50.1241C110.982 49.9701 110.593 49.889 110.2 49.8855C109.805 49.8882 109.416 49.9686 109.052 50.1222C108.689 50.2757 108.36 50.4994 108.084 50.7804C107.807 51.0614 107.589 51.3942 107.441 51.7597C107.293 52.1252 107.219 52.5162 107.223 52.9105V71.5005C101.113 71.7998 95.1676 73.5787 89.8977 76.6842C85.1415 79.4719 81.0313 83.2377 77.8389 87.7323L62.8239 78.9255C62.4968 78.7339 62.1347 78.6096 61.7589 78.5599C61.3831 78.5102 61.0012 78.536 60.6355 78.6359C60.2698 78.7358 59.9278 78.9078 59.6295 79.1417C59.3312 79.3756 59.0826 79.6667 58.8983 79.998C58.5196 80.6687 58.4177 81.4607 58.6142 82.2054C58.8106 82.9501 59.29 83.5888 59.9502 83.9855L74.8483 92.7442C71.6615 99.1327 70.26 106.264 70.7921 113.383L72.1739 121.248C72.7927 123.379 73.5696 125.455 74.5183 127.456L59.9502 136.015C59.2856 136.413 58.8038 137.056 58.6084 137.806C58.4129 138.555 58.5195 139.352 58.9052 140.024C59.0914 140.355 59.3417 140.646 59.6415 140.879C59.9413 141.112 60.2846 141.283 60.6514 141.383C61.0181 141.482 61.4009 141.507 61.7775 141.457C62.1541 141.406 62.5168 141.281 62.8446 141.089L77.4677 132.523C80.8139 137.41 85.2322 141.467 90.3854 144.386C95.5385 147.305 101.29 149.009 107.202 149.367V167.09C107.202 168.761 108.536 170.115 110.179 170.115C110.573 170.112 110.962 170.031 111.324 169.877C111.686 169.723 112.015 169.499 112.29 169.218C112.566 168.937 112.784 168.605 112.931 168.24C113.079 167.875 113.153 167.484 113.149 167.09V149.215C118.498 148.666 123.663 146.953 128.281 144.197C133.49 141.101 137.886 136.806 141.103 131.67L157.17 141.075C158.545 141.859 160.277 141.371 161.068 139.982C161.449 139.316 161.557 138.527 161.367 137.782C161.177 137.038 160.705 136.397 160.05 135.995L143.88 126.507C143.921 126.418 144.018 126.315 144.018 126.205C148.926 114.902 135.788 110.049 132.866 118.752C130.915 124.596 126.912 129.535 121.598 132.654H121.605ZM170.363 141.983C171.054 142.398 171.555 143.067 171.76 143.846C171.966 144.625 171.859 145.454 171.463 146.156C171.27 146.501 171.01 146.805 170.699 147.049C170.387 147.292 170.03 147.471 169.648 147.575C169.267 147.679 168.868 147.705 168.476 147.653C168.084 147.6 167.706 147.47 167.365 147.27C166.673 146.857 166.171 146.19 165.965 145.411C165.76 144.632 165.867 143.804 166.265 143.104C166.457 142.758 166.717 142.454 167.028 142.209C167.339 141.965 167.696 141.785 168.078 141.681C168.46 141.576 168.859 141.549 169.251 141.601C169.643 141.653 170.021 141.783 170.363 141.983ZM84.4527 114.036C84.1571 102.575 85.5183 94.5798 96.3739 88.1998C100.758 85.6198 105.826 84.4449 110.898 84.8333C115.97 85.2218 120.801 87.1549 124.74 90.3723L84.4527 114.036Z" fill="white"/>
</g>
<defs>
<clipPath id="clip0_108_147">
<rect width="220" height="220" fill="white"/>
</clipPath>
</defs>
</svg>
