<svg width="220" height="220" viewBox="0 0 220 220" fill="none" xmlns="http://www.w3.org/2000/svg">
<g clip-path="url(#clip0_108_148)">
<path d="M110 220C170.751 220 220 170.751 220 110C220 49.2487 170.751 0 110 0C49.2487 0 0 49.2487 0 110C0 170.751 49.2487 220 110 220Z" fill="#2B1544"/>
<path d="M171.806 85.9502V131.71C171.806 133.745 171.91 135.821 171.449 137.822C170.407 142.451 168.009 146.663 164.56 149.922C162.938 151.483 160.916 152.493 158.985 153.635C145.874 161.266 132.805 168.918 119.701 176.563C115.7 178.701 110.97 179.065 106.528 178.515C104.209 178.232 101.967 177.499 99.9283 176.356C86.1301 168.313 72.332 160.248 58.5408 152.211C55.172 150.335 52.6558 147.241 50.8064 143.913C49.2939 141.026 48.187 137.85 48.187 134.543V85.139C48.4414 80.3265 50.5726 75.7683 53.6045 72.1315C54.8331 70.5942 56.3196 69.2822 57.9976 68.254C70.8195 60.7877 83.6414 53.294 96.4564 45.8002C98.567 44.6315 100.568 43.2015 102.85 42.4177C106.71 41.2124 110.808 40.9809 114.778 41.744C116.545 42.239 118.346 42.7615 119.935 43.6965C133.891 51.8846 147.868 60.0108 161.817 68.2058C165.536 70.4058 168.266 74.084 170.04 78.0096C171.16 80.4846 171.806 83.214 171.806 85.9502ZM109.588 68.9277C106.626 73.318 103.199 77.375 99.3645 81.0277C97.357 82.9321 95.4251 84.9877 94.277 87.5383C93.3558 89.3396 92.737 91.3883 92.9983 93.4508C93.3076 96.2283 95.2876 98.6758 97.8589 99.6658C100.471 100.711 103.428 100.477 106.026 99.4596C106.494 99.2508 107.011 99.1793 107.518 99.2533C107.01 102.512 105.03 105.262 103.462 108.074L103.531 108.541C104.947 110.054 106.439 111.484 107.848 112.969C108.206 113.306 108.536 113.773 109.031 113.931C110.674 112.66 111.96 110.989 113.472 109.586C113.809 109.201 114.503 108.782 114.139 108.184C112.675 105.434 111.052 102.65 110.591 99.4733C110.866 98.8271 111.643 99.3702 112.104 99.5283C114.545 100.725 117.494 100.903 120.045 99.9202C123.516 98.5933 125.675 94.5302 124.898 90.859C124.307 87.559 122.561 84.534 120.196 82.224C116.552 78.4771 113.053 74.4758 110.564 69.8421C110.476 69.6288 110.343 69.4369 110.175 69.2791C110.006 69.1214 109.806 69.0016 109.588 68.9277ZM84.6108 113.684C80.4858 115.925 77.7289 120.318 77.0483 124.986C76.1064 131.538 79.9358 138.386 85.8689 141.067C89.6226 142.683 93.9814 142.648 97.7626 141.17C99.7151 140.386 101.386 139.108 102.823 137.602C103.366 137.025 104.156 136.509 104.156 135.622C104.088 134.735 103.29 134.247 102.775 133.642C102.101 133.044 101.565 132.267 100.795 131.793C99.557 131.25 98.8145 132.604 98.017 133.278C94.8889 136.454 89.2583 136.481 86.0545 133.381C85.0222 132.41 84.2451 131.199 83.7918 129.856C83.3386 128.513 83.2231 127.079 83.4558 125.681C83.8408 123.048 85.4083 120.552 87.7458 119.301C89.2583 118.545 90.9564 118.132 92.627 118.208C94.9851 118.359 97.1439 119.61 98.7389 121.329C104.184 126.746 109.423 132.363 114.847 137.801C117.721 140.641 121.701 142.463 125.758 142.305C128.851 142.373 131.828 141.136 134.345 139.39C138.05 136.811 140.305 132.336 140.532 127.812C141.027 120.648 135.836 113.423 128.845 112.041C124.383 111.133 119.343 112.068 115.906 115.245C113.458 117.472 111.231 119.975 108.811 122.264C106.315 120.208 104.342 117.61 101.901 115.506C100.859 114.517 99.6485 113.723 98.3264 113.161C98.0789 113.003 97.9964 112.928 97.6664 112.797C95.5738 111.908 93.301 111.525 91.0325 111.679C88.764 111.833 86.5639 112.52 84.6108 113.684ZM119.24 120.916C121.021 119.143 123.537 118.105 126.046 118.311C128.769 118.386 131.409 119.844 132.853 122.188C135.108 125.626 134.448 130.569 131.546 133.401C128.563 136.296 123.448 136.66 120.237 133.924C117.851 131.896 115.851 129.476 113.568 127.345C113.541 127.193 113.513 126.905 113.486 126.774C115.39 124.794 117.336 122.896 119.24 120.916Z" fill="white"/>
</g>
<defs>
<clipPath id="clip0_108_148">
<rect width="220" height="220" fill="white"/>
</clipPath>
</defs>
</svg>
