<svg width="220" height="220" viewBox="0 0 220 220" fill="none" xmlns="http://www.w3.org/2000/svg">
<g clip-path="url(#clip0_108_149)">
<path d="M110 220C170.751 220 220 170.751 220 110C220 49.2487 170.751 0 110 0C49.2487 0 0 49.2487 0 110C0 170.751 49.2487 220 110 220Z" fill="#242424"/>
<path d="M89.7877 164.134L108.233 145.592L126.755 164.134L114.936 175.973C114.057 176.855 113.012 177.554 111.862 178.032C110.712 178.509 109.479 178.755 108.233 178.755C106.988 178.755 105.755 178.509 104.605 178.032C103.454 177.554 102.41 176.855 101.53 175.973L89.7877 164.134ZM137.569 100.595L119.061 82.0536L137.576 63.5117L156.083 82.0536L137.569 100.595ZM132.97 158.091L114.455 139.549L164.161 89.7604L175.973 101.592C179.678 105.305 179.678 111.307 175.973 115.019L132.97 158.091ZM82.074 156.18L63.5665 137.638L113.19 87.9317L131.698 106.474L82.074 156.18ZM55.7977 130.055L43.9796 118.216C42.2147 116.423 41.233 114.003 41.2497 111.488C41.2665 108.972 42.2803 106.565 44.069 104.796L55.8802 92.9573L74.3946 111.506L55.7977 130.055ZM129.821 55.8873L80.1146 105.649L61.6002 87.1067L104.603 44.0279C105.483 43.1461 106.527 42.4465 107.678 41.9692C108.828 41.4918 110.061 41.2461 111.306 41.2461C112.552 41.2461 113.785 41.4918 114.935 41.9692C116.085 42.4465 117.13 43.1461 118.01 44.0279L129.821 55.8873Z" fill="white"/>
</g>
<defs>
<clipPath id="clip0_108_149">
<rect width="220" height="220" fill="white"/>
</clipPath>
</defs>
</svg>
