<svg width="220" height="220" viewBox="0 0 220 220" fill="none" xmlns="http://www.w3.org/2000/svg">
<g clip-path="url(#clip0_108_150)">
<path d="M110 220C170.751 220 220 170.751 220 110C220 49.2487 170.751 0 110 0C49.2487 0 0 49.2487 0 110C0 170.751 49.2487 220 110 220Z" fill="#0FACF3"/>
<path d="M65.113 61.9859H102.458C117.267 61.9859 124.623 61.5184 135.664 62.529C146.712 63.6978 157.761 68.2078 164.911 76.8496C173.332 86.8871 175.794 100.431 175.237 113.033C174.687 125.566 170.39 138.711 160.538 147.27C151.8 155.135 139.569 158.016 127.964 158.092C105.401 158.167 82.9124 158.092 60.3487 158.092C57.8874 157.933 55.1031 158.167 53.1987 156.455C49.8643 153.114 51.8512 145.95 57.1724 146.26C69.7262 145.875 82.3555 146.26 94.9162 146.026C94.6755 135.445 94.8337 124.865 94.8337 114.36C85.1399 114.277 75.5218 114.36 65.8349 114.36C63.6831 114.277 61.2974 114.277 59.6337 112.875C57.6468 111.087 57.6468 108.055 58.5199 105.725C59.6337 103.153 62.6518 102.686 65.1955 102.686C75.0474 102.603 84.9818 102.686 94.8268 102.686C94.9918 93.0334 94.6756 83.3809 94.9918 73.8109C83.9437 73.7353 72.9024 73.8109 61.8543 73.8109C59.393 73.7353 56.6155 73.7353 54.7043 72.0234C52.7243 69.4521 53.123 65.7946 54.7868 63.2234C57.963 61.6696 61.6205 61.9859 65.113 61.9859ZM108.659 102.686C113.183 102.762 117.714 102.37 122.244 102.995C127.648 103.772 127.648 113.267 122.162 114.043C117.714 114.745 113.107 114.277 108.577 114.36C108.659 123.538 108.577 132.647 108.577 141.825C108.659 143.386 108.735 145.717 110.722 145.875C116.126 146.342 120.828 146.184 126.933 146.184C135.987 146.576 145.523 143.778 151.876 137.157C158.393 130.234 160.779 120.588 160.937 111.397C161.177 101.208 159.266 90.0015 151.793 82.3703C145.049 75.5228 134.881 73.1921 125.421 73.7353C120.031 73.7353 115.411 73.5771 110.406 74.0446C108.817 74.5121 108.735 76.4578 108.659 77.8603V102.679V102.686Z" fill="white"/>
</g>
<defs>
<clipPath id="clip0_108_150">
<rect width="220" height="220" fill="white"/>
</clipPath>
</defs>
</svg>
