<svg width="220" height="220" viewBox="0 0 220 220" fill="none" xmlns="http://www.w3.org/2000/svg">
<g clip-path="url(#clip0_108_151)">
<path d="M110 220C170.751 220 220 170.751 220 110C220 49.2487 170.751 0 110 0C49.2487 0 0 49.2487 0 110C0 170.751 49.2487 220 110 220Z" fill="#3FBADF"/>
<path d="M75.625 152.07L110 132.683V171.423L75.625 152.07ZM75.625 90.1951L110 70.8076V109.548L75.625 90.1951Z" fill="white" fill-opacity="0.4"/>
<path d="M178.75 132.207L144.375 152.048V112.957L178.75 132.207ZM178.75 70.332L144.375 90.1733V51.082L178.75 70.332Z" fill="white" fill-opacity="0.7"/>
<path d="M75.625 152.048V112.978L110 132.709L75.625 152.048ZM75.625 90.1732V51.1025L110 70.8338L75.625 90.1732Z" fill="white" fill-opacity="0.8"/>
<path d="M144.375 152.048L110 132.716L144.375 112.957V152.048ZM144.375 90.1733L110 70.8408L144.375 51.082V90.1733Z" fill="white"/>
<path d="M144.375 152.048L110 171.422V132.716L144.375 152.048ZM144.375 90.1733L110 109.547V70.8408L144.375 90.1733Z" fill="white" fill-opacity="0.6"/>
<path d="M75.625 112.978V152.048L41.25 132.214L75.625 112.978ZM75.625 51.1025V90.1732L41.25 70.3388L75.625 51.1025Z" fill="white" fill-opacity="0.5"/>
</g>
<defs>
<clipPath id="clip0_108_151">
<rect width="220" height="220" fill="white"/>
</clipPath>
</defs>
</svg>
