<svg width="220" height="220" viewBox="0 0 220 220" fill="none" xmlns="http://www.w3.org/2000/svg">
<g clip-path="url(#clip0_108_153)">
<path d="M110 220C170.751 220 220 170.751 220 110C220 49.2487 170.751 0 110 0C49.2487 0 0 49.2487 0 110C0 170.751 49.2487 220 110 220Z" fill="#2B5EBB"/>
<path fill-rule="evenodd" clip-rule="evenodd" d="M178.75 109.739C178.743 125.799 166.306 138.326 150.411 138.277C134.846 138.229 122.21 125.359 122.293 109.636C122.375 93.9199 135.149 81.1049 150.631 81.2081C166.437 81.3112 178.757 93.8168 178.75 109.739ZM62.4939 164.451C59.7467 164.453 57.0264 163.909 54.4908 162.852C51.9552 161.795 49.6547 160.245 47.7228 158.291C45.7908 156.338 44.2657 154.021 43.2361 151.474C42.2064 148.927 41.6926 146.201 41.7245 143.454C41.7589 131.726 50.9301 122.245 62.4595 122.513C65.7732 122.589 69.1007 123.826 72.332 124.837C76.9245 126.274 81.407 128.054 85.9857 129.553C88.8251 130.488 91.5407 129.828 94.0501 128.274C97.6939 126.006 100.788 123.269 102.761 119.254C104.754 115.171 109.292 113.651 113.328 115.384C117.068 116.992 119.013 121.069 117.934 125.029C116.717 129.477 113.053 131.87 108.488 131.072C104.438 130.364 100.423 129.058 96.312 130.55C88.9557 133.224 85.7245 139.316 83.3045 146.266C81.9845 150.068 80.582 154.062 78.217 157.197C74.422 162.257 68.8395 164.478 62.4939 164.451ZM62.0539 55.5643C71.452 55.5643 78.7738 61.0643 81.9639 70.1187C83.2289 73.6937 85.1264 77.0418 86.7489 80.4862C90.757 89.0112 100.815 89.8499 107.195 87.5193C112.846 85.4568 118.291 89.0868 118.422 94.9443C118.511 99.0006 116.428 101.957 112.619 103.153C109.251 104.198 105.456 102.775 103.393 99.7018C102.658 98.6018 101.97 97.4606 101.152 96.4225C95.542 89.3412 89.3132 87.485 80.8707 90.6612C77.9282 91.7612 75.1713 93.4112 72.4076 94.9443C69.9103 96.3667 67.1447 97.2548 64.2862 97.5522C61.4276 97.8497 58.5384 97.55 55.8018 96.6723C53.0651 95.7945 50.5406 94.3578 48.3884 92.4532C46.2361 90.5486 44.503 88.2176 43.2989 85.6081C36.7264 71.6518 46.7639 55.5643 62.0539 55.5643ZM127.573 164.932C127.49 172.625 121.213 178.888 113.719 178.751C106.48 178.613 100.43 172.377 100.244 165.365C100.045 157.431 105.875 150.976 113.981 150.9C121.736 150.824 127.662 157.218 127.579 164.925L127.573 164.932ZM100.334 55.1381C100.334 47.3556 106.425 41.1818 114.049 41.2506C121.461 41.3193 127.662 47.6649 127.6 55.1243C127.545 62.9687 121.674 69.2593 113.946 69.1149C105.153 68.9499 99.9764 61.8618 100.334 55.1381Z" fill="white"/>
</g>
<defs>
<clipPath id="clip0_108_153">
<rect width="220" height="220" fill="white"/>
</clipPath>
</defs>
</svg>
