<svg width="220" height="220" viewBox="0 0 220 220" fill="none" xmlns="http://www.w3.org/2000/svg">
<g clip-path="url(#clip0_108_154)">
<path d="M110 220C170.751 220 220 170.751 220 110C220 49.2487 170.751 0 110 0C49.2487 0 0 49.2487 0 110C0 170.751 49.2487 220 110 220Z" fill="#00ADED"/>
<path d="M69.4165 162.272L69.4303 162.244L91.3478 109.884L69.4165 57.5312L109.876 109.884L69.444 162.237L69.4165 162.272ZM150.376 162.272L150.349 162.237L109.917 109.884L150.376 57.5312L128.445 109.884L150.363 162.244L150.376 162.272Z" fill="white"/>
<path d="M109.897 109.889V146.368L69.4028 162.249L109.897 109.862V73.3832L150.39 57.502L109.897 109.889Z" fill="white" fill-opacity="0.8"/>
<path d="M109.897 146.369V178.344L69.4028 162.229L109.897 146.314V109.89L69.4028 57.5026L109.897 73.3838V41.4082L150.39 57.5163L109.897 73.432V109.863L150.39 162.25L109.897 146.369Z" fill="white" fill-opacity="0.5"/>
<path d="M69.4028 57.5163L109.897 41.4082V73.432L69.4028 57.5163ZM150.39 162.229L109.897 178.344V146.314L150.39 162.229Z" fill="white" fill-opacity="0.145"/>
</g>
<defs>
<clipPath id="clip0_108_154">
<rect width="220" height="220" fill="white"/>
</clipPath>
</defs>
</svg>
