<svg width="220" height="220" viewBox="0 0 220 220" fill="none" xmlns="http://www.w3.org/2000/svg">
<g clip-path="url(#clip0_108_155)">
<path d="M110 220C170.751 220 220 170.751 220 110C220 49.2487 170.751 0 110 0C49.2487 0 0 49.2487 0 110C0 170.751 49.2487 220 110 220Z" fill="#396A28"/>
<path fill-rule="evenodd" clip-rule="evenodd" d="M124.252 90.8325L110 76.5875L95.6519 90.9287L80.7744 76.0513L110 34.375L139.425 75.6594L124.252 90.8325ZM90.6812 95.9062L76.5875 110L90.8325 124.252L76.01 139.074L34.375 110L75.5562 80.7812L90.6812 95.9062ZM129.071 124.348L143.413 110L129.222 95.81L144.526 80.5062L185.625 110L144.072 139.349L129.071 124.348ZM95.81 129.229L110 143.413L124.094 129.319L139.095 144.327L110 185.625L81.0975 143.935L95.81 129.229ZM110 86.1231L133.87 110L110 133.87L86.13 110L110 86.1231Z" fill="white"/>
</g>
<defs>
<clipPath id="clip0_108_155">
<rect width="220" height="220" fill="white"/>
</clipPath>
</defs>
</svg>
