<svg width="220" height="220" viewBox="0 0 220 220" fill="none" xmlns="http://www.w3.org/2000/svg">
<g clip-path="url(#clip0_108_157)">
<path d="M110 220C170.751 220 220 170.751 220 110C220 49.2487 170.751 0 110 0C49.2487 0 0 49.2487 0 110C0 170.751 49.2487 220 110 220Z" fill="#00CCFF"/>
<path d="M54.2713 131.732H84.5006L71.4862 158.125H41.25L54.2713 131.732ZM71.4931 96.8069H101.729L88.7562 123.131H58.5063L71.5 96.8L71.4931 96.8069ZM88.7219 61.8819H118.958L105.971 88.2131H75.7419L88.7219 61.875V61.8819Z" fill="white" fill-opacity="0.4"/>
<path d="M84.4046 131.725H114.641L101.62 158.111H71.3833L84.4046 131.718V131.725ZM101.633 96.8H131.863L118.883 123.118H88.6464L101.633 96.8ZM118.855 61.875H149.091L136.105 88.1994H105.875L118.855 61.875Z" fill="white" fill-opacity="0.6"/>
<path d="M114.056 131.725H144.293L131.278 158.111H101.042L114.063 131.718L114.056 131.725ZM131.285 96.8H161.521L148.541 123.118H118.305L131.285 96.8ZM148.514 61.875H178.75L165.763 88.1994H135.534L148.514 61.875Z" fill="white"/>
</g>
<defs>
<clipPath id="clip0_108_157">
<rect width="220" height="220" fill="white"/>
</clipPath>
</defs>
</svg>
