<svg width="220" height="220" viewBox="0 0 220 220" fill="none" xmlns="http://www.w3.org/2000/svg">
<g clip-path="url(#clip0_108_158)">
<path d="M110 220C170.751 220 220 170.751 220 110C220 49.2487 170.751 0 110 0C49.2487 0 0 49.2487 0 110C0 170.751 49.2487 220 110 220Z" fill="#2F2F2F"/>
<path fill-rule="evenodd" clip-rule="evenodd" d="M172.9 70.7781C173.683 71.1906 175.478 72.1669 175.306 74.2912L175.196 145.908C175.246 146.584 175.087 147.258 174.738 147.84C174.39 148.421 173.87 148.879 173.25 149.153L157.438 158.386L144.925 165.688L111.623 185.13C111.2 185.453 110.683 185.627 110.151 185.625C109.482 185.603 108.831 185.393 108.275 185.02L85.2983 171.765C72.5383 164.402 59.3383 156.784 46.3308 149.304C45.2377 148.775 44.5983 147.544 44.6946 146.142L44.7427 127.222C44.784 110.199 44.8115 92.9087 44.8252 76.1887V76.12C44.8347 76.0057 44.837 75.8909 44.8321 75.7763V75.5631C44.8046 74.635 44.7633 72.7306 46.5508 71.8713C53.8383 67.5194 61.2908 63.0987 68.5027 58.8225L80.4446 51.7413C89.5333 46.3581 98.7871 40.865 107.738 35.5506L107.807 35.5094C108.393 35.1743 109.004 34.887 109.636 34.65L110.344 34.375L111.004 34.7669C117.508 38.5344 124.121 42.3844 130.508 46.1106L142.443 53.0544L154.096 59.8331L172.432 70.5031H172.446L172.46 70.5169L172.9 70.7781ZM112.613 178.509L132.976 166.616C145.324 159.418 157.67 152.215 170.012 145.007L170.081 104.796L170.115 78.2238L143.646 93.7062V105.916C143.616 113.536 143.63 121.156 143.688 128.776V129.298L143.378 129.724C143.041 130.178 142.609 130.553 142.113 130.824L141.935 130.934H141.928L133.375 135.919C130.281 137.706 127.085 139.562 123.956 141.398L112.654 147.964L112.613 178.509ZM83.7652 92.1937C89.5457 95.5163 95.3298 98.8323 101.118 102.142L110.083 107.291L136.05 92.1112L110.041 76.7663L83.7652 92.1937ZM81.084 96.6625L81.5721 126.837L107.477 141.927L107.518 111.822L81.084 96.6625ZM50.009 78.8287L49.8783 145.344L107.45 178.551L107.47 147.95L96.1952 141.384L89.1277 137.266C85.5046 135.162 81.7577 132.983 78.0796 130.831C77.014 130.329 76.3471 129.106 76.4227 127.765L75.8658 93.6719L50.009 78.8287ZM167.53 73.7L157.431 67.815L146.28 61.3181C135.665 55.1581 123.076 47.8431 110.09 40.2394C96.9368 48.011 83.7918 55.7958 70.6546 63.5938L52.6008 74.2981L78.5746 89.1825L108.371 71.6856C108.886 71.354 109.488 71.1835 110.1 71.1957C110.712 71.208 111.307 71.4025 111.808 71.7544L141.206 89.0863L167.53 73.7ZM112.654 141.948C121.338 136.887 130.028 131.837 138.724 126.796V96.5938L112.675 111.815L112.654 141.948ZM147.902 136.496C147.644 136.575 147.375 136.614 147.105 136.613C146.74 136.618 146.377 136.55 146.039 136.412C145.701 136.274 145.395 136.068 145.138 135.809C144.723 135.435 144.413 134.959 144.238 134.429C144.064 133.898 144.03 133.331 144.141 132.784C144.258 132.069 144.621 131.417 145.169 130.943C145.717 130.47 146.415 130.203 147.139 130.192C147.985 130.192 148.81 130.577 149.408 131.244L149.415 131.257C149.828 131.722 150.098 132.296 150.194 132.911C150.289 133.526 150.204 134.155 149.951 134.723C149.777 135.161 149.5 135.551 149.143 135.86C148.787 136.169 148.361 136.387 147.902 136.496ZM162.092 146.176C161.691 145.863 161.373 145.456 161.167 144.991C160.96 144.525 160.872 144.016 160.91 143.509C160.965 142.416 161.528 141.446 162.436 140.896C162.886 140.603 163.411 140.445 163.948 140.442C164.54 140.442 165.117 140.628 165.626 140.972C166.135 141.306 166.538 141.78 166.784 142.338C167.03 142.895 167.11 143.512 167.015 144.114C166.924 144.87 166.561 145.568 165.992 146.076C165.424 146.583 164.69 146.866 163.928 146.871C163.252 146.868 162.6 146.622 162.092 146.176ZM71.4177 130.226C72.2771 130.226 73.0952 130.618 73.6658 131.299C74.0749 131.755 74.3426 132.32 74.4366 132.925C74.5306 133.531 74.4467 134.15 74.1952 134.709C73.9631 135.274 73.566 135.756 73.0559 136.092C72.5457 136.428 71.946 136.602 71.3352 136.592C70.875 136.576 70.4242 136.457 70.0148 136.246C69.6055 136.035 69.2476 135.737 68.9667 135.372C68.6858 135.007 68.4887 134.585 68.3895 134.135C68.2903 133.685 68.2914 133.219 68.3927 132.77C68.5307 132.064 68.9061 131.427 69.4564 130.964C70.0067 130.502 70.6988 130.241 71.4177 130.226ZM153.615 141.061C153.179 140.696 152.847 140.222 152.652 139.687C152.458 139.152 152.408 138.576 152.508 138.016C152.62 137.288 152.982 136.622 153.531 136.133C154.081 135.643 154.784 135.361 155.52 135.334C156.276 135.334 157.005 135.637 157.582 136.173C158.455 136.984 158.82 138.16 158.531 139.26C158.435 139.777 158.205 140.259 157.865 140.659C157.525 141.06 157.086 141.364 156.592 141.542C156.098 141.735 155.562 141.792 155.038 141.708C154.515 141.623 154.023 141.4 153.615 141.061ZM64.8933 136.091C65.8077 136.847 66.234 138.05 66.0002 139.164C65.9258 139.662 65.7267 140.134 65.4215 140.536C65.1162 140.937 64.7147 141.255 64.254 141.46H64.2471C63.8386 141.654 63.393 141.757 62.9408 141.763C62.3999 141.755 61.8717 141.598 61.4146 141.309C60.903 140.989 60.4918 140.532 60.2279 139.99C59.9641 139.448 59.8583 138.842 59.9227 138.243C59.96 137.651 60.1673 137.082 60.5197 136.605C60.8722 136.129 61.3548 135.764 61.9096 135.554C62.2463 135.41 62.6088 135.335 62.9752 135.334C63.6627 135.334 64.3296 135.596 64.8933 136.091ZM109.65 42.3981C110.543 42.3981 111.389 42.7831 111.987 43.4569C112.723 44.2338 112.998 45.3131 112.723 46.3444C112.589 46.9415 112.277 47.4837 111.827 47.8988C111.378 48.314 110.812 48.5823 110.206 48.6681H110.172C109.55 48.7903 108.906 48.7233 108.323 48.4758C107.739 48.2282 107.244 47.8115 106.9 47.2794C106.609 46.8318 106.44 46.3169 106.407 45.7844C106.375 45.252 106.48 44.7202 106.714 44.2406L106.721 44.2269C106.943 43.7512 107.281 43.3389 107.704 43.0278C108.126 42.7167 108.621 42.5167 109.141 42.4462C109.311 42.4149 109.483 42.3988 109.656 42.3981H109.65ZM56.0315 140.869C57.0283 141.432 57.6333 142.45 57.6265 143.55C57.6559 144.104 57.537 144.656 57.2821 145.149C57.0271 145.643 56.6452 146.059 56.1758 146.355C55.6769 146.682 55.0947 146.858 54.4983 146.864C54.006 146.868 53.5215 146.74 53.0958 146.493C52.5966 146.216 52.1818 145.809 51.8961 145.315C51.6103 144.821 51.4642 144.258 51.4733 143.688C51.4733 142.498 52.0852 141.419 53.0615 140.869C53.5096 140.598 54.023 140.455 54.5465 140.455C55.0699 140.455 55.5833 140.598 56.0315 140.869ZM111.306 63.2844C111.792 63.5862 112.186 64.0145 112.446 64.5231C112.706 65.0318 112.823 65.6017 112.785 66.1719C112.746 66.7371 112.551 67.2805 112.22 67.7408C111.89 68.2011 111.438 68.5601 110.915 68.7775C110.483 68.9744 110.014 69.0776 109.54 69.08C108.835 69.0875 108.149 68.8547 107.594 68.42C107.171 68.1071 106.836 67.69 106.621 67.2094C106.407 66.7287 106.32 66.2008 106.37 65.6769C106.399 65.1572 106.562 64.6538 106.843 64.2154C107.123 63.777 107.512 63.4184 107.972 63.1744C108.445 62.9024 108.981 62.7601 109.526 62.7619C110.159 62.7608 110.78 62.9422 111.313 63.2844H111.306ZM107.388 58.0731C107.027 57.7556 106.746 57.3569 106.57 56.9099C106.393 56.463 106.324 55.9804 106.37 55.5019V55.4812C106.415 54.9885 106.575 54.513 106.836 54.0929C107.098 53.6727 107.454 53.3195 107.876 53.0612C108.373 52.7307 108.957 52.556 109.553 52.5594C110.103 52.5594 110.653 52.7037 111.155 52.9719L111.162 52.9787C111.667 53.2505 112.086 53.6575 112.373 54.1542C112.659 54.6508 112.802 55.2175 112.785 55.7906C112.779 56.3938 112.597 56.9822 112.261 57.4832C111.925 57.9841 111.45 58.3756 110.894 58.6094C110.462 58.8061 109.994 58.9092 109.519 58.9119C108.726 58.921 107.962 58.62 107.388 58.0731Z" fill="white"/>
</g>
<defs>
<clipPath id="clip0_108_158">
<rect width="220" height="220" fill="white"/>
</clipPath>
</defs>
</svg>
