<svg width="220" height="220" viewBox="0 0 220 220" fill="none" xmlns="http://www.w3.org/2000/svg">
<g clip-path="url(#clip0_108_4)">
<path d="M220 110C220 131.756 213.549 153.023 201.462 171.113C189.375 189.202 172.195 203.301 152.095 211.627C131.995 219.952 109.878 222.131 88.5401 217.886C67.2022 213.642 47.6021 203.166 32.2183 187.782C16.8345 172.398 6.35804 152.798 2.11367 131.46C-2.13071 110.122 0.0476608 88.0047 8.3733 67.9048C16.6989 47.805 30.7979 30.6253 48.8873 18.5383C66.9767 6.45139 88.2441 0 110 0C139.174 0 167.153 11.5893 187.782 32.2183C208.411 52.8473 220 80.8262 220 110Z" fill="#9D4BEF"/>
<path fill-rule="evenodd" clip-rule="evenodd" d="M93.356 53.9043C80.8867 53.9043 67.5745 58.002 57.3088 67.9211C46.8943 77.9839 40.8354 92.8523 40.8354 111.986C40.8354 131.6 47.8424 145.788 59.0161 154.783C69.7229 163.402 82.8137 166.096 93.356 166.096H179.164V142.096H93.356C86.4187 142.096 79.2493 140.261 74.0657 136.088C70.6841 133.366 67.4069 129.066 65.8225 121.897L179.164 121.897V97.8974L66.6504 97.8974C68.3486 92.0841 71.0572 88.0099 73.9854 85.1806C79.0142 80.3216 85.9622 77.9043 93.356 77.9043H179.164V53.9043H93.356Z" fill="white"/>
</g>
<defs>
<clipPath id="clip0_108_4">
<rect width="220" height="220" fill="white"/>
</clipPath>
</defs>
</svg>
