<svg width="220" height="220" viewBox="0 0 220 220" fill="none" xmlns="http://www.w3.org/2000/svg">
<g clip-path="url(#clip0_108_159)">
<path d="M110 220C170.751 220 220 170.751 220 110C220 49.2487 170.751 0 110 0C49.2487 0 0 49.2487 0 110C0 170.751 49.2487 220 110 220Z" fill="#624DBF"/>
<path d="M153.402 61.875C156.798 62.2669 160.236 62.48 163.591 63.085C170.239 64.3431 172.411 67.5056 171.284 73.92C170.83 76.5188 169.152 78.1206 166.485 78.5537C164.895 78.7776 163.292 78.8925 161.686 78.8975C139.872 78.9456 118.009 78.9869 96.195 79.0763C92.895 79.0763 89.6294 79.3787 86.4187 79.9013C75.5975 81.5925 71.5275 85.8825 70.62 96.3188C70.2075 101.221 70.2075 101.221 75.3294 101.221H164.897C166.306 101.262 167.661 101.523 168.836 102.252C172.824 104.686 171.827 108.494 171.6 112.008C171.421 114.826 169.654 116.38 166.622 116.944C165.349 117.139 164.061 117.226 162.772 117.205H73.4662C70.1662 117.205 70.2144 117.205 70.4825 120.326C70.7094 123.186 70.895 126.005 71.6169 128.776C72.9712 133.932 76.2781 137.136 81.62 138.566C87.5462 140.168 93.6581 140.518 99.77 140.559C121.082 140.69 142.361 140.649 163.68 140.649C166.396 140.649 168.926 140.993 170.514 143.378C173.594 147.971 171.194 154.378 165.804 156.028C161.191 157.458 156.344 157.802 151.546 157.85C131.539 158.194 111.533 158.242 91.5269 157.85C85.3571 157.691 79.2118 157.01 73.1569 155.815C58.8981 152.996 51.7894 146.066 49.39 132.371C48.8469 129.209 48.5306 126.005 48.125 122.836V97.8381C48.4 95.3631 48.62 92.9019 48.9431 90.475C50.8406 74.9581 58.0869 67.3338 74.0162 63.9581C79.6744 62.7413 85.4631 62.48 91.1694 61.9162C111.856 61.875 132.619 61.875 153.402 61.875Z" fill="white"/>
</g>
<defs>
<clipPath id="clip0_108_159">
<rect width="220" height="220" fill="white"/>
</clipPath>
</defs>
</svg>
