<svg width="220" height="220" viewBox="0 0 220 220" fill="none" xmlns="http://www.w3.org/2000/svg">
<g clip-path="url(#clip0_108_160)">
<path d="M110 220C170.751 220 220 170.751 220 110C220 49.2487 170.751 0 110 0C49.2487 0 0 49.2487 0 110C0 170.751 49.2487 220 110 220Z" fill="#FA5836"/>
<path d="M101.317 30.9511C100.574 31.0543 97.7076 31.5905 94.9507 32.0099C79.5645 34.6086 65.3538 42.1436 53.577 53.9686C41.752 65.7455 34.5332 79.3786 31.5082 95.6105C30.1332 102.987 30.1332 117.411 31.5082 124.788C34.5332 141.013 41.752 154.646 53.577 166.423C65.3538 178.248 78.9801 185.467 95.212 188.492C102.589 189.867 117.013 189.867 124.389 188.492C140.614 185.467 154.254 178.248 166.031 166.423C177.856 154.646 185.075 141.02 188.1 124.788C189.475 117.411 189.475 102.987 188.1 95.6105C185.075 79.3855 177.856 65.7455 166.031 53.9686C154.516 42.4049 141.522 35.3511 125.771 32.1749C120.89 31.1643 104.658 30.3668 101.317 30.9511ZM129.642 59.0699C130.274 59.3311 130.488 60.1218 130.488 62.2461V65.113H127.146C122.904 65.113 119.563 66.7011 118.181 69.3549C117.281 71.053 117.226 73.1224 117.226 98.2643C117.226 113.114 117.019 125.579 116.806 125.95C115.693 127.648 107.525 128.129 103.861 126.692L102.376 126.108V98.6905C102.376 73.1155 102.321 71.053 101.42 69.3549C100.045 66.7011 96.697 65.113 92.4551 65.113H89.1138V62.2461C89.1138 60.4449 89.382 59.2761 89.8013 59.118C90.7638 58.6918 128.631 58.6918 129.642 59.063V59.0699ZM99.1926 81.1799V87.7111L97.6526 88.6049C95.377 89.9386 91.5545 93.9124 90.0213 96.5111C89.0897 98.2149 88.3407 100.012 87.787 101.874L86.9413 104.899H80.8432C73.8926 104.899 74.1057 105.16 75.5907 99.3299C77.447 92.2693 81.957 85.1055 87.4157 80.7605C90.4407 78.3199 97.1232 74.6555 98.4501 74.6555C99.0345 74.6555 99.1926 76.0374 99.1926 81.1868V81.1799ZM125.503 76.5186C130.035 78.7819 134.032 81.9872 137.225 85.9201C140.418 89.8529 142.734 94.4226 144.018 99.323C145.503 105.16 145.716 104.892 138.765 104.892H132.667L131.814 101.867C131.262 100.008 130.516 98.213 129.587 96.5111C128.047 93.9124 124.224 89.9386 121.949 88.6049L120.409 87.7111V81.1799C120.409 76.0374 120.567 74.6555 121.151 74.6555C121.523 74.6555 123.489 75.508 125.503 76.5118V76.5186ZM86.9963 109.883C86.9963 112.372 88.6395 117.466 90.3376 120.12C99.4057 134.489 120.196 134.489 129.271 120.12C130.969 117.466 132.612 112.372 132.612 109.876V108.075H145.289L145.021 110.832C143.694 123.722 136.586 134.124 125.448 139.638C120.306 142.182 115.796 143.247 109.801 143.247C91.2382 143.247 76.5463 129.717 74.5801 110.832L74.3188 108.082H86.9963V109.883ZM117.494 148.232C118.181 151.944 122.004 154.227 127.731 154.227H130.488V160.057H89.1138V154.378L92.9845 154.117C95.4801 153.959 97.4945 153.484 98.6082 152.845C100.258 151.889 102.376 148.706 102.376 147.221C102.376 146.692 104.074 146.534 109.746 146.534H117.171L117.494 148.232Z" fill="#FEFFFF"/>
</g>
<defs>
<clipPath id="clip0_108_160">
<rect width="220" height="220" fill="white"/>
</clipPath>
</defs>
</svg>
