<svg width="220" height="220" viewBox="0 0 220 220" fill="none" xmlns="http://www.w3.org/2000/svg">
<g clip-path="url(#clip0_108_161)">
<path d="M110 220C170.751 220 220 170.751 220 110C220 49.2487 170.751 0 110 0C49.2487 0 0 49.2487 0 110C0 170.751 49.2487 220 110 220Z" fill="#443F54"/>
<path opacity="0.7" d="M106.617 183.617C96.8823 177.691 85.0367 170.5 75.3086 164.574C71.0736 162.037 66.4261 159.5 62.1911 156.537C60.4998 155.272 60.4998 154 60.4998 153.154C64.728 133.272 69.3823 111.698 74.0436 92.228L71.0736 82.9262C71.0736 82.9262 60.9261 131.574 55.8455 153.154C54.9998 156.111 55.8455 157.809 58.8017 159.5C75.3017 169.228 108.728 190.382 108.728 190.382L106.617 183.617ZM114.654 183.617C124.382 177.691 136.228 170.5 145.963 164.574C150.191 162.037 154.845 159.5 159.074 156.537C160.772 155.272 160.772 154 160.772 153.154C156.537 133.272 151.882 111.698 147.228 92.228L150.617 83.3455C150.617 83.3455 160.772 131.574 165.426 153.154C166.272 156.111 165.426 157.809 162.463 159.5C145.963 169.228 112.537 190.382 112.537 190.382L114.654 183.617ZM146.809 83.7718L145.117 81.228H76.5736L74.8823 83.7718C74.8823 83.7718 76.1542 87.1543 75.728 85.8824H146.382C145.537 86.728 146.809 83.7718 146.809 83.7718Z" fill="#FEFFFE"/>
<path d="M148.926 79.9562C148.926 79.9562 125.654 46.1243 115.5 31.3156C113.382 28.7718 112.117 27.5068 110.845 27.5068C109.574 27.5068 107.889 28.7787 106.191 31.3156C96.0367 45.6981 72.7717 79.97 72.7717 79.97C70.6542 82.9262 70.6542 83.7787 72.3455 87.5806C72.3455 87.5806 88.8455 133.279 95.6174 153.581C98.9999 162.889 107.882 189.544 107.882 189.544C108.309 190.389 110 190.816 110.845 190.816C111.952 190.764 113.003 190.312 113.802 189.544C113.802 189.544 123.117 162.889 126.074 153.587C132.845 133.698 149.345 87.5875 149.345 87.5875C151.037 83.7787 151.037 82.9331 148.926 79.97V79.9562ZM110.845 175.574C100.069 144.851 89.3507 114.109 78.6911 83.3456C78.6911 83.3456 101.537 49.9262 110.426 36.8018C119.309 49.9262 142.154 83.3456 142.154 83.3456C142.154 83.3456 120.574 146.802 110.845 175.574Z" fill="#FEFFFE"/>
</g>
<defs>
<clipPath id="clip0_108_161">
<rect width="220" height="220" fill="white"/>
</clipPath>
</defs>
</svg>
