<svg width="220" height="220" viewBox="0 0 220 220" fill="none" xmlns="http://www.w3.org/2000/svg">
<g clip-path="url(#clip0_108_164)">
<path d="M110 220C170.751 220 220 170.751 220 110C220 49.2487 170.751 0 110 0C49.2487 0 0 49.2487 0 110C0 170.751 49.2487 220 110 220Z" fill="#C9A35E"/>
<path d="M68.9356 133.237C68.7268 133.669 68.4007 134.034 67.9947 134.289C67.5887 134.544 67.119 134.68 66.6394 134.681H38.6375C38.1991 134.678 37.7689 134.561 37.3893 134.342C37.0096 134.123 36.6935 133.808 36.4719 133.43C36.2355 133.048 36.1047 132.61 36.0926 132.161C36.0805 131.711 36.1877 131.267 36.4031 130.872L87.3056 39.1188C88.22 37.4756 90.8463 37.4756 91.7607 39.1188L131.443 110.468C131.642 110.867 131.74 111.309 131.728 111.755C131.716 112.201 131.595 112.637 131.374 113.025C131.164 113.413 130.85 113.735 130.468 113.954C130.086 114.174 129.65 114.283 129.209 114.269H117.604C117.151 114.263 116.708 114.139 116.318 113.91C115.928 113.681 115.603 113.355 115.376 112.963L89.595 66.0756L60.7475 119.391H71.7613C72.1911 119.394 72.6136 119.503 72.9914 119.708C73.3692 119.913 73.6905 120.208 73.9269 120.567C74.1566 120.938 74.2891 121.362 74.3119 121.798C74.3347 122.234 74.2472 122.669 74.0575 123.062L68.9425 133.224L68.9356 133.237ZM183.569 130.872C183.8 131.262 183.915 131.709 183.903 132.161C183.891 132.614 183.751 133.053 183.501 133.43C183.291 133.817 182.978 134.138 182.597 134.357C182.216 134.577 181.782 134.687 181.342 134.674H104.94C104.262 134.674 103.611 134.405 103.132 133.925C102.652 133.446 102.383 132.795 102.383 132.117V121.963C102.383 120.519 103.558 119.405 104.94 119.405H159.308L130.515 66.275L125.07 77.1581C124.156 78.8631 121.337 78.8631 120.484 77.1581L115.369 66.9969C115.207 66.6359 115.123 66.2446 115.123 65.8488C115.123 65.4529 115.207 65.0616 115.369 64.7006L128.088 39.1944C128.31 38.7926 128.632 38.4546 129.022 38.2127C129.412 37.9707 129.857 37.8329 130.316 37.8125C130.779 37.8135 131.233 37.9343 131.636 38.1632C132.038 38.3921 132.374 38.7213 132.612 39.1188L183.569 130.872ZM150.453 141.034L163.103 163.989C163.328 164.378 163.447 164.819 163.447 165.268C163.447 165.717 163.328 166.159 163.103 166.547C162.893 166.934 162.58 167.255 162.199 167.474C161.818 167.694 161.383 167.804 160.944 167.791H59.0356C58.582 167.786 58.1375 167.662 57.7459 167.433C57.3542 167.204 57.0287 166.878 56.8013 166.485C56.5845 166.09 56.4766 165.644 56.4887 165.194C56.5008 164.743 56.6324 164.304 56.87 163.921L77.2613 130.804L97.5906 95.1912C98.0513 94.3456 98.9657 93.8162 99.8869 93.885C100.352 93.8734 100.811 93.9971 101.208 94.2412C101.605 94.4853 101.922 94.8392 102.121 95.26L107.236 105.428C107.436 105.804 107.534 106.225 107.522 106.651C107.51 107.076 107.388 107.491 107.168 107.855L81.3313 152.446H138.648L133.334 143.591C133.083 143.215 132.943 142.775 132.931 142.322C132.919 141.87 133.035 141.423 133.265 141.034C133.492 140.641 133.818 140.314 134.21 140.085C134.601 139.856 135.046 139.733 135.499 139.727H148.218C149.139 139.727 149.992 140.25 150.453 141.034Z" fill="white"/>
</g>
<defs>
<clipPath id="clip0_108_164">
<rect width="220" height="220" fill="white"/>
</clipPath>
</defs>
</svg>
