<svg width="220" height="220" viewBox="0 0 220 220" fill="none" xmlns="http://www.w3.org/2000/svg">
<g clip-path="url(#clip0_108_165)">
<path d="M110 220C170.751 220 220 170.751 220 110C220 49.2487 170.751 0 110 0C49.2487 0 0 49.2487 0 110C0 170.751 49.2487 220 110 220Z" fill="#F68922"/>
<path d="M114.95 69.2849C114.95 69.2849 86.5769 73.4511 82.445 104.987C82.445 104.987 78.0588 140.283 114.125 149.812C116.623 150.468 119.195 150.798 121.777 150.795H123.551C127.222 150.795 130.742 152.266 133.341 154.879C135.939 157.491 137.397 161.039 137.397 164.737C137.422 168.238 136.119 171.619 133.752 174.198C131.384 176.777 128.127 178.364 124.637 178.639C106.906 179.835 83.1119 171.131 67.6706 150.204C67.6706 150.204 37.4275 106.719 70.3863 66.7617C78.164 57.2627 88.3052 49.9787 99.7906 45.6417C113.334 40.5749 133.176 37.3161 150.398 50.8392C150.398 50.8392 173.449 68.6936 161.631 97.8436C161.631 97.8436 153.354 121.047 124.988 122.834L121.048 122.614C119.182 122.565 117.348 122.115 115.671 121.296C113.994 120.476 112.512 119.306 111.327 117.864C110.136 116.415 109.267 114.73 108.777 112.92C108.288 111.11 108.189 109.217 108.488 107.365C108.964 104.36 110.472 101.615 112.753 99.601C115.034 97.5873 117.945 96.431 120.986 96.3311L124.988 96.0561C124.988 96.0561 138.579 95.4649 137.397 79.398C137.397 79.398 136.214 65.1186 114.943 69.2917" fill="white"/>
</g>
<defs>
<clipPath id="clip0_108_165">
<rect width="220" height="220" fill="white"/>
</clipPath>
</defs>
</svg>
