<svg width="220" height="220" viewBox="0 0 220 220" fill="none" xmlns="http://www.w3.org/2000/svg">
<g clip-path="url(#clip0_108_166)">
<path d="M110 220C170.751 220 220 170.751 220 110C220 49.2487 170.751 0 110 0C49.2487 0 0 49.2487 0 110C0 170.751 49.2487 220 110 220Z" fill="#328332"/>
<path d="M109.924 113.802L63.7175 109.835L109.917 83.6962V113.802H109.924ZM109.924 144.464V192.177C93.8575 167.166 76.1475 139.638 61.875 117.356C78.7188 126.844 96.305 136.764 109.924 144.471V144.464ZM109.924 75.2469L61.875 102.059L109.924 27.5V75.2469Z" fill="white"/>
<path d="M156.131 109.835L109.925 113.802V83.6962L156.125 109.835H156.131ZM109.925 144.471C123.537 136.771 141.116 126.844 157.967 117.356C143.695 139.645 125.985 167.173 109.925 192.17V144.471ZM109.925 75.2469V27.5L157.967 102.059L109.925 75.2469Z" fill="white" fill-opacity="0.601"/>
<path opacity="0.2" fill-rule="evenodd" clip-rule="evenodd" d="M109.925 113.802L156.125 109.835L109.925 135.789V113.802Z" fill="white"/>
<path opacity="0.603" fill-rule="evenodd" clip-rule="evenodd" d="M109.917 113.802L63.7104 109.835L109.917 135.789V113.802Z" fill="white"/>
</g>
<defs>
<clipPath id="clip0_108_166">
<rect width="220" height="220" fill="white"/>
</clipPath>
</defs>
</svg>
