<svg width="220" height="220" viewBox="0 0 220 220" fill="none" xmlns="http://www.w3.org/2000/svg">
<g clip-path="url(#clip0_108_168)">
<path d="M110 220C170.751 220 220 170.751 220 110C220 49.2487 170.751 0 110 0C49.2487 0 0 49.2487 0 110C0 170.751 49.2487 220 110 220Z" fill="#00FFBA"/>
<path d="M74.7381 74.9639C72.8502 76.8959 71.6865 79.42 71.4436 82.1103C71.2006 84.8006 71.8931 87.4924 73.4043 89.7314C74.4729 91.3394 75.9246 92.6564 77.6288 93.5638C79.333 94.4711 81.2362 94.9402 83.1668 94.9289C87.1573 94.9298 90.9839 96.5159 93.8049 99.3382C96.6259 102.16 98.2103 105.988 98.2093 109.978C98.2084 113.969 96.6224 117.795 93.8001 120.616C90.9778 123.437 87.1504 125.022 83.16 125.021C74.8595 125.024 66.7456 122.558 59.8504 117.937C52.9552 113.316 47.5902 106.749 44.4379 99.07C41.2855 91.3914 40.4882 82.9487 42.1474 74.8158C43.8066 66.6828 47.8473 59.2271 53.7556 53.397C61.1568 46.0762 71.022 41.7785 81.4231 41.3437C91.8241 40.9089 102.014 44.3683 110 51.0458C105.3 54.9756 101.52 59.8899 98.9274 65.4413C96.3352 70.9928 94.9941 77.0458 94.9987 83.1726C94.9968 87.1479 96.5686 90.9623 99.3705 93.7823C102.172 96.6022 105.977 98.1984 109.952 98.222C107.976 98.222 106.019 97.8327 104.194 97.0763C102.368 96.3199 100.71 95.2113 99.3128 93.8137C97.9158 92.4162 96.808 90.7571 96.0524 88.9313C95.2969 87.1054 94.9084 85.1486 94.9094 83.1726C94.9209 80.8333 94.226 78.5449 92.9156 76.607C91.6355 74.7122 89.8355 73.2273 87.7318 72.3308C86.2838 71.7249 84.7297 71.4129 83.16 71.4129C81.5903 71.4129 80.0362 71.7249 78.5881 72.3308C77.1421 72.9432 75.8332 73.8384 74.7381 74.9639ZM175.388 120.531C178.585 128.111 179.481 136.464 177.962 144.549C176.444 152.634 172.579 160.093 166.849 165.996C161.048 171.973 153.595 176.083 145.444 177.797C137.293 179.512 128.815 178.754 121.098 175.62C113.38 172.487 106.774 167.12 102.125 160.209C97.4766 153.297 94.9975 145.155 95.0056 136.825C94.9628 134.823 95.3201 132.833 96.0567 130.971C96.7932 129.109 97.8942 127.412 99.2949 125.981C100.696 124.55 102.368 123.413 104.214 122.637C106.06 121.861 108.042 121.461 110.045 121.461C112.047 121.461 114.029 121.861 115.875 122.637C117.721 123.413 119.394 124.55 120.794 125.981C122.195 127.412 123.296 129.109 124.033 130.971C124.769 132.833 125.127 134.823 125.084 136.825C125.072 139.141 125.749 141.407 127.028 143.338C128.308 145.268 130.131 146.775 132.268 147.667C135.224 148.905 138.545 148.891 141.487 147.633C144.301 146.414 146.531 144.152 147.709 141.321C148.884 138.451 148.882 135.234 147.704 132.365C146.525 129.496 144.265 127.206 141.412 125.99C139.966 125.378 138.41 125.065 136.84 125.069C132.85 125.069 129.023 123.484 126.201 120.662C123.379 117.84 121.794 114.013 121.794 110.023C121.794 106.033 123.379 102.206 126.201 99.3839C129.023 96.5622 132.85 94.977 136.84 94.977C145.066 94.9725 153.11 97.3947 159.965 101.94C166.821 106.486 172.183 112.953 175.381 120.531H175.388Z" fill="white"/>
<path opacity="0.7" d="M109.959 121.781C118.264 121.781 125.001 128.519 125.001 136.824C125.007 145.166 122.518 153.32 117.854 160.237C113.19 167.155 106.565 172.52 98.8289 175.643C91.093 178.766 82.5999 179.505 74.4407 177.765C66.2816 176.025 58.829 171.885 53.0406 165.877C47.3388 159.967 43.5022 152.509 42.0089 144.433C40.5156 136.357 41.4315 128.02 44.6426 120.462C47.8536 112.903 53.2179 106.456 60.067 101.924C66.9161 97.3918 74.9473 94.9754 83.16 94.9755C87.1504 94.9755 90.9774 96.5607 93.799 99.3824C96.6207 102.204 98.2059 106.031 98.2059 110.021C98.2059 114.012 96.6207 117.839 93.799 120.661C90.9774 123.482 87.1504 125.067 83.16 125.067C80.8225 125.06 78.54 125.755 76.6012 127.061C74.7051 128.343 73.22 130.145 72.325 132.252C71.4309 134.374 71.1798 136.712 71.6027 138.975C72.0255 141.239 73.1038 143.328 74.7037 144.984V144.998C76.6197 146.987 79.1762 148.237 81.923 148.526C84.6697 148.815 87.4304 148.126 89.7187 146.579C91.3224 145.507 92.6358 144.054 93.5415 142.351C94.4472 140.647 94.9171 138.746 94.9093 136.817C94.9093 128.519 101.647 121.781 109.959 121.781ZM174.075 64.0586C177.346 70.44 178.923 77.5546 178.656 84.7205C178.388 91.8864 176.284 98.8635 172.546 104.983C168.808 111.103 163.561 116.159 157.307 119.669C151.054 123.179 144.004 125.023 136.833 125.026C132.842 125.026 129.014 123.441 126.192 120.618C123.369 117.796 121.784 113.968 121.784 109.977C121.784 105.985 123.369 102.158 126.192 99.3352C129.014 96.5129 132.842 94.9274 136.833 94.9274C139.147 94.9295 141.409 94.249 143.338 92.971C145.267 91.6931 146.775 89.8745 147.675 87.743C148.336 86.1603 148.646 84.4526 148.582 82.7384C148.518 81.0242 148.082 79.3444 147.304 77.8155C146.551 76.3318 145.491 75.0253 144.194 73.9829C142.897 72.9405 141.394 72.1861 139.783 71.7699C138.172 71.3537 136.491 71.2852 134.851 71.5689C133.212 71.8526 131.652 72.4821 130.274 73.4155C128.668 74.4863 127.353 75.9385 126.446 77.6422C125.539 79.3459 125.069 81.2479 125.077 83.178C125.119 85.18 124.761 87.1703 124.024 89.0323C123.287 90.8942 122.186 92.5902 120.785 94.0209C119.384 95.4516 117.711 96.5882 115.865 97.3639C114.019 98.1397 112.037 98.5391 110.034 98.5386C108.032 98.5382 106.05 98.1379 104.204 97.3613C102.358 96.5847 100.686 95.4473 99.2856 94.016C97.8851 92.5847 96.7846 90.8881 96.0485 89.0259C95.3123 87.1636 94.9554 85.1731 94.9987 83.1711C94.9939 75.4136 97.1461 67.8075 101.215 61.2027C105.284 54.5979 111.109 49.2545 118.04 45.7695C124.97 42.2846 132.733 40.7954 140.462 41.4682C148.19 42.1411 155.579 44.9496 161.803 49.5799L161.831 49.6005C166.958 53.4241 171.144 58.3695 174.068 64.0586H174.075Z" fill="white"/>
</g>
<defs>
<clipPath id="clip0_108_168">
<rect width="220" height="220" fill="white"/>
</clipPath>
</defs>
</svg>
