<svg width="220" height="220" viewBox="0 0 220 220" fill="none" xmlns="http://www.w3.org/2000/svg">
<g clip-path="url(#clip0_108_169)">
<path d="M110 220C170.751 220 220 170.751 220 110C220 49.2487 170.751 0 110 0C49.2487 0 0 49.2487 0 110C0 170.751 49.2487 220 110 220Z" fill="#23BEE2"/>
<path d="M136.668 92.5994L158.936 69.1419C168.52 80.5841 173.762 95.0399 173.738 109.966C173.738 145.145 145.207 173.669 110 173.669C99.2585 173.682 88.6894 170.969 79.2825 165.784L135.919 136.592L145.145 131.835L136.599 125.929L130.494 121.708L148.301 112.619L157.156 108.096L149.222 102.101L136.668 92.5994ZM83.3319 130.646L62.5694 152.508C52.0535 140.836 46.2426 125.676 46.2619 109.966C46.2619 74.7794 74.7931 46.255 110 46.255C121.927 46.2389 133.616 49.5843 143.729 55.9075L84.0813 86.6525L74.855 91.4169L83.4006 97.3156L89.5056 101.537L71.6994 110.632L62.8444 115.149L70.7781 121.151L83.3319 130.646ZM58.685 156.612L54.3881 161.136C41.5085 147.21 34.3609 128.935 34.375 109.966C34.375 68.2825 68.3031 34.375 110 34.375C127.139 34.375 142.973 40.1087 155.671 49.7544L149.469 52.9513C137.884 44.8982 124.109 40.5889 110 40.6038C71.7406 40.6038 40.6106 71.72 40.6106 109.966C40.6106 127.909 47.4581 144.279 58.6919 156.606L58.685 156.612ZM162.828 65.0375L167.145 60.5C179.079 74.2145 185.643 91.786 185.625 109.966C185.625 151.642 151.697 185.549 110 185.549C94.6345 185.567 79.632 180.879 67.0106 172.116L73.3631 168.836C84.3491 175.701 97.0456 179.334 110 179.321C148.259 179.321 179.389 148.204 179.389 109.966C179.389 92.8469 173.154 77.1581 162.828 65.0444V65.0375ZM74.5388 116.187L101.633 102.348L86.9413 92.2006L168.273 50.2769L127.346 93.3694L145.461 107.071L118.367 120.911L133.059 131.058L51.7275 172.982L92.6544 129.889L74.5388 116.187Z" fill="white"/>
</g>
<defs>
<clipPath id="clip0_108_169">
<rect width="220" height="220" fill="white"/>
</clipPath>
</defs>
</svg>
