<svg width="220" height="220" viewBox="0 0 220 220" fill="none" xmlns="http://www.w3.org/2000/svg">
<g clip-path="url(#clip0_108_170)">
<path d="M110 220C170.751 220 220 170.751 220 110C220 49.2487 170.751 0 110 0C49.2487 0 0 49.2487 0 110C0 170.751 49.2487 220 110 220Z" fill="#00A5FF"/>
<path fill-rule="evenodd" clip-rule="evenodd" d="M124.3 86.4464C124.279 92.5858 124.238 98.7183 124.231 104.851C124.224 115.053 124.211 125.263 124.259 135.465C124.259 136.703 123.915 137.438 122.836 138.091C118.642 140.615 114.517 143.248 110.089 146.018V143.784C110.089 127.992 110.069 112.193 110.117 96.4014C110.124 95.0883 109.773 94.3458 108.591 93.7064C104.912 91.7127 101.317 89.5677 97.6869 87.4914C97.2881 87.2646 96.8619 87.0789 96.25 86.7764V88.9421C96.25 103.098 96.2225 117.253 96.2912 131.402C96.2912 132.825 95.8375 133.568 94.6412 134.235C91.0319 136.228 87.505 138.36 83.9369 140.436C83.435 140.725 82.9056 140.979 82.1081 141.398V139.198C82.1081 124.981 82.0737 110.763 82.1562 96.5527C82.1631 94.9027 81.6062 94.0777 80.2312 93.3214C76.2162 91.0802 72.2769 88.7014 68.1037 86.2608C72.7237 83.6002 77.165 81.0152 81.6544 78.5333C82.0669 78.3064 82.9262 78.6021 83.4419 78.8977C87.3537 81.0977 91.2519 83.3183 95.1087 85.6077C96.0437 86.1577 96.7244 86.2264 97.7006 85.6283C101.262 83.4489 104.947 81.4483 108.494 79.2346C109.773 78.4371 110.694 78.5677 111.911 79.2964C116.016 81.7508 120.189 84.1089 124.341 86.4946L124.3 86.4464ZM124.341 86.4946C124.644 86.1783 124.905 85.7727 125.269 85.5596C129.14 83.3046 133.011 81.0358 136.95 78.9046C137.331 78.7381 137.743 78.6539 138.159 78.6574C138.575 78.661 138.985 78.7522 139.363 78.9252C143.364 81.0771 147.311 83.3321 151.209 85.6558C151.745 85.9721 152.281 86.8108 152.281 87.4089C152.343 102.28 152.336 117.157 152.309 132.028C152.309 132.509 152.185 133.265 151.862 133.458C147.407 136.111 142.904 138.69 138.126 141.453V139.191C138.126 124.864 138.112 110.536 138.153 96.2158C138.153 94.9989 137.864 94.2633 136.723 93.6377C132.543 91.3139 128.432 88.8527 124.3 86.4464L124.341 86.4946ZM47.7056 129.168C46.4172 129.183 45.1384 128.944 43.9428 128.463C42.7472 127.983 41.6584 127.271 40.739 126.368C39.8196 125.465 39.0877 124.389 38.5855 123.203C38.0833 122.016 37.8205 120.742 37.8125 119.453C37.7998 118.164 38.0429 116.884 38.5279 115.689C39.0129 114.494 39.7301 113.407 40.638 112.49C41.5459 111.574 42.6265 110.847 43.8172 110.351C45.0079 109.855 46.2851 109.6 47.575 109.601C48.8647 109.582 50.1453 109.82 51.3426 110.299C52.5399 110.779 53.63 111.492 54.5497 112.396C55.4694 113.3 56.2004 114.378 56.7001 115.567C57.1999 116.756 57.4586 118.033 57.4612 119.323C57.4758 120.612 57.2341 121.891 56.7501 123.087C56.2661 124.282 55.5495 125.369 54.6419 126.285C53.7342 127.201 52.6537 127.927 51.463 128.422C50.2722 128.917 48.9951 129.171 47.7056 129.168ZM60.8712 158.641C58.4209 158.661 56.0622 157.711 54.3103 155.997C52.5584 154.284 51.5557 151.947 51.5212 149.497C51.5153 147.046 52.4713 144.691 54.1837 142.937C55.8961 141.183 58.2283 140.172 60.6787 140.12C65.6631 140.01 69.9737 144.245 70.0287 149.311C70.0471 151.762 69.0936 154.119 67.3772 155.868C65.6608 157.616 63.3213 158.614 60.8712 158.641ZM53.3981 78.3683C58.3481 78.3821 62.3219 82.3558 62.3219 87.2714C62.3219 92.2696 58.2519 96.2914 53.2469 96.2364C52.0765 96.2285 50.9193 95.9879 49.8428 95.5286C48.7662 95.0694 47.7917 94.4006 46.976 93.5612C46.1603 92.7219 45.5197 91.7286 45.0914 90.6394C44.6631 89.5501 44.4557 88.3866 44.4812 87.2164C44.47 86.0456 44.6935 84.8843 45.1386 83.8012C45.5836 82.7182 46.2411 81.7352 47.0723 80.9105C47.9034 80.0857 48.8914 79.4358 49.9779 78.9992C51.0644 78.5626 52.2274 78.3481 53.3981 78.3683ZM173.862 112.097C171.646 112.097 169.522 111.217 167.955 109.65C166.389 108.084 165.509 105.959 165.509 103.744C165.509 101.529 166.389 99.4039 167.955 97.8374C169.522 96.2709 171.646 95.3908 173.862 95.3908C176.077 95.3908 178.202 96.2709 179.768 97.8374C181.335 99.4039 182.215 101.529 182.215 103.744C182.215 105.959 181.335 108.084 179.768 109.65C178.202 111.217 176.077 112.097 173.862 112.097ZM65.6012 59.2421C65.5864 58.24 65.7728 57.2452 66.1492 56.3164C66.5257 55.3876 67.0846 54.5438 67.7929 53.8349C68.5012 53.1259 69.3445 52.5662 70.273 52.1889C71.2014 51.8116 72.1961 51.6244 73.1981 51.6383C74.2009 51.6373 75.1938 51.8356 76.1193 52.2216C77.0448 52.6076 77.8844 53.1736 78.5893 53.8868C79.2941 54.6 79.8503 55.4462 80.2254 56.3761C80.6005 57.3061 80.7871 58.3013 80.7744 59.3039C80.778 60.3058 80.5829 61.2985 80.2004 62.2245C79.8178 63.1504 79.2554 63.9914 78.5457 64.6985C77.836 65.4057 76.993 65.9651 76.0657 66.3443C75.1383 66.7235 74.145 66.915 73.1431 66.9077C72.1409 66.9125 71.1478 66.7166 70.2225 66.3315C69.2972 65.9464 68.4583 65.3799 67.7554 64.6655C67.0525 63.9511 66.4998 63.1031 66.1298 62.1717C65.7598 61.2402 65.5801 60.2441 65.6012 59.2421ZM169.372 143.756C168.371 143.778 167.375 143.597 166.445 143.226C165.514 142.855 164.668 142.3 163.956 141.596C163.244 140.891 162.681 140.05 162.301 139.123C161.92 138.196 161.73 137.203 161.741 136.201C161.727 135.199 161.91 134.204 162.281 133.274C162.652 132.343 163.203 131.495 163.902 130.777C164.601 130.06 165.436 129.488 166.357 129.094C167.278 128.699 168.268 128.491 169.269 128.48C170.271 128.477 171.263 128.672 172.189 129.053C173.115 129.435 173.957 129.995 174.667 130.702C175.376 131.408 175.939 132.248 176.324 133.173C176.708 134.098 176.907 135.089 176.907 136.091C176.932 137.093 176.755 138.09 176.387 139.023C176.019 139.956 175.467 140.805 174.764 141.52C174.061 142.235 173.222 142.802 172.295 143.186C171.369 143.57 170.375 143.764 169.372 143.756ZM109.904 47.1283C109.902 47.8852 109.747 48.6338 109.448 49.3294C109.15 50.025 108.714 50.6532 108.167 51.1764C107.62 51.6996 106.974 52.107 106.265 52.3742C105.557 52.6414 104.802 52.7629 104.046 52.7314C103.289 52.7176 102.543 52.552 101.851 52.2445C101.16 51.937 100.537 51.4938 100.019 50.9412C99.502 50.3886 99.1008 49.7378 98.8395 49.0274C98.5782 48.317 98.4621 47.5613 98.4981 46.8052C98.5465 45.3085 99.1785 43.8902 100.259 42.8534C101.339 41.8167 102.783 41.2437 104.28 41.2571C105.038 41.264 105.786 41.4224 106.482 41.723C107.177 42.0236 107.805 42.4603 108.329 43.0075C108.853 43.5546 109.263 44.201 109.533 44.9088C109.803 45.6165 109.929 46.3711 109.904 47.1283ZM149.579 167.455C148.835 167.458 148.098 167.314 147.41 167.029C146.722 166.744 146.099 166.325 145.575 165.796C145.051 165.267 144.638 164.639 144.36 163.949C144.082 163.259 143.945 162.52 143.956 161.776C143.952 161.015 144.101 160.262 144.395 159.56C144.688 158.858 145.121 158.223 145.666 157.692C146.21 157.162 146.857 156.746 147.566 156.471C148.275 156.196 149.032 156.066 149.792 156.09C152.955 156.131 155.43 158.634 155.416 161.796C155.416 165.041 152.886 167.482 149.579 167.455ZM120.154 178.75C119.44 178.765 118.731 178.635 118.068 178.368C117.406 178.101 116.805 177.702 116.302 177.195C115.798 176.688 115.403 176.085 115.14 175.421C114.877 174.757 114.752 174.047 114.771 173.333C114.768 172.617 114.908 171.909 115.183 171.248C115.457 170.588 115.861 169.988 116.37 169.486C116.879 168.983 117.483 168.587 118.147 168.321C118.811 168.055 119.522 167.924 120.237 167.936C121.68 167.952 123.059 168.535 124.076 169.559C125.094 170.582 125.668 171.965 125.675 173.408C125.673 174.125 125.528 174.833 125.248 175.492C124.968 176.152 124.558 176.748 124.044 177.246C123.529 177.744 122.919 178.134 122.251 178.392C121.583 178.65 120.87 178.772 120.154 178.75ZM138.222 56.9046C136.927 56.8973 135.689 56.376 134.778 55.4554C133.868 54.5349 133.361 53.2904 133.368 51.9958C133.375 50.7012 133.897 49.4626 134.817 48.5523C135.738 47.642 136.982 47.1348 138.277 47.1421C140.917 47.1558 143.158 49.4177 143.151 52.0508C143.118 53.3405 142.585 54.5669 141.666 55.4721C140.746 56.3773 139.512 56.8908 138.222 56.9046ZM93.2731 168.843C93.2715 169.405 93.1574 169.961 92.9374 170.478C92.7174 170.995 92.3961 171.463 91.9924 171.854C91.5887 172.245 91.1108 172.551 90.5868 172.754C90.0629 172.957 89.5036 173.054 88.9419 173.037C88.3793 173.037 87.8227 172.922 87.3056 172.701C86.7884 172.48 86.3214 172.156 85.9328 171.749C85.5441 171.343 85.2418 170.862 85.0441 170.335C84.8464 169.808 84.7574 169.247 84.7825 168.685C84.7897 168.125 84.9073 167.571 85.1286 167.057C85.3499 166.542 85.6705 166.075 86.0722 165.685C86.4738 165.294 86.9486 164.986 87.4693 164.779C87.9901 164.572 88.5465 164.47 89.1069 164.478C89.6673 164.49 90.2197 164.613 90.7325 164.839C91.2454 165.066 91.7085 165.391 92.0955 165.796C92.4825 166.202 92.7857 166.68 92.9878 167.203C93.1899 167.725 93.2868 168.283 93.2731 168.843ZM166.581 72.7377C166.601 73.2226 166.525 73.7066 166.356 74.1617C166.188 74.6167 165.93 75.0336 165.599 75.3881C165.267 75.7426 164.868 76.0276 164.426 76.2264C163.983 76.4253 163.505 76.5341 163.02 76.5464C162.043 76.5631 161.099 76.1932 160.393 75.5172C159.688 74.8412 159.278 73.9139 159.252 72.9371C159.233 72.4526 159.311 71.9692 159.481 71.5152C159.651 71.0613 159.911 70.6459 160.244 70.2936C160.577 69.9413 160.977 69.6592 161.421 69.4638C161.864 69.2684 162.343 69.1637 162.827 69.1558C164.883 69.0871 166.54 70.6752 166.581 72.7446V72.7377Z" fill="white"/>
</g>
<defs>
<clipPath id="clip0_108_170">
<rect width="220" height="220" fill="white"/>
</clipPath>
</defs>
</svg>
