<svg width="220" height="220" viewBox="0 0 220 220" fill="none" xmlns="http://www.w3.org/2000/svg">
<g clip-path="url(#clip0_108_6)">
<path d="M220 110C220 131.756 213.549 153.023 201.462 171.113C189.375 189.202 172.195 203.301 152.095 211.627C131.995 219.952 109.878 222.131 88.5401 217.886C67.2022 213.642 47.6021 203.166 32.2183 187.782C16.8345 172.398 6.35804 152.798 2.11367 131.46C-2.13071 110.122 0.0476608 88.0047 8.3733 67.9048C16.6989 47.805 30.7979 30.6253 48.8873 18.5383C66.9767 6.45139 88.2441 0 110 0C139.174 0 167.153 11.5893 187.782 32.2183C208.411 52.8473 220 80.8262 220 110Z" fill="#003399"/>
<path d="M119.61 67.3301C116.298 67.3117 113.02 67.9933 109.99 69.3301C106.97 70.6585 104.251 72.5876 102 75.0001C99.489 77.6823 97.4321 80.756 95.91 84.1001C94.1492 87.9925 92.86 92.0815 92.07 96.2801H124.56V106.58H91C91 107.34 91 108.06 90.93 108.76C90.86 109.46 90.85 109.99 90.85 110.64V115.31C90.85 116.31 90.9 117.36 91 118.46H120V128.77H92.39C94.0967 137.537 97.2567 144.227 101.87 148.84C106.483 153.453 112.547 155.76 120.06 155.76C123.655 155.779 127.239 155.376 130.74 154.56C134.013 153.802 137.21 152.744 140.29 151.4V163.58C137.265 165.01 134.088 166.094 130.82 166.81C126.941 167.673 122.973 168.072 119 168C113.712 168.087 108.455 167.167 103.51 165.29C99.0298 163.507 94.9503 160.849 91.51 157.47C88.0284 153.879 85.2024 149.706 83.16 145.14C80.8388 139.907 79.1954 134.399 78.27 128.75H66V118.46H77.13C77.03 117.313 76.98 116.363 76.98 115.61V112.3C76.98 111.2 76.98 110.07 77.05 108.92C77.12 107.77 77.13 106.99 77.13 106.58H66V96.2801H78C78.787 90.4307 80.3543 84.7132 82.66 79.2801C84.6843 74.5037 87.5081 70.1074 91.01 66.2801C94.386 62.6928 98.473 59.8489 103.01 57.9301C107.942 55.9124 113.232 54.9157 118.56 55.0001C123.05 54.9531 127.527 55.508 131.87 56.6501C136.111 57.7978 140.156 59.5742 143.87 61.9201L137.87 72.9201C135.214 71.3175 132.395 70.0034 129.46 69.0001C126.304 67.8534 122.967 67.2876 119.61 67.3301Z" fill="white"/>
</g>
<defs>
<clipPath id="clip0_108_6">
<rect width="220" height="220" fill="white"/>
</clipPath>
</defs>
</svg>
