<svg width="220" height="220" viewBox="0 0 220 220" fill="none" xmlns="http://www.w3.org/2000/svg">
<g clip-path="url(#clip0_108_171)">
<path d="M110 220C170.751 220 220 170.751 220 110C220 49.2487 170.751 0 110 0C49.2487 0 0 49.2487 0 110C0 170.751 49.2487 220 110 220Z" fill="#0F8FF8"/>
<path fill-rule="evenodd" clip-rule="evenodd" d="M55 130.652L60.5688 116.875H66.4606C66.308 114.518 66.23 112.156 66.2269 109.794C66.2269 106.714 66.3575 103.854 66.6119 101.2H55L60.5688 87.4294H69.3275C77.4812 61.2287 95.865 48.125 124.458 48.125C133.856 48.125 142.787 49.3419 151.25 51.7825V69.135C143.285 65.5759 134.653 63.7571 125.929 63.8C108.79 63.8 97.7694 71.6788 92.8606 87.4363H143.894L138.325 101.207H89.5331C89.241 103.475 89.1123 105.761 89.1481 108.047C89.1481 111.341 89.2513 114.283 89.4575 116.882H131.966L126.466 130.652H92.4C96.0644 140.202 100.533 146.843 105.799 150.59C111.059 154.33 118.573 156.2 128.329 156.2C135.3 156.2 142.938 154.502 151.25 151.106V167.42C143.351 170.39 133.959 171.875 123.062 171.875C94.4144 171.875 76.2919 158.132 68.7088 130.652H55Z" fill="white"/>
</g>
<defs>
<clipPath id="clip0_108_171">
<rect width="220" height="220" fill="white"/>
</clipPath>
</defs>
</svg>
