<svg width="220" height="220" viewBox="0 0 220 220" fill="none" xmlns="http://www.w3.org/2000/svg">
<g clip-path="url(#clip0_108_172)">
<path d="M110 220C170.751 220 220 170.751 220 110C220 49.2487 170.751 0 110 0C49.2487 0 0 49.2487 0 110C0 170.751 49.2487 220 110 220Z" fill="#044AAC"/>
<path fill-rule="evenodd" clip-rule="evenodd" d="M69.3138 118.319L51.3151 136.331L42.8588 144.787C37.2708 134.044 34.3604 122.11 34.3751 110C34.3751 68.3031 68.3032 34.375 110 34.375C151.697 34.375 185.625 68.3031 185.625 110C185.625 151.697 151.697 185.625 110 185.625C93.8713 185.625 78.9113 180.544 66.6188 171.909C63.5174 169.732 60.5828 167.326 57.8394 164.711L65.8282 156.716L123.695 98.8488C123.921 96.0602 125.188 93.4586 127.244 91.5608C129.299 89.6631 131.994 88.6079 134.791 88.605C137.547 88.6077 140.204 89.6318 142.248 91.4794C144.292 93.327 145.579 95.8669 145.86 98.6081L172.494 125.242C173.71 120.253 174.324 115.135 174.323 110C174.323 74.525 145.468 45.6775 110 45.6775C74.5319 45.6775 45.6776 74.525 45.6776 110C45.6776 114.936 46.2344 119.742 47.2932 124.362L64.3982 107.25C64.8165 104.635 66.1526 102.254 68.1671 100.534C70.1815 98.8143 72.7426 97.8683 75.3913 97.8656C78.0023 97.8681 80.5294 98.7879 82.5312 100.464C84.533 102.141 85.8822 104.467 86.3432 107.037L97.2263 117.913L89.2307 125.902L81.5719 118.243C79.7627 119.461 77.6341 120.117 75.4533 120.129C73.2724 120.142 71.1365 119.509 69.3138 118.312V118.319ZM129.188 109.34L74.7519 163.776C85.2144 170.669 97.4712 174.336 110 174.323C135.802 174.323 158.104 159.053 168.341 137.074L140.532 109.257C138.825 110.294 136.869 110.849 134.871 110.864C132.874 110.878 130.91 110.352 129.188 109.34ZM134.991 94.7925C134.318 94.7685 133.648 94.8803 133.02 95.1213C132.391 95.3623 131.818 95.7275 131.334 96.1951C130.85 96.6627 130.466 97.223 130.203 97.8426C129.941 98.4622 129.806 99.1283 129.807 99.8012C129.808 100.474 129.945 101.14 130.209 101.759C130.473 102.378 130.859 102.937 131.344 103.403C131.829 103.869 132.404 104.233 133.032 104.472C133.661 104.711 134.332 104.821 135.004 104.796C136.299 104.746 137.523 104.196 138.421 103.262C139.318 102.328 139.819 101.083 139.817 99.7874C139.815 98.4921 139.312 97.2479 138.411 96.3164C137.511 95.3849 136.285 94.8387 134.991 94.7925ZM75.4532 103.916C74.1258 103.916 72.8527 104.443 71.9141 105.382C70.9755 106.32 70.4482 107.593 70.4482 108.921C70.4482 110.248 70.9755 111.521 71.9141 112.46C72.8527 113.398 74.1258 113.926 75.4532 113.926C76.7806 113.926 78.0536 113.398 78.9922 112.46C79.9309 111.521 80.4582 110.248 80.4582 108.921C80.4582 107.593 79.9309 106.32 78.9922 105.382C78.0536 104.443 76.7806 103.916 75.4532 103.916Z" fill="white"/>
</g>
<defs>
<clipPath id="clip0_108_172">
<rect width="220" height="220" fill="white"/>
</clipPath>
</defs>
</svg>
