<svg width="220" height="220" viewBox="0 0 220 220" fill="none" xmlns="http://www.w3.org/2000/svg">
<g clip-path="url(#clip0_108_173)">
<path d="M110 220C170.751 220 220 170.751 220 110C220 49.2487 170.751 0 110 0C49.2487 0 0 49.2487 0 110C0 170.751 49.2487 220 110 220Z" fill="#347FFB"/>
<path fill-rule="evenodd" clip-rule="evenodd" d="M135.438 89.7531L115.713 143.034L115.589 143.357L111.973 136.104L104.411 139.542L124.245 85.9375L131.808 82.5L135.431 89.7531H135.438ZM184.8 91.0112L165.082 144.375L161.459 137.101L153.897 140.539L154.357 139.288L174.068 85.9375L181.631 82.5L185.24 89.7531L184.8 91.0112ZM142.588 137.156L154.199 105.786L146.616 109.223L143.014 101.956L131.368 133.32L134.977 140.594L142.588 137.156ZM79.7706 106.219H45.0863L50.9988 111.719L45.0863 117.308H79.7362L85.6213 111.719L79.7706 106.219ZM40.2875 129.477H96.3531L90.4613 135.025L96.3531 140.559H40.2875L34.375 135.025L40.2875 129.47V129.477ZM57.4819 82.9469H113.513L107.642 88.5019L113.52 94.0363H57.4888L51.5762 88.495L57.4888 82.9469H57.4819Z" fill="white"/>
</g>
<defs>
<clipPath id="clip0_108_173">
<rect width="220" height="220" fill="white"/>
</clipPath>
</defs>
</svg>
