<svg width="220" height="220" viewBox="0 0 220 220" fill="none" xmlns="http://www.w3.org/2000/svg">
<g clip-path="url(#clip0_108_174)">
<path d="M110 220C170.751 220 220 170.751 220 110C220 49.2487 170.751 0 110 0C49.2487 0 0 49.2487 0 110C0 170.751 49.2487 220 110 220Z" fill="#FFAA5C"/>
<path fill-rule="evenodd" clip-rule="evenodd" d="M178.75 101.179C178.723 101.448 178.681 101.709 178.681 101.977C178.647 110.364 178.613 118.759 178.599 127.153L178.571 144.389C178.571 144.939 178.523 145.489 178.489 146.176C178.186 146.039 177.966 145.949 177.76 145.832L145.764 127.992C145.193 127.676 145.145 127.394 145.42 126.83C150.872 115.637 150.893 104.417 145.523 93.1975C145.269 92.6612 145.317 92.3931 145.867 92.0906L177.877 74.1262C178.145 73.975 178.454 73.8994 178.75 73.7894V101.179ZM112.062 34.375C112.599 34.6981 113.128 35.0419 113.678 35.3513L175.89 70.3106C176.124 70.4412 176.344 70.5856 176.667 70.7781C176.378 70.9637 176.186 71.1012 175.973 71.2181L144.224 88.9487C143.392 89.4094 143.399 89.4025 142.849 88.6188C135.809 78.7531 126.156 73.1156 113.891 71.6856C113.526 71.6401 113.159 71.6171 112.791 71.6169C112.145 71.6169 111.897 71.3694 111.897 70.6887C111.891 63.7244 111.849 56.7531 111.829 49.7888L111.808 35.3581C111.808 35.0281 111.884 34.705 111.925 34.375H112.062ZM107.8 185.625C107.566 185.453 107.353 185.261 107.113 185.123L44.4331 149.889C44.1375 149.724 43.8556 149.545 43.45 149.311C43.725 149.126 43.9037 148.981 44.11 148.864C54.6287 142.986 65.1475 137.115 75.6662 131.223C76.2987 130.866 76.5944 131.003 76.9862 131.546C83.5588 140.663 92.5375 146.052 103.806 147.888C104.954 148.074 106.129 148.163 107.291 148.218C107.951 148.246 108.213 148.424 108.213 149.112C108.206 155.279 108.233 161.446 108.254 167.606L108.288 185.109C108.288 185.281 108.24 185.453 108.213 185.625H107.8ZM41.25 140.594C41.2844 140.388 41.3531 140.174 41.36 139.961L41.3875 131.278L41.4356 111.842L41.525 81.1869L41.5594 74.58C41.5594 74.3875 41.5869 74.195 41.6075 73.8856C41.91 74.03 42.13 74.1194 42.3362 74.2363C52.8 80.08 63.2569 85.9237 73.7344 91.7537C74.3463 92.0906 74.4287 92.3519 74.1262 92.9912C68.6262 104.273 68.6537 115.569 74.1262 126.864C74.5731 127.772 74.5869 127.765 73.6931 128.267C63.1881 134.179 52.6831 140.078 42.1712 145.97C41.9031 146.121 41.5525 146.135 41.25 146.211V140.601V140.594ZM133.877 134.2C134.997 130.261 135.362 126.294 135.114 122.265C134.826 117.329 133.602 112.64 131.031 108.336C128.074 103.373 123.798 99.7769 118.587 97.1644C117.212 96.47 117.061 96.8206 117.879 95.1019C119.728 91.2313 122.966 88.825 126.954 87.285C129.73 86.2724 132.649 85.7017 135.603 85.5938C136.019 85.6113 136.413 85.7885 136.703 86.0888C141.656 91.2535 144.872 97.8372 145.901 104.919C148.534 122.842 136.854 139.666 118.717 144.121C98.5944 149.071 78.1825 136.682 74.0025 117.006C70.0975 98.5875 81.895 80.7744 99.495 76.0719C112.716 72.545 124.444 75.3569 134.709 84.1156L135.871 85.1056L135.726 85.3256C134.716 85.2019 133.712 85.0506 132.701 84.9544C126.424 84.3631 120.251 84.7756 114.263 86.8312C106.913 89.2642 100.754 94.3842 97.02 101.166C96.47 102.142 96.4287 102.149 95.37 101.784C94.0127 101.308 92.7892 100.514 91.8019 99.4675C89.8455 97.4389 88.3679 94.9982 87.4775 92.3244C86.6731 89.9869 86.0819 87.5806 85.3944 85.2088C85.3394 85.0231 85.2981 84.8306 85.1331 84.6313C85.0369 85.1813 84.9269 85.7175 84.8444 86.2675C84.7619 86.8175 84.6931 87.3675 84.6381 87.9175C83.985 94.0638 84.3356 100.114 86.46 105.978C89.1 113.293 94.0706 118.559 101.331 121.763C102.279 122.183 102.279 122.189 101.771 123.056C99.0825 127.621 94.8681 129.917 89.6637 130.701C87.2437 131.065 84.8237 130.921 82.3556 130.742C82.5825 130.831 82.8025 130.934 83.0294 131.017C94.9231 135.107 107.986 133.272 117.824 122.863C120.298 120.214 122.461 117.292 124.272 114.153C124.74 113.341 124.774 113.334 125.531 113.884C128.755 116.236 130.673 119.453 131.993 123.062C133.224 126.383 133.712 129.834 133.829 133.347C133.836 133.629 133.856 133.911 133.877 134.193V134.2ZM176.969 149.408L111.911 185.494C111.877 185.116 111.829 184.882 111.829 184.656C111.829 172.762 111.829 160.868 111.815 148.974C111.815 148.445 111.973 148.252 112.544 148.204C125.194 147.159 135.224 141.618 142.588 131.546C143.227 130.659 143.22 130.652 144.169 131.182L176.089 148.885C176.337 149.022 176.584 149.181 176.969 149.408ZM108.206 34.6225C108.226 35.0075 108.247 35.2412 108.247 35.475C108.247 47.2106 108.247 58.9462 108.261 70.675C108.261 71.225 108.178 71.5 107.504 71.5481C94.5931 72.4831 84.3838 78.0725 76.9037 88.3438C76.3125 89.155 76.3262 89.1619 75.46 88.6806L44.3781 71.4244C44.0137 71.2181 43.6769 70.9706 43.3263 70.7369C43.6838 70.4894 44.0138 70.2075 44.3988 69.9944L107.03 35.2344C107.381 35.0419 107.738 34.87 108.199 34.6225H108.206Z" fill="white"/>
</g>
<defs>
<clipPath id="clip0_108_174">
<rect width="220" height="220" fill="white"/>
</clipPath>
</defs>
</svg>
