<svg width="220" height="220" viewBox="0 0 220 220" fill="none" xmlns="http://www.w3.org/2000/svg">
<g clip-path="url(#clip0_108_175)">
<path d="M110 220C170.751 220 220 170.751 220 110C220 49.2487 170.751 0 110 0C49.2487 0 0 49.2487 0 110C0 170.751 49.2487 220 110 220Z" fill="#C99705"/>
<path fill-rule="evenodd" clip-rule="evenodd" d="M55 166.747L55.2956 165.543C56.3613 161.439 59.1525 158.909 63.3188 157.761C67.5469 156.592 71.5825 157.039 75.2469 159.528C76.45 160.339 77.3575 161.377 77.9419 162.677C78.1069 163.027 78.43 163.316 78.6844 163.639C78.9594 163.323 79.3513 163.048 79.4888 162.69C80.3894 160.291 81.4 157.919 82.0806 155.472C85.7656 142.134 89.3681 128.79 92.9844 115.445C93.1287 114.923 93.2181 114.38 93.3488 113.747C92.3862 113.747 91.4925 113.754 90.6056 113.747C87.5669 113.692 84.5144 113.782 81.4894 113.548C77.3712 113.232 74.5731 110.695 74.4975 106.797C74.4288 103.387 76.4431 100.767 80.3 100.1C82.995 99.6328 85.8275 99.8115 88.5981 99.7634C91.2588 99.7221 93.9125 99.7634 96.5731 99.7359C96.8138 99.7359 97.2194 99.4609 97.2812 99.2478C97.955 96.8828 98.5806 94.504 99.2063 92.1184C99.2475 91.9809 99.2131 91.8227 99.2131 91.589C96.2019 91.589 93.225 91.6784 90.255 91.5615C87.9175 91.4652 85.6625 90.9359 83.71 89.5884C81.2831 87.9178 80.6162 85.5321 81.0081 82.8921C81.4069 80.2246 83.1187 78.4371 85.855 77.6877C86.8175 77.4265 87.8625 77.3165 88.8662 77.3096C93.1585 77.2672 97.4511 77.2764 101.743 77.3371C102.781 77.3577 103.242 77.0209 103.654 76.1546C105.084 73.1777 106.487 70.1734 108.144 67.3202C111.169 62.1159 114.716 57.2277 119.116 52.979C124.912 47.3965 131.739 43.4365 139.92 41.9859C145.351 41.0234 150.824 40.7896 156.159 42.6184C159.363 43.7184 161.741 45.7602 163.24 48.6959C164.182 50.5521 165.096 52.3877 164.993 54.5671C164.698 60.7546 159.438 64.6871 154.674 64.8453C151.016 64.969 147.867 63.979 145.434 61.3321C143.144 58.8434 142.862 55.949 143.784 52.8621C143.852 52.6352 143.942 52.4084 144.024 52.1746L143.839 51.9409C143.371 52.2434 142.842 52.4909 142.45 52.8621C140.395 54.848 138.657 57.1363 137.294 59.6477C134.406 64.8177 132.323 70.2902 130.604 75.9002C130.549 76.0721 130.563 76.2646 130.536 76.5602C132.021 76.5602 133.485 76.5809 134.936 76.5602C137.053 76.5259 139.157 76.5327 141.171 77.289C143.626 78.2102 145.503 79.7159 145.997 82.294C146.499 84.9134 145.984 86.969 143.536 88.9696C141.543 90.6059 139.205 90.9427 136.764 91.0252C133.506 91.1352 130.233 91.1627 126.974 91.2177C126.541 91.2246 126.197 91.2177 126.074 91.7677C125.544 94.0159 124.967 96.2571 124.41 98.4984C124.383 98.6084 124.417 98.7321 124.431 98.9246C126.72 98.9246 128.996 98.8559 131.264 98.9384C133.705 99.0278 135.96 99.6671 137.741 101.427C139.913 103.586 140.216 106.68 138.401 109.107C137.809 109.897 137.101 110.619 136.462 111.375C135.128 112.943 133.265 113.486 131.285 113.562C127.896 113.699 124.499 113.733 121.11 113.713C120.189 113.713 119.824 113.988 119.618 114.799C118.415 119.57 117.26 124.355 115.926 129.099C113.245 138.635 110.261 148.074 105.366 156.847C103.012 161.113 100.045 165.011 96.5594 168.417C91.4513 173.381 85.4012 176.784 78.1687 178.042C73.2325 178.895 68.255 179.19 63.3875 177.712C59.2625 176.461 56.4094 173.896 55.3094 169.778L55 168.575V166.747Z" fill="white"/>
</g>
<defs>
<clipPath id="clip0_108_175">
<rect width="220" height="220" fill="white"/>
</clipPath>
</defs>
</svg>
