<svg width="220" height="220" viewBox="0 0 220 220" fill="none" xmlns="http://www.w3.org/2000/svg">
<g clip-path="url(#clip0_108_176)">
<path d="M110 220C170.751 220 220 170.751 220 110C220 49.2487 170.751 0 110 0C49.2487 0 0 49.2487 0 110C0 170.751 49.2487 220 110 220Z" fill="#417BA4"/>
<path d="M52.8412 73.1019C52.6144 74.6281 52.6763 75.6869 53.4875 76.4912C52.4425 78.3131 51.6312 79.6675 50.8544 81.18C51.6381 79.6675 52.4425 78.3406 53.4875 76.78C55.8181 79.695 63.0988 79.695 73.0056 76.4912C74.1744 76.2025 74.1744 78.8219 74.1744 78.8219C74.1744 80.2794 73.8787 82.3144 61.3525 84.0675C57.8531 84.645 52.8962 84.3562 50.5725 81.73C49.9881 80.8637 49.6994 79.695 49.6994 78.2375C49.6994 77.9487 49.6994 77.66 49.9881 77.0687C49.9996 77.0527 50.011 77.0366 50.0225 77.0206C50.1396 76.5298 50.3247 76.0577 50.5725 75.6181C50.8612 74.745 51.4456 74.1606 52.03 73.2875C51.7344 73.8719 51.1569 75.0337 50.5725 75.6181C50.882 74.744 51.3795 73.9484 52.03 73.2875L52.8412 73.1019ZM54.5875 69.355C55.0138 68.7225 55.4813 68.0969 56.1069 67.4644L55.2338 68.6331C55.1826 68.6828 55.1322 68.7332 55.0825 68.7844C55.3919 68.3512 55.7288 67.9181 56.1069 67.4644L55.2338 68.6331C55.0055 68.862 54.7898 69.103 54.5875 69.355ZM54.5875 69.355C54.2231 69.8913 53.8863 70.4206 53.4875 70.9569C53.4498 70.9948 53.4131 71.0338 53.3775 71.0737C53.1362 71.4532 52.9002 71.836 52.6694 72.2219L54.5875 69.355ZM60.7819 62.3769C61.655 61.6481 62.5212 60.83 63.3944 60.1769C62.5789 61.2151 61.9825 62.4079 61.6412 63.6831C61.3525 64.5494 61.3525 65.4225 61.93 66.0069C61.8771 66.0594 61.8244 66.1121 61.7719 66.165C63.6969 68.31 69.9944 67.6775 77.9556 64.2606C80.575 63.0919 83.2012 61.9231 85.5319 60.4794C86.405 60.1837 87.5669 61.6412 87.8625 61.9231C88.1512 62.2187 88.44 63.0919 87.8625 63.6762C84.9475 65.4225 81.7437 67.1687 78.2444 68.3375C68.2344 72.6275 60.1838 73.2669 57.97 70.5306L57.8531 70.6681C57.5644 69.795 57.2756 69.2106 57.5644 68.0487C57.5644 67.7531 57.5644 67.4644 57.8531 67.1688C58.1173 66.8266 58.4044 66.5027 58.7125 66.1994C58.3058 66.5987 57.9225 67.021 57.5644 67.4644C57.5644 67.1687 57.8531 66.5912 57.8531 66.2956C58.4375 65.1269 59.0219 64.2606 59.895 63.0919C60.1012 62.9406 60.2938 62.7825 60.5 62.6175C61.38 61.38 62.6794 60.3144 63.9719 59.015C66.3094 56.98 66.3094 56.98 67.4713 56.1069C67.7175 55.8533 67.9868 55.6231 68.2756 55.4194C68.177 55.5017 68.0784 55.5842 67.98 55.6669C68.805 55.0481 69.6575 54.4362 70.5513 53.8381L70.675 53.7694L71.1219 53.4531C75.3 50.7109 79.7346 48.3808 84.3631 46.4956C85.1194 46.0694 85.8756 45.6981 86.6319 45.3681C86.185 45.5469 85.8275 45.705 85.4081 45.8837C84.6835 46.2027 83.9499 46.5008 83.2081 46.7775C82.0394 47.0731 82.0394 47.0731 79.7019 48.2419C78.5331 48.8194 78.5331 48.8194 76.4981 49.9881C75.625 50.5725 75.625 50.5725 73.5831 51.7344C72.7496 52.2883 71.929 52.8613 71.1219 53.4531C90.1931 44.0688 88.8594 44.4744 87.5187 45.0037C85.8566 45.5166 84.2207 46.1109 82.6169 46.7844C75.8656 49.6719 69.5131 53.7694 65.5394 57.5712C64.9412 58.0525 64.6594 58.3275 63.9719 59.015C64.3431 58.6644 64.735 58.3137 65.1406 57.9631C64.5204 58.5712 63.9351 59.2139 63.3875 59.8881C62.4731 60.8025 61.5587 61.5381 60.7819 62.3769ZM44.2338 129.958C44.3025 130.206 44.3781 130.439 44.4538 130.666C44.6648 131.433 45.067 132.133 45.6225 132.701C45.0804 131.119 44.5692 129.526 44.0894 127.923C44.0619 129.814 44.6325 131.471 45.6225 132.701C44.9638 130.909 44.4758 129.058 44.165 127.174C49.4037 134.454 69.2175 132.701 94.5587 121.928C126.899 108.24 156.317 84.9406 160.401 69.795C161.274 66.0069 160.689 63.3875 158.647 61.3456C160.105 62.8031 161.562 64.5494 163.02 66.0069C164.766 68.0487 165.055 70.6681 164.189 74.1606C160.105 89.595 130.103 113.19 96.8894 127.167C68.0556 139.721 46.31 140.277 44.2269 129.965C43.725 128.267 43.2162 126.074 42.7075 124.547C42.9962 125.421 43.2919 126.294 43.8762 127.174L44.0481 127.786C44.0313 128.151 44.0451 128.516 44.0894 128.879C44.0671 128.545 44.0625 128.21 44.0756 127.875C44.0664 127.845 44.0573 127.815 44.0481 127.786L44.2338 129.958ZM91.5338 43.7456L91.9394 43.5806C100.678 41.25 106.212 42.4119 105.05 47.3619C104.754 49.115 103.593 50.8612 101.846 52.6075C100.389 53.1919 97.185 52.6075 96.6006 52.0231C98.0581 50.2769 98.9313 48.8194 99.22 47.6575C100.128 43.8075 95.9338 42.7762 89.1 44.5569L88.7975 44.6669L91.5338 43.7456ZM91.0044 43.9519L92.2281 43.5806C91.9962 43.6311 91.7647 43.6838 91.5338 43.7387L91.0044 43.9519ZM42.7075 119.68V119.886C41.8825 119.061 41.5731 117.982 41.5387 116.641C41.4647 116.06 41.4486 115.473 41.4906 114.888C41.525 115.442 41.5433 115.997 41.5456 116.552C41.4658 115.98 41.4474 115.402 41.4906 114.826C41.4081 113.3 41.25 111.554 41.25 110.275C41.25 112.028 41.8344 113.19 42.4188 114.352C42.4188 115.232 42.4875 116.174 42.5563 117.122C42.4188 116.174 42.4188 115.232 42.4188 114.352C61.93 135.032 149.621 81.4412 150.494 58.7262C150.782 54.6494 148.452 53.1919 147.29 52.3188L149.621 53.7762L152.529 55.8112C154.866 57.8531 155.739 60.7612 154.866 64.5494C151.078 79.1106 122.526 101.537 91.355 114.647C66.6738 125.297 47.6094 126.692 42.7075 119.68ZM42.5631 97.46L42.9963 95.7137C42.4119 98.0512 42.7075 100.086 43.8694 101.248C43.8624 101.271 43.8556 101.294 43.8487 101.317C44.4194 102.004 45.2031 102.499 46.2 102.994C47.0731 104.163 46.4956 107.071 46.4956 107.071C46.2 107.944 45.9112 109.113 45.3269 108.824C42.4119 107.367 41.25 105.036 41.5456 101.537C41.264 103.276 41.6817 105.055 42.7075 106.487L42.735 106.322C41.9215 104.976 41.603 103.388 41.8344 101.832L41.9513 101.076C41.8822 101.323 41.8429 101.577 41.8344 101.832L42.4119 97.7556L42.9963 95.4181V94.8406L42.5631 97.46ZM46.8394 90.31C46.2886 91.476 45.8801 92.704 45.6225 93.9675C44.7425 92.7987 44.4537 91.3481 44.7425 89.595C44.7425 89.0175 44.7425 88.7219 45.0381 88.1444C45.5937 86.4465 46.2739 84.792 47.0731 83.1944C46.7926 84.0589 46.6995 84.9734 46.8003 85.8768C46.9011 86.7801 47.1933 87.6516 47.6575 88.4331L47.4719 88.8662C51.1225 93.6512 64.4325 92.4412 81.4481 85.2294C103.297 75.6181 123.399 59.8881 126.026 49.9881C126.899 46.2069 125.73 43.8694 122.526 42.7006C123.111 42.4119 123.111 42.4119 124.857 42.9963C126.026 43.2919 126.899 43.5806 127.476 43.5806C131.264 45.0381 132.722 47.6575 131.56 51.7344C128.645 62.8031 106.796 79.9906 82.9056 90.1794C63.9719 98.0444 49.4038 99.5019 45.6225 93.9675L46.8394 90.31ZM91.7881 174.254C88.2887 174.371 85.3875 174.006 83.1944 173.188C81.4481 172.315 79.1175 171.442 77.6669 170.569C81.2212 172.04 85.8825 172.404 91.245 171.875C121.942 168.85 175.773 136.592 178.75 115.521L178.461 116.394C178.136 118.125 177.941 119.879 177.877 121.639C177.877 121.928 177.877 122.217 177.588 122.512C174.089 135.032 149.332 154.55 122.238 166.196C110.034 171.401 99.4812 173.986 91.8019 174.254C91.7973 174.254 91.7927 174.254 91.7881 174.254ZM95.1981 162.277L95.7275 161.542C95.5487 161.782 95.3838 162.023 95.2119 162.271C99.6325 161.033 104.39 159.431 109.416 157.458C112.619 156.585 113.788 158.627 113.788 158.627C114.077 158.916 114.077 160.084 112.331 160.957C105.016 163.817 98.2781 165.873 92.3587 167.111C92.3149 167.195 92.2714 167.28 92.2281 167.365L92.3175 167.117C81.9913 169.283 74.1606 168.974 70.0906 166.196C68.6331 165.027 66.5913 163.584 65.1406 162.415C69.8294 166.43 80.6781 166.341 95.1981 162.277ZM58.7262 156.007C57.5575 154.55 56.1069 153.092 55.2338 151.635C56.4025 153.092 58.1487 155.127 59.3106 156.585C59.2993 156.434 59.2339 156.293 59.1265 156.187C59.0191 156.081 58.8769 156.017 58.7262 156.007ZM105.05 41.5387C106.796 41.5387 109.127 41.25 110.873 41.25C116.992 41.25 119.907 43.5806 118.738 48.2419C117.281 53.7763 109.416 61.6413 99.22 68.6263C97.185 69.4994 95.1431 66.88 95.7275 65.7181C95.7275 65.4225 96.0162 65.4225 96.0162 65.4225C105.05 59.3037 111.746 52.6075 113.204 47.6575C114.372 42.9963 110.584 40.9612 103.881 41.5387H105.05ZM140.003 48.2419C143.502 49.9881 144.953 52.9031 143.791 57.2687C140.298 70.3725 114.661 90.475 86.6937 102.417C81.4481 104.741 76.2094 106.494 71.5481 107.944C68.9219 108.24 68.6331 104.741 69.8019 102.994C70.0906 102.417 70.3794 102.417 70.675 102.121C75.0406 100.952 79.7019 99.2131 84.6588 97.1712C111.162 85.8137 135.341 66.5912 138.552 54.3538C139.714 49.9881 137.967 47.0731 134.179 45.6225C135.926 46.4956 138.256 47.3687 140.003 48.235V48.2419ZM170.301 77.0756L171.174 78.5331C172.047 80.8638 172.047 80.8637 172.047 82.0256V82.3144C171.174 82.0256 169.434 78.5331 169.139 77.0756C169.139 75.3294 168.843 74.1606 167.97 72.9987L170.307 77.0756H170.301ZM176.419 92.51C176.708 93.9675 176.708 95.7137 176.131 97.7556C172.631 110.571 150.783 129.497 124.272 143.192C121.364 144.354 119.611 142.312 120.196 140.277C120.432 139.526 120.956 138.898 121.653 138.531C148.452 124.547 170.878 105.325 174.384 92.2212C174.962 89.8837 174.962 87.8487 174.384 86.1025C175.257 88.4331 176.131 90.7637 176.419 92.51ZM178.461 104.747V107.071C178.461 108.24 178.461 109.113 178.166 110.571C176.131 118.436 166.512 128.624 153.409 138.531C151.367 139.989 150.198 137.947 150.494 136.489C150.766 135.598 151.269 134.794 151.951 134.159C165.639 123.97 175.546 113.479 177.588 105.325C177.877 103.867 178.166 102.417 177.877 100.959L178.461 104.741V104.747ZM57.8531 70.6612C57.5644 69.7881 57.2756 69.2038 57.5644 68.0419C57.2756 69.2038 57.5644 69.7881 57.8531 70.6544V70.6612ZM50.5656 81.73C49.9881 80.8569 49.6994 79.6881 49.6994 78.2306C49.6994 79.6881 49.6994 80.5681 50.5725 81.73H50.5656ZM45.6156 93.9606C44.7425 92.7919 44.4537 91.3412 44.7425 89.5881C44.4537 91.3412 44.7425 92.7987 45.6225 93.9606H45.6156ZM155.444 104.156C155.671 104.785 155.737 105.461 155.635 106.122C155.533 106.782 155.266 107.407 154.859 107.937C142.044 119.591 123.111 131.244 103.297 139.686C73.8719 151.924 51.7344 152.797 49.6994 142.306C49.4038 141.432 49.6994 142.017 49.9881 141.728C49.9881 142.017 49.9881 143.474 51.1569 145.221C50.8612 144.636 50.5725 144.347 50.2838 143.763C49.9881 143.474 49.9881 143.186 49.6994 142.89C49.115 142.017 48.8263 140.855 48.2419 139.982C53.7763 147.262 74.1675 145.805 100.389 134.447C120.196 125.998 139.129 114.056 151.951 102.699C154.282 101.53 155.155 103.283 155.444 104.156ZM81.7438 157.451C82.0325 158.036 82.3281 159.204 81.1594 159.493C70.675 161.239 63.0987 160.366 59.5994 156.578C58.4375 155.121 56.6913 153.086 55.5225 151.628C58.7263 155.705 66.5912 156.874 77.9556 155.121C79.9975 155.121 81.4481 156.874 81.7369 157.458L81.7438 157.451ZM173.504 136.194C174.378 134.447 175.257 131.821 175.842 130.075C172.336 141.432 149.909 158.909 125.441 169.4C110.289 175.801 97.7625 178.131 91.0663 176.096C92.8125 176.674 95.4319 177.265 97.4738 177.554C116.119 180.462 163.309 157.162 173.511 136.194H173.504ZM158.359 157.162C158.359 157.451 157.774 158.331 156.613 159.204C150.198 164.443 141.46 169.689 132.433 173.47C124.857 176.674 118.154 178.42 113.204 178.716H105.916C111.746 179.004 120.196 176.969 130.391 172.893C140.587 168.52 150.494 162.697 157.774 156.578C158.07 156.578 158.07 156.289 158.359 156.289C158.359 156.289 158.359 156.578 158.647 156.578C158.647 156.578 158.647 156.874 158.359 157.162ZM44.7425 88.4331C44.7425 88.1444 45.0381 87.56 45.0381 87.2644C45.6225 85.5181 46.7844 82.8988 47.3687 81.1456C47.3687 82.0256 47.0731 82.61 46.7844 83.4831C45.9112 84.9406 45.3269 86.6869 44.7425 88.4331Z" fill="white"/>
</g>
<defs>
<clipPath id="clip0_108_176">
<rect width="220" height="220" fill="white"/>
</clipPath>
</defs>
</svg>
