<svg width="220" height="220" viewBox="0 0 220 220" fill="none" xmlns="http://www.w3.org/2000/svg">
<g clip-path="url(#clip0_108_177)">
<path d="M110 220C170.751 220 220 170.751 220 110C220 49.2487 170.751 0 110 0C49.2487 0 0 49.2487 0 110C0 170.751 49.2487 220 110 220Z" fill="#42C1CA"/>
<path d="M109.533 88.743C112.09 77.9973 115.17 68.338 118.443 62.0336C119.646 59.0223 124.527 51.8105 129.883 47.0461C138.8 39.1055 148.803 37.0911 159.218 43.6292L158.304 45.0798L159.218 43.6292C164.533 46.9636 166.664 50.3942 165.729 53.6255C165.042 56.0317 162.408 57.9567 160.999 57.7573C158.937 57.9636 156.86 57.5511 154.88 56.0936C153.213 54.8097 151.928 53.0961 151.161 51.1367C149.703 47.6992 147.792 46.5305 145.448 46.8055C143.75 46.998 141.777 48.0842 141.151 48.813L139.535 50.6005C138.279 51.9378 137.164 53.4007 136.208 54.9661C132.935 60.418 129.917 70.4073 125.73 91.108L153.478 95.1711L151.952 106.288L123.792 102.163L122.588 109.478L122.279 111.307C122.114 112.255 121.935 113.287 121.729 114.387L150.164 118.553L148.535 129.656L119.433 125.394C116.071 139.68 111.643 154.99 108.515 161.034C107.305 164.052 102.431 171.25 97.0753 176.021C88.1584 183.955 78.1553 185.976 67.7397 179.438C62.4253 176.104 60.294 172.666 61.229 169.435C61.9165 167.029 64.5497 165.11 65.959 165.31C68.0215 165.104 70.0978 165.516 72.0778 166.967C73.604 168.094 74.869 169.73 75.7972 171.93C77.2547 175.361 79.1659 176.537 81.5103 176.262C83.2084 176.062 85.1815 174.976 85.8072 174.247C92.0428 167.304 96.9859 153.925 103.235 123.029L75.4878 118.959L77.014 107.842L105.174 111.967L106.384 104.659C106.651 103.017 106.938 101.378 107.243 99.743L78.9184 95.5973L80.5409 84.4942L109.533 88.743Z" fill="white"/>
</g>
<defs>
<clipPath id="clip0_108_177">
<rect width="220" height="220" fill="white"/>
</clipPath>
</defs>
</svg>
