<svg width="220" height="220" viewBox="0 0 220 220" fill="none" xmlns="http://www.w3.org/2000/svg">
<g clip-path="url(#clip0_108_178)">
<path d="M110 220C170.751 220 220 170.751 220 110C220 49.2487 170.751 0 110 0C49.2487 0 0 49.2487 0 110C0 170.751 49.2487 220 110 220Z" fill="#00AFEC"/>
<path d="M139.604 81.319C139.941 80.7758 140.243 80.0539 140.553 79.4352C147.554 67.0372 151.239 53.0424 151.25 38.8039C141.384 33.1114 130.969 29.5227 119.639 28.2783C123.833 46.5796 129.772 64.3033 138.359 81.0027L139.604 81.319ZM83.0363 78.1908L82.7269 78.1221L80.3206 77.5721V77.5308H80.2863L82.4519 68.0914C84.0537 68.4352 85.6556 68.8133 87.2506 69.2052H87.285C93.1237 56.0327 97.6755 42.3267 100.877 28.2783C86.1116 29.9088 72.0625 35.5033 60.2181 44.4689V44.4964C50.28 52.0221 42.1741 61.6994 36.5078 72.8033C30.8416 83.9071 27.7621 96.1494 27.5 108.613V110.263C36.3061 115.324 45.9603 118.739 55.99 120.341L56.0381 120.293C66.5635 107.297 75.6245 93.1796 83.0569 78.1977H83.0363V78.1908ZM134.681 92.1127C136.489 93.0752 137.163 94.4502 138.022 97.1452C139.212 101.215 138.408 105.498 137.562 109.52L147.537 111.837L150.012 101.091C160.084 116.595 171.256 132.606 184.821 145.174C182.359 150.763 180.833 152.716 177.21 157.625C155.004 150.791 131.354 147.168 108.116 147.395L110.103 139.454L103.476 137.907C102.444 137.646 101.393 137.185 100.774 136.278C99.9969 135.246 99.9969 133.885 100.258 132.668L104.404 114.642C106.549 115.158 108.79 115.495 110.797 116.45C111.737 116.827 112.574 117.42 113.242 118.181C113.91 118.942 114.389 119.849 114.641 120.83C115.184 123.566 114.022 126.192 113.554 128.825L122.478 130.888L129.917 98.6577L129.161 98.4033L128.576 98.2933C130.639 96.1277 132.44 94.2027 134.303 91.8514L134.688 92.1127H134.681ZM56.2513 122.411L56.4644 122.115C58.1969 122.5 59.5306 122.356 61.3044 122.541C67.65 123.105 73.81 123.229 80.1281 122.335C80.6094 122.266 81.1044 122.218 81.5925 122.198L80.1281 127.821C79.8669 128.935 79.3787 130.09 78.4231 130.791C77.9507 131.105 77.4183 131.317 76.8598 131.414C76.3012 131.511 75.7286 131.491 75.1781 131.355C72.9094 130.895 70.6406 130.276 68.3444 129.836C67.65 132.978 66.9006 136.126 66.1788 139.248L81.4137 142.775C80.795 145.614 80.6437 146.384 79.9975 149.196C67.3154 150.935 54.7895 153.668 42.5356 157.37C38.9262 152.468 37.3794 151.286 34.9594 145.69C42.6731 138.54 49.6169 130.585 56.2513 122.411ZM91.6231 145.126L97.735 146.542L97.5287 147.752L91.0044 148.22L91.6231 145.126ZM80.355 120.52C80.8293 120.455 81.3065 120.413 81.785 120.396V120.369L89.65 86.3377C89.9594 84.7908 90.5781 83.244 90.09 81.6971C89.9011 81.1424 89.5871 80.6387 89.1722 80.225C88.7573 79.8113 88.2527 79.4987 87.6975 79.3115L87.4431 79.229C86.1369 78.8783 87.1406 79.1258 85.8138 78.8164C85.6694 78.7821 85.0094 79.0021 84.8581 78.9746C77.5081 93.7816 68.5337 107.725 58.1006 120.548C59.8263 120.912 59.5444 120.809 61.27 120.988C67.6294 121.572 74.03 121.414 80.3481 120.527L80.355 120.52Z" fill="white"/>
<path d="M97.8315 71.618V71.6455C99.0415 66.5373 100.176 61.4086 101.413 56.3074L111.575 58.6449L108.041 73.9899L114.125 75.4061C114.73 72.8555 115.328 70.298 115.913 67.7405L116.8 63.9042L117.686 60.068L127.841 62.3849C127.703 63.0724 127.552 63.7598 127.401 64.4473C126.418 68.8955 125.325 73.3024 124.341 77.7642L136.036 80.4867C127.449 63.7805 121.763 46.318 117.576 28.0167C114.95 27.7074 113.843 27.8105 111.183 27.7624H109.56C106.645 27.7624 105.566 27.6867 102.706 28.0167C99.4884 42.0624 95.6934 56.7955 89.8496 69.968L97.8315 71.618ZM111.313 84.7424L111.623 84.8111L111.657 84.7424H111.313Z" fill="white"/>
<path d="M111.341 84.7347L106.624 105.181C109.553 105.827 112.606 106.9 115.617 106.054C116.585 105.749 117.463 105.211 118.174 104.487C118.885 103.763 119.407 102.875 119.694 101.902C120.257 100.093 120.539 98.2372 121.034 96.4359L126.012 97.7009C126.232 97.7353 125.977 97.8659 126.122 97.7215L126.246 97.6253C128.308 95.4115 130.646 92.9847 132.502 90.6403C129.457 89.1173 126.212 88.0318 122.863 87.4159L111.341 84.7347ZM185.384 76.6978C178.269 60.789 168.128 48.8128 153.051 40.0815C153.037 54.3265 149.614 67.0384 142.615 79.4478C142.19 80.2243 141.803 81.0204 141.453 81.8334C146.169 82.8647 149.112 83.4972 153.828 84.5559V84.604L150.789 98.2647C160.841 113.761 172.054 130.825 185.591 143.406C189.908 133.561 192.259 122.967 192.5 112.214V108.343C192.237 97.4268 189.819 86.6698 185.384 76.6909V76.6978ZM27.5 112.063V113.252C27.6581 124.245 30.0094 133.286 34.4094 143.365C41.7088 136.631 48.4907 129.357 54.6975 121.605C44.6944 120.01 36.2656 117.15 27.5 112.063ZM107.834 149.188L104.376 164.244H104.356L94.1463 161.907L96.9856 149.552L90.4887 150.013L88.0825 160.483H88.0688L77.8525 158.139C78.375 155.815 78.8838 153.547 79.4544 151.257C67.2925 152.907 55.2887 155.554 43.5669 159.17C51.0953 169.388 60.8768 177.733 72.1524 183.559C83.4279 189.384 95.8942 192.533 108.584 192.762H111.959C124.554 192.437 136.909 189.242 148.083 183.421C159.257 177.6 168.956 169.306 176.44 159.17C154.222 152.328 131.081 148.961 107.834 149.188Z" fill="white"/>
</g>
<defs>
<clipPath id="clip0_108_178">
<rect width="220" height="220" fill="white"/>
</clipPath>
</defs>
</svg>
