<svg width="220" height="220" viewBox="0 0 220 220" fill="none" xmlns="http://www.w3.org/2000/svg">
<g clip-path="url(#clip0_108_179)">
<path d="M110 220C170.751 220 220 170.751 220 110C220 49.2487 170.751 0 110 0C49.2487 0 0 49.2487 0 110C0 170.751 49.2487 220 110 220Z" fill="#C40E09"/>
<path fill-rule="evenodd" clip-rule="evenodd" d="M152.625 49.0875C153.243 49.5687 153.8 49.9812 154.316 50.4281C155.677 51.6313 157.045 52.8344 158.372 54.0788C159.424 55.0825 160.421 56.155 161.432 57.2069C161.514 57.2894 161.583 57.4819 161.555 57.5919C160.937 59.9844 160.002 62.2394 158.75 64.3431C157.65 66.1856 156.385 67.8769 154.914 69.3962C152.92 71.4587 150.686 73.1775 148.238 74.5869C147.173 75.2056 146.08 75.7556 144.987 76.3056C141.501 78.0725 137.788 79.0625 134.007 79.7638C131.429 80.245 128.823 80.5888 126.232 80.9463C122.822 81.4137 119.405 81.7919 116.002 82.2869C110.983 83.0156 106.067 84.1569 101.406 86.3225C96.2772 88.7081 92.0078 92.1938 89.1066 97.3431C87.1747 100.781 86.391 104.527 86.4253 108.501C86.4872 116.112 89.0928 122.691 93.5891 128.542C96.3391 132.117 99.4741 135.293 102.774 138.291C105.057 140.374 107.387 142.395 109.663 144.478C112.571 147.159 115.486 149.834 117.982 152.962C119.288 154.612 120.58 156.303 121.701 158.098C123.612 161.164 125.132 164.457 126.128 167.984C126.678 169.909 127.008 171.868 127.16 173.876C127.379 176.859 127.114 179.859 126.376 182.758C126.08 183.947 126.067 183.968 124.891 184.181C123.234 184.491 121.577 184.807 119.913 185.075C118.697 185.261 117.473 185.378 116.249 185.515C115.823 185.57 115.39 185.591 114.957 185.625L114.702 185.618C114.709 185.522 114.702 185.426 114.73 185.343C115.101 184.36 115.513 183.391 115.864 182.401C116.637 180.273 117.158 178.063 117.418 175.814C117.873 171.861 117.149 167.861 115.335 164.319C114.072 161.929 112.465 159.738 110.563 157.816C107.978 155.1 105.132 152.721 102.279 150.349C97.5147 146.382 92.9085 142.237 88.701 137.617C86.1412 134.828 83.8143 131.834 81.7435 128.666C79.4781 125.249 77.7009 121.533 76.4635 117.624C74.5723 111.548 74.5125 105.049 76.2916 98.9381C77.2953 95.4044 78.6497 92.0838 80.7397 89.1069C83.5035 85.1675 87.0716 82.2319 91.1622 79.9631C95.2872 77.66 99.6872 76.1475 104.218 75.0131C107.862 74.0919 111.553 73.4044 115.273 72.9506C119.467 72.4419 123.66 72.0156 127.854 71.5413C131.278 71.1562 134.681 70.6819 137.988 69.6369C140.999 68.7276 143.766 67.1481 146.08 65.0169C148.08 63.1469 149.565 60.9056 150.631 58.3344C151.614 55.9625 152.095 53.46 152.446 50.9231C152.522 50.3594 152.563 49.7819 152.632 49.0875H152.625ZM104.087 137.266C105.593 136.971 107.023 136.716 108.446 136.407C112.103 135.596 115.713 134.619 119.102 132.887C122.438 131.197 125.403 128.86 127.827 126.012C130.302 123.083 132.33 119.859 133.388 116.036C134.052 113.616 134.285 111.098 134.076 108.597C133.645 103.507 131.906 98.615 129.03 94.3937C126.858 91.2005 124.37 88.2339 121.605 85.5388C121.123 85.0506 120.615 84.5763 120.127 84.095C120.058 84.0263 120.003 83.9438 119.9 83.82L122.512 83.4144L128.17 82.555C129.16 82.4038 130.15 82.2388 131.14 82.1081C131.257 82.0944 131.422 82.225 131.518 82.3281C133.278 84.3769 135.08 86.3844 136.771 88.495C138.971 91.2312 140.827 94.2287 142.34 97.46C143.68 100.341 144.663 103.338 145.145 106.514C145.482 108.735 145.626 110.976 145.399 113.218C144.739 119.494 142.876 125.304 139.198 130.378C136.915 133.533 134.103 136.084 130.934 138.215C127.243 140.65 123.227 142.555 119.006 143.873C117.198 144.451 115.369 144.946 113.547 145.454C113.463 145.473 113.376 145.474 113.292 145.456C113.208 145.438 113.128 145.403 113.059 145.351C110.123 142.739 107.202 140.106 104.28 137.479C104.225 137.438 104.183 137.376 104.094 137.273L104.087 137.266ZM118.635 70.5925L114.207 71.28L109.188 72.0569C108.604 72.1531 108.013 72.2631 107.415 72.325C107.196 72.3411 106.979 72.2722 106.81 72.1325C104.878 70.3573 103.083 68.4382 101.44 66.3919C100.547 65.2575 99.6391 64.1231 98.8485 62.9062C96.1672 58.7537 94.0703 54.3194 93.1835 49.335C92.3903 45.0794 92.6212 40.6962 93.8572 36.5475C93.9328 36.2725 94.0153 36.135 94.3385 36.0731C96.181 35.7569 98.0028 35.3444 99.8385 35.0419C101.351 34.8013 102.891 34.6775 104.417 34.4988L105.668 34.375C105.558 34.6225 105.497 34.7875 105.421 34.9319C104.106 37.6241 103.2 40.4974 102.733 43.4569C102.111 47.5008 102.762 51.6383 104.596 55.2956C106.115 58.355 108.192 60.9469 110.543 63.3394C112.99 65.8144 115.644 68.0419 118.305 70.2625C118.401 70.345 118.483 70.4344 118.642 70.5925H118.635ZM96.8135 148.197L93.8847 148.507C92.6472 148.644 91.4097 148.741 90.1722 148.933C88.2678 149.229 86.3566 149.518 84.4728 149.937C77.5772 151.463 72.2078 155.121 69.2791 162.154C68.2064 164.719 67.4068 167.389 66.8935 170.122C66.8728 170.246 66.8316 170.369 66.7766 170.589C66.3847 170.287 66.0203 170.039 65.6903 169.751C64.3153 168.527 62.9472 167.317 61.6066 166.066C60.6372 165.158 59.7228 164.189 58.7603 163.268C58.4372 162.958 58.3753 162.649 58.4922 162.209C59.794 157.506 62.3596 153.25 65.9103 149.903C68.2042 147.774 70.7703 145.959 73.5416 144.506C77.4328 142.374 81.5922 141.151 85.8547 140.229C86.3497 140.126 86.8585 140.071 87.3397 139.941C87.6422 139.858 87.8416 139.941 88.0547 140.14L92.0285 143.777L96.4353 147.826C96.5669 147.944 96.6931 148.068 96.8135 148.197ZM126.562 118.099C126.218 118.016 125.874 117.941 125.544 117.837L101.818 110.419C98.7728 109.471 95.7341 108.529 92.6953 107.573C91.5266 107.209 90.9285 106.253 91.0178 105.277C91.1416 103.833 91.6228 102.829 92.9772 102.561C93.3508 102.504 93.7326 102.537 94.091 102.658C96.6622 103.448 99.2266 104.273 101.791 105.071L119.948 110.736L127.187 112.984C127.729 113.133 128.198 113.472 128.51 113.939C128.822 114.406 128.955 114.97 128.885 115.528C128.686 117.061 127.772 118.057 126.562 118.099ZM76.4428 162.759C76.6628 162.814 76.9241 162.862 77.1785 162.938L110.213 173.25C111.347 173.607 112.021 174.556 111.918 175.67C111.787 177.169 111.003 178.166 109.828 178.269C109.464 178.287 109.1 178.235 108.755 178.118C99.646 175.285 90.5435 172.439 81.441 169.592C79.5435 169.001 77.646 168.424 75.7553 167.826C74.6966 167.489 73.9953 166.588 74.071 165.557C74.181 164.196 74.6828 163.158 75.8997 162.848C76.0578 162.8 76.2297 162.793 76.4497 162.759H76.4428ZM146.087 54.3812C145.983 54.6837 145.846 55.3163 145.55 55.8456C145.069 56.7119 144.086 57.035 143.117 56.7325L127.187 51.755C121.488 49.9744 115.788 48.1937 110.082 46.4269C109.113 46.1244 108.391 45.5538 108.281 44.4538C108.157 43.2163 108.728 41.5594 110.35 41.3738C110.658 41.3533 110.967 41.3954 111.258 41.4975L144.368 51.8306C145.468 52.1744 146.087 52.9856 146.087 54.3812ZM98.546 98.8144C98.6147 97.3913 99.2335 96.3187 100.347 96.0987C100.785 96.0212 101.235 96.0495 101.66 96.1812C105.002 97.1987 108.329 98.2506 111.67 99.2956L124.265 103.214C124.824 103.37 125.306 103.727 125.616 104.218C125.926 104.708 126.042 105.296 125.943 105.868C125.688 107.449 124.747 108.412 123.468 108.274C122.815 108.192 122.175 107.931 121.529 107.731L105.153 102.616L100.217 101.076C99.7218 100.946 99.2863 100.651 98.9824 100.24C98.6785 99.8285 98.5245 99.3254 98.546 98.8144ZM96.2635 111.808C96.7035 111.925 97.0335 111.987 97.3566 112.083L118.119 118.573C118.69 118.752 119.267 118.917 119.838 119.102C121.11 119.515 121.728 120.698 121.398 122.045C121.144 123.111 120.635 123.929 119.535 124.114C119.176 124.166 118.809 124.136 118.463 124.025C115.823 123.221 113.19 122.389 110.557 121.564C105.655 120.037 100.76 118.504 95.8647 116.992C94.9572 116.71 94.2697 116.167 94.1185 115.17C93.9466 114.063 94.2353 113.039 95.1222 112.331C95.466 112.063 95.9197 111.966 96.2635 111.815V111.808ZM77.1303 174.969C77.2266 173.484 77.8728 172.322 79.2135 172.178C79.5076 172.148 79.8045 172.179 80.0866 172.267C87.7041 174.639 95.3216 177.011 102.939 179.396C104.163 179.781 104.761 180.991 104.452 182.284C104.19 183.384 103.627 184.154 102.547 184.401C102.345 184.458 102.133 184.463 101.928 184.415L80.5678 177.746C79.9422 177.547 79.3097 177.361 78.6772 177.155C78.2202 177.003 77.8237 176.709 77.5454 176.315C77.2672 175.922 77.1218 175.45 77.1303 174.969ZM83.9847 156.269C84.191 156.324 84.466 156.372 84.7341 156.454L107.291 163.494C108.391 163.838 109.078 164.801 108.996 165.873C108.879 167.344 108.123 168.355 106.968 168.499C106.577 168.531 106.184 168.482 105.813 168.355C99.7285 166.464 93.6441 164.553 87.5666 162.649C86.116 162.202 84.6585 161.755 83.2147 161.294C82.156 160.951 81.5166 160.077 81.606 158.991C81.716 157.575 82.266 156.654 83.4485 156.344C83.5997 156.303 83.7578 156.303 83.9847 156.276V156.269ZM136.386 63.03C135.643 62.81 134.922 62.6106 134.2 62.3838C127.139 60.1838 120.078 57.9631 113.011 55.7562C111.602 55.3094 111.031 54.175 111.416 52.6763C111.657 51.7206 112.152 51.0331 113.08 50.82C113.489 50.7287 113.915 50.7429 114.317 50.8612C120.573 52.7931 126.837 54.7525 133.1 56.705C134.44 57.1175 135.774 57.5437 137.115 57.9631C137.624 58.1265 138.059 58.4643 138.343 58.9171C138.627 59.37 138.743 59.9086 138.668 60.4381C138.552 61.3456 138.297 62.2256 137.431 62.6725C137.108 62.8375 136.743 62.9063 136.386 63.03ZM143.144 44.4675C143.013 45.3819 142.766 46.3788 141.721 46.8875C141.188 47.125 140.582 47.1423 140.037 46.9356L123.777 41.8481L117.432 39.8544C116.098 39.4419 115.52 38.2869 115.885 36.8637C116.132 35.8944 116.6 35.145 117.569 34.9387C117.994 34.8558 118.434 34.8794 118.848 35.0075C123.124 36.3275 127.393 37.675 131.663 39.0087L141.46 42.0613C142.525 42.3981 143.151 43.23 143.144 44.4675Z" fill="white"/>
</g>
<defs>
<clipPath id="clip0_108_179">
<rect width="220" height="220" fill="white"/>
</clipPath>
</defs>
</svg>
