<svg width="220" height="220" viewBox="0 0 220 220" fill="none" xmlns="http://www.w3.org/2000/svg">
<g clip-path="url(#clip0_108_180)">
<path d="M110 220C170.751 220 220 170.751 220 110C220 49.2487 170.751 0 110 0C49.2487 0 0 49.2487 0 110C0 170.751 49.2487 220 110 220Z" fill="#2080A2"/>
<path fill-rule="evenodd" clip-rule="evenodd" d="M109.862 139.542C101.991 148.528 101.798 160.854 109.952 169.063C117.659 161.638 117.666 147.799 109.862 139.542ZM109.869 55.7219C91.2725 77.2269 91.9738 102.651 109.856 123.777C128.061 102.217 128.109 76.9175 109.869 55.715V55.7219ZM123.014 117.769C138.483 101.956 157.355 98.34 178.75 101.764C171.854 117.576 162.126 130.206 144.939 136.812C148.734 133.836 152.192 131.402 155.32 128.611C160.545 123.956 164.244 118.319 166.093 111.547C166.678 109.409 165.921 108.804 163.955 108.487C156.757 107.332 149.999 108.845 143.543 111.787C132.681 116.738 123.833 124.362 115.534 132.646C115.39 132.798 115.328 133.018 115.067 133.492C131.326 134.111 143.708 140.601 151.044 155.595C141.515 157.713 132.797 157.266 124.712 152.068C130.804 153.938 136.881 155.299 143.55 152.137C142.725 150.762 142.244 149.153 141.144 148.252C138.139 145.798 135.059 143.316 131.656 141.446C126.397 138.572 120.519 137.225 114.015 135.891C122.794 151.271 120.594 165.234 109.862 178.75C104.871 172.459 101.379 165.88 100.423 158.111C99.4606 150.315 101.654 143.234 105.414 136.455C97.0956 135.121 79.145 144.753 76.3675 152.178C82.8094 155.437 89.0931 153.952 95.5625 151.546C90.915 156.331 77.5156 158.29 68.7775 155.409C76.0306 140.628 88.3506 134.117 104.974 133.499C103.751 132.261 102.843 131.306 101.894 130.391C94.9781 123.722 87.6287 117.604 78.9937 113.149C71.9331 109.505 64.5287 107.222 56.3956 108.439C55.4331 108.584 54.4775 108.817 53.13 109.092C55.605 121.811 64.13 129.697 74.6763 136.345C63.5938 135.004 44.8937 115.638 41.25 101.736C62.6312 98.2713 81.6062 102.066 97.0062 118.229C84.2669 89.8563 91.0456 64.7419 109.862 41.25C128.528 64.5563 135.376 89.4919 123.014 117.769Z" fill="white"/>
</g>
<defs>
<clipPath id="clip0_108_180">
<rect width="220" height="220" fill="white"/>
</clipPath>
</defs>
</svg>
