<svg width="220" height="220" viewBox="0 0 220 220" fill="none" xmlns="http://www.w3.org/2000/svg">
<g clip-path="url(#clip0_108_181)">
<path d="M110 220C170.751 220 220 170.751 220 110C220 49.2487 170.751 0 110 0C49.2487 0 0 49.2487 0 110C0 170.751 49.2487 220 110 220Z" fill="#1D9AD7"/>
<path fill-rule="evenodd" clip-rule="evenodd" d="M178.75 83.9582C171.813 76.712 157.561 70.6482 130.982 66.9289C122.602 65.7555 114.188 64.8407 105.751 64.1857C99.1992 63.7939 92.8399 63.402 86.6799 63.402C76.4705 78.6645 66.8386 97.0689 58.3617 119.186C49.1149 143.454 40.8374 167.338 35.0624 189.063H33.3299C33.9074 165.771 37.7574 139.35 45.6567 111.946C50.8611 94.1401 57.0211 78.472 63.958 64.777C32.7455 68.1045 10.4017 77.6951 0.0067373 91.3901C8.86861 69.6651 35.2549 51.2676 75.5149 44.812C96.8961 12.9051 122.127 -1.38801 143.124 4.88199C150.439 7.03386 156.605 11.7295 161.617 18.3845C161.033 17.9926 160.455 17.6007 159.692 17.4082C144.279 11.1451 123.475 20.1445 103.249 42.4607H104.211C149.476 42.2682 172.397 61.4495 178.757 83.9582H178.75ZM122.12 113.314C134.447 113.314 144.464 123.689 144.464 136.414C144.464 149.133 134.447 159.508 122.12 159.508C109.794 159.508 99.7767 149.133 99.7767 136.408C99.7767 123.496 109.794 113.314 122.12 113.314Z" fill="white"/>
</g>
<defs>
<clipPath id="clip0_108_181">
<rect width="220" height="220" fill="white"/>
</clipPath>
</defs>
</svg>
