<svg width="220" height="220" viewBox="0 0 220 220" fill="none" xmlns="http://www.w3.org/2000/svg">
<g clip-path="url(#clip0_108_182)">
<path d="M110 220C170.751 220 220 170.751 220 110C220 49.2487 170.751 0 110 0C49.2487 0 0 49.2487 0 110C0 170.751 49.2487 220 110 220Z" fill="#27323A"/>
<path d="M169.146 41.25C169.146 41.25 180.469 51.315 172.432 71.7956C170.904 75.5605 168.783 79.0561 166.148 82.1494L138.201 114.943L115.775 144.217C115.775 144.217 90.0212 139.982 80.0112 150.37L122.458 152.254C122.458 152.254 113.396 162.174 77.6325 155.072C77.6325 155.072 78.1138 165.028 94.3319 167.86C94.3319 167.86 80.0113 172.597 71.4244 158.874C71.4244 158.874 71.4244 168.829 81.4344 173.064C81.4344 173.064 73.3219 174.948 66.6394 166.444L55.2062 178.709C55.2062 178.709 52.8344 179.183 54.2575 176.832L63.7931 165.502C63.7931 165.502 64.7419 157.465 59.0081 160.291C59.0081 160.291 55.2063 161.7 56.6294 165.969C56.6294 165.969 50.8956 161.267 57.585 155.114L44.6875 142.34L61.38 151.312L54.2231 133.829L66.1306 148.961C66.1306 148.961 65.1406 131.952 70.4069 127.242C70.4069 127.242 71.83 143.784 78.5194 145.2L78.0381 110.701L85.2019 104.555L86.1506 126.266C86.1506 126.266 88.0481 128.618 89.9456 125.799C89.9456 125.799 94.2563 118.704 94.2563 97.9275L105.689 87.065L107.119 95.5763C107.119 95.5763 109.051 98.8694 111.43 96.0438L113.802 79.5094C113.802 79.5094 129.064 62.0263 169.146 41.25ZM92.8331 137.156C132.392 100.788 153.402 65.3537 153.361 65.3537C133.822 79.035 92.8331 137.163 92.8331 137.163V137.156Z" fill="white"/>
</g>
<defs>
<clipPath id="clip0_108_182">
<rect width="220" height="220" fill="white"/>
</clipPath>
</defs>
</svg>
