<svg width="220" height="220" viewBox="0 0 220 220" fill="none" xmlns="http://www.w3.org/2000/svg">
<g clip-path="url(#clip0_108_183)">
<path d="M110 220C170.751 220 220 170.751 220 110C220 49.2487 170.751 0 110 0C49.2487 0 0 49.2487 0 110C0 170.751 49.2487 220 110 220Z" fill="#4096D0"/>
<path d="M175.533 68.7501H130.879L117.638 101.956H75.8794V84.8582H117.638L123.75 68.7501H60.5138C59.7309 68.7464 58.9785 69.0534 58.4217 69.6038C57.865 70.1541 57.5492 70.9028 57.5437 71.6857V101.949H47.3687L41.25 118.051H57.5437V148.28C57.5437 149.916 58.8912 151.25 60.555 151.25H91.1556L97.2675 135.156H75.8794V118.044H110.509L97.2675 151.25H117.638L131.897 118.044H175.759C177.409 118.044 178.75 116.724 178.75 115.094V71.9194C178.743 71.0728 178.4 70.2636 177.797 69.6694C177.193 69.0752 176.379 68.7446 175.533 68.7501ZM161.439 99.4126C161.439 100.815 160.291 101.956 158.868 101.956H138.009L145.138 84.8651H158.854C159.533 84.8577 160.187 85.1199 160.673 85.5942C161.159 86.0685 161.437 86.7161 161.446 87.3951L161.439 99.4126Z" fill="white"/>
</g>
<defs>
<clipPath id="clip0_108_183">
<rect width="220" height="220" fill="white"/>
</clipPath>
</defs>
</svg>
