<svg width="220" height="220" viewBox="0 0 220 220" fill="none" xmlns="http://www.w3.org/2000/svg">
<g clip-path="url(#clip0_108_184)">
<path d="M110 220C170.751 220 220 170.751 220 110C220 49.2487 170.751 0 110 0C49.2487 0 0 49.2487 0 110C0 170.751 49.2487 220 110 220Z" fill="#ED1968"/>
<path d="M87.3125 184.937C78.5288 182.503 70.3387 178.291 63.25 172.562C56.2651 167.181 50.2242 160.675 45.375 153.312C40.204 145.565 36.4773 136.947 34.375 127.874C31.9681 117.006 31.9681 105.742 34.375 94.874C36.4262 85.6803 39.9059 76.865 44.6875 68.749C51.6876 57.5182 61.6894 48.469 73.5625 42.624C77.732 40.3799 82.106 38.5382 86.625 37.124C93.5 45.374 100.375 54.3115 107.25 63.249C107.937 64.624 109.312 65.3115 110 66.6865C103.104 66.9756 96.331 68.6104 90.0625 71.499C84.5207 74.3962 79.6125 78.3695 75.625 83.1865C71.7015 88.373 68.68 94.1835 66.6875 100.374C64.8515 107.859 65.0892 115.702 67.375 123.062L96.9375 99.6865C103.812 108.624 110.687 116.874 117.562 125.812C107.937 133.374 97.625 140.937 88 149.187C97.625 161.562 107.937 174.624 117.562 187.687C107.398 188.888 97.0939 187.952 87.3125 184.937ZM152.831 101.653C152.579 100.527 152.281 99.4127 151.937 98.3115C151.009 99.0403 130.556 114.674 122.375 121.687C115.5 112.749 108.625 104.499 101.75 95.5615C111.375 87.999 121.687 80.4365 131.312 72.1865C121.687 59.8115 112.062 47.4365 101.75 34.374C101.75 33.6865 101.062 33.6865 101.062 32.999H110.687C128.323 33.1636 145.346 39.4865 158.812 50.874C165.375 56.2973 170.957 62.8088 175.312 70.124C180.442 77.9989 183.732 86.9283 184.937 96.249C186.779 106.965 186.546 117.934 184.25 128.562C182.282 137.466 178.541 145.884 173.25 153.312C168.632 160.443 162.818 166.722 156.062 171.874C149.483 177.59 141.743 181.812 133.375 184.249C127.187 176.687 121.687 169.812 116.187 162.249C114.133 159.897 112.292 157.366 110.687 154.687C117.193 154.708 123.616 153.231 129.458 150.37C135.3 147.508 140.404 143.339 144.375 138.187C148.335 133.121 151.149 127.257 152.625 120.999C153.904 115.781 153.972 109.332 152.831 101.653ZM120.361 159.217C125.108 165.702 130.037 172.053 135.142 178.261C141.672 175.9 147.705 172.344 152.934 167.777C159.274 162.93 164.726 157.022 169.049 150.314C173.934 143.46 177.39 135.693 179.211 127.475C181.369 117.493 181.582 107.187 179.829 96.909C178.705 88.2897 175.647 80.0358 170.885 72.764C166.82 65.9409 161.611 59.8686 155.485 54.8134C143.111 44.3448 127.505 38.4637 111.299 38.1621C117.672 46.2746 124.128 54.5453 135.382 69.024L138.407 72.9015L134.667 76.0984C129.777 80.2575 124.785 84.2944 119.694 88.2053C119.212 88.5834 113.369 93.0728 108.982 96.469C110.791 98.7721 112.887 101.398 116.091 105.407C119.254 109.36 121.351 111.993 123.159 114.296C126.349 111.663 129.827 108.899 133.994 105.668C134.667 105.145 145.654 96.689 148.754 94.2553L154.639 89.6284L156.86 96.7784C159.422 105.018 159.693 113.8 157.644 122.182C156.001 129.155 152.868 135.689 148.459 141.335C141.448 150.434 131.378 156.684 120.113 158.928L120.361 159.217Z" fill="white"/>
</g>
<defs>
<clipPath id="clip0_108_184">
<rect width="220" height="220" fill="white"/>
</clipPath>
</defs>
</svg>
