<svg width="220" height="220" viewBox="0 0 220 220" fill="none" xmlns="http://www.w3.org/2000/svg">
<g clip-path="url(#clip0_108_185)">
<path d="M110 220C170.751 220 220 170.751 220 110C220 49.2487 170.751 0 110 0C49.2487 0 0 49.2487 0 110C0 170.751 49.2487 220 110 220Z" fill="#2D475B"/>
<path d="M88.4742 87.2098H164.684V104.315H88.4742V87.2098ZM164.684 115.7H165V160.683C165 160.683 105.552 203.755 59.3792 156.888C59.3792 156.888 34.0792 131.23 43.2504 93.8579C43.2504 93.8579 50.5242 47.3073 105.868 41.6079C105.868 41.6079 140.016 36.8504 162.154 62.1917L148.871 75.1717C148.871 75.1717 120.725 46.0354 83.0979 68.8467C83.0979 68.8467 52.4217 85.9448 65.0717 129.017C65.0717 129.017 78.9867 166.389 122.622 158.785C122.622 158.785 137.486 155.403 145.076 148.858V132.805H88.4811V115.7H164.684Z" fill="white"/>
</g>
<defs>
<clipPath id="clip0_108_185">
<rect width="220" height="220" fill="white"/>
</clipPath>
</defs>
</svg>
