<svg width="220" height="220" viewBox="0 0 220 220" fill="none" xmlns="http://www.w3.org/2000/svg">
<g clip-path="url(#clip0_108_186)">
<path d="M110 220C170.751 220 220 170.751 220 110C220 49.2487 170.751 0 110 0C49.2487 0 0 49.2487 0 110C0 170.751 49.2487 220 110 220Z" fill="#58BF00"/>
<path d="M171.875 155.238L123.819 132.839V83.2013L171.875 66.1581V155.238ZM101.908 178.75L55 156.894V68.4613L101.908 90.3237V178.75ZM170.727 62.9544L169.95 63.2294L123.819 79.5988L122.664 80.0112L103.118 86.9412L56.8494 65.3813L122.664 42.0337L123.241 41.8275L124.458 41.3944L124.884 41.25L171.153 62.81L170.72 62.9544H170.727Z" fill="white"/>
</g>
<defs>
<clipPath id="clip0_108_186">
<rect width="220" height="220" fill="white"/>
</clipPath>
</defs>
</svg>
