<svg width="220" height="220" viewBox="0 0 220 220" fill="none" xmlns="http://www.w3.org/2000/svg">
<g clip-path="url(#clip0_108_7)">
<path d="M220 110C220 131.756 213.549 153.023 201.462 171.113C189.375 189.202 172.195 203.301 152.095 211.627C131.995 219.952 109.878 222.131 88.5401 217.886C67.2022 213.642 47.6021 203.166 32.2183 187.782C16.8345 172.398 6.35804 152.798 2.11367 131.46C-2.13071 110.122 0.0476608 88.0047 8.3733 67.9048C16.6989 47.805 30.7979 30.6253 48.8873 18.5383C66.9767 6.45139 88.2441 0 110 0C139.174 0 167.153 11.5893 187.782 32.2183C208.411 52.8473 220 80.8262 220 110Z" fill="#001B69"/>
<path d="M117.71 54.3199C122.601 54.2654 127.479 54.8469 132.22 56.0499C136.213 57.0135 140.077 58.4503 143.73 60.3299L138.73 71.1599C135.672 69.6079 132.475 68.349 129.18 67.3999C125.652 66.297 121.976 65.7405 118.28 65.7499C116.01 65.712 113.75 66.0499 111.59 66.7499C109.583 67.3872 107.761 68.5025 106.28 69.9999C104.678 71.6109 103.467 73.5677 102.74 75.7199C101.882 78.4694 101.476 81.3402 101.54 84.2199V106.4H129.81V116.7H101.54V132.6C101.583 135.294 101.28 137.983 100.64 140.6C100.167 142.616 99.3803 144.547 98.31 146.32C97.4141 147.853 96.2683 149.225 94.92 150.38C93.6948 151.428 92.3835 152.372 91 153.2H147.25V165.68H72.74V154.1C74.833 153.588 76.8501 152.805 78.74 151.77C80.5803 150.728 82.1896 149.323 83.47 147.64C84.8983 145.798 85.97 143.705 86.63 141.47C87.4329 138.635 87.8137 135.696 87.76 132.75V116.75H72.89V106.45H87.78V82.0699C87.7232 78.0731 88.4785 74.1063 90 70.4099C91.4005 67.0905 93.5058 64.1152 96.17 61.6899C98.914 59.226 102.138 57.3568 105.64 56.1999C109.531 54.9088 113.61 54.2735 117.71 54.3199Z" fill="white"/>
</g>
<defs>
<clipPath id="clip0_108_7">
<rect width="220" height="220" fill="white"/>
</clipPath>
</defs>
</svg>
