<svg width="220" height="220" viewBox="0 0 220 220" fill="none" xmlns="http://www.w3.org/2000/svg">
<g clip-path="url(#clip0_108_188)">
<path d="M110 220C170.751 220 220 170.751 220 110C220 49.2487 170.751 0 110 0C49.2487 0 0 49.2487 0 110C0 170.751 49.2487 220 110 220Z" fill="#1666AF"/>
<path d="M107.931 75.6662V89.8287H75.6181C71.4244 89.8287 66.2613 91.3 62.4181 94.0225C57.6538 97.405 54.9931 102.472 54.9931 110.021C54.9931 117.569 57.6538 122.636 62.4181 126.019C66.2613 128.741 71.4244 130.213 75.6181 130.213H89.3681V144.375H75.6181C68.1069 144.301 60.7915 141.97 54.6219 137.686C46.1794 131.691 41.25 122.299 41.25 110.021C41.25 97.7419 46.1794 88.3506 54.6219 82.3556C60.7894 78.0718 68.1023 75.7412 75.6113 75.6662H107.931ZM73.5556 118.167V104.005H107.931V144.375H94.1875V118.167H73.5556ZM130.625 89.7875V75.625H178.75V144.375H116.861V89.8356H130.611V130.206H165V89.7944L130.625 89.7875Z" fill="white"/>
</g>
<defs>
<clipPath id="clip0_108_188">
<rect width="220" height="220" fill="white"/>
</clipPath>
</defs>
</svg>
