<svg width="220" height="220" viewBox="0 0 220 220" fill="none" xmlns="http://www.w3.org/2000/svg">
<g clip-path="url(#clip0_108_190)">
<path d="M110 220C170.751 220 220 170.751 220 110C220 49.2487 170.751 0 110 0C49.2487 0 0 49.2487 0 110C0 170.751 49.2487 220 110 220Z" fill="#EFB914"/>
<path fill-rule="evenodd" clip-rule="evenodd" d="M144.389 67.7531C150.146 72.2705 154.937 77.8985 158.478 84.303C162.018 90.7076 164.236 97.7581 165 105.036L145.427 100.169C143.585 94.0179 140.167 88.4555 135.512 84.0332C130.857 79.611 125.126 76.4825 118.889 74.9581C99.1854 70.0562 79.2892 81.7712 74.4423 101.124C69.5955 120.478 81.6611 140.14 101.372 145.042C107.602 146.615 114.135 146.535 120.325 144.811C126.515 143.087 132.148 139.778 136.668 135.211L156.241 140.071C152.14 146.142 146.863 151.33 140.722 155.327C134.582 159.324 127.703 162.05 120.491 163.343L114.922 185.625L97.0748 181.191L101.502 163.488C98.4727 162.989 95.4884 162.247 92.5786 161.267L88.1579 178.97L70.3105 174.529L75.8792 152.247C59.5305 139.356 51.3011 117.899 56.6017 96.69C61.9023 75.4806 79.2686 60.3831 99.7767 56.6569L105.345 34.375L123.193 38.8094L118.765 56.5125C121.795 57.0108 124.779 57.7535 127.689 58.7331L132.11 41.03L149.957 45.4712L144.389 67.7531Z" fill="white"/>
</g>
<defs>
<clipPath id="clip0_108_190">
<rect width="220" height="220" fill="white"/>
</clipPath>
</defs>
</svg>
