<svg width="220" height="220" viewBox="0 0 220 220" fill="none" xmlns="http://www.w3.org/2000/svg">
<g clip-path="url(#clip0_108_191)">
<path d="M110 220C170.751 220 220 170.751 220 110C220 49.2487 170.751 0 110 0C49.2487 0 0 49.2487 0 110C0 170.751 49.2487 220 110 220Z" fill="#008DDE"/>
<path d="M165.199 119.115C165.871 119.14 166.54 119.029 167.168 118.789C167.796 118.55 168.369 118.186 168.853 117.719C169.336 117.253 169.721 116.694 169.984 116.076C170.247 115.457 170.383 114.792 170.383 114.12C170.383 113.448 170.247 112.783 169.984 112.165C169.721 111.547 169.336 110.987 168.853 110.521C168.369 110.055 167.796 109.691 167.168 109.451C166.54 109.212 165.871 109.101 165.199 109.126H153.787V97.8369H177.65C178.321 97.8618 178.991 97.7511 179.619 97.5113C180.246 97.2715 180.819 96.9076 181.303 96.4414C181.787 95.9751 182.172 95.4161 182.435 94.7977C182.698 94.1793 182.833 93.5142 182.833 92.8422C182.833 92.1703 182.698 91.5052 182.435 90.8868C182.172 90.2684 181.787 89.7094 181.303 89.2431C180.819 88.7768 180.246 88.4129 179.619 88.1732C178.991 87.9334 178.321 87.8226 177.65 87.8475H153.69C153.206 82.499 150.964 77.4613 147.315 73.5211C143.666 69.5809 138.815 66.96 133.519 66.0675V54.0432C133.544 53.3717 133.433 52.702 133.194 52.0743C132.954 51.4466 132.59 50.8737 132.124 50.3898C131.657 49.9059 131.098 49.521 130.48 49.2581C129.861 48.9952 129.196 48.8597 128.524 48.8597C127.852 48.8597 127.187 48.9952 126.569 49.2581C125.951 49.521 125.392 49.9059 124.925 50.3898C124.459 50.8737 124.095 51.4466 123.855 52.0743C123.616 52.702 123.505 53.3717 123.53 54.0432V65.7307H112.241V39.4613C112.266 38.7898 112.155 38.1202 111.915 37.4924C111.676 36.8647 111.312 36.2918 110.845 35.8079C110.379 35.324 109.82 34.9391 109.202 34.6762C108.583 34.4133 107.918 34.2778 107.246 34.2778C106.574 34.2778 105.909 34.4133 105.291 34.6762C104.672 34.9391 104.113 35.324 103.647 35.8079C103.181 36.2918 102.817 36.8647 102.577 37.4924C102.337 38.1202 102.227 38.7898 102.252 39.4613V65.7238H90.956V54.0363C90.908 52.7437 90.3608 51.52 89.4294 50.6225C88.4979 49.725 87.2548 49.2235 85.9613 49.2235C84.6678 49.2235 83.4247 49.725 82.4933 50.6225C81.5618 51.52 81.0146 52.7437 80.9666 54.0363V66.0675C75.6709 66.96 70.8197 69.5809 67.1705 73.5211C63.5214 77.4613 61.2796 82.499 60.7954 87.8475H32.5873C31.9158 87.8226 31.2461 87.9334 30.6184 88.1732C29.9907 88.4129 29.4178 88.7768 28.9339 89.2431C28.45 89.7094 28.0651 90.2684 27.8022 90.8868C27.5393 91.5052 27.4038 92.1703 27.4038 92.8422C27.4038 93.5142 27.5393 94.1793 27.8022 94.7977C28.0651 95.4161 28.45 95.9751 28.9339 96.4414C29.4178 96.9076 29.9907 97.2715 30.6184 97.5113C31.2461 97.7511 31.9158 97.8618 32.5873 97.8369H60.706V109.126H49.2935C48.622 109.101 47.9524 109.212 47.3247 109.451C46.6969 109.691 46.124 110.055 45.6401 110.521C45.1562 110.987 44.7713 111.547 44.5085 112.165C44.2456 112.783 44.1101 113.448 44.1101 114.12C44.1101 114.792 44.2456 115.457 44.5085 116.076C44.7713 116.694 45.1562 117.253 45.6401 117.719C46.124 118.186 46.6969 118.55 47.3247 118.789C47.9524 119.029 48.622 119.14 49.2935 119.115H60.706V130.404H38.9604C38.2889 130.379 37.6193 130.49 36.9915 130.729C36.3638 130.969 35.7909 131.333 35.307 131.799C34.8231 132.266 34.4382 132.825 34.1753 133.443C33.9124 134.061 33.7769 134.727 33.7769 135.398C33.7769 136.07 33.9124 136.736 34.1753 137.354C34.4382 137.972 34.8231 138.531 35.307 138.998C35.7909 139.464 36.3638 139.828 36.9915 140.068C37.6193 140.307 38.2889 140.418 38.9604 140.393H60.7954C61.2796 145.742 63.5214 150.779 67.1705 154.72C70.8197 158.66 75.6709 161.281 80.9666 162.173V169.942C80.9417 170.613 81.0525 171.283 81.2922 171.911C81.532 172.539 81.8959 173.111 82.3622 173.595C82.8284 174.079 83.3875 174.464 84.0059 174.727C84.6243 174.99 85.2894 175.125 85.9613 175.125C86.6333 175.125 87.2984 174.99 87.9168 174.727C88.5352 174.464 89.0942 174.079 89.5605 173.595C90.0267 173.111 90.3906 172.539 90.6304 171.911C90.8702 171.283 90.9809 170.613 90.956 169.942V162.51H102.245V185.136C102.293 186.428 102.84 187.652 103.771 188.549C104.703 189.447 105.946 189.948 107.239 189.948C108.533 189.948 109.776 189.447 110.708 188.549C111.639 187.652 112.186 186.428 112.234 185.136V162.51H123.523V174.198C123.498 174.869 123.609 175.539 123.848 176.166C124.088 176.794 124.452 177.367 124.918 177.851C125.385 178.335 125.944 178.72 126.562 178.983C127.181 179.246 127.846 179.381 128.518 179.381C129.19 179.381 129.855 179.246 130.473 178.983C131.091 178.72 131.65 178.335 132.117 177.851C132.583 177.367 132.947 176.794 133.187 176.166C133.426 175.539 133.537 174.869 133.512 174.198V162.18C138.808 161.288 143.659 158.667 147.308 154.726C150.958 150.786 153.199 145.749 153.684 140.4H186.759C187.431 140.425 188.1 140.314 188.728 140.074C189.356 139.835 189.929 139.471 190.413 139.004C190.896 138.538 191.281 137.979 191.544 137.361C191.807 136.742 191.943 136.077 191.943 135.405C191.943 134.733 191.807 134.068 191.544 133.45C191.281 132.832 190.896 132.272 190.413 131.806C189.929 131.34 189.356 130.976 188.728 130.736C188.1 130.496 187.431 130.386 186.759 130.411H153.794V119.122H165.199V119.115ZM145.812 138.241C145.808 142.562 144.09 146.704 141.035 149.759C137.98 152.814 133.838 154.531 129.518 154.535H84.9679C80.6476 154.531 76.5054 152.814 73.4505 149.759C70.3956 146.704 68.6778 142.562 68.6741 138.241V89.9925C68.6778 85.6723 70.3956 81.53 73.4505 78.4751C76.5054 75.4203 80.6476 73.7024 84.9679 73.6988H129.518C133.838 73.7024 137.98 75.4203 141.035 78.4751C144.09 81.53 145.808 85.6723 145.812 89.9925V138.234V138.241Z" fill="white"/>
<path d="M95.5689 85.4888C93.6395 85.4579 91.7097 85.5244 89.787 85.6882C86.7483 86.0319 84.5139 88.7819 84.4176 91.7657C84.2664 98.5307 84.3901 105.309 84.3489 112.074C84.4451 115.526 84.1151 119.018 84.6239 122.435C85.112 125.488 88.0958 127.454 91.0589 127.447C100.271 127.509 109.484 127.468 118.696 127.474V131.29H89.0308L85.2151 142.737H114.736C118.188 142.641 121.673 142.971 125.097 142.469C128.15 141.981 130.109 138.997 130.102 136.034C130.171 123.982 130.116 111.93 130.136 99.8713C130.026 96.6401 130.418 93.3469 129.765 90.1569C129.071 86.9051 125.585 85.3032 122.505 85.5026H101.358C99.4326 85.5369 97.4939 85.4957 95.562 85.4819L95.5689 85.4888ZM95.7958 96.9494H118.69V116.028H95.7958V96.9494Z" fill="white"/>
</g>
<defs>
<clipPath id="clip0_108_191">
<rect width="220" height="220" fill="white"/>
</clipPath>
</defs>
</svg>
