<svg width="220" height="220" viewBox="0 0 220 220" fill="none" xmlns="http://www.w3.org/2000/svg">
<g clip-path="url(#clip0_108_192)">
<path d="M110 220C170.751 220 220 170.751 220 110C220 49.2487 170.751 0 110 0C49.2487 0 0 49.2487 0 110C0 170.751 49.2487 220 110 220Z" fill="#005396"/>
<path d="M84.7549 31.6097C91.8986 29.3088 99.3239 27.9973 106.824 27.7116C117.116 27.2441 127.462 28.9147 137.19 32.2353C153.052 37.8338 166.83 48.1343 176.687 61.7635C178.956 64.7885 180.867 68.0403 182.71 71.3403C184.848 75.5203 186.78 79.8241 188.237 84.286C190.162 90.4116 191.606 96.7572 192.053 103.185C192.287 104.574 192.135 105.99 192.328 107.379C192.397 109.118 192.369 110.858 192.328 112.611C192.135 114.007 192.287 115.423 192.053 116.812C191.64 122.6 190.444 128.32 188.794 133.889C187.404 138.489 185.609 142.957 183.432 147.24C175.322 163.165 162.273 176.036 146.238 183.925C141.766 186.155 137.084 187.935 132.261 189.24C124.183 191.557 115.761 192.54 107.387 192.306C105.992 192.113 104.555 192.265 103.187 192.031C96.9099 191.598 90.7361 190.23 84.7342 188.36C72.6966 184.452 61.7159 177.835 52.6372 169.018C43.5586 160.2 36.6241 149.417 32.3674 137.498C29.6861 129.695 27.9674 121.535 27.7611 113.264C27.4792 109.297 27.7817 105.31 28.1049 101.35C28.703 95.4991 30.0299 89.7103 31.8311 84.121C37.3036 67.7261 47.7709 53.4555 61.7649 43.311C64.7899 41.0422 68.0417 39.1172 71.3417 37.2885C75.6398 35.0106 80.1278 33.1105 84.7549 31.6097ZM100.636 61.3785V80.6422C100.595 80.986 100.911 81.1785 101.083 81.4122C104.039 84.5197 107.023 87.5997 109.979 90.7141C109.958 80.9356 109.958 71.157 109.979 61.3785C106.872 61.3785 103.744 61.3578 100.629 61.3785H100.636ZM60.0049 71.3472C60.713 71.8147 61.2286 72.4953 61.8267 73.0797C68.193 79.5078 74.5799 85.9153 80.9186 92.3847C86.728 98.256 92.558 104.107 98.3399 109.978C91.3342 117.155 84.198 124.209 77.213 131.387C71.6236 137.024 66.0274 142.662 60.4586 148.292C60.3114 148.412 60.16 148.527 60.0049 148.636C68.2342 148.636 76.4842 148.657 84.7342 148.595C93.1561 139.781 101.619 130.995 110.021 122.167C118.442 130.974 126.885 139.781 135.307 148.595C143.536 148.657 151.765 148.615 159.988 148.636C158.73 147.625 157.74 146.367 156.564 145.267C150.672 139.313 144.739 133.353 138.861 127.378C133.162 121.569 127.359 115.849 121.701 109.998C123.076 108.623 124.355 107.193 125.771 105.839C136.551 94.9766 147.29 84.0728 158.063 73.2035C158.709 72.5847 159.245 71.856 159.988 71.3472C151.738 71.3472 143.515 71.3197 135.286 71.361C126.864 80.1678 118.422 88.961 110 97.761C101.599 88.9335 93.1355 80.1472 84.7136 71.361C76.4842 71.3403 68.2342 71.3403 60.0049 71.3403V71.3472ZM110.041 129.2C110.041 139.011 110.062 148.808 110.021 158.625C113.149 158.598 116.277 158.625 119.384 158.625V139.334C119.397 139.231 119.385 139.126 119.347 139.029C119.31 138.932 119.25 138.845 119.171 138.777C117.59 137.058 115.912 135.457 114.352 133.745C112.935 132.198 111.416 130.788 110.041 129.2Z" fill="white"/>
</g>
<defs>
<clipPath id="clip0_108_192">
<rect width="220" height="220" fill="white"/>
</clipPath>
</defs>
</svg>
