<svg width="220" height="220" viewBox="0 0 220 220" fill="none" xmlns="http://www.w3.org/2000/svg">
<g clip-path="url(#clip0_108_193)">
<path d="M110 220C170.751 220 220 170.751 220 110C220 49.2487 170.751 0 110 0C49.2487 0 0 49.2487 0 110C0 170.751 49.2487 220 110 220Z" fill="#372D2C"/>
<path d="M68.5092 127.099L69.2036 126.583H68.9699L65.7661 129.539C66.5211 128.56 67.4541 127.732 68.5161 127.099H68.5092Z" fill="black"/>
<path d="M185.281 92.3984C184.941 91.8702 184.413 91.4916 183.803 91.3396C181.428 90.7565 179.044 90.2064 176.653 89.6896L177.299 86.4996L177.712 84.4921L177.904 83.4746L178.09 82.3746C178.351 80.743 178.168 79.0713 177.561 77.5346C176.919 75.8964 175.864 74.4519 174.499 73.3413C173.134 72.2307 171.506 71.4916 169.771 71.1959C169.2 67.7303 168.41 64.3043 167.406 60.9384L167.289 60.5259L150.198 39.7634L149.559 39.5778C148.864 39.3921 133.464 34.8409 112.503 34.834L112.736 30.6953C114.663 30.0612 116.3 28.7586 117.35 27.0231C118.401 25.2875 118.795 23.2334 118.463 21.2321C118.131 19.2309 117.094 17.4145 115.539 16.1113C113.984 14.808 112.015 14.104 109.986 14.1265C107.961 14.1092 105.997 14.8155 104.447 16.1182C102.897 17.4208 101.863 19.2343 101.531 21.2318C101.199 23.2293 101.592 25.2796 102.638 27.0134C103.684 28.7471 105.315 30.0504 107.236 30.6884L107.477 34.8477C86.4257 34.8684 70.9432 39.3921 70.2832 39.6121L69.6438 39.7978L52.5525 60.5603L52.4425 60.9728C51.4388 64.3415 50.6482 67.7584 50.0775 71.2165H50.0225L48.8125 71.519C46.5527 72.2077 44.6118 73.6781 43.337 75.6671C42.0623 77.656 41.5369 80.0337 41.855 82.3746L42.0407 83.4678L42.2332 84.4853L42.6457 86.4928L43.2919 89.6965C40.92 90.219 38.5482 90.7553 36.1832 91.3328C35.5731 91.4834 35.044 91.8624 34.705 92.3915C34.468 92.7885 34.3537 93.2467 34.3764 93.7085C34.3991 94.1703 34.5578 94.615 34.8326 94.9868C35.1074 95.3586 35.4861 95.6409 35.9209 95.7981C36.3557 95.9553 36.8272 95.9804 37.2763 95.8703C39.5863 95.3065 41.8963 94.7703 44.2132 94.2684L44.385 95.1484C38.9858 112.273 40.2276 130.803 47.8638 147.055C58.2313 169.178 82.0875 193.035 110 193.035C137.906 193.035 161.769 169.178 172.164 147.02C179.775 130.754 180.99 112.221 175.567 95.1003L175.732 94.289C178.056 94.7978 180.379 95.334 182.696 95.8978C183.145 96.0079 183.617 95.9828 184.052 95.8256C184.487 95.6684 184.865 95.3861 185.14 95.0143C185.415 94.6425 185.573 94.1978 185.596 93.736C185.619 93.2742 185.505 92.816 185.268 92.419L185.281 92.3984ZM103.895 22.6721C103.9 20.9017 104.601 19.2042 105.846 17.9453C107.09 16.6863 108.78 15.9667 110.55 15.9415C114.263 15.9415 114.263 29.3684 110.55 29.4027C108.78 29.3775 107.09 28.6579 105.846 27.399C104.601 26.1401 103.9 24.4425 103.895 22.6721ZM108.35 30.9909C108.893 31.094 109.436 31.149 109.986 31.149H110.248L110.77 45.6003C111.108 46.0499 111.272 46.6067 111.231 47.1677C111.191 47.7287 110.949 48.2561 110.55 48.6528C110.332 48.8713 110.072 49.0446 109.787 49.1626C109.501 49.2805 109.195 49.3409 108.886 49.3403C105.408 49.3403 102.609 48.2815 102.609 47.0028C102.609 45.8202 104.961 44.8371 108.041 44.6721L108.886 44.6515H109.12L108.35 30.9909ZM56.0725 64.2453L58.0732 63.5303L61.4763 62.3959L65.945 61.0759C67.5675 60.5809 69.3825 60.1271 71.2732 59.6321L77.2819 58.2778C79.365 57.8653 81.5169 57.4046 83.7444 57.0265C85.9788 56.6484 88.2132 56.3459 90.4819 55.9678C92.7507 55.5896 95.0194 55.404 97.2469 55.1427C99.4813 54.8678 101.674 54.7578 103.826 54.5721C104.961 54.469 106.123 54.4209 107.229 54.3796H107.346L109.993 77.9403L112.674 54.1803H115.548C117.253 54.1803 118.841 54.1046 120.237 54.1803L123.867 54.3315L127.043 54.4415L123.908 54.139L120.278 53.7952C118.876 53.6509 117.322 53.6096 115.589 53.4996C113.738 53.3626 111.883 53.287 110.028 53.2728H110C108.048 53.2728 105.944 53.1559 103.799 53.2315C101.661 53.3071 99.4125 53.2728 97.1438 53.424L90.2619 53.8778C87.9519 54.0634 85.6488 54.2559 83.38 54.5584C81.1113 54.8609 78.8769 55.1978 76.7594 55.4659C74.7175 55.7202 72.7032 56.1121 70.8057 56.449L67.4232 56.1809L74.1538 46.9959L107.766 39.6671L107.972 43.3109C103.434 43.6684 100.031 45.174 100.031 46.9821C100.031 49.0446 104.5 50.7221 110.014 50.7221C115.528 50.7221 119.996 49.0515 119.996 46.9821C119.996 45.174 116.593 43.6684 112.056 43.3109L112.262 39.6809L145.729 46.989L152.467 56.174L143.103 56.9303L142.931 56.9096L143.034 56.9371H142.897L160.82 65.8196C160.82 65.8196 168.548 90.6384 157.898 111.731C156.683 114.115 155.268 116.391 153.67 118.537C153.67 118.537 137.129 126.175 111.698 127.523L110 120.531C112.079 120.6 114.151 120.24 116.084 119.472L121.378 117.733C132.131 114.419 142.897 111.153 153.67 107.943L154.729 107.64L155.073 106.657L155.416 105.674L155.678 104.725L156.166 102.869C157.032 99.2253 157.651 95.5265 158.022 91.7934L158.324 88.0121L158.393 86.1215V84.1965L158.434 82.2303L158.249 80.264L157.946 78.2978C157.817 77.6588 157.652 77.0276 157.451 76.4071L157.149 75.424L156.805 74.2484L156.564 74.214L156.468 73.9115L156.124 72.7359L154.77 72.5503C143.607 71.2483 132.388 70.4774 121.151 70.2403L119.983 70.2059L119.488 71.189L113.328 83.2615L110 83.3165L106.356 83.3853L99.7563 71.5603L99.4125 70.9209L98.725 70.9621C93.1357 71.2715 87.5532 71.7253 81.9775 72.3234C76.4222 72.9127 70.8872 73.6808 65.3813 74.6265H65.4913H65.4225L65.1888 75.3828C65.1274 75.578 65.0723 75.7752 65.0238 75.974C65.1338 75.5271 65.2644 75.0871 65.4019 74.6265C65.1846 75.2342 64.9321 75.8288 64.6457 76.4071C64.5219 76.8884 64.3844 77.3628 64.295 77.844L64.2263 78.0296L63.8138 79.8859L63.5113 81.7353L63.3188 83.6259C63.25 84.8771 63.2088 86.1628 63.25 87.4071L63.3944 91.1884C63.6488 94.9696 64.1507 98.7371 64.9069 102.457L65.3194 104.313L65.8557 106.203L66.0069 106.657L66.5363 106.843L87.9382 113.876C94.2357 115.925 100.526 118.035 106.803 120.194C107.339 120.304 107.883 120.38 108.433 120.421L108.811 120.455H108.921L109.113 120.497L109.904 120.531H110.021L108.274 127.647C102.033 127.829 95.7865 127.604 89.5744 126.973C74.2982 124.924 64.2469 121.267 61.6344 120.228C53.1561 102.83 51.1856 82.9708 56.0794 64.2453H56.0725ZM137.198 74.764L116.978 112.886L115.624 115.43L114.641 115.767C113.463 116.192 112.227 116.433 110.976 116.482C109.059 116.674 107.122 116.442 105.304 115.801L104.617 115.54L105.483 113.924L126.658 74.049L127.614 72.2409C131.051 72.3921 134.571 72.6603 138.16 72.9628L137.198 74.764ZM143.413 75.3828L144.403 73.5128L147.311 73.7809L150.074 74.0834L150.418 74.1178H150.638L149.621 76.0428L132.846 107.654L131.471 110.246L123.606 112.742L124.96 110.177L143.413 75.3828ZM44.7563 84.114L44.6463 83.0965L44.5707 82.1134C44.4666 80.56 44.9016 79.0184 45.8021 77.7484C46.7026 76.4784 48.0135 75.5579 49.5138 75.1421C48.1913 86.3896 49.1738 97.7887 52.4013 108.644L52.0919 108.548C50.9753 108.153 49.9611 107.513 49.1236 106.676C48.2862 105.839 47.6467 104.824 47.2519 103.708C46.9516 102.761 46.7624 101.783 46.6882 100.793L44.9832 86.1765L44.7563 84.114ZM63.69 162.853L63.5869 162.771L63.635 162.84C63.2516 162.736 62.8982 162.543 62.6038 162.276C58.3622 157.015 54.7576 151.271 51.865 145.164C45.9268 132.495 44.0999 118.285 46.64 104.526L46.6675 104.595C47.2563 105.717 48.0853 106.695 49.0953 107.461C50.1054 108.226 51.2717 108.759 52.5113 109.022C53.9757 113.848 55.8732 118.53 58.1832 123.013L58.5269 123.618L59.1663 123.92C61.5863 124.91 64.0544 125.777 66.5638 126.526H66.6257L66.4469 126.581C65.8912 126.768 65.3431 126.977 64.8038 127.207C64.3503 127.396 63.901 127.595 63.4563 127.805L60.5413 129.2L59.5994 129.654L59.4825 130.603C58.661 137.794 59.3781 145.077 61.5863 151.97C62.6519 155.401 64.1507 158.68 66.0482 161.733L66.0825 161.802L66.1994 162.104C66.3644 162.867 64.8932 163.177 63.69 162.86V162.853ZM89.6775 178.061C84.3549 176.114 79.4896 173.093 75.3844 169.185C73.0437 166.897 71.0454 164.283 69.4513 161.423C67.8679 158.561 66.6484 155.513 65.8213 152.348C65.0101 149.178 64.5149 145.936 64.3432 142.668C64.1381 139.802 64.228 136.923 64.6113 134.075L66.385 133.367C68.2069 132.768 70.0494 132.239 71.9057 131.785L74.745 131.215C77.1994 130.802 79.6675 130.507 82.1563 130.342H82.4519L82.5619 130.355C80.4374 136.145 79.3663 142.269 79.3994 148.437C79.3994 160.743 83.4557 171.213 89.8975 178.192L89.6775 178.061ZM119.24 170.203C116.394 171.814 113.174 172.648 109.904 172.623C106.496 172.639 103.149 171.724 100.224 169.976C98.8348 168.473 97.6512 166.792 96.7038 164.978C98.3065 166.837 100.284 168.337 102.507 169.38C104.729 170.422 107.147 170.984 109.601 171.027C112.056 171.071 114.492 170.595 116.75 169.632C119.008 168.669 121.037 167.24 122.705 165.438C121.764 167.174 120.599 168.778 119.24 170.21V170.203ZM109.904 167.329C108.134 167.337 106.379 166.996 104.741 166.326C103.102 165.656 101.612 164.67 100.355 163.424C99.0978 162.177 98.0986 160.696 97.4143 159.063C96.73 157.431 96.3741 155.679 96.3669 153.909V153.861C96.3642 151.198 97.1505 148.594 98.6265 146.378C100.102 144.162 102.202 142.433 104.66 141.409C107.118 140.385 109.824 140.112 112.437 140.625C115.05 141.137 117.452 142.413 119.341 144.29C121.23 146.167 122.52 148.562 123.049 151.171C123.577 153.781 123.321 156.489 122.312 158.953C121.303 161.417 119.587 163.527 117.38 165.017C115.172 166.506 112.573 167.309 109.911 167.322V167.329H109.904ZM127.009 151.248C126.316 147.158 124.181 143.451 120.99 140.8C117.798 138.149 113.762 136.73 109.614 136.8C105.466 136.87 101.481 138.424 98.3803 141.181C95.2801 143.938 93.2705 147.714 92.7163 151.826C92.5116 150.268 92.3854 148.701 92.3382 147.13C93.7216 143.601 96.1418 140.573 99.2799 138.446C102.418 136.32 106.127 135.193 109.918 135.216H109.986C113.702 135.207 117.338 136.302 120.43 138.362C123.523 140.422 125.935 143.354 127.359 146.787C127.313 148.281 127.196 149.772 127.009 151.255V151.248ZM129.979 178.274H130.048L129.91 178.322C136.441 171.337 140.566 160.798 140.566 148.395C140.603 142.227 139.53 136.102 137.397 130.314H137.493C147.221 131.717 152.288 136.708 152.288 136.708C152.288 136.708 153.319 165.212 129.993 178.274H129.979ZM174.412 116.812V118.283C174.412 118.62 174.384 118.95 174.378 119.28C174.354 120.032 174.313 120.784 174.254 121.535C174.254 121.768 174.213 122.009 174.192 122.243C174.151 122.731 174.109 123.226 174.054 123.707C174.054 123.817 174.034 123.927 174.02 124.037C173.968 124.51 173.91 124.982 173.848 125.453V125.522L173.656 126.883V126.932C172.566 134.024 170.342 140.895 167.069 147.282L166.836 147.735C166.595 148.196 166.354 148.663 166.1 149.124C163.606 153.775 160.683 158.183 157.369 162.29C157.09 162.556 156.75 162.749 156.379 162.853L156.42 162.785L156.317 162.867C155.128 163.211 153.608 162.915 153.773 162.111L153.89 161.808L153.959 161.74C155.836 158.673 157.328 155.401 158.393 151.977C160.564 145.091 161.271 137.827 160.469 130.651L160.359 129.709L159.411 129.255C158.428 128.76 157.486 128.272 156.503 127.853L153.512 126.643L153.244 126.547L153.313 126.526C155.808 125.79 158.263 124.91 160.662 123.907L161.301 123.604L161.645 122.999C163.948 118.517 165.839 113.842 167.296 109.029C169.874 108.5 172.074 106.85 173.298 104.526C174.02 108.39 174.398 112.315 174.433 116.248C174.42 116.435 174.413 116.623 174.412 116.812Z" fill="white"/>
<path d="M66.3161 76.5529L67.9042 74.6279H68.4336H67.643C66.8455 75.7967 65.8692 76.9173 64.9961 78.0654C65.498 77.5567 65.8898 77.0823 66.3161 76.5529Z" fill="black"/>
<path d="M116.531 42.6934C119.859 43.5665 122.052 45.1546 122.052 47.004C122.052 48.8602 119.824 50.4415 116.531 51.3146C121.069 50.9021 124.472 49.1215 124.472 47.004C124.472 44.8865 121.069 43.0921 116.531 42.6934ZM105.593 59.6884C106.051 59.6884 106.491 59.5082 106.818 59.1867C107.145 58.8651 107.332 58.428 107.339 57.9696C107.339 57.7395 107.294 57.5116 107.205 57.2992C107.117 57.0868 106.987 56.894 106.824 56.7321C106.661 56.5719 106.467 56.4466 106.254 56.3638C106.042 56.2811 105.814 56.2426 105.586 56.2509C105.135 56.2563 104.705 56.4402 104.389 56.7624C104.073 57.0845 103.898 57.5186 103.902 57.9696C103.902 58.9184 104.658 59.6884 105.593 59.6884ZM59.9086 65.4771C59.5675 65.4803 59.2349 65.5842 58.9526 65.7756C58.6702 65.967 58.4507 66.2376 58.3215 66.5533C58.1923 66.869 58.1591 67.2158 58.2262 67.5502C58.2933 67.8847 58.4576 68.1919 58.6986 68.4334C59.0217 68.7565 59.4548 68.9284 59.9086 68.9146C60.2497 68.9114 60.5823 68.8076 60.8646 68.6161C61.1469 68.4247 61.3665 68.1542 61.4957 67.8385C61.6249 67.5228 61.658 67.1759 61.591 66.8415C61.5239 66.507 61.3596 66.1998 61.1186 65.9584C60.9608 65.7993 60.7719 65.6744 60.5637 65.5916C60.3556 65.5088 60.1325 65.4698 59.9086 65.4771ZM64.673 120.979C65.0141 120.976 65.3466 120.872 65.629 120.681C65.9113 120.489 66.1308 120.219 66.2601 119.903C66.3893 119.587 66.4224 119.24 66.3553 118.906C66.2882 118.571 66.1239 118.264 65.883 118.023C65.7252 117.864 65.5363 117.739 65.3281 117.656C65.1199 117.573 64.8969 117.534 64.673 117.541C64.2182 117.545 63.7831 117.727 63.4616 118.049C63.14 118.37 62.9578 118.806 62.9542 119.26C62.9886 120.223 63.7448 120.979 64.673 120.979ZM106.418 127.558C106.759 127.555 107.092 127.451 107.374 127.26C107.656 127.068 107.876 126.798 108.005 126.482C108.134 126.167 108.167 125.82 108.1 125.485C108.033 125.151 107.869 124.844 107.628 124.602C107.47 124.443 107.281 124.318 107.073 124.235C106.865 124.153 106.642 124.114 106.418 124.121C105.959 124.13 105.522 124.319 105.2 124.646C104.879 124.974 104.699 125.415 104.699 125.874C104.729 126.317 104.921 126.733 105.238 127.044C105.555 127.354 105.975 127.537 106.418 127.558ZM115.802 59.7227C116.261 59.7228 116.701 59.5426 117.028 59.221C117.354 58.8995 117.541 58.4623 117.549 58.004C117.549 57.7739 117.503 57.546 117.415 57.3336C117.326 57.1211 117.197 56.9284 117.033 56.7665C116.87 56.6063 116.677 56.481 116.464 56.3982C116.251 56.3155 116.024 56.277 115.795 56.2852C115.344 56.2907 114.914 56.4746 114.598 56.7967C114.283 57.1189 114.107 57.553 114.111 58.004C114.111 58.9596 114.867 59.7227 115.802 59.7227ZM114.964 124.162C114.51 124.169 114.077 124.353 113.756 124.673C113.435 124.994 113.252 125.427 113.245 125.881C113.314 126.823 114.049 127.565 114.964 127.6C115.305 127.596 115.637 127.493 115.92 127.301C116.202 127.11 116.421 126.839 116.551 126.523C116.68 126.208 116.713 125.861 116.646 125.526C116.579 125.192 116.415 124.885 116.174 124.643C116.016 124.484 115.827 124.359 115.619 124.277C115.411 124.194 115.188 124.155 114.964 124.162ZM68.3717 135.733C68.0721 135.711 67.7726 135.774 67.5074 135.916C67.2423 136.057 67.0224 136.27 66.873 136.53C66.7142 136.797 66.627 137.101 66.6198 137.412C66.6126 137.722 66.6856 138.03 66.8317 138.304C67.1342 138.854 67.698 139.191 68.303 139.163H68.3717C68.8216 139.154 69.25 138.969 69.5649 138.648C69.8798 138.327 70.0562 137.895 70.0561 137.445C70.0609 137.007 69.8986 136.584 69.6023 136.262C69.4443 136.093 69.2526 135.958 69.0395 135.867C68.8264 135.776 68.5966 135.73 68.3648 135.733H68.3717ZM78.7461 132.632C78.5222 132.634 78.3008 132.68 78.0946 132.767C77.8885 132.854 77.7015 132.982 77.5445 133.141C77.3874 133.301 77.2634 133.49 77.1793 133.697C77.0953 133.905 77.053 134.127 77.0548 134.351C77.0548 135.3 77.8111 136.07 78.7461 136.07C79.2045 136.07 79.6445 135.889 79.9713 135.568C80.298 135.246 80.4851 134.809 80.4923 134.351C80.4925 134.121 80.4471 133.893 80.3585 133.68C80.27 133.468 80.1403 133.275 79.9767 133.113C79.8141 132.953 79.6204 132.828 79.4076 132.745C79.1948 132.662 78.9674 132.624 78.7392 132.632H78.7461ZM142.656 132.632C142.43 132.641 142.209 132.694 142.003 132.788C141.798 132.882 141.613 133.016 141.46 133.182C141.306 133.347 141.187 133.542 141.108 133.753C141.03 133.965 140.994 134.19 141.003 134.416C141.011 134.642 141.064 134.864 141.158 135.069C141.253 135.274 141.387 135.459 141.552 135.612C141.718 135.766 141.912 135.885 142.124 135.964C142.336 136.042 142.561 136.078 142.787 136.07C143.243 136.051 143.672 135.853 143.982 135.518C144.291 135.182 144.455 134.738 144.437 134.282C144.418 133.826 144.22 133.396 143.885 133.087C143.549 132.777 143.105 132.614 142.649 132.632H142.656Z" fill="white"/>
</g>
<defs>
<clipPath id="clip0_108_193">
<rect width="220" height="220" fill="white"/>
</clipPath>
</defs>
</svg>
