<svg width="220" height="220" viewBox="0 0 220 220" fill="none" xmlns="http://www.w3.org/2000/svg">
<g clip-path="url(#clip0_108_194)">
<path d="M110 220C170.751 220 220 170.751 220 110C220 49.2487 170.751 0 110 0C49.2487 0 0 49.2487 0 110C0 170.751 49.2487 220 110 220Z" fill="#00A6C4"/>
<path d="M170.342 72.1875L171.717 74.4631C178.573 85.9768 182.191 99.1294 182.187 112.53C182.064 152.872 149.772 185.625 110 185.625H109.876C70.1042 185.625 37.6886 152.618 37.8124 112.276C37.8124 98.7456 41.5524 85.5937 48.4067 74.2087L49.658 72.0638L56.2649 78.7669C54.9553 80.6812 53.9078 82.7621 53.1505 84.9544C50.6314 91.9348 50.9739 99.628 54.1033 106.357C57.2328 113.086 62.8954 118.305 69.8567 120.876C73.9493 122.334 78.3275 122.807 82.6369 122.257C86.9464 121.708 91.0658 120.151 94.6617 117.714L110 133.396L127.579 115.562C129.202 116.703 131.072 117.59 133.065 118.346C147.159 123.406 162.614 115.94 167.599 101.777C170.589 93.4312 169.221 84.7069 164.855 77.7494L170.342 72.1875ZM64.3705 86.9825L85.0642 107.848C82.5686 109.876 79.4542 111.011 76.0855 111.011C67.9867 111.011 61.373 104.308 61.373 96.0919C61.373 92.675 62.5005 89.5125 64.3705 86.9825ZM136.558 106.583L157.004 85.8481C158.627 88.2544 159.493 91.1556 159.493 94.1944C159.493 102.41 152.893 109.113 144.78 109.113C141.666 109.113 138.923 108.226 136.558 106.583ZM110.247 122.265L50.6549 61.5588L53.0199 59.0356C67.7324 43.2231 87.8074 34.375 109.381 34.375H109.505C131.326 34.375 152.267 43.8625 166.856 60.2938L169.104 62.8306L110.254 122.265H110.247ZM60.3761 61.5588L110.247 112.276L159.5 62.5763C146.286 49.17 128.335 41.4563 109.635 41.4563H109.505C90.9286 41.4563 73.6036 48.5375 60.383 61.5656L60.3761 61.5588Z" fill="white"/>
</g>
<defs>
<clipPath id="clip0_108_194">
<rect width="220" height="220" fill="white"/>
</clipPath>
</defs>
</svg>
