<svg width="220" height="220" viewBox="0 0 220 220" fill="none" xmlns="http://www.w3.org/2000/svg">
<g clip-path="url(#clip0_108_195)">
<path d="M110 220C170.751 220 220 170.751 220 110C220 49.2487 170.751 0 110 0C49.2487 0 0 49.2487 0 110C0 170.751 49.2487 220 110 220Z" fill="#001D57"/>
<path d="M140.931 36.3555L149.202 44.633L133.547 60.7205C136.847 65.7392 138.621 71.6586 138.621 77.7636C138.677 85.7962 135.57 93.5284 129.972 99.2892C125.885 103.607 120.56 106.551 114.73 107.718V121.736C120.531 122.934 125.835 125.858 129.945 130.124C135.56 135.89 138.677 143.636 138.621 151.684C138.675 159.729 135.558 167.472 129.945 173.237C127.209 176.071 123.93 178.324 120.303 179.862C116.677 181.4 112.778 182.191 108.838 182.188C104.898 182.2 100.996 181.413 97.3684 179.874C93.7407 178.336 90.4626 176.078 87.7322 173.237C82.1361 167.462 79.0241 159.725 79.0629 151.684C79.0629 143.571 82.1429 135.878 87.7116 130.151C91.7998 125.836 97.1246 122.894 102.953 121.729V107.704C97.1525 106.506 91.8492 103.582 87.7391 99.3167C82.1388 93.5412 79.0242 85.8015 79.0629 77.7567C79.0629 69.6442 82.1429 61.9511 87.7391 56.2036C90.4743 53.3682 93.7531 51.1135 97.3796 49.5743C101.006 48.0351 104.906 47.2431 108.845 47.2455C114.758 47.2455 120.443 49.0467 125.311 52.3948L140.938 36.3555H140.931ZM108.845 132.997C106.459 132.978 104.093 133.451 101.897 134.385C99.7006 135.319 97.72 136.696 96.0785 138.429C92.6379 141.98 90.7253 146.739 90.7504 151.684C90.7504 156.668 92.641 161.322 96.0785 164.932C97.7324 166.648 99.7153 168.014 101.909 168.947C104.102 169.881 106.462 170.362 108.845 170.363C111.231 170.381 113.595 169.908 115.79 168.974C117.985 168.04 119.965 166.664 121.605 164.932C125.044 161.382 126.957 156.626 126.933 151.684C126.933 146.699 125.043 142.045 121.585 138.408C119.945 136.681 117.969 135.31 115.777 134.379C113.586 133.448 111.226 132.978 108.845 132.997ZM121.585 91.1286C125.036 87.5737 126.956 82.8076 126.933 77.853C126.965 75.4012 126.51 72.9674 125.596 70.6924C124.681 68.4173 123.325 66.3459 121.605 64.598C119.953 62.8814 117.971 61.5157 115.779 60.5825C113.586 59.6494 111.228 59.1678 108.845 59.1667C106.459 59.1476 104.093 59.6199 101.897 60.5543C99.7006 61.4887 97.72 62.8651 96.0785 64.598C92.6379 68.1498 90.7253 72.908 90.7504 77.853C90.7504 82.8373 92.641 87.4917 96.0785 91.1011C97.7324 92.8178 99.7153 94.1836 101.909 95.1168C104.102 96.0499 106.462 96.5314 108.845 96.5323C113.733 96.5323 118.243 94.6348 121.585 91.1286Z" fill="white"/>
</g>
<defs>
<clipPath id="clip0_108_195">
<rect width="220" height="220" fill="white"/>
</clipPath>
</defs>
</svg>
