<svg width="220" height="220" viewBox="0 0 220 220" fill="none" xmlns="http://www.w3.org/2000/svg">
<g clip-path="url(#clip0_108_197)">
<path d="M110 220C170.751 220 220 170.751 220 110C220 49.2487 170.751 0 110 0C49.2487 0 0 49.2487 0 110C0 170.751 49.2487 220 110 220Z" fill="#F1B32B"/>
<path d="M108.281 27.5C63.6625 27.5 27.5 63.6625 27.5 108.281C27.5 152.9 63.6625 189.062 108.281 189.062C152.9 189.062 189.062 152.9 189.062 108.281C189.062 86.8567 180.552 66.3097 165.402 51.1603C150.253 36.0109 129.706 27.5 108.281 27.5ZM108.281 168.919C92.1992 168.919 76.7758 162.53 65.4041 151.158C54.0323 139.787 47.6437 124.363 47.6437 108.281C47.6437 92.1992 54.0323 76.7758 65.4041 65.4041C76.7758 54.0323 92.1992 47.6437 108.281 47.6437C124.363 47.6437 139.787 54.0323 151.158 65.4041C162.53 76.7758 168.919 92.1992 168.919 108.281C168.919 124.363 162.53 139.787 151.158 151.158C139.787 162.53 124.363 168.919 108.281 168.919ZM88.1375 108.35L108.35 138.6L128.425 108.35L108.35 78.0313L88.1375 108.35Z" fill="white"/>
</g>
<defs>
<clipPath id="clip0_108_197">
<rect width="220" height="220" fill="white"/>
</clipPath>
</defs>
</svg>
