<svg width="220" height="220" viewBox="0 0 220 220" fill="none" xmlns="http://www.w3.org/2000/svg">
<g clip-path="url(#clip0_108_196)">
<path d="M110 220C170.751 220 220 170.751 220 110C220 49.2487 170.751 0 110 0C49.2487 0 0 49.2487 0 110C0 170.751 49.2487 220 110 220Z" fill="#5411B3"/>
<path fill-rule="evenodd" clip-rule="evenodd" d="M110.364 34.375C114.008 36.5681 117.624 38.8094 121.296 40.9475C138.724 51.0537 156.152 61.1462 173.601 71.2113C174.749 71.8713 175.258 72.6069 175.258 74.0162C175.223 98.0238 175.23 122.031 175.313 146.039C175.313 147.606 174.598 148.259 173.456 148.919C152.714 160.923 131.986 172.948 111.258 184.972C110.942 185.158 110.66 185.405 110.364 185.625H109.608C103.352 181.94 97.0957 178.221 90.8188 174.57C76.0101 165.969 61.1876 157.382 46.3513 148.837C45.0932 148.115 44.6807 147.29 44.6876 145.846C44.7563 122.031 44.7701 98.2163 44.722 74.3944C44.722 72.6894 45.3063 71.83 46.7088 71.0256C67.2582 59.1731 87.7732 47.2794 108.295 35.3856C108.769 35.1106 109.175 34.7119 109.608 34.375H110.364ZM129.656 154.55C132.495 156.496 135.273 158.538 138.133 160.6C138.291 160.531 138.524 160.435 138.738 160.318C148.019 154.949 157.321 149.593 166.574 144.162C167.124 143.839 167.606 142.89 167.606 142.237C167.654 120.746 167.647 99.2612 167.585 77.7769C167.554 77.4029 167.442 77.0401 167.257 76.7137C167.071 76.3873 166.818 76.1049 166.513 75.8862C157.369 70.51 148.177 65.23 139.026 59.8744C138.078 59.3244 137.548 59.4894 136.744 60.115C134.523 61.8544 112.688 75.1919 104.136 80.3275C97.4532 84.3288 90.922 88.55 85.752 94.5587C78.6226 102.843 77.9557 114.324 84.1913 123.331C87.2782 127.799 91.3963 131.196 95.8101 134.214C99.3301 136.613 102.96 138.841 106.535 141.144C106.439 141.281 106.384 141.419 106.288 141.474C101.571 144.21 96.8688 146.974 92.0976 149.634C91.637 149.889 90.6813 149.634 90.1588 149.304C85.0899 146.033 80.44 142.154 76.3126 137.754C64.4188 125.283 61.9988 104.844 70.6751 89.9319C74.6714 83.0529 80.2293 77.21 86.9001 72.875C95.5626 67.21 119.694 52.8894 122.891 50.93C122.616 50.5725 122.54 50.38 122.396 50.2906C118.601 48.0769 114.833 45.8219 110.983 43.7112C110.419 43.4019 109.395 43.5187 108.783 43.835C106.666 44.9281 104.638 46.1863 102.582 47.3894C100.767 48.4481 98.9588 49.5206 96.8757 50.7512L106.762 56.9663C101.709 59.95 96.9307 62.81 92.0976 65.5806C91.7126 65.8006 90.8876 65.6287 90.4682 65.34C88.0746 63.7292 85.7402 62.0323 83.4695 60.2525C82.4726 59.4619 81.8126 59.3862 80.6988 60.0394C71.7078 65.2972 62.6922 70.513 53.6526 75.6869C52.6557 76.2575 52.3326 76.9244 52.3326 78.0794C52.367 99.3781 52.3601 120.677 52.3257 141.969C52.3257 143.11 52.6213 143.784 53.6457 144.375C62.6245 149.518 71.5757 154.715 80.5063 159.947C81.4963 160.531 82.1563 160.504 83.1532 159.837C89.5607 155.554 118.876 137.177 127.023 132.11C128.404 131.251 129.566 130.02 130.818 128.961L130.611 128.48H100.183C103.276 123.104 106.164 118.03 109.154 113.018C109.429 112.564 110.44 112.372 111.114 112.372C124.912 112.337 138.717 112.351 152.515 112.351C153.065 112.351 153.615 112.413 154.282 112.448C154.316 113.101 154.468 113.685 154.344 114.194C153.436 117.968 152.831 121.866 151.456 125.469C148.198 134.035 142.154 140.621 134.791 145.695C126.748 151.229 101.138 166.32 96.7932 168.912C96.9995 169.276 97.027 169.428 97.1163 169.482C99.7632 171.043 102.603 172.349 105.016 174.219C108.488 176.901 111.513 176.887 114.984 174.219C117.487 172.301 120.416 170.947 123.448 169.166L113.383 162.876C113.658 162.635 113.816 162.443 114.015 162.326C118.621 159.651 123.228 156.963 127.875 154.351C128.315 154.11 129.209 154.241 129.656 154.55ZM149.552 90.3581C151.924 94.5656 153.691 99.9762 153.952 104.149C149.291 104.149 144.794 104.177 140.291 104.115C139.879 104.108 139.233 103.634 139.102 103.235C136.902 96.4425 132.206 91.6162 126.658 87.56C122.719 84.6794 118.525 82.1425 114.448 79.4475C114.104 79.2275 113.768 78.9869 113.211 78.6019C114.139 78.045 114.861 77.5981 115.603 77.165C119.398 74.965 123.166 72.7169 127.016 70.5994C127.703 70.2144 128.941 69.9806 129.498 70.345C137.541 75.6319 144.726 81.8056 149.552 90.3581Z" fill="white"/>
</g>
<defs>
<clipPath id="clip0_108_196">
<rect width="220" height="220" fill="white"/>
</clipPath>
</defs>
</svg>
