<svg width="220" height="220" viewBox="0 0 220 220" fill="none" xmlns="http://www.w3.org/2000/svg">
<g clip-path="url(#clip0_108_198)">
<path d="M110 220C170.751 220 220 170.751 220 110C220 49.2487 170.751 0 110 0C49.2487 0 0 49.2487 0 110C0 170.751 49.2487 220 110 220Z" fill="#FFF300"/>
<path d="M155.65 65.7795C153.313 60.5476 151.147 50.2076 145.166 47.9045C137.466 44.9483 132.715 64.322 131.581 69.217H130.433C128.494 60.8295 125.895 48.9358 116.683 46.2958C112.42 64.2051 121.138 83.517 129.291 99.0201C137.995 94.8539 142.237 81.8326 143.041 72.6545H144.189L153.361 100.161C160.738 98.0439 163.302 90.7426 165.963 84.1151C171.683 69.8976 176.481 52.4076 172.838 37.1245C161.838 40.2458 158.483 55.9826 155.65 65.7795ZM45.6226 102.458C55.4676 97.7551 60.1563 82.8639 61.6688 72.6545H62.8101C63.9788 77.577 67.0932 90.2683 73.2395 91.0795C81.077 92.1176 85.1813 74.7376 85.7313 69.217H86.8795C89.3751 77.8451 92.0082 89.072 100.629 93.2864C103.819 79.9214 100.011 65.6695 95.1226 53.1708C93.8645 49.9601 91.2863 41.2908 86.852 41.2908C79.592 41.2908 75.5082 60.4308 74.2707 65.7795H73.1295L63.9582 38.2726C47.8295 45.9726 39.0707 86.927 45.6226 102.458ZM28.4282 116.208C40.3907 168.416 95.6038 198.02 145.338 175.965C163.368 167.953 177.852 153.631 186.065 135.691C188.203 131.058 192.404 122.663 189.956 116.579C187.516 110.515 163.866 120.415 157.953 123.007C157.545 123.188 157.189 123.468 156.917 123.822C156.645 124.177 156.467 124.594 156.399 125.035C156.303 125.665 156.338 126.307 156.501 126.923C156.665 127.538 156.954 128.113 157.35 128.611C157.747 129.11 158.242 129.521 158.805 129.819C159.367 130.117 159.986 130.295 160.621 130.343L170.548 131.113C152.57 165.914 103.957 181.3 69.692 153.498C62.0195 147.276 55.1788 139.885 50.5726 131.113C48.3451 126.871 46.2757 121.446 42.4945 118.531C38.8507 115.74 33.337 114.778 28.4282 116.208Z" fill="white"/>
</g>
<defs>
<clipPath id="clip0_108_198">
<rect width="220" height="220" fill="white"/>
</clipPath>
</defs>
</svg>
