<svg width="220" height="220" viewBox="0 0 220 220" fill="none" xmlns="http://www.w3.org/2000/svg">
<g clip-path="url(#clip0_108_199)">
<path d="M110 220C170.751 220 220 170.751 220 110C220 49.2487 170.751 0 110 0C49.2487 0 0 49.2487 0 110C0 170.751 49.2487 220 110 220Z" fill="#377E96"/>
<path fill-rule="evenodd" clip-rule="evenodd" d="M162.422 206.731L163 206.305C161.405 203.383 158.82 201.85 155.911 201.156C151.759 200.166 147.538 199.251 143.303 198.956C133.891 198.275 124.451 198.117 115.033 197.546C104.541 196.907 94.064 196.02 83.5658 195.333C82.6515 195.264 81.3384 195.608 80.8159 196.261C78.0659 199.629 75.4052 203.094 72.9302 206.669C71.7202 208.423 70.9709 210.485 70.029 212.376L70.7509 212.788C66.6126 211.208 62.5741 209.378 58.6577 207.309C59.3727 207.446 60.3077 207.336 60.6584 206.986C64.9621 202.675 69.1283 198.227 73.3152 193.827C70.1871 191.324 67.1277 189.104 64.3434 186.588C61.7446 184.236 60.6584 181.122 60.8852 177.554C61.229 172.074 63.6283 167.406 67.1552 163.488C71.3284 158.861 76.0102 154.688 80.479 150.329C81.029 149.799 81.5996 149.311 82.1084 148.844C81.9365 148.541 81.9159 148.452 81.8677 148.418L80.5615 147.661C66.2065 139.384 59.0496 126.809 58.864 110.399C58.699 96.3463 64.6802 84.9682 75.2608 75.9825C85.5733 67.2307 97.7215 64.1575 111.052 64.4601C120.918 64.6869 130.137 66.8663 138.724 71.7682C139.205 72.0432 140.415 71.72 140.855 71.2594C144.918 67.0038 149.036 62.7894 152.845 58.3C157.575 52.7313 161.576 46.6813 163.233 39.38C164.526 33.6875 163.976 28.3388 159.851 23.8975C153.794 17.3732 143.371 18.2532 138.057 25.685C137.012 27.1425 136.407 28.9163 135.383 30.4082C135.005 30.9582 134.042 31.1163 133.341 31.46C133.176 30.8413 132.791 30.2019 132.88 29.6313C133.114 28.0638 133.416 26.4688 133.932 24.9838C136.545 17.49 141.398 12.375 149.538 11.2338C152.185 10.8625 154.935 11.1719 157.699 11.1719C157.561 10.9863 157.506 10.8282 157.396 10.78C156.885 10.5044 156.364 10.2453 155.836 10.0032C150.648 7.63285 145.288 5.65643 139.803 4.09067C150.104 6.9828 159.925 11.3699 168.953 17.1119C169.008 17.71 168.974 17.8682 169.043 17.9507C175.113 25.4375 174.336 33.3782 170.514 41.4632C167.269 48.3038 162.539 54.0925 157.431 59.6063C152.756 64.6525 148.053 69.6782 143.344 74.7313C143.536 74.855 143.646 74.9925 143.756 74.9925C150.955 74.9994 158.153 75.1025 165.344 74.9513C169.098 74.8825 172.432 73.6382 174.749 70.3175C175.189 69.6782 176.385 69.5613 177.238 69.2038L177.719 69.8707C175.725 75.6182 173.759 81.3725 171.655 87.0719C171.476 87.5532 170.418 87.945 169.744 87.9725C167.2 88.0825 164.656 88.0207 162.113 88.0207H152.969L154.007 90.0832C158.957 99.7769 160.27 110.055 157.768 120.539C154.076 136.008 143.956 146.004 129.236 151.202C117.219 155.451 104.885 155.299 92.5446 152.35C91.4515 152.089 89.7602 151.869 89.1758 152.453C86.5221 155.107 83.7171 157.781 81.8059 160.958C77.8665 167.503 80.1559 172.054 87.6634 173.635L87.8765 173.663C95.2465 174.233 102.61 174.934 109.986 175.34C120.423 175.911 130.873 176.138 141.302 176.763C147.62 177.141 153.856 178.255 159.548 181.273C166.877 185.144 172.068 190.85 174.343 199.189C174.88 198.811 175.416 198.433 175.952 198.041C171.669 201.252 167.152 204.16 162.408 206.731H162.422ZM129.078 218.35C122.406 219.517 115.64 220.07 108.866 220C115.634 219.934 122.389 219.382 129.078 218.35ZM220 110.344V110C220 100.513 218.797 91.3069 216.542 82.5275C218.788 91.633 219.949 100.972 220 110.351V110.344ZM194.425 39.4969C188.05 31.8687 180.675 25.1347 172.501 19.4769C180.868 25.5269 188.196 32.1957 194.432 39.4969H194.425ZM57.104 206.456C51.6776 203.475 46.5123 200.041 41.6627 196.192C46.5646 199.911 51.9133 203.101 57.104 206.456ZM0.000223992 110.213C0.0137115 104.353 0.466438 98.502 1.3546 92.7094C0.441322 98.4967 -0.011556 104.347 0.000223992 110.206V110.213ZM20.0477 46.6675C24.3626 40.6652 29.2183 35.0708 34.554 29.9544C29.1723 35.0243 24.3126 40.621 20.0477 46.6607V46.6675ZM76.5396 5.1838C87.3823 1.84026 98.6541 0.0940087 110 4.65897e-05C98.6459 -0.0104067 87.3585 1.73825 76.5396 5.1838ZM134.516 114.51L134.104 114.407C133.863 111.079 133.733 107.738 133.375 104.424C132.564 96.7519 130.385 89.5057 126.156 82.9744C119.9 73.2944 109.45 69.3894 99.4265 73.2669C91.1971 76.4432 86.8315 82.9744 84.8652 91.3C82.9952 99.1788 83.1465 107.161 84.0952 115.108C85.0096 122.671 87.1684 129.869 91.5202 136.269C97.1165 144.485 104.92 148.074 114.62 146.451C123.833 144.925 129.621 138.964 131.98 130.103C133.334 125.043 133.705 119.721 134.523 114.51H134.516Z" fill="white"/>
</g>
<defs>
<clipPath id="clip0_108_199">
<rect width="220" height="220" fill="white"/>
</clipPath>
</defs>
</svg>
