<svg width="220" height="220" viewBox="0 0 220 220" fill="none" xmlns="http://www.w3.org/2000/svg">
<g clip-path="url(#clip0_108_200)">
<path d="M110 220C170.751 220 220 170.751 220 110C220 49.2487 170.751 0 110 0C49.2487 0 0 49.2487 0 110C0 170.751 49.2487 220 110 220Z" fill="#FF0060"/>
<path d="M172.356 82.8231H109.464C104.594 82.8155 99.8154 84.1425 95.6469 86.6599C91.4783 89.1773 88.0793 92.7889 85.819 97.1023C83.5588 101.416 82.5237 106.266 82.8263 111.126C83.1288 115.987 84.7575 120.671 87.5353 124.671C90.313 128.671 94.1338 131.833 98.5824 133.814C103.031 135.795 107.937 136.519 112.769 135.907C117.6 135.296 122.171 133.372 125.986 130.345C129.8 127.318 132.713 123.304 134.406 118.738H109.464C108.54 118.739 107.625 118.558 106.771 118.205C105.918 117.851 105.142 117.333 104.489 116.68C103.835 116.027 103.317 115.251 102.964 114.398C102.611 113.544 102.43 112.629 102.431 111.705V110.853C102.43 109.929 102.611 109.014 102.964 108.16C103.317 107.306 103.835 106.531 104.489 105.877C105.142 105.224 105.918 104.706 106.771 104.353C107.625 104 108.54 103.818 109.464 103.819H151.037C151.339 105.758 151.484 107.717 151.463 109.677C151.422 117.975 148.925 126.074 144.285 132.954C139.645 139.834 133.072 145.185 125.394 148.332C117.716 151.479 109.278 152.281 101.144 150.638C93.011 148.994 85.5467 144.978 79.6936 139.096C73.8405 133.214 69.8609 125.73 68.257 117.589C66.6531 109.447 67.4968 101.013 70.6816 93.3509C73.8664 85.6885 79.2496 79.1412 86.1518 74.5353C93.054 69.9295 101.166 67.4714 109.464 67.4713L110.749 67.2581C111.018 67.3819 111.299 67.4506 111.602 67.4713H148.906C169.263 67.4713 177.574 56.6019 177.574 41.25H109.464C71.8438 41.25 41.3188 71.7269 41.2501 109.361C41.1951 146.994 71.6238 177.561 109.258 177.684C146.891 177.801 177.506 147.421 177.684 109.787V88.2544C177.698 87.546 177.57 86.8421 177.309 86.1837C177.047 85.5253 176.657 84.9257 176.161 84.42C175.665 83.9142 175.073 83.5125 174.419 83.2383C173.766 82.9642 173.065 82.823 172.356 82.8231Z" fill="white"/>
</g>
<defs>
<clipPath id="clip0_108_200">
<rect width="220" height="220" fill="white"/>
</clipPath>
</defs>
</svg>
