<svg width="220" height="220" viewBox="0 0 220 220" fill="none" xmlns="http://www.w3.org/2000/svg">
<g clip-path="url(#clip0_108_201)">
<path d="M110 220C170.751 220 220 170.751 220 110C220 49.2487 170.751 0 110 0C49.2487 0 0 49.2487 0 110C0 170.751 49.2487 220 110 220Z" fill="#7F27FF"/>
<path d="M105.71 96.2497H55.1375V145.901C55.0825 150.982 57.1175 155.87 60.775 159.458C64.4325 163.047 69.4169 165.048 74.5938 165H105.717L105.71 96.2497ZM106.879 70.2691H112.324C117.714 60.9878 122.65 54.6766 127.291 51.2666C133.011 47.0522 138.868 47.0178 143.461 51.5278C147.751 55.7353 148.555 61.0153 145.729 66.1028C144.932 67.5191 143.873 68.9078 142.546 70.2691H162.539C167.207 70.2691 171.875 74.1053 171.875 79.4334C171.875 84.0191 167.963 88.6047 162.539 88.6047H113.492V76.3809H105.71V88.6047H57.4612C52.8 88.6047 48.125 84.7684 48.125 79.4334C48.125 74.8547 52.0369 70.2691 57.4612 70.2691H77.6738C76.409 69.0906 75.2833 67.7712 74.3188 66.3366C70.9706 61.2216 71.3763 55.8178 75.7419 51.5278C80.3344 47.0178 86.1919 47.0591 91.9188 51.2666C96.5525 54.6766 101.489 60.9947 106.886 70.2691H106.879ZM97.8381 70.2691C93.8506 63.9234 90.2894 59.6128 87.2506 57.3784C84.4388 55.3159 82.8988 55.3022 81.2419 56.9247C79.5438 58.5953 79.4406 60.0253 80.8638 62.1978C82.4863 64.6797 85.9031 67.4778 90.8256 70.2691H97.8381ZM121.364 70.2691H129.752C134.447 67.5741 137.548 64.8516 138.896 62.4316C140.064 60.3416 139.817 58.7534 137.961 56.9316C136.304 55.3022 134.764 55.3091 131.959 57.3784C128.913 59.6128 125.345 63.9234 121.371 70.2691H121.364ZM113.492 96.2428H164.072V145.901C164.094 148.424 163.605 150.925 162.637 153.255C161.668 155.585 160.239 157.695 158.434 159.458C154.745 163.065 149.774 165.058 144.616 165H113.492V96.2428Z" fill="white"/>
</g>
<defs>
<clipPath id="clip0_108_201">
<rect width="220" height="220" fill="white"/>
</clipPath>
</defs>
</svg>
