<svg width="220" height="220" viewBox="0 0 220 220" fill="none" xmlns="http://www.w3.org/2000/svg">
<g clip-path="url(#clip0_108_202)">
<path d="M110 220C170.751 220 220 170.751 220 110C220 49.2487 170.751 0 110 0C49.2487 0 0 49.2487 0 110C0 170.751 49.2487 220 110 220Z" fill="#37DCD8"/>
<path d="M109.931 87.1681L90.791 67.8906C96.5332 58.5522 102.953 49.6481 110 41.25C117.034 49.6121 123.445 58.4794 129.181 67.7806L109.931 87.1681ZM149.242 106.487C154.646 121.626 162.573 136.764 155.017 151.298C150.21 160.467 142.755 167.977 133.622 172.851C108.742 186.051 77.9416 176.357 64.8378 151.298C57.2066 136.764 66.096 120.429 71.5066 105.298C76.4635 94.1394 81.4753 83.8544 87.1678 73.9681L109.924 96.8894L132.811 73.8444C138.827 84.2531 144.024 94.9644 149.242 106.494V106.487Z" fill="white"/>
</g>
<defs>
<clipPath id="clip0_108_202">
<rect width="220" height="220" fill="white"/>
</clipPath>
</defs>
</svg>
