<svg width="220" height="220" viewBox="0 0 220 220" fill="none" xmlns="http://www.w3.org/2000/svg">
<g clip-path="url(#clip0_108_203)">
<path d="M110 220C170.751 220 220 170.751 220 110C220 49.2487 170.751 0 110 0C49.2487 0 0 49.2487 0 110C0 170.751 49.2487 220 110 220Z" fill="#00DCFA"/>
<path d="M133.224 34.375C106.618 34.375 84.0194 54.835 81.18 81.1731C54.8281 84.0194 34.375 106.618 34.375 133.217C34.3823 147.113 39.9052 160.438 49.7306 170.265C59.556 180.091 72.8802 185.616 86.7762 185.625C113.382 185.625 136.07 165.165 138.82 138.827C165.165 135.981 185.625 113.382 185.625 86.7831C185.618 72.8871 180.095 59.5621 170.269 49.7355C160.444 39.9088 147.12 34.3841 133.224 34.375ZM173.346 92.6475C172.038 101.242 168.017 109.193 161.87 115.34C155.723 121.487 147.772 125.508 139.177 126.816V92.6475H173.346ZM46.6537 127.353C47.9446 118.742 51.958 110.771 58.1065 104.606C64.255 98.4419 72.2155 94.4077 80.8225 93.0944V127.263H46.6537V127.353ZM126.906 139.177C125.486 148.804 120.651 157.598 113.283 163.953C105.915 170.309 96.5065 173.801 86.7762 173.793C77.0478 173.801 67.641 170.31 60.2745 163.955C52.9079 157.601 48.0732 148.809 46.6537 139.184H126.906V139.177ZM127.353 92.6475V127.263H92.6475V92.6475H127.353ZM173.346 80.8225H93.0944C94.5139 71.1963 99.3493 62.4022 106.717 56.0466C114.085 49.6911 123.493 46.1985 133.224 46.2069C142.952 46.1985 152.359 49.6904 159.726 56.0446C167.092 62.3989 171.927 71.1913 173.346 80.8156V80.8225Z" fill="white"/>
</g>
<defs>
<clipPath id="clip0_108_203">
<rect width="220" height="220" fill="white"/>
</clipPath>
</defs>
</svg>
