<svg width="220" height="220" viewBox="0 0 220 220" fill="none" xmlns="http://www.w3.org/2000/svg">
<g clip-path="url(#clip0_108_204)">
<path d="M110 220C170.751 220 220 170.751 220 110C220 49.2487 170.751 0 110 0C49.2487 0 0 49.2487 0 110C0 170.751 49.2487 220 110 220Z" fill="#16B9AD"/>
<path d="M178.75 90.7019C178.75 127.882 147.902 158.125 110 158.125C72.0981 158.125 41.25 127.875 41.25 90.7156C41.25 87.9794 41.415 85.2362 41.7587 82.5137H54.1062C53.6937 85.2294 53.4875 87.9725 53.4875 90.7156C53.4875 121.275 78.8425 146.142 110.007 146.142C139.748 146.142 164.196 123.509 166.382 94.8888H78.925C80.7812 108.254 91.3206 118.869 104.892 121.062C118.47 123.248 131.911 116.497 138.043 104.424H151.277C145.262 121.763 128.659 133.423 109.986 133.437C85.9513 133.437 66.3919 114.262 66.3919 90.7019C66.3919 87.9519 66.6669 85.2019 67.1963 82.5H178.241C178.585 85.2225 178.75 87.9587 178.75 90.7019Z" fill="white"/>
</g>
<defs>
<clipPath id="clip0_108_204">
<rect width="220" height="220" fill="white"/>
</clipPath>
</defs>
</svg>
