<svg width="220" height="220" viewBox="0 0 220 220" fill="none" xmlns="http://www.w3.org/2000/svg">
<g clip-path="url(#clip0_108_205)">
<path d="M110 220C170.751 220 220 170.751 220 110C220 49.2487 170.751 0 110 0C49.2487 0 0 49.2487 0 110C0 170.751 49.2487 220 110 220Z" fill="#35A5F3"/>
<path d="M48.2622 48.3115C56.9934 39.1884 72.9434 38.824 81.9565 47.6928C91.3753 56.9053 100.698 66.2003 109.924 75.5846C119.742 66.2553 128.927 56.3003 138.785 47.0121C148.163 38.5421 164.113 39.5665 172.438 49.054C180.977 58.0053 180.84 73.6184 171.978 82.3084C162.855 91.5965 153.615 100.747 144.409 109.96C153.814 119.646 163.611 128.955 172.94 138.766C181.3 147.93 180.503 163.55 171.435 171.972C162.518 180.978 146.527 181.006 137.623 171.958C128.363 162.87 119.302 153.561 110.103 144.431C100.285 153.877 90.9215 163.791 81.0009 173.141C71.4997 181.57 55.4809 180.311 47.2997 170.638C39.0497 161.708 39.2559 146.493 47.8497 137.845C55.9266 129.576 64.0992 121.401 72.3659 113.321L82.7266 123.668C74.6416 132.015 66.1372 140.003 58.1759 148.473C52.8066 153.973 57.5366 164.231 65.0784 164.107C69.6503 164.513 72.8059 160.725 75.7759 157.865C83.6616 149.835 91.6641 141.949 99.5497 133.919C82.3622 116.58 64.8997 99.4821 47.7947 82.0678C38.8709 73.0753 39.1528 57.0428 48.2759 48.3115H48.2622ZM58.2516 71.6178C67.3472 81.1053 76.7934 90.2559 86.0541 99.5852C90.5228 95.0615 95.0191 90.5653 99.5428 86.0896C90.5847 77.0628 81.6609 67.974 72.5791 59.0709C69.6847 55.9428 64.7347 54.7809 60.9603 57.0221C55.7078 59.5659 54.0509 67.3759 58.2447 71.6178H58.2516ZM147.214 59.3115C130.123 76.0865 113.375 93.219 96.3734 110.076C100.959 114.525 105.531 118.987 110.007 123.552C113.437 120.169 116.847 116.745 120.264 113.321C123.715 116.766 127.146 120.231 130.625 123.655C127.249 127.092 123.853 130.502 120.422 133.898C129.642 143.173 138.682 152.619 148.204 161.591C153.037 166.678 162.415 163.591 163.81 156.888C165.309 152.145 161.899 148.04 158.682 145.057C143.533 129.98 128.417 114.871 113.334 99.7296C116.788 96.2852 120.227 92.8271 123.653 89.3552C127.091 92.779 130.522 96.2027 134.035 99.5715C143.075 90.2009 152.659 81.3528 161.562 71.8378C166.052 67.479 164.257 59.1259 158.523 56.7678C154.673 54.7809 149.978 56.1834 147.207 59.3115H147.214Z" fill="white"/>
</g>
<defs>
<clipPath id="clip0_108_205">
<rect width="220" height="220" fill="white"/>
</clipPath>
</defs>
</svg>
