<svg width="220" height="220" viewBox="0 0 220 220" fill="none" xmlns="http://www.w3.org/2000/svg">
<g clip-path="url(#clip0_108_206)">
<path d="M110 220C170.751 220 220 170.751 220 110C220 49.2487 170.751 0 110 0C49.2487 0 0 49.2487 0 110C0 170.751 49.2487 220 110 220Z" fill="#56C9E9"/>
<path d="M164.175 64.9211C158.991 63.0099 147.538 65.8699 146.988 66.688C149.174 67.1005 149.855 67.3755 153.127 67.9186C156.633 68.558 160.002 69.8024 163.082 71.6036C166.355 73.508 167.716 70.9161 167.716 70.9161C168.266 69.6924 166.767 65.8699 164.175 64.9211ZM71.0396 42.2818C70.2018 40.9599 69.2906 39.686 68.3102 38.4661C65.7184 35.7368 60.679 34.3755 57.9427 35.7368C56.444 36.4243 55.7634 37.373 56.994 39.0093C58.4859 40.4874 60.3834 41.4843 62.4459 41.8761C63.6696 42.1511 69.1284 43.3749 70.4896 43.643C71.8646 43.643 71.0396 42.2818 71.0396 42.2818ZM76.4915 56.0524C76.3826 55.8089 76.1863 55.6151 75.9415 55.5093C72.5772 55.933 69.168 55.2139 66.2615 53.4674C65.6038 53.0031 64.8184 52.7538 64.0134 52.7538C63.2083 52.7538 62.4229 53.0031 61.7652 53.4674C59.9915 54.9661 62.5834 56.7399 62.7209 56.7399C63.8071 57.4205 65.0377 57.1524 66.1309 57.4205C68.8006 58.194 71.5416 58.6961 74.3121 58.9193C76.629 58.9193 77.1721 58.0943 76.4915 56.0524ZM166.767 51.013C167.042 50.188 166.767 47.4655 161.851 48.1461C157.761 48.8336 154.901 49.9199 155.038 50.463C155.176 51.013 159.672 51.8311 160.628 51.9618C164.443 52.6493 166.63 51.5493 166.767 51.013ZM117.13 28.2361C116.652 27.7939 116.032 27.537 115.381 27.5118C114.731 27.4866 114.093 27.6947 113.582 28.0986C109.491 30.6905 112.489 39.5524 112.895 39.5524C113.307 39.5524 113.72 36.4174 117.81 31.7836C118.004 31.5076 118.14 31.1954 118.211 30.8655C118.281 30.5356 118.285 30.1949 118.22 29.8638C118.156 29.5326 118.026 29.2178 117.837 28.9382C117.649 28.6585 117.406 28.4197 117.123 28.2361H117.13ZM104.129 54.5743C103.785 54.2305 104.129 54.2305 104.129 54.5743V54.5743Z" fill="white"/>
<path d="M100.217 50.1871C97.6251 48.8259 99.8045 42.1434 98.8557 39.689C98.7661 39.3106 98.5843 38.9602 98.3266 38.6691C98.0688 38.378 97.743 38.1551 97.3782 38.0204C97.0134 37.8856 96.621 37.8432 96.2359 37.8968C95.8507 37.9504 95.4848 38.0985 95.1707 38.3278C94.8168 38.4718 94.4988 38.6916 94.2391 38.9719C93.9794 39.2521 93.7844 39.5859 93.6677 39.9497C93.551 40.3136 93.5155 40.6986 93.5638 41.0776C93.6121 41.4566 93.7429 41.8204 93.947 42.1434C94.497 43.2365 97.7626 49.5065 95.1707 50.5996C94.2151 51.0121 92.1732 50.1871 90.812 49.369C85.9032 47.1896 85.0851 39.689 83.5795 38.7334C82.8832 38.2197 82.035 37.9542 81.1701 37.9791C80.3053 38.004 79.4738 38.318 78.8082 38.8709C78.137 39.2491 77.6277 39.8604 77.3768 40.5889C77.126 41.3174 77.1509 42.1126 77.447 42.824C78.1276 44.0546 80.7195 44.7353 81.2626 48.9634L82.8989 50.1871C83.7239 50.8746 84.5351 51.5553 85.4907 52.2359C87.9451 54.6903 87.402 55.1027 92.4482 54.2846C94.0845 53.7346 93.8095 51.5553 95.4457 51.0121C96.4632 50.8776 97.4981 51.0177 98.4432 51.4178C99.9489 52.2153 101.214 53.3909 102.128 54.8277C104.308 57.4196 105.263 60.6921 107.174 63.559C107.834 64.7552 108.659 65.8552 109.629 66.8246L111.671 68.4609C114.538 70.3721 117.129 70.2346 119.171 68.0484C119.727 67.651 120.195 67.144 120.548 66.5588C120.9 65.9735 121.129 65.3223 121.22 64.6452C122.307 61.3586 123.688 58.1764 125.345 55.1371C125.359 55.1247 125.375 55.1152 125.393 55.1093C125.411 55.1034 125.43 55.1012 125.448 55.1028C125.454 55.0319 125.485 54.9655 125.536 54.9152C125.586 54.8649 125.652 54.8339 125.723 54.8277C126.102 54.5618 126.553 54.4191 127.016 54.4191C127.478 54.4191 127.93 54.5618 128.308 54.8277C128.721 55.3777 127.896 60.4171 128.308 60.9602C128.583 62.0602 130.625 61.3727 132.399 61.2352C132.567 61.0257 132.705 60.7944 132.811 60.5478C135.809 59.599 138.676 58.1002 141.673 57.2821H143.309C144.98 57.0071 146.678 57.0071 148.356 57.2821C149.992 57.2821 150.535 58.2377 150.398 59.7365C153.127 59.599 155.856 59.599 158.579 59.324C159.809 59.1865 161.721 59.1865 161.583 56.8696C161.308 55.5084 159.129 51.6927 149.174 54.0096C148.218 54.2846 142.766 55.9209 140.855 54.9652C143.763 53.0815 146.768 51.3559 149.854 49.7815C151.216 48.6884 152.309 47.1896 151.491 45.5534C150.673 43.9171 149.036 44.0546 147.538 44.5978C144.712 45.4756 142.14 47.0201 140.037 49.1009C138.655 50.5034 137.149 51.7821 135.534 52.9165C131.581 54.8277 131.581 54.8277 130.625 54.5527C129.401 54.0027 128.033 53.054 128.989 51.6927C129.546 50.8059 129.958 49.8365 130.219 48.8259C130.632 47.0521 130.082 46.509 128.851 46.509C126.397 46.6465 125.579 50.1871 125.173 50.7371C124.912 51.2734 124.589 51.7684 124.218 52.2359C123.901 52.5484 123.503 52.7658 123.069 52.863C122.635 52.9603 122.183 52.9335 121.763 52.7859C120.945 52.6484 120.264 52.2359 120.945 51.1428C122.176 49.2384 125.991 46.234 127.084 42.2809C127.084 42.2809 128.989 37.0971 123.674 36.9665C120.808 36.829 118.491 38.8709 117.673 42.0059C116.854 45.2784 118.628 49.7815 117.673 51.9609C117.329 52.8821 116.868 53.7484 116.311 54.5527C115.393 55.376 114.203 55.8313 112.97 55.8313C111.737 55.8313 110.547 55.376 109.629 54.5527C109.104 53.9409 108.722 53.2203 108.509 52.4428C108.296 51.6653 108.258 50.8503 108.398 50.0565C108.865 48.259 109.23 46.4365 109.491 44.5978C109.629 43.2365 107.174 40.7821 105.126 42.4184C104.17 43.1059 104.576 44.1921 104.988 45.1478C105.676 47.1896 106.899 53.054 100.217 50.1871ZM104.039 54.4152C103.902 54.2778 104.039 54.2778 104.039 54.4152V54.4152Z" fill="white"/>
<path d="M108.536 60.5684H117.542C118.353 60.3896 119.157 61.0221 119.721 62.2734C119.762 62.9609 119.597 63.6346 119.309 63.9784C117.816 63.2775 116.187 62.9141 114.537 62.9141C112.888 62.9141 111.259 63.2775 109.766 63.9784H109.354L108.536 60.5684Z" fill="white"/>
<path d="M141.536 56.8711C138.062 57.8522 134.648 59.0368 131.313 60.4186C131.016 60.5104 130.698 60.5067 130.403 60.4081C130.108 60.3094 129.852 60.1207 129.67 59.8686C129.535 59.5693 129.465 59.2447 129.465 58.9164C129.465 58.5881 129.535 58.2635 129.67 57.9642C129.806 57.5207 129.806 57.0465 129.67 56.6029C129.392 55.8574 128.922 55.1982 128.309 54.6917C128.043 54.4712 127.731 54.3124 127.396 54.2268C127.061 54.1412 126.712 54.1309 126.372 54.1966C126.033 54.2624 125.713 54.4026 125.434 54.607C125.155 54.8115 124.926 55.0752 124.761 55.3792C122.931 58.2407 121.551 61.3663 120.67 64.6467C120.344 65.9609 119.633 67.148 118.629 68.0567C116.58 69.8305 114.675 69.9679 111.946 68.4692C111.187 67.9172 110.459 67.3227 109.767 66.6886C108.829 65.6453 108.006 64.5044 107.312 63.2854C106.212 61.2367 105.126 59.0573 104.04 57.1461C102.534 54.6917 101.035 52.3748 98.313 51.1442C97.4373 50.8267 96.4867 50.7788 95.5836 51.0067C95.1853 51.0838 94.8084 51.2459 94.4786 51.482C94.1487 51.7182 93.8737 52.0227 93.6723 52.3748C93.2598 53.0555 87.808 53.193 85.9036 52.0998C84.9411 51.5498 82.2186 48.8273 81.263 49.1023C80.4448 49.1023 80.0392 48.5523 79.4892 48.1467C78.2673 47.3071 76.8633 46.7702 75.393 46.5801C73.9226 46.39 72.4282 46.5523 71.033 47.0536C70.449 47.1912 69.9183 47.497 69.5064 47.9333C69.0946 48.3696 68.8198 48.9171 68.7161 49.508C68.7233 50.138 68.9236 50.7507 69.29 51.2633C69.6563 51.7759 70.1711 52.1639 70.7648 52.3748C72.1192 52.8836 73.4392 53.4748 74.718 54.1486C75.4055 54.4236 76.4917 54.5611 76.3542 55.7848C76.3429 56.109 76.3895 56.4326 76.4917 56.7405C76.6292 58.5073 75.3986 58.6448 74.1748 58.6448C72.4285 58.5057 70.6954 58.2322 68.9911 57.8267C67.1057 57.191 65.1076 56.9591 63.1267 57.1461C62.5767 57.8336 61.903 57.4211 61.2155 57.5586C58.7611 57.9711 56.8567 59.738 56.9942 61.7798C57.1317 64.1036 59.0361 64.6467 60.9473 65.0523C65.5811 66.1523 70.2217 65.7398 74.8555 65.8773C80.4448 65.8773 83.5867 68.5998 84.398 74.1961C84.948 78.2798 97.2198 185.736 97.3573 188.053C97.3686 188.526 97.5347 188.983 97.8302 189.353C98.1257 189.723 98.5344 189.986 98.9936 190.102C103.627 191.511 108.467 192.164 113.307 192.013C118.745 192.15 124.17 191.463 129.395 189.964C130.22 189.689 130.9 189.414 130.9 188.328C131.038 185.468 138.807 82.783 138.807 81.1467C138.725 76.3709 140.264 71.7083 143.172 67.9192C145.489 65.1898 148.081 62.7355 150.398 60.013C151.085 56.1905 146.17 56.1905 141.536 56.8711Z" fill="white"/>
</g>
<defs>
<clipPath id="clip0_108_206">
<rect width="220" height="220" fill="white"/>
</clipPath>
</defs>
</svg>
