<svg width="220" height="220" viewBox="0 0 220 220" fill="none" xmlns="http://www.w3.org/2000/svg">
<g clip-path="url(#clip0_108_207)">
<path d="M110 220C170.751 220 220 170.751 220 110C220 49.2487 170.751 0 110 0C49.2487 0 0 49.2487 0 110C0 170.751 49.2487 220 110 220Z" fill="#117FC0"/>
<path d="M182.16 71.0326L124.032 166.87H89.3682L116.009 122.891H89.5332L58.6644 173.793C73.3793 185.755 91.7912 192.236 110.754 192.129C129.717 192.022 148.055 185.333 162.634 173.206C177.213 161.078 187.128 144.265 190.685 125.638C194.243 107.012 191.222 87.7274 182.139 71.0807L182.16 71.0326ZM131.409 53.8314L106.178 95.3564H132.688L162.071 46.8945C147.356 34.9327 128.944 28.4518 109.981 28.5589C91.0182 28.6661 72.6807 35.3547 58.1019 47.4821C43.5232 59.6094 33.6079 76.4227 30.0503 95.0495C26.4926 113.676 29.5133 132.96 38.5963 149.607L96.7038 53.8382H131.402L131.409 53.8314Z" fill="white"/>
</g>
<defs>
<clipPath id="clip0_108_207">
<rect width="220" height="220" fill="white"/>
</clipPath>
</defs>
</svg>
