<svg width="220" height="220" viewBox="0 0 220 220" fill="none" xmlns="http://www.w3.org/2000/svg">
<g clip-path="url(#clip0_108_208)">
<path d="M110 220C170.751 220 220 170.751 220 110C220 49.2487 170.751 0 110 0C49.2487 0 0 49.2487 0 110C0 170.751 49.2487 220 110 220Z" fill="#D59143"/>
<path d="M54.8144 113.115C51.2532 115.947 48.0769 120.98 48.235 128.673C48.3519 133.994 51.2119 137.638 54.8144 140.113V149.614C54.8144 155.554 57.7019 161.116 62.5694 164.519L95.9338 187.337V70.7441L54.8144 82.7754V113.115ZM63.7725 110.31C70.6957 115.377 70.6957 145.482 70.6957 145.482C70.6957 145.482 62.865 144.726 56.3957 141.11C61.7307 142.904 66.0138 142.505 67.8769 142.712L68.0007 142.719H68.0282L68.1244 142.732L68.3857 142.753L68.475 142.767H68.5644C68.5644 142.767 69.6644 116.49 61.71 111.884C60.4175 111.437 58.135 111.699 55.6188 112.503C58.8225 110.344 62.1707 109.615 63.7725 110.31ZM98.8144 157.775H121.248V187.379H98.8213V157.782L98.8144 157.775ZM93.7269 68.5373L54.8144 79.6885V37.9504C54.8134 37.257 55.018 36.5789 55.4023 36.0017C55.7867 35.4246 56.3335 34.9744 56.9737 34.708C57.6139 34.4416 58.3187 34.3711 58.999 34.5052C59.6793 34.6393 60.3045 34.9722 60.7957 35.4616L95.7207 70.5241L93.7269 68.5304V68.5373ZM98.8144 110.275H121.248V154.922H98.8213V110.275H98.8144ZM126.266 68.5441L124.823 69.9879L159.198 35.4754C159.688 34.9844 160.312 34.6498 160.992 34.5138C161.672 34.3779 162.378 34.4468 163.019 34.7117C163.66 34.9767 164.208 35.4258 164.594 36.0023C164.979 36.5788 165.185 37.2568 165.186 37.9504V79.6816L126.273 68.5441H126.266ZM98.8213 70.751H121.248V107.395H98.8213V70.751ZM165.186 113.115V82.7754L124.135 70.7716V187.379L157.431 164.519C159.825 162.841 161.78 160.612 163.13 158.018C164.48 155.425 165.185 152.545 165.186 149.621V140.113C168.788 137.638 171.648 133.994 171.765 128.673C171.93 120.98 168.747 115.947 165.186 113.115ZM151.711 143.186H151.8L151.883 143.179L151.999 143.165H152.027L152.268 143.145H152.281L152.391 143.131L153.416 143.014H153.464C155.705 142.725 158.455 142.753 162.676 141.433L163.611 141.124C157.135 144.74 149.311 145.496 149.311 145.496C149.311 145.496 149.311 115.397 156.234 110.33C157.836 109.629 161.184 110.358 164.381 112.53C161.865 111.726 159.589 111.465 158.29 111.912C150.336 116.511 151.704 143.193 151.704 143.193L151.711 143.186Z" fill="white"/>
</g>
<defs>
<clipPath id="clip0_108_208">
<rect width="220" height="220" fill="white"/>
</clipPath>
</defs>
</svg>
