<svg width="220" height="220" viewBox="0 0 220 220" fill="none" xmlns="http://www.w3.org/2000/svg">
<g clip-path="url(#clip0_108_209)">
<path d="M110 220C170.751 220 220 170.751 220 110C220 49.2487 170.751 0 110 0C49.2487 0 0 49.2487 0 110C0 170.751 49.2487 220 110 220Z" fill="#8834FF"/>
<path d="M48.125 145.957C49.4381 145.957 50.82 146.026 52.1331 145.957C54.6288 145.772 57.1312 145.27 59.5719 144.651C64.385 143.337 68.8901 141.082 72.8269 138.017C73.9544 137.144 75.075 136.209 76.1406 135.205C78.3887 132.957 80.3344 130.392 81.895 127.642C83.27 125.202 84.2669 122.576 85.0231 119.887C85.085 119.702 85.085 119.447 85.1469 119.262H75.3294C73.2892 119.253 71.256 119.022 69.2656 118.574C69.0861 118.501 68.8955 118.459 68.7019 118.451C68.6063 118.402 68.5202 118.337 68.4475 118.258C69.0113 117.014 69.5131 115.824 70.015 114.573L73.8306 105.752C73.9526 105.331 74.1405 104.932 74.3875 104.57C74.66 104.318 75.0202 104.182 75.3912 104.192C78.4575 104.13 81.455 104.192 84.5212 104.192H85.3325C85.2087 103.69 85.2088 103.319 85.085 102.886C83.9774 98.6552 82.0195 94.6948 79.3306 91.2462C78.0083 89.5624 76.5653 87.977 75.0131 86.5025C73.0716 84.676 70.9099 83.0986 68.5781 81.8068C66.1482 80.4402 63.5927 79.3098 60.9469 78.4312C58.7431 77.7407 56.4845 77.2393 54.1956 76.9325C52.3806 76.74 50.6275 76.6781 48.8194 76.5543C48.3794 76.5543 47.9394 76.4925 47.5062 76.4306C47.4168 76.4038 47.3355 76.3552 47.2695 76.2892C47.2035 76.2232 47.1549 76.1419 47.1281 76.0525C46.5025 74.6156 45.8769 73.2406 45.2512 71.8037C44.495 70.1125 43.8075 68.4281 43.065 66.7987C42.5012 65.4237 41.8756 64.1175 41.25 62.6737L42.5631 62.2956C45.3131 61.9243 48.1319 61.8006 50.9437 61.9243C55.4205 62.0744 59.8665 62.7247 64.1988 63.8631C66.9488 64.6125 69.6988 65.5475 72.325 66.675C76.0169 68.2356 79.5163 70.1812 82.775 72.4912C84.205 73.55 85.6419 74.6775 87.0238 75.805C87.6425 76.3068 88.2681 76.8706 88.8938 77.4275C92.0219 80.4318 94.7719 83.8693 97.0887 87.5612C99.3987 91.2462 101.09 95.2475 102.217 99.4412C102.589 100.816 102.836 102.26 103.152 103.635C103.189 103.74 103.256 103.832 103.346 103.899C103.435 103.965 103.543 104.002 103.654 104.006H116.346C116.6 103.002 116.786 102.006 116.971 101.002C117.728 98.0662 118.724 95.2475 119.976 92.5593C120.973 90.3112 122.224 88.125 123.661 86.1243C124.974 84.3093 126.349 82.4943 127.854 80.81C128.96 79.5033 130.15 78.27 131.416 77.1181C134.045 74.7309 136.892 72.5949 139.92 70.7381C143.048 68.7993 146.3 67.2318 149.738 65.9875C152.116 65.1762 154.488 64.4268 156.867 63.8012C158.675 63.3612 160.428 63.045 162.305 62.7975C163.804 62.55 165.371 62.4262 166.932 62.2956C167.936 62.2337 168.871 62.1718 169.874 62.1718C171.373 62.1718 172.81 62.11 174.247 62.1718C175.691 62.2406 177.128 62.55 178.564 62.7975C178.626 62.7975 178.626 62.8662 178.75 62.9831L177.684 65.4856C176.564 68.1118 175.436 70.7381 174.247 73.4262C173.793 74.3698 173.375 75.3308 172.996 76.3068C172.748 76.9256 172.122 76.6781 171.689 76.8018C171.311 76.8706 171.002 76.8706 170.624 76.8018C164.232 76.8641 157.933 78.3384 152.178 81.1193C149.486 82.4345 146.965 84.0737 144.671 86.0006C143.736 86.8118 142.677 87.6231 141.797 88.5581C139.542 90.8131 137.603 93.3706 136.043 96.1893C134.788 98.5152 133.783 100.967 133.045 103.504C132.976 103.69 132.976 103.944 132.914 104.13H133.602C136.854 104.13 140.168 104.061 143.419 104.13C145.358 104.13 147.297 104.439 149.174 105.065C149.243 105.134 149.298 105.134 149.359 105.196L147.551 109.321C146.3 112.256 144.987 115.199 143.736 118.196C143.357 119.076 143.11 119.262 142.106 119.262H132.976C133.231 120.135 133.416 120.884 133.664 121.641C134.544 124.267 135.795 126.762 137.356 129.079C138.298 130.454 139.294 131.706 140.36 132.957C140.979 133.706 141.666 134.456 142.354 135.081C144.671 137.329 147.304 139.275 150.109 140.836C152.487 142.211 155.052 143.338 157.678 144.204C160.181 145.084 162.807 145.648 165.495 145.896L170.431 146.274C171.057 146.342 171.682 146.342 172.308 146.397C172.432 146.466 172.562 146.521 172.624 146.652C173.683 149.147 174.749 151.65 175.876 154.152L178.557 160.278C177.684 160.471 176.873 160.656 176 160.718C173.869 160.842 171.682 160.966 169.558 160.966C167.619 160.966 165.681 160.78 163.804 160.532C161.203 160.165 158.617 159.707 156.049 159.157C152.97 158.402 149.958 157.397 147.043 156.153C143.57 154.666 140.262 152.823 137.17 150.653C135.559 149.459 133.975 148.228 132.419 146.961C131.4 146.131 130.437 145.233 129.539 144.273C125.589 140.256 122.336 135.609 119.914 130.523C118.497 127.511 117.447 124.339 116.786 121.077C116.662 120.761 116.6 120.389 116.531 120.073C116.531 119.454 116.222 119.324 115.658 119.324H103.029C102.4 122.719 101.392 126.033 100.024 129.203C98.9153 131.894 97.5111 134.453 95.8375 136.834C94.5287 138.674 93.1291 140.448 91.6437 142.149C90.5743 143.447 89.4043 144.658 88.1444 145.772C86.2056 147.463 84.1431 149.024 82.0806 150.584C79.6001 152.347 76.9628 153.877 74.2019 155.156C69.0622 157.6 63.579 159.244 57.9425 160.031C56.0038 160.34 54.065 160.532 52.1331 160.718C51.0294 160.781 49.9231 160.781 48.8194 160.718C47.19 160.718 45.5675 160.649 44.0069 160.594C43.4363 160.526 42.8725 160.471 42.3156 160.34C41.9994 160.278 41.8756 160.154 42.0613 159.783C43.3125 156.902 44.6256 154.029 45.8769 151.148C46.6331 149.402 47.3206 147.779 48.125 145.964V145.957Z" fill="white"/>
</g>
<defs>
<clipPath id="clip0_108_209">
<rect width="220" height="220" fill="white"/>
</clipPath>
</defs>
</svg>
