<svg width="220" height="220" viewBox="0 0 220 220" fill="none" xmlns="http://www.w3.org/2000/svg">
<g clip-path="url(#clip0_108_210)">
<path d="M110 220C170.751 220 220 170.751 220 110C220 49.2487 170.751 0 110 0C49.2487 0 0 49.2487 0 110C0 170.751 49.2487 220 110 220Z" fill="#1591CA"/>
<path d="M113.933 104.995C113.933 104.995 123.056 84.7137 105.167 65.12C105.167 65.12 94.9919 52.0575 73.9544 53.0887L78.1551 51.4387C78.8563 51.1637 79.5919 50.9712 80.3344 50.875L84.4732 50.3387L113.582 45.87C113.582 45.87 123.874 43.8487 131.677 46.0762C133.898 46.7156 135.919 47.9187 137.521 49.555C141.824 53.9137 150.466 65.4431 144.808 83.6825C144.808 83.6825 139.191 103.964 118.147 108.776C118.147 108.776 112.881 110.151 113.933 104.995ZM112.633 116.297C112.633 116.297 125.785 134.331 152.109 129.25C152.109 129.25 168.761 127.332 178.585 109.058L177.884 113.451C177.767 114.18 177.561 114.895 177.265 115.576L175.629 119.336L164.711 146.149C164.711 146.149 161.239 155.849 155.306 161.294C153.603 162.846 151.529 163.933 149.284 164.45C143.268 165.846 128.741 167.255 115.61 153.189C115.61 153.189 100.671 138.119 107.174 117.92C107.174 117.906 108.646 112.784 112.633 116.297ZM103.111 109.787C103.111 109.787 80.6301 112.152 72.2082 137.115C72.2082 137.115 65.7182 152.267 77.1169 169.634L73.5625 166.884C72.9718 166.427 72.4405 165.898 71.9813 165.309L69.4376 162.064L50.9851 139.562C50.9851 139.562 44.0619 131.814 42.1576 124.094C41.6076 121.88 41.6626 119.556 42.3088 117.37C44.0207 111.547 49.9126 98.4637 68.8669 94.1875C68.8669 94.1875 89.6088 88.8456 104.356 104.335C104.369 104.335 108.206 108.116 103.118 109.787H103.111Z" fill="white"/>
<path opacity="0.5" d="M117.604 111.092C117.604 111.092 140.016 108.177 147.785 83.0073C147.785 83.0073 153.883 67.6966 142.031 50.6191L145.661 53.2798C146.259 53.7266 146.809 54.2423 147.283 54.8129L149.902 57.9891L168.946 80.0304C168.946 80.0304 176.055 87.5929 178.173 95.2791C178.771 97.4791 178.771 99.7891 178.173 101.989C176.612 107.854 171.064 121.088 152.219 125.832C152.219 125.832 131.622 131.675 116.483 116.578C116.497 116.578 112.564 112.893 117.604 111.092ZM106.342 115.244C106.342 115.244 96.7106 135.292 114.091 155.319C114.091 155.319 123.915 168.622 144.994 168.106L140.745 169.653C140.037 169.909 139.301 170.077 138.552 170.155L134.406 170.595L105.187 174.349C105.187 174.349 94.8544 176.115 87.1062 173.695C84.9089 173.002 82.9271 171.754 81.3519 170.072C77.1581 165.604 68.8187 153.875 74.9444 135.787C74.9444 135.787 81.0631 115.643 102.231 111.353C102.231 111.374 107.546 110.115 106.342 115.244ZM107.092 104.677C107.092 104.677 93.6719 86.8298 67.43 92.3023C67.43 92.3023 50.8062 94.4473 41.25 112.859L41.8825 108.452C41.9906 107.719 42.1892 107.004 42.4737 106.32L44.055 102.539L54.5738 75.5616C54.5738 75.5616 57.9081 65.8129 63.7587 60.2854C65.4464 58.7127 67.5113 57.6021 69.7537 57.061C75.7487 55.5691 90.255 53.9673 103.579 67.8479C103.579 67.8479 118.738 82.7048 112.53 102.993C112.53 102.979 111.127 108.135 107.092 104.677Z" fill="white"/>
</g>
<defs>
<clipPath id="clip0_108_210">
<rect width="220" height="220" fill="white"/>
</clipPath>
</defs>
</svg>
