<svg width="220" height="220" viewBox="0 0 220 220" fill="none" xmlns="http://www.w3.org/2000/svg">
<g clip-path="url(#clip0_108_211)">
<path d="M110 220C170.751 220 220 170.751 220 110C220 49.2487 170.751 0 110 0C49.2487 0 0 49.2487 0 110C0 170.751 49.2487 220 110 220Z" fill="#56428E"/>
<path d="M73.9062 51.5625H103.84C100.238 57.2687 98.0306 63.5731 98.1681 70.4C107.071 70.4894 116.002 70.4894 124.912 70.4C125.029 63.6144 123.207 57.1312 119.309 51.5625H149.449C147.373 55.9144 143.846 59.95 144.183 65.0581C144.045 87.9106 144.231 110.777 144.162 133.629C147.118 133.629 150.109 133.629 153.099 133.65C155.279 129.319 157.218 124.898 158.764 120.312C167.716 120.539 176.715 120.058 185.625 121.254C176.811 128.858 172.205 139.679 166.464 149.531C143.681 149.579 120.904 149.463 98.0994 149.6C97.0269 157.919 102.156 163.646 108.096 168.438H69.6163C72.9644 164.017 79.7088 161.171 79.0006 154.688C79.2275 132.598 79.0006 110.481 79.0694 88.3644H98.5944V101.977H124.499V86.3706H70.4137L56.9731 110C61.4419 117.886 65.9244 125.757 70.4344 133.629H77.0894V149.531H56.7462C49.3212 136.331 41.6213 123.289 34.375 110V109.979C41.6419 96.7106 49.3625 83.6688 56.7462 70.4688C64.3362 70.4688 71.9194 70.4687 79.5025 70.4C79.6036 63.6958 77.6481 57.1216 73.8994 51.5625H73.9062ZM98.6012 118.023V133.629H124.499V118.023H98.6012ZM146.142 70.4688H166.423C171.978 79.4062 175.801 89.7188 183.817 96.8688C183.982 97.3981 184.277 98.4775 184.436 99C175.869 100.127 167.193 99.2544 158.558 99.6875C157.458 94.9231 155.299 90.5438 152.907 86.35L146.142 86.3706V70.4688ZM125.207 151.525C131.196 151.546 137.211 151.525 143.206 151.504C143.069 159.156 148.424 163.9 153.684 168.438H114.929C119.9 163.721 125.709 159.246 125.207 151.525Z" fill="white"/>
</g>
<defs>
<clipPath id="clip0_108_211">
<rect width="220" height="220" fill="white"/>
</clipPath>
</defs>
</svg>
