<svg width="220" height="220" viewBox="0 0 220 220" fill="none" xmlns="http://www.w3.org/2000/svg">
<g clip-path="url(#clip0_108_212)">
<path d="M110 220C170.751 220 220 170.751 220 110C220 49.2487 170.751 0 110 0C49.2487 0 0 49.2487 0 110C0 170.751 49.2487 220 110 220Z" fill="#2A3069"/>
<path d="M126.136 72.4139C126.136 48.2139 114.4 27.6852 105.6 21.0852C105.6 21.0852 104.864 20.3495 104.864 21.8139C104.136 68.0139 80.6644 80.4852 68.2001 98.0852C38.1357 136.95 66.0001 180.214 94.6001 188.285C110.736 192.685 90.9357 180.214 88.7357 154.55C85.0644 122.285 126.136 98.8139 126.136 72.4139Z" fill="white"/>
<path d="M141.536 88.5493C140.064 94.4137 134.2 106.885 126.136 118.614C98.9999 157.485 114.4 176.549 123.2 186.814C128.336 192.685 123.2 186.814 135.664 180.949C136.4 180.214 160.6 167.749 162.8 139.149C165.736 111.285 148.136 93.6849 141.536 88.5493Z" fill="white"/>
</g>
<defs>
<clipPath id="clip0_108_212">
<rect width="220" height="220" fill="white"/>
</clipPath>
</defs>
</svg>
