<svg width="220" height="220" viewBox="0 0 220 220" fill="none" xmlns="http://www.w3.org/2000/svg">
<g clip-path="url(#clip0_108_213)">
<path d="M110 220C170.751 220 220 170.751 220 110C220 49.2487 170.751 0 110 0C49.2487 0 0 49.2487 0 110C0 170.751 49.2487 220 110 220Z" fill="#CFA967"/>
<path d="M110.138 116.497V171.449L151.023 160.435L160.628 54.6288H110.138V99.5362L112.227 93.0256H117.7L110.138 116.497ZM59.3725 168.224L48.125 44.6875H171.875L160.628 168.224L109.862 182.188L59.3725 168.224ZM94.8681 121.523V116.428L77.8937 109.663L94.875 102.857V97.7556L70.6269 107.608V111.677L94.8681 121.523ZM149.408 111.677L125.159 121.523V116.428L142.141 109.643L125.159 102.857V97.7556L149.408 107.608V111.677ZM110.138 116.49V99.5362L101.083 127.772H106.501L110.138 116.49Z" fill="white"/>
</g>
<defs>
<clipPath id="clip0_108_213">
<rect width="220" height="220" fill="white"/>
</clipPath>
</defs>
</svg>
