<svg width="220" height="220" viewBox="0 0 220 220" fill="none" xmlns="http://www.w3.org/2000/svg">
<g clip-path="url(#clip0_108_468)">
<path d="M110 220C170.751 220 220 170.751 220 110C220 49.2487 170.751 0 110 0C49.2487 0 0 49.2487 0 110C0 170.751 49.2487 220 110 220Z" fill="black"/>
<circle cx="109.5" cy="111" r="95.5" fill="white"/>
<circle cx="109.5" cy="111" r="82.1833" fill="black"/>
<path d="M86.2908 123.175H75.6375V134.209H109.5V123.175H99.6076C99.6076 118.254 99.8659 113.084 103.157 109.098C109.789 101.065 123.564 101.444 129.103 110.62C132.038 115.484 131.568 121.546 131.568 126.98V156.657H144.504V124.697C144.504 116.945 144.752 109.016 140.279 102.249C132.296 90.1727 106.258 86.4177 99.9881 102.63H99.6076V65.7231H86.2908V123.175Z" fill="white"/>
<path d="M75.6375 145.623V156.657H109.5V145.623H75.6375Z" fill="white"/>
</g>
<defs>
<clipPath id="clip0_108_468">
<rect width="220" height="220" fill="white"/>
</clipPath>
</defs>
</svg>
