<svg width="220" height="220" viewBox="0 0 220 220" fill="none" xmlns="http://www.w3.org/2000/svg">
<g clip-path="url(#clip0_108_215)">
<path d="M110 220C170.751 220 220 170.751 220 110C220 49.2487 170.751 0 110 0C49.2487 0 0 49.2487 0 110C0 170.751 49.2487 220 110 220Z" fill="#292929"/>
<path fill-rule="evenodd" clip-rule="evenodd" d="M103.173 128.267C103.173 125.105 103.187 121.949 103.166 118.793C103.159 117.913 103.414 117.24 104.232 116.882C104.988 116.552 105.779 116.786 106.439 117.556C108.405 119.852 110.357 122.162 112.317 124.472C113.004 125.276 113.699 126.074 114.366 126.906C114.522 127.102 114.614 127.342 114.627 127.593C114.641 130.928 114.647 134.262 114.634 137.59C114.652 139.057 114.116 140.476 113.134 141.566C112.151 142.656 110.794 143.335 109.333 143.468C107.873 143.561 106.432 143.098 105.299 142.172C104.167 141.246 103.427 139.926 103.228 138.476C103.166 138.098 103.173 137.706 103.173 137.321V128.267ZM103.194 66.3233C103.187 66.1858 103.173 66.0552 103.173 65.9177V47.1352C103.18 44.2477 105.16 41.8139 107.841 41.3396C108.668 41.1857 109.519 41.2163 110.333 41.4293C111.146 41.6422 111.903 42.0322 112.549 42.5714C113.194 43.1106 113.713 43.7856 114.067 44.5484C114.422 45.3112 114.603 46.1428 114.599 46.9839C114.668 53.3846 114.627 59.7921 114.641 66.1927L114.606 66.5227C113.272 64.2402 111.43 63.0989 108.914 63.1058C106.425 63.1058 104.569 64.2058 103.194 66.3233ZM103.173 153.038C104.576 155.169 106.446 156.255 108.955 156.248C111.457 156.241 113.279 155.1 114.641 152.983V168.891C114.634 170.452 114.682 172.026 114.544 173.566C114.411 175.036 113.714 176.396 112.598 177.362C111.483 178.327 110.036 178.822 108.563 178.743C107.11 178.646 105.748 178.002 104.75 176.941C103.753 175.879 103.194 174.48 103.187 173.023C103.153 166.884 103.173 160.745 103.173 154.598V153.038ZM114.641 92.3589V103.778C114.641 104.865 114.297 105.456 113.472 105.786C113.045 105.962 112.573 105.994 112.126 105.877C111.68 105.76 111.283 105.502 110.997 105.14L106.019 99.3096C105.16 98.3058 104.301 97.3089 103.455 96.2846C103.293 96.0902 103.197 95.8495 103.18 95.5971C103.166 90.6883 103.159 85.7727 103.18 80.8639C103.171 79.4141 103.707 78.014 104.683 76.9415C105.659 75.8691 107.002 75.2029 108.446 75.0752C111.162 74.7727 113.857 76.7939 114.489 79.6402C114.592 80.1146 114.627 80.6096 114.627 81.0977C114.641 84.8514 114.641 88.6052 114.641 92.3589ZM126.541 69.1421V53.8796C126.555 51.1158 128.129 48.8608 130.577 48.0908C134.289 46.9152 138.002 49.7202 138.022 53.7627C138.043 57.5714 138.022 61.3802 138.022 65.1821V84.3977C138.022 87.2371 136.317 89.5333 133.712 90.2414C130.322 91.1558 126.864 88.6602 126.583 85.0921C126.557 84.742 126.546 84.3911 126.548 84.0402V69.1421H126.541ZM91.8638 142.725V160.36C91.8895 161.738 91.4244 163.08 90.5516 164.147C89.6788 165.213 88.4552 165.935 87.0994 166.183C83.7994 166.815 80.5063 164.134 80.41 160.703C80.3825 159.72 80.4031 158.737 80.4031 157.754V125.077C80.4031 122.334 82.1631 120.017 84.7206 119.357C85.5684 119.143 86.4538 119.126 87.3092 119.307C88.1646 119.488 88.9674 119.862 89.656 120.401C90.3446 120.939 90.901 121.628 91.2824 122.415C91.6639 123.202 91.8604 124.065 91.8569 124.94C91.8775 130.866 91.8569 136.799 91.8569 142.725H91.8638ZM91.8638 77.7839V101.84C91.8896 103.174 91.4554 104.476 90.6341 105.528C89.8127 106.579 88.6544 107.316 87.3538 107.615C86.5205 107.792 85.6583 107.782 84.8295 107.585C84.0007 107.388 83.226 107.01 82.5614 106.477C81.8969 105.944 81.3591 105.27 80.987 104.503C80.6149 103.737 80.4178 102.898 80.41 102.046C80.3756 98.5671 80.4031 95.0952 80.3963 91.6164V53.7627C80.3963 50.9302 82.2388 48.5652 84.8856 47.9671C85.7271 47.7824 86.5994 47.7894 87.4378 47.9877C88.2762 48.186 89.0592 48.5705 89.7287 49.1126C90.3983 49.6548 90.9373 50.3406 91.3057 51.1194C91.6741 51.8982 91.8625 52.7499 91.8569 53.6114C91.8775 59.7921 91.8569 65.9658 91.8569 72.1464L91.8638 77.7839ZM126.541 134.063V107.938C126.541 105.332 127.655 103.4 129.979 102.314C133.705 100.588 137.885 103.345 138.022 107.56V160.14C138.022 163.013 136.379 165.296 133.787 166.038C130.391 167.015 126.871 164.526 126.583 160.944C126.556 160.578 126.545 160.211 126.548 159.844V134.049L126.541 134.063ZM161.562 107.484V148.321C161.596 149.682 161.154 151.012 160.311 152.081C159.469 153.151 158.28 153.893 156.949 154.179C153.567 154.915 150.198 152.213 150.102 148.686V66.7358C150.102 64.0889 151.429 61.9783 153.67 61.0433C157.451 59.4621 161.556 62.3083 161.556 66.5296V107.477L161.562 107.484ZM69.8981 107.422V148.321C69.8981 151.209 68.1106 153.526 65.4156 154.165C61.9781 154.99 58.5338 152.281 58.4375 148.672V66.6052C58.4375 63.7933 60.1219 61.5108 62.7 60.7958C63.5458 60.5735 64.4312 60.5476 65.2885 60.7201C66.1459 60.8926 66.9524 61.2589 67.6464 61.791C68.3404 62.3231 68.9034 63.0069 69.2925 63.7901C69.6816 64.5733 69.8864 65.4351 69.8913 66.3096C69.9256 70.8127 69.8981 75.3227 69.8981 79.8327V107.415V107.422Z" fill="white"/>
</g>
<defs>
<clipPath id="clip0_108_215">
<rect width="220" height="220" fill="white"/>
</clipPath>
</defs>
</svg>
