<svg width="220" height="220" viewBox="0 0 220 220" fill="none" xmlns="http://www.w3.org/2000/svg">
<g clip-path="url(#clip0_108_217)">
<path d="M110 220C170.751 220 220 170.751 220 110C220 49.2487 170.751 0 110 0C49.2487 0 0 49.2487 0 110C0 170.751 49.2487 220 110 220Z" fill="#1FC5C9"/>
<path fill-rule="evenodd" clip-rule="evenodd" d="M77.66 154.495L92.5375 139.618C99.1033 143.496 106.772 145.081 114.338 144.123C121.903 143.165 128.935 139.719 134.327 134.327C139.719 128.935 143.165 121.903 144.123 114.338C145.081 106.772 143.496 99.1033 139.618 92.5375L154.495 77.66C162.207 88.2546 165.883 101.255 164.86 114.319C163.838 127.383 158.185 139.653 148.919 148.919C139.653 158.185 127.383 163.838 114.319 164.86C101.255 165.883 88.2546 162.207 77.66 154.495ZM65.505 142.34C57.7931 131.745 54.1173 118.745 55.1396 105.681C56.1618 92.6171 61.815 80.3471 71.0811 71.0811C80.3471 61.815 92.6171 56.1618 105.681 55.1396C118.745 54.1173 131.745 57.7931 142.34 65.505L127.463 80.3825C120.897 76.5041 113.228 74.9191 105.662 75.8768C98.0971 76.8345 91.065 80.2807 85.6728 85.6728C80.2807 91.065 76.8345 98.0971 75.8768 105.662C74.9191 113.228 76.5041 120.897 80.3825 127.463L65.505 142.34ZM165 68.75C161.353 68.75 157.856 67.3013 155.277 64.7227C152.699 62.1441 151.25 58.6467 151.25 55C151.25 51.3533 152.699 47.8559 155.277 45.2773C157.856 42.6987 161.353 41.25 165 41.25C168.647 41.25 172.144 42.6987 174.723 45.2773C177.301 47.8559 178.75 51.3533 178.75 55C178.75 58.6467 177.301 62.1441 174.723 64.7227C172.144 67.3013 168.647 68.75 165 68.75ZM55 178.75C51.3533 178.75 47.8559 177.301 45.2773 174.723C42.6987 172.144 41.25 168.647 41.25 165C41.25 161.353 42.6987 157.856 45.2773 155.277C47.8559 152.699 51.3533 151.25 55 151.25C58.6467 151.25 62.1441 152.699 64.7227 155.277C67.3013 157.856 68.75 161.353 68.75 165C68.75 168.647 67.3013 172.144 64.7227 174.723C62.1441 177.301 58.6467 178.75 55 178.75Z" fill="white"/>
</g>
<defs>
<clipPath id="clip0_108_217">
<rect width="220" height="220" fill="white"/>
</clipPath>
</defs>
</svg>
