<svg width="220" height="220" viewBox="0 0 220 220" fill="none" xmlns="http://www.w3.org/2000/svg">
<g clip-path="url(#clip0_108_218)">
<path d="M110 220C170.751 220 220 170.751 220 110C220 49.2487 170.751 0 110 0C49.2487 0 0 49.2487 0 110C0 170.751 49.2487 220 110 220Z" fill="#F9C011"/>
<path d="M101.833 41.25C112.269 47.3481 122.086 54.4087 132.426 60.6719L94.3113 127.16C89.2513 118.284 84.5075 109.23 79.5094 100.306C86.7075 80.5406 94.93 61.1188 101.833 41.25ZM68.75 178.75C90.3306 139.501 112.75 100.684 134.09 61.3319C139.796 71.3487 145.509 81.3588 151.25 91.3756C134.709 120.471 118.044 149.497 101.633 178.654C90.6675 178.654 79.7156 178.516 68.75 178.75ZM103.689 178.592C112.833 162.951 121.447 147.036 130.707 131.464C136.228 138.524 141.831 145.544 147.311 152.639C132.822 161.377 118.281 170.028 103.689 178.592Z" fill="white"/>
</g>
<defs>
<clipPath id="clip0_108_218">
<rect width="220" height="220" fill="white"/>
</clipPath>
</defs>
</svg>
