<svg width="220" height="220" viewBox="0 0 220 220" fill="none" xmlns="http://www.w3.org/2000/svg">
<g clip-path="url(#clip0_108_219)">
<path d="M110 220C170.751 220 220 170.751 220 110C220 49.2487 170.751 0 110 0C49.2487 0 0 49.2487 0 110C0 170.751 49.2487 220 110 220Z" fill="#98C23A"/>
<path d="M108.556 27.5C63.7931 27.5 27.5 63.7931 27.5 108.556C27.5 153.319 63.7931 189.613 108.556 189.613C153.319 189.613 189.613 153.319 189.613 108.556C189.537 63.8206 153.292 27.5756 108.556 27.5ZM108.556 178.75C69.8363 178.75 38.445 147.366 38.4313 108.646C38.4175 69.9256 69.7881 38.5206 108.508 38.5C147.228 38.4725 178.64 69.8363 178.681 108.556C178.64 147.269 147.269 178.64 108.556 178.681V178.75ZM72.7375 101.338H59.675V72.7375C59.675 67.375 62.2188 64.6937 67.3063 64.6937H95.6312C96.7232 64.5087 97.8437 64.5902 98.8973 64.9313C99.951 65.2724 100.907 65.863 101.683 66.6528C102.459 67.4427 103.033 68.4084 103.356 69.4678C103.679 70.5272 103.741 71.6489 103.538 72.7375V101.338H90.6125V75.9H72.7375V101.338ZM90.6125 109.725H103.675V144.1C103.866 145.184 103.794 146.297 103.466 147.347C103.137 148.397 102.562 149.353 101.787 150.135C101.012 150.916 100.061 151.5 99.0141 151.838C97.9669 152.175 96.8539 152.257 95.7688 152.075H67.3063C66.2336 152.202 65.146 152.075 64.1318 151.703C63.1176 151.331 62.2053 150.726 61.4687 149.936C60.7322 149.146 60.1922 148.193 59.8925 147.155C59.5928 146.117 59.5418 145.024 59.7437 143.963V109.587H90.6812L90.6125 109.725ZM144.237 110.206H157.438V144.581C157.632 145.672 157.56 146.793 157.228 147.849C156.896 148.906 156.314 149.866 155.531 150.649C154.748 151.432 153.787 152.015 152.73 152.347C151.674 152.679 150.553 152.751 149.463 152.556H120.794C119.714 152.726 118.609 152.635 117.571 152.292C116.533 151.949 115.592 151.363 114.825 150.583C114.059 149.803 113.49 148.852 113.165 147.808C112.84 146.765 112.768 145.658 112.956 144.581V73.3563C112.746 72.2543 112.808 71.1175 113.137 70.045C113.467 68.9726 114.054 67.9972 114.848 67.2038C115.641 66.4105 116.616 65.8234 117.689 65.4937C118.761 65.164 119.898 65.1018 121 65.3125H149.188C150.304 65.0618 151.466 65.0938 152.567 65.4056C153.668 65.7174 154.674 66.2991 155.493 67.098C156.312 67.8969 156.919 68.8877 157.259 69.9805C157.598 71.0734 157.66 72.2337 157.438 73.3563V93.9812H143.688V76.5187H126.5V110.206H144.237Z" fill="white"/>
</g>
<defs>
<clipPath id="clip0_108_219">
<rect width="220" height="220" fill="white"/>
</clipPath>
</defs>
</svg>
