<svg width="220" height="220" viewBox="0 0 220 220" fill="none" xmlns="http://www.w3.org/2000/svg">
<g clip-path="url(#clip0_108_220)">
<path d="M110 220C170.751 220 220 170.751 220 110C220 49.2487 170.751 0 110 0C49.2487 0 0 49.2487 0 110C0 170.751 49.2487 220 110 220Z" fill="#DF1A14"/>
<path d="M102.162 79.2482C104.273 78.5814 106.672 79.7707 107.545 81.847C109.656 86.6732 111.547 91.6439 113.733 96.4632C115.039 99.3576 119.487 99.7289 121.227 97.0614C124.142 92.2351 126.472 87.1132 129.312 82.2114C131.642 79.1726 135.863 80.6576 139.067 80.362C142.415 80.142 144.89 84.3701 142.993 87.2645C133.822 104.404 124.582 121.474 115.41 138.621C113.877 141.735 108.858 141.735 107.477 138.469C105.435 133.499 103.833 128.301 101.867 123.331C100.698 120.065 95.6791 119.549 94.0085 122.664C91.1691 127.786 88.6941 133.128 85.8547 138.174C84.4729 140.47 81.5579 140.099 79.3029 140.099C77.1166 139.954 74.4972 140.621 72.8266 138.765C72.0947 138.007 71.6333 137.029 71.514 135.983C71.3947 134.936 71.6241 133.879 72.1666 132.976C80.7604 116.724 89.4916 100.403 98.0854 83.9989C99.1029 82.1426 99.976 79.8395 102.162 79.2551V79.2482ZM72.1666 80.5132C74.7128 80.3648 77.2654 80.3648 79.8116 80.5132C82.651 80.8089 84.4729 84.4457 83.091 87.0445C74.566 103.146 65.9791 119.171 57.4679 135.204C56.4435 136.991 55.646 139.363 53.4597 139.948C50.916 140.326 48.2966 140.106 45.746 140.106C42.6179 140.25 39.9985 136.166 41.8891 133.423C50.7716 116.799 59.6472 100.1 68.5297 83.4076C69.2585 81.9982 70.496 80.5889 72.1735 80.5132H72.1666ZM162.504 80.6576C165.268 79.8395 168.183 80.4376 171.022 80.2107C173.202 80.2864 175.972 79.8395 177.574 81.7714C179.54 83.7789 178.949 87.5601 176.474 88.8251C171.455 92.0151 166.505 95.4251 161.418 98.5464C158.207 100.767 153.477 96.9857 154.859 93.2732C156.097 90.3032 157.843 87.567 159.232 84.6657C160.029 83.1807 160.758 81.2557 162.504 80.6576ZM138.407 125.036C139.865 124.142 141.687 124.444 143.068 125.187C146.925 127.112 150.782 129.195 154.715 131.051C156.392 131.794 158.138 133.203 158.207 135.204C158.503 137.878 156.241 140.47 153.622 140.25C148.018 140.25 142.415 140.319 136.881 140.25C134.117 140.25 131.931 136.984 132.948 134.317C133.677 132.385 134.77 130.673 135.643 128.817C136.297 127.414 136.95 125.703 138.407 125.036Z" fill="white"/>
</g>
<defs>
<clipPath id="clip0_108_220">
<rect width="220" height="220" fill="white"/>
</clipPath>
</defs>
</svg>
