<svg width="220" height="220" viewBox="0 0 220 220" fill="none" xmlns="http://www.w3.org/2000/svg">
<g clip-path="url(#clip0_108_221)">
<path d="M110 220C170.751 220 220 170.751 220 110C220 49.2487 170.751 0 110 0C49.2487 0 0 49.2487 0 110C0 170.751 49.2487 220 110 220Z" fill="#B2A3F6"/>
<path d="M92.4413 84.4737C87.2163 84.4737 82.9882 80.3419 82.9882 75.2475C82.9882 70.1531 87.2163 66.0144 92.4413 66.0144C97.6594 66.0144 101.894 70.1462 101.894 75.2475C101.894 80.3487 97.6594 84.4737 92.4413 84.4737ZM119.439 73.9275C114.221 73.9275 109.986 69.7956 109.986 64.7012C109.986 59.6 114.221 55.4681 119.439 55.4681C124.664 55.4681 128.893 59.6 128.893 64.7012C128.893 69.7956 124.664 73.9275 119.439 73.9275ZM130.254 137.212C125.029 137.212 120.801 133.087 120.801 127.986C120.801 122.884 125.029 118.752 130.254 118.752C135.472 118.752 139.707 122.884 139.707 127.986C139.707 133.087 135.472 137.212 130.254 137.212ZM39.7788 124.026C39.0776 124.035 38.3815 123.905 37.7303 123.645C37.0791 123.385 36.4856 122.999 35.9837 122.509C35.4818 122.02 35.0814 121.436 34.8054 120.791C34.5293 120.146 34.3831 119.454 34.375 118.752C34.375 115.844 36.795 113.479 39.7719 113.479C42.7488 113.479 45.1757 115.844 45.1757 118.752C45.1676 119.454 45.0214 120.146 44.7453 120.791C44.4693 121.436 44.0689 122.02 43.567 122.509C43.0651 122.999 42.4716 123.385 41.8204 123.645C41.1692 123.905 40.4731 124.035 39.7719 124.026H39.7788ZM54.6288 158.318C54.1024 158.324 53.58 158.227 53.0912 158.031C52.6025 157.836 52.1571 157.546 51.7804 157.178C51.4038 156.811 51.1032 156.372 50.896 155.888C50.6887 155.404 50.5788 154.884 50.5725 154.358C50.5725 152.172 52.3875 150.405 54.6288 150.405C56.87 150.405 58.685 152.172 58.685 154.358C58.6788 154.884 58.5689 155.404 58.3616 155.888C58.1543 156.372 57.8538 156.811 57.4771 157.178C57.1005 157.546 56.6551 157.836 56.1663 158.031C55.6776 158.227 55.1552 158.324 54.6288 158.318ZM97.8382 184.684C95.5969 184.684 93.7819 182.91 93.7819 180.724C93.7819 178.537 95.5969 176.771 97.8382 176.771C100.079 176.771 101.894 178.537 101.894 180.724C101.894 182.91 100.079 184.684 97.8382 184.684ZM168.066 160.951C165.825 160.951 164.01 159.177 164.01 156.991C164.01 154.805 165.825 153.031 168.066 153.031C170.301 153.031 172.123 154.805 172.123 156.991C172.123 159.177 170.301 160.951 168.066 160.951ZM124.85 153.045C124.324 153.051 123.801 152.954 123.312 152.758C122.824 152.563 122.378 152.273 122.002 151.905C121.625 151.537 121.324 151.099 121.117 150.615C120.91 150.131 120.8 149.611 120.794 149.085C120.794 146.899 122.616 145.132 124.85 145.132C127.084 145.132 128.906 146.899 128.906 149.085C128.9 149.611 128.79 150.131 128.583 150.615C128.376 151.099 128.075 151.537 127.698 151.905C127.322 152.273 126.876 152.563 126.388 152.758C125.899 152.954 125.376 153.051 124.85 153.045ZM149.16 134.586C146.919 134.586 145.104 132.812 145.104 130.626C145.104 128.439 146.919 126.672 149.16 126.672C151.394 126.672 153.216 128.439 153.216 130.626C153.216 132.812 151.394 134.586 149.16 134.586ZM120.801 184.684C117.817 184.684 115.397 182.319 115.397 179.411C115.397 176.502 117.817 174.137 120.801 174.137C123.778 174.137 126.198 176.496 126.198 179.411C126.198 182.326 123.778 184.684 120.801 184.684ZM145.104 118.752C144.403 118.761 143.708 118.631 143.057 118.37C142.407 118.11 141.814 117.723 141.313 117.234C140.812 116.744 140.412 116.161 140.137 115.516C139.861 114.872 139.715 114.18 139.707 113.479C139.707 110.571 142.12 108.206 145.104 108.206C148.088 108.206 150.501 110.571 150.501 113.479C150.493 114.18 150.347 114.872 150.071 115.516C149.795 116.161 149.396 116.744 148.894 117.234C148.393 117.723 147.801 118.11 147.15 118.37C146.5 118.631 145.804 118.761 145.104 118.752ZM153.216 171.497C152.515 171.507 151.819 171.377 151.168 171.117C150.517 170.857 149.923 170.471 149.421 169.981C148.919 169.491 148.519 168.908 148.243 168.263C147.967 167.618 147.821 166.926 147.813 166.224C147.813 163.309 150.233 160.951 153.209 160.951C156.193 160.951 158.613 163.309 158.613 166.224C158.605 166.926 158.459 167.618 158.183 168.263C157.907 168.908 157.506 169.491 157.005 169.981C156.503 170.471 155.909 170.857 155.258 171.117C154.607 171.377 153.911 171.507 153.209 171.497H153.216ZM46.5094 145.132C42.7832 145.132 39.7582 142.176 39.7582 138.539C39.7582 134.902 42.7832 131.952 46.5094 131.952C50.2357 131.952 53.2607 134.909 53.2607 138.539C53.2607 142.169 50.2357 145.132 46.5094 145.132ZM111.341 171.497C106.116 171.497 101.888 167.366 101.888 162.264C101.888 157.163 106.116 153.031 111.341 153.031C116.559 153.031 120.794 157.17 120.794 162.264C120.794 167.359 116.559 171.497 111.341 171.497ZM60.0188 126.672C54.7938 126.672 50.5657 122.534 50.5657 117.439C50.5657 112.345 54.7938 108.206 60.0188 108.206C65.2438 108.206 69.4719 112.338 69.4719 117.439C69.4719 122.541 65.2369 126.672 60.0188 126.672ZM111.341 147.758C107.608 147.758 104.583 144.809 104.583 141.172C104.583 137.535 107.608 134.586 111.341 134.586C115.067 134.586 118.092 137.535 118.092 141.172C118.092 144.809 115.067 147.758 111.341 147.758ZM78.925 89.7606C76.6838 89.7606 74.8688 87.9869 74.8688 85.8006C74.8688 83.6144 76.6838 81.8406 78.925 81.8406C81.1663 81.8406 82.9813 83.6144 82.9813 85.8006C82.9813 87.9869 81.1663 89.7606 78.925 89.7606ZM104.583 105.573C100.114 105.573 96.4838 102.032 96.4838 97.6669C96.4838 93.2944 100.114 89.7469 104.583 89.7469C109.051 89.7469 112.681 93.2944 112.681 97.66C112.681 102.032 109.058 105.58 104.583 105.58V105.573ZM123.489 113.479C122.788 113.488 122.093 113.358 121.442 113.097C120.792 112.836 120.199 112.45 119.698 111.961C119.197 111.471 118.797 110.887 118.522 110.243C118.246 109.599 118.1 108.907 118.092 108.206C118.092 105.298 120.505 102.933 123.489 102.933C126.473 102.933 128.886 105.298 128.886 108.206C128.878 108.907 128.732 109.599 128.456 110.243C128.18 110.887 127.781 111.471 127.279 111.961C126.778 112.45 126.186 112.836 125.535 113.097C124.885 113.358 124.189 113.488 123.489 113.479ZM132.942 47.5619C130.701 47.5619 128.886 45.795 128.886 43.6087C128.886 41.4225 130.701 39.6487 132.942 39.6487C135.183 39.6487 136.998 41.4225 136.998 43.6087C136.998 45.795 135.183 47.5619 132.942 47.5619ZM114.036 47.555C113.159 47.5659 112.289 47.4039 111.476 47.0784C110.662 46.7529 109.92 46.2701 109.293 45.6578C108.666 45.0455 108.166 44.3156 107.822 43.5098C107.477 42.704 107.294 41.8382 107.284 40.9619C107.295 40.0861 107.478 39.221 107.823 38.416C108.169 37.6111 108.669 36.882 109.296 36.2703C109.923 35.6587 110.664 35.1766 111.477 34.8515C112.291 34.5264 113.16 34.3647 114.036 34.3756C114.912 34.3638 115.782 34.5248 116.596 34.8495C117.41 35.1742 118.152 35.6562 118.78 36.2679C119.408 36.8796 119.909 37.609 120.254 38.4144C120.6 39.2199 120.783 40.0855 120.794 40.9619C120.784 41.8388 120.601 42.7052 120.256 43.5114C119.911 44.3176 119.41 45.0478 118.782 45.6603C118.155 46.2727 117.412 46.7553 116.598 47.0804C115.783 47.4055 114.913 47.5668 114.036 47.555ZM118.092 89.7469C115.108 89.7469 112.695 87.3887 112.695 84.4737C112.695 81.5587 115.108 79.2006 118.092 79.2006C121.076 79.2006 123.489 81.5656 123.489 84.4737C123.489 87.3819 121.076 89.7469 118.092 89.7469ZM66.77 147.772C62.3013 147.772 58.6713 144.231 58.6713 139.859C58.6713 135.486 62.3013 131.946 66.77 131.946C71.2388 131.946 74.8688 135.486 74.8688 139.852C74.8688 144.231 71.2457 147.772 66.77 147.772ZM145.097 155.678C140.628 155.678 136.998 152.131 136.998 147.758C136.998 143.392 140.621 139.852 145.097 139.852C149.573 139.852 153.196 143.392 153.196 147.758C153.196 152.131 149.566 155.678 145.097 155.678ZM134.303 174.137C129.828 174.137 126.198 170.59 126.198 166.224C126.198 161.852 129.828 158.304 134.296 158.304C138.765 158.304 142.395 161.852 142.395 166.224C142.395 170.59 138.772 174.131 134.296 174.131L134.303 174.137ZM70.8263 174.137C65.6013 174.137 61.3732 170.006 61.3732 164.904C61.3732 159.803 65.6082 155.678 70.8263 155.678C76.0444 155.678 80.2794 159.803 80.2794 164.904C80.2794 170.006 76.0444 174.137 70.8263 174.137ZM42.4669 105.58C37.9982 105.58 34.3682 102.032 34.3682 97.66C34.3682 93.2944 37.9913 89.7537 42.4669 89.7537C46.9425 89.7537 50.5657 93.2944 50.5657 97.66C50.5657 102.032 46.9357 105.58 42.4669 105.58Z" fill="white"/>
<path opacity="0.5" d="M82.9814 118.751C77.0139 118.751 72.1739 114.035 72.1739 108.205C72.1739 102.382 77.0139 97.6589 82.9883 97.6589C88.9627 97.6589 93.7958 102.382 93.7958 108.205C93.7958 114.035 88.9558 118.751 82.9883 118.751H82.9814ZM139.7 102.939C133.733 102.939 128.893 98.2158 128.893 92.3858C128.893 86.5627 133.733 81.8396 139.707 81.8396C145.675 81.8396 150.515 86.5627 150.515 92.3858C150.515 98.2158 145.675 102.932 139.707 102.932L139.7 102.939ZM169.407 147.771C164.938 147.771 161.308 144.23 161.308 139.858C161.308 135.485 164.938 131.945 169.407 131.945C173.876 131.945 177.506 135.485 177.506 139.851C177.506 144.23 173.883 147.771 169.407 147.771ZM177.52 116.125C176.468 116.137 175.424 115.941 174.448 115.55C173.471 115.158 172.582 114.578 171.83 113.843C171.078 113.107 170.478 112.231 170.065 111.264C169.651 110.296 169.432 109.257 169.421 108.205C169.421 103.84 173.044 100.299 177.52 100.299C181.988 100.299 185.611 103.84 185.611 108.205C185.611 112.578 181.988 116.125 177.52 116.125ZM146.458 79.2064C145.581 79.2173 144.711 79.0551 143.897 78.7292C143.083 78.4032 142.341 77.9199 141.714 77.3068C141.087 76.6938 140.587 75.963 140.242 75.1565C139.898 74.3499 139.716 73.4834 139.707 72.6064C139.718 71.7307 139.901 70.8656 140.246 70.0606C140.591 69.2556 141.092 68.5265 141.718 67.9149C142.345 67.3033 143.087 66.8212 143.9 66.4961C144.713 66.171 145.583 66.0093 146.458 66.0202C147.335 66.0093 148.205 66.1712 149.018 66.4968C149.832 66.8223 150.574 67.305 151.201 67.9174C151.828 68.5297 152.328 69.2596 152.672 70.0654C153.017 70.8711 153.2 71.7369 153.21 72.6133C153.199 73.4891 153.016 74.3541 152.67 75.1591C152.325 75.9641 151.825 76.6932 151.198 77.3048C150.571 77.9164 149.83 78.3985 149.017 78.7236C148.203 79.0487 147.334 79.2105 146.458 79.1996V79.2064ZM147.799 58.107C144.822 58.107 142.402 55.7489 142.402 52.8339C142.402 49.9189 144.822 47.5608 147.799 47.5608C150.783 47.5608 153.203 49.9258 153.203 52.8339C153.203 55.742 150.783 58.107 147.799 58.107ZM159.954 63.3802C157.713 63.3802 155.898 61.6064 155.898 59.427C155.898 57.2477 157.713 55.467 159.954 55.467C162.195 55.467 164.01 57.2408 164.01 59.427C164.01 61.6133 162.195 63.3802 159.954 63.3802ZM181.569 95.0327C179.335 95.0327 177.513 93.2589 177.513 91.0727C177.513 88.8864 179.335 87.1127 181.569 87.1127C183.803 87.1127 185.625 88.8864 185.625 91.0727C185.625 93.2589 183.81 95.0327 181.569 95.0327ZM65.4227 60.7471C63.1814 60.7471 61.3664 58.9802 61.3664 56.7939C61.3664 54.6077 63.1814 52.8339 65.4227 52.8339C67.6639 52.8339 69.4789 54.6077 69.4789 56.7939C69.4789 58.9802 67.6639 60.7471 65.4227 60.7471ZM60.0258 95.0327C57.7845 95.0327 55.9695 93.2589 55.9695 91.0727C55.9695 88.8864 57.7845 87.1127 60.0258 87.1127C62.267 87.1127 64.082 88.8864 64.082 91.0727C64.082 93.2589 62.267 95.0327 60.0258 95.0327ZM70.8333 100.306C68.592 100.306 66.777 98.532 66.777 96.3458C66.777 94.1595 68.592 92.3858 70.8333 92.3858C73.0745 92.3858 74.8895 94.1595 74.8895 96.3458C74.8895 98.532 73.0745 100.306 70.8333 100.306ZM84.3289 50.1871C82.0877 50.1871 80.2727 48.4133 80.2727 46.227C80.2727 44.0408 82.0877 42.2739 84.3289 42.2739C86.5702 42.2739 88.3852 44.0408 88.3852 46.227C88.3852 48.4133 86.5702 50.1871 84.3289 50.1871ZM181.569 129.311C179.335 129.311 177.513 127.538 177.513 125.351C177.513 123.165 179.335 121.398 181.569 121.398C183.803 121.398 185.625 123.165 185.625 125.351C185.625 127.538 183.81 129.311 181.569 129.311ZM168.066 87.1127C162.841 87.1127 158.613 82.9877 158.613 77.8864C158.613 72.7852 162.841 68.6533 168.066 68.6533C173.285 68.6533 177.52 72.7852 177.52 77.8864C177.52 82.9808 173.285 87.1127 168.066 87.1127ZM159.954 108.205C159.078 108.216 158.209 108.054 157.396 107.729C156.582 107.404 155.841 106.922 155.214 106.31C154.587 105.699 154.087 104.97 153.742 104.165C153.397 103.36 153.213 102.495 153.203 101.619C153.203 97.9752 156.228 95.0327 159.954 95.0327C160.83 95.0218 161.699 95.1835 162.512 95.5086C163.326 95.8337 164.067 96.3158 164.694 96.9274C165.321 97.539 165.821 98.2681 166.166 99.0731C166.511 99.8781 166.694 100.743 166.705 101.619C166.694 102.495 166.511 103.36 166.166 104.165C165.821 104.97 165.321 105.699 164.694 106.31C164.067 106.922 163.326 107.404 162.512 107.729C161.699 108.054 160.83 108.216 159.954 108.205ZM68.1314 79.1996C67.2556 79.2105 66.3863 79.0487 65.573 78.7236C64.7598 78.3985 64.0185 77.9164 63.3916 77.3048C62.7647 76.6932 62.2643 75.9641 61.9192 75.1591C61.5741 74.3541 61.3909 73.4891 61.3802 72.6133C61.3802 68.9696 64.4052 66.0202 68.1314 66.0202C71.8577 66.0202 74.8895 68.9764 74.8895 72.6133C74.8788 73.4897 74.6954 74.3553 74.3498 75.1607C74.0043 75.9662 73.5033 76.6956 72.8757 77.3073C72.248 77.919 71.506 78.4009 70.6919 78.7256C69.8778 79.0503 69.0078 79.2114 68.1314 79.1996ZM97.8314 60.7402C96.9556 60.7511 96.0863 60.5894 95.273 60.2643C94.4598 59.9392 93.7185 59.457 93.0916 58.8454C92.4647 58.2338 91.9643 57.5047 91.6192 56.6997C91.2741 55.8948 91.0909 55.0297 91.0802 54.1539C91.0802 50.5102 94.1052 47.5608 97.8383 47.5608C101.571 47.5608 104.59 50.517 104.59 54.1539C104.579 55.0297 104.396 55.8948 104.05 56.6997C103.705 57.5047 103.205 58.2338 102.578 58.8454C101.951 59.457 101.21 59.9392 100.397 60.2643C99.5834 60.5894 98.7141 60.7511 97.8383 60.7402H97.8314ZM80.2864 63.3802C77.3027 63.3802 74.8895 61.022 74.8895 58.107C74.8895 55.192 77.3027 52.8339 80.2864 52.8339C83.2702 52.8339 85.6833 55.1989 85.6833 58.107C85.6833 61.0152 83.2702 63.3802 80.2864 63.3802ZM50.5727 84.4727C49.872 84.4808 49.1767 84.3509 48.5263 84.0904C47.8759 83.8298 47.2832 83.4436 46.782 82.9539C46.2809 82.4643 45.8811 81.8807 45.6055 81.2365C45.3299 80.5923 45.1839 79.9002 45.1758 79.1996C45.1758 76.2914 47.5889 73.9264 50.5727 73.9264C53.5564 73.9264 55.9695 76.2914 55.9695 79.1996C55.9615 79.9002 55.8154 80.5923 55.5398 81.2365C55.2642 81.8807 54.8645 82.4643 54.3633 82.9539C53.8621 83.4436 53.2694 83.8298 52.619 84.0904C51.9686 84.3509 51.2733 84.4808 50.5727 84.4727ZM164.01 126.671C163.31 126.68 162.614 126.55 161.964 126.289C161.313 126.029 160.721 125.642 160.22 125.153C159.718 124.663 159.319 124.079 159.043 123.435C158.767 122.791 158.621 122.099 158.613 121.398C158.613 118.483 161.026 116.125 164.01 116.125C166.994 116.125 169.407 118.483 169.407 121.398C169.399 122.099 169.253 122.791 168.977 123.435C168.702 124.079 168.302 124.663 167.801 125.153C167.3 125.642 166.707 126.029 166.057 126.289C165.406 126.55 164.711 126.68 164.01 126.671ZM105.944 129.311C100.719 129.311 96.4908 125.18 96.4908 120.078C96.4908 114.977 100.726 110.852 105.944 110.852C111.169 110.852 115.397 114.977 115.397 120.078C115.397 125.18 111.169 129.311 105.944 129.311ZM88.3852 134.585C87.6845 134.593 86.9892 134.463 86.3388 134.202C85.6884 133.942 85.0957 133.555 84.5945 133.066C84.0934 132.576 83.6936 131.993 83.418 131.348C83.1424 130.704 82.9964 130.012 82.9883 129.311C82.9883 126.396 85.4014 124.038 88.3852 124.038C91.3689 124.038 93.782 126.396 93.782 129.311C93.774 130.012 93.6279 130.704 93.3523 131.348C93.0767 131.993 92.677 132.576 92.1758 133.066C91.6746 133.555 91.0819 133.942 90.4315 134.202C89.7811 134.463 89.0858 134.593 88.3852 134.585ZM91.0802 155.677C86.6114 155.677 82.9883 152.13 82.9883 147.757C82.9883 143.391 86.6114 139.851 91.0802 139.851C95.5489 139.851 99.1789 143.391 99.1789 147.757C99.1789 152.13 95.5558 155.677 91.0802 155.677ZM91.0802 171.49C89.6664 171.506 88.3039 170.961 87.2919 169.973C86.28 168.986 85.7014 167.637 85.6833 166.223C85.6833 163.308 88.1033 160.95 91.0802 160.95C94.057 160.95 96.4839 163.308 96.4839 166.223C96.4758 166.924 96.3296 167.617 96.0536 168.262C95.7775 168.907 95.3771 169.49 94.8752 169.98C94.3734 170.47 93.7798 170.856 93.1286 171.116C92.4774 171.376 91.7813 171.506 91.0802 171.496V171.49Z" fill="white"/>
</g>
<defs>
<clipPath id="clip0_108_221">
<rect width="220" height="220" fill="white"/>
</clipPath>
</defs>
</svg>
