<svg width="220" height="220" viewBox="0 0 220 220" fill="none" xmlns="http://www.w3.org/2000/svg">
<g clip-path="url(#clip0_108_222)">
<path d="M110 220C170.751 220 220 170.751 220 110C220 49.2487 170.751 0 110 0C49.2487 0 0 49.2487 0 110C0 170.751 49.2487 220 110 220Z" fill="#57BEEA"/>
<path d="M48.3038 130.687C45.6872 130.992 43.0357 130.739 40.524 129.945C38.0122 129.151 35.6973 127.833 33.7317 126.079C31.7661 124.326 30.1945 122.175 29.1203 119.77C28.0462 117.364 27.494 114.759 27.5 112.124C27.4889 107.208 29.4201 102.486 32.8734 98.9862C36.3267 95.4865 41.0225 93.4925 45.9388 93.4381C52.5388 63.1194 79.4201 40.425 111.568 40.425C117.569 40.425 123.393 41.2156 128.927 42.6938C130.619 40.136 132.919 38.0375 135.621 36.5858C138.323 35.1342 141.342 34.3746 144.409 34.375C149.353 34.3877 154.09 36.3634 157.577 39.8676C161.064 43.3717 163.017 48.1175 163.006 53.0612C163.006 56.2856 162.195 59.3175 160.765 61.9575C172.354 74.4562 178.779 90.8794 178.75 107.924C178.766 116.851 177.009 125.693 173.582 133.936C170.155 142.18 165.125 149.661 158.785 155.946C161.026 159.026 162.346 162.827 162.346 166.939C162.352 169.387 161.875 171.813 160.943 174.077C160.011 176.341 158.642 178.4 156.914 180.135C155.187 181.87 153.135 183.248 150.875 184.19C148.615 185.132 146.191 185.62 143.743 185.625C139.999 185.621 136.343 184.487 133.254 182.373C130.164 180.258 127.784 177.261 126.424 173.772C121.551 174.874 116.57 175.427 111.574 175.423C82.4176 175.423 57.5988 156.764 48.3038 130.687ZM51.6725 129.965C60.61 154.495 84.0538 172.006 111.568 172.006C116.346 172.006 121 171.476 125.476 170.479C124.947 167.781 125.023 164.999 125.696 162.333C126.369 159.667 127.623 157.183 129.369 155.059C131.115 152.935 133.309 151.223 135.794 150.046C138.279 148.87 140.993 148.257 143.743 148.252C148.693 148.252 153.203 150.198 156.53 153.368C162.507 147.407 167.246 140.323 170.476 132.524C173.705 124.725 175.361 116.365 175.347 107.924C175.347 91.355 169.091 76.2575 158.813 64.8862C155.403 69.08 150.219 71.7544 144.409 71.7544C141.96 71.749 139.536 71.2611 137.276 70.3187C135.015 69.3762 132.963 67.9977 131.235 66.2618C129.507 64.5259 128.139 62.4666 127.207 60.2016C126.276 57.9367 125.799 55.5103 125.806 53.0612C125.806 50.49 126.328 48.0356 127.263 45.8013C122.133 44.5 116.86 43.8441 111.568 43.8487C81.2076 43.8487 55.7976 65.1681 49.3694 93.7269C53.6766 94.5089 57.5719 96.7799 60.3744 100.143C63.1769 103.506 64.7082 107.747 64.7007 112.124C64.7069 116.098 63.4465 119.969 61.1025 123.178C58.7585 126.386 55.4529 128.763 51.6657 129.965H51.6725ZM111.568 126.637C109.116 126.631 106.69 126.142 104.428 125.198C102.166 124.254 100.112 122.874 98.383 121.136C96.6542 119.399 95.2846 117.337 94.3525 115.07C93.4203 112.803 92.9437 110.375 92.9501 107.924C92.9501 97.5906 101.283 89.2169 111.568 89.2169C121.853 89.2169 130.192 97.5906 130.192 107.924C130.198 110.376 129.721 112.805 128.789 115.072C127.856 117.34 126.486 119.401 124.757 121.139C123.027 122.877 120.972 124.257 118.709 125.2C116.446 126.144 114.019 126.632 111.568 126.637Z" fill="white"/>
</g>
<defs>
<clipPath id="clip0_108_222">
<rect width="220" height="220" fill="white"/>
</clipPath>
</defs>
</svg>
