<svg width="220" height="220" viewBox="0 0 220 220" fill="none" xmlns="http://www.w3.org/2000/svg">
<g clip-path="url(#clip0_108_223)">
<path d="M110 220C170.751 220 220 170.751 220 110C220 49.2487 170.751 0 110 0C49.2487 0 0 49.2487 0 110C0 170.751 49.2487 220 110 220Z" fill="#0CAFA5"/>
<path d="M57.8393 81.9417C57.6124 81.8042 57.4268 81.9142 57.4268 82.1823V98.0086C57.4341 98.1528 57.4753 98.2933 57.5469 98.4187C57.6186 98.5441 57.7187 98.6509 57.8393 98.7304L77.8455 110.294C77.966 110.374 78.0662 110.481 78.1378 110.606C78.2095 110.731 78.2507 110.872 78.258 111.016V168.285C78.2674 168.43 78.3109 168.571 78.385 168.697C78.459 168.822 78.5616 168.928 78.6843 169.007L92.3861 176.913C92.613 177.05 92.7986 176.94 92.7986 176.672V102.629C92.7923 102.483 92.7517 102.341 92.68 102.215C92.6083 102.088 92.5076 101.98 92.3861 101.9L57.8393 81.9417ZM162.16 81.9417C162.387 81.8042 162.573 81.9142 162.573 82.1823V98.0086C162.566 98.1528 162.524 98.2933 162.453 98.4187C162.381 98.5441 162.281 98.6509 162.16 98.7304L142.154 110.28C142.033 110.361 141.932 110.469 141.86 110.595C141.789 110.722 141.748 110.864 141.742 111.009V168.278C141.734 168.424 141.692 168.566 141.619 168.693C141.546 168.819 141.445 168.927 141.322 169.007L127.621 176.913C127.387 177.05 127.201 176.94 127.201 176.672V102.629C127.208 102.483 127.249 102.342 127.321 102.215C127.392 102.088 127.493 101.98 127.614 101.9L162.16 81.9417Z" fill="white"/>
<path d="M164.862 51.5824C164.862 51.3212 164.677 51.2112 164.45 51.3418L110.412 82.5956C110.284 82.6597 110.143 82.6931 110 82.6931C109.857 82.6931 109.715 82.6597 109.587 82.5956L55.5497 51.3418C55.316 51.2043 55.1304 51.3212 55.1304 51.5824V67.4087C55.1377 67.5529 55.1789 67.6934 55.2506 67.8188C55.3222 67.9442 55.4223 68.051 55.5429 68.1306L102.32 95.1768C102.441 95.2568 102.54 95.3637 102.612 95.489C102.684 95.6143 102.725 95.7546 102.733 95.8987V194.108C102.74 194.254 102.782 194.396 102.855 194.523C102.927 194.65 103.03 194.757 103.152 194.837L109.58 198.549C109.711 198.614 109.854 198.647 110 198.647C110.145 198.647 110.289 198.614 110.419 198.549L116.847 194.837C116.969 194.757 117.069 194.649 117.141 194.522C117.213 194.395 117.253 194.253 117.26 194.108V95.9056C117.268 95.7609 117.311 95.6202 117.384 95.4948C117.457 95.3695 117.558 95.2629 117.679 95.1837L164.45 68.1306C164.571 68.0503 164.672 67.9424 164.744 67.8158C164.815 67.6891 164.856 67.5472 164.862 67.4018V51.5893V51.5824ZM110.247 91.5674C110.192 91.5674 110.172 91.5262 110.199 91.4781C110.227 91.4299 110.268 91.4299 110.295 91.4781C110.323 91.5262 110.295 91.5674 110.247 91.5674Z" fill="white"/>
<path d="M103.207 49.5139C103.075 49.5431 102.956 49.6159 102.87 49.7206C102.784 49.8254 102.736 49.9559 102.733 50.0914V69.8433C102.742 69.988 102.784 70.1287 102.857 70.254C102.93 70.3794 103.031 70.4859 103.152 70.5651L109.58 74.2776C109.842 74.4151 110.151 74.4151 110.419 74.2776L116.847 70.5651C116.967 70.4852 117.067 70.3783 117.139 70.253C117.21 70.1277 117.252 69.9874 117.26 69.8433V50.0845C117.258 49.9496 117.211 49.8192 117.127 49.7144C117.042 49.6095 116.924 49.5365 116.792 49.507L110.467 48.3451C110.155 48.2977 109.838 48.2977 109.525 48.3451L103.207 49.5139Z" fill="white"/>
</g>
<defs>
<clipPath id="clip0_108_223">
<rect width="220" height="220" fill="white"/>
</clipPath>
</defs>
</svg>
