<svg width="220" height="220" viewBox="0 0 220 220" fill="none" xmlns="http://www.w3.org/2000/svg">
<g clip-path="url(#clip0_108_224)">
<path d="M110 220C170.751 220 220 170.751 220 110C220 49.2487 170.751 0 110 0C49.2487 0 0 49.2487 0 110C0 170.751 49.2487 220 110 220Z" fill="#1C1C1C"/>
<path d="M168.438 75.625V144.375L110 178.75L51.5625 144.375V75.625L110 41.25L168.438 75.625ZM108.158 112.798L102.726 116.009L112.874 121.935L118.271 118.752L132.701 127.242L111.176 139.892L66.5225 113.864L66.3369 126.534L111.203 152.591L154.309 127.242L129.051 112.379L134.138 109.374L123.991 103.448L118.937 106.432L111.856 102.266L118.051 98.6012L107.903 92.6681L101.736 96.3119L89.6775 89.2169L111.196 76.56L140.951 93.9469L151.855 87.4981L111.176 63.8619L68.0694 89.2169L90.9562 102.685L86.6388 105.229L96.7863 111.162L101.069 108.632L108.158 112.798Z" fill="white"/>
</g>
<defs>
<clipPath id="clip0_108_224">
<rect width="220" height="220" fill="white"/>
</clipPath>
</defs>
</svg>
