<svg width="220" height="220" viewBox="0 0 220 220" fill="none" xmlns="http://www.w3.org/2000/svg">
<g clip-path="url(#clip0_108_225)">
<path d="M110 220C170.751 220 220 170.751 220 110C220 49.2487 170.751 0 110 0C49.2487 0 0 49.2487 0 110C0 170.751 49.2487 220 110 220Z" fill="#00D4D5"/>
<path d="M113.568 34.375V71.8919L146.142 53.1575L113.568 34.375Z" fill="white"/>
<path opacity="0.9" d="M146.142 53.1572V90.6741L178.708 71.8916L146.142 53.1572Z" fill="white"/>
<path opacity="0.8" d="M113.568 71.8921V109.409L146.142 90.6746L113.568 71.8921ZM146.142 90.6815V128.191L178.709 109.409L146.142 90.6815Z" fill="white"/>
<path opacity="0.8" d="M113.568 109.409V146.926L146.142 128.192L113.568 109.409Z" fill="white"/>
<path d="M146.142 128.191V165.708L178.708 146.926L146.142 128.191Z" fill="white"/>
<path opacity="0.4" d="M29.3765 70.6265V108.143L61.9502 89.3608L29.3765 70.6265Z" fill="white"/>
<path opacity="0.2" d="M70.4688 84.5747V122.092L102.987 103.357L70.4688 84.5747Z" fill="white"/>
<path opacity="0.3" d="M46.3237 108.301V145.818L78.8906 127.036L46.3237 108.301Z" fill="white"/>
<path opacity="0.9" d="M67.7876 136.614V174.131L100.306 155.348L67.7876 136.614Z" fill="white"/>
<path opacity="0.7" d="M113.3 152.764V190.287L145.819 171.498L113.3 152.764Z" fill="white"/>
<path opacity="0.9" d="M75.8926 66.0479V103.572L108.411 84.8372L75.8926 66.0479Z" fill="white"/>
<path opacity="0.8" d="M113.568 34.375V71.8919L80.9946 53.1575L113.568 34.375Z" fill="white"/>
<path opacity="0.6" d="M75.8936 50.3237V87.8337L43.313 69.0512L75.8936 50.3237Z" fill="white"/>
<path opacity="0.6" d="M108.466 68.8877V106.411L75.8926 87.6221L108.466 68.8877Z" fill="white"/>
<path opacity="0.95" d="M70.3174 84.5747V122.092L37.7437 103.357L70.3174 84.5747Z" fill="white"/>
<path opacity="0.6" d="M113.568 109.409V146.926L81.0488 128.192L113.568 109.409Z" fill="white"/>
<path opacity="0.55" d="M46.3237 118.147V155.664L13.75 136.875L46.3237 118.147Z" fill="white"/>
<path d="M178.708 71.8921V109.409L146.142 90.6746L178.708 71.8921Z" fill="white"/>
<path opacity="0.95" d="M146.142 90.6807V128.191L113.568 109.408L146.142 90.6807Z" fill="white"/>
<path opacity="0.9" d="M178.708 109.409V146.926L146.142 128.192L178.708 109.409Z" fill="white"/>
<path opacity="0.7" d="M146.142 128.191V165.708L113.568 146.926L146.142 128.191Z" fill="white"/>
<path opacity="0.4" d="M106.356 143.825V181.342L73.7896 162.607L106.356 143.825Z" fill="white"/>
<path d="M146.142 53.1572V90.6741L113.568 71.8916L146.142 53.1572Z" fill="white"/>
</g>
<defs>
<clipPath id="clip0_108_225">
<rect width="220" height="220" fill="white"/>
</clipPath>
</defs>
</svg>
