<svg width="220" height="220" viewBox="0 0 220 220" fill="none" xmlns="http://www.w3.org/2000/svg">
<g clip-path="url(#clip0_108_226)">
<path d="M110 220C170.751 220 220 170.751 220 110C220 49.2487 170.751 0 110 0C49.2487 0 0 49.2487 0 110C0 170.751 49.2487 220 110 220Z" fill="#55DDFF"/>
<path d="M81.3313 69.575C81.3757 56.5396 86.2783 43.989 95.0813 34.375C97.4876 31.9688 97.7626 31.4875 97.7626 29.5625C97.7626 27.6375 97.7626 27.5 96.3188 27.5C94.5341 27.6976 92.7652 28.0193 91.0251 28.4625C70.5052 33.3099 52.5916 45.7683 40.9063 63.3187C35.2646 71.6411 31.2951 80.9811 29.2188 90.8187C27.4974 99.8795 27.0807 109.14 27.9813 118.319C30.5073 138.686 40.7424 157.311 56.5813 170.363C65.0376 177.238 74.5251 182.737 74.5251 180.262C73.9702 179.196 73.2246 178.241 72.3251 177.444C68.0709 172.755 64.8892 167.195 63.0014 161.152C61.1137 155.109 60.5651 148.727 61.3938 142.45C62.0053 134.651 64.4389 127.105 68.4988 120.418C72.5587 113.731 78.1315 108.09 84.7688 103.95C86.4457 102.755 88.216 101.698 90.0626 100.787C91.0938 100.787 90.4751 98.725 87.9313 93.9125C83.5791 86.5427 81.2988 78.1339 81.3313 69.575ZM187.963 91.025C185.531 79.1825 180.527 68.0192 173.304 58.3248C166.08 48.6305 156.815 40.6421 146.163 34.925C142.313 32.7937 140.388 32.3125 140.388 33.6187C140.751 34.7181 141.31 35.7429 142.038 36.6437C146.299 42.6975 148.689 49.869 148.913 57.2687C149.346 61.1268 148.957 65.0329 147.772 68.7299C146.587 72.427 144.633 75.8312 142.038 78.7188C140.705 80.1316 138.872 80.966 136.931 81.0431C134.99 81.1202 133.097 80.4339 131.656 79.1313C128.906 77.1375 128.906 75.7625 130.625 73.2187C134.267 67.8624 136.076 61.4705 135.781 55C136.048 52.3986 135.73 49.7704 134.85 47.308C133.97 44.8456 132.55 42.6112 130.694 40.7687C129.006 39.0181 126.869 37.7651 124.516 37.1468C122.164 36.5284 119.687 36.5685 117.356 37.2625C114.023 38.6055 111.073 40.752 108.77 43.5109C106.467 46.2697 104.882 49.5553 104.156 53.075C102.58 58.1625 101.656 63.4296 101.406 68.75C101.457 76.8968 103.461 84.9127 107.25 92.125C109.894 96.2705 113.164 99.9813 116.944 103.125C117.7 103.62 118.367 104.225 118.938 104.912C118.273 105.459 117.5 105.857 116.669 106.081C111.355 108.596 106.599 112.147 102.679 116.528C98.7589 120.908 95.755 126.029 93.8438 131.587C91.3274 138.04 90.2028 144.951 90.5438 151.869C90.4048 155.129 90.944 158.383 92.1274 161.424C93.3108 164.466 95.1126 167.228 97.4188 169.538C100.029 171.797 103.117 173.434 106.451 174.327C109.786 175.221 113.279 175.346 116.669 174.694C125.751 174.014 134.243 169.94 140.456 163.281C143.275 160.256 143.825 159.913 144.375 160.6C144.925 161.288 144.788 161.7 143.756 163.419C137.228 174.569 126.751 182.862 114.4 186.656C111.994 187.275 110.963 187.756 110.963 188.306C110.963 190.094 126.019 187.619 135.163 184.387C146.825 180.126 157.386 173.308 166.071 164.433C174.755 155.559 181.343 144.852 185.35 133.1C188.315 124.915 189.601 116.217 189.131 107.525C189.445 101.998 189.052 96.4529 187.963 91.025Z" fill="white"/>
</g>
<defs>
<clipPath id="clip0_108_226">
<rect width="220" height="220" fill="white"/>
</clipPath>
</defs>
</svg>
