<svg width="220" height="220" viewBox="0 0 220 220" fill="none" xmlns="http://www.w3.org/2000/svg">
<g clip-path="url(#clip0_108_227)">
<path d="M110 220C170.751 220 220 170.751 220 110C220 49.2487 170.751 0 110 0C49.2487 0 0 49.2487 0 110C0 170.751 49.2487 220 110 220Z" fill="#102044"/>
<path d="M166.705 133.031C169.799 134.221 171.848 137.163 171.875 140.456C171.877 141.836 171.517 143.192 170.832 144.39C170.147 145.587 169.16 146.585 167.97 147.283C166.776 147.985 165.42 148.366 164.035 148.391C162.65 148.415 161.282 148.081 160.064 147.421L118.608 170.039C118.71 171.133 118.586 172.235 118.242 173.278C117.898 174.321 117.342 175.282 116.609 176.1C115.877 176.918 114.983 177.575 113.984 178.031C112.985 178.487 111.903 178.732 110.805 178.75C108.69 178.802 106.642 178.012 105.111 176.553C103.579 175.095 102.689 173.089 102.637 170.974L82.4245 159.404H81.9639V159.163L60.6652 146.988C59.3352 147.905 57.757 148.394 56.1414 148.39C54.2181 148.4 52.3558 147.715 50.8979 146.46C49.44 145.206 48.4845 143.467 48.2077 141.563C47.9419 139.661 48.3752 137.727 49.4271 136.12C50.479 134.513 52.0781 133.342 53.9277 132.825V87.3401C52.3715 86.9034 50.9853 86.003 49.9536 84.7589C48.9219 83.5147 48.2937 81.9858 48.1527 80.3757C47.8777 77.0894 49.672 73.9751 52.6764 72.5519C54.142 71.856 55.7837 71.6195 57.3861 71.8734C58.9885 72.1274 60.4767 72.86 61.6552 73.9751L102.699 50.4625C102.52 49.3222 102.59 48.1566 102.906 47.0462C103.221 45.9359 103.774 44.9072 104.525 44.0312C105.277 43.1553 106.21 42.453 107.26 41.9728C108.309 41.4926 109.451 41.246 110.605 41.25C111.793 41.2481 112.966 41.5115 114.039 42.0211C115.112 42.5306 116.058 43.2734 116.807 44.1952C117.556 45.117 118.09 46.1945 118.369 47.349C118.649 48.5035 118.667 49.7058 118.422 50.8682L158.49 73.8169C159.954 72.4969 161.858 71.7682 163.845 71.775C164.929 71.3702 166.088 71.2074 167.241 71.298C168.394 71.3887 169.514 71.7307 170.521 72.2999C171.528 72.8692 172.398 73.6519 173.07 74.5932C173.742 75.5345 174.201 76.6116 174.412 77.7487C174.624 78.8859 174.585 80.0557 174.296 81.176C174.008 82.2962 173.478 83.3398 172.744 84.2335C172.009 85.1272 171.088 85.8493 170.045 86.3491C169.002 86.849 167.862 87.1144 166.705 87.1269V133.038V133.031ZM138.394 115.122V154.193L156.764 144.176C156.191 143.08 155.881 141.866 155.858 140.63C155.835 139.394 156.1 138.17 156.631 137.054C157.163 135.938 157.946 134.96 158.92 134.199C159.894 133.438 161.032 132.913 162.243 132.667V87.4982C160.437 87.1411 158.811 86.1704 157.639 84.7507C156.467 83.3309 155.823 81.5496 155.815 79.7088C155.815 78.98 155.918 78.2513 156.118 77.5432L138.703 67.5607V103.888H138.676L138.607 106.267L137.624 106.728L131.347 110.481L137.349 114.056L138.305 114.51L138.332 114.936L138.366 115.122H138.394ZM110.619 57.1244C108.336 57.1244 106.164 56.1619 104.645 54.4638L86.4258 64.9069V103.489L93.9058 107.944L103.352 102.389C103.157 101.368 103.191 100.315 103.451 99.308C103.711 98.3008 104.191 97.3636 104.856 96.5637C105.521 95.7639 106.355 95.1212 107.298 94.6818C108.241 94.2425 109.269 94.0173 110.31 94.0225C111.325 94.0202 112.328 94.2373 113.252 94.6588C114.175 95.0803 114.997 95.6963 115.66 96.4647C116.323 97.2331 116.813 98.1358 117.095 99.1109C117.377 100.086 117.445 101.111 117.295 102.114L127.05 107.917L134.283 103.586V65.0238L116.311 54.7319C115.569 55.4888 114.684 56.0897 113.706 56.4994C112.728 56.9091 111.679 57.1192 110.619 57.1175V57.1244ZM115.294 115.026L122.74 110.543L115.26 106.081C113.96 107.344 112.228 108.063 110.416 108.092C108.605 108.122 106.85 107.459 105.511 106.239L98.1545 110.509L105.476 114.874C106.819 113.634 108.588 112.957 110.415 112.985C112.243 113.014 113.99 113.744 115.294 115.026ZM63.5389 143.536L81.9639 154.096V116.339L81.9983 115.122L82.3077 114.813L83.8477 113.898L89.5677 110.543L84.3977 107.491L81.9983 106.267V104.803H81.9708V67.4369L63.9033 77.7907C64.9689 81.9157 62.5283 86.1369 58.4033 87.3125V132.853C60.5827 133.485 62.3908 135.018 63.3739 137.053C64.357 139.095 64.4189 141.453 63.5389 143.536ZM110.619 162.738C113.128 162.738 115.486 163.907 116.985 165.914L133.966 156.633V117.198L127.05 113.073L117.288 118.938C117.356 119.281 117.384 119.625 117.384 119.969C117.384 123.853 114.221 126.995 110.303 126.995C109.273 126.996 108.256 126.771 107.323 126.336C106.39 125.901 105.564 125.268 104.902 124.479C104.24 123.691 103.759 122.767 103.492 121.773C103.226 120.779 103.18 119.738 103.359 118.724L93.782 113.046L86.3983 117.349V156.633L103.758 166.581C105.201 164.189 107.807 162.731 110.619 162.738Z" fill="white"/>
</g>
<defs>
<clipPath id="clip0_108_227">
<rect width="220" height="220" fill="white"/>
</clipPath>
</defs>
</svg>
