<svg width="220" height="220" viewBox="0 0 220 220" fill="none" xmlns="http://www.w3.org/2000/svg">
<g clip-path="url(#clip0_108_228)">
<path d="M110 220C170.751 220 220 170.751 220 110C220 49.2487 170.751 0 110 0C49.2487 0 0 49.2487 0 110C0 170.751 49.2487 220 110 220Z" fill="#0050DB"/>
<path d="M110 178.75C105.54 178.748 101.162 177.549 97.3226 175.278L60.8438 153.828C56.9594 151.518 53.7437 148.235 51.5135 144.304C49.2833 140.373 48.1155 135.928 48.1251 131.409V88.5775C48.126 84.0617 49.2984 79.6234 51.5277 75.6963C53.757 71.7691 56.9669 68.4874 60.8438 66.1719L97.3226 44.7219C101.183 42.4536 105.578 41.2552 110.055 41.25C114.489 41.25 118.855 42.4463 122.678 44.7219L159.156 66.1788C163.039 68.4882 166.253 71.7685 168.483 75.697C170.713 79.6256 171.882 84.067 171.875 88.5844V131.416C171.875 135.933 170.703 140.372 168.474 144.301C166.245 148.229 163.034 151.512 159.156 153.828L122.678 175.278C118.828 177.547 114.455 178.75 110 178.75ZM89.0176 134.551L82.2594 141.426C84.0015 143.231 86.0926 144.663 88.4056 145.634C90.7186 146.606 93.2051 147.097 95.7138 147.077C106.233 147.063 114.771 138.387 114.785 127.669V121.811C117.673 123.509 120.952 124.403 124.286 124.396C126.801 124.443 129.298 123.972 131.622 123.012C133.947 122.051 136.048 120.622 137.796 118.814L131.044 111.939C129.257 113.767 126.823 114.799 124.286 114.799C121.745 114.772 119.318 113.738 117.537 111.925C115.756 110.112 114.767 107.667 114.785 105.126V72.8406H105.284V127.731C105.284 133.086 101.021 137.424 95.7619 137.424C94.5027 137.421 93.2571 137.164 92.0987 136.671C90.9402 136.177 89.8926 135.456 89.0176 134.551Z" fill="white"/>
</g>
<defs>
<clipPath id="clip0_108_228">
<rect width="220" height="220" fill="white"/>
</clipPath>
</defs>
</svg>
