<svg width="220" height="220" viewBox="0 0 220 220" fill="none" xmlns="http://www.w3.org/2000/svg">
<g clip-path="url(#clip0_108_230)">
<path d="M110 220C170.751 220 220 170.751 220 110C220 49.2487 170.751 0 110 0C49.2487 0 0 49.2487 0 110C0 170.751 49.2487 220 110 220Z" fill="#0093DD"/>
<path fill-rule="evenodd" clip-rule="evenodd" d="M93.0875 110.001L128.659 146.644L151.106 123.524C152.034 122.556 153.148 121.785 154.381 121.259C155.615 120.732 156.942 120.461 158.283 120.461C159.624 120.461 160.951 120.732 162.185 121.259C163.418 121.785 164.533 122.556 165.461 123.524C167.37 125.513 168.436 128.164 168.436 130.921C168.436 133.679 167.37 136.329 165.461 138.319L135.836 168.844C134.903 169.803 133.788 170.566 132.555 171.087C131.322 171.608 129.997 171.876 128.659 171.876C127.32 171.876 125.996 171.608 124.763 171.087C123.53 170.566 122.414 169.803 121.481 168.844L78.7463 124.803V150.983C78.7463 156.73 74.1675 161.446 68.5919 161.446C62.9819 161.446 58.4375 156.758 58.4375 150.983V69.0257C58.4375 63.2507 62.9819 58.562 68.5919 58.562C74.195 58.562 78.7463 63.2507 78.7463 69.0257V95.2057L121.481 51.1645C122.414 50.2048 123.53 49.442 124.763 48.9211C125.996 48.4002 127.32 48.1318 128.659 48.1318C129.997 48.1318 131.322 48.4002 132.555 48.9211C133.788 49.442 134.903 50.2048 135.836 51.1645L165.468 81.6895C167.377 83.679 168.443 86.3296 168.443 89.087C168.443 91.8444 167.377 94.495 165.468 96.4845C164.539 97.4549 163.424 98.2272 162.19 98.7549C160.955 99.2825 159.626 99.5545 158.283 99.5545C156.94 99.5545 155.611 99.2825 154.377 98.7549C153.142 98.2272 152.027 97.4549 151.099 96.4845L128.659 73.357L93.0875 110.001ZM128.673 99.5301C134.283 99.5301 138.834 104.219 138.834 110.001C138.834 115.783 134.283 120.471 128.673 120.471C123.062 120.471 118.511 115.783 118.511 110.001C118.511 104.219 123.062 99.5301 128.673 99.5301Z" fill="white"/>
</g>
<defs>
<clipPath id="clip0_108_230">
<rect width="220" height="220" fill="white"/>
</clipPath>
</defs>
</svg>
