<svg width="220" height="220" viewBox="0 0 220 220" fill="none" xmlns="http://www.w3.org/2000/svg">
<g clip-path="url(#clip0_108_10)">
<path d="M110 220C170.751 220 220 170.751 220 110C220 49.2487 170.751 0 110 0C49.2487 0 0 49.2487 0 110C0 170.751 49.2487 220 110 220Z" fill="#EC008C"/>
<path d="M110 212.3C166.499 212.3 212.3 166.499 212.3 110C212.3 53.5015 166.499 7.7002 110 7.7002C53.5013 7.7002 7.70001 53.5015 7.70001 110C7.70001 166.499 53.5013 212.3 110 212.3Z" fill="#EC008C"/>
<path d="M128.6 43L82.4 91.6V132L167.9 43H128.6Z" fill="url(#paint0_linear_108_10)"/>
<path d="M94.1 119.8L132.3 177H170.8L116.3 96.7002L94.1 119.8Z" fill="url(#paint1_linear_108_10)"/>
<path d="M82.4 43H49.2V176.9H82.4V43Z" fill="white"/>
</g>
<defs>
<linearGradient id="paint0_linear_108_10" x1="107.447" y1="87.5" x2="58.1479" y2="132" gradientUnits="userSpaceOnUse">
<stop stop-color="white"/>
<stop offset="1" stop-color="white" stop-opacity="0"/>
</linearGradient>
<linearGradient id="paint1_linear_108_10" x1="132.45" y1="151.904" x2="99.2307" y2="96.7002" gradientUnits="userSpaceOnUse">
<stop stop-color="white"/>
<stop offset="1" stop-color="white" stop-opacity="0"/>
</linearGradient>
<clipPath id="clip0_108_10">
<rect width="220" height="220" fill="white"/>
</clipPath>
</defs>
</svg>
