<svg width="220" height="220" viewBox="0 0 220 220" fill="none" xmlns="http://www.w3.org/2000/svg">
<g clip-path="url(#clip0_108_231)">
<path d="M110 220C170.751 220 220 170.751 220 110C220 49.2487 170.751 0 110 0C49.2487 0 0 49.2487 0 110C0 170.751 49.2487 220 110 220Z" fill="#005FFF"/>
<path fill-rule="evenodd" clip-rule="evenodd" d="M94.1944 123.798V90.6812H101.929C103.599 90.6812 104.954 92.015 104.954 93.6581V96.5181C104.954 99.6256 107.649 102.293 110.791 102.293C113.932 102.293 116.318 99.6256 116.318 96.5181V93.7681C116.318 92.0631 117.714 90.6744 119.446 90.6744H128.061V99.0481C128.061 100.753 126.658 102.142 124.933 102.142H122.011C120.512 102.135 119.071 102.722 118.004 103.774C116.937 104.827 116.331 106.26 116.318 107.759C116.318 110.859 119.233 113.376 122.375 113.376H124.953C126.672 113.376 128.061 114.751 128.061 116.442V123.798H134.997C137.404 123.798 139.349 125.709 139.349 128.061V130.584C139.349 132.935 137.397 134.846 134.997 134.846H132.412C131.847 134.853 131.285 134.747 130.76 134.536C130.235 134.326 129.757 134.013 129.353 133.617C128.949 133.221 128.626 132.75 128.405 132.229C128.183 131.709 128.066 131.15 128.061 130.584V124.905H119.419C117.7 124.905 116.318 123.53 116.318 121.839V119.006C116.29 117.485 115.669 116.035 114.588 114.964C113.507 113.893 112.051 113.287 110.529 113.272C107.387 113.272 104.947 116.022 104.947 119.288V121.859C104.947 123.544 103.572 124.905 101.867 124.905H94.1944V130.584C94.1944 132.935 92.2487 134.846 89.8425 134.846H87.2644C86.6986 134.853 86.1372 134.747 85.6121 134.536C85.0871 134.326 84.6088 134.013 84.2046 133.617C83.8004 133.221 83.4782 132.75 83.2565 132.229C83.0348 131.709 82.9179 131.15 82.9125 130.584V128.061C82.9125 125.709 84.8581 123.798 87.2644 123.798H94.1944ZM134.997 89.5744H128.054V82.7956C128.054 80.4444 130.006 78.5331 132.412 78.5331H134.997C137.404 78.5331 139.349 80.4444 139.349 82.7956V85.3187C139.349 87.67 137.397 89.5812 134.997 89.5812V89.5744ZM94.1944 89.5744H87.2644C86.6992 89.5807 86.1383 89.4757 85.6137 89.2653C85.0891 89.0548 84.6111 88.7431 84.207 88.3479C83.8029 87.9528 83.4806 87.4819 83.2584 86.9621C83.0363 86.4423 82.9188 85.8839 82.9125 85.3187V82.7956C82.9125 80.4444 84.8581 78.5331 87.2644 78.5331H89.8425C92.2487 78.5331 94.1944 80.4444 94.1944 82.7956V89.5744ZM109.835 79.64C109.269 79.6463 108.708 79.5411 108.183 79.3302C107.658 79.1194 107.179 78.807 106.775 78.4111C106.371 78.0152 106.049 77.5435 105.827 77.023C105.605 76.5024 105.489 75.9433 105.483 75.3775V72.8544C105.483 70.5031 107.436 68.5987 109.835 68.5987H112.42C114.826 68.5987 116.772 70.5031 116.772 72.8612V75.3844C116.766 75.9496 116.648 76.508 116.426 77.0277C116.204 77.5475 115.882 78.0184 115.477 78.4136C115.073 78.8087 114.595 79.1204 114.071 79.3309C113.546 79.5413 112.985 79.6464 112.42 79.64H109.835ZM109.835 146.987C109.269 146.994 108.708 146.889 108.183 146.678C107.658 146.467 107.179 146.155 106.775 145.759C106.371 145.363 106.049 144.891 105.827 144.37C105.605 143.85 105.489 143.291 105.483 142.725V140.202C105.483 137.851 107.436 135.939 109.835 135.939H112.42C114.826 135.939 116.772 137.851 116.772 140.202V142.732C116.766 143.297 116.648 143.855 116.426 144.375C116.204 144.895 115.882 145.366 115.477 145.761C115.073 146.156 114.595 146.468 114.071 146.678C113.546 146.889 112.985 146.994 112.42 146.987H109.835ZM143.701 112.757C143.136 112.763 142.575 112.658 142.051 112.448C141.526 112.237 141.048 111.926 140.644 111.53C140.24 111.135 139.917 110.664 139.695 110.145C139.473 109.625 139.356 109.066 139.349 108.501V105.978C139.349 103.627 141.295 101.716 143.701 101.716H146.279C148.686 101.716 150.631 103.627 150.631 105.978V108.501C150.631 110.852 148.686 112.764 146.279 112.764L143.701 112.757ZM74.8481 112.757C74.2829 112.763 73.722 112.658 73.1974 112.448C72.6729 112.237 72.1949 111.926 71.7907 111.53C71.3866 111.135 71.0643 110.664 70.8422 110.145C70.6201 109.625 70.5025 109.066 70.4962 108.501V105.978C70.4962 103.627 72.4419 101.716 74.8481 101.716H77.4263C79.8325 101.716 81.785 103.627 81.785 105.978V108.501C81.785 110.852 79.8325 112.764 77.4263 112.764L74.8481 112.757ZM128.239 147.276C129.203 146.884 130.281 146.884 131.244 147.276C132.207 147.668 132.979 148.42 133.396 149.373C133.593 149.844 133.695 150.349 133.694 150.859C133.693 151.37 133.591 151.875 133.392 152.345C133.194 152.815 132.903 153.241 132.538 153.597C132.172 153.953 131.739 154.233 131.264 154.419C130.302 154.812 129.225 154.813 128.262 154.422C127.298 154.032 126.526 153.281 126.108 152.329C125.911 151.858 125.809 151.353 125.809 150.842C125.81 150.331 125.912 149.825 126.111 149.355C126.31 148.884 126.6 148.458 126.966 148.101C127.331 147.744 127.764 147.464 128.239 147.276ZM92.125 61.1669C93.0873 60.7747 94.1648 60.7736 95.1279 61.164C96.091 61.5544 96.8636 62.3053 97.2812 63.2569C97.4778 63.7276 97.5785 64.2327 97.5774 64.7428C97.5764 65.2529 97.4736 65.7576 97.2752 66.2275C97.0767 66.6974 96.7865 67.123 96.4216 67.4794C96.0567 67.8358 95.6244 68.1158 95.15 68.3031C94.1869 68.6974 93.1077 68.6996 92.143 68.3091C91.1783 67.9186 90.4045 67.1664 89.9869 66.2131C89.7903 65.7424 89.6897 65.2373 89.6907 64.7272C89.6918 64.2171 89.7945 63.7124 89.993 63.2425C90.1914 62.7726 90.4816 62.347 90.8465 61.9906C91.2114 61.6342 91.6437 61.3542 92.1181 61.1669H92.125ZM150.934 91.6094C150.736 91.1379 150.635 90.6317 150.636 90.1205C150.637 89.6094 150.74 89.1036 150.939 88.6328C151.139 88.1621 151.43 87.7359 151.796 87.3793C152.162 87.0227 152.596 86.7428 153.072 86.5562C154.034 86.164 155.112 86.163 156.075 86.5534C157.038 86.9437 157.81 87.6947 158.228 88.6462C158.426 89.1173 158.527 89.6231 158.527 90.1339C158.526 90.6448 158.424 91.1504 158.225 91.621C158.027 92.0917 157.736 92.518 157.371 92.8749C157.005 93.2318 156.572 93.5121 156.097 93.6994C155.135 94.0916 154.057 94.0926 153.094 93.7022C152.131 93.3119 151.358 92.5609 150.941 91.6094H150.934ZM64.02 126.933C63.8237 126.462 63.7233 125.956 63.7248 125.446C63.7263 124.936 63.8297 124.431 64.0288 123.961C64.2279 123.491 64.5188 123.065 64.8844 122.709C65.2501 122.353 65.6831 122.074 66.1581 121.887C67.1211 121.491 68.2009 121.488 69.1661 121.878C70.1313 122.269 70.905 123.022 71.3212 123.977C71.5178 124.448 71.6185 124.953 71.6174 125.463C71.6164 125.973 71.5136 126.478 71.3152 126.947C71.1167 127.417 70.8265 127.843 70.4616 128.199C70.0967 128.556 69.6644 128.836 69.19 129.023C68.2261 129.42 67.1452 129.423 66.1789 129.032C65.2126 128.642 64.4376 127.888 64.02 126.933ZM64.02 88.6462C64.4377 87.693 65.2114 86.9408 66.1761 86.5503C67.1408 86.1598 68.22 86.1619 69.1831 86.5562C69.659 86.7428 70.0928 87.0227 70.459 87.3793C70.8252 87.7359 71.1165 88.1621 71.3157 88.6328C71.5148 89.1036 71.618 89.6094 71.6189 90.1205C71.6199 90.6317 71.5187 91.1379 71.3212 91.6094C70.9036 92.5609 70.131 93.3119 69.1679 93.7022C68.2048 94.0926 67.1273 94.0916 66.165 93.6994C65.6885 93.5134 65.254 93.2341 64.8871 92.8778C64.5201 92.5215 64.2281 92.0954 64.0283 91.6246C63.8284 91.1537 63.7247 90.6477 63.7233 90.1362C63.7219 89.6248 63.8228 89.1182 64.02 88.6462ZM127.112 68.3031C126.637 68.1158 126.205 67.8358 125.84 67.4794C125.475 67.123 125.185 66.6974 124.987 66.2275C124.788 65.7576 124.686 65.2529 124.684 64.7428C124.683 64.2327 124.784 63.7276 124.981 63.2569C125.398 62.3053 126.171 61.5544 127.134 61.164C128.097 60.7736 129.175 60.7747 130.137 61.1669C130.611 61.3542 131.044 61.6342 131.409 61.9906C131.773 62.347 132.064 62.7726 132.262 63.2425C132.46 63.7124 132.563 64.2171 132.564 64.7272C132.565 65.2373 132.465 65.7424 132.268 66.2131C131.85 67.1647 131.078 67.9156 130.115 68.306C129.152 68.6964 128.074 68.6953 127.112 68.3031ZM150.934 123.977C151.35 123.024 152.123 122.272 153.086 121.881C154.05 121.491 155.128 121.493 156.09 121.887C156.566 122.073 156.999 122.352 157.366 122.708C157.732 123.064 158.024 123.489 158.224 123.959C158.423 124.429 158.527 124.934 158.529 125.445C158.531 125.956 158.431 126.462 158.235 126.933C157.817 127.885 157.045 128.636 156.082 129.026C155.119 129.416 154.041 129.415 153.079 129.023C152.603 128.837 152.169 128.558 151.803 128.202C151.437 127.846 151.145 127.421 150.945 126.951C150.745 126.481 150.642 125.976 150.64 125.465C150.638 124.954 150.738 124.448 150.934 123.977ZM89.8631 155.519C89.3881 155.333 88.9552 155.053 88.5897 154.697C88.2243 154.341 87.9338 153.915 87.7352 153.445C87.5367 152.975 87.4341 152.47 87.4335 151.959C87.433 151.449 87.5344 150.944 87.7319 150.473C88.1495 149.522 88.9222 148.771 89.8853 148.38C90.8483 147.99 91.9258 147.991 92.8881 148.383C93.3626 148.57 93.7949 148.85 94.1598 149.207C94.5247 149.563 94.8148 149.989 95.0133 150.459C95.2117 150.929 95.3145 151.433 95.3155 151.943C95.3166 152.454 95.2159 152.959 95.0194 153.429C94.6017 154.381 93.8291 155.132 92.866 155.522C91.9029 155.913 90.8255 155.912 89.8631 155.519ZM147.909 144.313C148.337 143.9 148.909 143.669 149.504 143.669C150.099 143.669 150.671 143.9 151.099 144.313C151.986 145.179 151.986 146.582 151.099 147.441C150.212 148.301 148.796 148.301 147.909 147.441C147.7 147.239 147.533 146.996 147.42 146.728C147.306 146.46 147.248 146.172 147.248 145.881C147.248 145.589 147.306 145.301 147.42 145.033C147.533 144.765 147.7 144.523 147.909 144.32V144.313ZM71.1563 68.145C72.0363 67.2856 73.4663 67.2856 74.3463 68.145C75.2262 69.0044 75.2262 70.4137 74.3463 71.2731C73.9182 71.6865 73.3463 71.9175 72.7512 71.9175C72.1562 71.9175 71.5843 71.6865 71.1563 71.2731C70.9471 71.0706 70.7808 70.828 70.6672 70.5599C70.5536 70.2918 70.4951 70.0037 70.4951 69.7125C70.4951 69.4213 70.5536 69.1331 70.6672 68.8651C70.7808 68.597 70.9471 68.3544 71.1563 68.1519V68.145ZM147.909 71.2731C147.7 71.0706 147.533 70.828 147.42 70.5599C147.306 70.2918 147.248 70.0037 147.248 69.7125C147.248 69.4213 147.306 69.1331 147.42 68.8651C147.533 68.597 147.7 68.3544 147.909 68.1519C148.796 67.2856 150.219 67.2856 151.099 68.1519C151.979 69.0181 151.986 70.4069 151.099 71.2731C150.671 71.6865 150.099 71.9175 149.504 71.9175C148.909 71.9175 148.337 71.6865 147.909 71.2731ZM71.1563 147.441C70.9471 147.239 70.7808 146.996 70.6672 146.728C70.5536 146.46 70.4951 146.172 70.4951 145.881C70.4951 145.589 70.5536 145.301 70.6672 145.033C70.7808 144.765 70.9471 144.523 71.1563 144.32C71.5843 143.907 72.1562 143.676 72.7512 143.676C73.3463 143.676 73.9182 143.907 74.3463 144.32C75.2262 145.179 75.2262 146.582 74.3463 147.441C73.4663 148.301 72.0363 148.301 71.1563 147.441ZM164.175 107.243C164.175 106.019 165.193 105.029 166.437 105.029C167.681 105.029 168.692 106.019 168.692 107.243C168.683 107.833 168.441 108.396 168.018 108.808C167.596 109.22 167.027 109.449 166.437 109.443C165.847 109.449 165.278 109.22 164.856 108.808C164.433 108.396 164.191 107.833 164.182 107.243H164.175ZM54.6906 107.243C54.6906 106.019 55.7013 105.029 56.9525 105.029C58.19 105.029 59.2075 106.019 59.2075 107.243C59.1984 107.833 58.9562 108.396 58.5337 108.808C58.1112 109.22 57.5427 109.449 56.9525 109.443C56.3611 109.45 55.7909 109.223 55.3669 108.811C54.9429 108.398 54.6997 107.835 54.6906 107.243ZM111.134 56.4575C110.84 56.462 110.548 56.4085 110.275 56.3C110.002 56.1915 109.753 56.03 109.542 55.825C109.331 55.62 109.163 55.3754 109.047 55.1052C108.931 54.8351 108.869 54.5446 108.866 54.2506C108.866 53.0269 109.883 52.0369 111.134 52.0369C112.372 52.0369 113.389 53.0269 113.389 54.2506C113.38 54.842 113.137 55.4057 112.713 55.8181C112.289 56.2305 111.719 56.458 111.127 56.4506L111.134 56.4575ZM111.134 163.542C110.841 163.547 110.549 163.494 110.277 163.386C110.004 163.278 109.755 163.117 109.544 162.912C109.334 162.708 109.165 162.464 109.049 162.195C108.932 161.926 108.87 161.636 108.866 161.342C108.866 160.119 109.883 159.129 111.134 159.129C112.372 159.129 113.389 160.119 113.389 161.336C113.386 161.629 113.324 161.919 113.209 162.189C113.093 162.458 112.926 162.703 112.716 162.908C112.506 163.112 112.257 163.274 111.985 163.383C111.712 163.492 111.421 163.546 111.127 163.542H111.134ZM181.108 107.236C181.108 106.019 182.126 105.036 183.37 105.036C184.608 105.036 185.625 106.019 185.625 107.236C185.622 107.53 185.562 107.82 185.447 108.09C185.332 108.36 185.165 108.605 184.956 108.81C184.747 109.016 184.499 109.178 184.227 109.288C183.955 109.398 183.663 109.453 183.37 109.45C183.077 109.454 182.785 109.399 182.513 109.29C182.24 109.182 181.992 109.02 181.782 108.815C181.572 108.61 181.404 108.366 181.289 108.096C181.173 107.826 181.112 107.537 181.108 107.243V107.236ZM36.0662 106.136C37.0012 106.136 37.7644 106.879 37.7644 107.786C37.7644 108.694 37.0081 109.45 36.0662 109.45C35.1312 109.45 34.375 108.707 34.375 107.793C34.375 106.879 35.1312 106.136 36.0662 106.136ZM107.745 36.5819C107.745 35.365 108.756 34.375 110 34.375C111.244 34.375 112.255 35.365 112.255 36.5819C112.255 37.7988 111.244 38.7888 110 38.7888C108.756 38.7888 107.745 37.7987 107.745 36.5888V36.5819ZM174.604 133.554C174.967 132.739 175.633 132.098 176.462 131.768C177.29 131.437 178.215 131.444 179.039 131.787C179.445 131.95 179.815 132.193 180.126 132.501C180.438 132.809 180.685 133.176 180.853 133.58C181.022 133.985 181.108 134.419 181.107 134.857C181.106 135.295 181.017 135.728 180.847 136.132C180.488 136.951 179.82 137.595 178.988 137.925C178.156 138.254 177.229 138.242 176.406 137.892C176 137.728 175.631 137.486 175.32 137.178C175.01 136.871 174.763 136.504 174.596 136.1C174.428 135.697 174.342 135.263 174.344 134.826C174.345 134.389 174.434 133.956 174.604 133.554ZM137.961 169.235C138.234 169.346 138.482 169.51 138.691 169.717C138.9 169.925 139.065 170.172 139.177 170.445C139.29 170.712 139.347 170.998 139.346 171.288C139.345 171.577 139.285 171.864 139.171 172.129C138.99 172.533 138.696 172.875 138.325 173.114C137.953 173.353 137.52 173.478 137.079 173.475C136.637 173.472 136.205 173.341 135.837 173.097C135.469 172.853 135.179 172.507 135.004 172.102C134.891 171.836 134.833 171.549 134.833 171.26C134.833 170.97 134.891 170.684 135.004 170.417C135.121 170.147 135.291 169.903 135.504 169.698C135.716 169.494 135.967 169.334 136.242 169.228C136.795 169.012 137.411 169.017 137.961 169.242V169.235ZM44.2887 77.6119C44.8387 77.8456 45.2719 78.2719 45.4988 78.815C45.6119 79.0827 45.6696 79.3706 45.6684 79.6613C45.6672 79.952 45.6072 80.2394 45.4919 80.5062C45.3114 80.9094 45.0175 81.2514 44.646 81.4904C44.2745 81.7294 43.8415 81.8551 43.3998 81.8522C42.958 81.8493 42.5267 81.7179 42.1584 81.474C41.7901 81.2301 41.5007 80.8843 41.3256 80.4787C41.2125 80.211 41.1548 79.9231 41.1559 79.6324C41.1571 79.3417 41.2172 79.0543 41.3325 78.7875C41.4492 78.5188 41.618 78.2759 41.8293 78.0729C42.0405 77.8699 42.29 77.7109 42.5631 77.605C43.1176 77.3843 43.736 77.3867 44.2887 77.6119ZM37.9913 134.331C38.2932 133.651 38.8493 133.116 39.5407 132.841C40.232 132.566 41.0035 132.573 41.69 132.859C42.0286 132.995 42.3366 133.197 42.5961 133.453C42.8555 133.709 43.0611 134.015 43.2007 134.352C43.3403 134.689 43.4112 135.05 43.4092 135.415C43.4071 135.78 43.3322 136.14 43.1888 136.476C42.8856 137.154 42.3289 137.688 41.6377 137.961C40.9465 138.235 40.1756 138.227 39.49 137.94C39.1514 137.804 38.8434 137.603 38.5839 137.346C38.3245 137.09 38.1189 136.784 37.9793 136.447C37.8397 136.11 37.7688 135.749 37.7708 135.384C37.7729 135.02 37.8478 134.659 37.9913 134.324V134.331ZM136.558 42.9825C136.219 42.8476 135.91 42.6462 135.65 42.3902C135.39 42.1341 135.184 41.8286 135.043 41.4917C134.903 41.1547 134.831 40.793 134.833 40.428C134.835 40.063 134.909 39.702 135.052 39.3662C135.354 38.6862 135.911 38.1515 136.602 37.8765C137.293 37.6015 138.065 37.6081 138.751 37.895C139.09 38.0306 139.398 38.2324 139.657 38.4888C139.917 38.7451 140.122 39.0507 140.262 39.3876C140.402 39.7245 140.472 40.0859 140.47 40.4506C140.468 40.8153 140.393 41.1759 140.25 41.5113C139.948 42.1896 139.393 42.7231 138.703 42.9979C138.014 43.2728 137.244 43.2672 136.558 42.9825ZM178.777 76.4431C179.195 76.276 179.661 76.2785 180.077 76.45C180.381 76.5753 180.64 76.7885 180.822 77.0622C181.004 77.336 181.1 77.6579 181.098 77.9866C181.096 78.3154 180.996 78.6359 180.81 78.9072C180.624 79.1785 180.362 79.3882 180.056 79.5094C179.643 79.675 179.181 79.6729 178.769 79.5035C178.357 79.334 178.027 79.0106 177.849 78.6019C177.764 78.4005 177.721 78.1839 177.722 77.9652C177.723 77.7465 177.769 77.5304 177.856 77.33C177.944 77.1287 178.07 76.9467 178.228 76.7945C178.386 76.6423 178.573 76.5229 178.777 76.4431ZM79.6606 40.9062C79.8403 40.4984 80.1732 40.1776 80.5873 40.0129C81.0014 39.8483 81.4637 39.8531 81.8744 40.0262C82.1811 40.1489 82.4437 40.3611 82.6279 40.6353C82.8122 40.9094 82.9095 41.2327 82.9073 41.563C82.9051 41.8933 82.8034 42.2152 82.6154 42.4868C82.4275 42.7584 82.1621 42.9671 81.8538 43.0856C81.4384 43.2516 80.9748 43.2491 80.5613 43.0787C80.3584 42.9966 80.1738 42.875 80.0184 42.7209C79.863 42.5668 79.7398 42.3833 79.656 42.1811C79.5722 41.9789 79.5294 41.7621 79.5302 41.5432C79.531 41.3243 79.5753 41.1078 79.6606 40.9062ZM80.0937 171.27C80.3137 171.27 80.5337 171.318 80.7469 171.407C80.9495 171.489 81.1339 171.61 81.2893 171.763C81.4446 171.917 81.5678 172.1 81.6517 172.301C81.7355 172.503 81.7783 172.719 81.7776 172.938C81.7769 173.156 81.7327 173.372 81.6475 173.573C81.4664 173.98 81.1335 174.299 80.7198 174.464C80.3062 174.628 79.8446 174.624 79.4338 174.453C79.2311 174.372 79.0466 174.251 78.8911 174.097C78.7355 173.944 78.6119 173.761 78.5275 173.56C78.4431 173.358 78.3995 173.142 78.3993 172.924C78.3991 172.705 78.4422 172.489 78.5262 172.287C78.6594 171.983 78.8788 171.725 79.1574 171.544C79.4361 171.363 79.7616 171.268 80.0937 171.27ZM160.132 159.582C159.704 159.998 159.131 160.23 158.534 160.23C157.937 160.23 157.364 159.998 156.936 159.582C156.726 159.38 156.56 159.137 156.447 158.869C156.333 158.601 156.274 158.313 156.274 158.022C156.274 157.731 156.333 157.443 156.447 157.174C156.56 156.906 156.726 156.664 156.936 156.461C157.363 156.043 157.939 155.811 158.537 155.815C159.133 155.813 159.706 156.045 160.132 156.461C160.343 156.664 160.51 156.907 160.624 157.176C160.738 157.444 160.797 157.733 160.797 158.025C160.797 158.317 160.738 158.606 160.624 158.875C160.51 159.144 160.343 159.387 160.132 159.589V159.582ZM54.5531 55.2269C55.1956 54.6048 56.0548 54.257 56.9491 54.257C57.8433 54.257 58.7025 54.6048 59.345 55.2269C59.6579 55.5312 59.9066 55.8951 60.0764 56.2972C60.2462 56.6993 60.3337 57.1313 60.3337 57.5678C60.3337 58.0043 60.2462 58.4363 60.0764 58.8384C59.9066 59.2405 59.6579 59.6044 59.345 59.9087C58.7059 60.5373 57.8454 60.8895 56.9491 60.8895C56.0527 60.8895 55.1922 60.5373 54.5531 59.9087C54.2402 59.6044 53.9915 59.2405 53.8217 58.8384C53.6519 58.4363 53.5644 58.0043 53.5644 57.5678C53.5644 57.1313 53.6519 56.6993 53.8217 56.2972C53.9915 55.8951 54.2402 55.5312 54.5531 55.2269ZM161.287 55.8456C161.606 55.5316 162.036 55.3555 162.484 55.3555C162.931 55.3555 163.361 55.5316 163.68 55.8456C163.835 55.998 163.959 56.1798 164.043 56.3805C164.128 56.5812 164.171 56.7967 164.171 57.0144C164.171 57.2321 164.128 57.4476 164.043 57.6482C163.959 57.8489 163.835 58.0308 163.68 58.1831C163.359 58.4939 162.93 58.6677 162.484 58.6677C162.037 58.6677 161.608 58.4939 161.287 58.1831C161.13 58.0318 161.005 57.8502 160.92 57.6494C160.834 57.4486 160.79 57.2326 160.79 57.0144C160.79 56.7961 160.834 56.5802 160.92 56.3793C161.005 56.1785 161.13 55.997 161.287 55.8456ZM55.1856 156.303C55.5046 155.989 55.9343 155.813 56.3819 155.813C56.8295 155.813 57.2592 155.989 57.5781 156.303C57.7345 156.455 57.8587 156.637 57.9436 156.837C58.0285 157.038 58.0722 157.254 58.0722 157.472C58.0722 157.69 58.0285 157.906 57.9436 158.106C57.8587 158.307 57.7345 158.489 57.5781 158.641C57.2575 158.951 56.8284 159.125 56.3819 159.125C55.9353 159.125 55.5063 158.951 55.1856 158.641C55.0293 158.489 54.905 158.307 54.8201 158.106C54.7353 157.906 54.6915 157.69 54.6915 157.472C54.6915 157.254 54.7353 157.038 54.8201 156.837C54.905 156.637 55.0293 156.455 55.1856 156.303ZM110.564 185.625C109.825 185.632 109.113 185.346 108.584 184.829C108.056 184.313 107.754 183.607 107.745 182.868C107.745 181.342 109.003 180.104 110.564 180.104C112.124 180.104 113.383 181.342 113.383 182.868C113.373 183.607 113.072 184.313 112.543 184.829C112.015 185.346 111.303 185.632 110.564 185.625Z" fill="white"/>
</g>
<defs>
<clipPath id="clip0_108_231">
<rect width="220" height="220" fill="white"/>
</clipPath>
</defs>
</svg>
