<svg width="220" height="220" viewBox="0 0 220 220" fill="none" xmlns="http://www.w3.org/2000/svg">
<g clip-path="url(#clip0_108_232)">
<path d="M110 220C170.751 220 220 170.751 220 110C220 49.2487 170.751 0 110 0C49.2487 0 0 49.2487 0 110C0 170.751 49.2487 220 110 220Z" fill="#EA0017"/>
<path d="M142.429 105.959C142.642 105.959 143.158 106.179 143.598 106.44C144.808 107.176 145.434 108.654 145.317 110.428C145.248 111.638 144.952 112.463 143.735 114.938C142.91 116.615 141.357 119.427 140.298 121.194C138.469 124.205 137.596 125.786 137.596 126.027C137.596 126.096 138.834 124.982 140.346 123.552C143.179 120.885 145.165 119.62 146.066 119.908C147.283 120.3 147.647 122.603 146.843 124.913C146.382 126.288 145.145 128.791 143.907 130.901C143.192 132.07 143.13 132.304 144.334 131.616L145.337 131.025C147.84 129.52 149.442 129.355 150.315 130.544C151.277 131.85 151.112 135.831 149.923 139.275C149.655 140.052 149.51 140.753 149.579 140.829C149.655 140.898 150.404 140.657 151.229 140.293C152.082 139.908 153.347 139.468 154.075 139.303C156.523 138.718 157.568 139.763 158.029 143.228C158.441 146.24 157.3 148.742 155.21 149.491C154.852 149.615 154.797 149.56 154.921 149.106C155.017 148.79 155.141 148.233 155.237 147.841C155.361 147.209 155.334 147.188 154.894 147.429C154.192 147.793 153.395 149.251 153.106 150.708C152.233 155.026 151.14 157.157 148.273 160.072C145.117 163.276 141.845 165.435 136.75 167.717C134.372 168.783 131.024 170.893 127.455 173.588L126.41 174.386L124.348 172.495L123.317 171.588C121.247 169.841 119.171 168.48 117.507 167.806C117.01 167.618 116.518 167.418 116.029 167.208C115.981 167.16 116.394 166.624 116.95 165.991C117.493 165.365 117.913 164.642 118.188 163.86C118.532 162.52 118.717 162.21 119.474 161.77C120.347 161.289 121.756 161.674 125.104 163.351C126.582 164.073 127.84 164.685 127.964 164.685C128.232 164.685 128.184 163.977 127.84 163.083C127.579 162.355 127.675 161.915 128.789 158.566C130.267 154.153 130.659 152.551 130.37 152.255C130.006 151.891 129.71 152.475 128.012 156.793C127.119 159.055 126.342 160.973 126.294 161.021C126.218 161.09 125.682 160.897 125.077 160.608C124.08 160.12 123.984 159.976 124.107 159.44C124.809 156.621 125.221 150.268 124.788 148.715C124.472 147.621 124.128 148.082 123.839 150C123.207 154.077 122.505 157.308 122.217 157.597C121.942 157.865 121.777 157.79 121.24 157.157L120.615 156.38V133.583L125.998 126.639L127.105 125.209C135.719 114.092 138.187 110.888 140.099 108.441C141.164 107.08 142.209 105.966 142.429 105.966V105.959ZM95.1841 140.471C97.4873 138.278 98.0029 138.086 98.8004 139.206C99.4054 140.031 99.7423 141.97 99.7423 144.617V146.796L100.863 147.986L101.317 148.508C101.764 149.058 102.169 149.677 102.314 150.021C102.678 150.921 102.829 154.366 102.534 155.535C102.437 155.92 102.678 156.648 103.338 157.913C107.827 166.507 108.749 168.37 108.632 168.515L108.48 168.542L108.205 168.521C107.943 168.475 107.686 168.406 107.435 168.315C106.39 167.985 105.153 167.93 100.767 168.054C98.1198 168.123 96.5385 167.69 96.3941 166.844C96.3254 166.5 97.3154 164.919 99.4054 162.031C100.038 161.165 100.107 160.656 99.7491 160.072C99.5773 159.783 98.7248 159.68 95.6241 159.591C90.4266 159.419 90.2616 159.123 93.9191 156.36C95.4523 155.191 97.2466 153.348 97.4598 152.716C97.5354 152.475 97.4116 152.015 97.1985 151.678L96.786 151.045L93.8298 151.217L93.0254 151.258C89.7666 151.396 89.1754 150.928 90.2754 149.395C90.5504 149.031 90.6879 148.666 90.5985 148.57C90.5298 148.501 89.086 148.426 87.4635 148.426C84.6723 148.426 82.1491 148.11 81.716 147.718C81.6198 147.621 82.8091 147.14 84.3835 146.652C87.0785 145.827 90.6948 144.177 92.3448 143.008C93.323 142.197 94.2701 141.348 95.1841 140.465V140.471ZM104.17 119.571C104.28 119.64 104.548 121.806 104.837 124.405C105.112 126.996 105.325 129.375 105.325 129.664C105.325 129.98 105.421 130.228 105.545 130.228C105.662 130.228 106.39 129.251 107.167 128.041C107.972 126.852 108.68 125.855 108.749 125.855C108.941 125.855 109.065 126.776 109.711 133.672C110.034 136.848 110.35 139.447 110.419 139.447C110.488 139.447 110.88 138.086 111.244 136.415C111.636 134.738 112.021 133.376 112.117 133.376C112.262 133.376 118.937 152.695 118.917 153.08C118.917 153.616 118.332 152.984 116.002 149.98C114.592 148.13 113.259 146.432 113.045 146.143L112.605 145.635L111.952 146.363L111.677 146.673C111.053 147.375 110.423 148.071 109.787 148.763L108.26 150.44L108.137 149.615L108.116 149.409C108.006 148.515 107.697 145.284 107.387 141.798C107.071 137.941 106.734 134.69 106.631 134.566C106.562 134.449 105.641 135.13 104.569 136.099C103.503 137.068 102.534 137.914 102.389 137.941C102.245 137.99 102.217 137.653 102.293 137.089C102.465 135.851 104.115 120.28 104.115 119.812C104.115 119.62 104.163 119.523 104.232 119.571H104.17ZM73.026 106.179C74.7723 105.959 78.3885 106.151 80.066 106.612C81.9085 107.073 83.971 107.953 85.621 108.895C87.2504 109.864 91.2516 113.728 91.8566 114.945C92.3379 115.907 92.5854 116.031 89.6498 113.796C87.332 112.078 84.7624 110.728 82.0323 109.795C80.671 109.369 79.901 109.259 77.8041 109.245L76.8141 109.238C73.7548 109.238 73.2254 109.307 71.4723 109.891C60.3829 113.652 54.7798 127.753 60.5823 137.288C62.301 140.148 65.0716 142.699 68.8048 144.851C70.9154 146.088 70.7504 146.295 68.1516 145.635C65.8397 145.059 63.6845 143.977 61.8416 142.467C59.9987 140.957 58.5143 139.057 57.4954 136.903C56.1616 134.181 55.5841 131.658 55.4123 128.041C55.1716 122.198 56.6979 117.557 60.3348 113.143C63.2223 109.623 68.3441 106.832 73.026 106.179ZM64.0954 125.085C64.4598 123.965 64.5079 124.04 65.436 126.611C67.2848 131.486 70.0898 135.941 73.686 139.715C74.5316 140.609 75.2329 141.413 75.2329 141.503C75.2329 141.895 73.3216 141.413 71.4998 140.588C67.086 138.526 64.4873 134.229 63.9304 127.938C63.8341 126.632 63.8616 125.759 64.0954 125.078V125.085ZM84.4591 88.854C87.5116 88.3933 87.6629 88.4415 85.6691 89.3627C84.6723 89.8233 83.7029 90.2565 83.5379 90.3802L83.3454 90.4971C82.7954 90.8958 83.806 91.0471 87.2985 91.1571C91.7398 91.2808 91.7673 91.3015 91.396 92.759C91.2516 93.3433 91.2035 93.3433 88.5085 93.3433C86.9576 93.3638 85.4098 93.4855 83.8748 93.7077C81.9841 94.0515 79.241 95.1858 79.241 95.6465C79.241 95.7702 80.3823 96.0108 81.7848 96.1827C86.1091 96.6915 90.3098 97.8327 93.2179 99.2902C94.3591 99.8952 94.9641 100.665 97.2466 104.625C103.386 115.226 104.307 116.732 106.514 119.668C109.333 123.408 112.358 126.804 115.658 129.932L118.669 132.771V136.711C118.642 138.141 118.552 139.241 118.429 139.323C118.188 139.468 118.332 139.715 115.032 134.105C112.627 130.019 110.027 126.05 107.243 122.211C106.532 121.251 105.867 120.257 105.249 119.235C105.18 119.015 104.96 118.822 104.789 118.795C104.624 118.795 103.826 118.018 103.022 117.076C100.739 114.401 95.5966 109.768 92.0973 107.272C90.0898 105.815 87.4429 104.02 87.2985 104.02C87.2504 104.02 86.3979 103.58 85.401 103.023C83.1998 101.856 80.8933 100.898 78.5123 100.163C76.8348 99.7027 73.4935 99.579 71.3554 99.8677C68.2715 100.418 65.3074 101.502 62.5966 103.071C61.9226 103.506 61.2248 103.903 60.5066 104.261C60.3348 104.261 58.2035 105.787 56.5535 107.128C55.7973 107.733 55.1923 108.07 55.1441 107.925C55.0204 107.581 57.0623 104.749 58.836 102.735C61.2377 100.207 63.8967 97.9377 66.7698 95.9627C71.7885 92.6146 79.1448 89.6515 84.4591 88.854ZM67.8835 119.111C66.9898 116.663 67.0104 116.464 68.1516 117.117C68.9539 117.616 69.7381 118.144 70.5029 118.698C75.1985 122.19 78.9854 126.76 81.5441 132.022C82.5891 134.229 83.3179 136.291 83.146 136.463L83.0154 136.491L82.7885 136.422C81.6198 135.941 77.976 132.985 75.2329 130.228C71.7679 126.708 69.341 123.091 67.8835 119.111ZM75.9616 112.559C75.9616 112.27 78.5604 112.951 80.0866 113.652C83.2698 115.082 85.6004 117.846 86.6179 121.297C87.2985 123.628 87.491 125.395 87.2504 127.216C87.051 128.839 87.0785 128.894 85.5523 125.47C83.7248 121.675 81.3068 118.195 78.3885 115.158C77.552 114.318 76.7427 113.451 75.9616 112.559ZM115.761 72.0377C116.95 71.694 116.93 71.694 117.315 72.2783C117.968 73.2958 119.157 77.2558 119.666 80.1433C119.982 82.034 120.202 84.6327 120.299 87.7333L120.436 92.4427L119.254 92.2777L118.985 92.2365C117.308 91.9615 115.94 91.4458 106.851 87.6371C101.949 85.5746 97.8998 83.9521 97.8241 84.0208C97.7073 84.1446 100.134 88.9227 101.757 91.7621C104.713 96.9115 110.199 99.7027 116.538 99.2902C118.353 99.1665 119.013 99.2146 119.563 99.4827C120.876 100.184 121.729 101.401 122.526 103.773C123.523 106.688 125.345 110.235 126.899 112.27C127.552 113.143 128.067 113.872 128.067 113.872C128.04 113.893 127.263 113.748 126.314 113.576C122.065 112.703 114.716 109.623 112.729 107.877C110.447 105.863 112.53 109.087 114.957 111.301C117.913 114.016 122.189 116.368 127.064 117.997C128.521 118.478 129.759 118.918 129.786 118.939C130.054 119.186 122.89 127.553 122.457 127.553C122.017 127.553 119.542 126.075 117.143 124.405C114.496 122.555 108.501 116.663 106.37 113.845C100.238 105.617 95.7558 96.2813 93.1698 86.3515L92.4135 83.5877L93.3623 82.6183L93.9741 82.0408C97.5835 78.8783 106.714 74.6846 115.761 72.0377ZM152.955 63.8358C153.487 63.8879 154.003 64.0519 154.467 64.3171C154.853 64.5886 155.188 64.9261 155.457 65.314C155.677 65.6302 158.249 75.2827 161.164 86.7158C166.987 109.5 166.938 109.19 165.625 110.572C165.212 110.979 164.728 111.305 164.195 111.535C163.075 111.906 145.77 115.66 145.681 115.57C145.775 115.061 145.947 114.57 146.19 114.113C147.427 111.294 147.496 108.681 146.327 106.811C145.53 105.505 143.467 104.268 142.134 104.268C141.357 104.268 141.116 104.501 136.991 109.836C134.612 112.93 132.577 115.35 132.481 115.254C132.378 115.158 130.171 105.698 127.531 94.2646C124.128 79.5108 122.794 73.2477 122.918 72.7458C123.17 71.8141 123.758 71.0085 124.568 70.484C125.613 69.9271 152.013 63.7396 152.962 63.8358H152.955ZM156.963 91.3771C156.915 91.2808 156.042 91.9821 155.017 92.9583C154 93.9002 151.917 95.8458 150.411 97.2758L147.64 99.8677L141.7 97.9496C139.677 97.2538 137.63 96.6324 135.561 96.0865C135.465 96.1071 137.74 98.2658 140.655 100.865C143.591 103.463 146.774 106.323 147.764 107.245C148.761 108.138 149.655 108.798 149.758 108.702C150.019 108.434 157.032 91.5696 156.963 91.3771ZM142.429 98.9465C144.1 99.5033 145.97 100.012 146.575 100.115L147.668 100.253L148.472 103.876C148.905 105.863 149.222 107.54 149.146 107.588C149.098 107.636 148.52 107.148 147.888 106.516C146.222 104.937 144.531 103.385 142.814 101.861C141.463 100.668 140.144 99.4365 138.861 98.1696C138.717 97.8052 139.294 97.929 142.429 98.9465ZM83.1185 68.6896C87.1954 67.6721 88.8179 67.4246 88.8179 67.8371C88.8179 67.9608 88.2335 68.2015 87.5529 68.3458C85.566 68.834 80.4441 70.6283 77.9004 71.749C75.1298 72.959 71.5891 75.0215 70.2554 76.1833L69.286 77.0083L70.1316 77.2077L71.1766 77.4552C74.6416 78.3765 81.0079 80.7758 84.0329 82.3502C86.2466 83.4915 89.0585 85.4096 89.0585 85.7946C89.0585 85.8908 88.3298 86.0627 87.436 86.159C83.7235 86.5233 77.6323 88.029 73.2873 89.6308C67.9729 91.6246 61.2285 95.234 57.1035 98.3415C54.4085 100.376 54.4085 100.376 55.3573 99.0221C56.4985 97.3721 59.9635 93.7765 62.0741 92.0783C66.6391 88.4621 72.6341 85.8427 78.9866 84.7015L79.9629 84.5365L78.2441 83.7321L77.3848 83.3677C73.6241 81.869 65.7385 79.9302 61.036 79.3871C60.4268 79.3287 59.8254 79.2065 59.2416 79.0227C58.6091 78.6858 66.8316 74.2721 71.7129 72.354C75.4367 70.9018 79.2457 69.678 83.1185 68.6896ZM141.35 73.2477C139.535 78.6102 135.162 92.154 135.162 92.4427C135.162 92.6627 135.066 92.9033 134.922 92.979C134.145 93.4602 135.045 93.8727 140.724 95.7427C144.045 96.8152 146.932 97.709 147.152 97.709C147.634 97.709 156.64 89.2871 156.64 88.854C156.64 88.6821 153.532 85.3133 149.772 81.3808C147.281 78.8052 144.822 76.1994 142.395 73.564C141.886 72.9108 141.522 72.7871 141.35 73.2477ZM108.982 93.5152C108.742 92.8277 108.742 92.8277 109.519 92.979C109.931 93.0752 110.894 93.4396 111.629 93.804C113.396 94.6496 113.472 95.0415 111.87 95.0415C110.364 95.0415 109.299 94.4846 108.982 93.5152ZM141.694 74.5608C141.81 74.6846 142.47 77.2765 143.151 80.3358L144.409 85.9183L143.729 86.5715C142.787 87.4927 135.575 92.8827 135.479 92.759C135.41 92.7108 135.575 92.2502 135.843 91.714C136.324 90.7721 141.109 76.3346 141.35 75.049C141.446 74.6571 141.597 74.4371 141.694 74.5608ZM88.2335 70.7796L88.041 72.519L87.9654 73.2133C87.821 74.6708 87.9104 75.0215 88.3298 75.0215C88.6048 75.0215 88.7698 75.5302 88.9623 76.9602C89.3748 79.7308 89.471 82.474 89.1823 82.5977C89.0379 82.6183 88.0135 82.1096 86.8791 81.4496C84.2302 79.8777 81.4545 78.5301 78.581 77.4208C77.536 77.0358 76.6835 76.6508 76.6835 76.5752C76.6835 76.0665 79.6673 73.784 81.4685 72.9108C83.7716 71.7971 86.6591 70.8002 87.6285 70.7796H88.2335ZM125.345 59.1265C133.835 57.5246 135.609 57.3802 137.115 58.1571C137.624 58.4252 138.284 58.9615 138.545 59.3465C139.15 60.1715 140.752 63.499 140.752 63.884C140.752 64.0558 139.39 64.3652 137.307 64.709C122.045 67.1152 109.525 70.7246 99.9898 75.5027C97.6738 76.6002 95.4643 77.9098 93.3898 79.4146C91.7604 80.6521 91.9323 80.9958 91.3479 75.4821C90.9354 71.749 90.9354 71.529 91.3479 70.4358C91.7398 69.4183 91.9529 69.219 93.3898 68.4971C96.7681 66.9463 100.227 65.5762 103.75 64.3927C110.227 62.3302 116.703 60.749 125.338 59.1265H125.345ZM101.805 42.7433H102.052C102.19 42.7433 102.63 43.4308 103.07 44.2283C105.132 47.989 109.305 59.6146 108.797 60.1233C108.459 60.3204 108.085 60.4445 107.697 60.4877L106.851 60.6321L106.026 58.8583L105.614 57.9715C103.139 52.8152 98.6973 45.789 98.1679 46.2908C98.0991 46.3596 98.2641 47.0677 98.5323 47.8721C99.7698 51.4127 101.44 59.3465 101.44 61.6015C101.44 62.2821 101.324 62.4952 100.835 62.7221C100.538 62.873 100.217 62.9707 99.8866 63.0108C99.7491 63.0108 98.9448 62.1377 98.1679 61.0721C97.391 59.9996 96.6623 59.2021 96.566 59.2983C96.4973 59.4221 96.2498 60.6321 96.0298 62.014C95.6654 64.5165 95.301 65.3827 94.916 64.764C94.8198 64.5852 94.5998 62.1377 94.4348 59.2983C94.3519 57.3538 94.2143 55.412 94.0223 53.4752C93.9466 53.1108 93.9948 52.8221 94.1116 52.8221C94.2354 52.8221 95.1841 53.6196 96.2016 54.6096C97.2191 55.5858 98.0923 56.3352 98.1404 56.239C98.3398 55.8746 95.7135 48.0371 94.0635 44.0565C93.926 43.7196 94.1598 43.5958 95.5485 43.3827C97.2191 43.0871 101.612 42.6746 102.052 42.7502L101.805 42.7433ZM82.0529 47.9408C83.9985 46.7033 85.6485 46.2908 86.7348 46.7308C87.0648 46.8477 87.1473 47.0746 87.1541 48.7452V50.2921C87.1362 52.0005 87.0789 53.7082 86.9823 55.414L86.8104 57.1327L82.3004 57.0158L80.4579 56.9883C76.7044 56.9334 72.962 57.4079 69.341 58.3977C67.8079 58.7896 66.4054 59.154 66.2335 59.1746C66.0616 59.2227 65.8898 59.0783 65.8485 58.8858C65.6973 58.0127 71.2798 54.0321 77.536 50.5396C79.4129 49.4671 81.4479 48.3052 82.0529 47.9408ZM106.459 42.6265L107.924 45.1015L108.405 45.9265C110.873 50.2715 114.304 57.5452 114.304 58.494C114.304 58.9065 112.674 59.319 112.385 58.9821C112.137 58.566 111.925 58.1289 111.753 57.6758C109.958 53.6487 107.985 49.7032 105.84 45.8508C105.233 44.8354 104.658 43.8014 104.115 42.7502C104.115 42.6815 104.644 42.6265 105.277 42.6265H106.466H106.459ZM110.928 42.8671H111.32C112.214 42.8671 114.964 43.039 117.411 43.2315C119.838 43.4308 122.086 43.644 122.43 43.7196L123.647 43.9602C124.403 44.1321 124.98 45.0602 126.679 48.6971C127.792 51.1446 129.442 55.4896 129.277 55.6065C126.347 56.0628 123.427 56.5809 120.519 57.1602C117.356 57.8202 116.73 57.8202 116.73 57.1121C116.73 56.6033 112.894 48.7246 111.299 45.954C109.354 42.6265 109.354 42.8671 111.32 42.8671H110.928Z" fill="white"/>
<path d="M115.397 73.372C116.002 74.8501 116.318 76.4313 116.634 79.752C116.951 83.2995 117.528 88.2013 117.872 90.2363C118.016 91.2813 118.429 91.5013 118.429 90.5526C118.429 90.2088 118.257 88.8751 118.064 87.5688C117.788 85.3727 117.545 83.1724 117.336 80.9688C117.185 79.1976 116.974 77.432 116.703 75.6751C116.394 74.197 115.83 72.9595 115.493 72.9595C115.321 72.9595 115.301 73.1313 115.397 73.372ZM120.615 101.766C120.615 102.831 124.011 110.641 125.125 112.126C125.881 113.164 125.682 112.223 124.809 110.641C123.544 108.362 122.464 105.984 121.577 103.533C121.027 101.979 120.615 101.229 120.615 101.766Z" fill="white"/>
<path d="M91.9049 36.5072C111.077 31.8287 131.321 34.9177 148.225 45.1009C158.95 51.4809 168.781 61.5253 174.872 72.3465C181.472 84.0203 184.704 96.0997 184.704 109.059C184.724 117.866 183.583 124.954 180.888 133.032C178.33 140.569 174.621 147.666 169.895 154.07C165.999 159.056 161.598 163.627 156.764 167.71C144.801 177.39 130.948 182.924 115.156 184.258C98.3399 185.715 79.7499 180.497 65.9174 170.453C49.6374 158.655 38.8643 141.55 35.4611 122.163C31.8036 101.297 37.4824 79.3315 50.8474 62.7147C52.9099 60.1434 57.6193 55.2622 60.5068 52.7184C69.1693 45.0734 80.403 39.2709 91.9049 36.5072ZM114.063 40.3915C106.697 39.9324 99.3037 40.6283 92.1524 42.454C83.5861 44.6815 73.7274 49.4872 67.4711 54.4853L64.9274 56.4997C61.8199 58.9059 55.048 66.3309 52.4974 70.1397C44.2474 82.4459 40.2943 95.254 40.2943 109.568C40.2943 121.07 42.6249 130.702 47.9874 141.193C54.4926 153.925 64.8304 164.294 77.543 170.838C85.793 175.087 95.0124 177.754 103.874 178.455C119.109 179.672 133.375 176.132 146.843 167.806C153.058 163.97 161.012 156.62 164.993 151.065C172.418 140.65 176.522 130.777 178.262 119.028C178.894 114.834 178.922 103.38 178.289 99.6678C176.11 86.4472 170.624 74.2165 162.834 65.1897C162.078 64.3165 161.136 63.1959 160.744 62.7353C158.351 60.0998 155.746 57.6648 152.955 55.4547C145.805 49.9753 140.339 46.964 132.137 44.0009C126.582 42.014 121.144 40.9209 114.056 40.3915H114.063Z" fill="white"/>
</g>
<defs>
<clipPath id="clip0_108_232">
<rect width="220" height="220" fill="white"/>
</clipPath>
</defs>
</svg>
