<svg width="220" height="220" viewBox="0 0 220 220" fill="none" xmlns="http://www.w3.org/2000/svg">
<g clip-path="url(#clip0_108_233)">
<path d="M110 220C170.752 220 220 170.752 220 110C220 49.2479 170.752 0 110 0C49.2479 0 0 49.2479 0 110C0 170.752 49.2479 220 110 220Z" fill="#2B6680"/>
<path d="M34.3751 110C34.3365 130.057 42.2671 149.308 56.4223 163.518C70.5774 177.727 89.7976 185.732 109.855 185.77C129.912 185.809 149.162 177.878 163.372 163.723C177.582 149.568 185.587 130.348 185.625 110.291V109.711C185.599 103.89 184.905 98.092 183.556 92.4297C183.327 91.3754 182.89 90.3774 182.27 89.494C181.651 88.6107 180.861 87.8598 179.948 87.2853C179.035 86.7108 178.016 86.3242 176.952 86.1482C175.887 85.9722 174.798 86.0103 173.749 86.2603C172.699 86.5102 171.71 86.967 170.839 87.604C169.968 88.2409 169.233 89.0451 168.677 89.9696C168.121 90.8941 167.754 91.9202 167.6 92.988C167.445 94.0558 167.505 95.1437 167.775 96.1881C170.79 108.778 169.611 122.007 164.418 133.865C159.226 145.723 150.304 155.562 139.008 161.886C127.712 168.209 114.661 170.672 101.837 168.899C89.0142 167.126 77.1204 161.215 67.9641 152.063C58.8077 142.912 52.8896 131.022 51.1094 118.2C49.3292 105.377 51.7842 92.3244 58.1012 81.0251C64.4182 69.7257 74.2517 60.7978 86.107 55.5986C97.9623 50.3994 111.191 49.2131 123.782 52.2201C125.857 52.671 128.027 52.2901 129.824 51.1593C131.622 50.0285 132.904 48.238 133.396 46.1721C133.888 44.1062 133.551 41.9298 132.456 40.1102C131.361 38.2905 129.596 36.9727 127.541 36.4397C116.429 33.7885 104.862 33.6892 93.7063 36.1494C82.5511 38.6095 72.0982 43.565 63.1327 50.6439C54.1672 57.7228 46.922 66.741 41.9413 77.0213C36.9606 87.3015 34.3738 98.5767 34.3751 110Z" fill="white"/>
<path d="M148.225 54.6841C148.115 54.7872 148.044 54.9087 147.941 55.0187C146.097 56.9733 144.965 59.492 144.728 62.1687V63.4543C144.728 63.7522 144.664 64.0387 144.632 64.3343C144.315 67.5356 143.287 70.6257 141.623 73.3788C139.958 76.1319 137.7 78.4785 135.013 80.2472C132.326 82.0159 129.278 83.162 126.091 83.6018C122.904 84.0415 119.659 83.7639 116.593 82.7891C112.116 81.6977 107.437 81.7357 102.978 82.8997C98.5189 84.0637 94.4188 86.3172 91.0459 89.4578C90.7709 89.7145 90.4684 89.9322 90.198 90.2026C84.9501 95.4503 82.0017 102.568 82.0015 109.989C82.0012 117.411 84.9492 124.528 90.1969 129.776C95.4445 135.024 102.562 137.973 109.983 137.973C117.405 137.973 124.523 135.025 129.771 129.777C130.928 128.604 131.977 127.325 132.906 125.962C135.165 122.727 136.714 119.051 137.452 115.176C138.19 111.3 138.099 107.312 137.186 103.474C137.03 102.971 136.893 102.463 136.774 101.95C136.774 101.874 136.728 101.803 136.71 101.725C136.013 98.707 135.974 95.5744 136.594 92.5396C137.214 89.5049 138.48 86.639 140.305 84.1363C142.13 81.6336 144.472 79.5526 147.172 78.0343C149.871 76.516 152.866 75.596 155.953 75.3366C156.113 75.3366 156.269 75.2908 156.429 75.2862C156.886 75.2862 157.342 75.2335 157.798 75.2335H157.908C160.702 74.9763 163.317 73.7458 165.296 71.757C165.766 71.2712 166.194 70.7464 166.579 70.1895C168.318 67.7252 169.069 64.6987 168.686 61.7073C168.302 58.716 166.811 55.9771 164.507 54.0313C162.203 52.0854 159.253 51.0739 156.24 51.1965C153.226 51.319 150.368 52.5667 148.23 54.6932" fill="white"/>
</g>
<defs>
<clipPath id="clip0_108_233">
<rect width="220" height="220" fill="white"/>
</clipPath>
</defs>
</svg>
