<svg width="220" height="220" viewBox="0 0 220 220" fill="none" xmlns="http://www.w3.org/2000/svg">
<g clip-path="url(#clip0_108_234)">
<path d="M110 220C170.751 220 220 170.751 220 110C220 49.2487 170.751 0 110 0C49.2487 0 0 49.2487 0 110C0 170.751 49.2487 220 110 220Z" fill="#188C92"/>
<path d="M150.123 144.581C149.734 145.139 149.504 145.792 149.458 146.47C149.412 147.148 149.551 147.826 149.861 148.431L109.12 180.318C108.593 179.902 107.972 179.624 107.312 179.506L106.074 101.021C106.51 100.93 106.928 100.767 107.312 100.54L150.123 144.588V144.581ZM151.264 143.495L108.487 99.4813C108.83 99.02 109.062 98.4864 109.166 97.9214C109.269 97.3565 109.242 96.7752 109.086 96.2225L152.577 75.0475C153.143 75.7396 153.925 76.2214 154.798 76.4156L152.632 142.952C152.149 143.051 151.687 143.238 151.271 143.502L151.264 143.495ZM104.926 179.774L81.895 148.816C82.5773 148.112 82.9593 147.17 82.9606 146.19C82.943 145.212 82.5613 144.275 81.89 143.563C81.2188 142.851 80.3062 142.415 79.3306 142.34L72.1394 77.2544C72.9928 77.0599 73.7559 76.5839 74.3059 75.903C74.8559 75.2221 75.1607 74.3759 75.1713 73.5006C75.1704 72.606 74.8511 71.7408 74.2706 71.06L103.18 40.0331C103.551 40.2394 103.964 40.3975 104.404 40.4869V93.4519C103.512 93.6129 102.704 94.0788 102.119 94.7699C101.533 95.461 101.206 96.3342 101.193 97.24C101.208 98.1564 101.543 99.0386 102.141 99.7332C102.739 100.428 103.562 100.891 104.466 101.042L105.703 179.527C105.439 179.584 105.181 179.667 104.933 179.774H104.926ZM106.013 93.4519V40.4937C106.708 40.3559 107.355 40.0383 107.889 39.5725L152.075 71.0256C151.673 71.8514 151.59 72.7961 151.841 73.6794L108.357 94.8544C107.761 94.1315 106.932 93.6382 106.013 93.4587V93.4519ZM105.208 34.375C106.535 34.375 107.614 35.4131 107.614 36.6919C107.609 37.0025 107.543 37.309 107.419 37.5938C107.295 37.8787 107.116 38.1364 106.893 38.3522C106.669 38.568 106.405 38.7377 106.116 38.8515C105.827 38.9653 105.519 39.0211 105.208 39.0156C104.898 39.0211 104.589 38.9653 104.3 38.8515C104.011 38.7377 103.747 38.568 103.524 38.3522C103.3 38.1364 103.121 37.8787 102.998 37.5938C102.874 37.309 102.807 37.0025 102.802 36.6919C102.802 35.4131 103.874 34.375 105.208 34.375ZM71.1563 71.1838C72.49 71.1838 73.5625 72.215 73.5625 73.5006C73.5571 73.8112 73.4906 74.1177 73.3668 74.4026C73.2429 74.6875 73.0642 74.9452 72.8407 75.161C72.6173 75.3767 72.3535 75.5464 72.0645 75.6602C71.7755 75.7741 71.4668 75.8298 71.1563 75.8244C70.8457 75.8298 70.537 75.7741 70.248 75.6602C69.959 75.5464 69.6952 75.3767 69.4718 75.161C69.2483 74.9452 69.0696 74.6875 68.9457 74.4026C68.8219 74.1177 68.7554 73.8112 68.75 73.5006C68.75 72.2219 69.8294 71.1838 71.1563 71.1838ZM78.9456 143.866C80.2794 143.866 81.3519 144.904 81.3519 146.19C81.3392 146.816 81.0788 147.412 80.6277 147.846C80.1766 148.28 79.5717 148.518 78.9456 148.507C78.3195 148.518 77.7146 148.28 77.2635 147.846C76.8124 147.412 76.552 146.816 76.5394 146.19C76.5394 144.904 77.6187 143.866 78.9456 143.866ZM155.719 70.3312C157.046 70.3312 158.125 71.3694 158.125 72.6481C158.12 72.9587 158.053 73.2652 157.929 73.5501C157.805 73.835 157.627 74.0927 157.403 74.3085C157.18 74.5243 156.916 74.6939 156.627 74.8077C156.338 74.9216 156.029 74.9773 155.719 74.9719C155.408 74.9773 155.1 74.9216 154.811 74.8077C154.521 74.6939 154.258 74.5243 154.034 74.3085C153.811 74.0927 153.632 73.835 153.508 73.5501C153.384 73.2652 153.318 72.9587 153.312 72.6481C153.312 71.3694 154.385 70.3312 155.719 70.3312ZM105.208 94.9231C106.535 94.9231 107.614 95.9544 107.614 97.24C107.609 97.5506 107.543 97.8571 107.419 98.142C107.295 98.4268 107.116 98.6845 106.893 98.9003C106.669 99.1161 106.405 99.2858 106.116 99.3996C105.827 99.5134 105.519 99.5692 105.208 99.5638C104.898 99.5692 104.589 99.5134 104.3 99.3996C104.011 99.2858 103.747 99.1161 103.524 98.9003C103.3 98.6845 103.121 98.4268 102.998 98.142C102.874 97.8571 102.807 97.5506 102.802 97.24C102.802 95.9613 103.874 94.9231 105.208 94.9231ZM106.569 180.984C107.903 180.984 108.976 182.023 108.976 183.308C108.963 183.934 108.703 184.53 108.251 184.964C107.8 185.398 107.195 185.636 106.569 185.625C105.943 185.636 105.338 185.398 104.887 184.964C104.436 184.53 104.176 183.934 104.163 183.308C104.163 182.023 105.243 180.984 106.569 180.984ZM153.471 144.409C154.798 144.409 155.877 145.448 155.877 146.733C155.864 147.359 155.604 147.955 155.153 148.389C154.702 148.823 154.097 149.061 153.471 149.05C152.845 149.061 152.24 148.823 151.789 148.389C151.337 147.955 151.077 147.359 151.064 146.733C151.064 145.448 152.137 144.409 153.471 144.409Z" fill="white"/>
</g>
<defs>
<clipPath id="clip0_108_234">
<rect width="220" height="220" fill="white"/>
</clipPath>
</defs>
</svg>
