<svg width="220" height="220" viewBox="0 0 220 220" fill="none" xmlns="http://www.w3.org/2000/svg">
<g clip-path="url(#clip0_108_235)">
<path d="M110 220C170.751 220 220 170.751 220 110C220 49.2487 170.751 0 110 0C49.2487 0 0 49.2487 0 110C0 170.751 49.2487 220 110 220Z" fill="#00AEEF"/>
<path d="M108.35 101.105C109.986 100.823 111.43 100.211 112.695 99.2827C113.96 98.3546 115.156 96.7871 116.277 94.6421L141.199 46.6065C142.175 44.9977 143.371 43.719 144.746 42.7152C146.159 41.738 147.841 41.2261 149.559 41.2509H165.364L134.331 97.7496C132.956 100.073 131.395 101.964 129.656 103.428C127.918 104.873 125.937 105.998 123.805 106.749C127.132 107.608 129.917 109.004 132.193 110.963C134.434 112.888 136.572 115.611 138.559 119.11L168.438 178.751H151.044C147.531 178.751 144.705 176.86 142.574 173.113L118.085 122.575C116.82 120.32 115.445 118.718 113.96 117.749C112.482 116.786 110.598 116.216 108.357 116.071V141.715H94.6825V115.961H84.6313V178.751H65.3125V41.2509H84.6313V101.325H94.6825V71.6109H108.357V101.105H108.35Z" fill="white"/>
</g>
<defs>
<clipPath id="clip0_108_235">
<rect width="220" height="220" fill="white"/>
</clipPath>
</defs>
</svg>
