<svg width="220" height="220" viewBox="0 0 220 220" fill="none" xmlns="http://www.w3.org/2000/svg">
<g clip-path="url(#clip0_108_236)">
<path d="M110 220C170.751 220 220 170.751 220 110C220 49.2487 170.751 0 110 0C49.2487 0 0 49.2487 0 110C0 170.751 49.2487 220 110 220Z" fill="#006149"/>
<path d="M166.21 118.142L160.731 116.773L162.395 110.105L179.479 114.374L175.216 131.458L168.541 129.795L170.019 123.868L109.024 161.633L41.3809 127.835V102.04L111.671 58.0815L176.124 89.5209V100.136L109.031 141.819L59.2077 117.117L62.2602 110.957L108.66 133.961L169.249 96.3134V93.8178L112.083 65.9328L48.2627 105.849V123.587L108.673 153.768L166.21 118.142Z" fill="white"/>
</g>
<defs>
<clipPath id="clip0_108_236">
<rect width="220" height="220" fill="white"/>
</clipPath>
</defs>
</svg>
