<svg width="220" height="220" viewBox="0 0 220 220" fill="none" xmlns="http://www.w3.org/2000/svg">
<g clip-path="url(#clip0_108_237)">
<path d="M110 220C170.751 220 220 170.751 220 110C220 49.2487 170.751 0 110 0C49.2487 0 0 49.2487 0 110C0 170.751 49.2487 220 110 220Z" fill="#0FA9C9"/>
<path d="M117.886 140.566L80.4169 178.75L69.7331 167.028L95.7 140.559L68.75 113.107L80.2519 101.379L117.886 140.566ZM139.748 118.628L151.25 106.899L124.3 79.4338L150.267 52.9719L139.583 41.25L101.949 79.4338L139.748 118.628ZM85.0231 96.855L122.822 136.043L134.324 124.321L96.525 85.8L85.0231 96.855Z" fill="white"/>
</g>
<defs>
<clipPath id="clip0_108_237">
<rect width="220" height="220" fill="white"/>
</clipPath>
</defs>
</svg>
