<svg width="220" height="220" viewBox="0 0 220 220" fill="none" xmlns="http://www.w3.org/2000/svg">
<g clip-path="url(#clip0_108_238)">
<path d="M110 220C170.751 220 220 170.751 220 110C220 49.2487 170.751 0 110 0C49.2487 0 0 49.2487 0 110C0 170.751 49.2487 220 110 220Z" fill="#11021E"/>
<path d="M75.1369 98.7667H75.2056L76.2575 99.1655L77.3781 99.5574L78.43 99.9561L79.5506 100.417L80.6025 100.815L81.7231 101.139L82.7819 101.537L83.8338 101.998L85.9444 102.789L87.065 103.119L88.1169 103.579L89.2375 103.978L90.2962 104.37L91.4169 104.769L92.4688 105.16L93.5894 105.559L94.6412 105.951L95.7619 106.35L96.8206 106.81L97.9413 107.14V91.7817H73.6175L72.5656 92.3111L70.0631 93.6311L67.4919 94.9442L64.9894 96.2642L62.48 97.5842L59.9087 98.9042L57.3444 100.217L54.835 101.537L52.3325 102.857L49.7612 104.17L47.2588 105.49L44.9488 106.742L44.6875 144.513L47.2588 146.294L49.7612 148.074L52.3325 149.786L57.3444 153.347L59.9087 155.121L61.0294 155.98L62.48 154.2L64.9894 150.9L65.1819 150.577L64.9894 150.377L62.48 148.597L59.9087 146.754L57.3444 144.974L54.835 143.193L52.3325 141.419L51.6106 140.952L51.8031 110.44L52.3325 110.179L54.835 108.928L57.3444 107.608L59.9087 106.419L62.48 105.105L64.9894 103.847L67.4919 102.596L70.0631 101.345L72.5656 100.094L75.1369 98.7667Z" fill="white"/>
<path d="M118.766 170.863L116.586 171.723L114.214 172.644L111.842 173.634L109.471 174.555L108.419 175.016L107.167 174.363L104.789 173.173L102.486 171.984L100.114 170.801L97.7419 169.612L95.37 168.43L92.9981 167.24L90.6194 165.989L88.2475 164.868L85.9444 163.617L83.5725 162.428L81.2625 161.314L78.8906 160.056L78.6294 159.925V129.153H71.775V164.146L81.2625 168.89L83.5725 170.073L85.9444 171.331L88.2475 172.451L90.6194 173.703L92.9981 174.885L95.37 176.006L97.7419 177.257L102.486 179.629L104.789 180.818L108.089 182.468L109.471 181.87L111.842 180.949L114.214 180.028L116.586 179.038L118.958 178.048L121.337 177.195L118.958 171.262L118.766 170.863ZM160.875 127.963L161.012 142.525L160.352 142.992L156.331 145.825L152.377 148.726L148.356 151.558L144.334 154.46L140.25 157.223L136.297 160.125L132.275 163.026L129.903 164.738L128.253 163.418L124.3 160.393L120.278 157.292L116.256 154.26L112.303 151.166L111.581 150.699V135.024L112.303 134.364L116.256 130.143L120.278 125.99L124.3 121.776L128.253 117.623L132.144 113.54H84.2325L88.2475 117.754L92.2075 121.906L96.2912 126.059L100.313 130.273L104.266 134.426L104.789 135.024V153.999L108.288 156.701L112.303 159.733L116.256 162.833L120.278 165.858L124.3 168.959L128.253 171.991L129.766 173.18L132.275 171.338L136.297 168.498L140.25 165.604L144.334 162.765L148.356 159.932L152.377 157.1L156.331 154.198L160.352 151.366L164.367 148.533L167.667 146.093L168.321 128.231L164.367 128.101L160.875 127.963ZM51.2119 94.2827H51.6725L51.7412 74.9089L54.3744 73.2589L57.5369 71.3545L60.7681 69.4433L63.8619 67.3946L67.0931 65.4833L70.2556 63.5102L73.4181 61.5989L76.5806 59.6877L79.7431 57.7077L82.9744 55.7964L83.0431 55.7277L86.075 57.5152L89.3062 59.2889L95.6312 62.9808L98.7937 64.7614L102.025 66.542L105.119 68.3845L108.219 70.1033L108.357 69.8352L111.519 64.1702L108.357 62.3208L105.126 60.5402L102.025 58.7664L98.7937 56.9789L95.6312 55.0745L92.4687 53.2939L89.3062 51.5133L86.075 49.7327L82.9812 47.952L82.8437 47.8833L79.75 49.7396L76.5875 51.7127L73.425 53.6239L70.2625 55.597L67.1 57.5083L63.8687 59.4195L60.7681 61.3995L57.5369 63.3108L54.3744 65.2908L51.2119 67.2639L48.0494 69.1752L44.9556 71.0864L44.8181 94.2208H48.0494L51.2119 94.2827Z" fill="white"/>
<path d="M175.106 76.4913L173.525 75.24L171.82 73.8581L170.17 72.5381L168.52 71.2181L166.87 69.8431L165.22 68.585L163.515 67.265L161.865 65.8831L160.146 64.5631L158.964 63.5731L158.503 64.1025L156.853 66.1444L155.141 68.255L154.749 68.8462L155.141 69.3069L156.86 70.6956L158.51 72.0088L160.153 73.4594L161.865 74.8481L163.515 76.2231L165.227 77.6806L166.877 79.0625L167.668 79.7225L167.736 110.894L166.877 111.423L165.227 112.544L163.508 113.534L161.865 114.654L160.146 115.637L158.503 116.758L156.853 117.748L155.141 118.869L153.491 119.859L151.841 120.979L150.198 121.969L148.548 123.09L146.836 124.073L145.186 125.194L143.543 126.184L141.893 127.304L140.181 128.294L141.9 130.928L143.55 133.629L143.873 134.09L145.193 133.237L146.843 132.179L148.555 131.196L150.205 130.137L151.848 129.085L153.498 128.033L155.148 127.043L156.853 125.984L158.503 125.001L160.153 123.942L161.865 122.891L163.515 121.832L165.227 120.849L166.877 119.79L168.527 118.807L170.17 117.748L171.82 116.696L173.532 115.637L175.182 114.654L175.106 76.4913ZM120.808 95.0812V108.591L121.337 108.384L123.509 107.47L125.751 106.611L127.923 105.689L130.164 104.83L132.406 103.909L134.578 102.987L136.819 102.128L139.061 101.207L141.24 100.347L143.474 99.4263L145.654 98.5738V57.7087L143.151 56.1962L140.58 54.7456L138.071 53.2331L135.506 51.7137L132.935 50.2631L130.364 48.7506L127.861 47.2312L125.352 45.7875L122.781 44.2681L120.216 42.7556L117.645 41.2981L115.136 39.7856L112.633 38.2731L110.062 36.8156L108.749 36.0938L107.498 36.685L104.926 38.1356L102.417 39.4556L99.9144 40.8375L97.3431 42.2881L94.7719 43.6081L92.2075 44.99L94.7719 46.5025L97.3431 47.9531L98.9244 48.8813L99.9144 48.4206L102.417 47.0319L104.926 45.7188L107.498 44.3988L108.549 43.8694L110.062 44.7288L112.633 46.2412L117.645 49.1425L122.781 52.1744L125.352 53.6181L130.364 56.6569L132.935 58.1006L138.071 61.1394L138.861 61.5312V91.6506H120.869" fill="white"/>
<path d="M120.807 108.591L145.654 98.574L120.739 91.6509L120.807 108.591ZM97.9412 108.591V91.9121L75.1987 98.7046L97.9412 108.522" fill="white"/>
</g>
<defs>
<clipPath id="clip0_108_238">
<rect width="220" height="220" fill="white"/>
</clipPath>
</defs>
</svg>
