<svg width="220" height="220" viewBox="0 0 220 220" fill="none" xmlns="http://www.w3.org/2000/svg">
<g clip-path="url(#clip0_108_8)">
<path d="M110 220C170.751 220 220 170.751 220 110C220 49.2487 170.751 0 110 0C49.2487 0 0 49.2487 0 110C0 170.751 49.2487 220 110 220Z" fill="white"/>
<path d="M110 29.2002L95.17 37.7302L54.77 61.0802L40 69.6002V150.4L54.82 158.92L95.6 182.28L110.42 190.8L125.25 182.28L165.25 158.92L180.07 150.4V69.6002L165.25 61.0802L124.85 37.7302L110 29.2002ZM69.6 133.35V86.6502L110 63.3002L150.4 86.6502V133.35L110 156.7L69.6 133.35Z" fill="#2A5ADA"/>
</g>
<defs>
<clipPath id="clip0_108_8">
<rect width="220" height="220" fill="white"/>
</clipPath>
</defs>
</svg>
