<svg width="220" height="220" viewBox="0 0 220 220" fill="none" xmlns="http://www.w3.org/2000/svg">
<g clip-path="url(#clip0_108_240)">
<path d="M110 220C170.751 220 220 170.751 220 110C220 49.2487 170.751 0 110 0C49.2487 0 0 49.2487 0 110C0 170.751 49.2487 220 110 220Z" fill="#9D01EB"/>
<path d="M68.7844 178.75V153.615L110 111.65L151.085 153.622V178.75L110 136.771L68.7844 178.75ZM34.375 93.7269H92.5994L110 111.65H51.7756L34.375 93.7269ZM185.625 93.7269L168.224 111.643H110V34.375L127.401 52.1537V93.7269H185.625Z" fill="white"/>
</g>
<defs>
<clipPath id="clip0_108_240">
<rect width="220" height="220" fill="white"/>
</clipPath>
</defs>
</svg>
