<svg width="220" height="220" viewBox="0 0 220 220" fill="none" xmlns="http://www.w3.org/2000/svg">
<g clip-path="url(#clip0_108_241)">
<path d="M110 220C170.751 220 220 170.751 220 110C220 49.2487 170.751 0 110 0C49.2487 0 0 49.2487 0 110C0 170.751 49.2487 220 110 220Z" fill="#48BEFF"/>
<path d="M152.584 180.393L39.9439 101.365C36.1056 98.6717 32.9725 95.0936 30.8094 90.9333C28.6464 86.773 27.5171 82.153 27.5171 77.4641C27.5171 72.7751 28.6464 68.1551 30.8094 63.9948C32.9725 59.8346 36.1056 56.2565 39.9439 53.5631L67.2377 34.375L179.891 113.396C183.73 116.09 186.863 119.668 189.026 123.828C191.189 127.988 192.318 132.608 192.318 137.297C192.318 141.986 191.189 146.606 189.026 150.766C186.863 154.927 183.73 158.505 179.891 161.198L152.584 180.393ZM67.2102 47.1831L45.9458 62.0606C43.4722 63.7902 41.4525 66.091 40.0579 68.7678C38.6633 71.4446 37.9352 74.4183 37.9352 77.4366C37.9352 80.4548 38.6633 83.4286 40.0579 86.1053C41.4525 88.7821 43.4722 91.0829 45.9458 92.8125L152.605 167.592L173.876 152.714C176.349 150.985 178.369 148.684 179.764 146.007C181.158 143.33 181.886 140.357 181.886 137.338C181.886 134.32 181.158 131.346 179.764 128.67C178.369 125.993 176.349 123.692 173.876 121.963L67.2102 47.1831Z" fill="white"/>
<path d="M67.1209 167.592L45.8771 152.694C43.4035 150.964 41.3838 148.664 39.9892 145.987C38.5946 143.31 37.8664 140.336 37.8664 137.318C37.8664 134.3 38.5946 131.326 39.9892 128.649C41.3838 125.972 43.4035 123.672 45.8771 121.942L100.877 83.5589L91.8021 77.1789L39.9371 113.396C36.0988 116.09 32.9656 119.668 30.8026 123.828C28.6395 127.988 27.5103 132.608 27.5103 137.297C27.5103 141.986 28.6395 146.606 30.8026 150.767C32.9656 154.927 36.0988 158.505 39.9371 161.198L67.1415 180.304L100.808 156.73L91.7746 150.363L67.1209 167.592ZM179.919 53.6046L152.694 34.5127L119.006 58.0871L128.04 64.4464L152.653 47.2246L173.896 62.1227C176.37 63.8523 178.39 66.1531 179.784 68.8299C181.179 71.5066 181.907 74.4804 181.907 77.4986C181.907 80.5169 181.179 83.4906 179.784 86.1674C178.39 88.8442 176.37 91.145 173.896 92.8746L118.896 131.251L127.937 137.617L179.871 101.338C183.709 98.6444 186.842 95.0662 189.005 90.906C191.168 86.7457 192.298 82.1257 192.298 77.4368C192.298 72.7478 191.168 68.1278 189.005 63.9675C186.842 59.8073 183.709 56.2291 179.871 53.5358L179.926 53.6046H179.919Z" fill="white"/>
<path d="M46.3789 108.823L89.2102 78.8345L95.1777 87.3595L52.3395 117.348L46.3789 108.823ZM168.41 96.737L147.545 111.346L153.512 119.878L175.113 104.726C172.817 102.099 170.596 99.4182 168.369 96.7301L168.41 96.737Z" fill="white"/>
</g>
<defs>
<clipPath id="clip0_108_241">
<rect width="220" height="220" fill="white"/>
</clipPath>
</defs>
</svg>
