<svg width="220" height="220" viewBox="0 0 220 220" fill="none" xmlns="http://www.w3.org/2000/svg">
<g clip-path="url(#clip0_108_242)">
<path d="M110 220C170.751 220 220 170.751 220 110C220 49.2487 170.751 0 110 0C49.2487 0 0 49.2487 0 110C0 170.751 49.2487 220 110 220Z" fill="black"/>
<path fill-rule="evenodd" clip-rule="evenodd" d="M97.7969 161.446H121.914V185.563H97.7969V161.446ZM97.7969 55H121.914V79.1175H97.7969V55ZM154.633 55H178.75V79.1175H154.633V55ZM41.25 55H65.3675V79.1175H41.25V55ZM126.211 108.226H150.329V132.344H126.211V108.226ZM69.3206 108.226H93.4381V132.344H69.3206V108.226Z" fill="white"/>
</g>
<defs>
<clipPath id="clip0_108_242">
<rect width="220" height="220" fill="white"/>
</clipPath>
</defs>
</svg>
