<svg width="220" height="220" viewBox="0 0 220 220" fill="none" xmlns="http://www.w3.org/2000/svg">
<g clip-path="url(#clip0_108_244)">
<path d="M110 220C170.751 220 220 170.751 220 110C220 49.2487 170.751 0 110 0C49.2487 0 0 49.2487 0 110C0 170.751 49.2487 220 110 220Z" fill="#0D4EA0"/>
<path d="M97.9619 171.586C97.8656 171.682 97.6731 171.779 97.5769 171.875H86.9069C86.7144 171.875 86.6181 171.779 86.5219 171.682L55.0687 136.153C55.0229 136.064 54.999 135.967 54.999 135.867C54.999 135.768 55.0229 135.67 55.0687 135.582L94.2425 67.9662C94.435 67.6844 94.9094 67.6844 95.1019 67.9662L106.061 86.9275C106.157 87.0238 106.157 87.2162 106.061 87.4087L79.5644 133.093C79.4681 133.279 79.5644 133.471 79.6606 133.664L95.48 151.477C95.5858 151.579 95.7201 151.646 95.865 151.669H114.544C115.026 151.669 115.211 152.151 114.922 152.433L97.9619 171.586ZM109.581 41.5388C109.78 41.1538 110.254 41.1538 110.351 41.5388L164.959 135.382C165.055 135.582 164.959 135.774 164.862 135.96L133.416 171.49C133.31 171.592 133.176 171.659 133.031 171.682H107.491C107.009 171.682 106.824 171.201 107.112 170.919L124.169 151.573L140.181 133.567C140.374 133.375 140.374 133.182 140.277 132.997L109.966 80.7056L98.5325 60.9744C98.4362 60.885 98.4362 60.6925 98.5325 60.4931L109.581 41.5388Z" fill="white"/>
</g>
<defs>
<clipPath id="clip0_108_244">
<rect width="220" height="220" fill="white"/>
</clipPath>
</defs>
</svg>
