<svg width="220" height="220" viewBox="0 0 220 220" fill="none" xmlns="http://www.w3.org/2000/svg">
<g clip-path="url(#clip0_108_246)">
<path d="M110 220C170.751 220 220 170.751 220 110C220 49.2487 170.751 0 110 0C49.2487 0 0 49.2487 0 110C0 170.751 49.2487 220 110 220Z" fill="#F55749"/>
<path d="M108.714 41.5799C109.105 41.3613 109.545 41.2466 109.993 41.2466C110.441 41.2466 110.881 41.3613 111.272 41.5799L167.819 73.3287C168.205 73.5419 168.527 73.8545 168.752 74.234C168.977 74.6136 169.096 75.0463 169.098 75.4874C169.098 76.3812 168.616 77.2062 167.826 77.6462L118.635 105.38C116.9 103.408 114.537 102.096 111.946 101.667V86.5906C117.274 85.7037 121.337 81.1937 121.337 75.7418C121.337 69.6574 116.277 64.7212 110.027 64.7212C103.778 64.7212 98.7181 69.6574 98.7181 75.7418C98.7181 81.1593 102.74 85.6556 108.027 86.5768V101.688C105.471 102.128 103.142 103.428 101.427 105.373L52.2431 77.7562C51.8556 77.5448 51.532 77.233 51.3064 76.8535C51.0807 76.4741 50.9613 76.0409 50.9606 75.5995C50.9599 75.158 51.078 74.7245 51.3024 74.3443C51.5268 73.9641 51.8494 73.6513 52.2363 73.4387L108.721 41.6006L108.714 41.5799ZM167.984 81.5924C168.373 81.3715 168.814 81.2548 169.262 81.2536C169.71 81.2524 170.15 81.3667 170.541 81.5856C170.928 81.799 171.251 82.1114 171.476 82.4908C171.702 82.8701 171.823 83.3028 171.827 83.7443L171.875 145.386C171.875 146.279 171.394 147.097 170.596 147.544L115.837 178.413C114.139 179.376 112.007 178.172 112.007 176.254L111.959 123.365C114.613 122.925 117.019 121.571 118.745 119.549L132.426 127.215C132.049 128.622 131.963 130.091 132.172 131.532C133.038 137.562 138.765 141.756 144.946 140.91C151.133 140.057 155.437 134.482 154.571 128.452C153.704 122.423 147.971 118.229 141.79 119.082C140.254 119.287 138.776 119.806 137.449 120.607C136.122 121.408 134.974 122.473 134.076 123.736L120.67 116.222C121.632 113.671 121.564 110.859 120.498 108.35L167.991 81.5787L167.984 81.5924ZM48.18 83.7374C48.18 82.2799 49.4038 81.2418 50.7375 81.2418C51.1844 81.2418 51.6312 81.3587 52.0162 81.5856L99.5569 108.384C98.505 110.887 98.45 113.678 99.3988 116.222L85.9994 123.736C85.1011 122.473 83.9529 121.408 82.626 120.608C81.299 119.807 79.8217 119.288 78.2856 119.082C72.0981 118.229 66.385 122.43 65.5119 128.452C64.6388 134.475 68.9494 140.051 75.1369 140.903C81.3244 141.756 87.0306 137.555 87.9106 131.532C88.1208 130.089 88.0343 128.617 87.6562 127.208L101.331 119.542C103.043 121.55 105.421 122.897 108.047 123.351L108.006 176.254C108.006 178.172 105.875 179.369 104.17 178.406L49.4037 147.537C49.0176 147.324 48.6954 147.012 48.4705 146.632C48.2457 146.253 48.1264 145.82 48.125 145.379L48.18 83.7374Z" fill="white"/>
</g>
<defs>
<clipPath id="clip0_108_246">
<rect width="220" height="220" fill="white"/>
</clipPath>
</defs>
</svg>
