<svg width="220" height="220" viewBox="0 0 220 220" fill="none" xmlns="http://www.w3.org/2000/svg">
<g clip-path="url(#clip0_108_247)">
<path d="M110 220C170.751 220 220 170.751 220 110C220 49.2487 170.751 0 110 0C49.2487 0 0 49.2487 0 110C0 170.751 49.2487 220 110 220Z" fill="#5592D7"/>
<path d="M139.191 87.086V176.275L63.869 132.915C41.594 119.873 43.0102 111.76 43.0102 94.1397L120.443 138.91V98.0103L139.185 87.0791L139.191 87.086Z" fill="white"/>
<path opacity="0.6" d="M120.45 138.91L43.0171 94.1331L118.326 50.7724C140.601 38.0743 146.967 43.3681 162.525 52.1818L85.0921 96.9587L120.45 117.405V138.91Z" fill="white"/>
<path opacity="0.2" d="M85.0923 96.9575L162.525 52.1807V138.909C162.525 164.649 154.75 167.468 139.192 176.281V87.085L103.469 107.524L85.0854 96.9507L85.0923 96.9575Z" fill="white"/>
</g>
<defs>
<clipPath id="clip0_108_247">
<rect width="220" height="220" fill="white"/>
</clipPath>
</defs>
</svg>
