<svg width="220" height="220" viewBox="0 0 220 220" fill="none" xmlns="http://www.w3.org/2000/svg">
<g clip-path="url(#clip0_108_248)">
<path d="M110 220C170.751 220 220 170.751 220 110C220 49.2487 170.751 0 110 0C49.2487 0 0 49.2487 0 110C0 170.751 49.2487 220 110 220Z" fill="#FF2D55"/>
<path d="M87.952 79.2963L39.5176 137.418C36.1044 128.68 34.3601 119.38 34.3751 110C34.3751 68.2206 68.2207 34.375 110 34.375C151.786 34.375 185.625 68.2206 185.625 110C185.625 133.1 175.264 153.787 158.929 167.661H61.0707C56.787 163.99 52.908 159.871 49.5001 155.375H135.864V122.629L163.123 155.375H170.5L135.829 113.781L126.259 125.276L87.9588 79.2963H87.952ZM135.836 64.625C130.91 64.7579 126.231 66.808 122.794 70.3392C119.356 73.8703 117.433 78.6035 117.433 83.5312C117.433 88.459 119.356 93.1922 122.794 96.7233C126.231 100.254 130.91 102.305 135.836 102.438C140.762 102.305 145.442 100.254 148.879 96.7233C152.316 93.1922 154.24 88.459 154.24 83.5312C154.24 78.6035 152.316 73.8703 148.879 70.3392C145.442 66.808 140.762 64.7579 135.836 64.625ZM87.9657 50.9369C86.7024 50.9028 85.4451 51.1222 84.268 51.5821C83.0909 52.042 82.0178 52.7332 81.1123 53.6147C80.2067 54.4961 79.4869 55.5501 78.9954 56.7144C78.5039 57.8787 78.2507 59.1297 78.2507 60.3934C78.2507 61.6572 78.5039 62.9082 78.9954 64.0724C79.4869 65.2367 80.2067 66.2907 81.1123 67.1722C82.0178 68.0537 83.0909 68.7448 84.268 69.2047C85.4451 69.6647 86.7024 69.8841 87.9657 69.85C90.4296 69.7836 92.7703 68.7581 94.4895 66.9919C96.2087 65.2257 97.1707 62.8582 97.1707 60.3934C97.1707 57.9286 96.2087 55.5612 94.4895 53.795C92.7703 52.0288 90.4296 51.0033 87.9657 50.9369ZM68.6745 173.333H151.333C139.045 181.365 124.68 185.638 110 185.625C95.3222 185.636 80.96 181.364 68.6745 173.333ZM122.595 129.704L105.916 149.703H45.6432C43.235 145.801 41.1847 141.689 39.5176 137.418H87.9588V88.1375L122.595 129.697V129.704Z" fill="#16141A"/>
</g>
<defs>
<clipPath id="clip0_108_248">
<rect width="220" height="220" fill="white"/>
</clipPath>
</defs>
</svg>
