<svg width="220" height="220" viewBox="0 0 220 220" fill="none" xmlns="http://www.w3.org/2000/svg">
<g clip-path="url(#clip0_108_249)">
<path d="M110 220C170.752 220 220 170.752 220 110C220 49.2479 170.752 0 110 0C49.2479 0 0 49.2479 0 110C0 170.752 49.2479 220 110 220Z" fill="#2B6DEF"/>
<path fill-rule="evenodd" clip-rule="evenodd" d="M155.838 55L132.949 68.1977H132.926V94.5954L132.846 94.6069L64.169 55L41.2615 68.2L41.25 68.1954V150.265L64.1552 163.471L64.169 163.366V163.465L87.0833 150.265V121.023L109.95 134.2L109.963 134.228L109.982 134.216L132.93 121.08V150.276L155.739 163.421V163.49L155.797 163.455L155.838 163.478L155.87 163.414L178.649 150.29V68.2688L178.752 68.2092L155.838 55Z" fill="white"/>
</g>
<defs>
<clipPath id="clip0_108_249">
<rect width="220" height="220" fill="white"/>
</clipPath>
</defs>
</svg>
