<svg width="220" height="220" viewBox="0 0 220 220" fill="none" xmlns="http://www.w3.org/2000/svg">
<g clip-path="url(#clip0_108_250)">
<path d="M110 220C170.751 220 220 170.751 220 110C220 49.2487 170.751 0 110 0C49.2487 0 0 49.2487 0 110C0 170.751 49.2487 220 110 220Z" fill="#033B4A"/>
<path d="M106.782 48.5656C110.612 47.445 114.675 48.5863 117.982 50.5869C132.729 59.0337 147.543 67.3641 162.422 75.5775C168.149 78.6094 171.957 84.8313 171.875 91.2525C171.861 112.524 171.806 133.809 171.841 155.08C172.074 156.558 171.071 158.243 169.393 158.091C162.786 158.133 156.179 158.105 149.572 158.098C148.129 158.311 146.74 157.101 146.891 155.637C146.259 137.521 146.499 119.385 146.685 101.256C146.685 98.9869 146.245 96.5944 144.781 94.7588C143.296 92.8131 140.951 91.8163 138.854 90.6613C135.417 88.86 132.179 86.6806 128.617 85.1063C127.27 84.57 125.517 83.9925 124.245 85.0169C122.836 86.3438 122.849 88.4406 122.705 90.2281C122.445 99.1176 122.42 108.012 122.629 116.903C122.622 119.007 122.691 121.454 121.082 123.091C119.439 124.699 116.957 124.727 114.799 124.761C110.894 124.72 106.989 124.864 103.097 124.672C101.447 124.493 99.4674 124.397 98.3949 122.953C97.4324 121.53 97.4737 119.736 97.3912 118.099C97.3706 108.756 97.4874 99.4063 97.3912 90.07C97.2949 88.42 97.3224 86.5638 96.1537 85.2575C95.0331 84.1025 93.2456 84.4806 91.8981 84.9688C88.9762 86.11 86.3568 87.8563 83.5862 89.3C80.8156 90.895 77.8387 92.2563 75.4599 94.4288C73.9131 95.8381 73.5006 97.9831 73.4524 99.9631C73.4181 118.319 73.4731 136.662 73.3149 155.018C73.4731 156.407 72.6481 158.098 71.0256 158.071C64.2193 158.153 57.4131 158.105 50.6068 158.091C49.2456 158.222 47.9943 157.026 48.1318 155.671C48.4068 133.362 48.2349 111.046 48.2556 88.7294C48.1917 86.3959 48.7719 84.0899 49.9325 82.0646C51.0931 80.0392 52.7894 78.3728 54.8349 77.2481C70.3381 68.5581 85.8687 59.9231 101.31 51.13C103.056 50.14 104.816 49.1019 106.782 48.5656Z" fill="white"/>
</g>
<defs>
<clipPath id="clip0_108_250">
<rect width="220" height="220" fill="white"/>
</clipPath>
</defs>
</svg>
