<svg width="220" height="220" viewBox="0 0 220 220" fill="none" xmlns="http://www.w3.org/2000/svg">
<g clip-path="url(#clip0_108_252)">
<path d="M110 220C170.751 220 220 170.751 220 110C220 49.2487 170.751 0 110 0C49.2487 0 0 49.2487 0 110C0 170.751 49.2487 220 110 220Z" fill="#01A64F"/>
<path d="M142.058 54.945C150.418 63.8825 154.688 75.1025 154.688 88.22C154.688 101.537 150.418 112.764 142.051 121.701C135.362 128.734 127.373 132.914 118.085 134.441V142.237H137.032V150.796H117.893V155.361H137.032V163.343H118.085V178.75H101.915V163.35H83.1462V155.361H102.101V150.796H83.1531V142.237H101.922V134.248C92.8125 132.729 84.8237 128.542 78.1344 121.509C69.5887 112.571 65.3125 101.344 65.3125 88.0344C65.3125 74.5319 69.4031 63.3119 77.9488 54.56C86.4875 45.6225 97.0887 41.25 110.096 41.25C122.918 41.25 133.506 45.6225 142.058 54.945ZM124.589 105.724C128.116 101.159 129.979 95.26 129.979 88.0344C129.979 81.0013 128.123 75.1094 124.218 70.5375C120.505 65.7869 115.672 63.5044 110.096 63.5044C104.335 63.5044 99.5087 65.7869 95.7894 70.3519C92.0631 74.9169 90.2069 80.6162 90.2069 87.8487C90.2069 95.26 92.07 101.159 95.7894 105.724C99.5087 110.289 104.335 112.571 110.089 112.571C116.043 112.571 121.055 110.289 124.589 105.724Z" fill="white"/>
</g>
<defs>
<clipPath id="clip0_108_252">
<rect width="220" height="220" fill="white"/>
</clipPath>
</defs>
</svg>
