<svg width="220" height="220" viewBox="0 0 220 220" fill="none" xmlns="http://www.w3.org/2000/svg">
<g clip-path="url(#clip0_108_253)">
<path d="M110 220C170.751 220 220 170.751 220 110C220 49.2487 170.751 0 110 0C49.2487 0 0 49.2487 0 110C0 170.751 49.2487 220 110 220Z" fill="#1E252C"/>
<path d="M97.7625 107.174C95.0147 107.174 92.3794 106.083 90.4364 104.14C88.4934 102.197 87.4019 99.5615 87.4019 96.8137C87.4019 94.0659 88.4934 91.4307 90.4364 89.4877C92.3794 87.5447 95.0147 86.4531 97.7625 86.4531C100.51 86.4531 103.146 87.5447 105.089 89.4877C107.032 91.4307 108.123 94.0659 108.123 96.8137C108.123 99.5615 107.032 102.197 105.089 104.14C103.146 106.083 100.51 107.174 97.7625 107.174ZM123.186 107.174C120.438 107.174 117.803 106.083 115.86 104.14C113.917 102.197 112.826 99.5615 112.826 96.8137C112.826 94.0659 113.917 91.4307 115.86 89.4877C117.803 87.5447 120.438 86.4531 123.186 86.4531C125.934 86.4531 128.569 87.5447 130.512 89.4877C132.455 91.4307 133.547 94.0659 133.547 96.8137C133.547 99.5615 132.455 102.197 130.512 104.14C128.569 106.083 125.934 107.174 123.186 107.174ZM97.7556 132.605C95.0078 132.605 92.3726 131.513 90.4296 129.57C88.4866 127.627 87.395 124.992 87.395 122.244C87.395 119.497 88.4866 116.861 90.4296 114.918C92.3726 112.975 95.0078 111.884 97.7556 111.884C100.503 111.884 103.139 112.975 105.082 114.918C107.025 116.861 108.116 119.497 108.116 122.244C108.116 124.992 107.025 127.627 105.082 129.57C103.139 131.513 100.503 132.605 97.7556 132.605ZM123.186 132.605C120.438 132.605 117.803 131.513 115.86 129.57C113.917 127.627 112.826 124.992 112.826 122.244C112.826 119.497 113.917 116.861 115.86 114.918C117.803 112.975 120.438 111.884 123.186 111.884C125.934 111.884 128.569 112.975 130.512 114.918C132.455 116.861 133.547 119.497 133.547 122.244C133.547 124.992 132.455 127.627 130.512 129.57C128.569 131.513 125.934 132.605 123.186 132.605ZM148.61 104.349C147.62 104.349 146.641 104.154 145.726 103.775C144.812 103.396 143.982 102.841 143.282 102.142C142.582 101.442 142.027 100.611 141.649 99.6973C141.27 98.7831 141.075 97.8032 141.075 96.8137C141.075 95.8242 141.27 94.8444 141.649 93.9302C142.027 93.016 142.582 92.1854 143.282 91.4857C143.982 90.786 144.812 90.231 145.726 89.8523C146.641 89.4736 147.62 89.2787 148.61 89.2787C150.608 89.2787 152.525 90.0726 153.938 91.4857C155.351 92.8988 156.145 94.8153 156.145 96.8137C156.145 98.8121 155.351 100.729 153.938 102.142C152.525 103.555 150.608 104.349 148.61 104.349ZM148.61 129.779C146.612 129.779 144.695 128.985 143.282 127.572C141.869 126.159 141.075 124.243 141.075 122.244C141.075 120.246 141.869 118.329 143.282 116.916C144.695 115.503 146.612 114.709 148.61 114.709C150.608 114.709 152.525 115.503 153.938 116.916C155.351 118.329 156.145 120.246 156.145 122.244C156.145 124.243 155.351 126.159 153.938 127.572C152.525 128.985 150.608 129.779 148.61 129.779ZM71.39 104.349C69.3916 104.349 67.475 103.555 66.0619 102.142C64.6489 100.729 63.855 98.8121 63.855 96.8137C63.855 94.8153 64.6489 92.8988 66.0619 91.4857C67.475 90.0726 69.3916 89.2787 71.39 89.2787C73.3884 89.2787 75.305 90.0726 76.718 91.4857C78.1311 92.8988 78.925 94.8153 78.925 96.8137C78.925 98.8121 78.1311 100.729 76.718 102.142C75.305 103.555 73.3884 104.349 71.39 104.349ZM71.39 129.779C69.3916 129.779 67.475 128.985 66.0619 127.572C64.6489 126.159 63.855 124.243 63.855 122.244C63.855 120.246 64.6489 118.329 66.0619 116.916C67.475 115.503 69.3916 114.709 71.39 114.709C73.3884 114.709 75.305 115.503 76.718 116.916C78.1311 118.329 78.925 120.246 78.925 122.244C78.925 124.243 78.1311 126.159 76.718 127.572C75.305 128.985 73.3884 129.779 71.39 129.779ZM97.7556 155.203C96.7474 155.234 95.7434 155.061 94.803 154.697C93.8626 154.332 93.005 153.782 92.2811 153.079C91.5572 152.377 90.9816 151.536 90.5886 150.608C90.1956 149.679 89.993 148.68 89.993 147.672C89.993 146.663 90.1956 145.664 90.5886 144.736C90.9816 143.807 91.5572 142.966 92.2811 142.264C93.005 141.561 93.8626 141.011 94.803 140.647C95.7434 140.282 96.7474 140.11 97.7556 140.14C99.7137 140.199 101.572 141.019 102.936 142.425C104.3 143.831 105.063 145.713 105.063 147.672C105.063 149.631 104.3 151.513 102.936 152.919C101.572 154.325 99.7137 155.144 97.7556 155.203ZM123.186 155.203C122.178 155.234 121.174 155.061 120.234 154.697C119.293 154.332 118.436 153.782 117.712 153.079C116.988 152.377 116.412 151.536 116.019 150.608C115.626 149.679 115.424 148.68 115.424 147.672C115.424 146.663 115.626 145.664 116.019 144.736C116.412 143.807 116.988 142.966 117.712 142.264C118.436 141.561 119.293 141.011 120.234 140.647C121.174 140.282 122.178 140.11 123.186 140.14C125.144 140.199 127.002 141.019 128.367 142.425C129.731 143.831 130.494 145.713 130.494 147.672C130.494 149.631 129.731 151.513 128.367 152.919C127.002 154.325 125.144 155.144 123.186 155.203ZM97.7556 78.925C96.7474 78.9554 95.7434 78.7832 94.803 78.4184C93.8626 78.0536 93.005 77.5037 92.2811 76.8013C91.5572 76.0989 90.9816 75.2584 90.5886 74.3294C90.1956 73.4005 89.993 72.4021 89.993 71.3934C89.993 70.3848 90.1956 69.3864 90.5886 68.4574C90.9816 67.5285 91.5572 66.6879 92.2811 65.9855C93.005 65.2831 93.8626 64.7332 94.803 64.3684C95.7434 64.0037 96.7474 63.8314 97.7556 63.8619C99.7137 63.921 101.572 64.7405 102.936 66.1465C104.3 67.5524 105.063 69.4344 105.063 71.3934C105.063 73.3524 104.3 75.2344 102.936 76.6404C101.572 78.0464 99.7137 78.8658 97.7556 78.925ZM123.186 78.925C122.178 78.9554 121.174 78.7832 120.234 78.4184C119.293 78.0536 118.436 77.5037 117.712 76.8013C116.988 76.0989 116.412 75.2584 116.019 74.3294C115.626 73.4005 115.424 72.4021 115.424 71.3934C115.424 70.3848 115.626 69.3864 116.019 68.4574C116.412 67.5285 116.988 66.6879 117.712 65.9855C118.436 65.2831 119.293 64.7332 120.234 64.3684C121.174 64.0037 122.178 63.8314 123.186 63.8619C125.144 63.921 127.002 64.7405 128.367 66.1465C129.731 67.5524 130.494 69.4344 130.494 71.3934C130.494 73.3524 129.731 75.2344 128.367 76.6404C127.002 78.0464 125.144 78.8658 123.186 78.925ZM97.7556 50.6687C97.1225 50.6929 96.491 50.5891 95.8989 50.3635C95.3069 50.1379 94.7664 49.7952 94.3099 49.3558C93.8534 48.9165 93.4903 48.3895 93.2422 47.8065C92.9942 47.2235 92.8663 46.5964 92.8663 45.9628C92.8663 45.3292 92.9942 44.7021 93.2422 44.1191C93.4903 43.5361 93.8534 43.0091 94.3099 42.5698C94.7664 42.1304 95.3069 41.7876 95.8989 41.562C96.491 41.3365 97.1225 41.2327 97.7556 41.2569C99.0046 41.2569 100.202 41.753 101.086 42.6362C101.969 43.5194 102.465 44.7172 102.465 45.9662C102.465 47.2152 101.969 48.4131 101.086 49.2963C100.202 50.1794 99.0046 50.6756 97.7556 50.6756V50.6687ZM123.186 50.6687C122.553 50.6929 121.922 50.5891 121.33 50.3635C120.737 50.1379 120.197 49.7952 119.741 49.3558C119.284 48.9165 118.921 48.3895 118.673 47.8065C118.425 47.2235 118.297 46.5964 118.297 45.9628C118.297 45.3292 118.425 44.7021 118.673 44.1191C118.921 43.5361 119.284 43.0091 119.741 42.5698C120.197 42.1304 120.737 41.7876 121.33 41.562C121.922 41.3365 122.553 41.2327 123.186 41.2569C124.435 41.2569 125.633 41.753 126.516 42.6362C127.399 43.5194 127.896 44.7172 127.896 45.9662C127.896 47.2152 127.399 48.4131 126.516 49.2963C125.633 50.1794 124.435 50.6756 123.186 50.6756V50.6687ZM174.041 101.53C172.792 101.53 171.594 101.034 170.711 100.151C169.827 99.2675 169.331 98.0696 169.331 96.8206C169.331 95.5716 169.827 94.3738 170.711 93.4906C171.594 92.6074 172.792 92.1112 174.041 92.1112C175.29 92.1112 176.487 92.6074 177.371 93.4906C178.254 94.3738 178.75 95.5716 178.75 96.8206C178.75 98.0696 178.254 99.2675 177.371 100.151C176.487 101.034 175.29 101.53 174.041 101.53ZM174.041 126.961C172.792 126.961 171.594 126.464 170.711 125.581C169.827 124.698 169.331 123.5 169.331 122.251C169.331 121.002 169.827 119.804 170.711 118.921C171.594 118.038 172.792 117.542 174.041 117.542C175.29 117.542 176.487 118.038 177.371 118.921C178.254 119.804 178.75 121.002 178.75 122.251C178.75 123.5 178.254 124.698 177.371 125.581C176.487 126.464 175.29 126.961 174.041 126.961ZM45.9594 101.53C44.7104 101.53 43.5125 101.034 42.6293 100.151C41.7462 99.2675 41.25 98.0696 41.25 96.8206C41.25 95.5716 41.7462 94.3738 42.6293 93.4906C43.5125 92.6074 44.7104 92.1112 45.9594 92.1112C47.2084 92.1112 48.4062 92.6074 49.2894 93.4906C50.1726 94.3738 50.6687 95.5716 50.6687 96.8206C50.6687 98.0696 50.1726 99.2675 49.2894 100.151C48.4062 101.034 47.2084 101.53 45.9594 101.53ZM45.9594 126.961C44.7104 126.961 43.5125 126.464 42.6293 125.581C41.7462 124.698 41.25 123.5 41.25 122.251C41.25 121.002 41.7462 119.804 42.6293 118.921C43.5125 118.038 44.7104 117.542 45.9594 117.542C47.2084 117.542 48.4062 118.038 49.2894 118.921C50.1726 119.804 50.6687 121.002 50.6687 122.251C50.6687 123.5 50.1726 124.698 49.2894 125.581C48.4062 126.464 47.2084 126.961 45.9594 126.961ZM97.7556 178.75C96.5066 178.75 95.3088 178.254 94.4256 177.371C93.5424 176.487 93.0463 175.29 93.0463 174.041C93.0463 172.792 93.5424 171.594 94.4256 170.711C95.3088 169.827 96.5066 169.331 97.7556 169.331C99.0046 169.331 100.202 169.827 101.086 170.711C101.969 171.594 102.465 172.792 102.465 174.041C102.465 175.29 101.969 176.487 101.086 177.371C100.202 178.254 99.0046 178.75 97.7556 178.75ZM123.186 178.75C121.937 178.75 120.739 178.254 119.856 177.371C118.973 176.487 118.477 175.29 118.477 174.041C118.477 172.792 118.973 171.594 119.856 170.711C120.739 169.827 121.937 169.331 123.186 169.331C124.435 169.331 125.633 169.827 126.516 170.711C127.399 171.594 127.896 172.792 127.896 174.041C127.896 175.29 127.399 176.487 126.516 177.371C125.633 178.254 124.435 178.75 123.186 178.75Z" fill="white"/>
</g>
<defs>
<clipPath id="clip0_108_253">
<rect width="220" height="220" fill="white"/>
</clipPath>
</defs>
</svg>
