<svg width="220" height="220" viewBox="0 0 220 220" fill="none" xmlns="http://www.w3.org/2000/svg">
<g clip-path="url(#clip0_108_254)">
<path d="M110 220C170.751 220 220 170.751 220 110C220 49.2487 170.751 0 110 0C49.2487 0 0 49.2487 0 110C0 170.751 49.2487 220 110 220Z" fill="#00B0FF"/>
<path d="M165 82.9194V144.21L147.565 154.385V113.479L110 135.96L72.435 113.458V154.385L55 144.21V82.9125L110 115.947L165 82.9125V82.9194ZM110.206 159.349L126.294 149.731L142.175 159.349L110.206 178.75L78.2512 159.349L94.1325 149.731L110.213 159.349H110.206ZM141.969 60.6512L126.081 70.2694L110 60.6512L93.9194 70.2694L78.0381 60.6512L110 41.25L141.969 60.6512Z" fill="white"/>
</g>
<defs>
<clipPath id="clip0_108_254">
<rect width="220" height="220" fill="white"/>
</clipPath>
</defs>
</svg>
