<svg width="220" height="220" viewBox="0 0 220 220" fill="none" xmlns="http://www.w3.org/2000/svg">
<g clip-path="url(#clip0_108_255)">
<path d="M110 220C170.751 220 220 170.751 220 110C220 49.2487 170.751 0 110 0C49.2487 0 0 49.2487 0 110C0 170.751 49.2487 220 110 220Z" fill="black"/>
<path d="M59.6271 151.3L107.45 181.385H113.238L160.291 151.3L152.962 145.518L110.151 172.901L65.8008 145.518L59.6271 151.3ZM82.7683 81.4978L109.766 40.6122L137.535 81.8828L144.093 76.0941L113.238 29.8184C113.238 29.8184 110.536 26.3466 106.295 29.8184L74.6696 77.256L82.7683 81.4978Z" fill="white" fill-opacity="0.703"/>
<path d="M110.536 164.033C112.076 158.629 114.008 153.617 115.555 148.221C122.499 126.619 129.436 104.633 136.379 83.0387C136.764 81.8837 137.149 80.3368 137.534 79.1887C138.304 76.8649 139.459 75.71 141.776 75.71C142.782 75.6834 143.764 76.0195 144.543 76.6569C145.322 77.2943 145.845 78.1905 146.018 79.1818C147.943 86.8956 149.49 94.9943 151.415 102.708C154.887 117.366 157.974 132.408 161.446 147.059C162.216 150.531 161.061 152.847 158.359 153.617C155.657 154.387 153.732 152.462 152.962 148.991C149.105 132.408 145.248 115.819 141.776 98.8512C141.776 98.0812 141.391 97.6962 141.006 96.5343C140.686 97.5896 140.298 98.623 139.844 99.6281C132.523 121.992 125.579 144.364 118.25 166.728C117.095 170.97 115.548 174.827 114.393 179.069C113.623 181.771 112.076 182.926 109.766 182.926C107.449 182.926 105.909 181.771 105.139 179.076C96.6557 152.462 88.1651 125.849 80.0663 99.2362C79.6813 98.4662 79.6813 98.0812 79.2963 96.5343C78.6084 100.024 77.8381 103.497 76.9863 106.95C73.8926 120.837 70.8126 135.103 67.7257 148.991C66.9557 152.841 63.8757 154.772 60.7819 152.841C58.8569 151.686 58.4719 149.761 58.8569 147.444C63.0988 128.159 67.7257 108.875 71.9676 89.5974C72.7376 86.5037 73.5144 83.4237 73.8926 80.3368C74.6694 77.2568 76.2094 75.71 78.5263 75.71C80.8432 75.71 82.3763 77.2568 83.1532 80.3368C92.0219 108.112 100.891 136.265 109.381 164.033H110.536Z" fill="white"/>
</g>
<defs>
<clipPath id="clip0_108_255">
<rect width="220" height="220" fill="white"/>
</clipPath>
</defs>
</svg>
