<svg width="220" height="220" viewBox="0 0 220 220" fill="none" xmlns="http://www.w3.org/2000/svg">
<g clip-path="url(#clip0_108_256)">
<path d="M110 220C170.751 220 220 170.751 220 110C220 49.2487 170.751 0 110 0C49.2487 0 0 49.2487 0 110C0 170.751 49.2487 220 110 220Z" fill="#DA1157"/>
<path d="M144.272 131.781C149.789 131.781 155.081 129.589 158.982 125.687C162.884 121.786 165.076 116.494 165.076 110.977C165.076 105.459 162.884 100.168 158.982 96.2663C155.081 92.3648 149.789 90.173 144.272 90.173C138.754 90.173 133.463 92.3648 129.561 96.2663C125.66 100.168 123.468 105.459 123.468 110.977C123.468 116.494 125.66 121.786 129.561 125.687C133.463 129.589 138.754 131.781 144.272 131.781ZM144.272 62.9962C152.194 62.9914 159.995 64.9483 166.977 68.692C173.959 72.4357 179.906 77.8499 184.286 84.4512C188.666 91.0525 191.344 98.6357 192.08 106.524C192.817 114.412 191.588 122.36 188.505 129.658C185.422 136.956 180.581 143.377 174.412 148.348C168.243 153.319 160.94 156.686 153.153 158.147C145.367 159.609 137.34 159.12 129.788 156.724C122.237 154.328 115.396 150.1 109.876 144.417C118.602 135.474 123.481 123.471 123.468 110.977C123.481 98.4823 118.603 86.4791 109.876 77.5368C114.341 72.9302 119.687 69.269 125.596 66.771C131.505 64.273 137.857 62.9892 144.272 62.9962ZM75.4876 131.781C81.0051 131.781 86.2966 129.589 90.198 125.687C94.0995 121.786 96.2913 116.494 96.2913 110.977C96.2913 105.459 94.0995 100.168 90.198 96.2663C86.2966 92.3648 81.0051 90.173 75.4876 90.173C69.9701 90.173 64.6785 92.3648 60.7771 96.2663C56.8756 100.168 54.6838 105.459 54.6838 110.977C54.6838 116.494 56.8756 121.786 60.7771 125.687C64.6785 129.589 69.9701 131.781 75.4876 131.781ZM109.883 77.5368C101.16 86.4806 96.284 98.4834 96.2982 110.977C96.2982 123.984 101.482 135.775 109.883 144.417C103.228 151.266 94.6812 155.974 85.3355 157.938C75.9897 159.902 66.2705 159.034 57.4214 155.443C48.5724 151.852 40.996 145.702 35.6618 137.781C30.3276 129.859 27.4781 120.527 27.4781 110.977C27.4781 101.427 30.3276 92.0941 35.6618 84.1728C40.996 76.2515 48.5724 70.1019 57.4214 66.511C66.2705 62.92 75.9897 62.0511 85.3355 64.0152C94.6812 65.9794 103.228 70.6874 109.883 77.5368ZM96.2913 110.984C96.2913 123.991 101.475 135.782 109.883 144.424C118.607 135.48 123.483 123.477 123.468 110.984C123.483 98.4901 118.607 86.4871 109.883 77.5437C101.157 86.486 96.2782 98.4892 96.2913 110.984Z" fill="white"/>
</g>
<defs>
<clipPath id="clip0_108_256">
<rect width="220" height="220" fill="white"/>
</clipPath>
</defs>
</svg>
