<svg width="220" height="220" viewBox="0 0 220 220" fill="none" xmlns="http://www.w3.org/2000/svg">
<g clip-path="url(#clip0_108_257)">
<path d="M110 220C170.751 220 220 170.751 220 110C220 49.2487 170.751 0 110 0C49.2487 0 0 49.2487 0 110C0 170.751 49.2487 220 110 220Z" fill="#242424"/>
<path d="M153.017 46.5437C153.017 51.3631 149.098 55.275 144.258 55.275C143.11 55.2768 141.972 55.0524 140.911 54.6146C139.849 54.1768 138.884 53.5341 138.071 52.7234C137.257 51.9126 136.612 50.9496 136.17 49.8893C135.729 48.829 135.501 47.6922 135.499 46.5437C135.499 41.7175 139.418 37.8125 144.258 37.8125C149.098 37.8125 153.017 41.7175 153.017 46.5437ZM146.706 76.9588C142.608 76.9588 139.281 73.645 139.281 69.5613C139.281 65.4775 142.608 62.1706 146.706 62.1706C150.803 62.1706 154.124 65.4775 154.124 69.5613C154.124 73.645 150.803 76.9588 146.699 76.9588H146.706ZM144.403 95.1981C143.58 95.1999 142.765 95.0394 142.004 94.7258C141.244 94.4123 140.552 93.9517 139.97 93.3706C139.387 92.7895 138.925 92.0992 138.61 91.3392C138.295 90.5793 138.133 89.7646 138.133 88.9419C138.133 88.1197 138.296 87.3058 138.612 86.5466C138.928 85.7875 139.39 85.098 139.972 84.5176C140.555 83.9372 141.246 83.4773 142.006 83.1641C142.766 82.851 143.58 82.6907 144.403 82.6925C145.225 82.6907 146.04 82.8512 146.801 83.1648C147.562 83.4784 148.253 83.9389 148.835 84.52C149.418 85.1012 149.88 85.7915 150.195 86.5514C150.51 87.3113 150.673 88.126 150.673 88.9487C150.672 89.7709 150.509 90.5848 150.193 91.344C149.877 92.1031 149.415 92.7926 148.833 93.373C148.251 93.9534 147.56 94.4133 146.799 94.7265C146.039 95.0397 145.225 95.1999 144.403 95.1981ZM144.031 104.631C144.031 106.053 143.466 107.417 142.461 108.422C141.455 109.428 140.091 109.993 138.669 109.993C137.247 109.993 135.883 109.428 134.877 108.422C133.871 107.417 133.306 106.053 133.306 104.631C133.306 103.208 133.871 101.844 134.877 100.839C135.883 99.8331 137.247 99.2681 138.669 99.2681C140.091 99.2681 141.455 99.8331 142.461 100.839C143.466 101.844 144.031 103.208 144.031 104.631ZM135.548 116.483C135.548 119.027 133.485 121.069 130.948 121.069C130.04 121.066 129.153 120.794 128.4 120.288C127.646 119.781 127.06 119.062 126.714 118.223C126.369 117.383 126.281 116.459 126.46 115.569C126.639 114.679 127.078 113.862 127.722 113.222C128.365 112.581 129.184 112.145 130.075 111.97C130.966 111.795 131.889 111.888 132.727 112.237C133.566 112.586 134.282 113.175 134.785 113.931C135.288 114.687 135.556 115.575 135.554 116.483H135.548ZM126.266 124.891C126.266 125.938 125.851 126.942 125.111 127.682C124.37 128.422 123.367 128.838 122.32 128.838C121.273 128.838 120.27 128.422 119.53 127.682C118.79 126.942 118.374 125.938 118.374 124.891C118.374 123.845 118.79 122.841 119.53 122.101C120.27 121.361 121.273 120.945 122.32 120.945C123.367 120.945 124.37 121.361 125.111 122.101C125.851 122.841 126.266 123.845 126.266 124.891ZM173.525 73.9544C173.016 75.8125 171.807 77.4013 170.152 78.3876C168.497 79.3738 166.525 79.6808 164.648 79.2441C162.772 78.8075 161.137 77.6611 160.088 76.0455C159.038 74.43 158.655 72.4707 159.019 70.5787C159.466 68.6551 160.66 66.9881 162.337 65.9444C164.013 64.9007 166.036 64.5658 167.96 65.0134C169.883 65.4611 171.55 66.6545 172.594 68.3313C173.638 70.008 173.973 72.0307 173.525 73.9544ZM169.964 93.225C169.584 94.8533 168.572 96.2638 167.152 97.1463C165.732 98.0289 164.019 98.3111 162.391 97.9309C160.763 97.5508 159.352 96.5393 158.47 95.1192C157.587 93.699 157.305 91.9864 157.685 90.3581C158.065 88.7299 159.077 87.3193 160.497 86.4368C161.917 85.5542 163.63 85.272 165.258 85.6522C166.886 86.0324 168.297 87.0438 169.179 88.464C170.062 89.8841 170.344 91.5967 169.964 93.225ZM163.336 108.604C163.015 109.981 162.161 111.174 160.96 111.92C159.76 112.667 158.312 112.906 156.936 112.585C155.559 112.264 154.366 111.409 153.62 110.209C152.873 109.009 152.634 107.561 152.955 106.184C153.326 104.861 154.193 103.732 155.376 103.032C156.558 102.333 157.965 102.116 159.303 102.428C160.642 102.74 161.808 103.556 162.559 104.707C163.311 105.858 163.589 107.254 163.336 108.604ZM154.798 120.312C154.477 121.438 153.736 122.398 152.728 122.992C151.719 123.586 150.521 123.77 149.381 123.505C148.241 123.239 147.247 122.546 146.604 121.568C145.961 120.59 145.72 119.402 145.929 118.25C146.065 117.668 146.314 117.119 146.662 116.634C147.011 116.149 147.451 115.737 147.959 115.422C148.467 115.107 149.031 114.896 149.621 114.799C150.21 114.703 150.813 114.724 151.394 114.861C151.976 114.994 152.526 115.242 153.012 115.588C153.498 115.935 153.911 116.374 154.228 116.88C154.544 117.387 154.757 117.951 154.855 118.54C154.952 119.129 154.933 119.731 154.798 120.312ZM145.468 128.487C145.351 128.987 145.136 129.459 144.836 129.876C144.536 130.294 144.157 130.648 143.721 130.918C143.284 131.189 142.798 131.371 142.291 131.454C141.784 131.537 141.266 131.519 140.766 131.402C140.266 131.285 139.793 131.07 139.376 130.77C138.959 130.47 138.605 130.091 138.334 129.654C138.064 129.218 137.882 128.732 137.799 128.225C137.716 127.718 137.733 127.2 137.851 126.699C138.088 125.689 138.716 124.815 139.598 124.268C140.48 123.721 141.543 123.547 142.553 123.784C143.563 124.021 144.438 124.65 144.985 125.532C145.531 126.414 145.705 127.477 145.468 128.487ZM136.153 133.65C135.901 134.464 135.35 135.153 134.611 135.577C133.872 136.001 132.999 136.129 132.169 135.935C131.339 135.742 130.614 135.241 130.138 134.534C129.663 133.826 129.473 132.965 129.608 132.124C129.859 131.31 130.41 130.621 131.15 130.197C131.889 129.773 132.761 129.645 133.591 129.838C134.421 130.032 135.147 130.533 135.622 131.24C136.097 131.947 136.287 132.808 136.153 133.65ZM184.993 100.265C184.257 101.776 182.953 102.934 181.365 103.484C179.777 104.035 178.035 103.933 176.523 103.201C175.773 102.841 175.101 102.337 174.547 101.717C173.992 101.097 173.566 100.374 173.293 99.5884C173.019 98.803 172.904 97.9713 172.953 97.1411C173.002 96.3109 173.216 95.4987 173.58 94.7512C174.315 93.2418 175.619 92.0854 177.205 91.5352C178.791 90.9849 180.531 91.0858 182.043 91.8156C182.792 92.1764 183.462 92.6813 184.016 93.3013C184.569 93.9213 184.995 94.6443 185.269 95.429C185.543 96.2138 185.66 97.0448 185.612 97.8745C185.565 98.7043 185.354 99.5166 184.993 100.265ZM178.386 115.493C177.728 116.719 176.623 117.644 175.3 118.075C173.977 118.505 172.539 118.409 171.286 117.805C170.033 117.201 169.062 116.136 168.574 114.833C168.087 113.53 168.122 112.089 168.671 110.811C169.3 109.529 170.409 108.546 171.759 108.077C173.108 107.609 174.588 107.692 175.876 108.309C176.515 108.614 177.086 109.042 177.558 109.569C178.03 110.096 178.393 110.711 178.626 111.379C178.86 112.046 178.958 112.754 178.917 113.46C178.876 114.166 178.695 114.857 178.386 115.493ZM170.081 127.043C169.538 128.153 168.579 129.003 167.412 129.407C166.245 129.812 164.965 129.738 163.852 129.202C163.302 128.937 162.81 128.567 162.404 128.112C161.998 127.657 161.685 127.126 161.485 126.55C161.284 125.973 161.199 125.363 161.235 124.754C161.271 124.145 161.427 123.549 161.693 123.001C162.262 121.942 163.217 121.144 164.36 120.773C165.502 120.402 166.744 120.486 167.826 121.009C168.908 121.531 169.747 122.451 170.167 123.577C170.587 124.702 170.556 125.947 170.081 127.05V127.043ZM160.827 135.211C160.356 136.171 159.524 136.906 158.513 137.257C157.503 137.607 156.394 137.544 155.43 137.081C154.939 136.859 154.497 136.54 154.131 136.145C153.765 135.749 153.481 135.284 153.298 134.777C153.114 134.27 153.034 133.732 153.062 133.193C153.09 132.655 153.226 132.128 153.461 131.643C153.696 131.158 154.026 130.725 154.432 130.369C154.837 130.014 155.309 129.743 155.821 129.573C156.333 129.403 156.873 129.338 157.411 129.38C157.948 129.423 158.472 129.572 158.95 129.821C159.427 130.051 159.854 130.374 160.207 130.769C160.559 131.165 160.831 131.626 161.005 132.127C161.179 132.627 161.253 133.157 161.223 133.686C161.192 134.216 161.058 134.733 160.827 135.211ZM151.511 140.243C151.089 141.027 150.38 141.617 149.533 141.891C148.686 142.165 147.766 142.102 146.964 141.715C146.163 141.328 145.541 140.647 145.229 139.813C144.917 138.979 144.939 138.057 145.289 137.239C145.729 136.485 146.436 135.924 147.27 135.669C148.105 135.413 149.005 135.482 149.791 135.862C150.576 136.241 151.19 136.903 151.509 137.715C151.828 138.528 151.829 139.43 151.511 140.243ZM142.759 142.78C142.418 143.478 141.815 144.014 141.081 144.269C140.347 144.524 139.541 144.478 138.841 144.141C138.495 143.973 138.186 143.739 137.93 143.451C137.675 143.164 137.479 142.829 137.353 142.466C137.228 142.103 137.175 141.718 137.197 141.334C137.22 140.951 137.318 140.575 137.486 140.229C137.654 139.884 137.889 139.574 138.176 139.319C138.464 139.064 138.799 138.868 139.162 138.742C139.525 138.616 139.91 138.563 140.293 138.586C140.677 138.609 141.052 138.707 141.398 138.875C141.744 139.042 142.054 139.275 142.31 139.562C142.565 139.848 142.762 140.183 142.889 140.545C143.015 140.908 143.069 141.292 143.046 141.675C143.024 142.059 142.927 142.434 142.759 142.78ZM149.882 176.165C148.886 175.595 148.012 174.835 147.311 173.927C146.61 173.018 146.095 171.981 145.796 170.873C145.497 169.765 145.42 168.609 145.569 167.472C145.718 166.334 146.09 165.237 146.664 164.244C147.83 162.237 149.743 160.774 151.985 160.173C154.226 159.573 156.614 159.885 158.627 161.04C162.821 163.446 164.264 168.788 161.851 172.961C160.687 174.969 158.774 176.434 156.532 177.034C154.29 177.635 151.901 177.322 149.889 176.165H149.882ZM129.326 165.632C128.482 165.151 127.742 164.507 127.148 163.738C126.555 162.969 126.119 162.09 125.866 161.152C125.613 160.214 125.547 159.236 125.674 158.273C125.801 157.309 126.116 156.381 126.603 155.54C127.589 153.841 129.208 152.601 131.106 152.092C133.004 151.583 135.026 151.846 136.73 152.824C140.278 154.859 141.494 159.383 139.453 162.917C138.468 164.618 136.849 165.859 134.95 166.368C133.052 166.877 131.029 166.612 129.326 165.632ZM114.187 152.983C113.473 152.574 112.847 152.029 112.344 151.378C111.842 150.726 111.473 149.982 111.259 149.188C111.045 148.394 110.99 147.566 111.097 146.75C111.205 145.935 111.472 145.149 111.884 144.437C112.719 143 114.089 141.953 115.694 141.524C117.3 141.095 119.01 141.319 120.45 142.148C121.162 142.555 121.786 143.099 122.287 143.749C122.789 144.398 123.157 145.14 123.371 145.932C123.585 146.724 123.64 147.55 123.534 148.364C123.428 149.177 123.163 149.962 122.753 150.673C121.923 152.114 120.554 153.167 118.948 153.6C117.342 154.033 115.629 153.811 114.187 152.983ZM103.868 139.411C103.26 139.06 102.728 138.592 102.301 138.034C101.874 137.477 101.561 136.841 101.38 136.163C101.199 135.484 101.154 134.777 101.246 134.081C101.338 133.385 101.567 132.714 101.919 132.107C102.27 131.499 102.738 130.967 103.295 130.54C103.853 130.113 104.489 129.8 105.167 129.619C105.846 129.438 106.553 129.393 107.249 129.485C107.945 129.577 108.616 129.806 109.223 130.157C111.781 131.629 112.661 134.894 111.183 137.445C110.472 138.674 109.303 139.572 107.932 139.941C106.56 140.309 105.099 140.119 103.868 139.411ZM97.797 126.17C97.2738 125.871 96.815 125.471 96.4467 124.994C96.0784 124.517 95.8079 123.972 95.6508 123.39C95.4936 122.808 95.4529 122.201 95.531 121.603C95.6091 121.005 95.8044 120.429 96.1057 119.907C96.7181 118.851 97.724 118.081 98.9031 117.765C100.082 117.449 101.338 117.614 102.396 118.222C104.596 119.487 105.353 122.293 104.088 124.479C103.478 125.537 102.472 126.31 101.293 126.627C100.113 126.944 98.8555 126.78 97.797 126.17ZM95.1226 113.953C94.6735 113.695 94.2798 113.351 93.964 112.941C93.6482 112.53 93.4166 112.062 93.2824 111.561C93.1483 111.061 93.1143 110.54 93.1823 110.026C93.2503 109.513 93.4191 109.018 93.6789 108.57C94.2048 107.667 95.0667 107.008 96.0764 106.738C97.0861 106.467 98.1618 106.607 99.0688 107.126C99.5171 107.385 99.9099 107.73 100.225 108.141C100.54 108.552 100.771 109.021 100.905 109.521C101.038 110.021 101.072 110.543 101.004 111.056C100.937 111.57 100.768 112.065 100.509 112.513C100.25 112.961 99.9052 113.354 99.4942 113.669C99.0833 113.984 98.6144 114.215 98.1142 114.349C97.614 114.482 97.0924 114.516 96.5791 114.448C96.0658 114.381 95.5709 114.212 95.1226 113.953ZM120.904 182.194C119.927 182.196 118.96 182.006 118.057 181.633C117.154 181.261 116.334 180.714 115.642 180.025C114.951 179.335 114.402 178.516 114.027 177.615C113.652 176.713 113.459 175.746 113.458 174.769C113.459 173.793 113.653 172.827 114.027 171.925C114.402 171.024 114.951 170.205 115.643 169.516C116.334 168.827 117.155 168.281 118.058 167.91C118.96 167.538 119.928 167.349 120.904 167.351C125.015 167.351 128.349 170.672 128.349 174.776C128.349 178.874 125.015 182.194 120.904 182.194ZM100.843 167.496C100.238 166.933 99.7511 166.256 99.409 165.505C99.0669 164.753 98.8767 163.941 98.8492 163.116C98.8217 162.29 98.9576 161.468 99.2489 160.695C99.5403 159.922 99.9814 159.215 100.547 158.613C101.693 157.396 103.275 156.683 104.946 156.629C106.617 156.575 108.241 157.184 109.464 158.324C112.008 160.696 112.131 164.67 109.753 167.207C108.606 168.422 107.026 169.134 105.357 169.188C103.688 169.242 102.065 168.634 100.843 167.496ZM90.7707 154.103C90.2605 153.626 89.8495 153.053 89.5611 152.417C89.2728 151.781 89.1129 151.094 89.0905 150.396C89.0682 149.698 89.1838 149.002 89.4309 148.349C89.6779 147.696 90.0514 147.097 90.5301 146.589C91.498 145.559 92.8343 144.955 94.2465 144.909C95.6587 144.863 97.0317 145.378 98.0651 146.341C98.5774 146.817 98.9905 147.389 99.2804 148.025C99.5704 148.661 99.7315 149.348 99.7545 150.047C99.7776 150.745 99.662 151.442 99.4145 152.095C99.167 152.749 98.7925 153.347 98.3126 153.856C97.3435 154.885 96.0061 155.49 94.5927 155.536C93.1794 155.582 91.8052 155.067 90.7707 154.103ZM84.8651 140.876C84.4287 140.469 84.077 139.98 83.8303 139.437C83.5836 138.894 83.4468 138.308 83.4276 137.711C83.4084 137.115 83.5073 136.521 83.7186 135.963C83.93 135.406 84.2495 134.895 84.6589 134.461C85.4856 133.583 86.6266 133.067 87.8324 133.027C89.0382 132.987 90.2108 133.426 91.0938 134.248C91.5301 134.655 91.8818 135.145 92.1286 135.688C92.3755 136.231 92.5128 136.818 92.5326 137.415C92.5524 138.011 92.4543 138.606 92.244 139.164C92.0337 139.723 91.7153 140.234 91.307 140.669C90.479 141.549 89.3361 142.065 88.1287 142.104C86.9212 142.142 85.7476 141.701 84.8651 140.876ZM82.4176 128.748C82.0437 128.399 81.7425 127.979 81.5311 127.513C81.3197 127.047 81.2023 126.543 81.1857 126.032C81.1691 125.52 81.2536 125.01 81.4343 124.532C81.615 124.053 81.8884 123.614 82.2388 123.241C82.9486 122.483 83.93 122.038 84.9676 122.004C86.0053 121.969 87.0143 122.347 87.7732 123.056C89.3545 124.527 89.4232 126.995 87.952 128.569C87.2413 129.326 86.2594 129.77 85.2218 129.804C84.1841 129.837 83.1756 129.457 82.4176 128.748ZM82.5826 118.119C82.2602 117.82 82.0003 117.46 81.8177 117.06C81.6351 116.659 81.5336 116.227 81.5189 115.787C81.5042 115.348 81.5766 114.909 81.7321 114.498C81.8875 114.086 82.1228 113.71 82.4245 113.389C83.0355 112.741 83.8783 112.361 84.7686 112.333C85.6588 112.305 86.5241 112.63 87.1751 113.238C87.742 113.865 88.0523 114.682 88.0441 115.526C88.0359 116.371 87.7099 117.182 87.1309 117.798C86.5519 118.413 85.7625 118.788 84.9196 118.847C84.0768 118.907 83.2425 118.647 82.5826 118.119ZM87.2232 176.969C86.7557 176.283 86.4283 175.511 86.2595 174.698C86.0908 173.885 86.0842 173.047 86.24 172.232C86.3959 171.416 86.7111 170.639 87.1677 169.946C87.6242 169.252 88.2132 168.656 88.9007 168.19C90.2918 167.245 92.0007 166.891 93.6529 167.204C95.305 167.517 96.7656 168.472 97.7145 169.861C98.1827 170.546 98.5108 171.317 98.6799 172.13C98.849 172.942 98.8558 173.78 98.6999 174.596C98.544 175.411 98.2285 176.187 97.7715 176.88C97.3145 177.573 96.725 178.169 96.037 178.633C94.6462 179.577 92.9384 179.931 91.2868 179.62C89.6353 179.308 88.1743 178.355 87.2232 176.969ZM77.282 163.659C76.8825 163.076 76.6024 162.419 76.4578 161.727C76.3131 161.035 76.3067 160.321 76.4389 159.627C76.5712 158.932 76.8395 158.271 77.2284 157.68C77.6174 157.09 78.1192 156.582 78.7051 156.186C79.8881 155.385 81.34 155.084 82.7439 155.35C84.1478 155.615 85.3898 156.425 86.1989 157.603C86.5983 158.186 86.8784 158.843 87.0231 159.535C87.1678 160.227 87.1741 160.941 87.0419 161.635C86.9096 162.33 86.6413 162.991 86.2524 163.582C85.8635 164.172 85.3616 164.68 84.7757 165.076C83.5933 165.879 82.1409 166.18 80.7364 165.915C79.3319 165.65 78.0898 164.839 77.282 163.659ZM71.3832 150.714C71.0395 150.21 70.7986 149.643 70.6744 149.046C70.5502 148.449 70.5452 147.833 70.6595 147.234C70.7738 146.635 71.0053 146.064 71.3407 145.555C71.6761 145.045 72.1087 144.607 72.6139 144.265C73.6361 143.572 74.8909 143.312 76.1043 143.541C77.3177 143.771 78.3911 144.471 79.0901 145.489C79.4356 145.994 79.6778 146.562 79.8027 147.161C79.9275 147.759 79.9326 148.377 79.8175 148.978C79.7025 149.579 79.4696 150.151 79.1324 150.661C78.7951 151.171 78.3602 151.61 77.8526 151.951C76.8292 152.64 75.5748 152.897 74.363 152.665C73.1511 152.433 72.08 151.732 71.3832 150.714ZM68.9082 138.655C68.6097 138.217 68.4005 137.725 68.2925 137.206C68.1845 136.688 68.1799 136.153 68.2789 135.632C68.3778 135.112 68.5785 134.616 68.8693 134.173C69.1602 133.731 69.5355 133.349 69.9739 133.052C70.8616 132.45 71.9518 132.224 73.0057 132.424C74.0597 132.623 74.9916 133.232 75.5976 134.117C75.8976 134.555 76.1078 135.048 76.2163 135.567C76.3248 136.086 76.3293 136.622 76.2296 137.143C76.1298 137.664 75.9279 138.16 75.6353 138.602C75.3428 139.045 74.9654 139.425 74.5251 139.721C73.6378 140.321 72.5493 140.545 71.497 140.346C70.4447 140.146 69.5141 139.538 68.9082 138.655ZM69.1832 128.095C68.9278 127.721 68.7486 127.301 68.656 126.858C68.5634 126.415 68.5591 125.959 68.6434 125.514C68.7277 125.069 68.899 124.646 69.1473 124.268C69.3957 123.89 69.7163 123.564 70.0907 123.31C70.8489 122.795 71.7803 122.601 72.681 122.771C73.5816 122.941 74.3782 123.461 74.8964 124.218C75.3489 124.975 75.4947 125.877 75.3038 126.739C75.1129 127.601 74.5998 128.357 73.8696 128.852C73.1393 129.348 72.2472 129.546 71.3759 129.405C70.5047 129.264 69.7202 128.795 69.1832 128.095ZM71.342 119.274C71.1134 118.956 70.9509 118.595 70.864 118.213C70.7771 117.831 70.7676 117.435 70.836 117.05C70.9044 116.664 71.0493 116.296 71.2623 115.967C71.4753 115.638 71.7519 115.355 72.076 115.134C72.4 114.914 72.7649 114.761 73.1491 114.684C73.5333 114.607 73.929 114.607 74.313 114.686C74.6969 114.764 75.0613 114.918 75.3847 115.14C75.708 115.361 75.9838 115.645 76.1957 115.974C76.6098 116.618 76.7559 117.398 76.603 118.149C76.45 118.899 76.0101 119.559 75.377 119.99C74.744 120.42 73.9678 120.586 73.214 120.453C72.4603 120.319 71.7885 119.896 71.342 119.274ZM38.7545 108.673C40.7666 107.516 43.1554 107.203 45.3976 107.804C47.6398 108.404 49.5525 109.869 50.717 111.877C51.2906 112.87 51.6626 113.967 51.8116 115.104C51.9607 116.241 51.8839 117.396 51.5856 118.504C51.2874 119.611 50.7735 120.649 50.0735 121.557C49.3735 122.466 48.5011 123.227 47.5063 123.798C43.3126 126.204 37.9639 124.768 35.5507 120.601C34.9758 119.608 34.6025 118.511 34.4524 117.374C34.3022 116.236 34.3782 115.08 34.6758 113.972C34.9735 112.864 35.487 111.825 36.1869 110.916C36.8868 110.007 37.7593 109.244 38.7545 108.673ZM58.2107 96.2294C59.9134 95.2463 61.9365 94.9786 63.8362 95.4852C65.736 95.9917 67.3572 97.231 68.3445 98.9313C70.3863 102.472 69.1695 106.989 65.622 109.031C63.9182 110.007 61.8974 110.271 60.0003 109.763C58.1032 109.256 56.4837 108.019 55.4951 106.322C55.0079 105.481 54.6916 104.552 54.5644 103.589C54.4372 102.625 54.5016 101.646 54.754 100.708C55.0063 99.7693 55.4416 98.89 56.0348 98.1203C56.628 97.3505 57.3675 96.7056 58.2107 96.2225V96.2294ZM76.7801 89.5125C78.2209 88.6857 79.9303 88.4624 81.5352 88.8913C83.14 89.3202 84.5101 90.3665 85.3463 91.8019C85.7568 92.5137 86.023 93.2995 86.1297 94.1142C86.2364 94.929 86.1816 95.7568 85.9684 96.5503C85.7552 97.3439 85.3877 98.0877 84.887 98.7392C84.3862 99.3907 83.7621 99.9372 83.0501 100.347C81.6084 101.174 79.8984 101.396 78.2935 100.966C76.6885 100.536 75.319 99.4878 74.4838 98.0513C74.0727 97.3401 73.8059 96.5549 73.6987 95.7405C73.5916 94.926 73.6463 94.0985 73.8596 93.3052C74.0729 92.512 74.4407 91.7687 74.9419 91.1178C75.443 90.467 76.0677 89.9215 76.7801 89.5125ZM93.7407 87.4087C94.9711 86.7006 96.432 86.5092 97.8032 86.8765C99.1744 87.2438 100.344 88.1398 101.056 89.3681C101.407 89.975 101.634 90.6452 101.726 91.3402C101.817 92.0353 101.771 92.7415 101.589 93.4185C101.406 94.0955 101.093 94.7299 100.665 95.2854C100.237 95.8409 99.7043 96.3065 99.0963 96.6556C98.4865 97.0084 97.8132 97.2376 97.1148 97.33C96.4164 97.4225 95.7066 97.3764 95.026 97.1945C94.3454 97.0125 93.7073 96.6982 93.1482 96.2696C92.5891 95.8409 92.12 95.3063 91.7676 94.6963C91.4173 94.0885 91.1904 93.4176 91.1 92.722C91.0095 92.0264 91.0574 91.3198 91.2407 90.6427C91.424 89.9656 91.7392 89.3314 92.1682 88.7765C92.5973 88.2215 93.1316 87.7567 93.7407 87.4087ZM108.274 88.8113C109.331 88.203 110.587 88.0387 111.765 88.3545C112.942 88.6702 113.947 89.4402 114.558 90.4956C115.091 91.5477 115.199 92.7639 114.862 93.8937C114.524 95.0235 113.766 95.9808 112.744 96.5686C111.722 97.1563 110.513 97.3297 109.367 97.053C108.221 96.7763 107.225 96.0706 106.583 95.0812C106.281 94.559 106.085 93.982 106.006 93.3836C105.927 92.7853 105.968 92.1772 106.125 91.5945C106.282 91.0118 106.553 90.466 106.922 89.9883C107.291 89.5106 107.75 89.1106 108.274 88.8113ZM120.223 92.62C121.131 92.1002 122.208 91.9603 123.219 92.2307C124.23 92.5011 125.093 93.16 125.62 94.0638C125.881 94.5115 126.05 95.0064 126.119 95.52C126.187 96.0335 126.153 96.5556 126.019 97.056C125.885 97.5564 125.653 98.0253 125.337 98.4357C125.021 98.846 124.626 99.1897 124.176 99.4469C123.728 99.7064 123.233 99.8752 122.72 99.9434C122.206 100.012 121.684 99.9782 121.184 99.8447C120.683 99.7113 120.214 99.4806 119.803 99.1658C119.391 98.851 119.046 98.4583 118.786 98.01C118.527 97.5617 118.358 97.0667 118.29 96.5533C118.222 96.0398 118.255 95.5179 118.388 95.0174C118.522 94.5169 118.753 94.0476 119.067 93.6362C119.382 93.2249 119.775 92.8796 120.223 92.62ZM52.3463 77.275C54.2353 76.7052 56.2732 76.9078 58.013 77.8383C59.7529 78.7688 61.0528 80.3513 61.6276 82.2388C62.0786 84.092 61.8019 86.0476 60.8545 87.703C59.907 89.3584 58.3609 90.5875 56.5346 91.1372C54.7082 91.687 52.7405 91.5156 51.0367 90.6583C49.3329 89.801 48.0226 88.323 47.3757 86.5288C47.0913 85.5948 46.9944 84.6139 47.0905 83.6423C47.1867 82.6708 47.474 81.7279 47.936 80.8678C48.398 80.0078 49.0255 79.2476 49.7824 78.631C50.5393 78.0144 51.4107 77.5535 52.3463 77.275ZM70.8676 70.7231C72.4399 70.3157 74.1089 70.5323 75.5252 71.3274C76.9414 72.1226 77.9953 73.4348 78.4661 74.9893C78.9369 76.5438 78.7881 78.2201 78.051 79.6675C77.3139 81.1148 76.0455 82.221 74.5114 82.7544C73.7214 82.9936 72.892 83.0749 72.0706 82.9937C71.2492 82.9124 70.4518 82.6701 69.724 82.2807C68.2542 81.4942 67.157 80.1561 66.6739 78.5606C66.1907 76.9652 66.361 75.2431 67.1475 73.7733C67.934 72.3035 69.2722 71.2063 70.8676 70.7231ZM87.5464 68.75C88.8956 68.3425 90.3516 68.4876 91.5938 69.1536C92.8361 69.8195 93.7629 70.9517 94.1704 72.3009C94.5779 73.6502 94.4328 75.1061 93.7668 76.3484C93.1009 77.5906 91.9688 78.5175 90.6195 78.925C89.9514 79.1268 89.2501 79.195 88.5556 79.1258C87.8611 79.0565 87.1871 78.8512 86.572 78.5214C85.9569 78.1917 85.4128 77.744 84.9707 77.204C84.5286 76.664 84.1972 76.0422 83.9954 75.3741C83.7936 74.706 83.7254 74.0047 83.7947 73.3102C83.8639 72.6157 84.0693 71.9417 84.399 71.3266C84.7287 70.7115 85.1764 70.1674 85.7164 69.7253C86.2564 69.2832 86.8783 68.9518 87.5464 68.75ZM101.984 70.2831C103.137 69.9349 104.382 70.059 105.443 70.6282C106.505 71.1975 107.297 72.1652 107.645 73.3184C107.994 74.4717 107.87 75.7161 107.3 76.7779C106.731 77.8396 105.763 78.6317 104.61 78.98C103.455 79.3269 102.21 79.2019 101.146 78.6323C100.083 78.0628 99.2893 77.0951 98.9382 75.9412C98.766 75.3693 98.7083 74.769 98.7686 74.1748C98.8289 73.5805 99.0059 73.004 99.2895 72.4783C99.5731 71.9526 99.9577 71.4881 100.421 71.1114C100.885 70.7347 101.418 70.4532 101.991 70.2831H101.984ZM113.74 74.25C114.712 74.0111 115.738 74.1542 116.607 74.6497C117.476 75.1452 118.121 75.9554 118.411 76.913C118.7 77.8707 118.611 78.9028 118.161 79.7965C117.712 80.6903 116.936 81.3774 115.995 81.7162C115.505 81.8643 114.99 81.9144 114.481 81.8636C113.971 81.8127 113.476 81.6621 113.025 81.4201C112.574 81.1782 112.175 80.8497 111.85 80.4534C111.526 80.0571 111.283 79.6009 111.134 79.1106C110.986 78.6204 110.936 78.1058 110.987 77.5962C111.038 77.0866 111.189 76.592 111.431 76.1407C111.673 75.6893 112.001 75.29 112.397 74.9656C112.794 74.6412 113.25 74.3981 113.74 74.25ZM122.884 79.7156C123.305 79.5879 123.746 79.5442 124.184 79.5872C124.622 79.6302 125.046 79.7589 125.434 79.9661C125.822 80.1733 126.165 80.4548 126.444 80.7946C126.723 81.1344 126.933 81.5258 127.06 81.9466C127.188 82.3673 127.232 82.8091 127.189 83.2466C127.146 83.6842 127.017 84.1091 126.81 84.4969C126.603 84.8847 126.321 85.2279 125.981 85.507C125.642 85.786 125.25 85.9954 124.829 86.1231C123.98 86.3811 123.062 86.291 122.279 85.8727C121.496 85.4543 120.911 84.7419 120.653 83.8922C120.395 83.0425 120.485 82.1251 120.903 81.3419C121.322 80.5586 122.034 79.9736 122.884 79.7156ZM69.4651 54.23C70.2951 54.1662 71.1295 54.267 71.9205 54.5264C72.7115 54.7858 73.4435 55.1988 74.0746 55.7417C74.7056 56.2846 75.2233 56.9467 75.5979 57.6901C75.9725 58.4335 76.1967 59.2435 76.2576 60.0737C76.3798 61.7512 75.8305 63.4086 74.7308 64.6811C73.631 65.9537 72.0707 66.7372 70.3932 66.8594C68.7157 66.9815 67.0584 66.4323 65.7859 65.3325C64.5133 64.2328 63.7298 62.6725 63.6076 60.995C63.5477 60.1656 63.6519 59.3325 63.9144 58.5434C64.1768 57.7543 64.5922 57.0247 65.1369 56.3964C65.6816 55.768 66.3449 55.2533 67.0887 54.8815C67.8326 54.5098 68.6425 54.2884 69.472 54.23H69.4651ZM86.0132 52.3188C87.3945 52.2871 88.7351 52.7879 89.7574 53.7172C90.7798 54.6466 91.4056 55.9335 91.5054 57.3116C91.6053 58.6896 91.1714 60.0532 90.2937 61.1203C89.4159 62.1873 88.1615 62.876 86.7901 63.0438C86.0662 63.1323 85.3318 63.0729 84.6316 62.869C83.9313 62.6651 83.2798 62.3211 82.7166 61.8577C82.1533 61.3944 81.6901 60.8215 81.355 60.1737C81.02 59.5259 80.82 58.8168 80.7673 58.0894C80.7146 57.362 80.8103 56.6314 81.0485 55.9421C81.2868 55.2528 81.6626 54.6191 82.1531 54.0794C82.6437 53.5398 83.2389 53.1054 83.9024 52.8028C84.566 52.5001 85.2841 52.3354 86.0132 52.3188ZM100.203 53.7213C101.389 53.7064 102.536 54.1449 103.41 54.9471C104.283 55.7494 104.818 56.8549 104.904 58.0378C104.99 59.2207 104.621 60.3918 103.872 61.312C103.124 62.2321 102.053 62.8319 100.877 62.9887C99.6663 63.0457 98.4813 62.6274 97.5746 61.8231C96.6679 61.0188 96.1113 59.8922 96.0234 58.6834C95.9355 57.4745 96.3233 56.2792 97.1042 55.3523C97.885 54.4253 98.997 53.84 100.203 53.7213ZM111.911 57.6262C112.953 57.5918 113.969 57.9621 114.744 58.6595C115.519 59.3569 115.994 60.3273 116.07 61.3673C116.145 62.4072 115.815 63.4361 115.149 64.2382C114.483 65.0403 113.532 65.5534 112.496 65.67C111.956 65.7308 111.409 65.6818 110.888 65.5262C110.368 65.3705 109.884 65.1113 109.466 64.7641C109.048 64.4169 108.704 63.9889 108.456 63.5057C108.207 63.0225 108.059 62.4941 108.02 61.9521C107.98 61.4101 108.051 60.8658 108.227 60.3517C108.403 59.8377 108.681 59.3645 109.044 58.9605C109.408 58.5566 109.849 58.2302 110.342 58.0009C110.834 57.7716 111.368 57.6442 111.911 57.6262Z" fill="white"/>
</g>
<defs>
<clipPath id="clip0_108_257">
<rect width="220" height="220" fill="white"/>
</clipPath>
</defs>
</svg>
