<svg width="220" height="220" viewBox="0 0 220 220" fill="none" xmlns="http://www.w3.org/2000/svg">
<g clip-path="url(#clip0_108_258)">
<path d="M110 220C170.751 220 220 170.751 220 110C220 49.2487 170.751 0 110 0C49.2487 0 0 49.2487 0 110C0 170.751 49.2487 220 110 220Z" fill="#00316D"/>
<path d="M124.823 136.724C124.733 136.559 124.719 136.49 124.685 136.47C120.423 134.455 116.16 132.434 111.884 130.447C111.657 130.337 111.196 130.365 111.052 130.523C109.196 132.517 107.381 134.558 105.538 136.6C106.872 137.583 123.709 137.59 124.823 136.724ZM85.8138 87.4784L85.3875 86.5847C85.03 86.8391 84.5625 87.0247 84.3288 87.3684C80.3903 93.228 76.4761 99.1039 72.5863 104.996C72.3456 105.367 72.3594 105.91 72.2425 106.371C72.7238 106.275 73.26 106.295 73.6519 106.055C76.9916 104.046 80.3011 101.988 83.5794 99.8809C84.1556 99.4747 84.5523 98.8612 84.6863 98.1691C85.1263 94.7316 85.4288 91.2734 85.8138 87.4784ZM168.293 137.322H173.972C175.065 137.322 175.484 136.91 174.79 135.858C171.181 130.344 167.585 124.823 163.962 119.33C163.769 119.028 163.329 118.897 162.999 118.691C162.828 119.035 162.532 119.378 162.498 119.743C162.078 125.119 161.7 130.495 161.288 135.872C161.212 136.896 161.569 137.357 162.614 137.336C164.505 137.295 166.396 137.322 168.293 137.322ZM46.3719 136.91C47.2381 137.116 47.6644 137.308 48.0838 137.315C54.2231 137.329 60.3625 137.315 66.495 137.329C67.6844 137.329 67.9869 136.91 67.485 135.762C65.559 131.394 63.6752 127.007 61.8338 122.603C61.2975 121.317 60.8025 121.379 59.9569 122.287C56.6844 125.82 53.3844 129.32 50.0981 132.833C48.95 134.07 47.8294 135.308 46.3719 136.91ZM137.088 105.195C137.486 105.972 137.617 106.309 137.816 106.598L146.121 118.657C149.552 123.641 152.976 128.625 156.434 133.589C156.668 133.933 157.121 134.118 157.465 134.373C157.644 133.96 157.933 133.568 157.988 133.142C158.125 131.973 158.153 130.805 158.228 129.636C158.599 124.308 159.012 118.987 159.328 113.665C159.466 111.397 158.483 110.228 156.331 109.692C150.59 108.255 144.849 106.811 139.102 105.388C138.586 105.264 138.043 105.285 137.088 105.195ZM135.63 69.8922L135.108 69.9816C135.039 71.0334 134.936 72.0922 134.901 73.1578L134.138 99.0834C134.104 100.032 134.386 100.527 135.369 100.761C141.323 102.205 147.263 103.724 153.216 105.188C153.732 105.312 154.303 105.195 154.846 105.188C154.708 104.659 154.681 104.061 154.426 103.593C148.493 92.7997 142.546 82.0059 136.586 71.2259C136.324 70.7516 135.953 70.3322 135.63 69.8922ZM108.921 122.878C109.086 121.963 109.244 121.413 109.264 120.863C109.354 117.983 109.361 115.102 109.491 112.222C109.615 110.027 108.962 107.858 107.649 106.096C102.19 98.522 96.7474 90.9365 91.3206 83.3397C91.0731 82.9959 90.97 82.5491 90.7981 82.1503L90.1519 82.5353C89.9938 83.1128 89.7463 83.6834 89.6844 84.2678C89.2031 88.9428 88.7906 93.6178 88.275 98.2791C88.1965 98.7695 88.2347 99.2716 88.3864 99.7446C88.5381 100.218 88.799 100.648 89.1481 101.002C95.3013 107.856 101.413 114.752 107.553 121.627C107.883 121.998 108.281 122.3 108.921 122.878ZM112.888 121.441L113.3 121.716C113.678 121.42 114.125 121.187 114.428 120.822C119.655 114.476 124.864 108.114 130.054 101.737C130.373 101.333 130.56 100.841 130.591 100.328C130.838 91.8372 131.051 83.3466 131.244 74.8559C131.258 74.3884 130.989 73.9141 130.845 73.4466C130.467 73.8109 129.938 74.1066 129.724 74.5466C124.912 84.7353 120.313 95.0272 115.266 105.085C112.599 110.407 113.025 115.9 112.888 121.448V121.441ZM88.8044 137.329C92.1113 137.329 95.425 137.377 98.7319 137.288C99.4867 137.252 100.204 136.947 100.753 136.428C103.056 134.015 105.215 131.458 107.511 129.038C108.371 128.144 108.178 127.594 107.449 126.797C103.569 122.588 99.7239 118.349 95.9131 114.078C94.9919 113.047 94.4625 113.053 93.6375 114.181C88.4056 121.338 83.1188 128.447 77.8594 135.59C77.5981 135.947 77.5019 136.422 77.3231 136.841C77.7838 137.006 78.2444 137.302 78.7119 137.302C82.0806 137.343 85.4356 137.329 88.8044 137.329ZM92.2281 110.063C90.3994 107.938 88.605 105.938 86.9069 103.841C86.1919 102.968 85.6419 102.878 84.6794 103.477C78.9319 107.093 73.1225 110.613 67.3888 114.25C66.3506 114.91 65.5325 115.934 64.6525 116.835C63.8344 117.673 63.9444 118.595 64.3913 119.626C66.6256 124.734 68.805 129.863 71.0119 134.985C71.8507 136.91 72.1669 136.944 73.4525 135.225C76.8556 130.688 80.245 126.13 83.6344 121.585L92.2281 110.063ZM132.069 104.645C131.622 105.367 131.409 105.807 131.106 106.165C125.661 112.806 120.209 119.447 114.723 126.061C113.829 127.14 114.29 127.567 115.301 128.027C121.605 130.915 127.882 133.85 134.2 136.724C135.009 137.089 135.884 137.285 136.771 137.302C141.969 137.35 147.173 137.336 152.378 137.308C152.859 137.308 153.347 137.088 153.835 136.965C153.663 136.456 153.588 135.872 153.285 135.438C148.489 128.435 143.679 121.44 138.854 114.456C136.723 111.362 134.578 108.268 132.069 104.645ZM109.952 144.362C86.2881 144.362 62.6244 144.355 38.9606 144.376C37.1181 144.376 35.4544 144.17 34.6569 142.19C33.9006 140.313 34.7806 138.924 36.0113 137.611C43.0788 130.062 50.2425 122.596 57.1175 114.882C59.7438 111.94 61.7719 108.44 63.9925 105.133C71.1081 94.4909 78.1688 83.8072 85.3188 73.1922C86.02 72.1541 87.0925 71.1022 88.22 70.6897C89.7738 70.1122 91.1007 71.0059 92.0906 72.4222C97.845 80.6447 103.641 88.8397 109.423 97.0484C110.612 98.7259 111.038 98.6709 111.918 96.7597L129.752 57.9159C130.453 56.3897 131.381 55.0903 133.189 55.0078C135.08 54.9184 136.228 56.0666 137.115 57.6891C146.066 73.9278 154.811 90.3041 164.113 106.337C169.737 116.03 176.248 125.181 182.359 134.579C183.116 135.734 183.879 136.882 184.621 138.051C185.515 139.46 186.044 141.007 185.206 142.568C184.381 144.08 182.854 144.369 181.253 144.369C157.486 144.355 133.719 144.362 109.952 144.362Z" fill="white"/>
</g>
<defs>
<clipPath id="clip0_108_258">
<rect width="220" height="220" fill="white"/>
</clipPath>
</defs>
</svg>
