<svg width="220" height="220" viewBox="0 0 220 220" fill="none" xmlns="http://www.w3.org/2000/svg">
<g clip-path="url(#clip0_108_259)">
<path d="M110 220C170.751 220 220 170.751 220 110C220 49.2487 170.751 0 110 0C49.2487 0 0 49.2487 0 110C0 170.751 49.2487 220 110 220Z" fill="#1AAB9B"/>
<path d="M51.9613 145.448V90.1388L93.9056 121.709V145.448H104.617V119.488C104.616 118.52 104.39 117.565 103.957 116.698C103.524 115.832 102.896 115.079 102.121 114.497L51.2531 76.21C50.3257 75.5132 49.2226 75.0884 48.0674 74.9829C46.9122 74.8775 45.7505 75.0956 44.7123 75.613C43.674 76.1303 42.8002 76.9264 42.1888 77.9122C41.5773 78.8979 41.2522 80.0344 41.25 81.1944V145.448H51.9613ZM167.97 145.448V90.1388L126.026 121.709V145.448H115.314V119.488C115.314 117.522 116.236 115.673 117.803 114.497L168.678 76.21C169.606 75.5129 170.71 75.0879 171.866 74.9828C173.021 74.8776 174.184 75.0963 175.222 75.6145C176.261 76.1327 177.134 76.9298 177.745 77.9165C178.356 78.9033 178.68 80.0407 178.681 81.2013V145.455H167.97V145.448Z" fill="white"/>
</g>
<defs>
<clipPath id="clip0_108_259">
<rect width="220" height="220" fill="white"/>
</clipPath>
</defs>
</svg>
