<svg width="220" height="220" viewBox="0 0 220 220" fill="none" xmlns="http://www.w3.org/2000/svg">
<g clip-path="url(#clip0_108_260)">
<path d="M110 220C170.751 220 220 170.751 220 110C220 49.2487 170.751 0 110 0C49.2487 0 0 49.2487 0 110C0 170.751 49.2487 220 110 220Z" fill="#0B1529"/>
<path fill-rule="evenodd" clip-rule="evenodd" d="M59.3106 138.353L95.5556 159.61V171.497L48.125 143.584V70.7781L110 34.375L171.875 70.7781V143.584L124.444 171.497V159.603L160.682 138.353L151.332 132.949L152.556 130.824L161.789 136.159V82.1769L114.902 109.966V189.441L110 192.5L105.091 189.441V109.966L58.2106 82.1769V136.153L67.4369 130.824L68.6606 132.956L59.3106 138.353ZM108.639 46.8463L63.1125 73.5556L110 101.351L156.887 73.5556L111.093 46.6881V57.7156H108.639V46.8463ZM108.639 64.6663H111.093V76.0581H108.639V64.6663ZM108.639 83.0088H111.093V94.4006L109.862 94.9575L108.639 94.4075V83.0088ZM146.864 127.353L145.64 129.484L135.767 123.777L136.998 121.653L146.864 127.359V127.353ZM131.292 118.181L130.061 120.312L120.196 114.606L120.333 113.272L121.419 112.489L131.292 118.181ZM73.1294 127.353L82.995 121.653L84.2256 123.784L74.36 129.477L73.1294 127.353ZM88.7081 118.181L98.5738 112.489L99.6738 113.272L99.7975 114.613L89.9319 120.306L88.7081 118.181Z" fill="white"/>
</g>
<defs>
<clipPath id="clip0_108_260">
<rect width="220" height="220" fill="white"/>
</clipPath>
</defs>
</svg>
