<svg width="220" height="220" viewBox="0 0 220 220" fill="none" xmlns="http://www.w3.org/2000/svg">
<g clip-path="url(#clip0_108_261)">
<path d="M110 220C170.751 220 220 170.751 220 110C220 49.2487 170.751 0 110 0C49.2487 0 0 49.2487 0 110C0 170.751 49.2487 220 110 220Z" fill="#00ADEF"/>
<path fill-rule="evenodd" clip-rule="evenodd" d="M102.183 185.529C64.075 181.534 34.375 149.243 34.375 110C34.375 70.7575 64.075 38.4656 102.183 34.4712V57.64C89.6815 59.567 78.283 65.9067 70.0517 75.5114C61.8204 85.1161 57.3004 97.3507 57.31 110C57.3004 122.649 61.8204 134.884 70.0517 144.489C78.283 154.093 89.6815 160.433 102.183 162.36V185.529ZM117.136 34.375C153.092 37.6681 181.782 66.1169 185.529 102.004H162.408C160.688 90.6884 155.347 80.2348 147.185 72.2104C139.023 64.186 128.48 59.0231 117.136 57.4956V34.375ZM185.625 116.992C182.311 153.361 153.423 182.304 117.136 185.625V162.504C128.652 160.954 139.338 155.658 147.546 147.433C155.753 139.208 161.027 128.511 162.552 116.992H185.625Z" fill="white"/>
</g>
<defs>
<clipPath id="clip0_108_261">
<rect width="220" height="220" fill="white"/>
</clipPath>
</defs>
</svg>
