<svg width="220" height="220" viewBox="0 0 220 220" fill="none" xmlns="http://www.w3.org/2000/svg">
<g clip-path="url(#clip0_108_262)">
<path d="M110 220C170.751 220 220 170.751 220 110C220 49.2487 170.751 0 110 0C49.2487 0 0 49.2487 0 110C0 170.751 49.2487 220 110 220Z" fill="#7F368A"/>
<path d="M175.787 146.548C176.234 148.357 174.433 149.257 173.078 148.81H150.542C149.188 148.81 148.287 148.357 147.38 147.903C146.032 147.449 145.131 145.648 144.678 143.84V143.386L123.489 65.2447C123.042 65.2447 121.688 66.5991 121.234 66.5991C120.787 67.0459 119.88 67.4997 119.433 67.0459C118.532 66.5991 118.078 65.2447 118.532 64.3372C119.426 62.0822 121.688 60.7209 123.943 60.2741C126.645 59.8203 128.9 59.8203 131.601 59.8203H148.287C149.635 59.8203 150.989 59.8203 152.343 60.2741C153.698 61.1747 154.145 62.9828 154.598 64.3372C155.492 67.4997 155.946 70.6622 156.853 73.8247L167.668 114.483L171.724 130.743C173.078 135.713 174.886 141.138 175.78 146.555L175.787 146.548ZM123.489 146.548C123.943 148.357 122.135 149.257 120.787 148.81H98.2439C96.8895 148.81 95.9889 148.357 95.0814 147.903C93.7339 147.449 92.8333 145.648 92.3795 143.84V143.386L71.1977 65.2447C70.7439 65.2447 69.3895 66.5991 68.9427 66.5991C68.4889 67.0459 67.5883 67.4997 67.1345 67.0459C66.2408 66.5991 65.787 65.2447 66.2408 64.3372C67.1345 62.0822 69.3895 60.7209 71.6445 60.2741C74.3533 59.8203 76.6014 59.8203 79.3102 59.8203H95.9889C97.3433 59.8203 98.6977 59.8203 100.045 60.2741C101.4 61.1747 101.853 62.9828 102.3 64.3372C103.201 67.4997 103.655 70.6622 104.555 73.8247L115.376 114.483L119.433 130.743C120.787 135.713 122.588 141.138 123.489 146.555V146.548ZM82.012 129.382L76.6014 146.548C76.352 147.44 75.8235 148.228 75.0935 148.797C74.3636 149.366 73.4705 149.686 72.5452 149.711H48.6545C47.4583 149.707 46.3123 149.23 45.4671 148.384C44.6219 147.537 44.1463 146.39 44.1445 145.194V144.287L63.0783 72.9172C63.532 72.0097 64.4327 71.1091 65.3333 71.1091C66.6877 71.1091 67.5883 72.0097 67.5883 72.9172L82.012 129.382ZM135.211 128.027L132.055 137.515C131.601 138.415 131.155 138.869 130.254 138.869C129.353 138.869 128.9 138.415 128.446 137.515L112.668 82.3978L115.83 71.1091C115.83 70.2016 116.724 69.7547 117.631 69.7547C118.525 69.7547 119.433 70.2016 119.433 71.1091L135.211 128.027Z" fill="white"/>
</g>
<defs>
<clipPath id="clip0_108_262">
<rect width="220" height="220" fill="white"/>
</clipPath>
</defs>
</svg>
