<svg width="220" height="220" viewBox="0 0 220 220" fill="none" xmlns="http://www.w3.org/2000/svg">
<g clip-path="url(#clip0_108_265)">
<path d="M110 220C170.751 220 220 170.751 220 110C220 49.2487 170.751 0 110 0C49.2487 0 0 49.2487 0 110C0 170.751 49.2487 220 110 220Z" fill="#DEC799"/>
<path d="M161.769 92.2212L151.972 48.125L132.743 78.4712C117.793 74.8617 102.2 74.8617 87.2506 78.4712L68.0763 48.125L58.245 92.2212C47.6919 100.664 41.25 111.698 41.25 123.812C41.25 150.349 72.0225 171.861 109.979 171.861C147.936 171.861 178.709 150.343 178.709 123.812C178.702 111.698 172.315 100.664 161.762 92.2212H161.769ZM71.7887 112.406H67.21L78.3956 99.5088H86.5356L71.7887 112.406ZM109.629 143.921L90.6125 110.426L95.3081 107.745L99.55 115.204H120.319L124.747 107.711L129.394 110.474L109.629 143.921ZM148.218 112.406L133.464 99.5088H141.659L152.831 112.406H148.218ZM109.718 133.134L102.616 120.622H117.109L109.718 133.134Z" fill="white"/>
</g>
<defs>
<clipPath id="clip0_108_265">
<rect width="220" height="220" fill="white"/>
</clipPath>
</defs>
</svg>
