<svg width="220" height="220" viewBox="0 0 220 220" fill="none" xmlns="http://www.w3.org/2000/svg">
<g clip-path="url(#clip0_108_266)">
<path d="M110 220C170.751 220 220 170.751 220 110C220 49.2487 170.751 0 110 0C49.2487 0 0 49.2487 0 110C0 170.751 49.2487 220 110 220Z" fill="#47B95C"/>
<path d="M110 41.25C72.05 41.25 41.25 72.05 41.25 110C41.25 110.914 41.3394 111.787 41.3875 112.702H73.6519L89.2375 85.8894L110 115.637L130.714 85.8894L146.3 112.702H178.564C178.613 111.787 178.702 110.914 178.702 110C178.75 72.05 147.95 41.25 110 41.25ZM157.389 104.411C154.598 80.7125 134.427 62.2875 110 62.2875C85.5731 62.2875 65.4019 80.7606 62.6106 104.411H54.2644C57.0625 76.1269 80.9875 53.9894 110 53.9894C139.013 53.9894 162.889 76.1269 165.736 104.411H157.389Z" fill="white"/>
<path d="M130.123 101.289L110 130.164L89.8768 101.289L78.423 121H42.2124C47.4855 153.725 75.7624 178.75 110 178.75C144.237 178.75 172.514 153.725 177.787 120.952H141.577L130.123 101.289ZM153.636 129.25H162.525C154.639 150.652 134.111 166.01 110 166.01C85.8893 166.01 65.3605 150.652 57.4749 129.25H66.3643C73.7893 145.977 90.523 157.712 110 157.712C129.477 157.712 146.211 145.977 153.636 129.25Z" fill="white"/>
</g>
<defs>
<clipPath id="clip0_108_266">
<rect width="220" height="220" fill="white"/>
</clipPath>
</defs>
</svg>
