<svg width="220" height="220" viewBox="0 0 220 220" fill="none" xmlns="http://www.w3.org/2000/svg">
<g clip-path="url(#clip0_108_267)">
<path d="M110 220C170.751 220 220 170.751 220 110C220 49.2487 170.751 0 110 0C49.2487 0 0 49.2487 0 110C0 170.751 49.2487 220 110 220Z" fill="#104FCA"/>
<path d="M48.125 65.7793L77.2337 114.612V164.999C61.16 164.999 48.125 152.377 48.125 136.805V65.7793Z" fill="white" fill-opacity="0.5"/>
<path d="M142.759 114.558L171.854 65.752H171.868V136.812C171.875 152.377 158.84 164.999 142.759 164.999V114.558Z" fill="white" fill-opacity="0.6"/>
<path d="M109.979 113.148L95.425 137.568C92.4069 136.811 89.1619 133.883 85.69 128.788L48.125 65.7789C62.0469 57.9896 79.8531 62.6164 87.89 76.0914L109.979 113.148Z" fill="white" fill-opacity="0.8"/>
<path d="M132.11 76.0361C140.147 62.5473 157.953 57.9273 171.875 65.7167L134.31 128.726C131.597 132.659 127.964 135.87 123.727 138.08C119.49 140.289 114.778 141.43 110 141.404C105.475 141.412 101.008 140.39 96.9373 138.413L95.4248 137.567L132.11 76.0361Z" fill="white"/>
</g>
<defs>
<clipPath id="clip0_108_267">
<rect width="220" height="220" fill="white"/>
</clipPath>
</defs>
</svg>
