<svg width="220" height="220" viewBox="0 0 220 220" fill="none" xmlns="http://www.w3.org/2000/svg">
<g clip-path="url(#clip0_108_269)">
<path d="M110 220C170.751 220 220 170.751 220 110C220 49.2487 170.751 0 110 0C49.2487 0 0 49.2487 0 110C0 170.751 49.2487 220 110 220Z" fill="white"/>
<path d="M128.219 1.55375C122.199 0.531117 116.106 0.0114055 110 0C49.225 0 0 49.225 0 110C0 133.334 7.33562 154.894 19.6625 172.776C27.225 161.666 44.6669 154 64.8862 154C78.7738 154 91.3344 157.664 100.334 163.556L128.219 1.55375ZM186.67 31.2194C205.666 73.2256 189.001 95.6656 189.001 95.6656C176.11 56.8906 138.779 51.2256 138.779 51.2256C138.779 51.2256 114.221 183.556 114.221 185.219C114.221 199.554 99 211.667 78.3337 215.332C88.6053 218.423 99.2735 219.995 110 220C170.775 220 220 170.775 220 110C220 79.1106 207.219 51.2188 186.67 31.2194Z" fill="#FBBF02"/>
</g>
<defs>
<clipPath id="clip0_108_269">
<rect width="220" height="220" fill="white"/>
</clipPath>
</defs>
</svg>
