<svg width="220" height="220" viewBox="0 0 220 220" fill="none" xmlns="http://www.w3.org/2000/svg">
<g clip-path="url(#clip0_108_270)">
<path d="M110 220C170.751 220 220 170.751 220 110C220 49.2487 170.751 0 110 0C49.2487 0 0 49.2487 0 110C0 170.751 49.2487 220 110 220Z" fill="#FFAA05"/>
<path fill-rule="evenodd" clip-rule="evenodd" d="M115.576 79.5231V92.3313H130.797L123.922 100.224H113.699V110.144H124.334L119.123 118.037H113.699V138.277L104.947 150.212V118.037H92.8469L99.5225 110.144H104.947V100.224H87.8487L94.7237 92.3313H104.947V79.0625C99.9075 73.6106 92.9569 70.8813 84.095 70.8813C67.1 70.8813 53.6525 88.9969 53.6525 107.009C53.6525 119.013 56.4025 129.202 61.8887 137.569L52.4013 148.596C44.9694 137.583 41.25 125.001 41.25 110.853C41.25 79.7844 67.9937 61.875 86.9069 61.875C98.4844 61.875 107.353 66.7287 113.513 76.4294C125.297 68.3444 137.349 64.3019 149.669 64.3019C168.534 64.3019 178.75 87.3331 178.75 109.333C178.75 138.607 159.046 149.909 151.855 151.229C151.591 151.278 151.318 151.251 151.069 151.151C150.819 151.051 150.603 150.883 150.446 150.666C150.34 150.519 150.265 150.353 150.225 150.177C150.186 150.001 150.182 149.819 150.215 149.642C150.248 149.464 150.316 149.296 150.416 149.145C150.516 148.995 150.645 148.867 150.796 148.768C161.927 141.288 167.489 129.828 167.489 114.393C167.489 80.6988 150.184 72.9025 137.466 72.9025C129.673 72.8809 122.05 75.1862 115.576 79.5231Z" fill="white"/>
</g>
<defs>
<clipPath id="clip0_108_270">
<rect width="220" height="220" fill="white"/>
</clipPath>
</defs>
</svg>
