<svg width="220" height="220" viewBox="0 0 220 220" fill="none" xmlns="http://www.w3.org/2000/svg">
<g clip-path="url(#clip0_108_271)">
<path d="M110 220C170.751 220 220 170.751 220 110C220 49.2487 170.751 0 110 0C49.2487 0 0 49.2487 0 110C0 170.751 49.2487 220 110 220Z" fill="#4A90E2"/>
<path d="M171.531 75.625C165.633 75.625 160.648 80.3894 160.648 86.5081C160.648 95.1294 159.287 97.3913 149.758 97.3913H148.851C146.183 97.616 143.699 98.8376 141.892 100.813C140.085 102.788 139.089 105.371 139.102 108.048V108.281C139.102 116.669 137.521 118.711 128.219 118.711C127.765 118.711 127.311 118.711 127.084 118.937C121.639 119.618 117.336 124.149 117.336 129.594C117.336 135.493 122.093 140.477 128.219 140.477C133.891 140.477 138.648 135.939 138.875 130.501V129.594C138.875 121.887 141.371 118.938 149.531 118.711H149.758C155.43 118.711 160.194 114.173 160.414 108.508V107.821C160.414 99.8869 162.91 96.9375 171.304 96.9375C177.196 96.9375 182.188 92.18 182.188 86.0544C182.188 80.3894 177.423 75.625 171.531 75.625ZM107.58 97.3913C110.225 97.6296 112.693 98.8183 114.529 100.737C116.364 102.656 117.442 105.175 117.562 107.828C117.562 113.946 112.798 118.711 106.673 118.711C100.554 118.711 95.7894 113.719 95.7894 107.828C95.7894 100.114 93.2938 97.1712 84.9063 97.1712C76.5188 97.1712 74.0231 100.114 74.0231 108.054V108.735C73.7963 114.173 69.0319 118.704 63.3669 118.704C57.2481 118.704 52.4769 113.719 52.4769 107.828C52.4769 102.156 56.7875 97.6181 62.2325 97.1712H63.14C72.6619 97.1712 74.0231 95.1294 74.0231 86.515C74.1234 83.6956 75.3139 81.0251 77.3439 79.0659C79.3739 77.1068 82.085 76.0119 84.9063 76.0119C87.7275 76.0119 90.4386 77.1068 92.4686 79.0659C94.4986 81.0251 95.6891 83.6956 95.7894 86.515C95.7894 95.1294 97.1506 97.3913 106.673 97.3913H107.58ZM41.8206 140.477C38.9342 140.477 36.1661 139.33 34.1251 137.289C32.0841 135.248 30.9375 132.48 30.9375 129.594C30.9375 126.707 32.0841 123.939 34.1251 121.898C36.1661 119.857 38.9342 118.711 41.8206 118.711C44.707 118.711 47.4752 119.857 49.5162 121.898C51.5571 123.939 52.7037 126.707 52.7037 129.594C52.7037 132.48 51.5571 135.248 49.5162 137.289C47.4752 139.33 44.707 140.477 41.8206 140.477Z" fill="white"/>
</g>
<defs>
<clipPath id="clip0_108_271">
<rect width="220" height="220" fill="white"/>
</clipPath>
</defs>
</svg>
