<svg width="220" height="220" viewBox="0 0 220 220" fill="none" xmlns="http://www.w3.org/2000/svg">
<g clip-path="url(#clip0_108_272)">
<path d="M110 220C170.751 220 220 170.751 220 110C220 49.2487 170.751 0 110 0C49.2487 0 0 49.2487 0 110C0 170.751 49.2487 220 110 220Z" fill="#222222"/>
<path fill-rule="evenodd" clip-rule="evenodd" d="M87.5187 128.253L109.147 172.129L120.258 139.315L87.5256 128.253H87.5187ZM47.9669 109.216L80.7194 120.333L91.8431 87.5394L47.9669 109.216ZM89.43 123.131C89.9456 123.406 90.1588 123.571 90.3994 123.654C100.959 127.243 111.506 130.859 122.093 134.358C122.953 134.633 124.176 134.399 125.022 133.987C137.129 128.081 149.201 122.107 161.274 116.146C164.711 114.448 168.135 112.729 171.882 110.859C171.057 110.543 170.631 110.364 170.184 110.213C159.961 106.741 149.738 103.249 139.48 99.8731C138.397 99.5538 137.235 99.6269 136.201 100.079C123.331 106.336 110.509 112.695 97.68 119.027C95.0056 120.347 92.345 121.681 89.43 123.131ZM134.111 95.1844C126.342 79.4131 118.669 63.8756 110.804 47.9187L86.8794 118.504L134.111 95.1844ZM34.375 110.014C41.8962 106.294 48.9912 102.761 56.1 99.2544C68.1862 93.2938 80.2725 87.3262 92.3794 81.4069C92.9791 81.144 93.5139 80.753 93.9462 80.2612C94.3786 79.7695 94.6979 79.189 94.8819 78.5606C99.6119 64.4463 104.411 50.3594 109.196 36.2656C109.374 35.7431 109.588 35.2344 109.917 34.375C110.399 35.31 110.756 35.97 111.086 36.6369C120.333 55.4056 129.566 74.1744 138.889 92.9019C139.342 93.8094 140.539 94.5656 141.563 94.9162C155.561 99.7425 169.586 104.486 183.604 109.251C184.133 109.429 184.656 109.622 185.625 109.966C184.333 110.619 183.377 111.121 182.414 111.595C164.347 120.512 146.286 129.449 128.191 138.304C127.375 138.662 126.648 139.196 126.062 139.867C125.476 140.539 125.046 141.332 124.802 142.189C120.134 156.172 115.349 170.115 110.598 184.071C110.467 184.456 110.309 184.827 110 185.625C108.783 183.184 107.731 181.101 106.7 179.011C98.285 161.948 89.8631 144.884 81.4963 127.792C81.2116 127.128 80.7845 126.535 80.2451 126.053C79.7058 125.572 79.0674 125.215 78.375 125.008C64.3362 120.312 50.325 115.521 36.3069 110.756C35.7913 110.578 35.2894 110.364 34.375 110.014Z" fill="white"/>
</g>
<defs>
<clipPath id="clip0_108_272">
<rect width="220" height="220" fill="white"/>
</clipPath>
</defs>
</svg>
