<svg width="220" height="220" viewBox="0 0 220 220" fill="none" xmlns="http://www.w3.org/2000/svg">
<g clip-path="url(#clip0_108_274)">
<path d="M110 220C170.751 220 220 170.751 220 110C220 49.2487 170.751 0 110 0C49.2487 0 0 49.2487 0 110C0 170.751 49.2487 220 110 220Z" fill="#36A9CF"/>
<path fill-rule="evenodd" clip-rule="evenodd" d="M180.881 127.016C182.091 127.545 182.538 129.188 181.885 130.687C181.69 131.184 181.368 131.621 180.952 131.955C180.536 132.289 180.04 132.509 179.513 132.592L164.216 160.8C164.351 161.429 164.32 162.084 164.124 162.697C163.929 163.311 163.577 163.863 163.102 164.299C162.724 164.694 162.264 165.001 161.755 165.2C161.245 165.398 160.699 165.483 160.153 165.447L130.322 183.308C130.09 183.896 129.708 184.413 129.213 184.807C128.718 185.2 128.129 185.456 127.504 185.55C126.032 185.832 124.63 185.295 123.956 184.298L88.9074 181.844C88.4715 182.176 87.9669 182.407 87.4303 182.519C86.8938 182.631 86.339 182.621 85.8067 182.49C84.0742 182.112 82.878 180.73 82.9467 179.307L55.8661 159.768C55.3004 159.87 54.7187 159.835 54.1689 159.668C53.6191 159.501 53.1169 159.205 52.7036 158.806C51.5211 157.733 51.0949 156.173 51.5486 154.99L40.4111 129.161C39.1942 128.92 38.1424 127.724 37.8674 126.143C37.6405 124.72 38.108 123.379 38.9811 122.664L40.6242 83.5659C40.2544 83.0617 40.0166 82.473 39.9325 81.8534C39.8485 81.2337 39.9208 80.6029 40.143 80.0184C40.693 78.4165 42.0199 77.4059 43.3261 77.4747L72.5586 46.8465C72.3042 45.4028 73.4042 43.8697 75.1299 43.3265C75.6653 43.1439 76.2357 43.088 76.7964 43.1632C77.3571 43.2383 77.8927 43.4425 78.3611 43.7597L120.422 36.1147C120.965 34.8772 122.505 34.1484 124.169 34.444C125.682 34.7053 126.816 35.7434 127.084 36.9397L146.513 48.0222C147.052 47.8501 147.621 47.7966 148.183 47.8654C148.744 47.9342 149.284 48.1237 149.765 48.4209C150.295 48.7294 150.748 49.1548 151.088 49.6647C151.429 50.1746 151.649 50.7556 151.731 51.3634L160.091 56.9872C160.63 56.8409 161.196 56.8207 161.744 56.9279C162.293 57.0352 162.809 57.2672 163.254 57.6059C164.821 58.7334 165.385 60.6997 164.491 62.0059L164.436 62.0747L176.694 85.9997C177.863 85.8415 179.059 86.749 179.485 88.1859C179.953 89.7603 179.307 91.3622 178.055 91.7609C176.797 92.1734 175.402 91.2247 174.941 89.6572L174.859 89.3134L149.634 75.804C149.233 76.3689 148.686 76.8153 148.053 77.0965V144.43C148.877 144.794 149.549 145.432 149.955 146.235C150.361 147.039 150.476 147.958 150.28 148.837L160.524 159.273C161.049 159.051 161.622 158.971 162.188 159.04L177.657 131.705C177.39 131.265 177.237 130.765 177.212 130.252C177.187 129.738 177.29 129.226 177.512 128.762C178.165 127.263 179.678 126.487 180.881 127.016ZM180.909 130.282C181.17 129.677 180.984 129.023 180.503 128.81C180.022 128.604 179.417 128.913 179.155 129.512C178.894 130.11 179.073 130.763 179.561 130.983C180.042 131.189 180.64 130.88 180.909 130.282ZM162.587 163.227C163.137 162.677 163.233 161.865 162.8 161.412C162.367 160.958 161.569 161.033 161.012 161.577C160.462 162.127 160.366 162.945 160.799 163.398C161.232 163.852 162.037 163.777 162.587 163.227ZM158.262 161.508L158.338 161.343L148.514 151.347C147.926 151.714 147.247 151.909 146.554 151.91C145.832 151.909 145.126 151.701 144.518 151.311C143.91 150.921 143.426 150.366 143.124 149.71H129.937C129.596 150.427 129.045 151.021 128.356 151.415L129.642 170.026C130.15 170.246 130.604 170.562 130.948 170.954L158.262 161.508ZM129.607 180.662L153.443 166.389L131.718 173.897C131.574 174.44 131.304 174.941 130.93 175.36C130.557 175.78 130.089 176.105 129.566 176.31L128.906 180.187C129.161 180.312 129.397 180.471 129.607 180.662ZM127.373 184.36C128.129 184.223 128.645 183.604 128.535 182.972C128.425 182.353 127.71 181.954 126.954 182.105C126.204 182.243 125.682 182.862 125.792 183.487C125.909 184.113 126.617 184.505 127.373 184.36ZM123.908 181.624C124.364 180.872 125.077 180.31 125.915 180.043L126.541 176.365C125.984 176.157 125.482 175.823 125.077 175.388L97.728 179.802L123.908 181.624ZM98.3261 151.814L89.4299 178.056L123.915 172.487L99.5155 151.312C99.1505 151.546 98.7482 151.716 98.3261 151.814ZM86.8792 176.255L95.363 151.237C94.8041 150.849 94.358 150.32 94.0705 149.703H78.5605C78.4651 149.894 78.3572 150.077 78.2374 150.253L86.8792 176.255ZM85.8274 181.308C86.5836 181.473 87.2986 181.102 87.4224 180.483C87.5598 179.864 87.058 179.225 86.3017 179.053C85.5455 178.895 84.8305 179.259 84.6999 179.878C84.5692 180.51 85.0711 181.143 85.8274 181.308ZM57.7292 157.85L83.8886 176.729L75.6249 151.869C75.0289 151.947 74.4231 151.881 73.8576 151.678C73.2921 151.475 72.7831 151.14 72.373 150.7L57.7774 157.06C57.7983 157.324 57.7844 157.59 57.7361 157.85H57.7292ZM55.2817 153.739C55.6536 153.903 56.0007 154.118 56.313 154.378L71.3211 147.847C71.3508 147.104 71.5891 146.385 72.0086 145.771L48.7986 121.784L55.2817 153.739ZM55.1236 157.926C55.5361 157.458 55.3986 156.647 54.828 156.125C54.2505 155.609 53.453 155.568 53.0405 156.042C52.628 156.523 52.7517 157.335 53.3292 157.85C53.9067 158.366 54.7111 158.4 55.1167 157.926H55.1236ZM42.8174 128.137L50.8061 146.651L45.4505 120.265L43.3399 124.761C43.5112 125.327 43.5532 125.924 43.4628 126.508C43.3723 127.092 43.1518 127.649 42.8174 128.137ZM42.6249 98.299L41.6624 121.344L43.5736 117.288C43.258 116.689 43.1064 116.018 43.1342 115.342C43.162 114.665 43.3681 114.009 43.7317 113.438L42.6249 98.299ZM41.2499 80.0734C40.9886 80.8159 41.2705 81.5859 41.8549 81.799C42.4461 82.0053 43.1199 81.579 43.3742 80.8365C43.6286 80.0941 43.3605 79.324 42.7692 79.1109C42.178 78.9047 41.5042 79.3309 41.243 80.0734H41.2499ZM47.0524 115.5C47.0524 114.717 46.4817 114.084 45.7942 114.084C45.0999 114.084 44.5292 114.717 44.5292 115.5C44.5292 116.291 45.0999 116.923 45.7942 116.923C46.4817 116.923 47.0524 116.291 47.0524 115.5ZM45.4711 81.909C45.2774 82.493 44.9556 83.0262 44.5292 83.4697L46.523 110.901L58.7605 72.2015L45.6636 81.0909C45.6251 81.369 45.5607 81.6429 45.4711 81.909ZM66.2749 57.2622L49.5411 74.7934L58.1142 68.9772C58.2294 68.1942 58.5684 67.4613 59.0905 66.8665C59.628 66.2278 60.3554 65.7774 61.1667 65.5809L66.2749 57.2622ZM74.8961 48.964L63.9855 66.7153C64.2491 67.2057 64.3637 67.7625 64.3155 68.3172L72.3936 70.799C72.8155 70.3468 73.3426 70.0057 73.9281 69.8063C74.5136 69.6068 75.1393 69.5552 75.7496 69.6559C76.3599 69.7565 76.9358 70.0065 77.4262 70.3834C77.9166 70.7604 78.3062 71.2527 78.5605 71.8165H92.0836C92.3344 71.2776 92.7073 70.8044 93.1727 70.4344C93.638 70.0645 94.1832 69.808 94.7649 69.6853L102.114 54.0515C101.718 53.5301 101.458 52.9181 101.358 52.2709L78.8905 47.2934C78.3813 48.0336 77.634 48.577 76.773 48.8334C76.1671 49.0273 75.5238 49.0744 74.8961 48.9709V48.964ZM75.2948 44.4747C74.5592 44.7015 74.1124 45.3822 74.2911 45.9872C74.4767 46.599 75.2192 46.9015 75.948 46.6747C76.6836 46.4478 77.1374 45.7672 76.9517 45.1622C76.773 44.5503 76.0373 44.2409 75.2948 44.4747ZM118.25 39.2222L84.3424 45.3959L102.08 49.3215C102.558 48.6678 103.235 48.1857 104.009 47.9467C104.783 47.7077 105.613 47.7245 106.377 47.9947L118.25 39.2222ZM122.409 39.889L109.766 49.239L144.45 50.2015L144.526 49.9403L126.142 39.4628C125.724 39.7695 125.246 39.9859 124.74 40.0983C124.233 40.2107 123.709 40.2167 123.2 40.1159C122.929 40.0673 122.664 39.9913 122.409 39.889ZM124.045 35.6334C123.289 35.4959 122.581 35.8947 122.478 36.5272C122.375 37.1459 122.89 37.7647 123.654 37.9022C124.41 38.0397 125.111 37.6409 125.221 37.0084C125.331 36.3897 124.802 35.7709 124.045 35.6334ZM146.272 54.3678C145.803 54.0779 145.394 53.6996 145.069 53.254L108.886 52.2503C108.858 52.4653 108.81 52.6771 108.742 52.8828L123.344 69.7197C124.188 69.5364 125.069 69.6446 125.843 70.0267C126.617 70.4088 127.239 71.0422 127.607 71.8234H143.124C143.502 71.0167 144.149 70.3658 144.952 69.9809L146.272 54.3678ZM146.547 71.954C145.715 71.954 145.035 72.6553 145.035 73.5147C145.035 74.374 145.715 75.0684 146.547 75.0684C147.393 75.0684 148.08 74.374 148.08 73.5147C148.08 72.6553 147.393 71.954 146.554 71.954H146.547ZM147.228 49.954C146.85 50.614 147.132 51.5078 147.86 51.934C148.582 52.374 149.483 52.1884 149.854 51.5215C150.239 50.8615 149.957 49.9747 149.229 49.5415C148.5 49.1084 147.606 49.294 147.228 49.954ZM174.144 86.5153L149.208 54.9797L147.95 69.8915C148.617 70.1646 149.196 70.6178 149.621 71.2005C150.046 71.7832 150.3 72.4725 150.356 73.1915L174.144 86.5153ZM158.379 59.0359L152.783 55.2822L170.844 78.7947L162.057 63.0715C161.323 63.0145 160.618 62.7552 160.022 62.3222C158.854 61.4903 158.235 60.1909 158.372 59.0359H158.379ZM160.992 58.644C160.634 59.1665 160.854 59.9503 161.487 60.404C162.112 60.8509 162.917 60.7959 163.274 60.2665C163.632 59.7509 163.412 58.9603 162.786 58.5134C162.147 58.0665 161.349 58.1215 160.999 58.6509L160.992 58.644ZM122.698 73.5147C122.698 74.3534 123.351 75.034 124.183 75.034C124.582 75.0286 124.962 74.8659 125.242 74.5814C125.521 74.2968 125.677 73.9135 125.675 73.5147C125.679 73.1147 125.524 72.7296 125.244 72.4435C124.964 72.1575 124.583 71.9939 124.183 71.9884C123.783 71.9939 123.402 72.1575 123.122 72.4435C122.842 72.7296 122.687 73.1147 122.691 73.5147H122.698ZM123.516 106.329C123.314 106.331 123.114 106.372 122.928 106.452C122.742 106.531 122.573 106.646 122.431 106.79C122.289 106.934 122.178 107.105 122.102 107.292C122.026 107.48 121.988 107.681 121.99 107.883C121.99 108.742 122.677 109.443 123.516 109.443C123.718 109.441 123.918 109.398 124.104 109.318C124.29 109.238 124.458 109.123 124.599 108.978C124.74 108.833 124.851 108.662 124.926 108.474C125.001 108.286 125.038 108.085 125.035 107.883C125.038 107.681 125.001 107.48 124.926 107.293C124.851 107.105 124.74 106.935 124.599 106.79C124.457 106.646 124.289 106.531 124.103 106.452C123.918 106.372 123.718 106.331 123.516 106.329ZM103.599 51.164C103.599 52.0234 104.28 52.7178 105.119 52.7178C105.321 52.716 105.521 52.6744 105.707 52.5953C105.893 52.5163 106.062 52.4013 106.204 52.257C106.345 52.1128 106.457 51.942 106.533 51.7544C106.609 51.5669 106.647 51.3663 106.645 51.164C106.645 50.3047 105.957 49.6034 105.119 49.6034C104.916 49.6061 104.717 49.6486 104.531 49.7285C104.345 49.8084 104.177 49.9241 104.036 50.069C103.895 50.2139 103.783 50.3852 103.709 50.5731C103.634 50.761 103.597 50.9618 103.599 51.164ZM104.713 55.5434L97.7417 70.359C98.5211 70.9319 99.0601 71.7735 99.2545 72.721C99.4488 73.6685 99.2846 74.6544 98.7936 75.4878L122.031 104.294C122.244 104.206 122.465 104.137 122.691 104.088V77.0965C122.181 76.8745 121.725 76.5457 121.353 76.1324C120.981 75.7191 120.702 75.2308 120.534 74.7005C120.367 74.1702 120.315 73.6101 120.382 73.0581C120.449 72.5061 120.634 71.9749 120.924 71.5003L106.762 55.179C106.126 55.4887 105.416 55.6149 104.713 55.5434ZM93.988 73.5147C93.988 74.374 94.6755 75.0684 95.5142 75.0684C96.3461 75.0684 97.0336 74.374 97.0336 73.5147C97.0336 72.6553 96.3461 71.954 95.5142 71.954C95.1052 71.9595 94.7149 72.1267 94.4289 72.4192C94.1428 72.7117 93.9843 73.1056 93.988 73.5147ZM73.638 73.5147C73.638 74.3534 74.298 75.034 75.123 75.034C75.948 75.034 76.6149 74.3534 76.6149 73.5147C76.6149 72.669 75.948 71.9884 75.123 71.9884C74.298 71.9884 73.638 72.6759 73.638 73.5147ZM75.123 146.458C74.9216 146.461 74.7228 146.503 74.5378 146.583C74.3528 146.663 74.1853 146.778 74.0449 146.922C73.9044 147.066 73.7938 147.237 73.7192 147.424C73.6447 147.611 73.6077 147.811 73.6105 148.012C73.6105 148.872 74.2842 149.566 75.123 149.566C75.3252 149.564 75.5251 149.523 75.7113 149.443C75.8974 149.364 76.0662 149.249 76.2079 149.105C76.3496 148.961 76.4616 148.79 76.5373 148.603C76.613 148.415 76.651 148.214 76.6492 148.012C76.652 147.81 76.6145 147.609 76.5391 147.421C76.4637 147.233 76.3519 147.062 76.21 146.917C76.0681 146.773 75.8989 146.658 75.7124 146.579C75.5258 146.5 75.3255 146.459 75.123 146.458ZM60.0255 67.6709C59.5236 68.2622 59.4824 69.0803 59.9567 69.4997C60.4174 69.9122 61.208 69.7884 61.7167 69.1903C62.2255 68.6059 62.2599 67.7878 61.7924 67.3684C61.3249 66.9422 60.5411 67.0797 60.0255 67.6709ZM48.8536 113.452C49.239 114.065 49.4417 114.776 49.438 115.5C49.438 116.257 49.2317 116.958 48.8742 117.528L73.638 143.117V77.0965C72.9656 76.8003 72.3909 76.3195 71.9809 75.7098C71.5707 75.1001 71.342 74.3866 71.3211 73.6522L62.9199 71.074C62.6589 71.3109 62.3676 71.512 62.0536 71.6722L48.8536 113.452ZM126.5 144.114C128.143 144.114 129.539 145.18 130.075 146.658H142.986C143.163 146.165 143.438 145.713 143.795 145.33C144.152 144.947 144.583 144.641 145.062 144.43V77.0965C144.583 76.8863 144.151 76.5803 143.794 76.1972C143.437 75.8142 143.162 75.3622 142.986 74.869H127.751C127.573 75.361 127.297 75.812 126.94 76.1947C126.584 76.5775 126.153 76.8842 125.675 77.0965V104.665C126.188 105.03 126.606 105.512 126.893 106.072C127.18 106.632 127.328 107.253 127.325 107.883C127.336 108.905 126.941 109.889 126.227 110.62C125.513 111.351 124.538 111.768 123.516 111.781C123.01 111.776 122.51 111.67 122.044 111.471C121.579 111.273 121.157 110.984 120.803 110.622C120.45 110.26 120.171 109.831 119.983 109.361C119.795 108.891 119.701 108.389 119.707 107.883C119.707 107.402 119.79 106.941 119.955 106.508L96.3874 77.3028C95.4765 77.5123 94.5205 77.3802 93.7006 76.9316C92.8807 76.483 92.2539 75.7491 91.9392 74.869H78.698C78.519 75.3617 78.2422 75.813 77.8842 76.1958C77.5262 76.5786 77.0944 76.885 76.6149 77.0965V144.43C77.5774 144.843 78.3267 145.654 78.698 146.658H93.9261C94.1051 146.165 94.3819 145.714 94.7399 145.331C95.0979 144.948 95.5297 144.642 96.0092 144.43V116.449C95.4485 116.097 94.9864 115.608 94.6665 115.029C94.3466 114.449 94.1794 113.797 94.1805 113.135C94.1741 112.629 94.2679 112.126 94.4564 111.655C94.6448 111.185 94.9244 110.756 95.2789 110.394C95.6333 110.032 96.0559 109.743 96.5222 109.545C96.9884 109.346 97.4893 109.242 97.9961 109.237C98.621 109.239 99.2361 109.394 99.7881 109.687C100.34 109.98 100.812 110.403 101.164 110.919C101.516 111.435 101.737 112.03 101.808 112.651C101.879 113.272 101.798 113.9 101.571 114.483L125.517 144.252C125.838 144.166 126.168 144.119 126.5 144.114ZM128.15 171.937C127.325 171.937 126.637 172.556 126.637 173.326C126.637 174.096 127.325 174.708 128.15 174.708C128.995 174.708 129.683 174.089 129.683 173.333C129.683 172.577 128.995 171.937 128.157 171.937H128.15ZM124.98 148.012C124.98 148.872 125.661 149.566 126.493 149.566C126.696 149.565 126.896 149.524 127.083 149.445C127.27 149.367 127.44 149.252 127.582 149.108C127.725 148.963 127.837 148.792 127.913 148.604C127.99 148.416 128.028 148.215 128.026 148.012C128.028 147.81 127.99 147.609 127.914 147.422C127.838 147.234 127.727 147.063 127.585 146.919C127.443 146.775 127.274 146.66 127.088 146.581C126.902 146.502 126.702 146.46 126.5 146.458C126.093 146.464 125.704 146.63 125.419 146.922C125.135 147.213 124.977 147.605 124.98 148.012ZM96.4698 113.135C96.4698 113.995 97.1573 114.689 97.9961 114.689C98.8348 114.689 99.5155 113.995 99.5155 113.135C99.5155 112.269 98.8348 111.582 97.9961 111.582C97.1573 111.582 96.4698 112.269 96.4698 113.135ZM97.5011 146.458C97.2989 146.46 97.099 146.502 96.9128 146.581C96.7267 146.66 96.5579 146.775 96.4162 146.919C96.2744 147.063 96.1625 147.234 96.0868 147.422C96.0111 147.609 95.973 147.81 95.9748 148.012C95.9748 148.872 96.6623 149.566 97.5011 149.566C98.3399 149.566 99.0205 148.872 99.0205 148.012C99.0232 147.81 98.986 147.61 98.911 147.422C98.8361 147.235 98.7248 147.064 98.5836 146.92C98.4425 146.775 98.2741 146.66 98.0884 146.581C97.9026 146.502 97.703 146.46 97.5011 146.458ZM98.9861 144.43C99.8069 144.79 100.478 145.423 100.887 146.221C101.295 147.019 101.415 147.933 101.227 148.81L125.929 170.239C126.154 170.108 126.391 170 126.637 169.916L125.372 151.738C124.589 151.481 123.907 150.981 123.425 150.312C122.943 149.642 122.686 148.837 122.691 148.012C122.691 147.325 122.863 146.685 123.172 146.135L99.5017 116.71C99.3349 116.784 99.1625 116.843 98.9861 116.889V144.43ZM148.074 148.005C148.075 147.804 148.038 147.604 147.962 147.418C147.887 147.231 147.775 147.061 147.634 146.917C147.493 146.774 147.325 146.659 147.14 146.58C146.955 146.502 146.756 146.46 146.554 146.458C146.352 146.46 146.152 146.502 145.966 146.581C145.78 146.66 145.611 146.775 145.469 146.919C145.328 147.063 145.216 147.234 145.14 147.422C145.064 147.609 145.026 147.81 145.028 148.012C145.028 148.872 145.715 149.566 146.554 149.566C147.393 149.566 148.08 148.872 148.08 148.012L148.074 148.005ZM40.0674 127.236C40.6861 127.133 41.078 126.418 40.9474 125.648C40.8099 124.871 40.2117 124.328 39.5999 124.438C38.9811 124.541 38.5961 125.263 38.7267 126.033C38.8505 126.81 39.4555 127.353 40.0674 127.236ZM177.375 87.9522C176.88 88.1103 176.619 88.7565 176.804 89.3822C176.99 90.0078 177.547 90.3859 178.042 90.2278C178.55 90.0697 178.798 89.4234 178.619 88.7978C178.44 88.1653 177.877 87.794 177.382 87.9522H177.375Z" fill="white"/>
</g>
<defs>
<clipPath id="clip0_108_274">
<rect width="220" height="220" fill="white"/>
</clipPath>
</defs>
</svg>
