<svg width="220" height="220" viewBox="0 0 220 220" fill="none" xmlns="http://www.w3.org/2000/svg">
<g clip-path="url(#clip0_108_275)">
<path d="M110 220C170.751 220 220 170.751 220 110C220 49.2487 170.751 0 110 0C49.2487 0 0 49.2487 0 110C0 170.751 49.2487 220 110 220Z" fill="#622FBA"/>
<path fill-rule="evenodd" clip-rule="evenodd" d="M127.779 119.46C127.181 119.646 126.603 119.873 126.039 120.134L100.767 93.8647C101.767 92.1308 102.358 90.1911 102.494 88.1939C102.63 86.1967 102.308 84.1948 101.551 82.3414C100.795 80.4879 99.625 78.8318 98.1307 77.4998C96.6364 76.1678 94.8573 75.195 92.9294 74.656V56.2791L86.1644 52.4978L101.791 43.4572C104.286 42.0136 107.118 41.2534 110 41.2534C112.882 41.2534 115.714 42.0136 118.209 43.4572L149.277 61.4422L136.998 68.5441C134.998 67.6566 132.807 67.2828 130.626 67.4567C128.445 67.6306 126.341 68.3466 124.507 69.5398C122.672 70.7329 121.165 72.3654 120.121 74.289C119.078 76.2126 118.532 78.3664 118.532 80.5547C118.533 83.3582 119.431 86.0879 121.095 88.3443C122.758 90.6007 125.101 92.2654 127.779 93.0947V119.46ZM135.603 119.46V93.0878C137.481 92.5053 139.205 91.5082 140.646 90.1701C142.088 88.8321 143.21 87.1873 143.931 85.3572C144.652 83.5272 144.952 81.5586 144.81 79.5969C144.668 77.6352 144.087 75.7305 143.11 74.0235L157.066 65.9522L163.735 69.8022C166.211 71.2351 168.267 73.2943 169.696 75.7729C171.125 78.2516 171.876 81.0625 171.875 83.9235V136.077C171.875 141.893 168.774 147.27 163.728 150.192L135.609 166.472V144.527C138.28 143.691 140.614 142.024 142.27 139.769C143.927 137.514 144.82 134.789 144.819 131.991C144.818 129.193 143.924 126.468 142.266 124.214C140.608 121.96 138.273 120.294 135.603 119.46ZM120.292 125.435C119.309 127.141 118.723 129.047 118.577 131.011C118.431 132.975 118.728 134.946 119.447 136.78C120.166 138.613 121.288 140.261 122.731 141.602C124.173 142.943 125.898 143.943 127.779 144.527V171.002L118.209 176.543C115.714 177.987 112.882 178.747 110 178.747C107.118 178.747 104.286 177.987 101.791 176.543L68.3375 157.183L80.905 147.366C83.2757 149.356 86.2731 150.444 89.3681 150.439C91.0946 150.442 92.8047 150.104 94.4006 149.446C95.9965 148.787 97.447 147.82 98.6691 146.601C99.8912 145.381 100.861 143.933 101.523 142.338C102.185 140.744 102.526 139.034 102.527 137.308C102.524 134.442 101.584 131.656 99.8499 129.374C98.1158 127.093 95.6829 125.441 92.9225 124.672V99.9353C93.6444 99.736 94.3456 99.4747 95.0125 99.1585L120.292 125.435ZM85.1056 124.892C81.9473 125.97 79.3182 128.211 77.7526 131.158C76.187 134.105 75.8024 137.538 76.6769 140.759L61.0637 152.969L56.2719 150.198C53.7943 148.766 51.7372 146.708 50.3072 144.229C48.8771 141.75 48.1246 138.939 48.125 136.077V83.9235C48.125 78.1072 51.2256 72.731 56.2719 69.8091L78.3063 57.0491L85.1125 60.851V74.876C82.5246 75.7636 80.2786 77.4375 78.6882 79.6637C77.0978 81.8899 76.2425 84.5573 76.2417 87.2932C76.241 90.0291 77.0948 92.697 78.684 94.924C80.2731 97.1511 82.5182 98.8262 85.1056 99.7153V124.892ZM89.375 92.971C88.6122 92.9984 87.8517 92.872 87.1388 92.5992C86.426 92.3265 85.7753 91.913 85.2256 91.3834C84.676 90.8538 84.2386 90.2189 83.9395 89.5167C83.6405 88.8144 83.4859 88.0592 83.4849 87.2959C83.484 86.5326 83.6368 85.777 83.9342 85.074C84.2315 84.371 84.6674 83.7351 85.2157 83.2042C85.7641 82.6733 86.4138 82.2582 87.126 81.9837C87.8382 81.7092 88.5984 81.581 89.3613 81.6066C90.8341 81.656 92.2303 82.2754 93.2554 83.3342C94.2805 84.393 94.8544 85.8084 94.8562 87.2821C94.858 88.7558 94.2875 90.1727 93.2649 91.2339C92.2424 92.2952 90.8478 92.918 89.375 92.971ZM89.375 142.987C88.6122 143.014 87.8517 142.888 87.1388 142.615C86.426 142.342 85.7753 141.929 85.2256 141.399C84.676 140.869 84.2386 140.235 83.9395 139.532C83.6405 138.83 83.4859 138.075 83.4849 137.312C83.484 136.548 83.6368 135.793 83.9342 135.09C84.2315 134.387 84.6674 133.751 85.2157 133.22C85.7641 132.689 86.4138 132.274 87.126 131.999C87.8382 131.725 88.5984 131.597 89.3613 131.622C90.8341 131.672 92.2303 132.291 93.2554 133.35C94.2805 134.409 94.8544 135.824 94.8562 137.298C94.858 138.771 94.2875 140.188 93.2649 141.25C92.2424 142.311 90.8478 142.934 89.375 142.987ZM131.691 86.2335C130.928 86.2609 130.167 86.1345 129.454 85.8617C128.742 85.589 128.091 85.1755 127.541 84.6459C126.992 84.1163 126.554 83.4814 126.255 82.7792C125.956 82.0769 125.801 81.3217 125.801 80.5584C125.8 79.7951 125.952 79.0395 126.25 78.3365C126.547 77.6335 126.983 76.9976 127.531 76.4667C128.08 75.9358 128.729 75.5207 129.442 75.2462C130.154 74.9717 130.914 74.8435 131.677 74.8691C133.15 74.9185 134.546 75.5379 135.571 76.5967C136.596 77.6555 137.17 79.0709 137.172 80.5446C137.174 82.0183 136.603 83.4352 135.581 84.4964C134.558 85.5577 133.163 86.1805 131.691 86.2335ZM131.691 137.672C130.183 137.674 128.736 137.077 127.668 136.012C126.601 134.947 126 133.501 125.998 131.993C125.996 130.486 126.594 129.039 127.659 127.971C128.724 126.904 130.169 126.303 131.677 126.301C133.185 126.299 134.632 126.896 135.699 127.961C136.767 129.026 137.368 130.472 137.369 131.98C137.371 133.488 136.774 134.935 135.709 136.002C134.644 137.07 133.199 137.67 131.691 137.672Z" fill="white"/>
</g>
<defs>
<clipPath id="clip0_108_275">
<rect width="220" height="220" fill="white"/>
</clipPath>
</defs>
</svg>
