<svg width="220" height="220" viewBox="0 0 220 220" fill="none" xmlns="http://www.w3.org/2000/svg">
<g clip-path="url(#clip0_108_276)">
<path d="M110 220C170.751 220 220 170.751 220 110C220 49.2487 170.751 0 110 0C49.2487 0 0 49.2487 0 110C0 170.751 49.2487 220 110 220Z" fill="#50479E"/>
<path d="M139.975 93.9127V126.803L110.364 143.076V110.2L139.968 93.9264L139.975 93.9127ZM175.312 85.4839V134.51C175.312 137.995 174.35 141.405 172.542 144.368C170.754 147.325 168.162 149.834 164.952 151.601L142.869 163.735V131.381L145.661 129.848V90.8052L172.707 75.9346C174.384 78.8221 175.312 82.0877 175.312 85.4908V85.4839ZM55.0481 151.601C52.0377 149.957 49.4946 147.574 47.6575 144.678C45.7246 141.64 44.6946 138.117 44.6875 134.516V103.125L75.1025 126.878V128.198L75.1506 129.56L77.5156 130.955L107.876 147.648L110.378 149.023V178.75C106.631 178.825 102.929 177.92 99.6394 176.124L55.0481 151.594V151.601ZM53.7831 69.1627L85.9375 51.5627L107.8 72.7377L75.1025 90.7708V93.5208L44.7563 110.186L44.6875 85.4771C44.6875 81.9914 45.65 78.5677 47.4719 75.6046C49.0669 72.9921 51.2256 70.7921 53.7831 69.1558V69.1627ZM164.952 68.3996C168.172 70.1585 170.853 72.7609 172.707 75.9277L145.661 90.7983V90.5508L142.869 89.0177L113.073 72.6414L142.869 56.2583L164.952 68.3996ZM44.7563 110.2L75.1025 93.5139V126.878L44.7563 110.193V110.2ZM110.378 71.3627V41.2502C113.87 41.3032 117.297 42.207 120.361 43.8833L142.869 56.2583L113.073 72.6346L110.378 71.3627ZM107.876 72.7377L77.5706 56.0864L100.959 43.2233C103.911 41.8653 107.13 41.1908 110.378 41.2502V71.3627L107.876 72.7377ZM110.571 149.126L113.073 147.751L142.512 163.935L120.361 176.117C117.296 177.79 113.87 178.692 110.378 178.743V149.023L110.571 149.126ZM142.869 131.375V163.735L142.512 163.935L113.073 147.751L142.869 131.375Z" fill="white"/>
</g>
<defs>
<clipPath id="clip0_108_276">
<rect width="220" height="220" fill="white"/>
</clipPath>
</defs>
</svg>
