<svg width="220" height="220" viewBox="0 0 220 220" fill="none" xmlns="http://www.w3.org/2000/svg">
<g clip-path="url(#clip0_108_279)">
<path d="M110 220C170.751 220 220 170.751 220 110C220 49.2487 170.751 0 110 0C49.2487 0 0 49.2487 0 110C0 170.751 49.2487 220 110 220Z" fill="#B3BA00"/>
<path d="M90.2688 73.315L89.375 73.8581L130.625 137.5V73.8031L110.027 61.875L90.2688 73.315ZM89.375 145.509L110.935 158.125L130.625 146.63L89.375 82.5V145.509ZM68.75 84.9475V135.052L82.5 144.375V75.625L68.75 84.9475ZM137.5 144.375L151.25 134.839V85.1606L137.5 75.625V144.375Z" fill="white"/>
<path d="M110 27.5C64.4531 27.5 27.5 64.4531 27.5 110C27.5 155.547 64.4531 192.5 110 192.5C155.547 192.5 192.5 155.547 192.5 110C192.5 64.4531 155.547 27.5 110 27.5ZM109.656 162.388L65.1338 135.988V83.27L109.663 56.9387L154.186 83.27V135.994L109.663 162.381L109.656 162.388Z" fill="white"/>
</g>
<defs>
<clipPath id="clip0_108_279">
<rect width="220" height="220" fill="white"/>
</clipPath>
</defs>
</svg>
