<svg width="220" height="220" viewBox="0 0 220 220" fill="none" xmlns="http://www.w3.org/2000/svg">
<g clip-path="url(#clip0_108_280)">
<path d="M110 220C170.751 220 220 170.751 220 110C220 49.2487 170.751 0 110 0C49.2487 0 0 49.2487 0 110C0 170.751 49.2487 220 110 220Z" fill="#1A4199"/>
<path opacity="0.7" d="M73.3975 48.985L147.18 91.5481V134.991L34.375 69.8437L70.5719 48.985C71.0108 48.7316 71.5088 48.5981 72.0156 48.5981C72.5225 48.5981 73.0204 48.7316 73.4594 48.985" fill="white"/>
<path opacity="0.9" d="M147.18 48.125L109.594 69.85L147.18 91.5475V48.125Z" fill="white"/>
<path d="M147.18 48.125L183.37 68.9975C183.825 69.2439 184.205 69.6081 184.472 70.052C184.738 70.4959 184.88 71.0031 184.882 71.5206V156.695L147.18 134.991V48.125Z" fill="white"/>
<path opacity="0.9" d="M184.807 156.696L148.617 177.548C148.174 177.788 147.677 177.914 147.173 177.914C146.669 177.914 146.173 177.788 145.729 177.548L71.9469 134.991V91.4863L184.807 156.696Z" fill="white"/>
<path opacity="0.6" d="M34.375 69.8511V155.012C34.3766 155.53 34.518 156.039 34.7841 156.484C35.0502 156.929 35.4314 157.295 35.8875 157.542L72.0844 178.414V91.4867L34.375 69.8511Z" fill="white"/>
<path opacity="0.7" d="M72.0226 178.405L109.594 156.694L72.0226 134.989V178.405Z" fill="white"/>
</g>
<defs>
<clipPath id="clip0_108_280">
<rect width="220" height="220" fill="white"/>
</clipPath>
</defs>
</svg>
