<svg width="220" height="220" viewBox="0 0 220 220" fill="none" xmlns="http://www.w3.org/2000/svg">
<g clip-path="url(#clip0_108_281)">
<path d="M110 220C170.751 220 220 170.751 220 110C220 49.2487 170.751 0 110 0C49.2487 0 0 49.2487 0 110C0 170.751 49.2487 220 110 220Z" fill="#F80000"/>
<path d="M140.938 115.789L94.9025 178.75L96.6006 127.593H85.9375L90.2962 82.6856L138.999 75.9756L123.007 116.71L140.938 115.789ZM103.139 160.463V148.431C103.139 147.537 102.382 146.809 101.447 146.809C100.512 146.809 99.7494 147.531 99.7494 148.424V160.463C99.7494 161.356 100.506 162.085 101.447 162.085C102.389 162.085 103.139 161.356 103.139 160.463ZM90.5438 124.121H100.237L99.7906 142.636C99.7838 143.124 99.9762 143.598 100.334 143.942C100.691 144.286 101.179 144.492 101.688 144.492H101.771C102.255 144.501 102.724 144.321 103.077 143.99C103.43 143.658 103.64 143.202 103.661 142.718L104.108 120.876H94.4144L97.6663 84.9956C97.7006 84.5831 97.5563 84.1706 97.2606 83.8612C96.965 83.5519 96.5525 83.38 96.1125 83.38H95.8375C95.4565 83.3723 95.0863 83.5067 94.7991 83.7571C94.5118 84.0075 94.3281 84.3559 94.2837 84.7344L90.5438 124.121ZM90.5438 78.7463L108.474 63.9375C109.436 49.1219 99.7425 46.805 99.7425 46.805L101.2 41.25C117.191 45.8769 114.771 63.47 114.771 63.47L138.029 73.1912L90.5438 78.7463Z" fill="white"/>
</g>
<defs>
<clipPath id="clip0_108_281">
<rect width="220" height="220" fill="white"/>
</clipPath>
</defs>
</svg>
