<svg width="220" height="220" viewBox="0 0 220 220" fill="none" xmlns="http://www.w3.org/2000/svg">
<g clip-path="url(#clip0_108_283)">
<path d="M110 220C170.751 220 220 170.751 220 110C220 49.2487 170.751 0 110 0C49.2487 0 0 49.2487 0 110C0 170.751 49.2487 220 110 220Z" fill="#F28F01"/>
<path fill-rule="evenodd" clip-rule="evenodd" d="M124.788 94.3181L111.444 68.0831C114.221 62.0331 115.61 58.5956 115.61 57.805C115.61 54.9656 113.74 52.8894 110.007 51.5625H150.899C145.86 53.8313 141.377 59.5031 137.459 68.585L124.788 94.3181ZM104.741 135.073L98.5188 147.723H135.211C151.827 147.723 162.938 144.609 168.541 138.373L148.933 168.438H48.6613C59.4894 166.354 70.4137 153.312 81.4275 129.291C85.14 121.908 88.5431 115.087 91.6506 108.845L104.741 135.073ZM34.375 139.219C42.4944 134.399 72.1875 83.0362 72.1875 68.585C72.1875 65.1819 70.1319 61.9644 66.0275 58.9394H97.955L125.682 113.403L152.577 58.9394H185.625C171.621 62.6244 143.894 128.693 143.894 136.379C143.894 137.892 144.169 138.841 144.732 139.219H115.603L90.6744 89.2925L66.0275 139.219H34.375Z" fill="white"/>
</g>
<defs>
<clipPath id="clip0_108_283">
<rect width="220" height="220" fill="white"/>
</clipPath>
</defs>
</svg>
