<svg width="220" height="220" viewBox="0 0 220 220" fill="none" xmlns="http://www.w3.org/2000/svg">
<g clip-path="url(#clip0_108_284)">
<path d="M110 220C170.751 220 220 170.751 220 110C220 49.2487 170.751 0 110 0C49.2487 0 0 49.2487 0 110C0 170.751 49.2487 220 110 220Z" fill="#2AB0FD"/>
<path fill-rule="evenodd" clip-rule="evenodd" d="M175.416 101.777C176.55 101.763 177.272 101.914 177.726 102.327C178.207 102.767 178.399 103.482 178.502 104.602C181.706 141.583 153.739 175.009 116.641 178.44C78.3887 181.98 45.1825 154.377 41.5525 116.015C38.0187 78.7592 65.9931 44.9617 103.331 41.5655C124.479 39.6405 142.739 46.2817 158.111 60.9255C158.269 61.0767 158.235 61.7092 158.056 61.888C154.604 65.4049 151.121 68.8906 147.606 72.3448C147.407 72.5373 146.692 72.5098 146.472 72.3105C130.611 57.7767 112.234 53.473 92.1387 60.7949C71.8162 68.1992 60.1906 83.5305 57.8875 105.118C54.7937 134.33 76.8419 160.077 106.253 162.297C132.914 164.305 157.073 145.433 161.494 119.088C161.535 118.827 160.944 118.174 160.641 118.174C144.176 118.125 127.71 118.139 111.251 118.077C110.825 118.077 110.034 117.287 110.021 116.854C109.934 112.252 109.934 107.65 110.021 103.049C110.027 102.636 110.763 101.894 111.169 101.887C122.141 101.825 164.972 101.921 175.409 101.77L175.416 101.777Z" fill="white"/>
</g>
<defs>
<clipPath id="clip0_108_284">
<rect width="220" height="220" fill="white"/>
</clipPath>
</defs>
</svg>
