<svg width="220" height="220" viewBox="0 0 220 220" fill="none" xmlns="http://www.w3.org/2000/svg">
<g clip-path="url(#clip0_108_285)">
<path d="M110 220C170.751 220 220 170.751 220 110C220 49.2487 170.751 0 110 0C49.2487 0 0 49.2487 0 110C0 170.751 49.2487 220 110 220Z" fill="#186C9D"/>
<path d="M132.419 161.562L132.426 161.549C133.486 161.57 134.544 161.454 135.575 161.205C141.597 159.796 146.692 154.536 147.902 148.858L171.875 58.8225L152.818 58.7262L137.101 117.631L94.6138 58.5269L94.5863 58.5544L94.6069 58.4856L87.5875 58.4375V58.4444C86.5258 58.428 85.4661 58.5411 84.4319 58.7813C78.4163 60.1975 73.3219 65.4569 72.105 71.1287L48.125 161.184L67.1894 161.267L82.8987 102.362L125.386 161.473H125.407L132.419 161.562ZM87.0925 86.6663L90.4131 74.2225L132.908 133.341L129.587 145.784L87.0994 86.6594L87.0925 86.6663Z" fill="white"/>
</g>
<defs>
<clipPath id="clip0_108_285">
<rect width="220" height="220" fill="white"/>
</clipPath>
</defs>
</svg>
