<svg width="220" height="220" viewBox="0 0 220 220" fill="none" xmlns="http://www.w3.org/2000/svg">
<g clip-path="url(#clip0_108_286)">
<path d="M110 220C170.751 220 220 170.751 220 110C220 49.2487 170.751 0 110 0C49.2487 0 0 49.2487 0 110C0 170.751 49.2487 220 110 220Z" fill="#050708"/>
<path d="M109.003 34.472C109.755 34.326 110.53 34.345 111.275 34.5278C112.019 34.7106 112.715 35.0528 113.314 35.5308L173.14 79.9777C174.515 81.0089 175.374 82.7277 175.306 84.4739V135.514C175.331 136.432 175.126 137.341 174.711 138.16C174.296 138.979 173.682 139.681 172.927 140.203L113.314 184.491C112.333 185.256 111.117 185.657 109.873 185.626C108.629 185.594 107.435 185.133 106.494 184.32C86.6937 169.607 66.9005 154.895 47.1005 140.196C46.3523 139.668 45.7427 138.968 45.3238 138.154C44.9048 137.34 44.6888 136.436 44.6943 135.521V84.5083C44.6865 83.5946 44.8993 82.6925 45.3146 81.8787C45.7299 81.0648 46.3355 80.3631 47.0799 79.8333L106.487 35.6958C107.221 35.1013 108.082 34.6827 109.003 34.472ZM108.288 172.068C108.254 172.866 108.24 173.67 108.233 174.468L108.247 179.26C109.278 179.273 110.309 179.28 111.341 179.26V172.22C110.326 172.124 109.307 172.074 108.288 172.068ZM96.5318 165.757L94.7993 165.764C96.0368 167.93 97.2124 170.13 98.4774 172.275C99.5087 172.275 100.54 172.275 101.585 172.206C100.76 169.923 99.3368 167.936 98.2712 165.771C97.1139 165.754 95.9565 165.754 94.7993 165.771L96.5318 165.757ZM115.28 169.057C115.261 170.107 115.268 171.157 115.301 172.206H118.188C118.319 171.181 118.326 170.157 118.305 169.126C117.298 169.065 116.289 169.042 115.28 169.057ZM112.014 152.165C107.683 152.193 103.345 152.138 99.0068 152.2C98.993 153.185 98.993 154.17 99.0068 155.156C102.843 155.245 106.686 155.176 110.529 155.197V162.271C109.732 162.278 108.948 162.251 108.164 162.333C107.937 163.268 108.054 164.238 108.041 165.193C109.429 165.235 110.818 165.228 112.207 165.2C112.626 164.726 113.059 164.265 113.492 163.798C113.492 160.429 113.486 157.06 113.499 153.691C113.006 153.181 112.511 152.672 112.014 152.165ZM135.004 156.125C134.021 155.644 132.976 154.008 131.828 154.991C128.411 157.266 124.891 159.391 121.516 161.728C121.529 162.705 121.536 163.681 121.605 164.65C124.767 164.678 127.923 164.691 131.079 164.643C131.092 163.612 131.092 162.581 131.086 161.55C130.311 161.532 129.536 161.522 128.762 161.522L127.304 161.536C129.814 159.762 132.44 158.174 135.004 156.49V156.125ZM90.028 157.83L83.8749 157.851C83.8543 158.882 83.8543 159.913 83.8749 160.958C87.9724 160.979 92.0768 161 96.1812 160.945V157.858C92.0768 157.81 87.9724 157.83 83.8749 157.851L90.028 157.83ZM79.6949 153.313L78.1756 153.32C78.1618 154.351 78.1549 155.39 78.1756 156.428C79.1862 156.441 80.2037 156.441 81.2212 156.428C81.2349 155.396 81.2349 154.365 81.2212 153.334C80.2061 153.312 79.1908 153.307 78.1756 153.32L79.6949 153.313ZM138.772 142.217C138.731 143.908 138.744 145.6 138.751 147.291C140.401 149.835 142.017 152.399 143.687 154.929C145.076 152.798 146.437 150.625 147.847 148.501C148.108 148.033 148.527 147.58 148.493 147.002C148.527 145.455 148.507 143.908 148.466 142.361C147.187 144.445 145.819 146.466 144.547 148.549C144.258 148.948 144.045 149.456 143.584 149.663C141.921 147.215 140.387 144.685 138.772 142.217ZM128.906 138.415C126.974 138.422 125.042 138.401 123.104 138.436C121.974 142.659 120.796 146.869 119.57 151.065L122.554 151.086L125.221 141.316L126.844 141.399C127.71 144.623 128.631 147.827 129.477 151.058C130.467 151.079 131.471 151.079 132.461 151.079L128.906 138.415ZM68.7362 145.496L66.0343 145.551V148.604C68.7224 148.652 71.4174 148.721 74.1056 148.583C74.2362 147.573 74.1743 146.548 74.1537 145.524C71.4449 145.51 68.7362 145.462 66.0343 145.551L68.7362 145.496ZM90.3924 138.291C86.6593 140.608 82.9881 143.028 79.3099 145.435C79.2962 146.425 79.2962 147.415 79.3237 148.405C85.1193 148.466 90.9149 148.439 96.7106 148.418C96.7381 147.373 96.738 146.328 96.7174 145.283C92.7987 145.228 88.8937 145.311 84.9818 145.235C87.6837 143.592 90.2962 141.818 92.9705 140.127C92.118 139.501 91.2518 138.903 90.3924 138.291ZM103.455 135.995L101.915 136.002C101.874 139.866 101.915 143.736 101.894 147.6L102.822 147.772C103.551 147.703 104.28 147.669 105.009 147.635C104.988 143.757 105.016 139.88 104.988 136.002C103.964 135.991 102.939 135.991 101.915 136.002L103.455 135.995ZM112.929 138.855C111.863 139 110.784 139.061 109.704 139.061C110.921 141.193 112.124 143.345 113.314 145.503L116.339 145.483C115.686 143.076 114.194 140.973 112.929 138.855ZM153.897 140.32L152.316 140.347C152.295 141.365 152.295 142.382 152.316 143.4C153.367 143.448 154.426 143.448 155.478 143.42V140.333C154.424 140.31 153.369 140.314 152.316 140.347L153.897 140.32ZM79.7293 128C78.0449 130.488 76.5187 133.087 74.8206 135.555C73.2324 133.053 71.6237 130.557 70.0149 128.061C69.9771 129.773 69.9702 131.485 69.9943 133.197C71.6649 135.631 73.2118 138.147 74.8068 140.622C76.5324 138.154 78.0724 135.555 79.7568 133.053C79.743 131.368 79.7637 129.684 79.7293 128ZM87.6355 131.265C87.5668 132.331 87.5737 133.396 87.6149 134.462C88.6324 134.476 89.6499 134.469 90.6605 134.462C90.6841 133.422 90.6841 132.381 90.6605 131.341C89.6539 131.269 88.6445 131.243 87.6355 131.265ZM129.683 122.85L128.143 124.294C128.143 125.669 128.136 127.037 128.164 128.405C129.147 128.405 130.137 128.405 131.12 128.391C131.141 127.546 131.147 126.7 131.141 125.848L138.043 125.855C138.009 128.639 138.029 131.416 138.036 134.194C139.033 134.221 140.03 134.228 141.034 134.221V124.301L139.542 122.857C136.256 122.85 132.969 122.871 129.683 122.843V122.85ZM52.7037 120.877H50.7649L49.3074 122.328L49.2937 129.072L49.3349 132.441C49.5893 133.053 50.1599 133.582 50.7237 133.912C54.0924 134.008 57.4681 133.912 60.8437 133.953H62.2531L63.6693 133.946C63.6762 132.97 63.6762 131.994 63.6555 131.018C59.8605 130.976 56.0587 131.011 52.2568 130.997C52.2293 128.632 52.2568 126.274 52.2362 123.909L54.6424 123.875C54.6513 122.882 54.649 121.89 54.6355 120.898C53.3455 120.876 52.0551 120.871 50.7649 120.884L52.7037 120.877ZM119.075 123.49C115.417 125.965 111.65 128.254 107.986 130.729C107.999 131.733 107.999 132.73 108.144 133.72C113.919 133.72 119.701 133.747 125.476 133.713C125.504 132.631 125.504 131.549 125.476 130.468C121.626 130.42 117.762 130.495 113.898 130.426C116.476 128.687 119.164 127.113 121.694 125.305C120.807 124.713 119.948 124.095 119.082 123.483L119.075 123.49ZM160.249 123.008C156.571 125.366 152.893 127.718 149.249 130.131C149.236 131.135 149.236 132.145 149.249 133.156C155.024 133.176 160.792 133.176 166.561 133.156C166.574 132.111 166.574 131.052 166.561 130.007C162.676 129.98 158.792 130.028 154.914 129.986L162.841 124.851C161.989 124.232 161.122 123.6 160.249 123.008ZM91.8431 109.375L90.3168 109.382C90.2962 115.26 90.2962 121.131 90.3168 127.003C91.348 127.03 92.3793 127.03 93.4037 127.023C93.5274 123.105 93.2181 119.172 93.5962 115.281C95.6862 118.863 97.9756 122.335 100.162 125.868L101.214 125.848C101.049 124.246 101.674 122.403 100.622 121.028C98.1955 117.151 95.7412 113.294 93.3556 109.389C92.3427 109.37 91.3296 109.37 90.3168 109.389L91.8431 109.375ZM148.101 115.728C147.097 115.57 146.073 115.638 145.056 115.659C145.022 119.293 145.022 122.928 145.056 126.563C146.08 126.583 147.104 126.59 148.129 126.563C148.142 122.953 148.197 119.337 148.101 115.728ZM79.9699 119.818C76.4293 119.928 72.8612 119.619 69.3274 120.011C69.3205 121.035 69.3206 122.053 69.3412 123.077C73.8031 123.111 78.2512 123.077 82.7199 123.091V119.942C81.8065 119.847 80.8882 119.806 79.9699 119.818ZM168.85 105.917C165.504 105.854 162.158 105.849 158.812 105.903L157.458 107.306C157.458 108.64 157.458 109.987 157.472 111.321C158.455 111.328 159.438 111.321 160.421 111.307L160.442 108.866C162.779 108.887 165.117 108.839 167.454 108.901L167.447 122.018L170.301 122.025C170.252 121.076 170.507 120.141 170.452 119.193C170.486 118.024 170.431 116.862 170.466 115.7C170.445 113.28 170.466 110.853 170.466 108.433C170.644 107.306 169.696 106.44 168.85 105.917ZM118.511 117.783L117.019 117.79V120.918C118.016 120.932 119.006 120.932 119.996 120.918C120.01 119.873 120.01 118.828 119.996 117.797C119.004 117.787 118.012 117.785 117.019 117.79L118.511 117.783ZM105.38 111.623L103.833 111.644C103.806 114.201 103.812 116.766 103.826 119.323C104.857 119.351 105.889 119.351 106.927 119.337C106.934 116.766 106.941 114.201 106.927 111.637C105.896 111.616 104.864 111.616 103.833 111.637L105.38 111.623ZM137.087 115.185L132.371 115.212C132.337 116.243 132.337 117.275 132.357 118.306C135.018 118.615 137.706 118.375 140.381 118.457C140.917 118.402 141.625 118.643 141.927 118.031C141.997 117.085 141.958 116.135 141.811 115.198C138.662 115.198 135.52 115.171 132.371 115.212L137.087 115.185ZM124.052 115.068L122.533 115.075C122.519 116.12 122.519 117.165 122.533 118.203C123.544 118.21 124.554 118.216 125.572 118.21C125.591 117.165 125.591 116.119 125.572 115.075C124.559 115.065 123.546 115.065 122.533 115.075L124.052 115.068ZM66.6462 106.027H63.5387L63.5318 115.982H66.653V106.027H66.6462ZM77.8868 102.074L75.0062 102.088C73.7962 106.302 72.6206 110.53 71.4312 114.751L74.4149 114.765C75.2056 111.513 76.2437 108.33 76.9724 105.071L78.6224 104.948C79.633 108.193 80.3962 111.506 81.3862 114.765L84.2737 114.758C83.1737 110.516 81.9362 106.316 80.7674 102.095C78.8424 102.067 76.9312 102.081 75.0062 102.095L77.8868 102.074ZM114.984 101.139L114.51 101.153H102.719C102.709 102.156 102.709 103.16 102.719 104.164C106.549 104.267 110.399 103.978 114.214 104.329V111.266L111.767 111.293V114.318C113.073 114.332 114.372 114.332 115.672 114.332L117.184 112.682V103.868C117.37 102.431 115.947 100.926 114.51 101.153L114.984 101.139ZM53.783 108.805C53.7487 109.815 53.7487 110.826 53.7555 111.836C54.7868 111.857 55.818 111.85 56.8424 111.836V108.88C55.8241 108.813 54.8034 108.788 53.783 108.805ZM126.933 96.1202H124.974C124.417 96.8558 123.337 97.4058 123.475 98.4783C123.461 101.318 123.461 104.157 123.475 107.003C123.344 108.062 124.403 108.619 124.953 109.348C129.277 109.334 133.602 109.361 137.919 109.334C137.947 108.33 137.947 107.32 137.94 106.309C134.097 106.268 130.261 106.309 126.424 106.281V99.1658L128.899 99.1452C128.917 98.1437 128.912 97.142 128.886 96.1408C127.579 96.1133 126.273 96.127 124.967 96.1202H126.933ZM93.7062 101.153H86.1918C86.1505 102.211 86.1574 103.27 86.1987 104.329H93.7062C93.7268 103.27 93.7268 102.211 93.7062 101.153ZM154.846 97.502L148.136 97.5295C148.122 98.5608 148.129 99.6058 148.136 100.637C152.604 100.699 157.073 100.658 161.542 100.658C161.556 99.6127 161.556 98.5608 161.549 97.5089C157.08 97.5089 152.611 97.4677 148.142 97.5295L154.846 97.502ZM139.617 97.502L138.029 97.5295C138.016 98.5608 138.016 99.592 138.029 100.623C139.088 100.665 140.147 100.665 141.206 100.623C141.219 99.592 141.226 98.5608 141.206 97.5295C140.147 97.4901 139.088 97.4901 138.029 97.5295L139.617 97.502ZM57.0074 91.0395L49.3074 91.0602C49.2868 92.1052 49.2868 93.157 49.3074 94.202C52.5249 94.2364 55.7493 94.202 58.9737 94.2158C57.7362 95.0889 56.4505 95.8795 55.1787 96.6908C56.0312 97.3095 56.7874 98.1552 57.7843 98.5264C60.1424 97.1033 62.4387 95.5702 64.728 94.037L64.7212 91.067C59.5787 91.0189 54.4362 91.0327 49.3005 91.0602L57.0074 91.0395ZM78.3062 88.5027C75.8381 90.1939 73.2737 91.7408 70.8674 93.5214C73.253 95.2539 75.7624 96.7939 78.1824 98.4645C79.8599 98.4645 81.5374 98.4783 83.2149 98.4439C80.7262 96.8283 78.2649 95.1508 75.7624 93.5489C78.1962 91.8095 80.7812 90.2902 83.2012 88.5302C81.5649 88.5027 79.9424 88.5302 78.3062 88.5027ZM99.9212 94.092H93.2524C93.2524 95.1233 93.2524 96.1614 93.2662 97.2064C97.6937 97.2064 102.114 97.2133 106.549 97.1995C106.686 96.1683 106.7 95.137 106.59 94.1058C102.149 94.0645 97.7006 94.1058 93.2524 94.0852L99.9212 94.092ZM111.093 94.092L109.491 94.1058V97.172C110.557 97.1858 111.622 97.1858 112.695 97.1583V94.1195C111.627 94.0847 110.559 94.0801 109.491 94.1058L111.093 94.092ZM118.511 84.8864H117.019V94.8552H120.003C120.003 91.5345 120.024 88.2139 120.003 84.8933C119.008 84.8844 118.014 84.8844 117.019 84.8933L118.511 84.8864ZM156.386 90.6133L154.839 90.6339C154.818 91.672 154.825 92.717 154.839 93.7552C155.87 93.7827 156.901 93.7827 157.919 93.7552C157.949 92.7127 157.951 91.6696 157.926 90.627C156.894 90.6064 155.863 90.6133 154.839 90.627L156.386 90.6133ZM146.046 78.3964C144.121 78.0802 142.175 78.3827 140.243 78.3964C139.067 82.6039 137.912 86.8114 136.689 90.9914C137.686 90.9983 138.682 91.0052 139.679 90.9983C140.518 87.7395 141.494 84.522 142.299 81.2564L143.935 81.2358C144.911 84.4739 145.722 87.7602 146.664 90.9983H149.634L146.046 78.3964ZM128.996 85.8008L127.49 85.8077C127.477 86.848 127.477 87.8885 127.49 88.9289H130.494C130.508 87.8977 130.508 86.8595 130.501 85.8214C129.498 85.7961 128.494 85.7915 127.49 85.8077L128.996 85.8008ZM165.571 82.2808C164.422 82.2808 163.274 82.2808 162.133 82.3014L165.791 88.7639C166.829 88.7639 167.881 88.7639 168.919 88.7227C168.073 86.4402 166.698 84.4189 165.564 82.2808H165.571ZM109.058 72.8277L107.58 72.8483C107.532 76.7258 107.566 80.617 107.559 84.4945C105.215 84.4395 102.871 84.632 100.54 84.3639C100.554 83.5848 100.549 82.8054 100.526 82.0264H97.6937C97.6937 83.3877 97.5699 84.7627 97.7418 86.117C98.1405 86.5845 98.6012 86.997 99.048 87.437C102.431 87.4164 105.813 87.4508 109.202 87.4164C109.649 86.9627 110.103 86.5158 110.564 86.0758C110.529 81.662 110.584 77.2483 110.536 72.8414C109.551 72.8263 108.565 72.8263 107.58 72.8414L109.058 72.8277ZM85.7174 80.122H84.2256C84.1568 82.5558 84.1912 84.9827 84.198 87.4095H87.223C87.223 84.9827 87.2368 82.5558 87.2093 80.1358C86.2124 80.122 85.2156 80.122 84.2256 80.1289L85.7174 80.122ZM156.372 75.8664L154.839 75.887C154.808 79.2168 154.808 82.5467 154.839 85.8764C155.863 85.8902 156.887 85.897 157.912 85.8764C157.946 82.5489 157.946 79.2145 157.912 75.887C156.888 75.8625 155.863 75.8625 154.839 75.887L156.372 75.8664ZM64.2331 79.9708L57.5437 79.9983C57.5299 81.0295 57.5299 82.0814 57.5437 83.1264C62.0055 83.1539 66.4605 83.1608 70.9224 83.1264C70.9467 82.0838 70.9467 81.0409 70.9224 79.9983C66.4629 79.9642 62.0032 79.9642 57.5437 79.9983L64.2331 79.9708ZM76.058 79.9983H73.0193V83.1333C74.0368 83.1402 75.0474 83.147 76.0649 83.1333C76.0872 82.0884 76.0872 81.0432 76.0649 79.9983H76.058ZM98.1268 68.4345C96.4699 70.9439 94.8749 73.5083 93.2318 76.0314C91.5818 73.5427 90.0005 70.9989 88.3712 68.4895C88.3643 70.1808 88.2405 71.8858 88.4124 73.577C88.9212 74.4227 89.4437 75.2683 89.9799 76.107L93.218 81.1052C94.8405 78.5545 96.5868 76.0658 98.0993 73.4395C98.2368 71.7758 98.1268 70.0983 98.1268 68.4345ZM118.264 60.8995L116.779 60.9133C116.744 66.7845 116.758 72.6558 116.772 78.527C117.803 78.5477 118.834 78.5477 119.866 78.527L119.886 66.7295C122.155 70.222 124.272 73.8245 126.569 77.3033L127.724 77.5095C127.751 76.2239 127.744 74.9383 127.744 73.6595C125.042 69.4314 122.43 65.1483 119.749 60.9064C118.759 60.8897 117.769 60.892 116.779 60.9133L118.264 60.8995ZM81.8124 64.1995L79.5987 64.2889C78.7691 64.2786 77.9395 64.2786 77.1099 64.2889C77.0962 65.3202 77.1031 66.3583 77.1237 67.3964C78.2306 67.4102 79.3443 67.3964 80.458 67.4583C78.258 68.7645 76.1337 70.1877 73.9612 71.5283C74.7587 72.1952 75.508 72.9927 76.4843 73.3708C79.8049 71.4595 82.9468 69.2458 86.2262 67.2452C86.2399 66.2689 86.2399 65.2858 86.2331 64.3095C84.0243 64.1625 81.8083 64.1556 79.5987 64.2889L81.8124 64.1995ZM140.786 68.8952L133.451 68.9089V71.9408C138.346 71.9545 143.227 71.9477 148.115 71.9408V68.9158C143.234 68.8883 138.339 68.8883 133.451 68.9158L140.786 68.8952ZM104.823 65.4302L103.297 65.4508C103.276 66.4889 103.276 67.527 103.297 68.5652C104.314 68.5927 105.332 68.5927 106.349 68.5652C106.37 67.5202 106.37 66.4889 106.349 65.4508C105.332 65.4224 104.314 65.4224 103.297 65.4508L104.823 65.4302ZM130.618 63.2783L129.037 63.2989L129.044 66.3377C130.096 66.3583 131.147 66.3583 132.199 66.3308V63.3058C131.145 63.2769 130.091 63.2746 129.037 63.2989L130.618 63.2783ZM96.8618 50.6352L95.2806 50.6695C95.3493 55.2208 95.0743 59.7927 95.418 64.337C96.4287 64.337 97.4393 64.337 98.4499 64.3164C98.498 59.7652 98.4774 55.2139 98.4637 50.6558C97.4005 50.6263 96.3366 50.6309 95.2737 50.6695L96.8618 50.6352ZM108.563 57.0977C107.422 57.0977 106.281 57.0977 105.139 57.1183C106.322 59.2908 107.518 61.4495 108.762 63.5808C109.807 63.5808 110.859 63.5808 111.904 63.5327C111.024 61.2639 109.649 59.2564 108.563 57.0977ZM126.521 55.5439L122.279 55.5645C122.265 56.6095 122.265 57.6614 122.279 58.7064C125.104 58.7545 127.93 58.7408 130.756 58.7064C130.769 57.6569 130.769 56.6072 130.756 55.5577C127.93 55.5316 125.104 55.5339 122.279 55.5645L126.521 55.5439ZM109.794 45.2177L105.077 45.2245C104.156 45.1008 103.62 46.0495 103.097 46.6477C102.912 47.9539 103.049 49.2945 103.042 50.6145H105.971L105.992 48.1395H112.908C113.114 50.5939 112.901 53.0552 112.901 55.5164L113.128 56.4377C114.056 56.5064 114.998 56.4583 115.933 56.4445C115.919 53.1514 115.919 49.8583 115.933 46.5652L115.012 45.6508L114.503 45.2589C111.368 45.1764 108.219 45.2452 105.084 45.2245L109.794 45.2177Z" fill="white"/>
</g>
<defs>
<clipPath id="clip0_108_286">
<rect width="220" height="220" fill="white"/>
</clipPath>
</defs>
</svg>
