<svg width="220" height="220" viewBox="0 0 220 220" fill="none" xmlns="http://www.w3.org/2000/svg">
<g clip-path="url(#clip0_108_287)">
<path d="M110 220C170.751 220 220 170.751 220 110C220 49.2487 170.751 0 110 0C49.2487 0 0 49.2487 0 110C0 170.751 49.2487 220 110 220Z" fill="#F5D100"/>
<path d="M109.808 27.5C64.4325 27.5 27.5 64.4325 27.5 109.807C27.5 155.182 64.4325 192.184 109.876 192.184C155.313 192.184 192.246 155.251 192.246 109.807C192.246 64.3706 155.251 27.5 109.814 27.5H109.808ZM109.808 185.831C67.925 185.831 33.7838 151.759 33.7838 109.807C33.8525 67.925 67.925 33.8456 109.808 33.8456C151.697 33.8456 185.838 67.925 185.838 109.876C185.838 151.759 151.759 185.838 109.808 185.838V185.831Z" fill="white"/>
<path d="M67.1963 73.2595L73.2463 67.2026L105.476 99.4258L99.4194 105.476L67.1963 73.2595ZM114.07 120.154L120.127 114.097L152.35 146.32L146.293 152.37L114.07 120.154ZM103.792 109.828L109.842 103.778L115.947 109.869L109.897 115.933L103.792 109.828ZM114.159 99.687L146.383 67.4708L152.433 73.5276L120.216 105.751L114.159 99.687ZM67.43 146.355L99.6463 114.138L105.703 120.188L73.4869 152.411L67.43 146.355Z" fill="white"/>
</g>
<defs>
<clipPath id="clip0_108_287">
<rect width="220" height="220" fill="white"/>
</clipPath>
</defs>
</svg>
