<svg width="220" height="220" viewBox="0 0 220 220" fill="none" xmlns="http://www.w3.org/2000/svg">
<g clip-path="url(#clip0_108_288)">
<path d="M110 220C170.751 220 220 170.751 220 110C220 49.2487 170.751 0 110 0C49.2487 0 0 49.2487 0 110C0 170.751 49.2487 220 110 220Z" fill="#82BD39"/>
<path d="M99.0206 133.1L110 147.565V178.75L68.75 160.442V79.8806C68.75 78.6913 69.2794 77.5569 70.2075 76.7663L74.9031 72.7444C75.3555 72.3532 75.8832 72.0589 76.4538 71.8798C77.0244 71.7007 77.6257 71.6405 78.2204 71.703C78.8152 71.7655 79.3908 71.9494 79.9117 72.2432C80.4326 72.537 80.8876 72.9346 81.2487 73.4113L118.821 122.664L139.576 135.355V67.43L121.234 58.2794L120.34 100.877L110.632 88L110.192 41.25L151.25 60.3556V140.546L141.921 148.232L112.537 131.821L79.9219 89.0381L79.475 154.034L98.8969 163.982L99.0206 133.1Z" fill="white"/>
</g>
<defs>
<clipPath id="clip0_108_288">
<rect width="220" height="220" fill="white"/>
</clipPath>
</defs>
</svg>
