<svg width="220" height="220" viewBox="0 0 220 220" fill="none" xmlns="http://www.w3.org/2000/svg">
<g clip-path="url(#clip0_108_289)">
<path d="M110 220C170.751 220 220 170.751 220 110C220 49.2487 170.751 0 110 0C49.2487 0 0 49.2487 0 110C0 170.751 49.2487 220 110 220Z" fill="#4099CD"/>
<path fill-rule="evenodd" clip-rule="evenodd" d="M13.7842 163.35C17.9436 151.222 25.9598 138.091 37.1248 125.125C35.1384 122.485 34.1691 119.217 34.3944 115.921C34.6196 112.625 36.0244 109.52 38.3515 107.174C40.6787 104.829 43.7726 103.399 47.0671 103.148C50.3617 102.897 53.6365 103.841 56.2923 105.806C65.1594 97.9979 74.5899 90.8538 84.5073 84.4319C132.179 53.4738 182.559 43.5944 207.13 58.3206C214.209 71.5975 218.471 86.193 219.649 101.193C211.715 127.167 185.508 158.201 148.163 182.456C122.402 199.182 95.8442 209.763 72.9986 213.62C47.8207 204.593 26.7782 186.729 13.7842 163.35ZM39.5654 127.634C23.4504 146.252 16.9948 165.406 24.8048 177.437C36.6023 195.607 76.5048 190.637 113.912 166.347C151.325 142.051 172.088 107.621 160.29 89.4506C148.486 71.28 108.59 76.2506 71.1767 100.54C67.0311 103.235 63.0848 106.054 59.3723 108.962C61.2764 111.667 62.1414 114.968 61.8086 118.259C61.4758 121.551 59.9675 124.612 57.5604 126.881C55.1532 129.15 52.0086 130.476 48.7034 130.614C45.3981 130.753 42.1538 129.695 39.5654 127.634Z" fill="white"/>
</g>
<defs>
<clipPath id="clip0_108_289">
<rect width="220" height="220" fill="white"/>
</clipPath>
</defs>
</svg>
