<svg width="220" height="220" viewBox="0 0 220 220" fill="none" xmlns="http://www.w3.org/2000/svg">
<g clip-path="url(#clip0_108_290)">
<path d="M110 220C170.751 220 220 170.751 220 110C220 49.2487 170.751 0 110 0C49.2487 0 0 49.2487 0 110C0 170.751 49.2487 220 110 220Z" fill="#008FBB"/>
<path fill-rule="evenodd" clip-rule="evenodd" d="M179.314 115.727C175.828 115.727 173.003 113.163 173.003 110V104.266H141.295C137.809 104.266 134.984 101.702 134.984 98.5394C134.984 95.3769 137.809 92.8125 141.295 92.8125H179.314C182.799 92.8125 185.625 95.3769 185.625 98.5394V110C185.625 113.163 182.806 115.727 179.314 115.727ZM148.039 115.727H160.655C164.141 115.727 166.966 118.291 166.966 121.454C166.966 124.616 164.148 127.188 160.655 127.188H141.295C140.29 127.19 139.296 126.969 138.387 126.541L101.592 104.266H90.9906C87.505 104.266 84.6794 101.702 84.6794 98.5394C84.6794 95.3769 87.4981 92.8125 90.9906 92.8125H103.606C104.967 92.8125 106.226 93.2044 107.257 93.8713L143.227 115.734H148.039V115.727ZM103.606 115.727C107.092 115.727 109.917 118.291 109.917 121.454C109.917 124.616 107.092 127.188 103.606 127.188H90.9906C89.9854 127.19 88.9921 126.969 88.0825 126.541L51.2875 104.266H40.6863C37.2006 104.266 34.375 101.702 34.375 98.5394C34.375 95.3769 37.1938 92.8125 40.6863 92.8125H53.3019C54.5951 92.8078 55.8625 93.1753 56.9525 93.8713L92.9225 115.734H103.606V115.727ZM40.6863 115.727H53.3019C56.7875 115.727 59.6131 118.291 59.6131 121.461C59.6131 124.623 56.7875 127.188 53.3019 127.188H40.6863C37.2006 127.188 34.375 124.623 34.375 121.461C34.375 118.298 37.1938 115.727 40.6863 115.727Z" fill="white"/>
</g>
<defs>
<clipPath id="clip0_108_290">
<rect width="220" height="220" fill="white"/>
</clipPath>
</defs>
</svg>
