<svg width="220" height="220" viewBox="0 0 220 220" fill="none" xmlns="http://www.w3.org/2000/svg">
<g clip-path="url(#clip0_108_291)">
<path d="M110 220C170.751 220 220 170.751 220 110C220 49.2487 170.751 0 110 0C49.2487 0 0 49.2487 0 110C0 170.751 49.2487 220 110 220Z" fill="#164B79"/>
<path d="M96.8686 128.342L92.5855 137.486H83.0843L108.886 82.5L126.094 119.164H116.366L108.666 103.249L100.952 119.432L96.8686 128.342ZM134.365 137.28L154.509 110.124L134.221 82.7613H145.324L160.043 102.767L154.687 110.124L160.043 117.48L145.331 137.486H124.96L120.656 128.342H130.157L134.365 137.28ZM165.481 110.007L160.043 102.534L174.762 82.5275H185.625L165.481 110.007ZM165.481 110.007L185.625 137.493H174.762L160.05 117.487L165.481 110.007ZM78.5261 90.4681C80.9954 93.0743 82.9254 96.1426 84.2055 99.4968C85.4856 102.851 86.0905 106.425 85.9855 110.014C86.0798 117.239 83.4116 124.228 78.5261 129.552C73.5624 135.114 67.423 137.5 60.1836 137.5C56.7401 137.534 53.3278 136.844 50.1679 135.475C47.008 134.106 44.1712 132.088 41.8411 129.552C36.876 124.277 34.1929 117.256 34.3749 110.014C34.2643 104.344 35.9249 98.78 39.1255 94.0981L45.4505 100.836C43.4705 104.369 42.6458 108.433 43.0921 112.459C43.5384 116.484 45.2334 120.269 47.9393 123.282C49.4728 125.019 51.3553 126.413 53.464 127.372C55.5727 128.332 57.8601 128.836 60.1768 128.851C64.7968 128.851 69.2105 126.837 72.4143 123.282C74.0577 121.544 75.3425 119.498 76.1953 117.263C77.0482 115.027 77.4524 112.646 77.3849 110.254C77.4009 105.442 75.6268 100.796 72.4074 97.2194C70.8666 95.511 68.9763 94.154 66.8648 93.2406C64.7533 92.3272 62.47 91.8788 60.1699 91.9256C57.1303 91.8422 54.1367 92.6811 51.583 94.3319L45.258 87.5944C49.5056 84.2359 54.7832 82.4483 60.1974 82.5344C63.6406 82.4729 67.0571 83.149 70.2173 84.5175C73.3776 85.8859 76.2083 87.9149 78.5193 90.4681H78.5261Z" fill="white"/>
</g>
<defs>
<clipPath id="clip0_108_291">
<rect width="220" height="220" fill="white"/>
</clipPath>
</defs>
</svg>
