<svg width="220" height="220" viewBox="0 0 220 220" fill="none" xmlns="http://www.w3.org/2000/svg">
<g clip-path="url(#clip0_108_292)">
<path d="M110 220C170.751 220 220 170.751 220 110C220 49.2487 170.751 0 110 0C49.2487 0 0 49.2487 0 110C0 170.751 49.2487 220 110 220Z" fill="black"/>
<g clip-path="url(#clip1_108_292)">
<path d="M109.561 97.8516C115.986 97.8925 121.164 103.09 121.184 109.515C121.204 116.002 115.905 121.261 109.377 121.22C102.972 121.179 97.7542 115.9 97.7952 109.495C97.8565 103.029 103.095 97.8312 109.561 97.8516Z" fill="white"/>
<path d="M75.2863 69.6541C68.8201 69.6336 63.5612 64.3338 63.6226 57.9085C63.7045 51.4219 68.9429 46.2448 75.4091 46.3062C81.8343 46.3471 87.0318 51.606 87.0114 58.0108C86.9909 64.477 81.7525 69.6745 75.2863 69.6541Z" fill="white"/>
<path d="M109.541 63.6382C116.007 63.6587 121.287 68.9585 121.205 75.3838C121.123 81.8704 115.864 87.068 109.418 87.027C103.013 86.9861 97.7954 81.7067 97.7954 75.3224C97.8159 68.8562 103.075 63.6178 109.541 63.6382Z" fill="white"/>
<path d="M109.5 52.3221C103.034 52.3221 97.7747 47.0428 97.8157 40.597C97.8361 34.1513 103.136 28.8924 109.582 28.9333C115.966 28.9538 121.204 34.2127 121.225 40.6175C121.225 47.0632 115.946 52.3426 109.5 52.3221Z" fill="white"/>
<path d="M178.295 63.6382C184.762 63.6178 190.02 68.8767 190.02 75.3224C190.02 81.7272 184.802 86.9861 178.398 87.027C171.931 87.068 166.693 81.8704 166.652 75.3838C166.611 68.8971 171.809 63.6587 178.295 63.6382Z" fill="white"/>
<path d="M75.3275 103.888C68.8613 103.888 63.6024 98.6085 63.6433 92.1628C63.6638 85.717 68.9431 80.4786 75.4093 80.4991C81.8141 80.5195 87.0116 85.758 87.0525 92.1832C87.0525 98.629 81.7936 103.888 75.3275 103.888Z" fill="white"/>
<path d="M132.48 57.9287C132.521 51.4216 137.739 46.265 144.225 46.3059C150.691 46.3468 155.889 51.6467 155.828 58.0924C155.766 64.5586 150.487 69.7356 144 69.6538C137.575 69.5924 132.439 64.3744 132.48 57.9287Z" fill="white"/>
<path d="M52.3479 75.3429C52.3479 81.8295 47.1095 87.0475 40.6433 87.027C34.218 87.0066 28.9796 81.7272 29.0001 75.261C29.0205 68.8358 34.2385 63.6382 40.6638 63.6382C47.1504 63.6178 52.3684 68.8358 52.3479 75.3429Z" fill="white"/>
<path d="M144.02 103.868C137.493 103.745 132.377 98.5063 132.48 92.0196C132.582 85.4716 137.882 80.356 144.43 80.4787C150.794 80.6015 155.95 85.9832 155.827 92.388C155.705 98.8337 150.405 103.99 144.02 103.868Z" fill="white"/>
<path d="M40.9706 116.084C36.2028 116.105 32.2945 112.237 32.274 107.469C32.2535 102.702 36.121 98.7932 40.8888 98.7523C45.6156 98.7113 49.5445 102.62 49.5854 107.367C49.6059 112.135 45.718 116.064 40.9706 116.084Z" fill="white"/>
<path d="M66.4463 124.76C66.4463 120.012 70.3547 116.104 75.1224 116.125C79.8698 116.125 83.7781 120.053 83.7577 124.801C83.7372 129.548 79.8288 133.456 75.0815 133.456C70.3342 133.436 66.4463 129.507 66.4463 124.76Z" fill="white"/>
<path d="M143.918 116.104C148.666 116.104 152.574 120.033 152.554 124.781C152.533 129.528 148.625 133.436 143.877 133.436C139.13 133.416 135.222 129.487 135.242 124.74C135.263 119.992 139.171 116.104 143.918 116.104Z" fill="white"/>
<path d="M169.926 107.387C169.947 102.599 173.835 98.7311 178.582 98.7515C183.35 98.7925 187.197 102.66 187.176 107.448C187.156 112.236 183.288 116.083 178.521 116.063C173.753 116.063 169.906 112.175 169.926 107.387Z" fill="white"/>
<path d="M109.725 150.277C104.957 150.277 101.069 146.389 101.09 141.621C101.11 136.853 104.998 132.986 109.766 132.986C114.554 133.006 118.401 136.874 118.401 141.642C118.381 146.43 114.513 150.297 109.725 150.277Z" fill="white"/>
<path d="M115.557 168.345C115.557 171.578 112.959 174.197 109.726 174.197C106.513 174.197 103.873 171.537 103.894 168.325C103.914 165.153 106.513 162.554 109.685 162.534C112.959 162.513 115.557 165.092 115.557 168.345Z" fill="white"/>
<path d="M149.73 151.055C149.709 154.288 147.11 156.866 143.836 156.845C140.665 156.825 138.066 154.206 138.066 151.034C138.066 147.821 140.726 145.161 143.918 145.182C147.131 145.182 149.75 147.821 149.73 151.055Z" fill="white"/>
<path d="M75.0616 156.845C71.808 156.825 69.2502 154.226 69.2706 150.952C69.2911 147.78 71.8898 145.182 75.082 145.161C78.2742 145.161 80.9343 147.821 80.9343 151.013C80.9343 154.247 78.2947 156.845 75.0616 156.845Z" fill="white"/>
<path d="M35.1183 133.641C35.1387 130.428 37.8194 127.768 41.0115 127.829C44.1832 127.891 46.782 130.51 46.782 133.681C46.782 136.894 44.1218 139.534 40.9297 139.534C37.6761 139.493 35.0978 136.874 35.1183 133.641Z" fill="white"/>
<path d="M184.373 133.661C184.393 136.894 181.774 139.534 178.561 139.534C175.349 139.534 172.689 136.853 172.709 133.661C172.73 130.489 175.349 127.87 178.5 127.829C181.692 127.788 184.352 130.428 184.373 133.661Z" fill="white"/>
<path d="M178.582 151.279C180.219 151.3 181.569 152.65 181.59 154.267C181.61 155.924 180.198 157.336 178.521 157.295C176.883 157.275 175.533 155.924 175.533 154.287C175.512 152.63 176.883 151.279 178.582 151.279Z" fill="white"/>
<path d="M112.734 188.951C112.754 190.649 111.424 192.02 109.726 192.02C108.068 192.02 106.758 190.69 106.738 189.033C106.718 187.334 108.068 185.963 109.746 185.963C111.383 185.963 112.713 187.273 112.734 188.951Z" fill="white"/>
<path d="M43.9376 154.348C43.9172 156.006 42.5871 157.315 40.9296 157.336C39.2312 157.336 37.9012 155.965 37.9216 154.266C37.9421 152.568 39.3131 151.258 41.0319 151.299C42.669 151.34 43.9581 152.67 43.9376 154.348Z" fill="white"/>
<path d="M78.1107 171.64C78.1107 173.338 76.7602 174.648 75.0413 174.627C73.3839 174.607 72.0947 173.277 72.0947 171.619C72.0947 169.941 73.3839 168.652 75.0618 168.632C76.7602 168.611 78.1107 169.941 78.1107 171.64Z" fill="white"/>
<path d="M143.898 174.648C142.2 174.648 140.89 173.297 140.91 171.578C140.931 169.921 142.24 168.632 143.918 168.632C145.637 168.632 146.947 169.982 146.906 171.701C146.885 173.379 145.576 174.648 143.898 174.648Z" fill="white"/>
</g>
</g>
<defs>
<clipPath id="clip0_108_292">
<rect width="220" height="220" fill="white"/>
</clipPath>
<clipPath id="clip1_108_292">
<rect width="161" height="163.067" fill="white" transform="translate(29 28.9336)"/>
</clipPath>
</defs>
</svg>
