<svg width="220" height="220" viewBox="0 0 220 220" fill="none" xmlns="http://www.w3.org/2000/svg">
<g clip-path="url(#clip0_108_11)">
<path d="M110 220C131.756 220 153.023 213.549 171.113 201.462C189.202 189.375 203.301 172.195 211.627 152.095C219.952 131.995 222.131 109.878 217.886 88.5401C213.642 67.2022 203.166 47.6021 187.782 32.2183C172.398 16.8345 152.798 6.35804 131.46 2.11367C110.122 -2.13071 88.0047 0.0476608 67.9048 8.3733C47.805 16.6989 30.6253 30.7979 18.5383 48.8873C6.45139 66.9767 0 88.2441 0 110C0 139.174 11.5893 167.153 32.2183 187.782C52.8473 208.411 80.8262 220 110 220Z" fill="#1A53F0"/>
<path d="M81.5098 118.87C74.0813 118.878 66.9213 121.648 61.4217 126.642C55.9222 131.636 52.4762 138.496 51.7538 145.889C51.0313 153.282 53.084 160.68 57.5128 166.644C61.9416 172.608 68.43 176.712 75.7164 178.158C83.0027 179.603 90.5665 178.288 96.9369 174.467C103.307 170.646 108.029 164.593 110.184 157.484C112.34 150.375 111.774 142.718 108.598 136.003C105.422 129.288 99.8623 123.994 92.9998 121.15C89.3578 119.639 85.4527 118.864 81.5098 118.87ZM81.5098 169.7C76.6703 169.712 71.9765 168.045 68.2288 164.983C64.4811 161.921 61.9115 157.654 60.9582 152.909C60.0049 148.164 60.7269 143.236 63.001 138.964C65.2752 134.692 68.9607 131.341 73.4292 129.483C77.8977 127.625 82.8724 127.374 87.5052 128.773C92.1379 130.173 96.1418 133.136 98.8341 137.157C101.526 141.179 102.74 146.01 102.269 150.826C101.798 155.643 99.6705 160.147 96.2498 163.57C92.3399 167.481 87.0402 169.685 81.5098 169.7ZM145.41 55C137.979 54.9956 130.813 57.7553 125.304 62.7425C119.796 67.7296 116.339 74.5874 115.607 81.9819C114.876 89.3764 116.92 96.7787 121.344 102.749C125.768 108.719 132.255 112.83 139.542 114.283C146.829 115.735 154.396 114.425 160.771 110.607C167.146 106.789 171.872 100.736 174.031 93.6257C176.19 86.5156 175.627 78.8567 172.451 72.1389C169.275 65.421 163.714 60.1246 156.85 57.28C153.222 55.7788 149.336 55.0042 145.41 55ZM145.41 105.83C139.882 105.833 134.579 103.64 130.667 99.7338C126.755 95.8277 124.555 90.528 124.55 85C124.56 80.8836 125.789 76.8625 128.082 73.4443C130.376 70.026 133.631 67.3639 137.436 65.7942C141.241 64.2244 145.427 63.8172 149.463 64.6242C153.5 65.4311 157.206 67.4159 160.116 70.3281C163.025 73.2402 165.006 76.949 165.809 80.9863C166.613 85.0235 166.201 89.2082 164.628 93.012C163.055 96.8158 160.389 100.068 156.969 102.358C153.548 104.649 149.526 105.874 145.41 105.88V105.83ZM81.5098 55C74.6036 55.0091 67.9132 57.407 62.5736 61.7869C57.234 66.1669 53.574 72.2592 52.2145 79.0302C50.855 85.8013 51.8798 92.8341 55.1149 98.9357C58.35 105.037 63.5963 109.832 69.9638 112.506C76.3312 115.18 83.4277 115.569 90.0493 113.607C96.6709 111.645 102.41 107.453 106.293 101.741C110.175 96.0301 111.963 89.1515 111.352 82.2724C110.741 75.3933 107.769 68.9374 102.94 64H111.42V55H81.5098ZM102.37 84.94C102.372 89.7714 100.698 94.454 97.6345 98.1897C94.5707 101.925 90.3061 104.483 85.5678 105.427C80.8294 106.37 75.9104 105.641 71.6492 103.364C67.388 101.087 64.0483 97.4032 62.1993 92.9396C60.3503 88.476 60.1065 83.5093 61.5093 78.886C62.9122 74.2628 65.8749 70.2691 69.8926 67.5856C73.9102 64.9021 78.7342 63.695 83.5422 64.1699C88.3502 64.6448 92.8447 66.7724 96.2598 70.19C100.168 74.1044 102.365 79.4085 102.37 84.94Z" fill="white"/>
</g>
<defs>
<clipPath id="clip0_108_11">
<rect width="220" height="220" fill="white"/>
</clipPath>
</defs>
</svg>
