<svg width="220" height="220" viewBox="0 0 220 220" fill="none" xmlns="http://www.w3.org/2000/svg">
<g clip-path="url(#clip0_108_294)">
<path d="M110 220C170.751 220 220 170.751 220 110C220 49.2487 170.751 0 110 0C49.2487 0 0 49.2487 0 110C0 170.751 49.2487 220 110 220Z" fill="#1C347A"/>
<path d="M69.1969 47.355C60.4367 53.0728 52.9669 60.5566 47.2656 69.3275V47.355H69.1969ZM172.349 68.7363C166.697 60.2177 159.365 52.9422 150.803 47.355H172.349V68.7363ZM151.119 172.439C159.546 166.878 166.767 159.676 172.349 151.264V172.439H151.119ZM47.2656 150.673C52.8973 159.337 60.2556 166.747 68.8806 172.439H47.2656V150.673ZM178.75 110C178.75 147.909 147.909 178.75 110 178.75C72.0913 178.75 41.25 147.909 41.25 110C41.25 72.0913 72.0913 41.25 110 41.25C147.909 41.25 178.75 72.0913 178.75 110ZM110 160.132C137.637 160.132 160.132 137.644 160.132 110C160.132 82.3625 137.644 59.8675 110 59.8675C82.3625 59.8675 59.8675 82.3556 59.8675 110C59.8675 137.637 82.3556 160.132 110 160.132Z" fill="white"/>
</g>
<defs>
<clipPath id="clip0_108_294">
<rect width="220" height="220" fill="white"/>
</clipPath>
</defs>
</svg>
