<svg width="220" height="220" viewBox="0 0 220 220" fill="none" xmlns="http://www.w3.org/2000/svg">
<g clip-path="url(#clip0_108_296)">
<path d="M110 220C170.751 220 220 170.751 220 110C220 49.2487 170.751 0 110 0C49.2487 0 0 49.2487 0 110C0 170.751 49.2487 220 110 220Z" fill="#32A4BE"/>
<path fill-rule="evenodd" clip-rule="evenodd" d="M171.875 166.492L68.5919 65.4572C80.0313 54.2977 95.394 48.0741 111.375 48.1253C144.788 48.1253 171.875 74.6216 171.875 107.312V166.492ZM48.125 53.5084L151.408 154.543C139.969 165.703 124.606 171.927 108.625 171.875C75.2125 171.875 48.125 145.379 48.125 112.688V53.5084Z" fill="white"/>
</g>
<defs>
<clipPath id="clip0_108_296">
<rect width="220" height="220" fill="white"/>
</clipPath>
</defs>
</svg>
