<svg width="220" height="220" viewBox="0 0 220 220" fill="none" xmlns="http://www.w3.org/2000/svg">
<g clip-path="url(#clip0_108_297)">
<path d="M110 220C170.751 220 220 170.751 220 110C220 49.2487 170.751 0 110 0C49.2487 0 0 49.2487 0 110C0 170.751 49.2487 220 110 220Z" fill="#25AAE1"/>
<path fill-rule="evenodd" clip-rule="evenodd" d="M112.379 171.828C101.104 171.952 91.6371 169.917 82.7134 165.482C82.1634 165.207 81.7509 165.194 81.2009 165.503C75.7807 168.566 69.8301 170.577 63.6627 171.429C61.0227 171.773 58.3552 172.144 55.7015 171.601C54.0674 171.28 52.5479 170.531 51.2989 169.429C50.0499 168.328 49.1162 166.914 48.5936 165.333C48.071 163.752 47.9782 162.06 48.3248 160.431C48.6713 158.802 49.4448 157.295 50.5659 156.064C53.7163 152.485 56.0817 148.286 57.5096 143.737C57.5935 143.51 57.6205 143.266 57.5882 143.026C57.5558 142.786 57.4651 142.558 57.324 142.362C52.4571 134.636 49.4517 125.886 48.5446 116.8C46.5234 96.7117 52.7727 79.5035 67.1759 65.396C76.2404 56.4173 87.9709 50.6184 100.609 48.8685C118.051 46.3179 133.946 50.3466 147.909 61.161C160.366 70.8135 168.121 83.5254 170.823 99.0491C174.247 118.698 169.29 136.202 156.111 151.162C146.369 162.217 133.994 168.782 119.433 171.113C116.669 171.56 113.864 171.684 112.379 171.828ZM68.1727 155.41C68.6196 155.287 68.8809 155.218 69.1352 155.135C73.0455 153.815 76.7385 151.922 80.094 149.519C82.514 147.814 84.8996 147.731 87.4502 149.189C92.9227 152.324 98.7871 154.276 105.078 154.943C115.301 156.036 124.947 154.09 133.575 148.549C148.493 138.979 155.918 125.202 155.114 107.361C154.598 95.9348 150.123 86.0692 142.017 78.0323C132.248 68.3523 120.361 63.9385 106.59 64.8873C97.309 65.5335 88.9215 68.7235 81.7784 74.6841C67.939 86.2341 62.5971 101.043 65.6634 118.801C66.6671 124.645 68.9977 130.007 72.284 134.957C72.9111 135.842 73.3406 136.851 73.5435 137.916C73.7463 138.981 73.7177 140.078 73.4596 141.131C72.6737 144.55 71.5689 147.887 70.1596 151.1C69.5477 152.495 68.8877 153.864 68.1796 155.41H68.1727ZM110.048 83.8279L113.967 91.7823C115.342 94.601 116.758 97.4198 118.092 100.266C118.436 101.009 118.896 101.27 119.666 101.373C125.441 102.177 131.21 103.023 136.978 103.855C137.177 103.889 137.376 103.944 137.624 103.992C136.558 105.092 135.568 106.165 134.53 107.175C131.271 110.359 128.006 113.528 124.72 116.677C124.149 117.227 123.922 117.742 124.073 118.588C125.105 124.384 126.067 130.193 127.043 136.002C127.064 136.147 127.064 136.298 127.085 136.58C126.768 136.456 126.528 136.38 126.308 136.264C121.206 133.575 116.098 130.894 111.018 128.165C110.33 127.794 109.794 127.759 109.079 128.144C103.964 130.874 98.8284 133.562 93.6927 136.257C93.4865 136.374 93.2665 136.463 92.8677 136.655C93.1221 135.095 93.3421 133.699 93.5827 132.31C94.394 127.622 95.1984 122.926 96.0577 118.244C96.1815 117.557 95.7965 117.234 95.4115 116.855C91.3179 112.832 87.2158 108.817 83.1052 104.81C82.8715 104.577 82.5415 104.446 82.2527 104.267L82.4659 103.937L88.7634 103.03C92.7234 102.466 96.6765 101.889 100.643 101.345C101.276 101.256 101.565 100.919 101.826 100.383C104.418 95.096 107.037 89.8229 109.643 84.5429C109.739 84.3573 109.849 84.1854 110.055 83.8279H110.048Z" fill="white"/>
</g>
<defs>
<clipPath id="clip0_108_297">
<rect width="220" height="220" fill="white"/>
</clipPath>
</defs>
</svg>
