<svg width="220" height="220" viewBox="0 0 220 220" fill="none" xmlns="http://www.w3.org/2000/svg">
<g clip-path="url(#clip0_108_298)">
<path d="M110 220C170.751 220 220 170.751 220 110C220 49.2487 170.751 0 110 0C49.2487 0 0 49.2487 0 110C0 170.751 49.2487 220 110 220Z" fill="#34445B"/>
<path d="M109.567 70.2756L123.385 48.7156C126.931 49.2907 130.562 48.4765 133.523 46.4426C136.483 44.4086 138.546 41.3114 139.281 37.7954C140.016 34.2794 139.367 30.6154 137.469 27.5656C135.571 24.5159 132.571 22.3153 129.092 21.4218C126.32 20.8479 123.44 21.1301 120.833 22.231C118.226 23.3319 116.015 25.1994 114.493 27.5858C112.972 29.9722 112.212 32.7648 112.314 35.5931C112.417 38.4213 113.377 41.1516 115.067 43.4218L97.9204 70.1724C90.7648 70.8762 83.8181 72.9832 77.4772 76.373C71.1363 79.7628 65.5255 84.3689 60.9656 89.9281C56.4056 95.4872 52.9858 101.89 50.9017 108.772C48.8175 115.653 48.1099 122.878 48.8192 130.033C50.2494 144.48 57.3577 157.767 68.5814 166.974C79.805 176.182 94.2255 180.555 108.673 179.134C123.121 177.706 136.41 170.598 145.619 159.374C154.827 148.15 159.202 133.729 157.781 119.281C156.547 106.835 151.091 95.187 142.319 86.272C133.548 77.3569 121.99 71.7121 109.567 70.2756ZM103.276 153.614C99.462 153.618 95.6847 152.869 92.1602 151.412C88.6358 149.954 85.4333 147.816 82.736 145.119C80.0388 142.423 77.8997 139.221 76.4412 135.696C74.9827 132.172 74.2333 128.395 74.2361 124.581C74.2324 120.767 74.9811 116.989 76.4392 113.464C77.8973 109.939 80.0363 106.736 82.7336 104.039C85.4309 101.341 88.6337 99.2025 92.1586 97.7444C95.6836 96.2862 99.4614 95.5376 103.276 95.5412C109.175 95.5397 114.935 97.3367 119.787 100.692C124.639 104.048 128.352 108.803 130.432 114.324C127.704 110.81 123.692 108.523 119.278 107.964C114.865 107.406 110.41 108.623 106.892 111.347C103.377 114.074 101.088 118.086 100.53 122.5C99.972 126.915 101.19 131.37 103.915 134.887C105.481 136.901 107.486 138.532 109.776 139.655C112.067 140.778 114.583 141.365 117.135 141.369C119.686 141.374 122.205 140.797 124.499 139.682C126.794 138.567 128.804 136.943 130.377 134.935C128.289 140.431 124.578 145.161 119.737 148.497C114.896 151.834 109.155 153.618 103.276 153.614Z" fill="white"/>
<path d="M109.567 70.2756L123.385 48.7156C126.931 49.2907 130.562 48.4765 133.523 46.4426C136.483 44.4086 138.546 41.3114 139.281 37.7954C140.016 34.2794 139.367 30.6154 137.469 27.5656C135.571 24.5159 132.571 22.3153 129.092 21.4218C126.32 20.8479 123.44 21.1301 120.833 22.231C118.226 23.3319 116.015 25.1994 114.493 27.5858C112.972 29.9722 112.212 32.7648 112.314 35.5931C112.417 38.4213 113.377 41.1516 115.067 43.4218L97.9204 70.1724C90.7648 70.8762 83.8181 72.9832 77.4772 76.373C71.1363 79.7628 65.5255 84.3689 60.9656 89.9281C56.4056 95.4872 52.9858 101.89 50.9017 108.772C48.8175 115.653 48.1099 122.878 48.8192 130.033C50.2494 144.48 57.3577 157.767 68.5814 166.974C79.805 176.182 94.2255 180.555 108.673 179.134C123.121 177.706 136.41 170.598 145.619 159.374C154.827 148.15 159.202 133.729 157.781 119.281C156.547 106.835 151.091 95.187 142.319 86.272C133.548 77.3569 121.99 71.7121 109.567 70.2756ZM103.276 153.614C99.462 153.618 95.6847 152.869 92.1602 151.412C88.6358 149.954 85.4333 147.816 82.736 145.119C80.0388 142.423 77.8997 139.221 76.4412 135.696C74.9827 132.172 74.2333 128.395 74.2361 124.581C74.2324 120.767 74.9811 116.989 76.4392 113.464C77.8973 109.939 80.0363 106.736 82.7336 104.039C85.4309 101.341 88.6337 99.2025 92.1586 97.7444C95.6836 96.2862 99.4614 95.5376 103.276 95.5412C109.175 95.5397 114.935 97.3367 119.787 100.692C124.639 104.048 128.352 108.803 130.432 114.324C127.704 110.81 123.692 108.523 119.278 107.964C114.865 107.406 110.41 108.623 106.892 111.347C103.377 114.074 101.088 118.086 100.53 122.5C99.972 126.915 101.19 131.37 103.915 134.887C105.481 136.901 107.486 138.532 109.776 139.655C112.067 140.778 114.583 141.365 117.135 141.369C119.686 141.374 122.205 140.797 124.499 139.682C126.794 138.567 128.804 136.943 130.377 134.935C128.289 140.431 124.578 145.161 119.737 148.497C114.896 151.834 109.155 153.618 103.276 153.614Z" fill="white"/>
</g>
<defs>
<clipPath id="clip0_108_298">
<rect width="220" height="220" fill="white"/>
</clipPath>
</defs>
</svg>
