<svg width="220" height="220" viewBox="0 0 220 220" fill="none" xmlns="http://www.w3.org/2000/svg">
<g clip-path="url(#clip0_108_299)">
<path d="M110 220C170.751 220 220 170.751 220 110C220 49.2487 170.751 0 110 0C49.2487 0 0 49.2487 0 110C0 170.751 49.2487 220 110 220Z" fill="#4392CD"/>
<path fill-rule="evenodd" clip-rule="evenodd" d="M115.899 175.313H104.101C95.2463 175.313 92.7369 167.104 92.7369 160.834C92.7369 154.564 93.1838 151.724 93.1838 148.892C93.1838 144.423 90.9287 133.265 86.8381 128.59C78.87 119.481 73.8512 111.32 73.8512 99.4813C66.9212 95.8994 54.67 92.6132 49.9537 87.2438C45.2375 81.8744 41.25 74.25 41.25 63.3463C41.25 60.5619 41.8412 56.6294 43.0237 51.5557C45.7394 60.0394 49.9194 65.8557 55.5637 69.0182C63.8206 73.6519 73.1294 77.0825 81.0837 77.0825H138.916C146.871 77.0825 156.172 73.645 164.436 69.0182C170.074 65.8557 174.261 60.0394 176.976 51.5557C178.159 56.6294 178.75 60.5619 178.75 63.3463C178.75 74.2432 174.762 81.8607 170.046 87.23C165.33 92.5994 153.079 95.8925 146.149 99.4675C146.149 111.313 141.13 119.474 133.162 128.583C129.071 133.258 126.816 144.416 126.816 148.885C126.816 151.718 127.263 154.557 127.263 160.827C127.263 167.097 124.754 175.306 115.899 175.306V175.313Z" fill="white"/>
</g>
<defs>
<clipPath id="clip0_108_299">
<rect width="220" height="220" fill="white"/>
</clipPath>
</defs>
</svg>
