<svg width="220" height="220" viewBox="0 0 220 220" fill="none" xmlns="http://www.w3.org/2000/svg">
<g clip-path="url(#clip0_108_300)">
<path d="M110 220C170.751 220 220 170.751 220 110C220 49.2487 170.751 0 110 0C49.2487 0 0 49.2487 0 110C0 170.751 49.2487 220 110 220Z" fill="#5F45BA"/>
<path d="M71.7956 62.9749C71.0329 64.2606 69.906 65.2912 68.5575 65.9362C67.2089 66.5813 65.6993 66.8118 64.2197 66.5986C62.7401 66.3854 61.357 65.7381 60.2454 64.7386C59.1338 63.7391 58.3437 62.4323 57.975 60.9836C57.6063 59.5349 57.6757 58.0094 58.1743 56.6001C58.6729 55.1908 59.5783 53.9611 60.776 53.0666C61.9737 52.1721 63.4099 51.6529 64.9027 51.5749C66.3955 51.4968 67.878 51.8633 69.1625 52.6281C72.7443 54.7593 73.9268 59.3862 71.7956 62.9749ZM46.0143 59.6199C45.4755 60.5297 44.6787 61.2591 43.725 61.7157C42.7713 62.1723 41.7035 62.3356 40.6569 62.1849C39.6103 62.0342 38.632 61.5763 37.8458 60.8691C37.0597 60.162 36.5011 59.2375 36.2408 58.2126C35.9804 57.1878 36.0301 56.1087 36.3836 55.1121C36.737 54.1156 37.3782 53.2463 38.226 52.6144C39.0738 51.9825 40.0901 51.6165 41.1461 51.5626C42.2021 51.5087 43.2504 51.7695 44.1581 52.3118C46.6881 53.8243 47.5268 57.0899 46.0143 59.6199ZM117.782 168.932C125.482 168.023 132.927 165.6 139.686 161.801C146.445 158.003 152.386 152.905 157.166 146.8C161.947 140.696 165.472 133.706 167.539 126.233C169.606 118.76 170.174 110.952 169.211 103.258C168.247 95.5651 165.771 88.1384 161.924 81.4063C158.078 74.6741 152.938 68.7695 146.799 64.0327C140.661 59.2958 133.646 55.8203 126.159 53.8063C118.671 51.7924 110.859 51.2798 103.173 52.2981C98.2302 52.7603 93.3871 53.9752 88.8112 55.9006C83.4831 58.5131 80.0456 62.8649 80.0456 68.6881C80.0456 76.2506 86.1781 82.3968 93.7543 82.3968C95.0193 82.3968 99.3987 81.0081 100.444 80.6506C105.379 78.9286 110.663 78.455 115.825 79.2718C120.988 80.0887 125.868 82.1708 130.03 85.3322C134.192 88.4937 137.507 92.6362 139.679 97.3903C141.851 102.144 142.812 107.362 142.477 112.578C142.061 119.209 139.57 125.542 135.357 130.679C131.144 135.817 125.422 139.5 119 141.208C112.579 142.915 105.784 142.56 99.5752 140.193C93.3667 137.827 88.0595 133.568 84.4043 128.019V128.026C78.0793 119.742 79.5368 106.501 79.53 106.329C79.4064 103.05 78.113 99.9248 75.884 97.5177C73.6551 95.1106 70.6379 93.5812 67.3788 93.2064C64.1197 92.8317 60.8341 93.6363 58.1169 95.4746C55.3998 97.3129 53.4307 100.063 52.5662 103.228C52.2568 104.376 52.0987 107.738 52.1468 108.185C51.8001 116.681 53.3013 125.151 56.5469 133.01C59.7925 140.869 64.705 147.93 70.9454 153.706C77.1858 159.482 84.6053 163.834 92.6917 166.463C100.778 169.092 109.339 169.934 117.782 168.932ZM63.9375 83.9437C62.9488 85.6082 61.4889 86.9423 59.7422 87.7772C57.9955 88.6121 56.0404 88.9104 54.1242 88.6344C52.208 88.3583 50.4167 87.5203 48.9766 86.2263C47.5366 84.9323 46.5126 83.2404 46.034 81.3645C45.5554 79.4886 45.6438 77.5129 46.2879 75.6872C46.932 73.8615 48.1029 72.2678 49.6527 71.1075C51.2025 69.9472 53.0615 69.2724 54.9947 69.1685C56.9279 69.0646 58.8485 69.5362 60.5137 70.5237C65.1612 73.2874 66.6875 79.2962 63.9306 83.9437" fill="white"/>
</g>
<defs>
<clipPath id="clip0_108_300">
<rect width="220" height="220" fill="white"/>
</clipPath>
</defs>
</svg>
