<svg width="220" height="220" viewBox="0 0 220 220" fill="none" xmlns="http://www.w3.org/2000/svg">
<g clip-path="url(#clip0_108_301)">
<path d="M110 220C170.751 220 220 170.751 220 110C220 49.2487 170.751 0 110 0C49.2487 0 0 49.2487 0 110C0 170.751 49.2487 220 110 220Z" fill="#03E8B0"/>
<path d="M106.04 42.44C110.468 40.515 113.63 44.5987 116.366 47.335C121.248 51.4806 125.895 55.8875 130.295 60.535C132.818 63.2918 131.794 68.3312 128.363 69.8643C125.723 71.3081 122.499 70.2218 120.478 68.2143C115.163 63.1268 110.083 57.785 104.569 52.9243C101.145 50.1262 101.846 44.0556 106.04 42.44ZM154.399 56.5406C157.403 54.925 162.216 56.2381 163.048 59.82C164.319 63.0031 162.278 66.145 160.036 68.2693C155.121 73.1162 150.343 78.1006 145.564 83.0918C143.825 85.1956 140.752 85.7593 138.291 84.625C134.736 83.1537 133.774 77.8187 136.455 75.11C142.484 68.9775 147.806 62.1025 154.399 56.5475V56.5406ZM58.3688 57.5306C61.497 55.64 65.3676 56.8912 67.6845 59.4556C72.8957 64.715 78.272 69.7956 83.5313 74.9725C87.017 78.19 84.5832 85.01 79.7226 85.0375C75.6526 85.6562 73.4938 81.6343 70.7713 79.4343C66.0001 75.4812 61.6276 71.0812 57.2963 66.6468C54.8488 64.1237 55.5776 59.49 58.3757 57.5306H58.3688ZM62.4113 88.6056C67.657 86.5775 72.7788 93.1912 69.5063 97.7493C65.6357 102.796 60.5963 106.859 56.3751 111.623C53.8795 114.187 51.5626 118.134 47.4032 117.632C42.5426 117.446 40.102 110.688 43.6357 107.409C50.0226 101.297 55.0895 93.5693 62.4182 88.5987L62.4113 88.6056ZM168.809 103.229C172.418 100.871 177.863 103.552 177.98 107.904C178.509 111.987 174.453 114.146 172.219 116.896C168.286 121.626 163.969 126.04 159.514 130.289C156.255 133.362 150.178 131.203 149.593 126.748C148.83 122.149 153.148 119.296 155.87 116.353C160.38 112.166 164.189 107.237 168.809 103.229ZM76.0995 135.576C79.6057 133.479 84.9201 135.967 85.0026 140.223C85.6557 144.334 81.5926 146.514 79.372 149.257C75.4532 154.001 71.0807 158.352 66.667 162.649C63.8001 165.551 57.6813 164.155 56.8701 159.996C55.4813 155.974 58.8913 152.736 61.4901 150.212C66.5295 145.496 70.9088 140.106 76.0995 135.576ZM138.401 135.417C140.339 134.751 142.801 134.696 144.437 136.098C150.508 141.866 156.97 147.222 162.676 153.382C164.436 155.169 164.594 158.16 163.426 160.305C161.776 164.162 156.124 164.258 153.381 161.529C147.84 156.304 142.519 150.811 136.95 145.606C133.581 142.994 134.372 136.93 138.394 135.417H138.401ZM91.6507 150.164C94.5382 148.604 97.9345 150.082 100.011 152.282C105.213 157.511 110.517 162.639 115.919 167.661C119.494 171.057 117.074 177.953 112.035 178.008C107.965 178.489 105.848 174.447 103.118 172.233C98.4073 168.256 93.931 164.01 89.712 159.514C87.1407 156.778 88.1857 151.677 91.6507 150.164ZM82.3695 47.6787C82.3695 49.2614 81.7407 50.7792 80.6216 51.8984C79.5025 53.0175 77.9846 53.6462 76.402 53.6462C74.8193 53.6462 73.3014 53.0175 72.1823 51.8984C71.0632 50.7792 70.4345 49.2614 70.4345 47.6787C70.487 46.132 71.1383 44.6662 72.2511 43.5906C73.3638 42.515 74.8509 41.9137 76.3985 41.9137C77.9461 41.9137 79.4332 42.515 80.546 43.5906C81.6587 44.6662 82.3101 46.132 82.3626 47.6787H82.3695ZM99.7495 63.5462C99.7495 65.128 99.1211 66.645 98.0026 67.7634C96.8841 68.8819 95.3672 69.5103 93.7854 69.5103C92.2036 69.5103 90.6866 68.8819 89.5682 67.7634C88.4497 66.645 87.8213 65.128 87.8213 63.5462C87.8213 61.9644 88.4497 60.4475 89.5682 59.329C90.6866 58.2105 92.2036 57.5821 93.7854 57.5821C95.3672 57.5821 96.8841 58.2105 98.0026 59.329C99.1211 60.4475 99.7495 61.9644 99.7495 63.5462ZM53.1782 78.1212C53.2054 78.9215 53.0712 79.719 52.7837 80.4663C52.4962 81.2136 52.0613 81.8955 51.5048 82.4712C50.9483 83.0469 50.2816 83.5047 49.5445 83.8174C48.8074 84.1301 48.0149 84.2912 47.2141 84.2912C46.4134 84.2912 45.6209 84.1301 44.8838 83.8174C44.1466 83.5047 43.48 83.0469 42.9235 82.4712C42.367 81.8955 41.932 81.2136 41.6445 80.4663C41.3571 79.719 41.2229 78.9215 41.2501 78.1212C41.3026 76.5745 41.954 75.1087 43.0667 74.0331C44.1794 72.9575 45.6665 72.3562 47.2141 72.3562C48.7618 72.3562 50.2488 72.9575 51.3616 74.0331C52.4743 75.1087 53.1257 76.5745 53.1782 78.1212ZM147.861 47.2043C147.861 48.787 147.232 50.3049 146.113 51.424C144.994 52.5431 143.476 53.1718 141.893 53.1718C140.311 53.1718 138.793 52.5431 137.674 51.424C136.554 50.3049 135.926 48.787 135.926 47.2043C135.926 45.6207 136.555 44.102 137.675 42.9822C138.794 41.8625 140.313 41.2334 141.897 41.2334C143.48 41.2334 144.999 41.8625 146.119 42.9822C147.238 44.102 147.868 45.6207 147.868 47.2043H147.861ZM178.75 76.6293C178.75 78.2111 178.122 79.7281 177.003 80.8466C175.885 81.965 174.368 82.5934 172.786 82.5934C171.204 82.5934 169.687 81.965 168.569 80.8466C167.45 79.7281 166.822 78.2111 166.822 76.6293C166.822 75.0476 167.45 73.5306 168.569 72.4121C169.687 71.2936 171.204 70.6653 172.786 70.6653C174.368 70.6653 175.885 71.2936 177.003 72.4121C178.122 73.5306 178.75 75.0476 178.75 76.6293ZM162.449 93.7618C162.449 95.3436 161.821 96.8606 160.703 97.9791C159.584 99.0975 158.067 99.7259 156.485 99.7259C154.904 99.7259 153.387 99.0975 152.268 97.9791C151.15 96.8606 150.521 95.3436 150.521 93.7618C150.521 92.1801 151.15 90.6631 152.268 89.5446C153.387 88.4261 154.904 87.7978 156.485 87.7978C158.067 87.7978 159.584 88.4261 160.703 89.5446C161.821 90.6631 162.449 92.1801 162.449 93.7618ZM178.723 141.928C178.723 143.51 178.094 145.027 176.976 146.145C175.857 147.264 174.34 147.892 172.759 147.892C171.177 147.892 169.66 147.264 168.541 146.145C167.423 145.027 166.794 143.51 166.794 141.928C166.794 140.346 167.423 138.829 168.541 137.711C169.66 136.592 171.177 135.964 172.759 135.964C174.34 135.964 175.857 136.592 176.976 137.711C178.094 138.829 178.723 140.346 178.723 141.928ZM132.206 156.476C132.233 157.276 132.099 158.073 131.812 158.821C131.524 159.568 131.089 160.25 130.533 160.826C129.976 161.401 129.31 161.859 128.573 162.172C127.835 162.484 127.043 162.646 126.242 162.646C125.442 162.646 124.649 162.484 123.912 162.172C123.175 161.859 122.508 161.401 121.952 160.826C121.395 160.25 120.96 159.568 120.673 158.821C120.385 158.073 120.251 157.276 120.278 156.476C120.331 154.929 120.982 153.463 122.095 152.387C123.208 151.312 124.695 150.711 126.242 150.711C127.79 150.711 129.277 151.312 130.39 152.387C131.502 153.463 132.154 154.929 132.206 156.476ZM149.366 172.783C149.394 173.583 149.259 174.381 148.972 175.128C148.684 175.876 148.249 176.557 147.693 177.133C147.136 177.709 146.47 178.167 145.733 178.479C144.995 178.792 144.203 178.953 143.402 178.953C142.602 178.953 141.809 178.792 141.072 178.479C140.335 178.167 139.668 177.709 139.112 177.133C138.555 176.557 138.12 175.876 137.833 175.128C137.545 174.381 137.411 173.583 137.438 172.783C137.491 171.236 138.142 169.771 139.255 168.695C140.368 167.619 141.855 167.018 143.402 167.018C144.95 167.018 146.437 167.619 147.55 168.695C148.662 169.771 149.314 171.236 149.366 172.783ZM84.0538 172.783C84.0538 174.366 83.4251 175.884 82.306 177.003C81.1869 178.122 79.669 178.751 78.0863 178.751C76.5037 178.751 74.9858 178.122 73.8667 177.003C72.7475 175.884 72.1188 174.366 72.1188 172.783C72.1714 171.236 72.8227 169.771 73.9355 168.695C75.0482 167.619 76.5353 167.018 78.0829 167.018C79.6305 167.018 81.1176 167.619 82.2303 168.695C83.3431 169.771 83.9944 171.236 84.047 172.783H84.0538ZM69.4995 126.074C69.5266 126.875 69.3925 127.672 69.105 128.419C68.8175 129.167 68.3826 129.849 67.8261 130.424C67.2696 131 66.6029 131.458 65.8658 131.771C65.1286 132.083 64.3361 132.244 63.5354 132.244C62.7347 132.244 61.9422 132.083 61.205 131.771C60.4679 131.458 59.8012 131 59.2447 130.424C58.6882 129.849 58.2533 129.167 57.9658 128.419C57.6783 127.672 57.5442 126.875 57.5713 126.074C57.6238 124.528 58.2752 123.062 59.388 121.986C60.5007 120.911 61.9878 120.309 63.5354 120.309C65.083 120.309 66.5701 120.911 67.6828 121.986C68.7956 123.062 69.4469 124.528 69.4995 126.074ZM53.1782 143.406C53.2054 144.206 53.0712 145.004 52.7837 145.751C52.4962 146.499 52.0613 147.18 51.5048 147.756C50.9483 148.332 50.2816 148.79 49.5445 149.102C48.8074 149.415 48.0149 149.576 47.2141 149.576C46.4134 149.576 45.6209 149.415 44.8838 149.102C44.1466 148.79 43.48 148.332 42.9235 147.756C42.367 147.18 41.932 146.499 41.6445 145.751C41.3571 145.004 41.2229 144.206 41.2501 143.406C41.3026 141.859 41.954 140.394 43.0667 139.318C44.1794 138.242 45.6665 137.641 47.2141 137.641C48.7618 137.641 50.2488 138.242 51.3616 139.318C52.4743 140.394 53.1257 141.859 53.1782 143.406Z" fill="white"/>
</g>
<defs>
<clipPath id="clip0_108_301">
<rect width="220" height="220" fill="white"/>
</clipPath>
</defs>
</svg>
