<svg width="220" height="220" viewBox="0 0 220 220" fill="none" xmlns="http://www.w3.org/2000/svg">
<g clip-path="url(#clip0_108_302)">
<path d="M110 220C170.751 220 220 170.751 220 110C220 49.2487 170.751 0 110 0C49.2487 0 0 49.2487 0 110C0 170.751 49.2487 220 110 220Z" fill="#F7931E"/>
<path d="M110 27.5C64.4394 27.5 27.5 64.4394 27.5 110C27.5 155.561 64.4394 192.5 110 192.5C155.561 192.5 192.5 155.561 192.5 110C192.5 88.1196 183.808 67.1354 168.336 51.6637C152.865 36.1919 131.88 27.5 110 27.5ZM151.25 67.4644C155.353 67.4644 159.287 69.0941 162.188 71.9951C165.089 74.896 166.719 78.8306 166.719 82.9331V106.129C166.719 110.232 165.089 114.166 162.188 117.067C159.287 119.968 155.353 121.598 151.25 121.598H132.096L130.859 127.401C130.69 128.112 130.294 128.748 129.731 129.214C129.167 129.679 128.468 129.948 127.738 129.979H123.867C123.547 129.992 123.228 129.93 122.937 129.796C122.646 129.662 122.391 129.461 122.193 129.209C121.995 128.957 121.859 128.662 121.798 128.348C121.736 128.033 121.75 127.709 121.839 127.401L123.076 121.605H114.049L112.812 127.401C112.643 128.112 112.247 128.748 111.684 129.214C111.121 129.679 110.421 129.948 109.691 129.979H105.82C105.5 129.992 105.181 129.93 104.89 129.796C104.599 129.662 104.344 129.461 104.146 129.209C103.948 128.957 103.812 128.662 103.751 128.348C103.689 128.033 103.703 127.709 103.792 127.401L105.029 121.605H95.3562L86.8587 161.562H66.2337L81.3038 90.6606H101.929L98.6425 106.129H138.359C142.629 106.129 146.094 102.671 146.094 98.4019V90.6606C146.094 86.3981 142.629 82.9331 138.359 82.9331H53.2812L66.1719 67.4644H116.538L117.769 61.6619C117.937 60.9509 118.333 60.3143 118.897 59.849C119.46 59.3837 120.16 59.115 120.89 59.0837H124.761C125.081 59.0702 125.399 59.1329 125.691 59.2667C125.982 59.4006 126.237 59.6017 126.435 59.8535C126.633 60.1053 126.768 60.4006 126.83 60.715C126.891 61.0294 126.877 61.354 126.789 61.6619L125.558 67.4644H134.585L135.816 61.6619C135.984 60.9509 136.38 60.3143 136.944 59.849C137.507 59.3837 138.207 59.115 138.937 59.0837H142.807C143.128 59.0702 143.446 59.1329 143.737 59.2667C144.029 59.4006 144.284 59.6017 144.482 59.8535C144.68 60.1053 144.815 60.4006 144.877 60.715C144.938 61.0294 144.924 61.354 144.836 61.6619L143.605 67.4644H151.25Z" fill="white"/>
</g>
<defs>
<clipPath id="clip0_108_302">
<rect width="220" height="220" fill="white"/>
</clipPath>
</defs>
</svg>
