<svg width="220" height="220" viewBox="0 0 220 220" fill="none" xmlns="http://www.w3.org/2000/svg">
<g clip-path="url(#clip0_108_303)">
<path d="M110 220C170.751 220 220 170.751 220 110C220 49.2487 170.751 0 110 0C49.2487 0 0 49.2487 0 110C0 170.751 49.2487 220 110 220Z" fill="#00ACFF"/>
<path fill-rule="evenodd" clip-rule="evenodd" d="M103.675 138.573C104.102 138.395 104.56 138.304 105.023 138.305C105.486 138.305 105.944 138.397 106.371 138.576C106.797 138.754 107.185 139.015 107.51 139.344C107.836 139.672 108.093 140.062 108.267 140.491C108.623 141.355 108.623 142.326 108.266 143.19C107.909 144.054 107.225 144.742 106.363 145.104L82.9468 154.825L79.8393 171.875H63.7243L65.4912 162.071L55.9899 166.011C55.5626 166.188 55.1045 166.279 54.6418 166.279C54.1792 166.278 53.7212 166.186 53.2943 166.008C52.8674 165.83 52.48 165.569 52.1545 165.24C51.8289 164.911 51.5716 164.521 51.3974 164.093C51.0435 163.229 51.0451 162.26 51.4017 161.398C51.7584 160.535 52.4413 159.848 53.3018 159.486L66.983 153.808L68.0143 148.04L49.5412 155.705C49.1143 155.882 48.6567 155.972 48.1948 155.971C47.733 155.97 47.2758 155.877 46.8497 155.699C46.4236 155.521 46.0369 155.26 45.7119 154.932C45.3868 154.604 45.1298 154.215 44.9555 153.787C44.5995 152.923 44.6 151.952 44.9567 151.088C45.3135 150.224 45.9977 149.536 46.8599 149.174L69.4993 139.776L85.9855 48.194H132.55C161.061 47.2109 175.312 56.7328 175.312 76.7596C175.312 102.163 156.736 121.812 125.228 121.812H88.9624L87.0168 132.509L97.2399 128.267C97.6668 128.091 98.1244 128.001 98.5862 128.002C99.0481 128.003 99.5052 128.095 99.9314 128.273C100.357 128.451 100.744 128.712 101.069 129.04C101.394 129.368 101.651 129.757 101.826 130.185C102.179 131.049 102.178 132.018 101.821 132.88C101.465 133.743 100.782 134.43 99.9212 134.792L85.5043 140.78L84.4524 146.555L103.675 138.573ZM99.7562 62.6246L91.6987 106.797H127.572C149.655 106.797 158.029 91.7746 158.029 80.8778C158.029 69.9878 152.762 62.6246 135.19 62.6246H99.7562Z" fill="white"/>
</g>
<defs>
<clipPath id="clip0_108_303">
<rect width="220" height="220" fill="white"/>
</clipPath>
</defs>
</svg>
