<svg width="220" height="220" viewBox="0 0 220 220" fill="none" xmlns="http://www.w3.org/2000/svg">
<g clip-path="url(#clip0_108_304)">
<path d="M110 220C170.751 220 220 170.751 220 110C220 49.2487 170.751 0 110 0C49.2487 0 0 49.2487 0 110C0 170.751 49.2487 220 110 220Z" fill="#EDE708"/>
<path d="M184.8 91.7811L188.238 96.9373C195.113 79.6123 193.531 66.0686 187.344 60.1561C176.206 49.4311 159.844 55.4123 142.106 47.9873C127.325 37.1248 118.388 34.2373 106.081 34.2373C97.6757 35.6833 89.8944 39.6098 83.7376 45.5123C78.7736 45.222 73.8056 46.0121 69.1766 47.8281C64.5475 49.6441 60.3676 52.4428 56.9251 56.0311C49.6376 64.6248 47.9876 88.2061 46.8876 94.1873C45.7876 100.169 33.1376 124.3 34.4439 137.5C35.7501 150.7 45.4439 165 72.8751 168.369C77.9609 174.276 84.3069 178.966 91.4459 182.096C98.5849 185.225 106.335 186.713 114.125 186.45C128.494 184.937 148.5 162.937 160.119 154.206C171.738 145.475 213.125 137.912 188.444 97.2811C187.386 95.5053 186.239 93.7843 185.006 92.1248L184.8 91.7811ZM122.031 152.281C111.58 154.308 100.75 152.63 91.4021 147.536C82.0543 142.442 74.7738 134.25 70.8126 124.369C69.3001 118.456 66.3439 88.3436 91.4376 73.4248C110.138 62.8373 136.469 61.3936 147.538 86.0748C158.606 110.756 154.55 145.337 122.031 152.281Z" fill="white"/>
</g>
<defs>
<clipPath id="clip0_108_304">
<rect width="220" height="220" fill="white"/>
</clipPath>
</defs>
</svg>
