<svg width="220" height="220" viewBox="0 0 220 220" fill="none" xmlns="http://www.w3.org/2000/svg">
<g clip-path="url(#clip0_108_305)">
<path d="M110 220C170.751 220 220 170.751 220 110C220 49.2487 170.751 0 110 0C49.2487 0 0 49.2487 0 110C0 170.751 49.2487 220 110 220Z" fill="#302C2C"/>
<path d="M185.006 107.91C184.629 107.147 184.13 106.45 183.528 105.847C170.452 91.0387 143.839 61.875 143.839 61.875L110.035 98.8488L75.7971 62.2256C75.7971 62.2256 48.8746 91.6437 35.6815 106.611C33.9627 108.302 33.9627 111.354 35.5027 113.156C42.3571 120.966 76.024 158.091 76.024 158.091L109.986 120.869L143.715 158.125L184.395 113.121C184.395 113.121 185.254 112.227 185.44 111.629C185.838 110.392 185.55 109.044 185.006 107.91ZM54.4365 112.028C53.3365 110.729 53.7077 108.687 54.7321 107.456C59.0358 102.554 76.2577 84.0812 76.2577 84.0812L100.251 109.553L76.2165 135.843C76.2165 135.843 61.504 120.141 54.4365 112.028ZM164.354 112.894C163.847 113.763 163.258 114.58 162.594 115.335L143.963 135.582L119.9 110L143.578 84.0469C143.578 84.0469 157.218 98.175 163.467 105.772C163.996 106.432 164.622 107.058 164.89 107.896C165.461 109.539 165.096 111.368 164.347 112.888" fill="white"/>
</g>
<defs>
<clipPath id="clip0_108_305">
<rect width="220" height="220" fill="white"/>
</clipPath>
</defs>
</svg>
