<svg width="220" height="220" viewBox="0 0 220 220" fill="none" xmlns="http://www.w3.org/2000/svg">
<g clip-path="url(#clip0_108_306)">
<path d="M110 220C170.751 220 220 170.751 220 110C220 49.2487 170.751 0 110 0C49.2487 0 0 49.2487 0 110C0 170.751 49.2487 220 110 220Z" fill="#663300"/>
<path d="M80.355 69.1831L88.9487 48.125L147.812 48.3381C156.406 48.9844 166.719 48.9844 172.521 56.2925C179.396 64.24 177.891 75.625 174.453 84.645C171.14 94.3523 165.389 103.046 157.752 109.893C150.115 116.741 140.848 121.512 130.838 123.75C116.662 125.902 102.266 125.256 87.8694 125.256C90.7362 118.264 93.6031 111.244 96.4631 104.197C108.281 104.197 120.312 104.844 132.344 102.912C143.302 100.121 153.402 89.1619 151.683 77.1306C150.604 71.9744 144.808 69.6094 139.858 69.6094C120.099 68.75 100.327 69.6094 80.5681 69.1763H80.355V69.1831Z" fill="white"/>
<path d="M55 74.9775H124.823L115.589 98.8269H45.54L55 75.1907V74.9844V74.9775ZM66.1719 104.196H90.4475L65.1063 168.649H41.25L66.385 104.196H66.1719Z" fill="white"/>
</g>
<defs>
<clipPath id="clip0_108_306">
<rect width="220" height="220" fill="white"/>
</clipPath>
</defs>
</svg>
