<svg width="220" height="220" viewBox="0 0 220 220" fill="none" xmlns="http://www.w3.org/2000/svg">
<g clip-path="url(#clip0_108_307)">
<path d="M110 220C170.751 220 220 170.751 220 110C220 49.2487 170.751 0 110 0C49.2487 0 0 49.2487 0 110C0 170.751 49.2487 220 110 220Z" fill="#ED79AA"/>
<path opacity="0.5" fill-rule="evenodd" clip-rule="evenodd" d="M161.233 61.3869L148.376 74.3325C143.744 69.6478 138.228 65.9295 132.148 63.3933C126.068 60.8571 119.544 59.5535 112.956 59.5581C86.0408 59.5581 64.0751 80.9394 62.9201 107.752H62.8651V156.716C51.1444 143.985 44.6536 127.304 44.6876 110C44.6876 72.0294 75.2539 41.25 112.956 41.25C121.936 41.2436 130.827 43.0204 139.114 46.4771C147.401 49.9338 154.919 55.0018 161.233 61.3869ZM161.233 158.613C148.753 171.239 131.821 178.469 114.07 178.75V160.435C126.988 160.155 139.291 154.862 148.376 145.674L161.233 158.613Z" fill="white"/>
<path fill-rule="evenodd" clip-rule="evenodd" d="M80.3071 170.39V107.759H80.3553C81.3178 89.8494 96.044 75.625 114.07 75.625C132.715 75.625 147.833 90.8462 147.833 109.629C147.833 128.404 132.715 143.626 114.077 143.626C108.072 143.636 102.175 142.028 97.0065 138.971V176.859C91.1778 175.456 85.562 173.283 80.3071 170.397V170.39ZM114.07 126.816C116.32 126.809 118.546 126.359 120.621 125.491C122.697 124.623 124.581 123.355 126.166 121.759C127.751 120.163 129.007 118.27 129.86 116.189C130.714 114.107 131.149 111.878 131.141 109.629C131.141 100.134 123.496 92.4412 114.07 92.4412C111.821 92.4494 109.596 92.9004 107.521 93.7685C105.447 94.6367 103.563 95.9049 101.979 97.5009C100.394 99.097 99.1395 100.989 98.2864 103.07C97.4333 105.151 96.9984 107.38 97.0065 109.629C97.0065 119.116 104.645 126.816 114.07 126.816Z" fill="white"/>
</g>
<defs>
<clipPath id="clip0_108_307">
<rect width="220" height="220" fill="white"/>
</clipPath>
</defs>
</svg>
