<svg width="220" height="220" viewBox="0 0 220 220" fill="none" xmlns="http://www.w3.org/2000/svg">
<g clip-path="url(#clip0_108_308)">
<path d="M110 220C170.751 220 220 170.751 220 110C220 49.2487 170.751 0 110 0C49.2487 0 0 49.2487 0 110C0 170.751 49.2487 220 110 220Z" fill="#96B73D"/>
<path d="M79.7088 110.722C80.3 112.496 81.1731 114.16 82.3006 115.659L65.1613 98.3473C63.3753 96.5459 62.3732 94.112 62.3732 91.5754C62.3732 89.0388 63.3753 86.6048 65.1613 84.8035L86.7831 63.1679C87.23 62.8379 87.6563 62.4804 88.0688 62.1091L88.6944 61.5591L106.205 44.0348C107.086 43.1504 108.133 42.449 109.286 41.9711C110.439 41.4932 111.675 41.2481 112.923 41.25C114.171 41.2519 115.406 41.5008 116.558 41.9823C117.709 42.4638 118.754 43.1683 119.632 44.0554L176.99 101.826C178.297 103.684 178.91 105.942 178.72 108.205C178.53 110.469 177.55 112.594 175.952 114.208C174.374 115.799 172.298 116.8 170.07 117.044C167.843 117.288 165.599 116.76 163.714 115.549L113.046 64.3985L112.991 64.3298L112.826 64.151L85.7175 91.266L85.305 91.6098C85.2893 91.6284 85.2733 91.6467 85.2569 91.6648L112.042 118.663C113.221 119.855 114.068 121.334 114.5 122.954C114.931 124.574 114.931 126.279 114.5 127.899C114.07 129.52 113.223 130.999 112.044 132.191C110.865 133.383 109.395 134.247 107.779 134.695C106.165 135.13 104.463 135.13 102.849 134.694C101.234 134.258 99.7639 133.402 98.5875 132.214L84.865 118.395C84.6656 118.216 84.4663 117.982 84.2188 117.735L83.5863 117.102C83.1264 116.585 82.6971 116.041 82.3006 115.473L82.61 115.837L82.4038 115.569C81.2521 114.108 80.3422 112.472 79.7088 110.722ZM135.713 128.412L108.893 101.4C107.107 99.5984 106.105 97.1645 106.105 94.6279C106.105 92.0913 107.107 89.6573 108.893 87.856C109.776 86.9706 110.825 86.2687 111.979 85.7905C113.134 85.3124 114.373 85.0675 115.623 85.0701C116.873 85.0726 118.11 85.3225 119.263 85.8054C120.416 86.2883 121.462 86.9945 122.341 87.8835L136.07 101.702C136.263 101.874 136.462 102.115 136.716 102.355L137.342 102.988C137.699 103.387 138.029 103.813 138.332 104.246L138.483 104.432C138.29 104.156 138.093 103.883 137.892 103.614L155.836 121.674C157.624 123.477 158.628 125.913 158.628 128.453C158.628 130.992 157.624 133.429 155.836 135.232L134.2 156.874C133.747 157.198 133.311 157.544 132.894 157.912L114.854 175.952C113.974 176.839 112.928 177.543 111.775 178.023C110.622 178.503 109.386 178.751 108.137 178.751C106.888 178.751 105.651 178.503 104.499 178.023C103.346 177.543 102.299 176.839 101.42 175.952L43.1406 117.192C41.7207 115.265 41.0648 112.881 41.2997 110.499C41.5346 108.117 42.6435 105.906 44.4125 104.294C46.1759 102.69 48.4773 101.807 50.8609 101.82C53.2445 101.833 55.5364 102.74 57.2825 104.363L108.048 155.616L108.219 155.822L135.273 128.776L135.671 128.453C135.685 128.439 135.699 128.425 135.713 128.412Z" fill="white"/>
</g>
<defs>
<clipPath id="clip0_108_308">
<rect width="220" height="220" fill="white"/>
</clipPath>
</defs>
</svg>
