<svg width="220" height="220" viewBox="0 0 220 220" fill="none" xmlns="http://www.w3.org/2000/svg">
<g clip-path="url(#clip0_108_309)">
<path d="M110 220C170.751 220 220 170.751 220 110C220 49.2487 170.751 0 110 0C49.2487 0 0 49.2487 0 110C0 170.751 49.2487 220 110 220Z" fill="#5E4778"/>
<path fill-rule="evenodd" clip-rule="evenodd" d="M72.1875 84.1569H114.489V92.785H72.1875V84.1569ZM154.688 88.2131C154.688 108.659 140.181 121.866 120.12 121.866H92.3313V165H81.3312V112.111H118.628C133.581 112.111 143.344 103.228 143.344 88.2131C143.344 73.3769 133.581 64.7488 118.8 64.7488H107.195L79.3994 64.8381V55H120.031C140.174 55 154.681 67.7669 154.681 88.2131H154.688Z" fill="white" stroke="white"/>
</g>
<defs>
<clipPath id="clip0_108_309">
<rect width="220" height="220" fill="white"/>
</clipPath>
</defs>
</svg>
