<svg width="220" height="220" viewBox="0 0 220 220" fill="none" xmlns="http://www.w3.org/2000/svg">
<g clip-path="url(#clip0_108_310)">
<path d="M110 220C170.751 220 220 170.751 220 110C220 49.2487 170.751 0 110 0C49.2487 0 0 49.2487 0 110C0 170.751 49.2487 220 110 220Z" fill="#00BFFF"/>
<path d="M57.8187 143.701H57.145V171.875H41.25V76.4844H56.7875V80.8844H57.3994C62.8237 75.6869 69.7331 75.5425 73.6106 75.5425C89.8631 75.5425 100.519 91.0319 100.519 111.719V114.4C100.519 135.926 88.1856 148.754 73.3356 148.754C66.385 148.775 61.2356 147.187 57.8187 143.701ZM85.7588 115.679V110.983C85.7588 97.5081 80.6231 88.495 71.4725 88.495C61.5863 88.495 56.2856 98.9725 56.2856 110.983V115.658C56.2856 127.105 61.5037 135.871 71.7475 135.871C79.8119 135.843 85.7588 129.559 85.7588 115.679ZM108.213 48.125H124.128V148.335H108.213V48.125ZM169.599 92.1869C160.676 92.1869 151.814 99.2681 151.814 108.219V148.397H135.988V77.1581H150.652V81.5375H151.25C154.811 77.7837 163.522 76.0238 170.686 76.1269C171.401 76.1269 170.809 76.1475 171.504 76.1475L171.586 92.1869H169.599ZM162.917 131.278H178.75V148.335H162.917V131.278Z" fill="white"/>
</g>
<defs>
<clipPath id="clip0_108_310">
<rect width="220" height="220" fill="white"/>
</clipPath>
</defs>
</svg>
