<svg width="220" height="220" viewBox="0 0 220 220" fill="none" xmlns="http://www.w3.org/2000/svg">
<g clip-path="url(#clip0_108_311)">
<path d="M110 220C170.751 220 220 170.751 220 110C220 49.2487 170.751 0 110 0C49.2487 0 0 49.2487 0 110C0 170.751 49.2487 220 110 220Z" fill="#444FA1"/>
<path d="M34.375 165L110 34.375L185.625 165H34.375ZM81.62 98.4775C90.4544 92.5788 99.9281 89.6019 110 89.6019C120.072 89.6019 129.546 92.5788 138.38 98.4775L110 49.4587L81.62 98.4775ZM68.2069 121.646L47.6025 157.238H172.398L151.793 121.653C139.349 135.327 125.372 142.271 110 142.271C94.6275 142.271 80.6437 135.327 68.2 121.646H68.2069ZM110 134.509C123.324 134.509 135.513 128.391 146.699 115.947C135.513 103.482 123.324 97.3706 110 97.3706C96.6763 97.3706 84.4869 103.489 73.3012 115.94C84.4869 128.397 96.6763 134.516 110 134.516V134.509ZM110 131.189C102.025 131.189 95.5556 124.486 95.5556 116.215C95.5556 107.951 102.018 101.248 110 101.248C117.982 101.248 124.444 107.951 124.444 116.215C124.444 124.486 117.982 131.189 110 131.189ZM110 123.42C113.843 123.42 116.957 120.196 116.957 116.215C116.957 112.234 113.843 109.01 110 109.01C106.157 109.01 103.042 112.241 103.042 116.215C103.042 120.202 106.157 123.427 110 123.427V123.42Z" fill="white"/>
</g>
<defs>
<clipPath id="clip0_108_311">
<rect width="220" height="220" fill="white"/>
</clipPath>
</defs>
</svg>
