<svg width="220" height="220" viewBox="0 0 220 220" fill="none" xmlns="http://www.w3.org/2000/svg">
<g clip-path="url(#clip0_108_312)">
<path d="M110 220C170.751 220 220 170.751 220 110C220 49.2487 170.751 0 110 0C49.2487 0 0 49.2487 0 110C0 170.751 49.2487 220 110 220Z" fill="#DCD6CC"/>
<path d="M170.211 53.1576C164.685 47.7131 157.234 44.6693 149.476 44.6876C141.604 44.6876 134.276 47.7126 128.741 53.1576L60.9812 119.886C60.6395 120.229 60.3741 120.64 60.2023 121.093C60.0305 121.546 59.9563 122.029 59.9844 122.513V156.86L41.25 175.313H51.5831L65.4569 161.652H100.134C100.621 161.657 101.104 161.56 101.551 161.369C101.998 161.177 102.401 160.894 102.733 160.538L170.149 94.1395L170.218 94.0707C172.916 91.4131 175.059 88.2465 176.523 84.7544C177.988 81.2623 178.745 77.5143 178.75 73.7276C178.769 69.905 178.023 66.1173 176.557 62.5871C175.09 59.057 172.933 55.8556 170.211 53.1713V53.1576ZM130.804 60.9126L133.671 58.0938C137.882 53.944 143.564 51.6304 149.476 51.6588C155.409 51.6588 161.012 53.9551 165.282 58.0938C165.351 58.1626 165.419 58.2863 165.55 58.3551C169.613 62.4938 171.813 67.877 171.813 73.6588C171.813 79.5026 169.476 85.0163 165.282 89.2238L162.346 92.1113H136.139L153.347 75.1645C154.005 74.5222 154.386 73.6488 154.411 72.7297C154.435 71.8106 154.1 70.9182 153.477 70.242C153.409 70.1732 153.409 70.1045 153.34 70.0426C152.65 69.3812 151.731 69.012 150.776 69.012C149.82 69.012 148.901 69.3812 148.211 70.0426L130.872 87.1201V60.9057L130.804 60.9126ZM72.5312 154.694L86.6662 140.766H112.874L98.7388 154.694H72.5312ZM113.671 114.104L130.412 97.6182H156.619L139.879 114.104H113.671ZM134.145 119.756L118.539 135.121H92.3312L107.937 119.756H134.145ZM108.343 83.0432L125.146 66.4882V92.627L108.343 109.244V83.0432ZM87.0031 104.053L102.609 88.6876V114.826L87.0031 130.192V104.053ZM66.9969 123.757L81.3312 109.704V135.843L66.9969 149.896V123.757Z" fill="white"/>
</g>
<defs>
<clipPath id="clip0_108_312">
<rect width="220" height="220" fill="white"/>
</clipPath>
</defs>
</svg>
