<svg width="220" height="220" viewBox="0 0 220 220" fill="none" xmlns="http://www.w3.org/2000/svg">
<g clip-path="url(#clip0_108_313)">
<path d="M110 220C170.751 220 220 170.751 220 110C220 49.2487 170.751 0 110 0C49.2487 0 0 49.2487 0 110C0 170.751 49.2487 220 110 220Z" fill="#2C3E50"/>
<path d="M176.247 155.924V149.049C176.247 147.687 175.333 146.78 173.944 146.78H169.372V139.877C169.372 138.509 168.458 137.581 167.097 137.581H162.518V87.0843H167.069C168.438 87.0843 169.372 86.1768 169.372 84.788V77.913H173.944C174.483 77.9356 175.011 77.7609 175.43 77.4217C175.849 77.0825 176.13 76.602 176.22 76.0705C176.454 74.9292 175.993 74.0217 175.086 73.5405L111.024 41.4205C110.36 41.1932 109.64 41.1932 108.976 41.4205L42.6181 73.5405C42.1825 73.7777 41.8356 74.1499 41.6298 74.6013C41.424 75.0526 41.3703 75.5585 41.4769 76.043C41.4769 77.2118 42.3912 77.913 43.5256 77.913H50.4006V84.788C50.4006 86.1493 51.315 87.0568 52.6763 87.0568H57.255V137.581H52.7037C51.3287 137.581 50.4006 138.489 50.4006 139.85V146.752H45.8287C44.4537 146.752 43.5463 147.66 43.5463 149.028V155.924C42.185 155.924 41.25 156.838 41.25 158.227C41.25 159.616 42.1575 160.523 43.5256 160.523H176.247C177.609 160.523 178.544 159.616 178.544 158.254C178.544 156.879 177.636 155.924 176.275 155.924H176.247ZM54.9519 82.4849V77.913H164.773V82.4849H54.9519ZM148.747 87.0911V137.581H139.618V87.0843H148.747V87.0911ZM125.868 87.0911V137.581H116.717V87.0843H125.861L125.868 87.0911ZM102.987 87.0911V137.581H93.8575V87.0843H102.987V87.0911ZM80.1075 87.0911V137.581H70.9844V87.0843H80.1075V87.0911ZM164.773 146.752H54.9794V142.153H164.794V146.752H164.773Z" fill="white"/>
</g>
<defs>
<clipPath id="clip0_108_313">
<rect width="220" height="220" fill="white"/>
</clipPath>
</defs>
</svg>
