<svg width="220" height="220" viewBox="0 0 220 220" fill="none" xmlns="http://www.w3.org/2000/svg">
<g clip-path="url(#clip0_108_314)">
<path d="M110 220C170.751 220 220 170.751 220 110C220 49.2487 170.751 0 110 0C49.2487 0 0 49.2487 0 110C0 170.751 49.2487 220 110 220Z" fill="#4C5A95"/>
<path d="M185.625 77.4331L185.322 72.5725L183.824 76.6494L175.395 83.7306L165.742 85.1675L162.855 82.4931L171.318 71.2663L179.981 68.75L170.603 68.9425L156.97 78.4437L144.189 77.5637L126.246 68.75L115.644 70.8056L82.5688 97.2469L66.6325 102.176L60.0737 108.577L48.345 108.735L42.5356 119.116L34.375 121.371L42.0888 122.382L49.2594 113.08L60.3419 115.301L60.1356 125.256L54.6012 139.583L51.4387 152.838L48.0356 158.125L56.6706 156.296L55.6875 150.879L63.03 136.317L77.165 130.838L82.6375 122.121L91.8844 115.658L110.241 118.236L128.728 110.433L125.599 122.774L117.377 123.489L115.033 133.609L122.066 129.106L133.726 124.245L142.835 110.502L143.413 104.005L148.308 108.866L162.546 117.452L170.637 113.761L170.163 95.6175L167.812 88.5981L178.386 86.02L185.625 77.4331Z" fill="white"/>
</g>
<defs>
<clipPath id="clip0_108_314">
<rect width="220" height="220" fill="white"/>
</clipPath>
</defs>
</svg>
