<svg width="220" height="220" viewBox="0 0 220 220" fill="none" xmlns="http://www.w3.org/2000/svg">
<g clip-path="url(#clip0_108_315)">
<path d="M110 220C170.751 220 220 170.751 220 110C220 49.2487 170.751 0 110 0C49.2487 0 0 49.2487 0 110C0 170.751 49.2487 220 110 220Z" fill="#105B2F"/>
<path fill-rule="evenodd" clip-rule="evenodd" d="M82.7269 124.989L80.0456 138.649L75.1644 163.75C75.0269 164.506 74.8344 165.015 73.8719 165.001C67.8081 164.912 61.7444 164.863 55.6806 164.795C55.5362 164.795 55.385 164.699 55 164.554L68.6812 96.2166H57.1519C57.1794 95.7079 57.1656 95.4054 57.2206 95.1166C57.9287 91.4248 58.6919 87.7398 59.3313 84.0341C59.51 83.0029 59.9706 82.7416 60.9331 82.7485C63.7519 82.776 66.5706 82.6729 69.3756 82.7691C70.7162 82.8104 71.2319 82.4254 71.4931 81.1054C73.0606 72.9379 74.7381 64.7979 76.3469 56.6441C76.5394 55.6748 76.7525 55.0079 78.0175 55.0079C91.8225 55.0491 105.634 54.9185 119.439 55.0973C127.497 55.2004 135.575 55.6129 143.502 57.2423C146.231 57.806 149.002 58.5348 151.532 59.6623C158.806 62.8935 163.185 68.4898 164.402 76.2379C166.292 88.276 163.742 99.3379 156.014 108.977C150.308 116.072 142.484 120.052 133.746 122.472C126.816 124.39 119.708 124.989 112.544 125.002C103.228 125.023 93.9125 125.002 84.5969 124.995H82.7269V124.989ZM86.5425 106.165H88.4881C98.34 106.165 108.192 106.185 118.051 106.151C120.147 106.151 122.272 106.062 124.355 105.807C132.309 104.859 138.353 101.043 142.216 94.1198C143.874 91.1175 144.431 87.6303 143.791 84.261C142.979 79.4691 140.119 76.341 135.259 75.461C131.7 74.7828 128.093 74.392 124.472 74.2923C114.352 74.1066 104.232 74.1823 94.105 74.1548C93.7406 74.1548 93.3762 74.2098 92.8881 74.251L91.2106 82.831H119.329L116.744 96.1548H88.5363L86.5425 106.165Z" fill="white"/>
</g>
<defs>
<clipPath id="clip0_108_315">
<rect width="220" height="220" fill="white"/>
</clipPath>
</defs>
</svg>
