<svg width="220" height="220" viewBox="0 0 220 220" fill="none" xmlns="http://www.w3.org/2000/svg">
<g clip-path="url(#clip0_108_316)">
<path d="M110 220C170.751 220 220 170.751 220 110C220 49.2487 170.751 0 110 0C49.2487 0 0 49.2487 0 110C0 170.751 49.2487 220 110 220Z" fill="#05BCA9"/>
<path fill-rule="evenodd" clip-rule="evenodd" d="M192.466 109.684C192.535 109.999 192.495 110.327 192.353 110.616C192.21 110.905 191.974 111.136 191.682 111.273L191.16 111.52L175.306 127.415L181.452 150.412C181.549 150.774 181.498 151.159 181.311 151.484C181.125 151.809 180.817 152.046 180.455 152.144L158.393 158.064L152.309 180.82C152.214 181.181 151.979 181.489 151.657 181.677C151.335 181.865 150.951 181.918 150.59 181.824L127.284 175.568L110.798 192.088C110.667 192.22 110.512 192.325 110.341 192.396C110.17 192.467 109.986 192.504 109.801 192.504C109.615 192.504 109.432 192.467 109.261 192.396C109.09 192.325 108.934 192.22 108.804 192.088L92.517 175.76L69.9533 181.824C69.775 181.872 69.589 181.884 69.406 181.859C69.223 181.835 69.0466 181.775 68.8869 181.682C68.7273 181.59 68.5874 181.466 68.4755 181.32C68.3635 181.173 68.2817 181.005 68.2345 180.827L62.1433 158.071L40.0883 152.144C39.9088 152.097 39.7405 152.014 39.5932 151.901C39.4458 151.788 39.3222 151.646 39.2296 151.485C39.137 151.324 39.0771 151.147 39.0533 150.962C39.0296 150.778 39.0426 150.591 39.0914 150.412L45.0383 128.158L27.9195 110.991C27.6567 110.725 27.5093 110.367 27.5093 109.994C27.5093 109.62 27.6567 109.262 27.9195 108.997L44.5639 92.2975L38.617 70.05C38.5205 69.6872 38.572 69.3009 38.7603 68.976C38.9485 68.6511 39.258 68.4143 39.6208 68.3175L62.6864 62.1163L68.6952 39.635C68.7919 39.2722 69.0287 38.9627 69.3536 38.7745C69.6785 38.5863 70.0648 38.5348 70.4277 38.6313L92.2489 44.4957L108.804 27.8994C109.072 27.643 109.43 27.5 109.801 27.5C110.172 27.5 110.529 27.643 110.798 27.8994L127.552 44.6882L150.116 38.6244C150.295 38.5767 150.482 38.5648 150.666 38.5895C150.85 38.6141 151.027 38.6748 151.187 38.7681C151.347 38.8613 151.488 38.9853 151.6 39.1329C151.712 39.2805 151.794 39.4488 151.841 39.6282L152 40.2194C152.034 40.3082 152.059 40.4004 152.075 40.4944L157.85 62.1094L180.923 68.3107C181.679 68.5169 182.119 69.2869 181.92 70.0432L175.773 93.0331L191.29 108.591C191.573 108.632 191.837 108.757 192.047 108.951C192.257 109.145 192.403 109.399 192.466 109.678V109.684ZM174.46 124.259L183.714 114.992L173.285 119.853L174.46 124.266V124.259ZM177.836 147.82L173.003 129.725L163.398 139.35V139.357L177.836 147.82ZM162.642 142.183L159.239 154.915L176.461 150.288L162.642 142.189V142.183ZM150.281 177.493L155.251 158.909L141.68 162.553L150.281 177.493ZM133.066 169.758L129.58 173.258L143.255 176.929L133.066 169.758ZM111.21 187.674L124.135 174.715L111.21 171.243V187.674ZM108.391 171.498L95.6658 174.914L108.385 187.674V171.498H108.391ZM72.717 178.153L90.2208 173.457L80.8433 164.052L72.717 178.153ZM65.292 158.909L69.1764 173.443L70.3452 160.271L65.292 158.909ZM44.0483 150.281L61.3045 154.915L57.867 142.079L44.0483 150.281ZM56.4714 139.625L47.3414 130.468L42.7077 147.793L56.4714 139.625ZM32.5464 111.644L45.8839 125.009L49.452 111.644H32.5464ZM46.8464 100.816L45.4095 95.4532L34.1758 106.714L46.8464 100.816ZM42.2264 72.6144L46.867 89.9875L56.1483 80.6857L42.2264 72.6144ZM58.3002 78.5269L61.8477 65.2719L43.6289 70.1669L58.2108 78.6163L58.3002 78.5269ZM70.4827 43.8769L65.8352 61.2707L78.5333 57.8607L70.4827 43.8838V43.8769ZM86.5839 50.1744L89.9458 46.8057L76.7733 43.265L86.5839 50.1744ZM108.391 32.3132L95.3977 45.3413L108.391 48.8338V32.3132ZM111.21 49.0882L124.41 45.5407L111.21 32.3132V49.0882ZM148.308 42.0482L129.855 46.9982L139.741 56.9188L148.308 42.0482ZM150.391 60.1157L154.708 61.2707L151.388 48.8475L150.391 60.1157ZM176.86 70.1532L158.696 65.2719L162.202 78.4169L176.853 70.1463L176.86 70.1532ZM163.625 80.8575L173.47 90.7232L178.331 72.5525L163.625 80.8575ZM187.289 108.571L174.935 96.1888L171.621 108.571H187.289ZM171.023 111.396L172.535 117.068L184.711 111.396H171.03H171.023ZM168.891 118.766L169.943 118.285L169.483 116.566L168.898 118.766H168.891ZM167.943 122.328L164.849 133.884L172.157 126.563L170.686 121.049L167.943 122.328ZM159.411 143.344L143.715 159.074L156.09 155.754L159.411 143.344ZM139.7 159.109L160.868 137.886L164.608 123.881L128.975 140.484L139.7 159.109ZM139.095 163.715L135.094 167.723L145.709 175.196L139.095 163.715ZM131.595 165.262L132.75 166.073L134.283 164.533L131.595 165.262ZM128.04 166.211L115.72 169.524L126.438 172.405L130.728 168.101L128.047 166.211H128.04ZM104.823 169.524L84.9752 164.189L93.3627 172.604L104.823 169.524ZM73.4939 156.682L73.3564 158.146L75.5358 158.731L73.4939 156.682ZM70.8883 154.069L61.4764 144.651L64.4464 155.768L70.5995 157.418L70.8883 154.083V154.069ZM56.0314 135.184L51.0539 116.566L48.1802 127.312L56.0314 135.184ZM48.9845 108.818L47.582 103.586L36.3552 108.811H48.9845V108.818ZM52.1745 101.441L50.1808 102.376L51.0539 105.649L52.1745 101.441ZM53.1302 97.8869L56.8427 83.9857L47.7127 93.1432L49.4383 99.6057L53.1302 97.8869ZM62.2877 74.5257L75.0683 61.7175L64.9895 64.4263L62.2877 74.5325V74.5257ZM80.7402 56.0319L84.5627 52.2025L74.4152 45.0594L80.7402 56.0319ZM88.7152 55.1244L86.907 53.8525L84.5008 56.2588L88.7152 55.1244ZM92.2695 54.1688L104.823 50.8L93.0945 47.6513L88.9283 51.8175L92.2695 54.1688ZM115.713 50.8L134.757 55.915L126.713 47.8507L115.713 50.8ZM147.18 64.3713L147.373 62.2263L144.19 61.3738L147.18 64.3713ZM149.779 66.9838L158.593 75.8182L155.547 64.4263L150.136 62.9688L149.779 66.9838ZM164.038 85.2713L169.483 105.649L172.631 93.8857L164.038 85.2782V85.2713ZM124.341 132.441L127.559 138.03L165.564 120.327L167.95 111.403H145.846L144.726 124.012C144.699 124.308 144.579 124.588 144.384 124.812C144.188 125.036 143.927 125.193 143.637 125.259C143.347 125.326 143.043 125.299 142.77 125.182C142.496 125.065 142.266 124.865 142.113 124.61L135.252 112.991L124.341 132.441ZM118.951 142.045L124.995 139.226L122.733 135.308L118.951 142.045ZM94.9852 139.501L128.583 163.151L137.404 160.779L126.404 141.688L116.174 146.459C115.902 146.587 115.597 146.625 115.302 146.568C115.007 146.51 114.738 146.36 114.535 146.139C114.332 145.918 114.204 145.637 114.171 145.339C114.138 145.04 114.202 144.739 114.352 144.479L120.766 133.046L98.5602 133.293L94.9852 139.494V139.501ZM93.5689 141.956L82.7752 160.683L110.275 168.067L125.029 164.1L93.5689 141.956ZM95.2808 133.328L86.3639 133.431L92.6683 137.865L95.2808 133.328ZM77.4745 111.644L73.817 153.018L80.2383 159.446L91.252 140.319L81.1595 133.224C80.916 133.052 80.7333 132.806 80.6375 132.524C80.5417 132.241 80.5378 131.935 80.6262 131.65C80.7147 131.365 80.891 131.115 81.13 130.936C81.369 130.757 81.6585 130.658 81.957 130.653L95.597 130.495L84.4595 111.644H77.4814H77.4745ZM74.6558 111.644H52.6558L60.012 139.178L71.2183 150.405L74.6558 111.644ZM82.782 108.818L78.3889 101.379L77.7289 108.818H82.782ZM92.7508 82.5419L55.5158 99.8944L53.1302 108.818H74.9033L75.9689 96.7594C75.9997 96.4657 76.1216 96.1889 76.3175 95.9678C76.5134 95.7467 76.7735 95.5925 77.0614 95.5266C77.3493 95.4606 77.6506 95.4864 77.9232 95.6002C78.1957 95.714 78.4259 95.9102 78.5814 96.1613L85.477 107.828L96.2502 88.6263L92.7439 82.5419H92.7508ZM91.3345 80.0875L80.1283 60.6382L60.8302 79.9913L56.4645 96.3332L91.3345 80.0875ZM125.758 81.2013L91.7264 57.2419L82.8164 59.6413L93.8989 78.8913L104.899 73.7625C105.171 73.6343 105.476 73.5961 105.771 73.6537C106.066 73.7113 106.334 73.8616 106.538 74.0826C106.741 74.3037 106.869 74.584 106.902 74.8826C106.935 75.1812 106.871 75.4825 106.721 75.7425L100.286 87.21L122.437 86.9625L125.758 81.2013ZM127.174 78.74L138.112 59.7444L110.268 52.2644L95.2808 56.2932L127.174 78.74ZM125.716 86.9213L133.76 86.8388L128.075 82.8307L125.716 86.9282V86.9213ZM143.014 111.403H137.583L142.306 119.392L143.014 111.403ZM97.8589 85.7594L102.121 78.1763L95.3152 81.3457L97.8589 85.7663V85.7594ZM122.355 130.22L133.588 110.186L121.591 89.8775L121.557 89.8019L98.6839 90.0563L87.1339 110.64L98.8558 130.461L122.217 130.199C122.265 130.199 122.306 130.213 122.355 130.22ZM149.456 70.655L146.094 108.578H167.351L160.05 81.2838L149.456 70.655ZM143.268 108.578L146.857 68.0425L140.346 61.5182L129.484 80.3694L138.971 87.0382C139.218 87.2099 139.403 87.4556 139.501 87.7397C139.599 88.0238 139.603 88.3316 139.515 88.6186C139.426 88.9056 139.248 89.1569 139.007 89.3363C138.766 89.5156 138.474 89.6137 138.174 89.6163L124.802 89.7607L135.919 108.578H143.261H143.268ZM147.62 59.3732L148.72 46.9775L142.395 57.9638L147.62 59.3732ZM73.1089 161.013L71.9745 173.787L78.5058 162.457L73.1089 161.013Z" fill="white"/>
</g>
<defs>
<clipPath id="clip0_108_316">
<rect width="220" height="220" fill="white"/>
</clipPath>
</defs>
</svg>
