<svg width="220" height="220" viewBox="0 0 220 220" fill="none" xmlns="http://www.w3.org/2000/svg">
<g clip-path="url(#clip0_108_317)">
<path d="M110 220C170.751 220 220 170.751 220 110C220 49.2487 170.751 0 110 0C49.2487 0 0 49.2487 0 110C0 170.751 49.2487 220 110 220Z" fill="#3CB054"/>
<path fill-rule="evenodd" clip-rule="evenodd" d="M61.875 51.5625C145.014 54.6356 177.073 104.541 160.978 149.071C156.42 161.466 151.573 168.252 141.384 175.312C141.797 173.525 142.223 171.737 142.553 169.902C148.576 135.162 137.156 93.3556 81.2831 70.2625C125.737 96.7175 143.674 143.791 122.946 174.178C87.6562 179.726 61.875 149.593 61.875 114.874V51.5625Z" fill="white"/>
</g>
<defs>
<clipPath id="clip0_108_317">
<rect width="220" height="220" fill="white"/>
</clipPath>
</defs>
</svg>
