<svg width="220" height="220" viewBox="0 0 220 220" fill="none" xmlns="http://www.w3.org/2000/svg">
<g clip-path="url(#clip0_108_318)">
<path d="M110 220C170.751 220 220 170.751 220 110C220 49.2487 170.751 0 110 0C49.2487 0 0 49.2487 0 110C0 170.751 49.2487 220 110 220Z" fill="#348F8D"/>
<path d="M160.27 48.4259C161.913 50.13 162.83 52.4046 162.83 54.7715C162.83 57.1384 161.913 59.413 160.27 61.1171L138.751 83.179C138.068 83.8776 137.273 84.4583 136.4 84.8977C134.821 85.789 132.99 86.1301 131.195 85.8675C129.401 85.605 127.744 84.7536 126.486 83.4471L105.05 61.4884L63.7658 103.831L73.7345 114.027C75.1651 115.531 75.9588 117.53 75.9499 119.606C75.9409 121.681 75.1299 123.673 73.6864 125.165C72.9819 125.893 72.1387 126.474 71.2065 126.871C70.2743 127.269 69.2719 127.476 68.2584 127.481C67.2449 127.485 66.2407 127.287 65.305 126.898C64.3693 126.508 63.5211 125.935 62.8101 125.213L46.9564 109.036C45.5013 107.531 44.688 105.519 44.688 103.426C44.688 101.332 45.5013 99.3209 46.9564 97.8159L47.0664 97.7127C47.1002 97.6801 47.1324 97.6456 47.1626 97.6096L99.5776 43.8471H99.5845L99.5914 43.8402L99.7633 43.6615C101.071 42.302 102.824 41.4566 104.702 41.2788C106.58 41.1009 108.46 41.6024 110 42.6921C110.495 43.029 110.963 43.4071 111.375 43.8402L131.89 64.8296L147.888 48.4259C148.693 47.5963 149.655 46.9368 150.719 46.4864C151.784 46.036 152.927 45.8039 154.083 45.8039C155.238 45.8039 156.382 46.036 157.446 46.4864C158.51 46.9368 159.473 47.5963 160.277 48.4259H160.27ZM173.044 111.002C174.504 112.497 175.322 114.504 175.323 116.594C175.325 118.683 174.509 120.691 173.051 122.188L172.941 122.291C172.905 122.323 172.87 122.358 172.838 122.394L120.216 176.342C119.417 177.171 118.445 177.815 117.37 178.229C116.295 178.642 115.142 178.815 113.993 178.736C112.844 178.657 111.726 178.327 110.718 177.77C109.71 177.212 108.836 176.441 108.158 175.51L88.1033 154.995L72.2014 171.344C69.9876 173.626 66.7564 174.527 63.7245 173.695C60.6926 172.863 58.3208 170.443 57.5095 167.336C56.7051 164.235 57.5783 160.921 59.8126 158.66L81.3245 136.605C82.5483 135.326 84.1226 134.46 85.8414 134.116C88.6189 133.497 91.5201 134.363 93.5345 136.426L115.026 158.412L156.235 116.172L146.266 105.977C144.835 104.473 144.041 102.474 144.05 100.398C144.059 98.3224 144.87 96.3306 146.314 94.839C147.018 94.1103 147.862 93.53 148.794 93.1322C149.726 92.7344 150.728 92.5272 151.742 92.5227C152.755 92.5182 153.76 92.7166 154.695 93.1061C155.631 93.4956 156.479 94.0685 157.19 94.7909L172.817 110.775L172.831 110.789L172.851 110.803L173.044 111.002Z" fill="white"/>
</g>
<defs>
<clipPath id="clip0_108_318">
<rect width="220" height="220" fill="white"/>
</clipPath>
</defs>
</svg>
