<svg width="220" height="220" viewBox="0 0 220 220" fill="none" xmlns="http://www.w3.org/2000/svg">
<g clip-path="url(#clip0_108_319)">
<path d="M110 220C170.751 220 220 170.751 220 110C220 49.2487 170.751 0 110 0C49.2487 0 0 49.2487 0 110C0 170.751 49.2487 220 110 220Z" fill="#152743"/>
<path d="M110.337 57.1729C101.289 57.1729 93.9538 52.1335 93.9538 45.9116C93.9538 39.6898 101.289 34.6504 110.337 34.6504C119.384 34.6504 126.713 39.6898 126.713 45.9116C126.713 52.1335 119.384 57.1729 110.337 57.1729ZM101.86 182.875V62.5904H138.38C139.734 62.5904 140.69 63.601 140.69 64.9554V131.698C140.69 133.045 139.728 134.2 138.38 134.2H118.25V182.875C118.25 184.23 117.219 185.46 115.864 185.46H104.397C103.725 185.434 103.089 185.153 102.618 184.674C102.146 184.195 101.875 183.554 101.86 182.882V182.875ZM95.7001 134.194H81.8813C81.2132 134.187 80.5733 133.923 80.0945 133.457C79.6157 132.991 79.3348 132.359 79.3101 131.691V64.9554C79.3101 63.601 80.5269 62.5904 81.8744 62.5904H95.7001V134.2V134.194Z" fill="white"/>
</g>
<defs>
<clipPath id="clip0_108_319">
<rect width="220" height="220" fill="white"/>
</clipPath>
</defs>
</svg>
