<svg width="220" height="220" viewBox="0 0 220 220" fill="none" xmlns="http://www.w3.org/2000/svg">
<g clip-path="url(#clip0_108_320)">
<path d="M110 220C170.751 220 220 170.751 220 110C220 49.2487 170.751 0 110 0C49.2487 0 0 49.2487 0 110C0 170.751 49.2487 220 110 220Z" fill="#3A8CBD"/>
<path d="M92.6064 124.061H104.143C107.439 124.072 110.696 123.348 113.678 121.944C116.497 120.548 119.013 118.616 121.083 116.251C123.138 113.804 124.726 111.006 125.785 107.994C126.926 104.943 127.503 101.71 127.49 98.4518C127.508 95.2729 126.877 92.1239 125.634 89.198C124.442 86.2338 122.759 83.4914 120.656 81.0855C118.538 78.6757 115.975 76.6964 113.108 75.2555C110.167 73.7358 106.902 72.9526 103.593 72.973H73.2739V146.556H92.6339L92.6064 124.061ZM92.6064 90.7449H102.417C103.781 90.8345 105.057 91.4479 105.978 92.4568C107.12 93.5912 107.835 95.5918 107.835 98.7199C107.835 101.848 107.126 103.704 106.116 104.715C105.27 105.712 104.129 106.42 102.85 106.42H92.6064V90.7518V90.7449Z" fill="white"/>
<path d="M48.2832 55.2063V164.436C48.2832 168.355 51.4526 171.518 55.3645 171.518H164.594C168.506 171.518 171.676 168.355 171.676 164.436V55.2063C171.677 54.2758 171.494 53.3542 171.139 52.4943C170.783 51.6344 170.262 50.8529 169.604 50.1946C168.946 49.5364 168.166 49.0141 167.306 48.6579C166.446 48.3016 165.525 48.1182 164.594 48.1182H55.3645C54.4345 48.1182 53.5137 48.3013 52.6546 48.6572C51.7954 49.0131 51.0148 49.5347 50.3573 50.1922C49.6997 50.8498 49.1781 51.6304 48.8222 52.4895C48.4664 53.3487 48.2832 54.2695 48.2832 55.1994V55.2063ZM150.054 156.984H69.7538C68.8233 156.985 67.9018 156.802 67.0418 156.447C66.1819 156.091 65.4005 155.57 64.7422 154.912C64.0839 154.255 63.5617 153.474 63.2054 152.614C62.8491 151.754 62.6657 150.833 62.6657 149.903V69.6025C62.6648 68.6715 62.8475 67.7493 63.2034 66.889C63.5593 66.0286 64.0814 65.2468 64.7397 64.5885C65.3981 63.9301 66.1799 63.408 67.0403 63.0521C67.9006 62.6962 68.8227 62.5135 69.7538 62.5144H150.054C153.973 62.5144 157.135 65.6838 157.135 69.5957V149.896C157.135 153.814 153.973 156.984 150.054 156.984Z" fill="white"/>
<path d="M101.29 132.747H146.713V146.703H101.29V132.747Z" fill="white"/>
</g>
<defs>
<clipPath id="clip0_108_320">
<rect width="220" height="220" fill="white"/>
</clipPath>
</defs>
</svg>
