<svg width="220" height="220" viewBox="0 0 220 220" fill="none" xmlns="http://www.w3.org/2000/svg">
<g clip-path="url(#clip0_108_321)">
<path d="M110 220C170.751 220 220 170.751 220 110C220 49.2487 170.751 0 110 0C49.2487 0 0 49.2487 0 110C0 170.751 49.2487 220 110 220Z" fill="#1061E3"/>
<path fill-rule="evenodd" clip-rule="evenodd" d="M166.932 143.459C167.509 149.379 165.66 155.222 159.933 159.017C157.19 160.839 154.131 161.561 150.844 161.561C123.619 161.547 96.3945 161.554 69.1695 161.547C68.5733 161.547 67.9772 161.531 67.382 161.499C61.4145 161.176 55.777 156.852 53.852 151.207C52.9995 148.712 52.8688 146.154 52.972 143.459H69.5407C71.1357 143.452 72.1945 142.29 71.837 140.84C71.65 140.277 71.3208 139.773 70.8813 139.375C64.1232 132.624 57.3445 125.9 50.5726 119.163L44.3713 112.989C42.0407 110.686 40.9201 107.902 41.3326 104.657C41.5388 103.062 42.0545 101.494 42.5701 99.9541C45.464 91.231 50.0605 83.169 56.0932 76.2354C64.6385 66.291 75.7845 58.923 88.282 54.9573C96.4177 52.2943 104.981 51.182 113.527 51.6779C133.712 52.8879 150.521 61.0966 163.845 76.2285C170.662 83.9668 175.623 93.1581 178.351 103.103C179.383 106.809 178.406 110.143 175.663 112.872C170.507 118.015 165.309 123.116 160.133 128.238C156.331 131.999 152.536 135.773 148.741 139.547C147.489 140.785 147.613 142.435 149.043 143.17C149.456 143.377 149.971 143.445 150.439 143.445C155.664 143.466 160.896 143.459 166.128 143.459H166.932ZM58.0388 147.172C58.1145 149.385 58.7057 151.352 59.9982 153.07C62.1432 155.93 65.0376 157.278 68.6263 157.271H151.319C151.642 157.271 151.965 157.257 152.281 157.237C153.804 157.178 155.293 156.77 156.632 156.042C157.971 155.315 159.124 154.289 160.002 153.043C161.281 151.324 161.879 149.358 161.913 147.179L58.0388 147.172ZM128.631 93.911C128.831 94.0416 128.975 94.1173 129.092 94.2066C135.884 99.2666 140.188 105.894 141.824 114.192C142.718 118.702 142.594 123.199 141.536 127.674C140.571 131.74 138.819 135.577 136.379 138.97C136.15 139.258 135.988 139.595 135.907 139.954C135.827 140.314 135.828 140.687 135.912 141.046C136.386 142.916 138.511 143.521 139.913 142.153C141.976 140.152 143.99 138.11 146.032 136.089C154.254 127.908 162.477 119.734 170.706 111.566C172.494 109.792 173.278 107.675 172.838 105.2C172.638 104.127 172.253 103.082 171.889 102.051C169.219 94.3028 165.296 87.045 160.277 80.5666C156.437 75.5949 151.871 71.2286 146.733 67.6141C146.471 67.4259 146.29 67.1462 146.224 66.8304C146.149 66.1011 145.904 65.3997 145.508 64.7825C145.112 64.1653 144.578 63.6494 143.946 63.2763C143.315 62.9033 142.606 62.6834 141.874 62.6344C141.143 62.5854 140.41 62.7086 139.734 62.9941C139.454 63.105 139.143 63.1075 138.861 63.001C131.614 59.5515 123.772 57.5257 115.761 57.0335C109.394 56.555 102.991 56.9156 96.7176 58.106C91.4758 59.1047 86.3867 60.7826 81.5788 63.0973C81.3955 63.2015 81.1882 63.2564 80.9773 63.2564C80.7663 63.2564 80.559 63.2015 80.3757 63.0973C79.6878 62.7584 78.9258 62.5978 78.1596 62.6301C77.3935 62.6624 76.6477 62.8866 75.9907 63.2821C75.3338 63.6777 74.7867 64.2319 74.3997 64.8939C74.0127 65.5559 73.7981 66.3045 73.7757 67.071C73.7757 67.4835 73.6245 67.7241 73.3082 67.9716C71.2045 69.6423 69.0182 71.2304 67.052 73.0523C57.812 81.6116 51.5282 92.0548 47.4926 103.9C46.4751 106.898 47.1488 109.469 49.3832 111.69L73.8582 136.02C75.907 138.062 77.9488 140.104 80.0182 142.132C81.2076 143.301 83.002 143.095 83.7788 141.713C84.3082 140.757 84.1776 139.815 83.552 138.935C80.2624 134.382 78.241 129.037 77.6945 123.446C77.2154 118.85 77.7553 114.204 79.2757 109.84C79.6195 108.844 80.0457 107.867 80.4513 106.836L90.1588 112.542C88.1439 117.416 87.9993 122.862 89.7528 127.835C91.5062 132.809 95.0342 136.96 99.6601 139.492C104.027 141.884 109.089 142.686 113.982 141.76C118.875 140.835 123.294 138.24 126.486 134.419C129.649 130.658 131.326 126.292 131.423 121.377C131.56 114.048 128.528 108.204 122.829 103.653L128.631 93.911ZM160.703 114.811C160.524 113.67 160.359 112.618 160.181 111.566C159.519 107.683 158.383 103.897 156.798 100.291C156.626 99.8785 156.585 99.5623 156.791 99.136C157.063 98.564 157.212 97.9418 157.23 97.3089C157.248 96.6761 157.134 96.0464 156.895 95.46C156.656 94.8736 156.298 94.3432 155.844 93.9026C155.389 93.4619 154.848 93.1206 154.254 92.9004C153.672 92.6805 153.052 92.5796 152.43 92.6036C151.809 92.6277 151.198 92.7761 150.635 93.0402C150.071 93.3042 149.566 93.6786 149.15 94.1411C148.734 94.6036 148.415 95.1449 148.211 95.7329C148.009 96.3208 147.93 96.944 147.978 97.5639C148.027 98.1838 148.202 98.787 148.493 99.3363C148.785 99.8856 149.186 100.369 149.672 100.757C150.158 101.145 150.719 101.428 151.319 101.59C151.645 101.652 151.948 101.801 152.197 102.019C152.446 102.238 152.632 102.52 152.735 102.835C154.825 107.957 155.987 113.264 156.152 118.785C156.165 119.114 156.058 119.437 155.849 119.692C152.708 122.855 149.538 125.99 146.383 129.132C146.273 129.235 146.142 129.317 146.094 129.365C149.105 114.447 145.441 101.515 133.458 91.7798C121.007 81.6735 107.133 80.8966 92.5651 87.4691L88.117 79.7898C89.7051 79.0816 91.2313 78.346 92.792 77.6998C96.8116 76.0949 101.034 75.0537 105.339 74.606C105.896 74.5441 106.301 74.6335 106.734 75.0735C107.16 75.5122 107.67 75.8602 108.234 76.0969C108.797 76.3336 109.403 76.4539 110.014 76.4507C110.626 76.4475 111.23 76.3208 111.791 76.0782C112.352 75.8357 112.858 75.4822 113.279 75.0391C113.425 74.8697 113.611 74.7404 113.82 74.6633C114.03 74.5863 114.255 74.5642 114.476 74.5991C125.015 75.7404 134.159 79.8791 141.873 87.1185C142.491 87.7029 143.076 88.3148 143.674 88.9198C144.739 89.9923 145.915 90.0198 147.001 88.9748L154.227 81.9829L154.901 81.3435C155.767 82.4435 156.64 83.5023 157.451 84.6023C162.146 90.9497 165.748 98.0368 168.108 105.571C168.272 106.014 168.3 106.496 168.189 106.956C168.077 107.415 167.831 107.831 167.482 108.149L161.129 114.467C161.019 114.57 160.889 114.653 160.703 114.811ZM151.999 78.3048L145.826 84.2791C145.64 84.121 145.468 83.9766 145.31 83.8254C138.883 77.6406 130.927 73.275 122.258 71.1754C119.831 70.5841 117.322 70.3091 114.854 69.9104C114.421 69.8416 114.125 69.7523 113.857 69.3398C113.432 68.6937 112.852 68.1636 112.171 67.7972C111.49 67.4309 110.729 67.2398 109.955 67.2411C109.182 67.2425 108.421 67.4363 107.741 67.8051C107.061 68.1738 106.484 68.706 106.061 69.3535C105.855 69.6311 105.549 69.8183 105.208 69.876C89.2995 71.6223 76.8145 79.0748 67.6707 92.096C67.5683 92.2558 67.431 92.3902 67.269 92.4891C67.107 92.5879 66.9246 92.6487 66.7357 92.6666C63.532 93.1891 61.9026 96.3104 63.2295 99.2666C63.3337 99.5318 63.3337 99.8265 63.2295 100.092C61.3057 104.476 60.0207 109.113 59.4138 113.862C59.3726 114.158 59.3107 114.447 59.242 114.852L58.6507 114.302C56.6845 112.343 54.732 110.363 52.7382 108.431C51.817 107.537 51.5145 106.589 51.9476 105.337C56.5745 92.0685 63.9307 80.711 75.3913 72.2341C75.5219 72.1379 75.6595 72.0554 75.7832 71.9523C76.1957 71.5879 76.5738 71.4848 77.1857 71.6498C77.802 71.8217 78.4473 71.8634 79.0806 71.7722C79.7138 71.681 80.3211 71.4588 80.8638 71.1199C81.4065 70.781 81.8726 70.3327 82.2324 69.8037C82.5923 69.2747 82.838 68.6765 82.9538 68.0473C82.9885 67.9126 83.0494 67.7862 83.1332 67.6753C83.217 67.5644 83.3219 67.4711 83.442 67.401C86.411 65.9367 89.5087 64.7491 92.6957 63.8535C100.224 61.7154 107.91 61.1585 115.679 61.7154C122.835 62.1694 129.842 63.9603 136.338 66.9954C136.751 67.1879 136.957 67.4079 137.026 67.8891C137.125 68.5845 137.382 69.2479 137.777 69.8286C138.173 70.4093 138.695 70.8919 139.306 71.2396C139.916 71.5872 140.598 71.7907 141.299 71.8344C142 71.878 142.702 71.7608 143.351 71.4916C143.571 71.4091 143.921 71.4023 144.093 71.5191C146.905 73.4579 149.49 75.6579 151.876 78.0848C151.924 78.1329 151.944 78.2016 151.999 78.3048ZM126.809 120.792C126.858 129.943 119.316 137.485 110.062 137.54C105.613 137.553 101.34 135.804 98.1762 132.676C95.0124 129.549 93.2151 125.296 93.177 120.847C93.1357 111.683 100.664 104.162 109.938 104.114C114.386 104.088 118.662 105.83 121.826 108.956C124.99 112.083 126.782 116.338 126.809 120.785V120.792ZM73.8857 129.482L69.5407 125.117C67.7532 123.329 65.952 121.569 64.1782 119.768C63.9477 119.534 63.8107 119.223 63.7932 118.895C63.9575 113.209 65.1889 107.605 67.4232 102.374C67.4804 102.205 67.5831 102.054 67.7201 101.939C67.8571 101.824 68.0232 101.748 68.2001 101.721C71.287 100.999 72.7238 98.3041 71.6307 95.3616C71.562 95.1554 71.562 94.846 71.6651 94.6741C75.0435 89.6769 79.3807 85.4005 84.4251 82.0929C84.4457 82.0791 84.4663 82.0791 84.5626 82.0516L86.3845 85.1591L90.207 91.7591C90.977 93.1066 91.9807 93.4023 93.3076 92.5979C96.7756 90.4949 100.619 89.0847 104.624 88.4454C111.51 87.2804 118.588 88.3729 124.802 91.5598C124.864 91.5941 124.912 91.6423 125.036 91.7385L119.268 101.412C108.371 97.321 99.3645 99.7616 92.0907 108.816L82.4176 103.13C83.2838 101.969 84.1088 100.848 84.9545 99.7479C85.2982 99.2941 85.697 98.8816 86.082 98.4554C86.6732 97.7954 86.6732 97.4241 86.0682 96.8054C85.5359 96.2652 84.9997 95.7289 84.4595 95.1966C83.7307 94.4816 83.3732 94.4816 82.6857 95.2241C79.7524 98.3636 77.397 101.997 75.7282 105.956C73.3624 111.503 72.4218 117.553 72.992 123.556C73.1707 125.481 73.5626 127.385 73.8857 129.482ZM109.966 74.4135C109.283 74.3994 108.633 74.1216 108.151 73.6384C107.669 73.1551 107.393 72.504 107.381 71.8216C107.404 71.1399 107.687 70.4929 108.174 70.0144C108.66 69.5358 109.311 69.2624 109.993 69.2504C110.676 69.2663 111.325 69.5459 111.806 70.0304C112.286 70.5149 112.561 71.1667 112.571 71.8491C112.557 72.5325 112.277 73.1834 111.79 73.6635C111.304 74.1437 110.649 74.4152 109.966 74.4204V74.4135ZM78.3407 64.6923C78.6803 64.6831 79.0184 64.7416 79.3352 64.8642C79.6521 64.9868 79.9414 65.1712 80.1864 65.4066C80.4314 65.642 80.6271 65.9237 80.7623 66.2354C80.8975 66.5471 80.9694 66.8825 80.9738 67.2223C80.9738 67.9115 80.7 68.5725 80.2127 69.0599C79.7253 69.5472 79.0643 69.821 78.3751 69.821C77.6858 69.821 77.0248 69.5472 76.5375 69.0599C76.0501 68.5725 75.7763 67.9115 75.7763 67.2223C75.7836 66.5476 76.0572 65.9031 76.5375 65.4292C77.0178 64.9553 77.666 64.6904 78.3407 64.6923ZM152.598 99.7548C151.942 99.7275 151.323 99.4497 150.867 98.9786C150.41 98.5075 150.153 97.8793 150.146 97.2236C150.14 96.5679 150.386 95.9349 150.833 95.4553C151.281 94.9757 151.895 94.6862 152.549 94.6466C152.885 94.6435 153.218 94.7064 153.529 94.8319C153.84 94.9573 154.123 95.1428 154.362 95.3777C154.602 95.6126 154.793 95.8924 154.924 96.2011C155.055 96.5097 155.124 96.8412 155.128 97.1766C155.131 97.5121 155.068 97.8448 154.942 98.1559C154.817 98.467 154.631 98.7503 154.397 98.9897C154.162 99.2291 153.882 99.4199 153.573 99.5511C153.264 99.6824 152.933 99.7516 152.598 99.7548ZM141.577 64.6923C143.041 64.6923 144.155 65.7923 144.148 67.2498C144.146 67.9227 143.879 68.5676 143.404 69.0441C142.928 69.5205 142.284 69.7899 141.611 69.7935C141.273 69.799 140.936 69.7374 140.621 69.6124C140.306 69.4873 140.019 69.3012 139.776 69.0648C139.533 68.8284 139.34 68.5464 139.206 68.2349C139.073 67.9234 139.002 67.5886 138.999 67.2498C138.994 66.9106 139.058 66.5739 139.186 66.2597C139.314 65.9456 139.504 65.6604 139.744 65.4212C139.985 65.1819 140.271 64.9935 140.586 64.8671C140.901 64.7407 141.238 64.6789 141.577 64.6854V64.6923ZM69.9532 97.1973C69.9551 97.536 69.8893 97.8716 69.7597 98.1846C69.6301 98.4975 69.4393 98.7814 69.1986 99.0196C68.9578 99.2579 68.6718 99.4456 68.3575 99.5718C68.0432 99.6981 67.7069 99.7603 67.3682 99.7548C67.029 99.7594 66.6923 99.6958 66.3782 99.5678C66.064 99.4397 65.7789 99.2497 65.5396 99.0092C65.3004 98.7687 65.1119 98.4825 64.9855 98.1677C64.8591 97.8529 64.7973 97.5158 64.8038 97.1766C64.8075 96.5032 65.078 95.8587 65.5562 95.3844C66.0343 94.9101 66.681 94.6448 67.3545 94.6466C67.6934 94.6402 68.0303 94.7015 68.3453 94.8268C68.6604 94.9521 68.9472 95.139 69.1892 95.3765C69.4312 95.614 69.6234 95.8973 69.7545 96.2099C69.8857 96.5226 69.9533 96.8582 69.9532 97.1973Z" fill="white"/>
</g>
<defs>
<clipPath id="clip0_108_321">
<rect width="220" height="220" fill="white"/>
</clipPath>
</defs>
</svg>
