<svg width="220" height="220" viewBox="0 0 220 220" fill="none" xmlns="http://www.w3.org/2000/svg">
<g clip-path="url(#clip0_108_12)">
<path d="M110 220C170.751 220 220 170.751 220 110C220 49.2487 170.751 0 110 0C49.2487 0 0 49.2487 0 110C0 170.751 49.2487 220 110 220Z" fill="#1A53F0"/>
<path d="M136.62 77.9999C136 77.9999 135.44 77.8399 134.93 77.8399C126.06 77.8399 117.18 77.8399 108.31 77.7799C106.45 77.7799 105.83 78.3399 105.83 80.1899C105.89 90.4699 105.95 100.75 105.83 110.98C105.83 112.98 106.62 113.51 108.48 113.51C118.36 113.51 128.25 113.67 138.13 113.51C140.89 113.45 141.84 114.51 141.84 116.99V132.94C141.84 136.09 139.2 134.4 137.74 135.36C137.63 136.36 137.46 137.49 137.29 139.01H85.9999C83.3599 139.01 80.7699 139.29 81.8999 135.19C80.4899 135.02 79.5399 134.91 78.2399 134.79V80.6499C79.4799 80.4799 80.6599 80.3699 82.0099 80.1999V64.6399H66.3999V80.1399C67.0042 80.3192 67.6297 80.4167 68.2599 80.4299C69.6599 80.3699 70.2599 80.8699 70.2599 82.4299C70.1999 89.5099 70.2599 96.6399 70.1499 103.72C70.1499 104.4 69.1499 105.63 68.5699 105.63C56.9999 105.69 45.4299 105.63 33.8599 105.57C33.5974 105.509 33.3494 105.396 33.1299 105.24C33.3499 68.6699 67.5099 33.2399 105.87 32.9399V36.4799C105.87 46.1999 105.98 55.9199 105.87 65.5799C105.87 68.0499 106.66 68.7799 109.07 68.7799C117.27 68.6666 125.49 68.6666 133.73 68.7799C135.87 68.7799 137.16 68.3899 136.88 65.9199C136.65 64.0099 137.78 63.5599 139.46 63.6099C143.56 63.7299 147.66 63.8399 151.76 63.8399C153.67 63.8399 154.4 64.5099 154.35 66.4799C154.24 71.2499 154.24 76.0299 154.35 80.7499C154.35 82.7499 153.51 83.0499 151.82 82.9899C147.82 82.8799 143.82 82.8199 139.82 82.9899C137.35 83.1099 136.34 82.2599 136.82 79.7899C136.854 79.1863 136.786 78.5812 136.62 77.9999Z" fill="white"/>
<path d="M137.4 146.65C137.52 148.11 137.57 149.29 137.68 150.65H153.24V135C148.98 135.9 149.43 133 149.48 130.34C149.54 125.56 149.54 120.79 149.48 116.07C149.48 114.27 149.99 113.54 151.84 113.54C162.74 113.6 173.69 113.6 184.59 113.54C187.9 113.54 186.89 115.9 186.72 117.47C185.625 128.534 182.057 139.211 176.28 148.71C163.02 170.28 143.75 182.71 118.7 186.34C118.25 186.4 117.7 186.4 117.29 186.45C113.81 186.57 113.87 186.57 113.87 183.08C113.917 172.067 113.917 161.067 113.87 150.08C113.87 147.44 114.43 146.26 117.46 146.43C122.86 146.71 128.3 146.49 133.7 146.49C134.93 146.48 136.11 146.6 137.4 146.65Z" fill="white"/>
<path d="M65.9999 150.7H81.6799C81.6583 149.936 81.7735 149.174 82.0199 148.45C82.5199 147.67 83.3699 146.6 84.0999 146.6C90.7199 146.433 97.3465 146.433 103.98 146.6C104.404 146.711 104.793 146.929 105.108 147.234C105.423 147.539 105.655 147.92 105.78 148.34C105.827 160.747 105.827 173.16 105.78 185.58C105.656 186.108 105.468 186.618 105.22 187.1C99.8199 186.03 94.1499 185.41 88.8099 183.73C61.3999 175.19 43.6499 156.93 35.4499 129.47C34.0999 125.14 33.7699 120.53 32.9999 116C32.6599 114.15 33.3399 113.3 35.4099 113.36C46.2599 113.47 57.0399 113.53 67.8799 113.47C69.8799 113.47 70.4699 114.2 70.4099 116.11C70.2999 120.66 70.3499 125.27 70.3499 129.82C70.3499 134.37 70.3499 134.37 66.0299 135.15L65.9999 150.7Z" fill="white"/>
</g>
<defs>
<clipPath id="clip0_108_12">
<rect width="220" height="220" fill="white"/>
</clipPath>
</defs>
</svg>
