<svg width="220" height="220" viewBox="0 0 220 220" fill="none" xmlns="http://www.w3.org/2000/svg">
<g clip-path="url(#clip0_108_13)">
<path d="M110 220C170.751 220 220 170.751 220 110C220 49.2487 170.751 0 110 0C49.2487 0 0 49.2487 0 110C0 170.751 49.2487 220 110 220Z" fill="#015CC6"/>
<path d="M104.939 23.5122V113.533C104.939 115.106 104.939 115.106 106.511 115.106H143.336C143.784 115.106 144.232 115.106 144.689 115.106C145.145 115.106 145.137 115.279 145.137 115.609C145.137 117.08 145.137 118.542 145.137 120.005V138.248C145.137 138.524 145.137 138.807 145.137 139.09C145.137 139.821 144.869 140.096 144.17 140.104C142.99 140.104 141.811 140.104 140.623 140.104C140.191 140.104 140.049 140.222 140.057 140.67C140.057 141.85 140.057 143.029 140.057 144.217C140.057 144.917 139.782 145.152 139.05 145.184H138.201C119.397 145.184 100.593 145.184 81.7885 145.184C80.0428 145.184 79.8541 145.184 79.917 143.367C79.917 142.471 79.917 141.567 79.917 140.662C79.917 140.23 79.799 140.081 79.3587 140.096C78.2263 140.096 77.1019 140.096 75.9774 140.096C75.0416 140.096 74.8608 139.884 74.8372 138.909C74.8372 138.516 74.8372 138.123 74.8372 137.729C74.8372 119.093 74.8372 100.459 74.8372 81.8278C74.8372 80.0743 74.8372 79.8855 76.6537 79.9485C77.6051 79.9485 78.5645 79.9485 79.5238 79.9485C79.6575 79.9485 79.8462 79.7283 79.9013 79.571C79.933 79.3493 79.933 79.1243 79.9013 78.9026V60.8166C79.9013 60.0302 80.0507 60.0302 79.1149 60.0302C72.9814 60.0302 66.84 60.0302 60.7065 60.0302C60.0696 60.0302 59.9831 60.219 59.9831 60.8166C59.9831 66.9501 59.9831 73.0836 59.9831 79.225C59.9831 80.0114 59.9831 80.0114 60.8166 80.0114H63.8519C65.0393 80.0114 65.0471 80.0114 65.0471 81.1123V103.916C65.0353 104.142 65.0353 104.367 65.0471 104.593C65.0471 104.994 64.8427 105.041 64.5203 105.025C64.1979 105.009 63.7339 105.025 63.3408 105.025H23.5122V101.227C23.6066 101.227 23.7874 101.148 23.7874 101.109C23.7874 99.906 24.2514 98.7501 24.2435 97.5548C24.2435 96.7213 24.621 95.872 24.5266 94.9992C25.2186 94.5195 24.5266 93.6781 24.9984 93.1748C25.4702 92.6716 24.9984 91.8066 25.4938 91.1618C25.8477 90.7293 25.7297 89.9351 25.887 89.3139C26.1543 88.1973 26.4296 87.0728 26.7834 85.9719C27.3732 84.1397 27.9315 82.2918 28.5606 80.4674C29.284 78.3522 30.2512 76.3313 31.069 74.2553C31.4307 73.3353 31.934 72.4781 32.3744 71.5896C32.8147 70.701 33.2236 69.7967 33.6876 68.9238C34.3197 67.6043 35.0423 66.33 35.85 65.1101C37.5249 62.8296 38.9954 60.392 40.6625 58.1273C42.4674 55.6854 44.4075 53.3463 46.4736 51.1209C49.2433 48.0919 52.243 45.2815 55.4458 42.7148C56.759 41.6847 58.0722 40.6703 59.4562 39.7346C61.8703 38.099 64.2687 36.4555 66.7299 34.8907C68.0375 34.0236 69.422 33.2786 70.8661 32.6653C72.8005 31.879 74.6249 30.8882 76.5357 30.0704C78.3128 29.284 80.208 28.8751 81.8829 27.9079C83.7701 27.845 85.4057 26.8699 87.2065 26.4532C89.2903 25.9735 91.3662 25.3287 93.4972 24.9276C95.2725 24.433 97.104 24.1687 98.9466 24.1413C99.2848 24.1413 99.6308 23.9054 99.9846 23.8267C100.338 23.7481 100.802 23.7402 101.227 23.6773C101.231 23.6224 101.231 23.5672 101.227 23.5122H104.939Z" fill="white"/>
<path d="M23.5122 115.083H63.3801C63.7733 115.083 64.1664 115.083 64.5596 115.083C64.9528 115.083 65.1022 115.083 65.0786 115.523C65.0786 115.798 65.0786 116.081 65.0786 116.364V138.83C65.0668 139 65.0668 139.171 65.0786 139.341C65.1494 139.884 65.0786 140.128 64.3709 140.128C63.0813 140.057 61.7838 140.128 60.4863 140.128C60.1403 140.128 59.9831 140.222 59.9988 140.6C59.9988 141.213 59.9988 141.834 59.9988 142.455C59.9988 148.028 59.9988 153.603 59.9988 159.181C59.9988 160.164 59.9123 160.077 60.8952 160.077H79.1385C79.9249 160.077 79.9249 160.077 79.9249 159.291C79.9249 158.104 79.9799 156.932 79.9249 155.745C79.9249 155.068 80.1529 155.029 80.7112 155.029C88.5433 155.029 96.37 155.029 104.192 155.029C104.978 155.029 104.978 155.029 104.978 155.878C104.978 169.445 104.978 183.015 104.978 196.588H101.227C101.227 196.493 101.148 196.312 101.109 196.312C99.906 196.312 98.7501 195.707 97.5548 195.903C97.3504 195.903 97.0437 195.903 96.9336 195.809C96.5483 195.416 96.0843 195.652 95.6676 195.565C95.2508 195.479 94.8812 195.306 94.4566 195.243C93.5421 195.184 92.6329 195.061 91.7358 194.873C89.2824 194.087 86.7425 193.686 84.3048 192.86C82.5827 192.271 80.8213 191.767 79.1149 191.13C76.5965 190.147 74.1318 189.032 71.7311 187.788C68.8966 186.417 66.159 184.854 63.5374 183.11C61.1783 181.537 58.8193 180.027 56.6096 178.226C54.6673 176.654 52.6779 175.081 50.8771 173.398C48.0483 170.825 45.4439 168.015 43.0923 165C42.0858 163.647 40.8355 162.468 39.9469 161.068C37.9496 158.088 35.9051 155.139 34.2144 151.978C32.6103 148.99 31.1372 145.944 29.7951 142.841C29.4649 142.054 29.2368 141.268 28.9537 140.482C27.9835 137.949 27.1488 135.366 26.4532 132.744C26.0364 130.998 25.5331 129.284 25.2029 127.515C25.0456 126.728 25.1635 125.785 24.8254 125.156C24.4873 124.527 24.8254 123.835 24.4322 123.284C24.0391 122.734 24.2986 121.924 24.1806 121.287C24.0312 120.453 23.8503 119.628 23.6773 118.794C23.6224 118.79 23.5672 118.79 23.5122 118.794V115.083Z" fill="white"/>
<path d="M115.083 196.509V156.641C115.083 156.248 115.083 155.855 115.083 155.462C115.083 155.069 115.083 154.919 115.523 154.943C115.798 154.943 116.081 154.943 116.364 154.943H138.83C139 154.955 139.171 154.955 139.341 154.943C139.884 154.872 140.128 154.943 140.128 155.651C140.057 156.94 140.128 158.238 140.128 159.535C140.128 159.881 140.222 160.038 140.6 160.023C141.213 160.023 141.834 160.023 142.455 160.023H159.181C160.164 160.023 160.077 160.109 160.077 159.126C160.077 153.04 160.077 146.961 160.077 140.883C160.077 140.097 160.077 140.097 159.291 140.097C158.104 140.097 156.932 140.041 155.745 140.097C155.068 140.097 155.029 139.868 155.029 139.31C155.029 131.478 155.029 123.651 155.029 115.83C155.029 115.043 155.029 115.043 155.878 115.043C169.445 115.043 183.015 115.043 196.588 115.043V118.755C196.493 118.755 196.312 118.834 196.312 118.873C196.312 120.076 195.707 121.232 195.903 122.427C195.916 122.643 195.889 122.858 195.825 123.064C195.544 123.975 195.344 124.909 195.227 125.856C195.198 126.716 195.071 127.571 194.85 128.404C194.417 129.756 194.126 131.14 193.788 132.516C193.45 133.892 192.963 135.205 192.53 136.55C191.42 140.073 190.067 143.515 188.48 146.851C187.071 149.94 185.45 152.927 183.629 155.792C181.984 158.428 180.185 160.964 178.242 163.388C176.85 165.032 175.553 166.801 174.09 168.374C171.322 171.448 168.299 174.283 165.055 176.85C163.097 178.368 161.202 179.996 159.15 181.356C156.81 182.981 154.39 184.488 151.899 185.87C148.927 187.443 145.868 188.937 142.77 190.297C142.116 190.608 141.441 190.871 140.749 191.083C137.604 191.87 134.623 193.183 131.446 193.906C129.024 194.457 126.603 194.96 124.181 195.479C123.559 195.613 122.93 195.731 122.293 195.809C121.059 195.959 119.816 196.077 118.582 196.218C118.527 196.218 118.495 196.399 118.456 196.493L115.083 196.509Z" fill="white"/>
<path d="M141.755 52.5923C141.755 56.815 141.755 61.0377 141.755 65.2604C141.755 65.7636 141.873 65.9209 142.4 65.9209C146.961 65.9209 151.522 65.9209 156.075 65.9209H157.262C157.671 65.9209 157.758 66.204 157.6 66.4556C157.121 67.242 156.602 67.9733 156.028 68.6888C154.455 70.7727 152.985 72.9666 151.396 75.0583C149.808 77.1499 148.581 79.1866 147.134 81.2154C145.797 83.0947 144.382 84.9191 143.021 86.7827C142.235 87.8993 141.449 89.0474 140.662 90.1797L137.446 94.7563C135.575 97.4142 133.562 99.9777 131.824 102.73C131.685 102.907 131.527 103.068 131.352 103.21C131.281 103.28 131.195 103.343 131.116 103.414C131.061 103.32 130.975 103.233 130.967 103.139C130.967 102.691 130.967 102.234 130.967 101.786V77.606C130.967 76.6781 131.116 76.7017 130.078 76.7017H116.372C116.037 76.7333 115.7 76.7333 115.366 76.7017C115.283 76.6587 115.213 76.5946 115.164 76.5158C115.114 76.4371 115.086 76.3466 115.083 76.2535C115.117 75.9931 115.229 75.7492 115.405 75.5537C116.978 73.8945 118.023 71.8814 119.439 70.12C120.304 69.0427 121.012 67.8632 121.837 66.7308C122.954 65.1581 124.086 63.5854 125.179 62.0127C126.996 59.3863 128.836 56.7678 130.684 54.1493C132.532 51.5307 134.45 48.8021 136.463 46.215C137.989 44.257 139.294 42.1103 140.702 40.05C140.944 39.7208 141.259 39.4518 141.622 39.2637C141.666 39.4151 141.695 39.5705 141.708 39.7276C141.708 42.6528 141.708 45.5859 141.708 48.5111L141.755 52.5923Z" fill="white"/>
</g>
<defs>
<clipPath id="clip0_108_13">
<rect width="220" height="220" fill="white"/>
</clipPath>
</defs>
</svg>
