<svg width="220" height="220" viewBox="0 0 220 220" fill="none" xmlns="http://www.w3.org/2000/svg">
<g clip-path="url(#clip0_108_322)">
<path d="M110 220C170.751 220 220 170.751 220 110C220 49.2487 170.751 0 110 0C49.2487 0 0 49.2487 0 110C0 170.751 49.2487 220 110 220Z" fill="#22B573"/>
<path d="M104.638 184.275C110.667 184.619 117.824 184.261 122.966 183.347C134.124 181.422 145.571 176.437 154.963 169.411C159.177 166.242 166.402 159.016 169.538 154.836C176.605 145.404 181.259 134.85 183.666 122.73C184.553 118.144 184.669 102.332 183.872 97.636C179.451 72.7829 164.278 52.5498 142.037 41.8729C141.451 41.5924 140.862 41.3174 140.271 41.0479L143.158 51.3054C144.808 57.0048 148.177 69.0085 150.707 77.9185C157.41 101.486 157.334 101.087 157.575 107.069C157.692 110.197 157.616 113.689 157.334 115.82C154.481 137.215 137.5 154.155 116.016 157.05C111.643 157.648 104.259 157.373 100.128 156.486C98.6012 156.122 97.2744 155.922 97.1506 156.005C97.0337 156.163 103.654 180.054 104.699 183.264C104.919 183.924 104.995 184.185 104.631 184.275H104.638ZM80.025 178.273C79.9775 178.238 79.9316 178.202 79.8875 178.163C79.6469 177.888 77.8044 172.024 75.8312 165.08C73.8719 158.136 70.2144 145.28 67.7669 136.576C65.2781 127.865 63.0231 119.354 62.7069 117.704C62.0675 114.095 61.985 105.659 62.59 102.05C63.346 97.606 64.6965 93.2841 66.605 89.2004C73.3081 75.1479 85.1125 65.8736 100.684 62.4636C104.899 61.5423 114.654 61.5423 118.91 62.4636C120.636 62.8692 122.21 63.0273 122.368 62.8279C122.526 62.6629 120.876 56.2829 118.711 48.6517C117.372 44.0776 116.106 39.4822 114.916 34.8673C113.449 34.8492 111.982 34.8423 110.516 34.8467C101.571 34.8054 99.2819 35.0461 92.3725 36.6479C77.44 40.1404 62.9888 49.0573 52.9925 60.8204C36.41 80.3317 30.8344 106.952 38.2181 131.152C40.9062 140.069 44.2406 146.614 49.8231 154.197C57.6345 164.703 68.0418 173 80.025 178.273ZM97.7144 191.37C95.5488 191.054 93.4587 190.689 93.1012 190.531C91.8272 190.154 90.5408 189.819 89.2444 189.527C76.4775 186.434 62.9131 178.85 52.7519 169.129C45.0037 161.704 37.2556 150.464 34.0038 141.994C33.5638 140.907 33.0413 139.622 32.835 139.182C31.7556 136.892 29.8306 130.189 28.7444 124.772C27.5756 119.114 27.5 118.103 27.5 109.874C27.5 104.82 27.7063 100.001 27.94 98.6329C28.2219 97.3129 28.7444 94.3773 29.1844 92.1704C29.59 89.9223 30.1881 87.6742 30.47 87.1517C30.6587 86.8561 30.7958 86.5306 30.8756 86.1892C30.6694 86.1892 32.5187 80.2079 32.8419 79.7679C33 79.5617 33.4812 78.4823 33.88 77.3617C34.5675 75.4711 36.8156 70.8992 37.6613 69.5242C37.895 69.2079 38.94 67.4411 40.0262 65.6329C41.1469 63.7904 42.2331 62.0579 42.4325 61.8242C42.6731 61.5423 44 59.8579 45.3681 58.0911C57.3306 42.8698 75.515 31.8698 94.6619 28.3017C100.327 27.2154 119.632 27.2567 125.372 28.3429C134.571 30.0617 144.368 33.8773 152.673 38.9373C156.688 41.4261 156.97 41.5911 161.508 45.2004C165.357 48.2529 171.744 54.6742 174.515 58.2904C175.601 59.7342 176.963 61.4598 177.526 62.1404C178.09 62.8692 178.571 63.5498 178.571 63.7079C178.571 63.9142 179.011 64.5948 179.534 65.2754C180.056 65.9629 181.301 68.1629 182.346 70.1292C183.349 72.1367 184.353 73.9448 184.511 74.1442C184.669 74.3848 185.432 76.0348 186.161 77.8773C191.579 91.5723 193.462 104.621 191.977 118.715C191.372 124.765 188.643 135.49 186.56 140.069C186.154 141.031 185.797 141.911 185.797 142.035C185.797 142.392 182.346 149.302 181.301 151.027C172.831 165.08 160.827 176.396 147.256 183.14C144.925 184.309 142.718 185.389 142.319 185.595C139.624 186.997 130.756 189.685 124.169 191.054C120.079 191.892 102.933 192.099 97.7144 191.37ZM115.741 133.964C124.451 131.757 132 124.332 134.166 115.862C134.97 112.685 135.011 106.546 134.207 103.452C130.872 90.2867 117.184 81.8923 104.301 85.1442C99 86.4711 96.1881 88.0317 92.455 91.7717C87.12 97.1135 84.9062 102.407 84.9475 109.874C84.9888 121.238 92.3725 130.835 103.455 133.799C106.789 134.692 112.571 134.761 115.741 133.964Z" fill="#FEFFFF"/>
</g>
<defs>
<clipPath id="clip0_108_322">
<rect width="220" height="220" fill="white"/>
</clipPath>
</defs>
</svg>
