<svg width="220" height="220" viewBox="0 0 220 220" fill="none" xmlns="http://www.w3.org/2000/svg">
<g clip-path="url(#clip0_108_323)">
<path d="M110 220C170.751 220 220 170.751 220 110C220 49.2487 170.751 0 110 0C49.2487 0 0 49.2487 0 110C0 170.751 49.2487 220 110 220Z" fill="#333333"/>
<path d="M76.945 55H130.322C145.09 55.8731 161.336 61.9438 167.86 76.0375C176.021 93.9881 171.964 119.233 153.581 129.477C136.627 139.171 116.346 135.348 97.7281 136.146C97.2262 145.317 99.7906 155.987 93.3969 163.742C90.8256 167.454 79.035 171.875 79.035 171.875C79.035 171.875 77.9487 161.913 77.55 139.494C77.2956 133.306 78.3063 126.363 83.6206 122.341C89.8425 116.992 98.6631 118.662 106.219 118.387C117.631 118.085 129.621 119.831 140.456 115.431C156.351 108.934 156.929 82.4037 140.91 75.7144C124.554 69.3756 106.494 75.1438 89.6912 71.6375C82.06 69.4994 78.6294 61.985 76.945 55ZM48.125 85.4563C62.0813 85.7106 76.065 84.9681 89.9938 85.8069C100.121 86.5837 106.769 95.755 107.827 105.132C93.775 105.064 79.6881 105.579 65.6287 104.961C56.9937 104.459 50.6206 97.4462 48.125 89.7119V85.4631V85.4563Z" fill="white"/>
</g>
<defs>
<clipPath id="clip0_108_323">
<rect width="220" height="220" fill="white"/>
</clipPath>
</defs>
</svg>
