<svg width="220" height="220" viewBox="0 0 220 220" fill="none" xmlns="http://www.w3.org/2000/svg">
<g clip-path="url(#clip0_108_324)">
<path d="M110 220C170.751 220 220 170.751 220 110C220 49.2487 170.751 0 110 0C49.2487 0 0 49.2487 0 110C0 170.751 49.2487 220 110 220Z" fill="#1347E8"/>
<path d="M110 34.375C68.2344 34.375 34.375 68.2344 34.375 110C34.375 151.766 68.2344 185.625 110 185.625C151.766 185.625 185.625 151.766 185.625 110C185.625 68.2344 151.766 34.375 110 34.375ZM181.775 106.906L175.656 106.968L175.629 104.404L181.754 104.349L181.782 106.906H181.775ZM180.208 93.6856L174.137 94.5312L173.786 91.9875L179.85 91.1488L180.208 93.6925V93.6856ZM174.982 77.5844L176.041 79.9219L170.466 82.4519L169.407 80.1213L174.976 77.5844H174.982ZM167.337 65.9313L169.029 67.8563L164.423 71.8988L162.738 69.9738L167.337 65.9313ZM158.366 56.3544L160.304 58.0319L156.31 62.6656L154.364 60.995L158.366 56.3544ZM147.675 47.6988L149.82 49.0944L146.486 54.23L144.341 52.8412L147.675 47.6988ZM135.506 41.6969L137.988 42.35L136.434 48.2694L133.952 47.6163L135.513 41.7037L135.506 41.6969ZM122.134 38.4106L124.685 38.6169L124.176 44.7219L121.626 44.5087L122.134 38.4106ZM108.288 36.795H110.846V42.9206H108.288V36.795ZM96.9169 38.4106L97.4256 44.5087L94.8681 44.7288L94.3594 38.6238L96.9169 38.4106ZM83.5381 41.6969L85.0919 47.6163L82.6169 48.2694L81.0563 42.3569L83.5312 41.6969H83.5381ZM71.3763 47.6988L74.7106 52.8412L72.5588 54.23L69.2244 49.0944L71.3763 47.6988ZM60.6856 56.3612L64.68 60.995L62.7413 62.6656L58.7469 58.0319L60.6856 56.3544V56.3612ZM51.7206 65.9175L56.3269 69.96L54.6287 71.885L50.0294 67.8494L51.7206 65.9244V65.9175ZM44.0825 77.5775L49.6513 80.1144L48.5994 82.4519L43.0237 79.9081L44.0825 77.5775ZM39.2081 91.1419L45.2787 91.9806L44.9212 94.5244L38.8575 93.6788L39.2081 91.135V91.1419ZM37.3106 104.342L43.4294 104.397L43.4088 106.961L37.29 106.899L37.3106 104.342ZM37.8744 118.724L43.9656 118.106L44.22 120.649L38.1288 121.268L37.8744 118.724ZM40.645 131.746L46.6125 130.357L47.1969 132.852L41.2294 134.241L40.645 131.746ZM47.3206 147.304L46.0556 145.076L51.37 142.037L52.6419 144.265L47.3206 147.304ZM55.9969 158.214L54.1338 156.454L58.3481 152.006L60.2044 153.766L55.9969 158.214ZM65.7937 166.925L63.7106 165.44L67.265 160.449L69.3481 161.941L65.7937 166.925ZM77.2338 174.563L74.965 173.374L77.8112 167.956L80.08 169.146L77.2338 174.563ZM89.8906 179.431L87.3606 179.004L88.3713 172.968L90.9013 173.394L89.8906 179.431ZM100.952 181.507L100.904 175.381L103.469 175.354L103.517 181.479L100.952 181.507ZM46.3375 110C46.3375 74.8963 74.8963 46.3375 110 46.3375C145.104 46.3375 173.663 74.8963 173.663 110C173.663 145.104 145.104 173.663 110 173.663C74.8963 173.663 46.3375 145.104 46.3375 110ZM114.991 182.057L114.909 182.064L114.352 175.973L116.902 175.739L116.985 175.725L117.542 181.823L114.991 182.057ZM128.638 179.183L127.572 173.154L130.096 172.707L131.161 178.743L128.638 179.183ZM141.659 174.687L139.562 168.933L141.969 168.059L144.066 173.814L141.659 174.687ZM153.216 167.606L149.435 162.793L151.442 161.198L155.231 166.011L153.216 167.599V167.606ZM163.075 158.001L158.675 153.753L160.449 151.903L164.849 156.166L163.075 158.001ZM171.133 147.654L166.183 144.045L167.695 141.976L172.645 145.578L171.133 147.654ZM177.678 135.348L171.889 133.327L172.734 130.907L178.516 132.928L177.678 135.341V135.348ZM181.287 121.392L175.168 121.117L175.285 118.552L181.404 118.834L181.287 121.392ZM134.31 142.533H134.303C135.327 143.632 135.355 145.31 134.344 146.314C133.334 147.311 131.663 147.262 130.57 146.217V146.224L128.659 144.299L124.314 139.892C121.494 141.237 118.387 141.868 115.266 141.728H103.317C92.4963 142.127 82.5 136.723 83.3112 119.151C83.3387 118.415 83.2631 108.955 83.2631 108.206L83.2838 101.111C83.2631 83.5794 87.5462 75.6319 99.3575 72.82C100.698 72.4969 108.006 72.3388 109.402 72.3388H110.027C111.43 72.3388 117.879 72.4969 119.219 72.82C131.031 75.6319 135.314 83.5794 135.293 101.111L135.314 108.213C135.314 108.962 135.238 118.415 135.273 119.158C135.713 128.645 132.99 132.77 128.693 136.854L132.406 140.601L134.31 142.533ZM116.029 136.153C117.398 136.153 118.752 135.96 120.058 135.575L117.611 133.1L115.699 131.161C114.668 130.061 114.647 128.391 115.658 127.394C116.669 126.39 118.339 126.438 119.432 127.476L121.337 129.401L124.768 132.88C124.944 132.72 125.114 132.552 125.276 132.378C128.48 129.023 130.006 126.218 129.697 119.412C129.676 118.931 129.669 118.924 129.717 110.385L129.731 108.206L129.724 103.407C129.717 100.478 129.711 101.509 129.711 101.104C129.718 93.335 128.838 86.5838 126.947 83.5381C125.826 81.7231 123.887 79.6881 118.023 78.2719C115.366 78.0538 112.701 77.9369 110.034 77.9212H109.402C107.635 77.9212 101.723 78.1 100.568 78.2719C94.6963 79.6881 92.7575 81.7231 91.6369 83.5381C89.7463 86.5838 88.8663 93.335 88.88 101.104C88.88 101.516 88.8731 100.478 88.8662 103.407C88.8643 105.733 88.8643 108.059 88.8662 110.385C88.9144 118.924 88.9144 118.938 88.8869 119.412C88.5775 126.218 90.1106 129.023 93.3144 132.378C96.2912 135.499 99.9831 136.159 102.554 136.159L103.111 136.146L103.214 136.139H115.472C115.658 136.153 115.844 136.153 116.029 136.153Z" fill="white"/>
</g>
<defs>
<clipPath id="clip0_108_324">
<rect width="220" height="220" fill="white"/>
</clipPath>
</defs>
</svg>
