<svg width="220" height="220" viewBox="0 0 220 220" fill="none" xmlns="http://www.w3.org/2000/svg">
<g clip-path="url(#clip0_108_325)">
<path d="M110 220C170.751 220 220 170.751 220 110C220 49.2487 170.751 0 110 0C49.2487 0 0 49.2487 0 110C0 170.751 49.2487 220 110 220Z" fill="#FF8C00"/>
<path d="M155.306 133.684C155.657 136.441 154.873 137.507 154 137.507C153.127 137.507 151.903 136.441 150.597 134.31C149.291 132.179 148.761 129.772 149.462 128.535C149.896 127.731 150.858 127.373 151.992 127.82C154.261 128.714 155.134 132.172 155.306 133.684ZM143.089 139.734C145.791 142.044 146.582 144.705 145.179 146.664C144.739 147.179 144.19 147.589 143.572 147.865C142.953 148.14 142.281 148.275 141.604 148.259C140.097 148.274 138.637 147.736 137.5 146.747C135.059 144.616 134.358 141.061 135.926 139.109C136.26 138.695 136.688 138.366 137.175 138.149C137.661 137.933 138.192 137.835 138.724 137.864C140.119 137.864 141.694 138.483 143.089 139.727V139.734ZM48.125 102.396C48.125 68.6194 75.0063 41.25 108.171 41.25C141.343 41.25 168.224 68.6262 168.224 102.396C168.225 113.419 165.305 124.246 159.761 133.774C159.582 134.042 159.142 133.952 159.06 133.595C156.97 118.573 147.978 110.309 134.887 107.821C133.746 107.642 133.574 106.927 135.059 106.755C139.074 106.397 144.746 106.487 147.709 107.023C147.89 105.458 147.98 103.883 147.977 102.307C147.977 79.9975 130.171 61.8681 108.261 61.8681C86.3569 61.8681 68.5506 79.9975 68.5506 102.307C68.5506 124.623 86.3569 142.753 108.261 142.753H110.096C109.473 139.144 109.208 135.482 109.306 131.821C109.395 129.332 109.924 128.975 110.969 130.928C116.469 140.621 124.321 149.332 139.686 152.79C152.254 155.643 164.821 158.929 178.351 176.44C179.568 177.952 177.739 179.548 176.344 178.303C162.552 165.859 149.985 161.769 138.552 161.769C125.716 161.865 116.992 163.556 108.171 163.556C75.0063 163.556 48.125 136.166 48.125 102.389V102.396Z" fill="white"/>
</g>
<defs>
<clipPath id="clip0_108_325">
<rect width="220" height="220" fill="white"/>
</clipPath>
</defs>
</svg>
