<svg width="220" height="220" viewBox="0 0 220 220" fill="none" xmlns="http://www.w3.org/2000/svg">
<g clip-path="url(#clip0_108_326)">
<path d="M110 220C170.751 220 220 170.751 220 110C220 49.2487 170.751 0 110 0C49.2487 0 0 49.2487 0 110C0 170.751 49.2487 220 110 220Z" fill="#610089"/>
<path fill-rule="evenodd" clip-rule="evenodd" d="M113.369 34.3945C148.637 36.292 177.182 60.767 184.188 95.362C185.109 99.927 185.357 104.65 185.611 109.318C185.838 113.443 183.15 116.228 179.431 116.221C175.787 116.221 173.401 113.581 173.312 109.483C172.645 79.3226 152.274 54.4489 122.863 48.1582C118.463 47.2232 113.871 47.2095 109.374 46.7007C105.951 46.3157 103.682 43.6826 103.778 40.3414C103.874 37.0345 106.349 34.5732 109.801 34.4014C110.99 34.3464 112.179 34.3945 113.369 34.3945ZM106.782 185.624C72.9368 184.606 42.4943 158.949 36.073 125.729C35.0968 120.641 34.7255 115.423 34.3886 110.246C34.1824 107.084 36.1968 104.815 39.1324 104.059C41.5661 103.426 44.3986 104.464 45.6361 106.781C46.2549 107.957 46.5505 109.442 46.578 110.796C47.0799 139.699 66.6255 164.573 94.6755 171.489C99.7355 172.74 105.071 172.939 110.296 173.496C113.279 173.806 115.672 175.834 116.071 178.742C116.449 181.492 114.716 184.565 112.083 185.218C110.385 185.638 108.549 185.507 106.782 185.624ZM109.89 82.4782C124.857 82.4301 137.424 94.702 137.527 109.463C137.562 114.55 132.901 117.754 128.59 115.561C126.252 114.378 125.249 112.398 125.152 109.765C125.08 106.202 123.754 102.778 121.406 100.097C119.058 97.416 115.839 95.6491 112.317 95.1076C104.397 93.7601 96.6968 99.1364 95.1568 107.091C93.5824 115.217 98.6699 123.13 106.59 124.842C107.676 125.076 108.79 125.206 109.89 125.268C113.575 125.461 116.16 127.998 116.132 131.456C116.105 134.962 113.334 137.561 109.581 137.595C97.783 137.698 86.6593 129.091 83.4418 117.376C78.6361 99.8789 91.7812 82.5332 109.89 82.4782ZM161.831 108.308C161.693 109.476 161.741 110.941 161.315 112.247C160.421 115.024 157.465 116.633 154.577 116.166C151.573 115.671 149.435 113.209 149.401 109.841C149.352 104.712 148.521 99.7345 146.417 95.0801C139.452 79.7145 127.538 71.4714 110.639 70.6739C106.507 70.4676 103.764 68.0476 103.792 64.3489C103.826 60.6501 106.59 58.237 110.784 58.2507C136.015 58.2989 158.063 77.8239 161.26 102.966C161.48 104.664 161.624 106.362 161.831 108.308ZM58.2861 111.477C57.9355 108.679 58.6505 105.922 61.8474 104.451C66.0549 102.505 70.4618 105.516 70.5443 110.459C70.6268 115.196 71.438 119.754 73.143 124.168C75.9169 131.47 80.8053 137.779 87.1833 142.288C93.5613 146.797 101.139 149.302 108.948 149.482C114.283 149.619 117.384 153.483 115.686 157.869C114.737 160.344 112.647 161.781 109.787 161.754C94.648 161.616 81.8811 155.944 71.6718 144.828C63.2624 135.737 58.497 123.866 58.2861 111.484V111.477ZM137.582 130.864C137.328 133.938 136.276 135.883 133.966 136.963C131.67 138.035 129.339 137.87 127.504 136.172C124.177 133.089 120.965 129.885 117.872 126.568C115.741 124.285 115.947 120.689 118.037 118.441C120.168 116.152 123.977 115.678 126.307 117.816C129.759 120.964 133.024 124.333 136.207 127.764C137.046 128.671 137.28 130.136 137.582 130.858V130.864Z" fill="white"/>
</g>
<defs>
<clipPath id="clip0_108_326">
<rect width="220" height="220" fill="white"/>
</clipPath>
</defs>
</svg>
