<svg width="220" height="220" viewBox="0 0 220 220" fill="none" xmlns="http://www.w3.org/2000/svg">
<g clip-path="url(#clip0_108_327)">
<path d="M110 220C170.751 220 220 170.751 220 110C220 49.2487 170.751 0 110 0C49.2487 0 0 49.2487 0 110C0 170.751 49.2487 220 110 220Z" fill="#252525"/>
<path d="M176.193 145.812C176.881 145.826 177.535 146.112 178.014 146.606C178.493 147.1 178.757 147.764 178.75 148.452V161.562H135.582L135.417 150.15C135.419 149.778 135.502 149.411 135.66 149.074C135.818 148.737 136.047 148.438 136.331 148.197C136.502 147.978 136.695 147.777 136.909 147.599C155.932 134.331 163.24 109.065 154.385 87.2094C145.523 65.3538 122.952 52.9856 100.437 57.6469C77.9281 62.3013 61.7238 82.6994 61.7169 106.391C61.7031 122.581 69.4169 137.741 82.3487 146.919C82.6303 147.076 82.8597 147.313 83.0088 147.599C83.4785 147.819 83.876 148.167 84.1548 148.604C84.4337 149.042 84.5822 149.549 84.5831 150.067L84.4181 161.48H41.25V148.363C41.25 146.905 42.3981 145.722 43.8075 145.722C45.2169 145.722 46.365 146.905 46.365 148.363V156.283H79.3787L79.4612 151.346H79.3787C60.3969 137.582 52.25 112.722 59.235 89.8975C66.2406 67.0725 86.7625 51.5625 109.966 51.5625C133.169 51.5625 153.691 67.0725 160.682 89.8975C167.674 112.722 159.527 137.582 140.539 151.346L140.628 156.365H173.642V148.452C173.634 147.764 173.899 147.1 174.378 146.606C174.857 146.112 175.511 145.826 176.199 145.812H176.193ZM142.106 110.227C147.799 117.466 149.531 123.936 147.056 128.191C145.159 131.512 141.116 133.299 135.252 133.299C131.569 133.21 127.912 132.667 124.362 131.684C121.144 142.924 115.94 150.164 110 150.164C104.06 150.164 98.8625 142.924 95.7206 131.684C92.1707 132.667 88.5132 133.21 84.8306 133.299C78.9662 133.299 74.9237 131.512 73.0262 128.191C69.9737 122.911 73.4387 114.654 81.3587 106.226C80.1611 104.982 79.0319 103.673 77.9762 102.307C72.2838 95.0675 70.5512 88.6806 73.0262 84.2531C74.9237 80.9325 78.9662 79.145 84.8306 79.145C88.5134 79.237 92.1709 79.7819 95.7206 80.7675C98.9381 69.5269 104.142 62.2875 110.082 62.2875C116.022 62.2875 121.22 69.5269 124.362 80.85C127.912 79.8667 131.569 79.3241 135.252 79.2344C141.116 79.2344 145.159 81.0219 147.056 84.3425C149.531 88.77 147.799 95.1569 142.106 102.396C141.05 103.762 139.92 105.07 138.724 106.315C139.92 107.552 141.048 108.859 142.106 110.227ZM135.334 82.3831C131.909 82.4909 128.506 82.975 125.187 83.8269C126.074 87.8694 126.699 91.9669 127.084 96.0919C130.343 98.4981 133.457 101.117 136.414 103.929C137.569 102.733 138.641 101.454 139.631 100.265C144.334 94.215 146.066 89.0244 144.334 85.8756C142.766 82.9813 138.559 82.3831 135.334 82.3831ZM117.184 119.082C119.577 117.638 121.887 116.105 124.032 114.572C124.279 111.843 124.362 109.12 124.362 106.226C124.362 103.331 124.197 100.519 124.032 97.8794C121.804 96.3175 119.517 94.8406 117.178 93.4519C114.821 92.1094 112.427 90.8325 110 89.6225C107.539 90.7638 105.146 92.0425 102.823 93.4519C100.348 94.8956 98.1131 96.3463 95.9681 97.8794C95.7206 100.519 95.6381 103.331 95.6381 106.226C95.6381 109.113 95.8031 111.932 95.9681 114.572C100.428 117.703 105.119 120.49 110 122.911C112.461 121.77 114.854 120.491 117.178 119.082H117.184ZM123.702 118.827C122.052 119.845 120.484 120.869 118.834 121.894C117.184 122.911 115.534 123.853 113.884 124.699C116.593 125.923 119.378 126.974 122.217 127.854C122.794 125.043 123.289 122.059 123.702 118.827ZM106.287 124.699L101.337 121.894C99.6875 120.869 98.0375 119.845 96.4631 118.827C96.7588 121.866 97.2537 124.878 97.9481 127.854C100.781 126.961 103.565 125.909 106.287 124.699ZM92.7506 112.097C92.652 110.141 92.597 108.184 92.5856 106.226C92.5856 104.184 92.6681 102.307 92.7506 100.347C90.3512 102.162 88.0619 104.122 85.9031 106.226C88.0756 108.309 90.365 110.275 92.7506 112.097ZM96.4631 93.7956C98.0141 92.7064 99.6105 91.6833 101.248 90.7294C102.988 89.705 104.638 88.77 106.287 87.9175C103.572 86.6938 100.787 85.6488 97.9481 84.7687C97.3706 87.5737 96.8756 90.5575 96.4631 93.7956ZM113.795 87.9175C115.445 88.77 117.095 89.705 118.745 90.7294C120.395 91.7469 122.045 92.7712 123.619 93.7956C123.327 90.7568 122.831 87.7411 122.134 84.7687C119.302 85.6625 116.518 86.7075 113.795 87.9175ZM127.414 100.43C127.497 102.396 127.579 104.266 127.579 106.308C127.579 108.35 127.497 110.309 127.414 112.186C129.807 110.227 132.117 108.268 134.179 106.308C132.058 104.203 129.798 102.241 127.414 100.437V100.43ZM110.082 65.5256C105.875 65.5256 101.585 71.4863 98.7731 81.6131C102.637 82.83 106.411 84.3081 110.082 86.0337C113.749 84.3107 117.527 82.8361 121.392 81.62C118.58 71.4862 114.207 65.5256 110.082 65.5256ZM75.8312 85.8756C74.0162 89.0244 75.7487 94.3044 80.5337 100.176C81.5237 101.448 82.5963 102.637 83.7513 103.916C86.6938 101.097 89.8012 98.4844 93.0806 96.0919C93.4587 91.9669 94.0912 87.8694 94.9781 83.8338C91.6644 82.94 88.2544 82.4587 84.8306 82.3831C81.6062 82.3831 77.4812 82.9813 75.8312 85.8756ZM84.8306 130.151C88.2612 130.082 91.6712 129.566 94.9781 128.611C94.0933 124.57 93.4596 120.478 93.0806 116.359C89.76 113.994 86.6181 111.375 83.6688 108.522C76.5737 116.105 73.7687 122.911 75.8312 126.658C77.3987 129.553 81.6062 130.151 84.8306 130.151ZM110.082 147.008C114.207 147.008 118.58 141.047 121.392 130.921C117.527 129.7 113.749 128.221 110.082 126.493C106.415 128.218 102.637 129.697 98.7731 130.921C101.585 141.047 105.957 147.008 110.082 147.008ZM144.334 126.658C146.066 123.592 144.334 118.319 139.631 112.269C138.606 111.009 137.532 109.789 136.414 108.611C133.471 111.43 130.364 114.042 127.084 116.449C126.707 120.57 126.073 124.664 125.187 128.707C128.501 129.594 131.911 130.082 135.334 130.151C138.559 130.151 142.684 129.553 144.334 126.658ZM110.082 93.7956C116.751 93.7956 122.169 99.3438 122.217 106.226C122.217 113.08 116.834 118.642 110.192 118.656C103.551 118.669 98.1475 113.135 98.1131 106.281C98.0856 99.4262 103.441 93.8369 110.082 93.7956ZM110.082 115.507C114.991 115.466 118.958 111.375 118.999 106.308C118.999 101.228 115.012 97.1163 110.082 97.1163C105.153 97.1163 101.166 101.228 101.166 106.308C101.166 111.389 105.16 115.507 110.082 115.507Z" fill="white"/>
</g>
<defs>
<clipPath id="clip0_108_327">
<rect width="220" height="220" fill="white"/>
</clipPath>
</defs>
</svg>
