<svg width="220" height="220" viewBox="0 0 220 220" fill="none" xmlns="http://www.w3.org/2000/svg">
<g clip-path="url(#clip0_108_328)">
<path d="M110 220C170.751 220 220 170.751 220 110C220 49.2487 170.751 0 110 0C49.2487 0 0 49.2487 0 110C0 170.751 49.2487 220 110 220Z" fill="#454545"/>
<path fill-rule="evenodd" clip-rule="evenodd" d="M79.0625 110C79.0625 92.9431 92.9431 79.0625 110 79.0625C127.057 79.0625 140.938 92.9431 140.938 110C140.938 114.489 139.954 118.745 138.229 122.602L117.81 102.183L102.19 117.81L122.609 138.229C118.645 140.014 114.347 140.937 110 140.938C101.798 140.928 93.9339 137.666 88.1339 131.866C82.334 126.066 79.0716 118.202 79.0625 110ZM160.277 110C160.286 100.289 157.467 90.7864 152.164 82.6513L171.875 62.9338L157.066 48.125L137.349 67.8425C129.47 62.7206 120.092 59.7231 110 59.7231C99.9075 59.7231 90.53 62.7206 82.6513 67.8356L62.9338 48.125L48.125 62.9338L67.8425 82.6513C62.7206 90.53 59.7231 99.9075 59.7231 110C59.7231 120.092 62.7275 129.47 67.8425 137.349L48.125 157.066L62.9338 171.875L82.6513 152.158C90.53 157.279 99.9075 160.277 110 160.277C120.092 160.277 129.47 157.279 137.349 152.158L157.066 171.875L171.875 157.066L152.158 137.349C157.463 129.215 160.284 119.711 160.277 110Z" fill="white"/>
</g>
<defs>
<clipPath id="clip0_108_328">
<rect width="220" height="220" fill="white"/>
</clipPath>
</defs>
</svg>
