<svg width="220" height="220" viewBox="0 0 220 220" fill="none" xmlns="http://www.w3.org/2000/svg">
<g clip-path="url(#clip0_108_329)">
<path d="M110 220C170.751 220 220 170.751 220 110C220 49.2487 170.751 0 110 0C49.2487 0 0 49.2487 0 110C0 170.751 49.2487 220 110 220Z" fill="#2E9AD0"/>
<path d="M174.027 162.497L160.462 150.425L133.017 171.016C133.345 171.734 133.514 172.515 133.512 173.305C133.523 174.736 132.966 176.113 131.964 177.133C130.961 178.154 129.594 178.735 128.164 178.75C126.907 178.743 125.693 178.296 124.731 177.487C123.769 176.679 123.12 175.559 122.897 174.323H93.2661C93.0433 175.558 92.3957 176.677 91.4353 177.485C90.4749 178.294 89.2621 178.741 88.0067 178.75C86.5748 178.737 85.2064 178.157 84.2022 177.136C83.198 176.115 82.6401 174.737 82.6511 173.305C82.6496 172.52 82.8161 171.744 83.1392 171.029L58.7605 152.879C57.7889 153.76 56.5244 154.248 55.213 154.248C53.781 154.235 52.4126 153.654 51.4084 152.633C50.4043 151.612 49.8464 150.234 49.8574 148.802C49.8574 146.74 50.9849 144.946 52.6486 144.018L43.6905 115.418C42.9409 115.484 42.1857 115.392 41.4733 115.15C40.761 114.907 40.1072 114.518 39.5538 114.008C39.0005 113.498 38.5597 112.878 38.2598 112.188C37.96 111.498 37.8075 110.753 37.8124 110C37.8078 109.233 37.9666 108.474 38.2781 107.773C38.5895 107.073 39.0466 106.446 39.6189 105.936C40.1911 105.425 40.8655 105.042 41.5972 104.813C42.3288 104.583 43.101 104.511 43.8624 104.603L52.6692 75.9963C51.8135 75.5218 51.101 74.8261 50.6063 73.9819C50.1116 73.1376 49.853 72.176 49.8574 71.1975C49.8574 68.1931 52.2567 65.7525 55.213 65.7525C56.6017 65.7525 57.8667 66.2888 58.8155 67.1688L83.3799 49.4313C82.902 48.5985 82.6507 47.6551 82.6511 46.695C82.6511 43.6906 85.0505 41.25 88.0067 41.25C90.6192 41.25 92.7986 43.1544 93.2661 45.6775H122.897C123.12 44.4409 123.769 43.3213 124.731 42.5126C125.693 41.704 126.907 41.2573 128.164 41.25C131.12 41.25 133.512 43.6906 133.512 46.695C133.515 47.6065 133.29 48.5042 132.859 49.3075L157.265 67.2512C158.254 66.2899 159.579 65.7522 160.957 65.7525C163.914 65.7525 166.306 68.1931 166.306 71.1975C166.31 72.1014 166.09 72.9921 165.665 73.79C165.24 74.5879 164.624 75.268 163.872 75.7694L172.645 104.569C173.384 104.518 174.126 104.622 174.823 104.873C175.519 105.124 176.156 105.518 176.693 106.029C177.23 106.54 177.654 107.156 177.94 107.84C178.225 108.524 178.365 109.259 178.351 110C178.357 110.724 178.217 111.441 177.94 112.11C177.664 112.778 177.255 113.384 176.74 113.892C176.224 114.4 175.612 114.799 174.939 115.066C174.266 115.333 173.547 115.462 172.824 115.445L162.532 148.651L175.711 160.38C177.168 159.059 179.066 158.329 181.032 158.331C185.467 158.331 189.062 161.989 189.062 166.499C189.062 171.009 185.467 174.666 181.032 174.666C179.969 174.657 178.917 174.439 177.938 174.024C176.959 173.608 176.071 173.004 175.326 172.246C174.58 171.487 173.991 170.589 173.592 169.603C173.194 168.617 172.993 167.562 173.002 166.499C173.002 165.041 173.374 163.68 174.034 162.497H174.027ZM128.617 167.881L138.84 144.856C138.001 144.163 137.388 143.234 137.08 142.189L113.362 145.64C113.193 146.648 112.746 147.589 112.069 148.356L126.142 168.259C126.925 167.935 127.774 167.806 128.617 167.881ZM131.319 168.912L157.919 148.954L146.451 143.963C145.86 144.746 145.063 145.35 144.149 145.708C143.235 146.066 142.24 146.164 141.274 145.991L131.147 168.788C131.205 168.826 131.263 168.865 131.319 168.905V168.912ZM123.997 169.881L109.835 149.861C108.7 150.262 107.463 150.262 106.329 149.861L92.1661 169.881C92.5762 170.394 92.8906 170.976 93.0942 171.6H123.069C123.273 170.976 123.587 170.394 123.997 169.881ZM170.252 114.675C169.453 114.185 168.794 113.498 168.337 112.679C167.881 111.86 167.643 110.937 167.647 110C167.647 108.075 168.623 106.391 170.101 105.421L161.81 78.1962L159.954 104.83C162.085 105.545 163.632 107.587 163.632 110C163.637 111.131 163.289 112.235 162.638 113.16C161.986 114.084 161.062 114.782 159.995 115.156L161.824 141.872L170.252 114.675ZM154.756 105.896L143.866 84.5488C142.979 84.8422 142.03 84.8944 141.116 84.7L131.546 105.786C132.163 106.301 132.659 106.945 132.999 107.674C133.339 108.402 133.514 109.196 133.512 110C133.514 110.817 133.332 111.624 132.982 112.361C132.631 113.099 132.119 113.748 131.484 114.263L141.35 135.259C142.059 135.142 142.784 135.17 143.481 135.341L154.612 113.96C154.077 113.449 153.651 112.834 153.36 112.153C153.07 111.473 152.92 110.74 152.92 110C152.92 108.364 153.635 106.893 154.756 105.896ZM157.327 115.363C157.203 115.34 157.079 115.312 156.956 115.28L145.839 136.62C146.491 137.229 146.984 137.989 147.276 138.833C147.567 139.676 147.647 140.578 147.51 141.46L159.472 146.671L157.327 115.363ZM157.286 104.651L159.252 76.3675C158.217 76.0112 157.315 75.3467 156.667 74.4631L147.469 78.3063C147.63 79.1521 147.593 80.0238 147.36 80.8529C147.127 81.682 146.706 82.4458 146.128 83.0844L157.155 104.672C157.199 104.664 157.242 104.658 157.286 104.651ZM129.044 115.376C128.276 115.505 127.49 115.462 126.74 115.253L112.145 141.171C112.582 141.687 112.92 142.279 113.142 142.918L136.984 139.452C137.259 138.208 137.947 137.115 138.895 136.359L129.044 115.363V115.376ZM129.112 104.644L138.717 83.49C137.741 82.6324 137.102 81.4552 136.915 80.1694L113.025 76.6975C112.762 77.3391 112.379 77.9247 111.897 78.4231L126.603 104.789C127.418 104.538 128.281 104.488 129.119 104.644H129.112ZM124.424 113.898C123.91 113.388 123.502 112.78 123.225 112.111C122.948 111.442 122.806 110.724 122.808 110C122.808 108.529 123.385 107.188 124.32 106.212L109.608 79.8256C108.788 80.0741 107.919 80.1189 107.078 79.9562L91.9049 106.267C92.8447 107.283 93.3653 108.616 93.3624 110C93.3666 111.436 92.8061 112.816 91.8017 113.843L106.707 139.452C107.774 139.166 108.904 139.221 109.938 139.611L124.424 113.898ZM46.2067 114.483L54.7455 141.749L56.7599 115.321C55.5562 115.046 54.4821 114.369 53.7148 113.402C52.9475 112.435 52.5326 111.235 52.5386 110C52.5323 108.749 52.9577 107.535 53.7431 106.562C54.5284 105.589 55.6256 104.916 56.8492 104.658L54.7661 78.2994L46.358 105.628C47.033 106.139 47.58 106.8 47.9558 107.559C48.3316 108.317 48.526 109.153 48.5236 110C48.5236 111.856 47.6024 113.506 46.2067 114.483ZM72.9367 135.286C73.7301 135.131 74.5485 135.159 75.3292 135.369L84.748 114.324C84.0925 113.811 83.5628 113.154 83.1995 112.405C82.8361 111.655 82.6485 110.833 82.6511 110C82.6511 108.295 83.4211 106.776 84.6242 105.779L75.0542 84.7C74.3934 84.8394 73.712 84.8511 73.0467 84.7344L61.5036 105.985C62.0554 106.498 62.4953 107.119 62.7958 107.81C63.0962 108.501 63.2508 109.247 63.2499 110C63.252 110.733 63.1071 111.458 62.8237 112.134C62.5403 112.809 62.1241 113.421 61.5999 113.933L72.9436 135.286H72.9367ZM75.1642 145.943C74.1845 146.173 73.1594 146.118 72.2094 145.786C71.2595 145.453 70.4242 144.856 69.8017 144.066L60.5205 148.108C60.6258 148.954 60.5364 149.812 60.2592 150.618L84.8374 168.919C84.9094 168.864 84.9827 168.811 85.0574 168.761L75.1574 145.936L75.1642 145.943ZM68.6811 141.591C68.5101 140.648 68.5896 139.677 68.9117 138.774C69.2339 137.872 69.7873 137.07 70.5167 136.448L59.4274 115.583L57.2755 143.77C58.1778 144.156 58.9575 144.781 59.5305 145.578L68.6811 141.591ZM79.1999 139.535L103.022 142.931C103.298 142.12 103.762 141.385 104.376 140.786L89.4986 115.232C88.7585 115.451 87.9794 115.505 87.2161 115.39L77.6599 136.709C78.4468 137.474 78.9838 138.459 79.1999 139.535ZM79.0624 142.264C78.7756 143.187 78.2489 144.018 77.5361 144.671L87.5942 167.874C88.4221 167.811 89.2531 167.943 90.0211 168.259L104.101 148.356C103.427 147.593 102.979 146.657 102.809 145.654L79.0624 142.264ZM68.7292 78.1756L59.5786 74.3531C59.0047 75.1776 58.2117 75.8253 57.2892 76.2231L59.4892 104.074L70.5992 83.6137C69.8148 82.9707 69.2246 82.1223 68.8944 81.1632C68.5641 80.2041 68.507 79.1722 68.7292 78.1825V78.1756ZM75.2605 74.085L84.7136 51.81L60.2867 69.4513C60.5391 70.2101 60.6235 71.0147 60.5342 71.8094L69.953 75.7487C70.5967 75.0069 71.4338 74.4586 72.371 74.1648C73.3082 73.871 74.3085 73.8434 75.2605 74.085ZM79.2617 80.0869C79.0922 81.4032 78.4495 82.6128 77.4536 83.49L87.0511 104.644C87.9182 104.484 88.8114 104.543 89.6499 104.816L104.651 78.7875C103.985 78.2178 103.467 77.4962 103.139 76.6838L79.2617 80.0869ZM77.6117 75.3981C78.1892 75.9481 78.643 76.6287 78.9386 77.385L102.76 73.9888C102.87 72.9932 103.25 72.0467 103.86 71.2525L90.1792 51.6725C89.3401 52.0538 88.4155 52.2079 87.498 52.1194L77.6186 75.3981H77.6117ZM141.707 73.9475C142.57 73.8676 143.439 73.9994 144.239 74.3312C145.04 74.663 145.747 75.185 146.3 75.8519L155.65 71.9469C155.543 71.1466 155.611 70.3327 155.849 69.5613L131.587 51.7275L141.7 73.9475H141.707ZM137.197 77.4537C137.584 76.4112 138.279 75.5116 139.191 74.8756L128.81 52.0988C127.849 52.2157 126.874 52.0683 125.991 51.6725L112.31 71.2525C112.918 72.0531 113.298 73.0033 113.41 74.0025L137.197 77.4606V77.4537ZM123.887 49.9812C123.532 49.502 123.258 48.9678 123.076 48.4H93.0874C92.9029 48.9683 92.6265 49.5024 92.2692 49.9812L105.978 69.5956C106.64 69.308 107.353 69.1595 108.075 69.1595C108.796 69.1595 109.51 69.308 110.172 69.5956L123.887 49.9812Z" fill="white"/>
</g>
<defs>
<clipPath id="clip0_108_329">
<rect width="220" height="220" fill="white"/>
</clipPath>
</defs>
</svg>
