<svg width="220" height="220" viewBox="0 0 220 220" fill="none" xmlns="http://www.w3.org/2000/svg">
<g clip-path="url(#clip0_108_331)">
<path d="M110 220C170.751 220 220 170.751 220 110C220 49.2487 170.751 0 110 0C49.2487 0 0 49.2487 0 110C0 170.751 49.2487 220 110 220Z" fill="#9D4BEF"/>
<path d="M78.8563 52.6699C85.7997 52.6699 92.4587 55.4282 97.3684 60.3379C102.278 65.2476 105.036 71.9066 105.036 78.8499C105.036 85.7933 102.278 92.4523 97.3684 97.362C92.4587 102.272 85.7997 105.03 78.8563 105.03C71.913 105.03 65.254 102.272 60.3443 97.362C55.4346 92.4523 52.6763 85.7933 52.6763 78.8499C52.6763 71.9066 55.4346 65.2476 60.3443 60.3379C65.254 55.4282 71.913 52.6699 78.8563 52.6699ZM105.029 141.151C105.029 146.329 103.494 151.391 100.617 155.696C97.7406 160.001 93.6519 163.357 88.8681 165.338C84.0843 167.32 78.8204 167.838 73.742 166.828C68.6636 165.818 63.9987 163.325 60.3374 159.663C56.6761 156.002 54.1826 151.337 53.1725 146.259C52.1623 141.18 52.6808 135.916 54.6623 131.133C56.6438 126.349 59.9993 122.26 64.3046 119.383C68.6099 116.507 73.6715 114.971 78.8494 114.971C88.4276 114.971 97.6134 111.166 104.386 104.394C111.159 97.6208 114.964 88.4349 114.964 78.8568C114.964 73.6789 116.499 68.6172 119.376 64.312C122.253 60.0067 126.341 56.6511 131.125 54.6696C135.909 52.6881 141.173 52.1697 146.251 53.1798C151.33 54.19 155.995 56.6834 159.656 60.3447C163.317 64.0061 165.811 68.6709 166.821 73.7493C167.831 78.8278 167.312 84.0917 165.331 88.8755C163.349 93.6592 159.994 97.748 155.689 100.625C151.383 103.501 146.322 105.037 141.144 105.037C131.567 105.039 122.383 108.844 115.612 115.617C108.84 122.389 105.036 131.574 105.036 141.151H105.029ZM141.144 167.331C134.2 167.331 127.541 164.573 122.632 159.663C117.722 154.754 114.964 148.095 114.964 141.151C114.964 134.208 117.722 127.549 122.632 122.639C127.541 117.729 134.2 114.971 141.144 114.971C148.087 114.971 154.746 117.729 159.656 122.639C164.566 127.549 167.324 134.208 167.324 141.151C167.324 148.095 164.566 154.754 159.656 159.663C154.746 164.573 148.087 167.331 141.144 167.331ZM141.144 149.044C143.237 149.044 145.245 148.212 146.725 146.732C148.205 145.252 149.036 143.244 149.036 141.151C149.036 139.058 148.205 137.05 146.725 135.57C145.245 134.09 143.237 133.259 141.144 133.259C139.051 133.259 137.043 134.09 135.563 135.57C134.083 137.05 133.251 139.058 133.251 141.151C133.251 143.244 134.083 145.252 135.563 146.732C137.043 148.212 139.051 149.044 141.144 149.044ZM78.8563 149.044C80.9495 149.044 82.957 148.212 84.4372 146.732C85.9173 145.252 86.7488 143.244 86.7488 141.151C86.7488 139.058 85.9173 137.05 84.4372 135.57C82.957 134.09 80.9495 133.259 78.8563 133.259C76.7631 133.259 74.7556 134.09 73.2755 135.57C71.7953 137.05 70.9638 139.058 70.9638 141.151C70.9638 143.244 71.7953 145.252 73.2755 146.732C74.7556 148.212 76.7631 149.044 78.8563 149.044ZM141.144 86.7424C143.237 86.7424 145.245 85.9109 146.725 84.4308C148.205 82.9506 149.036 80.9431 149.036 78.8499C149.036 76.7567 148.205 74.7492 146.725 73.2691C145.245 71.789 143.237 70.9574 141.144 70.9574C139.051 70.9574 137.043 71.789 135.563 73.2691C134.083 74.7492 133.251 76.7567 133.251 78.8499C133.251 80.9431 134.083 82.9506 135.563 84.4308C137.043 85.9109 139.051 86.7424 141.144 86.7424ZM78.8563 86.7424C80.9495 86.7424 82.957 85.9109 84.4372 84.4308C85.9173 82.9506 86.7488 80.9431 86.7488 78.8499C86.7488 76.7567 85.9173 74.7492 84.4372 73.2691C82.957 71.789 80.9495 70.9574 78.8563 70.9574C76.7631 70.9574 74.7556 71.789 73.2755 73.2691C71.7953 74.7492 70.9638 76.7567 70.9638 78.8499C70.9638 80.9431 71.7953 82.9506 73.2755 84.4308C74.7556 85.9109 76.7631 86.7424 78.8563 86.7424Z" fill="white"/>
</g>
<defs>
<clipPath id="clip0_108_331">
<rect width="220" height="220" fill="white"/>
</clipPath>
</defs>
</svg>
