<svg width="220" height="220" viewBox="0 0 220 220" fill="none" xmlns="http://www.w3.org/2000/svg">
<g clip-path="url(#clip0_108_333)">
<path d="M110 220C170.751 220 220 170.751 220 110C220 49.2487 170.751 0 110 0C49.2487 0 0 49.2487 0 110C0 170.751 49.2487 220 110 220Z" fill="#3555F9"/>
<path d="M98.725 45.5603C104.569 44.474 110.55 44.5978 116.462 44.8934C123.282 45.6909 130.116 47.1209 136.386 49.9396C148.909 55.1724 159.523 64.1236 166.794 75.5834C169.496 79.5228 171.311 83.9365 173.133 88.3159C174.824 85.6209 176.337 82.8159 177.808 79.9971C178.441 78.6703 179.767 77.6459 181.314 77.7146C182.343 77.6343 183.364 77.954 184.163 78.6072C184.962 79.2603 185.478 80.1965 185.604 81.2209C185.776 82.8709 184.738 84.294 184.057 85.724C181.912 90.0553 179.142 94.0565 176.275 97.9615C175.746 98.5253 175.966 99.309 176.027 99.9965C179.217 118.813 173.147 138.84 160.215 153.017C152.76 161.303 143.365 167.61 132.873 171.373C120.787 175.601 107.477 176.557 94.9781 173.6C76.8556 169.675 60.8231 157.726 51.7068 141.872C49.7131 138.662 48.4412 135.093 46.8668 131.683C45.1481 134.33 43.6906 137.115 42.2262 139.892C41.8822 140.58 41.3644 141.167 40.7241 141.594C40.0839 142.021 39.3433 142.273 38.5756 142.326C35.9562 142.326 33.5775 139.507 34.6293 136.998C36.8843 131.814 39.9712 127.015 43.4293 122.533C44.1718 121.756 44.0687 120.656 43.9312 119.687C42.6472 111.413 43.0211 102.968 45.0312 94.8403C50.325 71.9878 69.3 52.9028 92.2968 46.9559C94.4281 46.454 96.5593 45.9246 98.725 45.5603ZM82.4862 59.379C70.2968 65.7865 60.4862 76.5046 55.3987 89.1615C52.4562 96.8065 50.9575 105.029 51.4112 113.21C52.7022 112.241 53.9328 111.194 55.0962 110.075C61.9368 103.97 69.9462 99.2403 78.32 95.4728C93.8781 88.3984 111.011 85.3528 128.033 84.5278C122.279 78.5603 116.036 73.0534 110.282 67.0859C112.097 65.0921 114.063 63.2496 116.029 61.4071C118.264 63.4284 120.326 65.6215 122.512 67.6909C129.594 74.7378 136.888 81.5784 143.852 88.7215C136.427 96.1259 128.81 103.345 121.385 110.749C120.759 111.338 120.103 111.893 119.419 112.413C117.549 110.529 115.376 108.879 113.877 106.672C118.442 101.887 123.64 97.6934 128.019 92.7365C120.168 92.8465 112.358 93.9603 104.672 95.4865C98.4637 96.5934 92.4962 98.6903 86.5356 100.691C74.0506 105.366 62.535 112.818 53.7556 122.787C53.2331 123.303 53.3087 124.066 53.4462 124.712C54.4843 129.167 56.4437 133.333 58.5887 137.362C65.67 150.129 77.9075 159.995 91.9668 164.45C100.189 166.98 108.962 167.956 117.514 166.767C129.47 165.265 140.68 160.143 149.641 152.088C162.463 140.786 169.654 123.564 168.547 106.658C167.193 107.71 165.983 108.907 164.718 110.048C156.118 117.446 146.227 123.194 135.541 127.002C121.653 132.158 106.858 134.825 92.0425 135.245C93.335 136.936 94.93 138.352 96.4356 139.858C100.87 144.175 105.242 148.548 109.746 152.797C108.013 154.838 105.992 156.619 104.081 158.489C102.162 156.928 100.506 155.113 98.7181 153.402C92.0218 146.912 85.3943 140.339 78.7118 133.822C77.7865 132.98 76.9355 132.06 76.1681 131.072C79.0625 127.964 82.39 125.283 85.3531 122.244C90.4406 117.328 95.3906 112.268 100.54 107.415C102.465 109.285 104.486 111.072 106.198 113.142C101.619 117.885 96.745 122.347 92.1043 127.029C97.1918 127.283 102.211 126.41 107.257 125.929C110.901 125.544 114.482 124.719 118.078 123.97C136.537 119.707 154.516 110.942 166.904 96.4971C162.161 75.9821 144.719 59.0971 123.963 54.3259C110.137 50.8128 95.0606 52.8134 82.4862 59.379Z" fill="white"/>
</g>
<defs>
<clipPath id="clip0_108_333">
<rect width="220" height="220" fill="white"/>
</clipPath>
</defs>
</svg>
