<svg width="220" height="220" viewBox="0 0 220 220" fill="none" xmlns="http://www.w3.org/2000/svg">
<g clip-path="url(#clip0_108_334)">
<path d="M110 220C170.751 220 220 170.751 220 110C220 49.2487 170.751 0 110 0C49.2487 0 0 49.2487 0 110C0 170.751 49.2487 220 110 220Z" fill="#E30613"/>
<path opacity="0.75" fill-rule="evenodd" clip-rule="evenodd" d="M105.607 185.627C66.275 185.627 34.375 154.05 34.375 115.103C34.375 76.1565 66.2681 44.5796 105.607 44.5796C144.952 44.5796 176.846 76.1565 176.846 115.103C176.846 154.05 144.946 185.627 105.6 185.627H105.607ZM117.906 64.7852C134.516 71.5846 146.451 84.379 154.921 101.621L161.315 97.1733C154.138 79.9033 140.876 66.3321 119.543 57.5321L117.906 64.7852Z" fill="white"/>
<path d="M185.57 64.0819C185.57 47.6781 172.129 34.375 155.56 34.375C138.992 34.375 125.551 47.6781 125.551 64.0819C125.551 65.6494 125.675 67.21 125.922 68.7569C135.912 74.5731 143.935 82.9194 150.349 93.3419C152.068 93.6375 153.814 93.7956 155.56 93.7956C172.129 93.7956 185.57 80.4925 185.57 64.0819Z" fill="white"/>
</g>
<defs>
<clipPath id="clip0_108_334">
<rect width="220" height="220" fill="white"/>
</clipPath>
</defs>
</svg>
