<svg width="220" height="220" viewBox="0 0 220 220" fill="none" xmlns="http://www.w3.org/2000/svg">
<g clip-path="url(#clip0_108_335)">
<path d="M110 220C170.751 220 220 170.751 220 110C220 49.2487 170.751 0 110 0C49.2487 0 0 49.2487 0 110C0 170.751 49.2487 220 110 220Z" fill="#2A2A2A"/>
<path d="M68.75 41.2911H124.513C125.187 41.0849 125.531 41.7036 125.971 42.0474C131.227 47.012 135.942 52.5199 140.037 58.4786C145.855 66.8118 150.423 75.9516 153.594 85.6074C156.908 95.8099 158.476 106.604 158.063 117.329H129.635C129.775 115.903 129.825 114.47 129.786 113.039C129.491 102.926 126.369 93.0049 121.454 84.2186C116.194 74.8068 108.852 66.6874 100.506 59.943C91.4169 52.5936 81.1869 46.7911 70.5306 42.1024C69.9394 41.8274 69.3206 41.6074 68.75 41.2911ZM89.3887 91.6643C98.9264 108.919 108.448 126.182 117.954 143.454C120.244 147.62 122.561 151.772 124.829 155.946C112.997 163.522 101.2 171.167 89.375 178.75V91.6643H89.3887Z" fill="white"/>
</g>
<defs>
<clipPath id="clip0_108_335">
<rect width="220" height="220" fill="white"/>
</clipPath>
</defs>
</svg>
