<svg width="220" height="220" viewBox="0 0 220 220" fill="none" xmlns="http://www.w3.org/2000/svg">
<g clip-path="url(#clip0_108_336)">
<path d="M110 220C170.751 220 220 170.751 220 110C220 49.2487 170.751 0 110 0C49.2487 0 0 49.2487 0 110C0 170.751 49.2487 220 110 220Z" fill="#080817"/>
<path d="M64.9 67.0587L75.6525 60.8644L77.1788 63.36L117.054 40.3288L114.118 38.5894L111.176 36.9669L109.766 36.0938L44.6875 73.6931V75.3156L63.3738 64.5563L64.9 67.0587ZM64.9 90.7362L96.1813 72.7031L97.5906 75.2125L137.583 52.1675L134.654 50.4281L131.718 48.8056L130.295 47.9325L44.6875 97.2537V98.9931L63.3738 88.2406L64.9 90.7362ZM64.9 102.575L106.398 78.5813L107.807 81.0769L147.799 58.0456L144.87 56.4094L141.914 54.6631L140.511 53.7969L44.6875 109.106V110.825L63.3738 99.9762L64.9 102.575ZM64.9 114.318L116.93 84.3219L118.36 86.8381L158.015 63.91L155.066 62.2669L152.137 60.5481L150.728 59.7713L44.6875 120.952V122.574L63.3738 111.822L64.9 114.318ZM64.9 126.156L127.146 90.2L128.569 92.8125L168.231 69.8913L165.275 68.145L162.47 66.5087L160.944 65.6494L44.6875 132.791V134.413L63.3738 123.661L64.9 126.156ZM172.666 72.3869L171.153 71.5138L44.6875 144.629V146.252L63.3738 135.499L64.9 137.995L127.146 102.039L128.569 104.541L174.838 77.9281V73.6931L172.666 72.3869ZM52.7313 153.436L63.1606 147.455L64.68 149.958L126.83 114.001L128.342 116.593L174.845 89.65V81.29L51.3219 152.57L52.7313 153.436ZM126.83 125.84L128.342 128.452L174.845 101.503V93.1356L61.5312 158.537L62.9338 159.411L73.59 153.216L75.0956 155.712L126.83 125.84ZM73.1569 165.275L83.9094 159.087L85.3119 161.7L126.837 137.679L128.336 140.174L174.845 113.348V104.878L71.7338 164.409L73.1569 165.275ZM83.4763 171.139L94.1256 165.062L95.5281 167.557L126.83 149.517L128.342 152.013L174.845 125.187V116.71L81.95 170.383L83.4763 171.139ZM92.1663 176.247L93.6856 177.121L104.342 170.919L105.744 173.532L126.83 161.363L128.342 163.873L174.845 137.026V128.563L92.1663 176.247ZM103.902 182.978L114.558 176.901L116.064 179.396L126.83 173.099L128.342 175.711L174.845 148.864V140.394L102.479 182.229L103.902 182.978ZM127.366 46.1931L124.438 44.5706L121.502 42.8244L119.983 41.9581L44.6875 85.525V87.1475L63.3738 76.395L64.9 78.8906L85.965 66.7356L87.395 69.2312L127.366 46.1931Z" fill="white"/>
</g>
<defs>
<clipPath id="clip0_108_336">
<rect width="220" height="220" fill="white"/>
</clipPath>
</defs>
</svg>
