<svg width="220" height="220" viewBox="0 0 220 220" fill="none" xmlns="http://www.w3.org/2000/svg">
<g clip-path="url(#clip0_108_337)">
<path d="M110 220C170.751 220 220 170.751 220 110C220 49.2487 170.751 0 110 0C49.2487 0 0 49.2487 0 110C0 170.751 49.2487 220 110 220Z" fill="#602A52"/>
<path fill-rule="evenodd" clip-rule="evenodd" d="M141.501 112.145C139.588 106.809 136.174 102.14 131.67 98.6976L131.622 98.6426C131.145 98.2815 130.656 97.9353 130.157 97.6045L130.061 97.5357C129.57 97.2132 129.07 96.9037 128.562 96.6076L128.425 96.5251C127.927 96.2366 127.416 95.9727 126.892 95.7345L126.741 95.652C126.205 95.4003 125.664 95.1596 125.118 94.9301L124.939 94.8613C123.173 94.1281 121.341 93.5663 119.467 93.1838C118.387 95.1419 116.999 96.9131 115.356 98.4295C119.215 98.7374 122.943 99.9708 126.225 102.025L126.411 102.135L127.318 102.754L127.731 103.043C128.006 103.249 128.26 103.455 128.542 103.661L129.002 104.033C129.25 104.239 129.477 104.445 129.711 104.658L130.178 105.105L130.817 105.751L131.285 106.253L131.856 106.92L132.302 107.477L132.818 108.164C132.99 108.391 133.107 108.57 133.244 108.769C133.382 108.969 133.561 109.23 133.705 109.471L134.104 110.131C134.227 110.351 134.379 110.598 134.502 110.832C134.64 111.059 134.75 111.313 134.874 111.561C134.991 111.808 135.107 112.014 135.211 112.248C135.339 112.553 135.463 112.86 135.582 113.169C136.234 114.797 136.696 116.495 136.957 118.229L137.706 121.007C138.022 122.162 140.944 132.392 147.716 135.836C155.478 139.817 165.756 144.733 169.799 146.678L116.407 178.028V156.544C116.407 153.154 123.282 149.188 126.466 147.792L126.651 147.689C127.304 147.366 127.957 147.015 128.576 146.644L128.844 146.506C130.221 145.677 131.532 144.741 132.763 143.708L133.093 143.413L133.471 143.076C133.858 142.728 134.237 142.37 134.606 142.003L134.798 141.818C135.204 141.412 135.609 141.027 135.967 140.553L136.304 140.168C136.606 139.81 136.895 139.446 137.177 139.074L137.424 138.765C137.768 138.311 138.084 137.844 138.401 137.369L138.511 137.232C138.937 136.565 139.315 135.898 139.714 135.204C138.216 133.396 136.934 131.422 135.891 129.319C135.465 130.508 134.929 131.663 134.31 132.77C134.049 133.251 133.774 133.719 133.499 134.173L133.375 134.358C133.116 134.744 132.845 135.122 132.564 135.493L132.316 135.809C132.036 136.17 131.743 136.521 131.436 136.861L131.271 137.053C129.282 139.225 126.907 141.009 124.266 142.313L123.764 142.567C122.409 143.165 110.474 148.459 110.474 156.509V178.001L56.9181 146.596C60.3625 144.492 70.4275 138.634 78.705 136.056C81.9431 135.066 88.8181 139.308 92.7162 142.423L92.95 142.629C93.4656 143.11 94.0087 143.571 94.5725 144.004L94.765 144.176C96.0025 145.166 97.3225 146.053 98.7044 146.836L99.6325 147.338L99.8181 147.434C100.719 147.888 101.64 148.301 102.582 148.665L102.994 148.823L103.269 148.933C104.624 149.428 106.019 149.813 107.429 150.102C108.538 148.119 109.969 146.335 111.664 144.822C109.404 144.655 107.18 144.169 105.057 143.378L104.692 143.241L103.991 142.959L103.634 142.808L102.953 142.491C101.377 141.727 99.8898 140.791 98.5187 139.7L96.3875 137.803C94.4306 136.117 92.3119 134.63 90.0625 133.361C84.7687 130.405 80.3412 129.443 76.945 130.488C69.8637 132.674 61.8887 136.923 57.0212 139.728L110.495 45.4232V86.7213C110.495 88.1857 108.295 92.0082 100.946 95.2532L100.437 95.5282C99.7219 95.872 99.0275 96.2432 98.3469 96.642L98.2094 96.7107C95.9464 98.0438 93.8703 99.6713 92.0356 101.551L91.9669 101.619C91.2714 102.335 90.6128 103.085 89.9937 103.868L89.9181 103.971C89.6193 104.352 89.3282 104.739 89.045 105.133L88.9487 105.27C88.6938 105.641 88.4462 106.017 88.2062 106.398L88.1237 106.514C87.8816 106.905 87.6501 107.301 87.4294 107.704L87.2712 107.986C87.0719 108.371 86.8725 108.783 86.6731 109.141L86.5837 109.326C86.4066 109.688 86.2393 110.055 86.0819 110.426L85.91 110.839C85.7519 111.224 85.6075 111.636 85.4631 112.008L85.3256 112.42C85.2204 112.715 85.1241 113.013 85.0369 113.314C84.9887 113.479 84.9337 113.637 84.8925 113.809C84.4978 115.189 84.2105 116.598 84.0331 118.023L83.9644 118.663C83.9318 118.953 83.9066 119.244 83.8887 119.536C83.875 119.831 83.8887 120.12 83.8406 120.409C83.7925 120.704 83.8406 120.766 83.8406 120.959V121.612C83.8406 123.056 83.9506 124.499 84.1706 125.936C86.4737 126.498 88.7027 127.329 90.8119 128.411C90.1644 126.336 89.8171 124.178 89.7806 122.004V121.612C89.7806 121.089 89.7806 120.574 89.8425 120.024V119.611C89.8425 119.164 89.9319 118.711 89.9937 118.264V118.071C90.0648 117.574 90.1612 117.081 90.2825 116.593L90.365 116.215C90.4681 115.803 90.5712 115.404 90.7019 114.998L90.7844 114.737C90.9219 114.263 91.0937 113.802 91.2725 113.341L91.41 113.032C91.5612 112.654 91.7262 112.276 91.8981 111.898L92.0287 111.609C92.2419 111.162 92.4756 110.729 92.7162 110.296L92.8469 110.083C93.0635 109.71 93.2904 109.343 93.5275 108.983L93.6994 108.728C93.9812 108.316 94.27 107.931 94.5794 107.504L94.6344 107.436C94.93 107.058 95.2394 106.693 95.5556 106.336L95.7275 106.129C97.1781 104.534 98.8419 103.139 100.677 101.984L103.207 100.815C104.562 100.217 116.442 94.7788 116.442 86.7213V45.4232L170.335 140.436C165.522 138.119 157.066 134.028 150.466 130.673C146.699 128.748 144.127 121.963 143.467 119.529L142.739 116.676C142.469 115.145 142.073 113.639 141.556 112.173L141.501 112.145ZM178.007 142.051L118.607 37.3726C118.083 36.457 117.325 35.6971 116.41 35.1705C115.496 34.6438 114.458 34.3694 113.403 34.3751C112.35 34.3718 111.315 34.6474 110.404 35.1739C109.492 35.7004 108.736 36.4591 108.212 37.3726L48.8812 142.058C48.1344 143.378 47.9393 144.939 48.3385 146.402C48.7377 147.865 49.6988 149.111 51.0125 149.868L110.392 184.793C111.318 185.334 112.372 185.62 113.444 185.62C114.517 185.62 115.571 185.334 116.497 184.793L175.869 149.896C177.182 149.139 178.144 147.895 178.544 146.434C178.944 144.973 178.752 143.412 178.007 142.093L178.021 142.051H178.007Z" fill="white"/>
</g>
<defs>
<clipPath id="clip0_108_337">
<rect width="220" height="220" fill="white"/>
</clipPath>
</defs>
</svg>
