<svg width="220" height="220" viewBox="0 0 220 220" fill="none" xmlns="http://www.w3.org/2000/svg">
<g clip-path="url(#clip0_108_338)">
<path d="M110 220C170.751 220 220 170.751 220 110C220 49.2487 170.751 0 110 0C49.2487 0 0 49.2487 0 110C0 170.751 49.2487 220 110 220Z" fill="#0E0E21"/>
<path fill-rule="evenodd" clip-rule="evenodd" d="M79.4061 104.809L70.8811 99.275C70.5092 99.0335 70.245 98.6575 70.1437 98.2258C70.0425 97.794 70.1121 97.3398 70.338 96.9581L103.228 41.195C103.524 40.6911 103.945 40.2728 104.452 39.9811C104.958 39.6894 105.531 39.5344 106.115 39.5312H113.877C114.462 39.5344 115.035 39.6894 115.541 39.9811C116.047 40.2728 116.469 40.6911 116.765 41.195L149.655 96.9581C149.881 97.3398 149.95 97.794 149.849 98.2258C149.748 98.6575 149.484 99.0335 149.112 99.275L140.587 104.809C140.397 104.93 140.185 105.011 139.963 105.048C139.741 105.085 139.514 105.077 139.295 105.024C139.076 104.972 138.87 104.876 138.69 104.742C138.509 104.608 138.357 104.439 138.242 104.246L110.722 57.5919C110.648 57.4665 110.542 57.3625 110.415 57.2904C110.289 57.2182 110.146 57.1802 110 57.1802C109.854 57.1802 109.711 57.2182 109.584 57.2904C109.458 57.3625 109.352 57.4665 109.278 57.5919L81.7574 104.246C81.6438 104.441 81.4917 104.611 81.3104 104.746C81.1291 104.881 80.9222 104.978 80.7024 105.031C80.4826 105.084 80.2544 105.091 80.0316 105.053C79.8087 105.015 79.596 104.932 79.4061 104.809ZM158.31 111.65L171.4 133.843C171.847 134.605 171.986 135.51 171.788 136.371C171.59 137.232 171.07 137.986 170.335 138.476L111.829 176.495C111.287 176.849 110.654 177.038 110.007 177.038C109.36 177.038 108.726 176.849 108.185 176.495L49.6786 138.476C48.937 137.991 48.4114 137.238 48.2116 136.375C48.0118 135.511 48.1531 134.604 48.6061 133.843L61.6961 111.65C61.8097 111.455 61.9617 111.284 62.1431 111.149C62.3244 111.014 62.5312 110.917 62.7511 110.865C62.9709 110.812 63.1991 110.805 63.4219 110.843C63.6447 110.881 63.8575 110.964 64.0474 111.086L72.5655 116.621C72.9374 116.862 73.2016 117.238 73.3029 117.67C73.4041 118.102 73.3345 118.556 73.1086 118.937L65.6286 131.622C65.5204 131.814 65.4886 132.039 65.5396 132.253C65.5906 132.467 65.7206 132.654 65.9036 132.777L109.546 161.136C109.821 161.322 110.165 161.322 110.447 161.136L154.103 132.777C154.289 132.657 154.421 132.47 154.472 132.255C154.523 132.039 154.49 131.813 154.378 131.622L146.898 118.937C146.672 118.556 146.603 118.102 146.704 117.67C146.805 117.238 147.069 116.862 147.441 116.621L155.966 111.086C156.156 110.965 156.368 110.883 156.59 110.845C156.812 110.808 157.04 110.816 157.258 110.868C157.477 110.921 157.684 111.017 157.864 111.152C158.045 111.286 158.197 111.456 158.31 111.65Z" fill="white"/>
</g>
<defs>
<clipPath id="clip0_108_338">
<rect width="220" height="220" fill="white"/>
</clipPath>
</defs>
</svg>
