<svg width="220" height="220" viewBox="0 0 220 220" fill="none" xmlns="http://www.w3.org/2000/svg">
<g clip-path="url(#clip0_108_339)">
<path d="M110 220C170.751 220 220 170.751 220 110C220 49.2487 170.751 0 110 0C49.2487 0 0 49.2487 0 110C0 170.751 49.2487 220 110 220Z" fill="#00E6A0"/>
<path d="M158.627 51.5636C159.234 51.5502 159.838 51.6603 160.402 51.8872C160.966 52.1141 161.477 52.4531 161.906 52.8836L161.865 52.8423C162.544 53.5192 162.988 54.3966 163.13 55.3448L163.192 56.0598L163.144 79.5517C163.144 82.6386 161.92 85.6017 159.734 87.7811L130.584 116.842L161.776 147.937C162.873 149.009 163.746 150.288 164.346 151.7C164.946 153.112 165.261 154.628 165.271 156.162C165.282 157.696 164.988 159.216 164.408 160.636C163.827 162.056 162.971 163.347 161.889 164.434C160.807 165.521 159.52 166.383 158.103 166.97C156.686 167.557 155.167 167.857 153.633 167.854C152.099 167.85 150.581 167.543 149.167 166.949C147.752 166.356 146.47 165.488 145.393 164.396L105.964 125.092C104.877 124.014 104.014 122.732 103.425 121.319C102.836 119.906 102.533 118.39 102.533 116.859C102.533 115.328 102.836 113.812 103.425 112.399C104.014 110.986 104.877 109.704 105.964 108.626L140.491 74.1686H82.0669V155.905C82.093 157.464 81.8052 159.011 81.2209 160.456C80.6365 161.901 79.7675 163.213 78.6655 164.315C77.5635 165.417 76.251 166.286 74.8063 166.871C73.3615 167.455 71.8139 167.743 70.2557 167.717L69.0869 167.675C66.1538 167.421 63.4257 166.065 61.4503 163.882C59.475 161.699 58.3987 158.849 58.4375 155.905V64.2617C58.4375 56.933 63.6832 51.5636 70.785 51.5636H158.627Z" fill="white"/>
</g>
<defs>
<clipPath id="clip0_108_339">
<rect width="220" height="220" fill="white"/>
</clipPath>
</defs>
</svg>
