<svg width="220" height="220" viewBox="0 0 220 220" fill="none" xmlns="http://www.w3.org/2000/svg">
<g clip-path="url(#clip0_108_340)">
<path d="M110 220C170.751 220 220 170.751 220 110C220 49.2487 170.751 0 110 0C49.2487 0 0 49.2487 0 110C0 170.751 49.2487 220 110 220Z" fill="#CC1E46"/>
<path d="M81.2349 63.526C92.7415 54.8786 106.446 49.6378 120.787 48.401C122.244 48.1054 123.825 49.0267 123.777 50.6354C123.915 54.4854 123.819 58.3354 123.819 62.1854C123.915 63.3817 123.282 64.9354 121.907 64.9698C109.216 66.3723 97.1574 71.556 86.6799 78.7198C85.6899 79.2767 85.9099 80.5623 85.9924 81.4973C86.7211 88.2485 86.2261 95.0479 86.4255 101.82C120.622 101.916 154.832 101.806 189.042 101.875C190.671 101.737 192.39 102.665 192.259 104.487C192.431 116.003 192.294 127.519 192.328 139.027C192.355 145.284 191.022 151.76 187.234 156.875C181.252 164.912 170.734 169.731 160.737 167.957C153.656 166.899 147.537 162.505 143.247 156.93C131.57 165.713 117.635 170.994 103.07 172.158C101.592 172.179 100.485 170.728 100.712 169.312C100.76 165.283 100.629 161.24 100.78 157.212C101.124 155.08 103.75 155.493 105.311 155.142C117.301 153.272 128.769 148.247 138.559 141.117C138.054 133.637 137.877 126.139 138.029 118.643C103.709 118.423 69.3755 118.629 35.0555 118.533C33.543 118.705 32.0855 117.57 32.2299 115.969C32.2024 103.848 32.2092 91.7204 32.2436 79.5998C32.3124 73.261 34.313 66.8535 38.5136 62.0204C44.048 55.7229 52.3942 51.701 60.8642 52.196C68.9767 52.5192 76.4224 57.1323 81.2349 63.526ZM46.0624 81.6898C46.0486 88.7917 46.0417 95.9004 46.0761 103.016C54.5599 103.009 63.0299 103.133 71.5067 102.947C71.5205 96.0173 71.6099 89.0942 71.4655 82.1642C71.3349 75.5229 65.333 69.6517 58.6642 69.7892C52.1536 69.521 46.2205 75.2204 46.0624 81.6829V81.6898ZM154.062 118.059C153.993 124.81 154.048 131.568 154.02 138.319C153.979 141.021 154.797 143.661 156.358 145.861C159.617 150.515 166.107 152.55 171.414 150.495C176.316 148.68 179.554 143.551 179.499 138.395C179.499 131.616 179.534 124.851 179.472 118.072C171.002 118.004 162.532 118.038 154.062 118.052V118.059Z" fill="white"/>
</g>
<defs>
<clipPath id="clip0_108_340">
<rect width="220" height="220" fill="white"/>
</clipPath>
</defs>
</svg>
