<svg width="220" height="220" viewBox="0 0 220 220" fill="none" xmlns="http://www.w3.org/2000/svg">
<g clip-path="url(#clip0_108_341)">
<path d="M110 220C170.751 220 220 170.751 220 110C220 49.2487 170.751 0 110 0C49.2487 0 0 49.2487 0 110C0 170.751 49.2487 220 110 220Z" fill="#60E4DD"/>
<path fill-rule="evenodd" clip-rule="evenodd" d="M69.74 137.665C71.8025 134.537 73.755 131.608 75.5975 128.865H54.5325C54.3629 128.865 54.2003 128.798 54.0804 128.678C53.9605 128.558 53.8931 128.395 53.8931 128.226V123.853C53.8931 123.502 54.1819 123.214 54.5325 123.214H79.4338C92.7506 103.764 99.4056 95.755 99.4056 94.9369C99.4056 93.6787 99.1306 93.0531 94.5931 93.0531C85.6281 93.0531 70.8813 86.6525 70.8813 69.1763C70.8813 59.6681 86.2606 48.125 95.2394 48.125C99.4056 48.125 100.045 49.8919 98.1269 50.0088C92.9981 50.325 81.7781 60.5688 81.7781 70.4275C81.7781 77.0275 87.6356 88.3369 100.684 88.3369C116.098 88.3369 129.264 63.8344 161.267 63.8344C180.496 63.8344 185.625 78.8769 185.625 83.0019C185.625 87.1269 179.623 89.2856 171.524 89.2856C163.426 89.2856 163.123 74.8275 146.843 74.8275C121.282 74.8275 99.5156 102.506 89.0588 123.214H107.099C107.456 123.214 107.738 123.502 107.738 123.853V128.226C107.739 128.31 107.723 128.394 107.691 128.472C107.66 128.551 107.613 128.622 107.553 128.682C107.494 128.742 107.423 128.79 107.345 128.823C107.267 128.855 107.183 128.872 107.099 128.872H86.405C84.975 132.172 83.9094 135.162 83.2425 137.672H101.324C101.681 137.672 101.97 137.947 101.97 138.304V142.684C101.97 142.853 101.903 143.016 101.783 143.136C101.663 143.256 101.5 143.323 101.331 143.323H82.4312C82.7681 151.339 89.4919 158.565 102.616 165H52.2912C56.8017 157.728 61.3852 150.502 66.0413 143.323H48.7712C48.6867 143.324 48.6028 143.308 48.5245 143.276C48.4461 143.245 48.3748 143.198 48.3147 143.138C48.2546 143.079 48.2069 143.008 48.1743 142.93C48.1418 142.852 48.125 142.768 48.125 142.684V138.304C48.125 137.954 48.4137 137.665 48.7644 137.665H69.74Z" fill="white"/>
</g>
<defs>
<clipPath id="clip0_108_341">
<rect width="220" height="220" fill="white"/>
</clipPath>
</defs>
</svg>
