<svg width="220" height="220" viewBox="0 0 220 220" fill="none" xmlns="http://www.w3.org/2000/svg">
<g clip-path="url(#clip0_108_342)">
<path d="M110 220C170.751 220 220 170.751 220 110C220 49.2487 170.751 0 110 0C49.2487 0 0 49.2487 0 110C0 170.751 49.2487 220 110 220Z" fill="#F49352"/>
<path fill-rule="evenodd" clip-rule="evenodd" d="M86.6591 62.9406C80.7672 62.9406 75.9891 58.0869 75.9891 52.0988C75.9891 46.1106 80.7672 41.25 86.6591 41.25C92.5579 41.25 97.336 46.1038 97.336 52.0988C97.336 58.0938 92.5579 62.9406 86.6591 62.9406ZM133.698 178.75C132.285 178.738 130.888 178.448 129.587 177.897C128.286 177.345 127.107 176.543 126.116 175.536C125.125 174.528 124.342 173.335 123.813 172.026C123.283 170.716 123.016 169.314 123.028 167.901C123.028 161.92 127.806 157.059 133.698 157.059C139.597 157.059 144.375 161.913 144.375 167.901C144.375 173.896 139.597 178.75 133.698 178.75ZM91.0385 97.6937C90.0417 98.47 88.8999 99.0393 87.68 99.3683C86.4602 99.6973 85.187 99.7794 83.935 99.6097C82.683 99.44 81.4776 99.0219 80.3894 98.3801C79.3011 97.7382 78.3521 96.8855 77.5979 95.8719C76.0519 93.814 75.3732 91.2326 75.7074 88.6805C76.0415 86.1284 77.3617 83.8086 79.3854 82.2181L128.597 43.9794C129.593 43.2031 130.735 42.6338 131.955 42.3048C133.175 41.9758 134.448 41.8937 135.7 42.0634C136.952 42.2331 138.158 42.6512 139.246 43.2931C140.334 43.9349 141.283 44.7877 142.037 45.8013C143.585 47.8596 144.265 50.4426 143.931 52.9963C143.597 55.5501 142.275 57.8712 140.25 59.4619L91.0385 97.6937ZM91.4029 136.668C90.4061 137.444 89.2642 138.014 88.0444 138.343C86.8246 138.672 85.5513 138.754 84.2994 138.584C83.0474 138.414 81.842 137.996 80.7537 137.354C79.6655 136.713 78.7165 135.86 77.9623 134.846C76.4141 132.788 75.7342 130.205 76.0684 127.651C76.4026 125.097 77.7242 122.776 79.7498 121.186L128.961 82.9538C129.958 82.1775 131.1 81.6082 132.319 81.2792C133.539 80.9502 134.813 80.8681 136.064 81.0378C137.316 81.2075 138.522 81.6256 139.61 82.2674C140.698 82.9093 141.647 83.762 142.402 84.7756C143.948 86.8335 144.626 89.4149 144.292 91.967C143.958 94.5191 142.638 96.8389 140.614 98.4294L91.4029 136.668ZM91.4029 176.743C90.4061 177.519 89.2642 178.088 88.0444 178.417C86.8246 178.746 85.5513 178.828 84.2994 178.658C83.0474 178.489 81.842 178.071 80.7537 177.429C79.6655 176.787 78.7165 175.934 77.9623 174.921C76.4141 172.862 75.7342 170.279 76.0684 167.726C76.4026 165.172 77.7242 162.851 79.7498 161.26L128.961 123.028C129.958 122.252 131.1 121.683 132.319 121.354C133.539 121.025 134.813 120.942 136.064 121.112C137.316 121.282 138.522 121.7 139.61 122.342C140.698 122.984 141.647 123.836 142.402 124.85C143.948 126.908 144.626 129.489 144.292 132.041C143.958 134.593 142.638 136.913 140.614 138.504L91.4029 176.743Z" fill="white"/>
</g>
<defs>
<clipPath id="clip0_108_342">
<rect width="220" height="220" fill="white"/>
</clipPath>
</defs>
</svg>
