<svg width="220" height="220" viewBox="0 0 220 220" fill="none" xmlns="http://www.w3.org/2000/svg">
<g clip-path="url(#clip0_108_343)">
<path d="M110 220C170.751 220 220 170.751 220 110C220 49.2487 170.751 0 110 0C49.2487 0 0 49.2487 0 110C0 170.751 49.2487 220 110 220Z" fill="#FFD800"/>
<path fill-rule="evenodd" clip-rule="evenodd" d="M162.821 88.5912C163.213 88.1994 163.989 88.1994 164.753 88.1994C176.351 88.1994 185.625 98.0169 185.625 109.808C185.625 120.808 177.512 129.449 167.076 131.409H164.753C160.889 131.409 157.025 130.233 153.546 128.267C152.417 127.472 151.063 127.06 149.682 127.091C148.136 127.091 146.589 127.483 145.434 128.267C142.725 129.841 141.57 132.591 141.57 135.733V139.267C141.163 144.12 139.095 148.684 135.715 152.191C132.335 155.697 127.849 157.931 123.014 158.517H120.697C116.834 158.517 112.97 157.341 109.491 155.375C107.944 154.591 106.789 154.199 105.242 154.199C103.696 154.199 102.149 154.591 100.987 155.375C98.285 156.949 97.1231 159.699 97.1231 162.841V166.375C96.3531 176.591 88.2337 184.449 78.1894 185.625H76.2575C64.6594 185.625 55.385 175.801 55.385 164.017C55.77 153.017 63.4975 143.983 73.9337 142.801H76.2575C80.1213 142.801 83.985 143.983 87.4638 145.949C88.5928 146.744 89.947 147.156 91.3275 147.125C92.8744 147.125 94.4213 146.733 95.5763 145.949C98.285 144.375 99.44 141.625 99.44 138.483C98.67 127.091 106.789 116.875 117.996 115.699H120.312C124.176 115.699 128.04 116.875 131.519 118.841C133.066 119.625 134.228 120.017 135.774 120.017C137.314 120.017 138.868 119.625 140.023 118.841C142.725 117.267 143.887 114.517 143.887 111.375C143.117 99.9831 151.614 89.7669 162.821 88.5912ZM118.387 61.4831C119.157 61.0912 119.549 61.0912 120.704 61.0912C132.302 61.0912 141.577 70.9088 141.577 82.6994C141.192 93.6994 133.464 102.733 123.021 103.909H120.704C116.841 103.909 112.977 102.733 109.498 100.767C108.369 99.9719 107.015 99.5598 105.634 99.5912C104.087 99.5912 102.541 99.9831 101.386 100.767C98.6769 102.341 97.515 105.091 97.515 108.233V111.767C96.745 121.976 88.6325 129.834 78.5813 131.017H76.6494C65.0581 131.017 55.7769 121.199 55.7769 109.409C55.7769 98.8075 63.5113 90.1587 73.9406 88.5912H76.2644C80.1281 88.5912 83.9919 89.7669 87.4706 91.7331C88.5997 92.5281 89.9539 92.9402 91.3344 92.9087C92.8812 92.9087 94.4281 92.5169 95.5831 91.7331C98.2919 90.1588 99.4469 87.4087 99.4469 84.2669C98.6769 72.875 107.181 62.6587 118.387 61.4831ZM75.8725 34.375C87.395 34.375 96.7381 43.8763 96.7381 55.5913C96.7381 67.3063 87.3881 76.8006 75.8725 76.8006C64.3431 76.8006 55 67.3063 55 55.5913C55 43.8763 64.35 34.375 75.8725 34.375Z" fill="white"/>
</g>
<defs>
<clipPath id="clip0_108_343">
<rect width="220" height="220" fill="white"/>
</clipPath>
</defs>
</svg>
