<svg width="220" height="220" viewBox="0 0 220 220" fill="none" xmlns="http://www.w3.org/2000/svg">
<g clip-path="url(#clip0_108_344)">
<path d="M110 220C170.751 220 220 170.751 220 110C220 49.2487 170.751 0 110 0C49.2487 0 0 49.2487 0 110C0 170.751 49.2487 220 110 220Z" fill="#8D181B"/>
<path d="M176.66 108.158C181.61 108.158 185.625 112.077 185.625 116.924C185.625 121.771 181.61 125.689 176.66 125.689C172.879 125.689 169.641 123.393 168.327 120.155H142.753L133.32 136.93C131.766 139.694 127.511 138.876 127.139 135.748L125.022 117.824L117.184 175.946C116.662 179.809 110.88 179.631 110.612 175.739L104.184 81.7788L97.3775 144.025C96.965 147.738 91.5131 147.93 90.8462 144.252L83.6413 104.679L80.3138 117.708C80.1264 118.413 79.7101 119.036 79.1302 119.479C78.5503 119.922 77.8397 120.16 77.11 120.155H44.55C42.7281 120.155 41.25 118.711 41.25 116.924C41.25 115.136 42.7281 113.693 44.55 113.693H74.525L80.9806 88.4544C81.8469 85.0719 86.8106 85.2438 87.4431 88.6744L93.28 120.774L101.661 44.1382C102.094 40.2125 107.972 40.3225 108.24 44.2619L114.984 142.849L121.956 91.1219C122.464 87.3475 128.068 87.3888 128.514 91.17L132.516 124.961L137.906 115.363C138.197 114.853 138.618 114.43 139.127 114.136C139.635 113.843 140.213 113.69 140.8 113.693H168.327C169.009 112.046 170.166 110.641 171.65 109.655C173.134 108.669 174.878 108.148 176.66 108.158Z" fill="white"/>
</g>
<defs>
<clipPath id="clip0_108_344">
<rect width="220" height="220" fill="white"/>
</clipPath>
</defs>
</svg>
