<svg width="220" height="220" viewBox="0 0 220 220" fill="none" xmlns="http://www.w3.org/2000/svg">
<g clip-path="url(#clip0_108_345)">
<path d="M110 220C170.751 220 220 170.751 220 110C220 49.2487 170.751 0 110 0C49.2487 0 0 49.2487 0 110C0 170.751 49.2487 220 110 220Z" fill="#64D1FF"/>
<path fill-rule="evenodd" clip-rule="evenodd" d="M72.1875 104.761H84.315V48.125H115.576C121.378 48.125 126.672 48.8056 131.457 50.1669C136.242 51.5281 140.339 53.6044 143.756 56.3819C147.173 59.1594 149.847 62.6863 151.786 66.9419C153.718 71.2044 154.688 76.2919 154.688 82.2113C154.688 88.1306 153.656 93.28 151.614 97.6594C149.682 101.884 146.82 105.616 143.241 108.577C139.564 111.555 135.325 113.76 130.776 115.06C125.725 116.518 120.489 117.236 115.232 117.191H97.9756V135.121H125.476V146.843H97.9756V171.875H84.315V146.843H72.1875V135.121H84.315V117.191H72.1875V104.761ZM115.569 104.761C123.427 104.761 129.608 102.898 134.104 99.1719C138.6 95.4388 140.855 89.7875 140.855 82.2113C140.855 74.6419 138.6 69.135 134.104 65.7044C129.608 62.2669 123.427 60.5481 115.576 60.5481H97.9756V104.761H115.569Z" fill="white"/>
</g>
<defs>
<clipPath id="clip0_108_345">
<rect width="220" height="220" fill="white"/>
</clipPath>
</defs>
</svg>
