<svg width="220" height="220" viewBox="0 0 220 220" fill="none" xmlns="http://www.w3.org/2000/svg">
<g clip-path="url(#clip0_108_346)">
<path d="M110 220C170.751 220 220 170.751 220 110C220 49.2487 170.751 0 110 0C49.2487 0 0 49.2487 0 110C0 170.751 49.2487 220 110 220Z" fill="#384182"/>
<path fill-rule="evenodd" clip-rule="evenodd" d="M65.3125 185.625L90.1863 70.2006L104.142 156.826L65.3125 185.625ZM90.6675 69.5406L128.459 156.915L104.789 156.503L90.6675 69.5338V69.5406ZM91.2313 68.8806L140.731 75.9137L129.264 156.915L91.2313 68.8806ZM130.144 155.671L141.302 76.6562L148.603 85.9238L130.144 155.671ZM140.573 75.1644L92.2694 68.2962L135.761 53.9825L140.573 75.1644ZM92.0356 67.5538L121.639 47.0319L135.761 53.24L92.0356 67.5538ZM91.3069 67.3063L97.0131 56.3819L121.158 46.7019L91.3069 67.3063ZM97.0131 55.8938L99.7356 47.3687L119.632 46.7019L97.0131 55.8869V55.8938ZM99.5775 46.7019L105.992 39.8338L119.797 46.0419L99.5775 46.7019ZM106.397 39.4213L116.022 34.705L128.466 49.2662L106.397 39.4213ZM117.391 35.2825L131.752 41.5731L129.181 49.3488L117.391 35.2825ZM129.663 49.5963L132.309 41.6556L135.52 52.58L129.663 49.5963ZM116.346 34.375H126.857L132.062 40.1638C132.11 40.2196 132.138 40.2901 132.142 40.3638C132.145 40.4376 132.124 40.5104 132.081 40.5706C132.038 40.6307 131.977 40.6749 131.906 40.6958C131.835 40.7168 131.759 40.7134 131.691 40.6863L116.346 34.375ZM132.956 40.9956L154.337 46.9631C154.445 46.9891 154.541 47.0507 154.61 47.138C154.679 47.2253 154.716 47.3332 154.716 47.4444C154.716 47.5555 154.679 47.6634 154.61 47.7507C154.541 47.838 154.445 47.8996 154.337 47.9256L136.166 52.91L132.956 40.9956Z" fill="white"/>
</g>
<defs>
<clipPath id="clip0_108_346">
<rect width="220" height="220" fill="white"/>
</clipPath>
</defs>
</svg>
