<svg width="220" height="220" viewBox="0 0 220 220" fill="none" xmlns="http://www.w3.org/2000/svg">
<g clip-path="url(#clip0_108_347)">
<path d="M110 220C170.751 220 220 170.751 220 110C220 49.2487 170.751 0 110 0C49.2487 0 0 49.2487 0 110C0 170.751 49.2487 220 110 220Z" fill="#3D58B0"/>
<path d="M109.904 27.5C64.46 27.5 27.5 64.46 27.5 109.904C27.5 155.348 64.46 192.294 109.904 192.294C155.348 192.294 192.294 155.341 192.294 109.904C192.301 64.46 155.341 27.5 109.904 27.5ZM109.904 38.72C119.255 38.7082 128.516 40.5415 137.157 44.1147C145.799 47.6879 153.65 52.931 160.262 59.5434C166.874 66.1559 172.116 74.0078 175.689 82.6495C179.261 91.2912 181.093 100.553 181.081 109.904C181.092 119.254 179.259 128.515 175.687 137.156C172.114 145.797 166.871 153.648 160.26 160.26C153.648 166.871 145.797 172.114 137.156 175.687C128.515 179.259 119.254 181.092 109.904 181.081C100.553 181.093 91.2912 179.261 82.6495 175.689C74.0078 172.116 66.1559 166.874 59.5434 160.262C52.931 153.65 47.6879 145.799 44.1147 137.157C40.5415 128.516 38.7082 119.255 38.72 109.904C38.7082 100.552 40.5414 91.2907 44.1146 82.649C47.6877 74.0073 52.9306 66.1554 59.543 59.543C66.1554 52.9306 74.0073 47.6877 82.649 44.1146C91.2907 40.5414 100.552 38.7082 109.904 38.72Z" fill="white"/>
<path d="M79.2891 79.4727V140.316H140.511V79.4727H79.2891ZM89.2579 89.4414H130.535V130.348H89.2648V89.4414H89.2579Z" fill="white"/>
</g>
<defs>
<clipPath id="clip0_108_347">
<rect width="220" height="220" fill="white"/>
</clipPath>
</defs>
</svg>
