<svg width="220" height="220" viewBox="0 0 220 220" fill="none" xmlns="http://www.w3.org/2000/svg">
<g clip-path="url(#clip0_108_348)">
<path d="M110 220C170.751 220 220 170.751 220 110C220 49.2487 170.751 0 110 0C49.2487 0 0 49.2487 0 110C0 170.751 49.2487 220 110 220Z" fill="#00688C"/>
<path d="M185.549 155.864V68.7373L109.897 25.1636L109.794 25.2186L34.4025 68.7854V155.892L109.856 199.355L109.862 199.362L185.543 155.871L185.549 155.864ZM152.068 141.935L139.164 134.538L110.371 151.251C110.288 151.3 110.193 151.326 110.096 151.326C110 151.326 109.905 151.3 109.821 151.251L76.7869 132.104L76.7731 98.7948L47.7537 82.1573L109.615 45.8917C109.64 45.8765 109.668 45.8685 109.697 45.8685C109.727 45.8685 109.755 45.8765 109.78 45.8917L167.234 78.7405L157.073 84.6186L109.808 57.4211L67.8906 82.0267L82.4312 90.3798L109.835 74.4436L109.849 74.4298L143.33 93.5767L143.316 125.27L171.854 141.612L171.848 142.094L109.862 178.284L52.4012 145.476L62.4594 139.584L109.766 166.72L152.068 141.929V141.935Z" fill="white"/>
<path d="M118.972 104.123V103.889L118.965 103.738L118.958 103.656L118.944 103.484V103.429L118.924 103.243V103.195L118.896 103.003V102.968L118.869 102.769V102.741L118.834 102.535L118.828 102.521L118.786 102.315L118.779 102.294L118.731 102.088V102.074C118.718 102.005 118.702 101.936 118.683 101.868V101.854L118.621 101.648V101.641L118.559 101.421C118.523 101.281 118.477 101.143 118.422 101.009V101.002L118.339 100.796C118.314 100.726 118.287 100.657 118.257 100.589L118.168 100.383L118.078 100.191L117.982 99.9845L117.886 99.792L117.776 99.5995C117.738 99.5381 117.701 99.4762 117.666 99.4139V99.407L117.556 99.2282L117.549 99.2214C117.512 99.1628 117.473 99.1055 117.432 99.0495V99.0357L117.315 98.8707C117.315 98.8707 117.315 98.857 117.301 98.857L117.184 98.692L117.171 98.6782C117.129 98.6232 117.102 98.5682 117.054 98.5132L117.047 98.4995L116.916 98.3414L116.903 98.3276L116.779 98.1764L116.765 98.1626L116.628 98.0182C116.622 98.0122 116.617 98.0053 116.614 97.9976L116.483 97.8532C116.477 97.8472 116.473 97.8403 116.469 97.8326L116.339 97.6951C116.286 97.6424 116.233 97.5897 116.181 97.537L116.16 97.5164L116.023 97.3789C115.97 97.333 115.917 97.2872 115.864 97.2414L115.844 97.2207C115.797 97.1759 115.749 97.1323 115.699 97.0901L115.679 97.0695C115.632 97.029 115.584 96.99 115.534 96.9526L115.514 96.9389L115.363 96.8151L115.342 96.8014L115.184 96.6845L115.163 96.6707L115.005 96.5539L114.984 96.5401L114.826 96.4301L114.806 96.4232L114.641 96.3132L114.627 96.2995L114.455 96.1964H114.441L114.263 96.0864H114.249L114.063 95.9764H114.056C111.862 95.0497 109.394 95.0076 107.17 95.8588C104.945 96.71 103.136 98.3887 102.121 100.543C101.105 102.698 100.963 105.162 101.723 107.42C102.483 109.677 104.086 111.553 106.198 112.655L102.211 130.888H117.294L113.273 112.669C116.724 111.225 118.972 107.856 118.972 104.123Z" fill="white"/>
</g>
<defs>
<clipPath id="clip0_108_348">
<rect width="220" height="220" fill="white"/>
</clipPath>
</defs>
</svg>
