<svg width="220" height="220" viewBox="0 0 220 220" fill="none" xmlns="http://www.w3.org/2000/svg">
<g clip-path="url(#clip0_108_349)">
<path d="M110 220C170.751 220 220 170.751 220 110C220 49.2487 170.751 0 110 0C49.2487 0 0 49.2487 0 110C0 170.751 49.2487 220 110 220Z" fill="#B68900"/>
<path d="M183.102 108.742L108.742 34.375L34.375 108.742L108.742 136.214L183.102 108.742ZM57.5025 102.438L107.917 50.8888C107.917 50.8888 157.204 101.303 159.28 102.314C161.363 103.317 125.379 102.314 125.379 102.314L108.742 85.2981L91.9119 102.438H57.5025ZM108.742 141.446L183.102 113.781L108.742 183.102L34.375 114.159L108.742 141.453V141.446Z" fill="white"/>
</g>
<defs>
<clipPath id="clip0_108_349">
<rect width="220" height="220" fill="white"/>
</clipPath>
</defs>
</svg>
