<svg width="220" height="220" viewBox="0 0 220 220" fill="none" xmlns="http://www.w3.org/2000/svg">
<g clip-path="url(#clip0_108_351)">
<path d="M110 220C170.751 220 220 170.751 220 110C220 49.2487 170.751 0 110 0C49.2487 0 0 49.2487 0 110C0 170.751 49.2487 220 110 220Z" fill="#2B77B3"/>
<path d="M185.625 110.27C185.302 152.262 151.271 185.936 109.471 185.62C67.6362 185.31 34.0381 151.128 34.3749 109.225C34.7187 67.7204 68.8462 34.1017 110.344 34.3767C152.144 34.6586 185.927 68.7242 185.625 110.277V110.27ZM39.8474 110.029C39.9231 148.667 71.1837 179.859 109.897 179.948C148.651 180.017 180.269 148.612 180.139 109.933C179.994 69.6454 146.623 39.2579 108.212 39.9179C71.0737 40.5504 39.7718 72.1204 39.8474 110.029ZM128.432 77.1942L125.634 86.1454C120.422 85.286 115.596 84.2617 110.708 83.7804C107.807 83.4986 104.796 84.2548 103.675 87.5204C102.52 90.8685 102.382 94.4367 105.153 97.0217C107.999 99.6685 111.341 101.765 114.462 104.117C117.329 106.275 120.484 108.159 122.987 110.682C129.772 117.53 130.976 125.835 128.191 134.786C126.541 140.094 122.609 143.449 117.576 145.484C109.876 148.605 96.7656 147.065 89.4024 142.115L92.6337 132.737C97.3224 133.975 101.612 135.46 106.026 136.161C110.234 136.828 114.641 136.182 116.799 131.885C118.972 127.554 118.284 122.995 114.881 119.517C112.255 116.835 108.962 114.794 105.889 112.559C103.84 111.074 101.551 109.905 99.5568 108.352C95.6911 105.396 92.9386 101.22 91.7466 96.5018C90.5546 91.7838 90.9932 86.8013 92.9912 82.3642C93.8718 80.2453 95.2501 78.3699 97.0093 76.8967C98.7685 75.4235 100.857 74.3959 103.097 73.901C111.726 71.8523 120.092 72.7804 128.432 77.201V77.1942ZM72.8818 108.75C72.8819 111.051 71.9743 113.258 70.3562 114.893C68.738 116.528 66.5401 117.458 64.2399 117.482C59.4274 117.502 55.3162 113.309 55.4262 108.517C55.5168 106.218 56.4937 104.043 58.1522 102.449C59.8106 100.855 62.0219 99.9642 64.3224 99.9642C69.1349 100.033 72.9162 103.917 72.8887 108.75H72.8818ZM156.021 100.205C160.82 100.198 164.395 103.739 164.457 108.565C164.484 109.731 164.276 110.891 163.846 111.975C163.417 113.059 162.774 114.047 161.956 114.878C161.138 115.71 160.161 116.368 159.084 116.816C158.007 117.263 156.851 117.489 155.684 117.482C153.382 117.444 151.188 116.5 149.577 114.856C147.966 113.211 147.067 110.998 147.077 108.695C147.077 103.663 150.721 100.205 156.021 100.205Z" fill="white"/>
</g>
<defs>
<clipPath id="clip0_108_351">
<rect width="220" height="220" fill="white"/>
</clipPath>
</defs>
</svg>
