<svg width="220" height="220" viewBox="0 0 220 220" fill="none" xmlns="http://www.w3.org/2000/svg">
<g clip-path="url(#clip0_108_352)">
<path d="M110 220C170.751 220 220 170.751 220 110C220 49.2487 170.751 0 110 0C49.2487 0 0 49.2487 0 110C0 170.751 49.2487 220 110 220Z" fill="#4BA2F2"/>
<path d="M67.8562 56.5756C69.3412 56.83 65.6425 66.6819 67.705 77.9363C69.4925 87.5819 91.8156 124.934 90.8944 137.749C90.1794 145.792 71.8506 164.664 69.9187 163.406C67.8081 162.822 75.4875 150 72.6412 139.316C69.3275 126.859 49.6787 94.6562 49.6994 80.4388C49.6994 70.0369 66.5294 55.9019 67.8494 56.5756H67.8562ZM109.856 41.8631C111.739 42.1863 107.037 54.7606 109.663 69.0813C111.932 81.4013 140.415 129.031 139.232 145.359C138.311 155.631 114.95 179.673 112.475 178.084C109.794 177.349 119.584 160.993 115.954 147.367C111.739 131.499 86.68 90.4281 86.7006 72.2988C86.7006 59.0231 108.164 41.0175 109.856 41.87V41.8631ZM153.202 56.5756C154.687 56.83 150.996 66.6819 153.051 77.9363C154.839 87.5819 177.162 124.934 176.247 137.749C175.539 145.792 157.204 164.664 155.265 163.406C153.161 162.822 160.834 150 157.987 139.316C154.681 126.859 135.025 94.6562 135.046 80.4388C135.046 70.0369 151.889 55.9019 153.202 56.5756Z" fill="white"/>
</g>
<defs>
<clipPath id="clip0_108_352">
<rect width="220" height="220" fill="white"/>
</clipPath>
</defs>
</svg>
