<svg width="220" height="220" viewBox="0 0 220 220" fill="none" xmlns="http://www.w3.org/2000/svg">
<g clip-path="url(#clip0_108_353)">
<path d="M110 220C170.751 220 220 170.751 220 110C220 49.2487 170.751 0 110 0C49.2487 0 0 49.2487 0 110C0 170.751 49.2487 220 110 220Z" fill="#48B254"/>
<path fill-rule="evenodd" clip-rule="evenodd" d="M155.932 50.655L162.429 56.5537L80.3963 103.386L40.6863 80.5269L44.3988 73.15L80.3963 93.6169L155.932 50.6481V50.655ZM139.418 41.25L148.136 45.6775L80.3963 84.3975L48.8538 66.5087L54.23 60.06L80.3963 74.9925L139.425 41.25H139.418ZM168.183 62.6381L173.003 69.0938L80.3963 122.011L35.6744 96.5662L37.7163 88.4538L80.3963 112.791L168.183 62.6381ZM181.541 86.4256C184.264 94.05 185.625 102.032 185.625 110.392C185.625 118.752 184.264 126.871 181.541 134.729L179.685 139.714C175.873 148.654 170.395 156.788 163.543 163.68C156.609 170.488 148.411 175.876 139.411 179.541C129.889 183.597 120.058 185.625 109.911 185.625C99.6394 185.625 89.8013 183.597 80.3963 179.541C71.5035 175.781 63.3863 170.403 56.4575 163.68C49.5263 156.853 44.0369 148.703 40.315 139.714C36.3963 130.433 34.3681 120.464 34.375 110.392V105.414L80.3963 131.416L177.458 76.0994L181.541 86.4256Z" fill="white"/>
</g>
<defs>
<clipPath id="clip0_108_353">
<rect width="220" height="220" fill="white"/>
</clipPath>
</defs>
</svg>
