<svg width="220" height="220" viewBox="0 0 220 220" fill="none" xmlns="http://www.w3.org/2000/svg">
<g clip-path="url(#clip0_108_354)">
<path d="M110 220C170.751 220 220 170.751 220 110C220 49.2487 170.751 0 110 0C49.2487 0 0 49.2487 0 110C0 170.751 49.2487 220 110 220Z" fill="#20EE82"/>
<path fill-rule="evenodd" clip-rule="evenodd" d="M110 51.5625C125.499 51.5625 140.362 57.7193 151.322 68.6784C162.281 79.6376 168.438 94.5014 168.438 110V168.438H110C94.5014 168.438 79.6376 162.281 68.6784 151.322C57.7193 140.362 51.5625 125.499 51.5625 110C51.5625 94.5014 57.7193 79.6376 68.6784 68.6784C79.6376 57.7193 94.5014 51.5625 110 51.5625ZM145.062 145.062V110.529C145.062 91.1419 129.559 75.0337 110.179 74.9375C105.546 74.9193 100.955 75.8184 96.671 77.583C92.3871 79.3476 88.495 81.9428 85.2189 85.2189C81.9428 88.495 79.3476 92.3871 77.583 96.671C75.8184 100.955 74.9193 105.546 74.9375 110.179C75.0337 129.559 91.1487 145.062 110.529 145.062H145.062Z" fill="white"/>
</g>
<defs>
<clipPath id="clip0_108_354">
<rect width="220" height="220" fill="white"/>
</clipPath>
</defs>
</svg>
