<svg width="220" height="220" viewBox="0 0 220 220" fill="none" xmlns="http://www.w3.org/2000/svg">
<g clip-path="url(#clip0_108_14)">
<path d="M220 111.51C220 133.266 213.549 154.533 201.462 172.622C189.375 190.712 172.195 204.811 152.095 213.137C131.995 221.462 109.878 223.641 88.5401 219.396C67.2022 215.152 47.6021 204.675 32.2183 189.292C16.8345 173.908 6.35804 154.308 2.11367 132.97C-2.13071 111.632 0.0476608 89.5145 8.3733 69.4146C16.6989 49.3147 30.7979 32.1351 48.8873 20.0481C66.9767 7.96115 88.2441 1.50977 110 1.50977C139.174 1.50977 167.153 13.099 187.782 33.728C208.411 54.357 220 82.336 220 111.51Z" fill="#006AA8"/>
<path d="M101.71 132.56C101.764 135.92 101.038 139.247 99.59 142.28C98.2177 145.114 96.1921 147.581 93.68 149.48C90.8563 151.572 87.6591 153.106 84.26 154C80.1821 155.055 75.9819 155.563 71.77 155.51C67.5659 155.533 63.3674 155.198 59.22 154.51C55.8617 154.029 52.5889 153.073 49.5 151.67V141.73C50.87 142.32 52.42 142.92 54.15 143.51C55.88 144.1 57.77 144.58 59.7 145.02C61.63 145.46 63.62 145.84 65.7 146.14C67.7231 146.398 69.7605 146.528 71.8 146.53C78.24 146.53 82.9867 145.413 86.04 143.18C87.5575 142.098 88.7787 140.651 89.5912 138.974C90.4038 137.296 90.7816 135.441 90.69 133.58C90.7287 131.788 90.4232 130.006 89.79 128.33C89.1374 126.724 88.0755 125.317 86.71 124.25C84.9343 122.774 82.9621 121.552 80.85 120.62C78.4033 119.433 75.3067 118.15 71.56 116.77C68.3252 115.621 65.194 114.199 62.2 112.52C59.7786 111.111 57.5839 109.344 55.69 107.28C54.0066 105.35 52.7127 103.112 51.88 100.69C51.0419 97.9769 50.6369 95.1488 50.68 92.3098C50.6248 89.2754 51.2861 86.2707 52.61 83.5398C53.878 80.9898 55.7236 78.771 58 77.0598C60.5003 75.1946 63.3296 73.8172 66.34 72.9998C69.8381 72.04 73.4528 71.5722 77.08 71.6098C81.4199 71.5545 85.7526 71.977 90 72.8698C93.4972 73.5883 96.9141 74.6536 100.2 76.0498L96.2 84.7598C93.2865 83.5978 90.2832 82.6748 87.22 81.9998C83.8772 81.166 80.4452 80.7429 77 80.7398C72.0933 80.7398 68.29 81.8031 65.59 83.9298C64.2912 84.9181 63.2496 86.2047 62.5533 87.6808C61.857 89.1569 61.5266 90.779 61.59 92.4098C61.5477 94.2936 61.8563 96.1688 62.5 97.9398C63.161 99.5505 64.1882 100.985 65.5 102.13C67.1737 103.536 69.0224 104.719 71 105.65C73.3267 106.73 76.1833 107.883 79.57 109.11C82.8493 110.286 86.0522 111.665 89.16 113.24C91.6961 114.491 94.0344 116.108 96.1 118.04C97.918 119.784 99.34 121.898 100.27 124.24C101.285 126.894 101.774 129.719 101.71 132.56Z" fill="white"/>
<path d="M130.3 122.73L138.45 113.24L156.14 93.0798H168.87L144.67 119.61L170.5 154.39H157.89L137.61 126.25L131 130.83V154.39H120.17V67.5098H131V107.38L130 122.73H130.3Z" fill="white"/>
</g>
<defs>
<clipPath id="clip0_108_14">
<rect width="220" height="220" fill="white"/>
</clipPath>
</defs>
</svg>
