<svg width="220" height="220" viewBox="0 0 220 220" fill="none" xmlns="http://www.w3.org/2000/svg">
<g clip-path="url(#clip0_108_355)">
<path d="M110 220C170.751 220 220 170.751 220 110C220 49.2487 170.751 0 110 0C49.2487 0 0 49.2487 0 110C0 170.751 49.2487 220 110 220Z" fill="#964B9C"/>
<path opacity="0.6" d="M140.986 112.792L110.241 143.531H171.717L140.986 112.792Z" fill="white"/>
<path opacity="0.7" d="M79.255 112.821L110 82.0898H48.5168L79.2619 112.828L79.255 112.821Z" fill="white"/>
<path opacity="0.4" d="M110.241 143.533L140.903 112.871L110.103 82.0571L48.6201 143.533L110.096 205.017L171.58 143.533H171.566H110.241Z" fill="white"/>
<path opacity="0.8" d="M110.385 20.625L48.9431 82.0669H110L79.4337 112.633L110.385 143.577L171.861 82.1012L110.385 20.625Z" fill="white"/>
</g>
<defs>
<clipPath id="clip0_108_355">
<rect width="220" height="220" fill="white"/>
</clipPath>
</defs>
</svg>
