<svg width="220" height="220" viewBox="0 0 220 220" fill="none" xmlns="http://www.w3.org/2000/svg">
<g clip-path="url(#clip0_108_356)">
<path d="M110 220C170.751 220 220 170.751 220 110C220 49.2487 170.751 0 110 0C49.2487 0 0 49.2487 0 110C0 170.751 49.2487 220 110 220Z" fill="#057BC1"/>
<path d="M110 27.5C64.4394 27.5 27.5 64.4394 27.5 110C27.5 155.561 64.4394 192.5 110 192.5C155.561 192.5 192.5 155.561 192.5 110C192.5 88.1196 183.808 67.1354 168.336 51.6637C152.865 36.1919 131.88 27.5 110 27.5ZM138.71 141.123H135.355V159.906H124.08V141.123H106.913V134.145H124.355V121.536C115.299 126.583 104.759 128.291 94.5725 126.362C88.935 125.022 83.3044 121.942 80.355 116.841C77.5527 111.853 76.1601 106.197 76.3263 100.478V70.6956H87.7319V101.551C88 108.254 92.29 114.964 98.8694 116.978C107.522 118.965 116.607 117.521 124.218 112.949C124.218 103.558 124.08 89.4781 124.218 70.6956H135.754V134.152H138.71V141.123Z" fill="white"/>
</g>
<defs>
<clipPath id="clip0_108_356">
<rect width="220" height="220" fill="white"/>
</clipPath>
</defs>
</svg>
