<svg width="220" height="220" viewBox="0 0 220 220" fill="none" xmlns="http://www.w3.org/2000/svg">
<g clip-path="url(#clip0_108_357)">
<path d="M110 220C170.751 220 220 170.751 220 110C220 49.2487 170.751 0 110 0C49.2487 0 0 49.2487 0 110C0 170.751 49.2487 220 110 220Z" fill="#F5342E"/>
<path d="M41.2571 110.852C41.1787 103.193 42.3562 95.5731 44.7427 88.2951C47.4371 80.0418 51.6712 72.3738 57.2208 65.697C63.5172 58.0365 71.4288 51.8622 80.3896 47.6158C86.3281 44.7904 92.6611 42.8826 99.1721 41.9576C103.085 41.3785 107.044 41.1575 110.997 41.2976C118.805 41.5831 126.5 43.2497 133.726 46.2201C133.836 46.2683 133.966 46.3164 133.98 46.4539C133.994 46.6326 133.836 46.6876 133.705 46.7426L131.23 47.7051C125.838 49.7997 120.568 52.196 115.445 54.8826C109.76 57.887 104.301 61.2558 99.234 65.2776C94.834 68.777 90.8121 72.6683 87.5465 77.3295C85.3465 80.4645 83.614 83.8333 82.6652 87.5939C81.4552 92.3514 81.7508 97.0608 83.1258 101.729C84.1365 105.18 85.6558 108.411 87.3333 111.56C89.4508 115.548 91.8502 119.363 94.0571 123.296C96.0646 126.871 97.9346 130.515 99.1721 134.468C100.031 137.225 100.547 140.05 100.492 142.951C100.4 146.714 99.4296 150.403 97.6596 153.725C95.5765 157.74 92.7233 161.122 89.5471 164.243C86.6115 167.124 83.4215 169.661 80.1283 172.081C79.6471 172.438 79.269 172.424 78.7671 172.163C73.9694 169.725 69.4802 166.722 65.3952 163.219C60.4413 158.971 56.1192 154.038 52.5596 148.568C46.7153 139.587 43.013 129.383 41.7383 118.744C41.3982 116.128 41.2374 113.491 41.2571 110.852Z" fill="white"/>
<path d="M82.8232 173.529C82.947 173.233 83.2564 173.227 83.4901 173.144C88.2938 171.388 93.0191 169.424 97.6526 167.259C103.084 164.702 108.371 161.869 113.376 158.562C117.285 156.022 120.966 153.147 124.376 149.968C127.731 146.806 130.701 143.341 133.011 139.353C134.881 136.122 136.146 132.678 136.558 128.958C136.9 125.576 136.58 122.16 135.616 118.9C134.585 115.263 132.969 111.874 131.154 108.567C128.982 104.6 126.514 100.798 124.238 96.8934C122.306 93.5728 120.505 90.1903 119.199 86.5671C117.882 83.0861 117.324 79.3638 117.563 75.6496C117.748 73.1059 118.408 70.6584 119.433 68.3071C120.973 64.7734 123.193 61.6865 125.771 58.8403C129.539 54.6671 133.918 51.209 138.483 47.9503C138.985 47.5859 139.404 47.5446 139.961 47.8265C144.815 50.2603 149.353 53.1615 153.539 56.6059C157.823 60.1328 161.631 64.0996 164.952 68.5203C172.838 78.9559 177.546 91.4455 178.509 104.49C178.661 106.656 178.798 108.822 178.736 110.994C178.589 117.316 177.59 123.59 175.766 129.646C172.211 141.293 165.633 151.789 156.702 160.068C146.853 169.199 134.587 175.308 121.364 177.668C116.708 178.485 111.983 178.84 107.257 178.727C99.1204 178.519 91.0814 176.902 83.497 173.948C83.2495 173.838 82.9607 173.811 82.8232 173.536V173.529Z" fill="white"/>
</g>
<defs>
<clipPath id="clip0_108_357">
<rect width="220" height="220" fill="white"/>
</clipPath>
</defs>
</svg>
