<svg width="220" height="220" viewBox="0 0 220 220" fill="none" xmlns="http://www.w3.org/2000/svg">
<g clip-path="url(#clip0_108_358)">
<path d="M110 220C170.751 220 220 170.751 220 110C220 49.2487 170.751 0 110 0C49.2487 0 0 49.2487 0 110C0 170.751 49.2487 220 110 220Z" fill="#0072FF"/>
<path d="M165.186 88.0206L132.103 161.563H118.882L153.704 84.15C157.718 84.8008 161.597 86.1086 165.186 88.0206ZM107.298 44.8181L56.4025 157.974C43.4225 151.814 34.375 138.318 34.375 122.602C34.375 101.083 51.3012 83.6481 72.1875 83.6481C72.1875 63.0575 87.6838 46.2481 107.298 44.8181ZM147.819 83.6481L112.764 161.563H98.4431L142.457 63.7313C145.846 69.5613 147.819 76.3538 147.819 83.6481ZM160.841 159.149L183.294 109.264C184.779 113.444 185.625 117.927 185.625 122.623C185.625 139.384 175.312 153.663 160.841 159.149ZM170.754 91.6781C173.889 94.1531 176.667 97.0956 178.908 100.471L151.504 161.37C150.28 161.5 149.05 161.564 147.819 161.563H139.322L170.754 91.6781ZM110.138 44.6875C115.5 44.7081 120.581 45.8837 125.194 47.9944L74.1125 161.563H72.1875C67.4437 161.563 62.9063 160.628 58.7331 158.971L110.138 44.6875ZM139.473 59.2488L93.445 161.563H78.0037L128.377 49.6031C132.653 52.0644 136.421 55.3506 139.473 59.2488Z" fill="white"/>
</g>
<defs>
<clipPath id="clip0_108_358">
<rect width="220" height="220" fill="white"/>
</clipPath>
</defs>
</svg>
