<svg width="220" height="220" viewBox="0 0 220 220" fill="none" xmlns="http://www.w3.org/2000/svg">
<g clip-path="url(#clip0_108_359)">
<path d="M110 220C170.751 220 220 170.751 220 110C220 49.2487 170.751 0 110 0C49.2487 0 0 49.2487 0 110C0 170.751 49.2487 220 110 220Z" fill="#FDA616"/>
<path d="M81.9569 151.25C82.7613 153.753 92.7163 164.065 103.077 164.065C118.436 164.065 127.408 154.798 127.408 141.391C127.408 128.975 121.193 121.88 105.49 114.978C86.5081 107.291 74.7725 96.0506 74.7725 77.3231C74.7725 56.6294 89.7875 41.25 112.393 41.25C124.3 41.25 136.366 48.7437 140.367 53.7487L130.763 63.7519C126.968 61.3869 122.409 55.44 111.877 55.44C96.0025 55.44 89.9594 66.2819 89.9594 75.35C89.9594 87.7731 97.0406 93.885 113.08 100.98C132.756 109.656 142.766 120.498 142.766 140.009C142.766 160.518 129.401 178.75 101.963 178.75C90.7431 178.75 78.76 171.256 71.555 162.085L81.9569 151.25ZM94.7581 80.4169C92.3588 75.4187 93.9606 70.4206 93.9606 70.4206C154.763 60.4175 143.564 119.577 143.564 119.577C138.765 110.419 133.966 108.749 133.966 108.749C134.764 74.58 94.7581 80.4169 94.7581 80.4169ZM121.963 134.585C124.369 140.422 121.591 146.493 121.591 146.493C52.36 155.416 71.06 92.1112 71.0394 92.1112C74.7106 101.833 79.2756 104.108 79.2756 104.108C77.9694 143.749 121.963 134.585 121.963 134.585Z" fill="white"/>
</g>
<defs>
<clipPath id="clip0_108_359">
<rect width="220" height="220" fill="white"/>
</clipPath>
</defs>
</svg>
