<svg width="220" height="220" viewBox="0 0 220 220" fill="none" xmlns="http://www.w3.org/2000/svg">
<g clip-path="url(#clip0_108_360)">
<path d="M110 220C170.751 220 220 170.751 220 110C220 49.2487 170.751 0 110 0C49.2487 0 0 49.2487 0 110C0 170.751 49.2487 220 110 220Z" fill="#8E9495"/>
<path d="M52.4081 142.389C50.8334 138.993 49.6657 135.423 48.9294 131.753C48.5051 129.82 48.2361 127.857 48.125 125.882H54.2713C54.4117 127.47 54.6412 129.049 54.9587 130.612C55.6256 133.836 56.6294 137.04 58.0044 139.962C61.6894 147.772 67.2856 152.227 75.4119 152.227C81.7644 152.227 86.6869 149.683 90.1519 145.201C93.0944 141.412 94.7581 136.387 94.7581 132.166C94.7581 126.755 92.7094 122.767 88.6188 119.392C85.2913 116.642 81.4619 114.717 73.5556 111.43L72.16 110.853C63.9375 107.45 60.1425 105.58 56.4506 102.665C51.3494 98.6361 48.6406 93.638 48.6406 87.2374C48.6406 79.5717 51.3975 73.0749 56.3338 68.4824C61.0148 64.1975 67.141 61.8379 73.4869 61.8755C82.2869 61.8755 89.0037 65.5399 93.4725 71.9611V63.2299H113.327V150.866H119.226V126.274C119.216 126.072 119.216 125.87 119.226 125.669L125.372 125.875V126.184C125.494 127.675 125.7 129.158 125.991 130.626C126.631 133.822 127.621 137.033 128.996 139.955C132.66 147.758 138.263 152.22 146.382 152.22C152.735 152.22 157.658 149.676 161.123 145.194C164.065 141.406 165.729 136.38 165.729 132.159C165.729 126.748 163.68 122.76 159.589 119.385C156.262 116.635 152.432 114.71 144.526 111.424L143.131 110.846C134.908 107.443 131.113 105.573 127.421 102.658C122.32 98.6292 119.611 93.6311 119.611 87.2305C119.611 79.5649 122.368 73.068 127.304 68.4755C131.986 64.1931 138.112 61.836 144.457 61.8755C153.257 61.8755 159.974 65.5399 164.443 71.9611V63.6011H170.596V94.0024H164.443C164.443 87.6499 162.986 81.2149 160.119 76.4642C156.736 70.8474 151.649 67.7811 144.457 67.7811C139.697 67.7466 135.098 69.5094 131.581 72.7174C127.868 76.1824 125.757 81.1392 125.757 87.2305C125.757 91.768 127.586 95.1367 131.326 98.093C134.42 100.534 137.885 102.239 145.564 105.422L146.96 105.999C155.437 109.512 159.637 111.637 163.597 114.902C169.008 119.371 171.875 124.967 171.875 132.159C171.875 137.631 169.799 143.887 166.059 148.727C161.459 154.66 154.743 158.126 146.382 158.126C140.587 158.126 135.616 156.366 131.533 153.107C129.088 151.13 127.004 148.746 125.372 146.06V156.771H107.181V69.1355H99.6187V94.0024H93.4725C93.4725 87.6499 92.015 81.2149 89.1481 76.4642C85.7656 70.8474 80.6781 67.7811 73.4869 67.7811C68.7262 67.7466 64.1277 69.5094 60.61 72.7174C56.8975 76.1824 54.7869 81.1392 54.7869 87.2305C54.7869 91.768 56.6156 95.1367 60.3556 98.093C63.4494 100.534 66.9144 102.239 74.5938 105.422L75.9894 105.999C84.4663 109.512 88.6669 111.637 92.6269 114.902C98.0375 119.371 100.904 124.967 100.904 132.159C100.904 137.631 98.8281 143.887 95.0881 148.727C90.4888 154.66 83.7719 158.126 75.4119 158.126C69.6162 158.126 64.6456 156.366 60.5619 153.107C58.0566 151.081 55.9272 148.631 54.2713 145.867V156.4H48.125V125.875H54.2713V145.867C53.5879 144.742 52.9659 143.581 52.4081 142.389Z" fill="white"/>
</g>
<defs>
<clipPath id="clip0_108_360">
<rect width="220" height="220" fill="white"/>
</clipPath>
</defs>
</svg>
