<svg width="220" height="220" viewBox="0 0 220 220" fill="none" xmlns="http://www.w3.org/2000/svg">
<g clip-path="url(#clip0_108_361)">
<path d="M110 220C170.751 220 220 170.751 220 110C220 49.2487 170.751 0 110 0C49.2487 0 0 49.2487 0 110C0 170.751 49.2487 220 110 220Z" fill="#FEC60D"/>
<path d="M183.335 69.7599L159.699 56.1543C158.888 55.673 158.139 55.2537 157.334 54.793C156.55 54.3462 155.787 53.8649 154.99 53.4043C150.253 50.6955 145.502 48.0693 140.82 45.2643L118.367 32.298C117.06 31.5074 110.309 27.5405 110.02 27.5405C109.904 27.5405 109.051 28.0905 108.865 28.2074L78.1891 45.8762C77.7423 46.1305 77.4329 46.3299 76.9791 46.5774C76.5892 46.7934 76.2041 47.018 75.8241 47.2512L73.4729 48.6262C73.0728 48.8677 72.6695 49.1038 72.2629 49.3343L69.9529 50.668C69.1416 51.1493 68.3785 51.5618 67.581 52.0224L62.8304 54.738C62.4179 54.9512 62.0741 55.178 61.6754 55.4049L55.7354 58.8424C54.9104 59.3237 54.1473 59.7224 53.3429 60.183L48.6473 62.9536C46.2891 64.3011 43.9241 65.738 41.5316 67.0374C40.4798 67.6012 34.9591 70.9699 34.416 71.1143V158.523C34.856 158.564 40.8923 162.16 41.5179 162.531L50.9779 168.004C51.7685 168.485 52.5591 168.918 53.3429 169.372L58.0179 172.067C58.4166 172.273 58.7741 172.507 59.1866 172.734C59.6404 172.981 59.936 173.194 60.3966 173.421C61.5998 174.04 62.7548 174.776 63.9029 175.47L69.8566 178.901C70.2691 179.127 70.5991 179.327 71.0048 179.567C73.3285 180.97 75.7416 182.228 78.0585 183.624L86.3566 188.436C91.836 191.674 97.4254 194.692 102.877 197.965L109.36 201.719C110.392 202.413 110.77 201.629 112.392 200.742L126.596 192.547C127.38 192.094 128.143 191.654 128.968 191.193L131.285 189.866C131.677 189.653 132.041 189.426 132.433 189.186L145.461 181.644C149.352 179.313 153.367 177.202 157.259 174.865L183.198 159.836C183.576 159.609 183.954 159.382 184.353 159.162C184.765 158.942 185.157 158.633 185.625 158.53V71.1143C184.889 70.6193 184.126 70.2412 183.335 69.7599ZM136.654 155.312H114.551V161.101C114.551 161.17 114.524 161.191 114.455 161.191H103.799V155.312H83.3866V138.95C83.3866 138.778 83.5929 138.634 83.696 138.537L85.7654 136.303C85.8264 136.247 85.8838 136.187 85.9373 136.124C85.985 136.058 86.0379 135.996 86.0954 135.939L87.2985 134.66L87.3123 134.639L87.6698 134.275L87.8279 134.082L88.2129 133.677L88.2541 133.629L89.5398 132.24C89.8148 131.958 90.0898 131.69 90.351 131.381L90.3648 131.367L90.406 131.312L91.2723 130.391C91.396 130.253 91.4923 130.177 91.6091 130.026L92.6541 128.912L92.826 128.741C92.8828 128.68 92.9356 128.615 92.9841 128.548L94.7373 126.678L94.751 126.664L94.7923 126.616L95.0604 126.341C95.4041 125.901 96.0229 125.351 96.3873 124.911L96.4285 124.856C96.5454 124.719 96.676 124.622 96.786 124.492L97.4666 123.756C97.9479 123.275 98.3604 122.752 98.8416 122.271L100.389 120.607L100.56 120.436L101.234 119.693C101.365 119.562 101.489 119.466 101.592 119.329C101.695 119.191 101.825 119.095 101.942 118.957L102.623 118.222C102.692 118.153 102.747 118.105 102.809 118.029L103.324 117.472C103.427 117.335 103.558 117.239 103.675 117.101C103.977 116.764 104.844 115.877 105.029 115.63C105.139 115.492 105.27 115.41 105.366 115.272C105.094 114.939 104.802 114.622 104.493 114.324L103.819 113.581L103.64 113.409C103.572 113.327 103.551 113.286 103.469 113.203C102.939 112.667 102.451 112.096 101.915 111.553L101.055 110.625C101.005 110.559 100.95 110.497 100.89 110.439L92.9841 101.956C92.9313 101.883 92.8739 101.814 92.8123 101.749L91.6435 100.491L91.6298 100.477L89.0379 97.6861C88.9829 97.6174 88.9279 97.5761 88.866 97.5143L88.1785 96.758C87.711 96.2768 87.2641 95.7543 86.7898 95.2799L86.6385 95.1149L86.6248 95.1012L86.116 94.5443C85.8823 94.2899 85.6348 94.0562 85.4079 93.8018C85.3323 93.7193 85.3185 93.678 85.236 93.5955C84.7685 93.1212 84.3423 92.6055 83.861 92.138C83.806 92.0693 83.751 92.028 83.696 91.9662C83.6341 91.8974 83.3866 91.6568 83.3866 91.5812V75.1568H103.792V68.3368C107.38 68.3368 110.928 68.4055 114.517 68.4055V74.9368C114.517 75.0124 114.537 75.0399 114.613 75.0399H136.654V91.6155H106.246C106.425 91.8905 106.7 92.1174 106.913 92.3649L108.604 94.2211C108.707 94.3587 108.817 94.4549 108.934 94.5924C109.223 94.9362 109.546 95.2318 109.828 95.5755L112.289 98.2774C112.77 98.7449 113.183 99.2743 113.644 99.7555L119.92 106.651L119.962 106.706L122.21 109.181L122.382 109.346C122.684 109.649 122.932 109.992 123.234 110.295L127.277 114.716C127.442 114.894 127.62 115.059 127.758 115.266C127.696 115.362 127.648 115.389 127.572 115.472C127.523 115.537 127.471 115.599 127.414 115.657L126.569 116.572C126.52 116.637 126.467 116.699 126.41 116.757L124.382 118.978C124.245 119.109 124.176 119.219 124.039 119.349C123.764 119.624 123.351 120.14 123.028 120.449L121.612 122.024C121.33 122.361 120.574 123.11 120.347 123.399L118.332 125.599C117.899 126.128 117.411 126.582 116.971 127.104L116.146 127.998C115.733 128.417 115.376 128.864 114.977 129.291C114.909 129.359 114.854 129.407 114.792 129.483C114.324 130.012 113.815 130.514 113.355 131.064L113.286 131.147L111.519 133.065L111.478 133.113L111.416 133.182L111.402 133.202L110.591 134.096C110.534 134.152 110.481 134.211 110.433 134.275C110.38 134.338 110.322 134.398 110.261 134.454C109.91 134.797 109.608 135.21 109.257 135.554C109.201 135.612 109.148 135.674 109.099 135.739L108.425 136.482C108.37 136.551 108.315 136.592 108.254 136.654L106.246 138.867H135.809C136.09 138.867 136.654 138.799 136.654 138.957V155.319V155.312Z" fill="white"/>
</g>
<defs>
<clipPath id="clip0_108_361">
<rect width="220" height="220" fill="white"/>
</clipPath>
</defs>
</svg>
