<svg width="220" height="220" viewBox="0 0 220 220" fill="none" xmlns="http://www.w3.org/2000/svg">
<g clip-path="url(#clip0_108_362)">
<path d="M110 220C170.751 220 220 170.751 220 110C220 49.2487 170.751 0 110 0C49.2487 0 0 49.2487 0 110C0 170.751 49.2487 220 110 220Z" fill="#B30D23"/>
<path d="M116.277 145.984L109.869 157.919L103.462 145.984C64.7556 142.979 34.375 114.118 34.375 114.118C34.375 114.049 63.8963 86.0819 101.812 82.3969L106.831 73.8031L109.869 68.75L115.026 77.3438L117.927 82.3969C155.836 86.0131 185.364 114.118 185.364 114.118C185.364 114.118 154.976 142.979 116.27 145.984H116.277ZM40.7825 114.118C40.7138 114.118 69.9738 134.111 99.3644 138.339L85.0369 111.526L88.9281 104.775L92.5031 111.458L92.4344 111.526L106.37 138.957C107.491 139.026 108.611 139.026 109.739 139.026C110.859 139.026 111.918 139.026 113.039 138.957L123.276 118.552L130.742 104.638L134.633 111.389L120.306 138.27C149.696 134.111 178.949 114.599 178.949 114.049C178.949 113.568 151.085 94.9506 122.416 90.1725L126.775 97.7488L123.145 105.043L113.699 89.2169C112.424 89.137 111.147 89.0912 109.869 89.0794C108.611 89.0794 107.291 89.1481 105.971 89.2169L96.3256 105.043L92.7644 98.0856L97.3156 90.2413C68.6537 95.0881 40.7825 114.118 40.7825 114.118Z" fill="white"/>
</g>
<defs>
<clipPath id="clip0_108_362">
<rect width="220" height="220" fill="white"/>
</clipPath>
</defs>
</svg>
