<svg width="220" height="220" viewBox="0 0 220 220" fill="none" xmlns="http://www.w3.org/2000/svg">
<g clip-path="url(#clip0_108_363)">
<path d="M110 220C170.751 220 220 170.751 220 110C220 49.2487 170.751 0 110 0C49.2487 0 0 49.2487 0 110C0 170.751 49.2487 220 110 220Z" fill="#0B1C26"/>
<path d="M110 185.625C68.2825 185.501 34.375 151.642 34.375 110C34.375 68.3581 68.2825 34.4987 110 34.375C151.717 34.4987 185.625 68.3581 185.625 110C185.625 151.642 151.717 185.542 110 185.625ZM177.066 122.031C176.267 123.872 174.779 125.326 172.92 126.082C171.062 126.838 168.981 126.835 167.124 126.074C169.799 128.865 171.469 132.612 171.469 136.73C171.469 137.94 171.304 139.068 171.057 140.195C173.889 134.448 175.917 128.336 177.066 122.038V122.031ZM170.053 122.788C171.06 122.789 172.026 122.391 172.739 121.681C173.452 120.97 173.853 120.006 173.855 118.999C173.857 117.993 173.459 117.027 172.748 116.314C172.038 115.601 171.073 115.199 170.067 115.198C169.569 115.196 169.075 115.293 168.614 115.482C168.153 115.672 167.734 115.95 167.38 116.302C166.667 117.012 166.264 117.976 166.262 118.982C166.259 119.989 166.656 120.955 167.366 121.669C168.076 122.382 169.04 122.785 170.046 122.788H170.053ZM171.758 81.3519C173.631 86.5923 174.092 92.2332 173.095 97.7082C172.098 103.183 169.679 108.3 166.079 112.544C167.266 111.823 168.624 111.434 170.012 111.416C173.979 111.416 177.231 114.455 177.567 118.374C177.904 115.624 178.111 112.874 178.111 110.041C178.157 100.124 175.987 90.3222 171.758 81.3519ZM167.881 91.9669C167.864 85.0009 165.085 78.3259 160.152 73.4073C155.219 68.4887 148.536 65.7282 141.57 65.7319C134.604 65.7282 127.921 68.4887 122.988 73.4073C118.055 78.3259 115.276 85.0009 115.259 91.9669C115.276 98.9329 118.055 105.608 122.988 110.526C127.921 115.445 134.604 118.206 141.57 118.202C148.534 118.198 155.212 115.435 160.144 110.518C165.075 105.601 167.857 98.9307 167.881 91.9669ZM140.525 136.744C140.525 131.037 143.687 125.792 148.754 123.131C142.336 124.622 135.613 124.097 129.504 121.626C134.699 125.608 138.546 131.089 140.525 137.328C140.566 137.074 140.525 136.909 140.525 136.744ZM142.031 146.905C142.023 149.431 141.713 151.946 141.109 154.399C142.361 151.903 144.911 150.322 147.709 150.322C148.102 150.32 148.494 150.361 148.878 150.446C145.661 148.792 143.121 146.069 141.694 142.746C141.914 144.121 142.024 145.509 142.031 146.905ZM155.973 146.444C158.554 146.448 161.031 145.43 162.863 143.612C164.695 141.794 165.733 139.325 165.749 136.744C165.749 131.374 161.363 127.043 155.973 127.043C150.583 127.043 146.245 131.416 146.245 136.737C146.245 142.113 150.631 146.444 155.98 146.444H155.973ZM162.401 119.048C162.415 117.762 162.745 116.504 163.364 115.376C160.589 117.939 157.397 120.008 153.924 121.495C154.598 121.419 155.265 121.337 155.973 121.337C158.752 121.33 161.48 122.079 163.866 123.503C162.915 122.21 162.404 120.646 162.408 119.041L162.401 119.048ZM109.993 114.923C114.118 114.923 118.202 115.713 122.024 117.253C115.605 112.336 111.303 105.157 109.993 97.1781C108.678 105.153 104.379 112.33 97.9688 117.253C101.797 115.727 105.879 114.935 110 114.916L109.993 114.923ZM109.993 72.4831C107.083 72.489 104.231 71.6663 101.771 70.1112C106.105 74.6869 108.971 80.4549 110 86.6731C111.054 80.4611 113.917 74.6979 118.229 70.1044C115.767 71.6607 112.913 72.4834 110 72.4762L109.993 72.4831ZM125.613 56.9112C125.613 60.3969 124.438 63.7863 122.272 66.5363C125.518 64.0796 129.206 62.2686 133.134 61.2013C132.963 61.2013 132.839 61.2425 132.715 61.2425C129.498 61.2425 126.734 59.2487 125.613 56.4094C125.579 56.5744 125.613 56.7462 125.613 56.9112ZM137.473 47.7125C139.191 49.1288 140.312 51.205 140.312 53.5838C140.312 56.595 138.524 59.3244 135.761 60.5344C141.299 59.5144 147.009 59.9704 152.315 61.8567C157.622 63.743 162.338 66.993 165.99 71.28C158.809 60.9736 148.951 52.8226 137.479 47.7056L137.473 47.7125ZM132.674 49.8369C132.175 49.8355 131.682 49.9323 131.221 50.1218C130.76 50.3113 130.341 50.5897 129.987 50.9411C129.634 51.2926 129.353 51.7101 129.161 52.1701C128.969 52.63 128.87 53.1232 128.868 53.6216C128.867 54.1199 128.964 54.6137 129.153 55.0746C129.343 55.5356 129.621 55.9547 129.973 56.3081C130.324 56.6614 130.742 56.9421 131.202 57.1341C131.662 57.326 132.155 57.4255 132.653 57.4269C133.661 57.4296 134.628 57.032 135.342 56.3216C136.056 55.6112 136.459 54.6462 136.462 53.6388C136.465 52.6313 136.067 51.6641 135.357 50.9498C134.646 50.2356 133.681 49.8327 132.674 49.83V49.8369ZM114.716 42.0475C117.23 42.8453 119.499 44.2689 121.312 46.1847C123.124 48.1004 124.42 50.4454 125.077 52.9994C125.217 51.0885 126.075 49.3013 127.477 47.9958C128.879 46.6903 130.723 45.9629 132.639 45.9594C132.889 45.9668 133.137 45.9943 133.382 46.0419C127.375 43.8526 121.093 42.5083 114.716 42.0475ZM100.141 56.9112C100.209 59.48 101.277 61.9207 103.118 63.7136C104.959 65.5064 107.427 66.5097 109.997 66.5097C112.566 66.5097 115.034 65.5064 116.875 63.7136C118.716 61.9207 119.784 59.48 119.852 56.9112C119.757 54.3621 118.677 51.949 116.84 50.1792C115.003 48.4094 112.551 47.4206 110 47.4206C107.449 47.4206 104.997 48.4094 103.16 50.1792C101.323 51.949 100.243 54.3621 100.148 56.9112H100.141ZM86.5769 46.0419C86.824 45.994 87.0746 45.9664 87.3262 45.9594C89.2446 45.9548 91.093 46.6794 92.4972 47.9866C93.9013 49.2937 94.7562 51.0856 94.8888 52.9994C95.5453 50.4462 96.8399 48.1017 98.651 46.186C100.462 44.2704 102.73 42.8463 105.243 42.0475C98.725 42.5425 92.455 43.8763 86.5769 46.0419ZM94.38 56.9112C94.3728 56.7429 94.3866 56.5743 94.4213 56.4094C93.8583 57.8326 92.8811 59.0542 91.6162 59.9158C90.3512 60.7775 88.8568 61.2397 87.3262 61.2425C87.1544 61.2425 87.0306 61.2013 86.9069 61.2013C90.8256 62.2738 94.5175 64.0888 97.7694 66.5294C95.5752 63.804 94.3792 60.4101 94.38 56.9112ZM83.5244 53.6181C83.5248 54.1165 83.6234 54.6099 83.8146 55.0701C84.0057 55.5304 84.2856 55.9485 84.6383 56.3006C84.9911 56.6527 85.4097 56.9318 85.8703 57.1221C86.3309 57.3124 86.8244 57.4101 87.3228 57.4097C87.8212 57.4092 88.3146 57.3106 88.7748 57.1195C89.2351 56.9284 89.6532 56.6484 90.0053 56.2957C90.3574 55.943 90.6365 55.5244 90.8268 55.0638C91.0171 54.6032 91.1148 54.1096 91.1144 53.6112C91.1135 52.6048 90.7128 51.6398 90.0004 50.9288C89.2881 50.2177 88.3224 49.8188 87.3159 49.8197C86.3094 49.8206 85.3445 50.2213 84.6335 50.9336C83.9224 51.646 83.5235 52.6116 83.5244 53.6181ZM54.0031 71.3212C57.6468 67.0236 62.3622 63.766 67.6712 61.8788C72.9801 59.9916 78.6937 59.542 84.2325 60.5756C83.0395 60.0554 82.001 59.236 81.2174 58.1969C80.4338 57.1577 79.9317 55.934 79.7595 54.6439C79.5874 53.3539 79.7511 52.0412 80.2348 50.833C80.7185 49.6247 81.5058 48.5617 82.5206 47.7469C71.0294 52.8356 61.1624 60.9922 54.0031 71.3212ZM52.1194 91.9738C52.1358 98.9398 54.9154 105.615 59.8483 110.533C64.7811 115.452 71.464 118.212 78.43 118.209C85.396 118.212 92.0789 115.452 97.0117 110.533C101.945 105.615 104.724 98.9398 104.741 91.9738C104.724 85.0077 101.945 78.3328 97.0117 73.4142C92.0789 68.4955 85.396 65.7351 78.43 65.7388C63.9375 65.78 52.1194 77.5225 52.1194 91.9738ZM79.475 136.744C79.475 136.909 79.4338 137.122 79.4338 137.287C81.4243 131.053 85.269 125.576 90.4544 121.584C84.3448 124.053 77.6224 124.576 71.2044 123.083C73.6956 124.392 75.7823 126.356 77.2398 128.763C78.6972 131.17 79.4701 133.93 79.475 136.744ZM57.5919 119.041C57.5987 120.656 57.0694 122.224 56.0863 123.496C58.4735 122.076 61.2011 121.33 63.9787 121.337C64.6662 121.33 65.3538 121.385 66.0275 121.502C62.5389 120.046 59.3412 117.973 56.5881 115.383C57.2481 116.483 57.5919 117.755 57.5919 119.041ZM54.2506 136.744C54.2506 139.324 55.2755 141.798 57.0999 143.623C58.9243 145.447 61.3987 146.472 63.9787 146.472C66.5588 146.472 69.0332 145.447 70.8576 143.623C72.6819 141.798 73.7069 139.324 73.7069 136.744C73.7069 131.367 69.3275 127.036 63.9787 127.036C62.7017 127.032 61.4363 127.28 60.2554 127.766C59.0744 128.252 58.0011 128.966 57.0971 129.868C56.1932 130.77 55.4763 131.842 54.9878 133.022C54.4993 134.202 54.2488 135.467 54.2506 136.744ZM71.0806 150.446C71.4587 150.404 71.8369 150.315 72.2494 150.315C75.0475 150.322 77.5981 151.896 78.8494 154.399C78.2454 151.946 77.9362 149.431 77.9281 146.905C77.9419 145.496 78.0381 144.086 78.2238 142.698C76.8281 146.039 74.305 148.782 71.0806 150.446ZM42.3912 118.339C42.556 116.445 43.4233 114.681 44.8226 113.393C46.222 112.106 48.0523 111.388 49.9537 111.382C51.3356 111.389 52.6969 111.781 53.8725 112.509C50.2731 108.265 47.8535 103.149 46.8567 97.6738C45.86 92.1988 46.3211 86.5579 48.1938 81.3175C42.7952 92.858 40.7831 105.694 42.3912 118.332V118.339ZM49.9537 115.253C49.4554 115.252 48.9617 115.349 48.5009 115.539C48.0402 115.729 47.6213 116.007 47.2683 116.359C46.9152 116.711 46.6349 117.129 46.4434 117.589C46.2518 118.049 46.1528 118.542 46.1519 119.041C46.151 119.539 46.2482 120.033 46.4381 120.493C46.628 120.954 46.9068 121.373 47.2585 121.726C47.6103 122.079 48.0282 122.359 48.4882 122.551C48.9483 122.743 49.4416 122.842 49.94 122.842C50.9465 122.844 51.9125 122.446 52.6255 121.736C53.3385 121.025 53.7401 120.061 53.7419 119.054C53.7437 118.048 53.3456 117.082 52.6352 116.369C51.9248 115.656 50.9602 115.254 49.9537 115.253ZM48.5375 136.744C48.5375 132.756 50.0912 128.934 52.8756 126.088C51.019 126.847 48.9388 126.849 47.0806 126.094C45.2225 125.338 43.7341 123.885 42.9344 122.045C44.1031 128.453 46.1175 134.537 48.95 140.195C48.6836 139.064 48.5453 137.906 48.5375 136.744ZM68.0763 151.607C65.5428 152.3 62.8745 152.334 60.3241 151.707C57.7736 151.081 55.4252 149.813 53.5013 148.026C57.145 153.409 61.5312 158.242 66.5294 162.394C65.4357 161.086 64.8306 159.438 64.8175 157.733C64.8175 155.279 66.0413 152.989 68.0763 151.614V151.607ZM68.6606 157.726C68.6606 158.678 69.0387 159.591 69.7118 160.264C70.3848 160.937 71.2976 161.315 72.2494 161.315C73.2012 161.315 74.114 160.937 74.787 160.264C75.46 159.591 75.8381 158.678 75.8381 157.726C75.8381 156.774 75.46 155.862 74.787 155.189C74.114 154.516 73.2012 154.137 72.2494 154.137C71.2976 154.137 70.3848 154.516 69.7118 155.189C69.0387 155.862 68.6606 156.774 68.6606 157.726ZM100.774 177.512C95.8795 176.031 91.4093 173.403 87.7348 169.847C84.0603 166.291 81.2875 161.909 79.6469 157.066C79.6469 157.273 79.7294 157.479 79.7294 157.733C79.7279 158.989 79.4078 160.223 78.7989 161.322C78.1901 162.42 77.3125 163.345 76.2483 164.012C75.1842 164.678 73.9683 165.063 72.7145 165.132C71.4608 165.2 70.2102 164.949 69.08 164.402C78.354 171.403 89.2642 175.916 100.774 177.512ZM136.269 146.905C136.269 139.939 133.502 133.258 128.576 128.332C123.65 123.406 116.97 120.639 110.003 120.639C103.037 120.639 96.3564 123.406 91.4306 128.332C86.5048 133.258 83.7375 139.939 83.7375 146.905C83.7521 153.863 86.5248 160.531 91.4478 165.447C96.3708 170.364 103.042 173.128 110 173.133C116.957 173.12 123.625 170.353 128.547 165.437C133.468 160.52 136.243 153.855 136.262 146.898L136.269 146.905ZM150.968 164.395C149.837 164.946 148.584 165.2 147.327 165.134C146.07 165.068 144.851 164.684 143.784 164.017C142.719 163.351 141.842 162.424 141.236 161.325C140.629 160.225 140.314 158.989 140.319 157.733C140.326 157.509 140.353 157.286 140.401 157.066C138.76 161.91 135.986 166.292 132.31 169.849C128.635 173.405 124.163 176.032 119.267 177.512C130.773 175.897 141.679 171.383 150.961 164.395H150.968ZM151.346 157.726C151.346 157.017 151.136 156.323 150.742 155.733C150.348 155.143 149.788 154.683 149.132 154.411C148.477 154.14 147.756 154.068 147.06 154.206C146.364 154.344 145.724 154.685 145.222 155.186C144.72 155.687 144.378 156.326 144.239 157.022C144.099 157.718 144.169 158.439 144.44 159.095C144.711 159.751 145.169 160.312 145.759 160.707C146.348 161.102 147.041 161.314 147.751 161.315C148.699 161.308 149.607 160.928 150.278 160.258C150.949 159.588 151.33 158.682 151.339 157.733L151.346 157.726ZM166.499 148.032C164.575 149.82 162.226 151.087 159.675 151.713C157.125 152.338 154.457 152.302 151.924 151.607C153.959 152.982 155.183 155.279 155.183 157.726C155.183 159.521 154.516 161.102 153.471 162.394C158.47 158.244 162.857 153.407 166.499 148.026V148.032Z" fill="white"/>
</g>
<defs>
<clipPath id="clip0_108_363">
<rect width="220" height="220" fill="white"/>
</clipPath>
</defs>
</svg>
