<svg width="220" height="220" viewBox="0 0 220 220" fill="none" xmlns="http://www.w3.org/2000/svg">
<g clip-path="url(#clip0_108_364)">
<path d="M110 220C170.751 220 220 170.751 220 110C220 49.2487 170.751 0 110 0C49.2487 0 0 49.2487 0 110C0 170.751 49.2487 220 110 220Z" fill="#5B6DEE"/>
<path d="M91.4375 103.265C87.602 103.245 83.7726 103.576 79.9975 104.255C83.105 75.5172 107.057 53.751 135.575 53.751C153.037 53.751 165 62.3035 165 79.9997C165 97.7028 150.638 106.255 129.69 106.255C114.221 106.255 106.906 103.272 91.4375 103.272V103.265ZM90.31 113.749C69.3619 113.749 55 122.308 55 140.005C55 157.701 66.9625 166.253 84.425 166.253C112.942 166.253 136.895 144.494 140.003 115.75C136.227 116.428 132.398 116.759 128.563 116.74C113.094 116.74 105.772 113.749 90.31 113.749Z" fill="white"/>
</g>
<defs>
<clipPath id="clip0_108_364">
<rect width="220" height="220" fill="white"/>
</clipPath>
</defs>
</svg>
