<svg width="220" height="220" viewBox="0 0 220 220" fill="none" xmlns="http://www.w3.org/2000/svg">
<g clip-path="url(#clip0_304_6)">
<path d="M109.988 219.976C170.733 219.976 219.976 170.733 219.976 109.988C219.976 49.2434 170.733 0 109.988 0C49.2434 0 0 49.2434 0 109.988C0 170.733 49.2434 219.976 109.988 219.976Z" fill="url(#paint0_linear_304_6)"/>
<path d="M73.76 82.6426C72.8808 81.5512 71.5469 80.9449 70.122 80.9449H40.7454C40.5029 80.9449 40.2906 80.8539 40.1087 80.7024C39.9572 80.5508 39.8662 80.3689 39.8662 80.1567V60.36C39.8662 60.1478 39.9572 59.9659 40.1087 59.8143C40.2906 59.6324 40.5029 59.5415 40.7454 59.5718H71.7894C79.6111 59.5718 86.3717 62.7853 92.0712 69.1821L99.62 78.3983L84.9165 96.3153L73.76 82.6426ZM128.026 69.0912C133.696 62.755 140.487 59.5718 148.399 59.5718H179.352C179.564 59.5415 179.777 59.6324 179.928 59.7537C180.08 59.9053 180.14 60.1175 180.11 60.36V80.1567C180.11 80.3689 180.05 80.5508 179.928 80.7024C179.777 80.8843 179.564 80.9752 179.352 80.9449H149.976C148.581 80.9146 147.247 81.5512 146.338 82.6426L124.692 108.988L146.429 135.515C147.308 136.515 148.611 137.121 149.945 137.091H179.322C179.534 137.061 179.777 137.182 179.898 137.334C180.019 137.515 180.11 137.758 180.08 137.97V157.767C180.08 157.979 180.019 158.161 179.898 158.312C179.746 158.494 179.534 158.585 179.322 158.555H148.399C140.487 158.555 133.756 155.341 128.117 148.945L110.109 126.965L92.1015 148.945C86.4323 155.341 79.6414 158.555 71.7288 158.555H40.7454C40.5332 158.585 40.2906 158.464 40.1694 158.312C40.0178 158.131 39.9572 157.888 39.9875 157.676V137.879C39.9875 137.667 40.0481 137.485 40.1694 137.334C40.321 137.152 40.5332 137.061 40.7454 137.091H70.122C71.5166 137.091 72.8505 136.454 73.76 135.393L95.0119 109.442L128.026 69.0912Z" fill="#00D1FF"/>
</g>
<defs>
<linearGradient id="paint0_linear_304_6" x1="110.003" y1="-0.000636646" x2="110.003" y2="58.207" gradientUnits="userSpaceOnUse">
<stop stop-color="#090220"/>
<stop offset="1" stop-color="#170659"/>
</linearGradient>
<clipPath id="clip0_304_6">
<rect width="220" height="220" fill="white"/>
</clipPath>
</defs>
</svg>
