<svg width="220" height="220" viewBox="0 0 220 220" fill="none" xmlns="http://www.w3.org/2000/svg">
<g clip-path="url(#clip0_108_365)">
<path d="M110 220C170.751 220 220 170.751 220 110C220 49.2487 170.751 0 110 0C49.2487 0 0 49.2487 0 110C0 170.751 49.2487 220 110 220Z" fill="#199248"/>
<path d="M110 27.5C64.4394 27.5 27.5 64.4394 27.5 110C27.5 155.561 64.4394 192.5 110 192.5C155.561 192.5 192.5 155.561 192.5 110C192.5 88.1196 183.808 67.1354 168.336 51.6637C152.865 36.1919 131.88 27.5 110 27.5ZM128.858 180.372C119.367 182.902 109.463 183.485 99.7411 182.088C90.019 180.692 80.6797 177.343 72.2848 172.245C63.8899 167.146 56.6128 160.402 50.8909 152.419C45.1691 144.436 41.1207 135.378 38.9892 125.79C36.8577 116.203 36.6871 106.283 38.4876 96.6271C40.2881 86.9716 44.0226 77.78 49.4666 69.6048C54.9105 61.4295 61.9514 54.4396 70.166 49.0553C78.3806 43.671 87.5992 40.0034 97.2675 38.2731C115.75 35.0075 134.78 39.0009 150.391 49.421C166.002 59.8412 176.989 75.884 181.062 94.2057C185.135 112.527 181.98 131.714 172.255 147.767C162.529 163.82 146.984 175.5 128.858 180.372Z" fill="white"/>
<path d="M130.144 50.0995C130.144 53.6539 130.144 57.2014 130.281 60.7557C125.527 58.9107 120.577 57.6144 115.528 56.892C115.321 53.6676 116.243 50.127 115.301 47.0676C111.704 46.8112 108.095 46.7676 104.493 46.937C104.315 50.2507 104.383 53.5782 104.493 56.9057C99.4425 57.6614 94.4932 58.9852 89.7396 60.852C89.8427 57.2632 89.8771 53.6814 89.8289 50.0857C77.2791 54.3115 66.372 62.3696 58.6455 73.124C50.9189 83.8784 46.7627 96.7866 46.7627 110.029C46.7627 123.271 50.9189 136.179 58.6455 146.934C66.372 157.688 77.2791 165.746 89.8289 169.972C89.8289 166.452 89.7946 162.946 89.7258 159.439C94.4434 161.286 99.3674 162.553 104.39 163.214C104.39 166.438 104.39 169.663 104.198 172.853C108.048 173.403 111.953 173.403 115.803 172.853C115.627 169.677 115.536 166.497 115.528 163.317C120.554 162.611 125.487 161.356 130.24 159.577C130.131 163.059 130.131 166.545 130.24 170.027C142.785 165.792 153.684 157.727 161.402 146.968C169.12 136.21 173.267 123.301 173.258 110.06C173.25 96.8197 169.087 83.9158 161.356 73.1671C153.624 62.4184 142.715 54.367 130.165 50.1476L130.151 50.0995H130.144ZM139.563 145.903C131.258 153.431 119.46 155.211 108.625 155.053C99.1171 155.053 89.0521 152.475 82.1839 145.593C78.5402 142.073 76.4777 137.371 74.6283 132.703C81.2696 130.984 88.1239 130.406 94.8133 128.976C95.2292 130.999 96.1716 132.876 97.5454 134.417C98.9192 135.959 100.676 137.111 102.637 137.756C108.708 139.653 116.229 139.921 121.289 135.59C124.878 132.613 124.981 126.103 120.533 123.875C110.103 118.485 97.1096 120.314 87.2508 113.494C73.6727 104.934 72.6689 82.2332 85.9583 72.9932C96.1196 65.8638 109.705 64.977 121.488 67.837C132.145 70.532 139.741 79.5657 143.399 89.5689C136.84 90.7032 130.288 91.8651 123.73 92.972C122.004 82.5564 107.422 80.0814 100.176 86.152C96.0508 89.5826 97.1096 96.8907 102.266 98.7195C113.541 103.394 127.085 102.047 137.074 109.871C148.672 117.736 149.882 136.518 139.556 145.896L139.563 145.903Z" fill="white"/>
</g>
<defs>
<clipPath id="clip0_108_365">
<rect width="220" height="220" fill="white"/>
</clipPath>
</defs>
</svg>
