<svg width="220" height="220" viewBox="0 0 220 220" fill="none" xmlns="http://www.w3.org/2000/svg">
<g clip-path="url(#clip0_108_366)">
<path d="M110 220C170.751 220 220 170.751 220 110C220 49.2487 170.751 0 110 0C49.2487 0 0 49.2487 0 110C0 170.751 49.2487 220 110 220Z" fill="#FF3B81"/>
<path d="M58.1556 152.219V153.189H48.0012V134.853L47.685 135.871L37.9844 132.942L43.4637 115.273L42.79 116.263L34.375 110.674L44.8938 95.315L43.89 96.1125L37.4962 88.3438L52.6281 76.2712L50.7031 77.0069L47.0594 67.6706L65.1337 60.8369L63.0163 60.9744L62.315 51.0056L81.235 49.6994L79.5231 49.3144L81.8056 39.5725L99.8869 43.6838L98.7456 43.0375L103.812 34.375L119.577 43.34L118.958 42.6938L126.383 35.8737L138.662 48.84L138.401 48.3175L147.524 43.9312L155.403 59.84L155.334 59.3931L165.351 57.8256L168.307 76.2025L168.513 74.8963L178.544 76.4569L175.546 95.1019L176.282 93.6031L185.405 97.9894L176.962 115.046L178.2 113.74L185.618 120.567L172.494 134.427L174.082 133.526L179.156 142.189L162.663 151.566L164.319 151.188L166.609 160.93L148.376 165.076L149.786 165.172L149.077 175.147L130.831 173.889L131.759 174.24L128.116 183.576L110.653 176.976L111.76 177.856L105.373 185.625L90.9562 174.123L91.6712 175.161L83.2562 180.757L72.9437 165.701L73.2531 166.691L63.5456 169.62L58.1556 152.219ZM58.1556 140.339L64.4944 138.428L69.4169 154.309L74.9031 150.666L84.2669 164.347L88.4538 159.259L101.434 169.613L103.757 163.653L119.405 169.565L119.859 163.109L136.606 164.264L135.094 157.836L151.511 154.103L148.108 148.301L162.759 139.968L157.74 135.362L169.311 123.138L163.137 120.168L170.583 105.139L163.831 104.081L166.485 87.5806L160.022 88.5844L157.376 72.0844L151.559 74.8756L144.169 59.9569L139.425 64.3088L127.999 52.2294L124.726 57.8119L110.254 49.5825L108.756 55.9625L92.4756 52.2569L92.95 58.9187L76.2369 60.0669L78.705 66.4125L62.9613 72.3662L67.2031 77.5156L53.9894 88.055L59.565 91.7606L50.05 105.669L56.4644 107.608L51.4937 123.633H58.1625L58.1556 140.339ZM107.999 121.605C107.999 119.075 107.106 117.143 105.325 115.802C103.537 114.434 100.341 113.004 95.7069 111.519C91.0731 110.007 87.4088 108.515 84.7069 107.051C77.3506 103.063 73.6656 97.7006 73.6656 90.9425C73.6656 87.4294 74.6419 84.3013 76.6012 81.565C78.595 78.7944 81.4275 76.6356 85.1056 75.0887C88.8181 73.5419 92.9775 72.7719 97.5769 72.7719C102.211 72.7719 106.336 73.6175 109.952 75.3156C113.575 76.9794 116.38 79.3444 118.374 82.4106C120.403 85.5137 121.457 89.1534 121.399 92.8606H108.041C108.041 89.8838 107.106 87.5737 105.236 85.9375C103.366 84.2738 100.739 83.4419 97.3569 83.4419C94.0913 83.4419 91.5475 84.1363 89.7394 85.5388C88.8767 86.1557 88.1781 86.9745 87.7047 87.9237C87.2314 88.8728 86.9976 89.9234 87.0238 90.9838C87.0238 93.0944 88.0756 94.8681 90.1862 96.2981C92.3175 97.7212 95.4525 99.0619 99.5775 100.313C107.181 102.603 112.716 105.449 116.188 108.838C119.666 112.234 121.399 116.462 121.399 121.516C121.399 127.146 119.274 131.56 115.033 134.778C110.784 137.961 105.071 139.556 97.8862 139.556C93.2031 139.618 88.5597 138.69 84.26 136.833C80.1694 134.984 77.0344 132.467 74.8688 129.284C72.7306 126.101 71.6581 122.409 71.6581 118.216H85.0644C85.0644 125.386 89.3406 128.975 97.8862 128.975C101.062 128.975 103.544 128.336 105.325 127.05C106.188 126.436 106.884 125.616 107.351 124.666C107.818 123.715 108.041 122.663 107.999 121.605ZM148.768 81.7438L135.891 128.851L125.283 128.109L133.306 79.5437L148.768 81.7438ZM137.534 133.76L134.186 150.404L120.079 146.286L123.317 130.322L137.534 133.76Z" fill="white"/>
</g>
<defs>
<clipPath id="clip0_108_366">
<rect width="220" height="220" fill="white"/>
</clipPath>
</defs>
</svg>
