<svg width="220" height="220" viewBox="0 0 220 220" fill="none" xmlns="http://www.w3.org/2000/svg">
<g clip-path="url(#clip0_108_367)">
<path d="M110 220C170.751 220 220 170.751 220 110C220 49.2487 170.751 0 110 0C49.2487 0 0 49.2487 0 110C0 170.751 49.2487 220 110 220Z" fill="#00B098"/>
<path d="M41.25 85.1881V82.7406H99.1169V85.1881H41.25ZM41.25 78.0725V75.625H99.1169V78.0725H41.25ZM65.6563 151.223V90.0831H67.98V151.223H65.6563ZM72.3937 151.223V90.0831H74.7106V151.223H72.3937ZM177.114 146.217L151.003 118.628L152.639 116.902L178.75 144.485L177.114 146.217ZM113.568 75.625L139.679 103.214L138.043 104.94L111.932 77.3575L113.568 75.625ZM172.349 151.25L146.238 123.661L147.874 121.928L173.986 149.517L172.349 151.25ZM108.811 80.6575L134.922 108.24L133.279 109.973L107.168 82.39L108.811 80.6575ZM146.08 113.438L147.723 111.705L177.114 80.6575L178.75 82.39L149.359 113.438L147.723 115.17L144.602 118.47L142.959 120.202L113.575 151.25L111.939 149.517L141.329 118.47L142.966 116.737L146.08 113.438ZM142.959 106.672L172.356 75.625L173.993 77.3575L144.602 108.405L142.966 110.138L139.844 113.438L138.201 115.17L108.817 146.217L107.174 144.485L136.565 113.438L138.201 111.705L141.329 108.405L142.959 106.672Z" fill="white"/>
</g>
<defs>
<clipPath id="clip0_108_367">
<rect width="220" height="220" fill="white"/>
</clipPath>
</defs>
</svg>
