<svg width="220" height="220" viewBox="0 0 220 220" fill="none" xmlns="http://www.w3.org/2000/svg">
<g clip-path="url(#clip0_108_368)">
<path d="M110 220C170.751 220 220 170.751 220 110C220 49.2487 170.751 0 110 0C49.2487 0 0 49.2487 0 110C0 170.751 49.2487 220 110 220Z" fill="#1C1C1C"/>
<path d="M108.041 92.3535C110.144 93.2129 112.248 92.7797 113.933 92.3535C115.198 96.6435 117.301 100.5 119.398 102.212C118.14 112.937 114.352 116.794 110.144 116.794C104.259 116.794 101.31 104.357 101.31 102.219C102.575 101.36 106.363 98.7816 108.048 92.3535H108.041ZM101.729 130.09C104.259 127.945 105.937 124.515 108.041 118.939C109.725 119.798 112.248 119.365 113.933 118.939C115.198 124.941 116.456 128.805 119.398 130.517C118.559 137.378 114.352 142.094 110.564 142.094C105.098 142.094 102.575 133.521 101.729 130.09ZM68.0763 143.38C69.7607 141.235 69.7607 137.811 68.9219 131.376C70.18 131.802 71.445 131.802 72.2907 131.376C74.8069 137.378 76.9107 141.235 80.2794 143.38C80.6988 146.384 80.2794 149.815 79.0144 150.241C74.3875 152.386 70.18 146.81 68.0832 143.38H68.0763ZM50.4075 131.802C51.2532 131.802 51.6725 131.802 52.5113 132.235C55.4607 139.949 60.5069 144.239 60.5069 144.239C62.1913 147.67 63.03 151.1 61.765 151.1C57.9838 151.527 55.0344 148.955 52.0919 143.38C52.5113 142.094 52.0919 141.235 50.4075 131.802ZM39.05 131.802C43.2575 149.815 51.2532 148.955 50.8338 148.096C49.1494 145.099 47.465 143.813 45.7807 142.527C41.9994 138.664 39.05 130.517 39.05 131.802ZM90.3719 143.38C93.3213 141.235 93.7407 136.519 94.16 130.524C95.8444 130.943 97.9413 130.943 99.2063 130.524C100.052 134.374 101.31 139.949 105.098 142.527C104.679 147.244 103.414 149.815 100.471 150.241C98.3675 151.1 92.4757 151.1 90.3719 143.38ZM54.1957 130.09C55.88 127.945 56.2994 124.515 56.7188 119.798C57.9838 120.225 59.6682 120.225 60.5 119.798C61.765 125.367 63.8688 128.805 66.3988 130.524C67.2375 139.523 66.3988 142.527 64.7144 142.527C60.9332 142.527 55.88 134.373 54.1957 130.083V130.09ZM41.1538 130.09C41.1538 129.231 41.5732 123.655 41.9994 119.798H43.6769C45.7807 127.945 48.73 130.524 48.73 130.524C50.8338 140.382 50.8338 142.953 49.1425 142.094C45.3613 140.808 42.4188 133.521 41.1538 130.09ZM74.8069 130.09C76.9107 128.372 78.1757 125.374 79.0144 119.798C81.1182 120.651 83.2219 120.225 84.4869 119.798C85.745 125.367 87.8556 128.805 90.7981 130.524C90.7981 135.233 90.3719 142.953 84.4869 141.661C79.4338 140.382 75.2332 131.802 74.8069 130.09ZM71.0257 128.805C65.9725 128.805 63.03 120.651 63.03 118.08C65.5532 115.508 66.8113 110.792 68.0763 102.645C68.9219 103.072 70.18 103.072 71.445 102.645C71.8644 111.652 74.3875 115.508 76.4913 117.653C75.6525 124.941 73.5488 128.805 71.0257 128.805ZM44.9419 118.08C45.7807 116.361 45.7807 115.935 48.3107 102.645H50.4075C50.4075 111.652 52.9307 115.935 54.1957 117.653C53.7763 122.37 54.615 128.805 50.8269 128.805C49.1494 128.805 47.0457 126.66 44.9419 118.08ZM36.5269 103.072C37.7919 103.505 36.9463 114.649 38.6307 118.513C38.6307 118.513 38.6307 129.231 37.7919 128.372C31.4807 120.651 35.6882 102.645 36.5269 103.072ZM87.01 118.08C89.9525 115.935 91.6369 111.218 94.16 102.645C95.8444 103.072 97.9413 103.072 99.2063 102.645C100.052 109.073 101.729 113.797 105.098 117.22C104.259 124.082 100.891 128.805 96.6832 128.805C89.9525 128.805 87.4294 119.365 87.01 118.08ZM52.5113 101.36C55.88 100.074 57.9838 92.7797 58.4032 91.9204C58.866 92.3354 59.4658 92.5649 60.0875 92.5649C60.7092 92.5649 61.309 92.3354 61.7719 91.9204C61.7719 97.496 63.4494 100.074 64.7144 100.927C63.4494 108.214 61.765 116.794 57.9769 116.794C54.615 116.794 52.9307 109.073 52.5113 101.36ZM41.9925 117.22C39.05 117.22 38.2113 106.076 39.05 101.36C39.05 101.36 41.5731 97.496 43.2575 91.9204C43.6769 91.9204 44.5225 92.3535 44.9419 91.9204C44.5225 97.496 45.3613 100.074 46.2 101.36C46.2 101.36 44.1032 117.22 41.9994 117.22H41.9925ZM73.9682 101.36C75.6525 100.5 79.0144 95.7841 80.6988 91.4941C82.3832 92.3535 84.0675 92.3535 86.1644 91.9204C87.01 96.6435 88.2682 99.641 91.2175 101.36C89.9525 109.073 87.4294 116.794 81.9638 116.794C76.9107 116.794 74.3875 106.502 73.9682 101.36ZM77.7494 89.7822C75.2332 96.6435 72.7032 100.5 69.3413 100.5C65.1338 100.5 64.7144 91.4941 64.7144 90.6347C68.0832 88.0635 70.5994 82.921 72.7032 78.631H75.6525C74.8069 85.0591 76.4913 88.0635 77.7563 89.7822H77.7494ZM57.1382 79.0572C55.0344 85.0591 55.88 88.0635 56.7257 90.2085C53.3569 98.7816 51.6725 100.933 49.1494 100.933C46.6263 100.5 46.6263 95.351 47.465 91.0679C49.9881 89.3491 55.4607 79.4904 55.4607 79.0572H57.1382ZM44.9419 79.4904C46.2 79.0572 41.5732 85.4922 41.9994 88.4966C42.4119 92.7797 37.3657 100.074 36.9463 99.641C35.2688 99.2147 38.6307 83.7735 44.9419 79.4904ZM104.679 89.7822C103.414 94.4985 101.729 100.5 94.5794 100.5C90.7982 100.074 88.6944 94.9316 87.8488 90.6347C92.0563 87.6372 94.16 82.4879 95.425 78.631C96.6832 79.0572 98.7938 79.0572 100.052 78.631C100.891 85.0591 102.994 88.0635 104.679 89.7822ZM47.465 78.1979C48.3038 77.7716 53.7763 70.4841 56.7188 70.4841C58.4032 70.9104 53.7763 75.2004 54.1957 77.3454C52.9307 79.4904 47.0457 90.2016 44.9419 90.2016C43.2575 90.2016 43.2575 84.6329 47.465 78.1979ZM150.954 131.376C150.528 137.804 150.528 141.235 151.793 143.38C150.109 146.817 145.482 151.96 140.862 150.241C139.171 149.815 139.171 146.384 139.59 143.38C143.378 141.235 145.901 136.952 147.586 131.376C148.424 131.802 149.689 131.802 150.954 131.376ZM167.778 131.376C168.197 131.802 169.043 131.802 169.881 130.943C168.197 140.382 167.778 141.235 168.197 142.527C165.254 148.096 162.312 150.241 158.524 150.241C156.839 150.241 157.685 147.243 159.789 143.38C159.789 143.38 164.835 139.097 167.778 131.376ZM174.515 142.527C172.824 144.239 171.146 145.099 169.881 148.096C169.462 148.955 177.458 149.815 181.658 131.802C180.819 130.517 178.289 138.664 174.508 142.527H174.515ZM126.129 131.376C126.129 136.518 127.394 141.235 129.917 144.239C127.813 151.527 121.928 151.527 119.824 151.1C116.875 150.241 116.036 147.67 115.198 143.38C118.559 140.382 120.244 135.233 121.083 131.376C122.767 131.802 124.451 131.802 126.129 131.376ZM163.989 119.365C163.989 124.515 164.416 127.945 166.519 129.657C164.835 133.947 159.369 142.101 156.001 142.101C154.316 142.101 153.478 139.097 154.316 130.09C156.839 128.372 158.943 124.082 160.208 119.365C160.786 119.689 161.437 119.86 162.099 119.86C162.761 119.86 163.412 119.689 163.989 119.365ZM179.135 120.225C179.135 123.662 179.135 129.231 179.981 130.517C178.296 133.954 175.354 141.242 171.985 142.527C169.881 142.954 170.301 140.382 172.404 130.943C172.404 130.943 175.354 127.945 177.458 120.225H179.135ZM141.694 119.365C142.539 125.374 143.378 128.372 145.901 129.657C145.489 131.802 140.855 140.382 136.228 141.235C130.336 142.527 129.917 134.374 129.917 130.09C132.859 128.372 134.963 124.515 136.228 119.365C137.493 119.798 139.597 120.225 141.694 119.365ZM157.685 118.08C157.259 120.651 153.897 128.805 149.689 128.805C147.166 128.805 145.063 124.515 144.224 117.653C146.328 115.935 148.851 111.652 149.27 102.645C150.352 103.075 151.557 103.075 152.639 102.645C154.316 110.366 155.581 115.508 157.685 118.08ZM172.404 102.645C174.508 115.935 174.928 116.368 175.773 118.08C173.669 126.227 171.566 128.805 169.881 128.805C166.1 128.805 166.939 121.944 166.513 117.653C168.197 115.935 170.301 111.652 170.301 102.645C171.146 103.072 171.566 102.645 172.404 102.645ZM181.239 118.08C183.343 114.649 182.504 103.505 183.343 102.645C184.608 102.212 188.389 121.084 182.084 127.945C181.239 128.805 181.239 118.08 181.239 118.08ZM127.394 102.645C128.659 111.218 130.763 115.935 134.544 118.08C134.124 119.365 130.763 128.805 124.871 128.805C120.244 129.231 117.721 123.655 116.456 117.22C119.398 113.797 121.502 109.073 122.348 102.645C123.186 103.072 125.29 103.072 127.394 102.645ZM162.312 91.9204C162.312 92.7797 164.835 100.074 167.778 102.212C167.778 109.5 165.674 117.653 162.312 117.653C158.524 117.653 156.839 109.507 155.574 101.786C156.839 100.5 158.524 97.496 158.524 92.3535C159.141 92.5991 159.809 92.6881 160.469 92.6125C161.129 92.5369 161.76 92.2991 162.305 91.9204H162.312ZM181.239 101.36C181.658 106.076 180.819 117.22 178.716 116.794C176.612 116.794 174.508 100.927 174.508 100.927C175.354 99.641 176.193 96.6435 175.773 91.9204C176.004 92.1286 176.304 92.2438 176.615 92.2438C176.926 92.2438 177.226 92.1286 177.458 91.9204C179.135 97.496 181.239 101.36 181.239 101.36ZM140.016 91.9204C141.694 95.7841 144.643 100.5 147.166 101.786C146.747 106.935 143.798 117.22 139.171 117.22C132.859 117.653 131.182 109.933 129.917 101.786C132.44 100.067 134.124 96.6435 134.544 92.3535C136.228 92.7797 138.325 92.7797 140.016 91.9204ZM150.535 100.074C147.586 100.5 145.063 96.6366 142.12 89.7822C143.798 88.0635 145.063 84.6329 144.224 78.631C145.482 79.0572 146.328 79.0572 147.166 78.631C149.689 83.3472 152.213 88.0635 155.155 90.2085C155.155 91.4941 154.743 100.074 150.528 100.074H150.535ZM163.989 89.7822C164.416 88.0635 165.254 85.0591 162.731 78.631H164.416C164.416 79.0572 170.301 89.356 172.404 90.6347C173.25 95.351 173.25 100.074 170.72 100.5C168.623 100.5 166.939 98.3554 163.989 89.7754V89.7822ZM178.289 88.4897C178.716 85.4922 174.508 79.0572 174.928 79.4835C181.665 83.7735 184.188 99.2147 182.923 99.641C182.504 100.074 177.877 92.3535 178.296 88.4897H178.289ZM124.871 100.074C118.559 100.5 116.875 94.4985 115.617 89.7822C117.721 88.4897 119.824 84.6329 120.244 78.631C121.502 79.0572 123.613 79.0572 124.871 78.631C126.129 82.4879 128.239 87.6372 131.601 90.2085C131.182 95.351 129.078 99.641 124.864 100.074H124.871ZM163.989 70.4841C166.093 70.4841 172.404 77.7716 172.824 78.1979C177.458 85.0591 177.458 90.2085 175.773 90.2085C173.25 90.2085 167.778 79.4835 166.519 77.3454C166.932 75.2004 162.312 70.4841 163.989 70.4841ZM70.5994 71.7697C69.7607 74.341 69.3413 76.9122 70.5994 78.1979C68.0763 83.3472 63.8688 90.6416 60.0807 90.2085C55.88 89.3491 59.2419 79.4835 59.6682 78.631C62.1913 77.3454 68.0763 69.1985 70.1869 69.1985C71.445 69.6247 70.5994 71.7697 70.5994 71.7697ZM90.3719 71.3435C90.3719 73.9147 90.7982 76.9122 92.895 78.1979C91.2175 83.3472 87.8488 90.2085 82.3763 89.7822C78.595 89.3491 77.7563 82.921 78.595 78.1979C82.3763 76.9122 85.745 68.7654 88.2682 68.7654C90.3719 68.7654 90.3719 70.9104 90.3719 71.3435ZM150.116 78.1979C150.954 76.9122 150.954 74.3479 150.116 71.7697C150.116 71.3435 149.27 69.1985 150.528 69.1985C152.632 69.1985 158.524 77.3454 161.047 78.631C161.466 79.4904 164.828 89.356 160.628 90.2085C156.42 90.6347 152.632 82.921 150.109 78.1979H150.116ZM127.813 78.1979C129.498 76.9122 129.917 73.9147 130.336 71.3435C130.336 70.9104 130.336 68.7654 132.44 68.7654C134.544 68.3391 138.751 76.9122 142.12 78.1979C143.378 83.7735 142.533 89.3491 138.332 89.7822C132.44 90.6347 129.498 82.921 127.813 78.1979ZM110.144 68.7654C114.352 68.7654 114.352 76.9122 117.721 78.631C117.721 80.776 116.456 90.2085 109.725 90.2085C103.833 90.2085 102.575 82.4879 102.156 78.631C107.202 76.486 105.524 68.7654 110.144 68.7654Z" fill="white"/>
</g>
<defs>
<clipPath id="clip0_108_368">
<rect width="220" height="220" fill="white"/>
</clipPath>
</defs>
</svg>
