<svg width="220" height="220" viewBox="0 0 220 220" fill="none" xmlns="http://www.w3.org/2000/svg">
<g clip-path="url(#clip0_108_369)">
<path d="M110 220C170.751 220 220 170.751 220 110C220 49.2487 170.751 0 110 0C49.2487 0 0 49.2487 0 110C0 170.751 49.2487 220 110 220Z" fill="#F2941B"/>
<path d="M113.891 34.375H113.967C128.212 48.4688 142.299 62.7 156.461 76.8694H191.799L112.255 189.571C110.935 176.337 109.917 163.103 108.749 149.875C120.271 133.299 132.103 116.875 143.626 100.375L117.315 74.1469C117.291 71.0448 117.032 67.9489 116.538 64.8862C115.679 54.7662 115.136 44.495 113.891 34.375ZM27.5756 147.537C54.2712 110.027 80.7331 72.3594 107.353 34.7669L110.701 74.6144C99.1031 91.19 87.4294 107.539 75.8312 124.039C84.4731 132.674 93.1081 141.467 101.908 150.109C103.077 163.336 104.088 176.729 105.414 190.039H105.249L62.9887 147.696C51.1637 147.854 39.3319 147.62 27.5 147.854V147.537H27.5756Z" fill="white"/>
</g>
<defs>
<clipPath id="clip0_108_369">
<rect width="220" height="220" fill="white"/>
</clipPath>
</defs>
</svg>
