<svg width="220" height="220" viewBox="0 0 220 220" fill="none" xmlns="http://www.w3.org/2000/svg">
<g clip-path="url(#clip0_108_370)">
<path d="M110 220C170.751 220 220 170.751 220 110C220 49.2487 170.751 0 110 0C49.2487 0 0 49.2487 0 110C0 170.751 49.2487 220 110 220Z" fill="#01AEF0"/>
<path fill-rule="evenodd" clip-rule="evenodd" d="M144.849 129.868C144.76 144.126 136.524 156.268 123.386 161.252C120.306 162.421 117.102 163.28 113.912 164.078C112.007 164.559 110.969 165.501 110.818 167.584C110.626 170.21 110.357 172.829 109.993 175.421C109.553 178.488 108.501 179.189 105.682 178.515C100.829 177.36 100.306 176.576 100.952 171.482C101.007 171.049 101.069 170.616 101.117 170.176C101.599 166.003 101.007 165.404 97.0131 165.604C95.2187 165.693 94.4693 166.58 94.2974 168.34C94.0637 170.87 93.8162 173.407 93.4037 175.903C92.9912 178.46 91.9187 179.093 89.4574 178.556C84.2049 177.422 83.8199 176.838 84.5074 171.283C85.3737 164.387 85.3531 164.463 78.9868 162.544C76.1681 161.692 73.4318 160.509 70.6749 159.416C68.9974 158.756 68.4474 157.505 68.9012 155.642C69.4787 153.27 69.8774 150.843 70.3724 148.444C71.2249 144.353 73.2049 143.116 76.9862 144.601C83.6824 147.234 90.5574 148.856 97.7143 149.028C104.17 149.186 110.557 148.76 116.449 145.591C120.34 143.494 123.2 140.421 124.637 136.014C126.768 129.469 124.857 124.175 118.724 121.542C113.671 119.376 108.247 118.173 103.152 116.097C98.6287 114.254 93.9262 112.412 90.0212 109.518C81.2418 103.028 79.7087 93.4301 81.6337 83.1795C83.8199 71.6226 90.8943 64.1289 101.392 60.1482C104.191 59.0964 105.456 57.6251 105.504 54.4832C105.545 51.0801 106.088 47.677 106.501 44.2876C106.817 41.682 107.834 40.9532 110.268 41.352C115.438 42.1976 116.057 43.0157 115.548 48.3851C115.349 50.482 115.177 52.5789 114.929 54.662C114.723 56.4151 115.28 57.2195 117.116 57.2745C121.302 57.3982 121.481 57.3226 121.976 52.9914C122.292 50.207 122.526 47.4157 122.904 44.6382C123.317 41.5582 124.314 40.857 127.153 41.4345C131.931 42.4176 132.461 43.1464 131.993 48.1239C131.787 50.3032 131.684 52.5032 131.306 54.6551C130.872 57.1301 131.629 58.2782 134.09 58.8489C138.772 59.9351 143.406 61.3101 148.005 62.7401C151.463 63.8126 151.601 64.2045 150.934 67.8001C150.542 69.952 150.15 72.1107 149.641 74.2351C148.692 78.2364 146.699 79.4257 142.89 78.147C136.372 75.947 129.827 73.9601 122.918 73.6645C116.868 73.4101 110.901 73.4995 105.648 77.3014C98.2506 82.6501 98.2093 93.5264 106.074 98.1051C111.079 101.02 116.861 102.505 122.286 104.65C125.592 105.956 128.989 107.084 132.165 108.665C140.676 112.914 144.946 120.016 144.849 129.874" fill="white"/>
</g>
<defs>
<clipPath id="clip0_108_370">
<rect width="220" height="220" fill="white"/>
</clipPath>
</defs>
</svg>
