<svg width="220" height="220" viewBox="0 0 220 220" fill="none" xmlns="http://www.w3.org/2000/svg">
<g clip-path="url(#clip0_108_372)">
<path d="M110 220C170.751 220 220 170.751 220 110C220 49.2487 170.751 0 110 0C49.2487 0 0 49.2487 0 110C0 170.751 49.2487 220 110 220Z" fill="#2683FF"/>
<path d="M171.717 130.426C174.602 132.156 176.699 134.943 177.562 138.194C178.426 141.446 177.989 144.906 176.344 147.84C172.81 154.041 164.78 156.241 158.462 152.776C157.843 152.439 157.307 152.041 156.757 151.642L122.891 170.782C122.973 171.401 123.021 172.026 123.028 172.652C123.028 173.388 123.028 174.054 122.891 174.783C121.736 181.796 115.005 186.594 107.862 185.46C100.726 184.326 95.8307 177.719 96.9857 170.72L62.9063 151.443C62.3786 151.821 61.835 152.176 61.2769 152.508C60.7269 152.776 60.1838 153.106 59.5719 153.306C56.3592 154.593 52.7693 154.566 49.576 153.231C46.3827 151.897 43.8419 149.36 42.5013 146.169C39.7857 139.569 43.0513 132.096 49.7819 129.429V90.8738C49.1639 90.6746 48.5711 90.4047 48.0151 90.0694C47.5051 89.7529 47.0053 89.4204 46.5163 89.0725C44.6635 87.7263 43.2063 85.9072 42.2968 83.8053C41.3874 81.7034 41.0591 79.3959 41.3463 77.1238C41.6506 74.8463 42.5563 72.691 43.97 70.8797C45.3838 69.0683 47.2546 67.6664 49.3901 66.8181C51.5404 65.9512 53.8793 65.6589 56.1768 65.9699C58.4743 66.2808 60.6514 67.1845 62.4938 68.5919L96.9101 49.0462C96.8413 48.4481 96.7726 47.9188 96.7726 47.3138C96.7726 40.2463 102.823 34.375 110.034 34.375C117.239 34.375 123.152 40.1088 123.159 47.245C123.159 47.85 123.09 48.3794 123.021 48.9844L157.706 68.6606C159.213 67.5561 160.936 66.7813 162.763 66.3868C164.589 65.9922 166.479 65.9868 168.307 66.3707C170.136 66.7546 171.864 67.5194 173.377 68.6151C174.891 69.7109 176.157 71.1132 177.093 72.7306C180.62 78.9319 178.31 86.8037 171.985 90.2756C171.373 90.5369 170.761 90.8738 170.149 91.0731V129.697C170.693 129.903 171.215 130.144 171.71 130.426H171.717ZM174.103 146.568C174.774 145.459 175.218 144.228 175.407 142.945C175.596 141.663 175.526 140.355 175.203 139.1C174.879 137.844 174.308 136.666 173.523 135.635C172.738 134.603 171.755 133.739 170.631 133.093C168.779 132.026 166.636 131.574 164.511 131.802C162.386 132.031 160.388 132.928 158.806 134.365L143.227 125.496C145.091 121.73 145.512 117.411 144.41 113.355C143.308 109.3 140.76 105.788 137.246 103.483C136.808 102.011 136.237 100.582 135.541 99.2131L159.074 86.1369C161.521 88.4056 164.966 89.3338 168.252 88.6119C169.532 88.3356 170.744 87.8077 171.819 87.059C172.893 86.3102 173.808 85.3555 174.51 84.2502C175.213 83.145 175.688 81.9112 175.91 80.6205C176.131 79.3299 176.094 78.0081 175.801 76.7319C174.577 71.3969 169.132 68.1312 163.701 69.3275C162.421 69.6031 161.208 70.1301 160.134 70.8781C159.059 71.6261 158.144 72.58 157.441 73.6846C156.738 74.7892 156.261 76.0224 156.039 77.3126C155.817 78.6029 155.853 79.9244 156.145 81.2006L132.344 94.4762C127.724 89.0725 113.032 85.47 113.032 85.47V56.0519C114.502 55.6293 115.843 54.8475 116.936 53.7769C118.028 52.7063 118.836 51.3806 119.288 49.9194C119.643 48.7549 119.761 47.5315 119.638 46.3206C119.514 45.1097 119.15 43.9355 118.568 42.8667C117.985 41.7979 117.196 40.8558 116.245 40.0954C115.295 39.3351 114.203 38.7717 113.032 38.4381C108.068 36.9738 102.829 39.6412 101.331 44.5156C100.977 45.6797 100.859 46.9024 100.984 48.1125C101.108 49.3227 101.472 50.496 102.054 51.564C102.636 52.632 103.426 53.5734 104.375 54.3333C105.325 55.0932 106.417 55.6564 107.587 55.99V86.0063C107.587 86.0063 99.5707 88.605 96.4426 91.135C93.1198 91.2114 89.8601 92.0587 86.9207 93.61L64.5426 81.0013C64.9196 79.4259 64.893 77.7809 64.4652 76.2186C64.0373 74.6563 63.2221 73.2272 62.0951 72.0638C60.2727 70.1423 57.7668 69.0159 55.1201 68.9284C52.4733 68.8409 49.8985 69.7993 47.9532 71.5962C46.9898 72.4702 46.2115 73.5284 45.6643 74.7083C45.117 75.8882 44.8119 77.1659 44.7671 78.4658C44.7222 79.7657 44.9385 81.0614 45.4031 82.2763C45.8676 83.4911 46.5711 84.6005 47.4719 85.5388C49.2955 87.4607 51.8025 88.5872 54.4504 88.6747C57.0983 88.7622 59.6742 87.8036 61.6207 86.0063L81.8194 97.3431C78.2766 100.789 76.0933 105.395 75.6691 110.319C75.2449 115.243 76.6082 120.155 79.5094 124.156L61.7582 134.228C60.5278 133.106 59.0428 132.302 57.4316 131.884C55.8204 131.466 54.1316 131.447 52.5113 131.828C51.2318 132.113 50.0218 132.65 48.9513 133.406C47.8808 134.163 46.9712 135.125 46.2754 136.236C45.5795 137.347 45.1112 138.585 44.8977 139.878C44.6841 141.171 44.7295 142.494 45.0313 143.77C46.3307 149.091 51.7757 152.371 57.2001 151.099C58.4788 150.813 59.6882 150.277 60.7582 149.521C61.8281 148.765 62.7373 147.804 63.4331 146.694C64.1289 145.584 64.5974 144.346 64.8114 143.054C65.0255 141.761 64.9808 140.439 64.6801 139.164L83.6551 128.425C88.5363 132.296 94.9094 133.836 101.063 132.626C102.96 133.492 104.913 134.228 106.906 134.826V162.848C105.558 163.266 104.306 163.946 103.221 164.85C102.137 165.754 101.242 166.863 100.588 168.114C99.9701 169.331 99.6012 170.658 99.5032 172.019C99.4052 173.38 99.58 174.747 100.017 176.039C100.455 177.331 101.146 178.523 102.05 179.545C102.955 180.567 104.054 181.397 105.284 181.988C105.696 182.194 106.102 182.387 106.576 182.524C106.645 182.524 106.714 182.593 106.783 182.593C112.351 184.257 118.278 181.253 119.976 175.787C120.382 174.481 120.524 173.108 120.394 171.746C120.264 170.385 119.864 169.063 119.218 167.858C118.571 166.653 117.692 165.589 116.63 164.728C115.567 163.866 114.344 163.225 113.032 162.841V135.369C113.032 135.369 118.133 134.901 120.512 134.166C127.146 136.778 134.736 135.231 139.762 130.233L155.671 139.377C155.182 141.434 155.376 143.594 156.223 145.531C157.07 147.469 158.524 149.078 160.366 150.116C162.667 151.426 165.388 151.789 167.952 151.128C170.516 150.467 172.722 148.834 174.103 146.575V146.568ZM54.8901 137.232C56.4026 137.239 57.7913 138.023 58.5613 139.294C58.9083 139.932 59.0947 140.645 59.1044 141.371C59.0917 142.477 58.641 143.533 57.8511 144.307C57.0611 145.082 55.9963 145.512 54.8901 145.503C53.7826 145.514 52.7161 145.085 51.9246 144.31C51.1332 143.535 50.6815 142.478 50.6688 141.371C50.6688 139.081 52.5594 137.232 54.8901 137.232ZM114.462 47.2519C114.444 48.3576 113.99 49.4115 113.2 50.1851C112.41 50.9586 111.347 51.3893 110.241 51.3838C109.134 51.3929 108.07 50.9632 107.28 50.1887C106.49 49.4142 106.039 48.3581 106.026 47.2519C106.026 44.9625 107.917 43.1131 110.241 43.1131C112.578 43.1131 114.462 44.9694 114.462 47.2519ZM165.873 83.1394C164.769 83.1378 163.709 82.7036 162.922 81.9299C162.134 81.1562 161.68 80.1046 161.659 79.0006C161.659 76.7181 163.549 74.8619 165.873 74.8619C168.211 74.8619 170.094 76.7181 170.094 79.0006C170.082 80.1081 169.63 81.1652 168.839 81.9399C168.047 82.7146 166.981 83.1435 165.873 83.1325V83.1394ZM56.8563 75.1919C57.3342 75.4497 57.7553 75.8012 58.0944 76.2253C58.4335 76.6495 58.6837 77.1376 58.83 77.6606C58.9763 78.1835 59.0157 78.7306 58.9459 79.2691C58.8761 79.8077 58.6986 80.3266 58.4238 80.795C57.8674 81.7537 56.9542 82.4531 55.8836 82.7404C54.813 83.0277 53.6723 82.8795 52.7107 82.3281C52.2314 82.0717 51.8089 81.721 51.4687 81.297C51.1285 80.873 50.8776 80.3846 50.7312 79.8611C50.5847 79.3376 50.5457 78.7899 50.6165 78.2509C50.6874 77.712 50.8665 77.1929 51.1432 76.725C51.6996 75.7663 52.6129 75.0669 53.6834 74.7796C54.754 74.4923 55.8947 74.6405 56.8563 75.1919ZM167.571 138.029C168.048 138.287 168.469 138.638 168.807 139.062C169.146 139.486 169.395 139.973 169.542 140.495C169.688 141.017 169.728 141.564 169.658 142.101C169.589 142.639 169.412 143.158 169.139 143.626C168.749 144.252 168.207 144.769 167.565 145.131C166.922 145.493 166.198 145.687 165.461 145.695C164.719 145.708 163.986 145.525 163.337 145.165C162.688 144.806 162.145 144.282 161.762 143.646C161.385 143.015 161.186 142.294 161.186 141.56C161.186 140.825 161.385 140.104 161.762 139.473C162.145 138.838 162.688 138.314 163.337 137.954C163.986 137.595 164.719 137.412 165.461 137.424C166.203 137.448 166.927 137.654 167.571 138.023V138.029ZM106.026 172.508C106.033 172.455 106.057 172.407 106.095 172.37C106.281 171.289 106.883 170.325 107.773 169.685C108.663 169.044 109.769 168.779 110.853 168.946C111.936 169.092 112.918 169.661 113.582 170.53C114.246 171.399 114.538 172.496 114.393 173.58C114.189 174.582 113.644 175.482 112.85 176.126C112.057 176.771 111.064 177.12 110.041 177.114C109.47 177.089 108.91 176.949 108.395 176.701C107.88 176.453 107.421 176.103 107.045 175.672C106.67 175.242 106.386 174.739 106.21 174.195C106.035 173.651 105.973 173.077 106.026 172.508ZM130.24 108.673C132.262 109.295 134.03 110.553 135.28 112.26C136.529 113.967 137.195 116.031 137.177 118.147C137.177 118.484 137.108 118.821 137.108 119.151C137.039 119.419 137.039 119.687 136.971 119.948V120.154C136.833 120.753 136.696 121.351 136.421 121.949C135.666 123.787 134.363 125.348 132.688 126.418C132.275 126.624 131.931 126.823 131.533 127.023L131.326 127.091C130.529 127.461 129.681 127.709 128.81 127.827L128.466 127.889C127.992 127.889 127.586 127.958 127.112 127.958C124.891 127.958 122.739 127.229 120.993 125.888L119.151 126.686C118.587 126.961 117.996 127.16 117.384 127.291H117.315C113.107 128.417 108.632 127.965 104.734 126.019H104.665C104.259 125.819 103.854 125.62 103.51 125.421L103.373 125.352C102.967 125.091 102.63 124.823 102.218 124.554C100.569 125.277 98.7855 125.64 96.9857 125.62C96.4357 125.62 95.9613 125.62 95.4869 125.551L95.2119 125.483L93.9882 125.29L93.8507 125.221C93.4146 125.14 92.9849 125.028 92.5651 124.884C91.4685 124.521 90.4186 124.029 89.4369 123.42C87.3887 122.153 85.7748 120.292 84.8101 118.085C84.8101 117.948 84.7413 117.879 84.6726 117.748C84.5927 117.521 84.5009 117.299 84.3976 117.081C84.3165 116.931 84.2476 116.775 84.1913 116.614C84.1226 116.414 83.9919 116.215 83.9919 116.016C83.9785 115.81 83.9321 115.608 83.8544 115.418C83.7857 115.211 83.7857 115.143 83.7169 114.881C83.6482 114.613 83.6482 114.352 83.5863 114.084C83.5863 113.878 83.5176 113.747 83.5176 113.616C83.4605 113.195 83.4375 112.769 83.4488 112.344C83.4408 111.832 83.4638 111.32 83.5176 110.811C83.5176 110.612 83.5863 110.481 83.5863 110.344C83.6551 109.945 83.7238 109.615 83.7926 109.278C83.8613 109.141 83.8613 108.948 83.9301 108.811C84.0114 108.446 84.1241 108.09 84.2669 107.745C84.3357 107.608 84.3357 107.546 84.4044 107.415C84.5544 107.001 84.7359 106.598 84.9476 106.212L85.0163 106.074C86.1328 104.028 87.757 102.303 89.7327 101.065C91.7085 99.8271 93.9694 99.1184 96.2982 99.0069C96.5044 98.9381 96.7107 98.9381 96.9857 98.9381C97.8038 98.9381 98.6219 99.0069 99.4332 99.1444C99.7769 98.7319 100.114 98.4019 100.519 98.0031L100.863 97.6731C101.269 97.3363 101.606 97.0063 102.018 96.7381L102.224 96.6006C102.493 96.4013 102.967 96.0713 103.173 95.9338C103.379 95.8031 103.716 95.535 103.923 95.4663C104.162 95.3835 104.39 95.2727 104.603 95.1363C105.009 94.93 105.689 94.6 106.095 94.4694L106.439 94.2013C109.162 93.1431 112.111 92.7999 115.005 93.2044H115.074C115.624 93.2594 116.167 93.3419 116.703 93.4656H116.772C117.322 93.5344 117.796 93.7406 118.339 93.8713L118.408 93.94C118.951 94.1325 119.426 94.3319 119.9 94.5381L120.038 94.6069C120.505 94.7994 120.959 95.0194 121.399 95.2669L121.468 95.3356C121.873 95.5419 122.348 95.8719 122.76 96.1331L122.829 96.2019C123.303 96.47 123.709 96.8 124.114 97.1369L124.183 97.2056C126.457 99.1169 128.212 101.572 129.284 104.342V104.411C129.422 104.809 129.559 105.277 129.697 105.676C129.697 105.813 129.766 105.944 129.766 106.074C129.876 106.418 129.972 106.783 130.034 107.14L130.24 108.673Z" fill="white"/>
</g>
<defs>
<clipPath id="clip0_108_372">
<rect width="220" height="220" fill="white"/>
</clipPath>
</defs>
</svg>
