<svg width="220" height="220" viewBox="0 0 220 220" fill="none" xmlns="http://www.w3.org/2000/svg">
<g clip-path="url(#clip0_108_374)">
<path d="M110 220C170.751 220 220 170.751 220 110C220 49.2487 170.751 0 110 0C49.2487 0 0 49.2487 0 110C0 170.751 49.2487 220 110 220Z" fill="#2DC4E7"/>
<path d="M35.4404 62.1206C42.8036 62.1206 50.4142 61.6256 57.7842 62.2856C61.0567 65.9637 61.7923 71.12 64.3292 75.3756C97.3979 75.5406 130.625 75.3756 163.694 75.3756C166.148 75.5406 169.173 75.6231 170.404 78.0775C171.875 80.7793 170.816 83.9693 169.42 86.4237C162.71 97.8018 156.324 109.345 149.779 120.799C147.324 124.896 145.681 129.475 142.003 132.672C138.978 135.209 134.798 135.367 130.955 135.367H85.1123C82.6579 135.367 80.0386 135.126 78.5673 133.16C73.8236 127.839 71.2798 121.046 68.1723 114.824C62.7908 104.05 57.5243 93.2193 52.3736 82.3331C51.3079 79.8787 50.0017 77.6718 48.771 75.3756C44.4398 75.3756 40.0948 75.3756 35.8461 75.2106C35.0211 70.8793 35.021 66.4587 35.4335 62.1206H35.4404ZM87.0854 144.208C90.4158 143.417 93.8786 143.36 97.2329 144.043C100.994 144.868 104.273 147.728 105.174 151.496C106.15 155.827 106.15 160.502 104.431 164.668C102.795 168.436 98.7042 170.237 94.8611 170.567C90.4404 170.89 85.3667 170.567 82.0873 167.287C78.5742 163.362 78.5742 157.635 79.3098 152.719C79.7979 148.629 83.0704 145.109 87.0786 144.208H87.0854ZM128.005 144.208C132.096 143.314 136.517 143.39 140.449 144.861C144.21 146.422 146.176 150.512 146.499 154.356C146.994 158.859 146.499 164.015 143.227 167.452C140.202 170.319 135.781 170.725 131.773 170.642C127.84 170.484 123.592 169.006 121.543 165.328C119.591 161.339 119.069 156.8 120.065 152.472C120.89 148.464 123.997 145.116 128.005 144.208Z" fill="white"/>
</g>
<defs>
<clipPath id="clip0_108_374">
<rect width="220" height="220" fill="white"/>
</clipPath>
</defs>
</svg>
