<svg width="220" height="220" viewBox="0 0 220 220" fill="none" xmlns="http://www.w3.org/2000/svg">
<g clip-path="url(#clip0_108_375)">
<path d="M110 220C170.751 220 220 170.751 220 110C220 49.2487 170.751 0 110 0C49.2487 0 0 49.2487 0 110C0 170.751 49.2487 220 110 220Z" fill="#1387C9"/>
<path d="M110.364 126.316L176.323 87.9263L110.364 48.8488L45.0657 87.9263L110.364 126.316ZM41.5732 106.241C41.5718 107.154 41.8098 108.052 42.2633 108.845C42.7169 109.637 43.3702 110.297 44.1582 110.758L110.344 149.313L177.616 109.521C178.388 109.074 179.265 108.838 180.157 108.838C181.049 108.838 181.926 109.072 182.699 109.518C183.472 109.964 184.114 110.606 184.56 111.379C185.006 112.152 185.24 113.028 185.24 113.921V131.974C185.24 132.857 185.011 133.724 184.576 134.491C184.141 135.259 183.515 135.9 182.758 136.354L112.929 178.037C112.154 178.5 111.27 178.746 110.367 178.75C109.465 178.753 108.578 178.514 107.8 178.058L36.1626 135.941C35.337 135.453 34.7376 134.658 34.4943 133.73C34.2511 132.802 34.3836 131.815 34.8632 130.984C35.0988 130.574 35.4135 130.213 35.7892 129.925C36.1649 129.637 36.594 129.426 37.0518 129.304C37.5096 129.183 37.987 129.153 38.4562 129.217C38.9255 129.282 39.3774 129.438 39.7857 129.678L110.344 171.155L178.042 130.744V117.681L112.915 156.202C112.144 156.66 111.264 156.903 110.367 156.907C109.47 156.91 108.589 156.674 107.814 156.223L40.5557 117.035C38.6715 115.934 37.1092 114.357 36.0246 112.463C34.9401 110.569 34.3713 108.424 34.3751 106.241V89.2394C34.3728 88.4765 34.5719 87.7266 34.952 87.0651C35.3322 86.4037 35.8801 85.8542 36.5404 85.4721C37.2007 85.09 37.9501 84.8888 38.713 84.8888C39.4759 84.8887 40.2253 85.0899 40.8857 85.4719L45.0657 87.9263L39.8132 91.0682C39.3108 91.3718 38.7416 91.5473 38.1555 91.5792C37.5695 91.6112 36.9845 91.4986 36.4522 91.2515C35.9198 91.0043 35.4563 90.6301 35.1025 90.1618C34.7487 89.6934 34.5154 89.1453 34.4232 88.5657C34.3013 87.8438 34.4002 87.1018 34.7068 86.437C35.0135 85.7722 35.5137 85.2154 36.1419 84.8394L107.773 41.9669C108.551 41.4998 109.441 41.252 110.349 41.2495C111.257 41.2471 112.148 41.4903 112.929 41.9532L183.129 83.547C183.893 84.0023 184.525 84.6488 184.962 85.4227C185.4 86.1966 185.628 87.0711 185.625 87.9602C185.621 88.8492 185.386 89.722 184.943 90.4925C184.499 91.2629 183.862 91.9045 183.095 92.3538L112.888 133.219C112.115 133.67 111.237 133.907 110.343 133.906C109.449 133.904 108.571 133.665 107.8 133.212L37.2626 91.7351C37.6356 91.9544 38.0536 92.086 38.485 92.1199C38.9163 92.1539 39.3498 92.0892 39.7525 91.9309C40.1552 91.7726 40.5167 91.5248 40.8095 91.2062C41.1023 90.8876 41.3187 90.5066 41.4426 90.0919C41.5306 89.8162 41.5769 89.5289 41.5801 89.2394V106.248L41.5732 106.241Z" fill="white"/>
</g>
<defs>
<clipPath id="clip0_108_375">
<rect width="220" height="220" fill="white"/>
</clipPath>
</defs>
</svg>
