<svg width="220" height="220" viewBox="0 0 220 220" fill="none" xmlns="http://www.w3.org/2000/svg">
<g clip-path="url(#clip0_108_376)">
<path d="M110 220C170.751 220 220 170.751 220 110C220 49.2487 170.751 0 110 0C49.2487 0 0 49.2487 0 110C0 170.751 49.2487 220 110 220Z" fill="#7324F0"/>
<path d="M190.266 92.5512V89.375C185.057 89.3853 180.045 91.3632 176.233 94.9125C172.421 98.4619 170.091 103.32 169.709 108.515C169.341 103.328 167.025 98.4714 163.225 94.9212C159.425 91.3711 154.422 89.3897 149.222 89.375V92.5512C153.85 92.5512 158.288 94.3896 161.56 97.6619C164.832 100.934 166.671 105.372 166.671 110C166.677 112.293 166.23 114.565 165.355 116.685C164.481 118.805 163.196 120.731 161.574 122.352C159.953 123.974 158.027 125.259 155.907 126.133C153.787 127.008 151.515 127.455 149.222 127.449V130.625C154.43 130.615 159.443 128.637 163.255 125.087C167.067 121.538 169.397 116.68 169.778 111.485C170.149 116.684 172.475 121.549 176.29 125.1C180.104 128.652 185.123 130.626 190.334 130.625V127.449C185.708 127.447 181.271 125.608 178.001 122.336C174.73 119.064 172.893 114.627 172.893 110C172.885 107.713 173.329 105.447 174.199 103.332C175.068 101.216 176.347 99.2932 177.96 97.6725C179.574 96.0518 181.491 94.7652 183.603 93.8864C185.714 93.0077 187.979 92.5539 190.266 92.5512ZM80.0456 130.625V128.26L79.9769 110H76.9312V130.625H80.0456ZM121.296 89.375C109.931 89.375 100.671 98.6425 100.671 110C100.671 121.358 109.931 130.625 121.296 130.625C126.766 130.625 132.012 128.452 135.88 124.584C139.748 120.716 141.921 115.47 141.921 110C141.921 104.53 139.748 99.2839 135.88 95.4159C132.012 91.548 126.766 89.375 121.296 89.375ZM121.296 127.449C118.976 127.495 116.67 127.078 114.513 126.222C112.356 125.366 110.391 124.088 108.734 122.463C107.077 120.839 105.761 118.9 104.862 116.761C103.963 114.621 103.501 112.324 103.501 110.003C103.501 107.683 103.963 105.386 104.862 103.246C105.761 101.107 107.077 99.168 108.734 97.5435C110.391 95.919 112.356 94.6413 114.513 93.7853C116.67 92.9293 118.976 92.5121 121.296 92.5581C125.921 92.5599 130.356 94.3982 133.627 97.6687C136.897 100.939 138.736 105.375 138.738 110C138.744 112.293 138.297 114.564 137.423 116.683C136.549 118.803 135.264 120.728 133.643 122.35C132.023 123.971 130.097 125.256 127.978 126.131C125.859 127.007 123.588 127.454 121.296 127.449ZM65.5737 89.375C54.2094 89.375 44.9488 98.6425 44.9488 110C44.9379 114.624 43.096 119.056 39.8261 122.326C36.5562 125.596 32.1243 127.438 27.5 127.449V130.625C38.8575 130.625 48.125 121.358 48.125 110C48.1359 105.376 49.9777 100.944 53.2477 97.6739C56.5176 94.404 60.9494 92.5621 65.5737 92.5512H92.0769V89.375H65.5737Z" fill="white"/>
</g>
<defs>
<clipPath id="clip0_108_376">
<rect width="220" height="220" fill="white"/>
</clipPath>
</defs>
</svg>
