<svg width="220" height="220" viewBox="0 0 220 220" fill="none" xmlns="http://www.w3.org/2000/svg">
<g clip-path="url(#clip0_108_377)">
<path d="M110 220C170.751 220 220 170.751 220 110C220 49.2487 170.751 0 110 0C49.2487 0 0 49.2487 0 110C0 170.751 49.2487 220 110 220Z" fill="#E53431"/>
<path d="M83.3046 36.5366C83.5996 36.3088 83.9631 36.1876 84.3358 36.1928C84.7077 36.1928 85.0695 36.3135 85.3671 36.5366L94.0089 43.0128C94.1895 43.1487 94.3415 43.3188 94.4564 43.5135C94.5712 43.7081 94.6466 43.9234 94.6782 44.1472C94.7098 44.371 94.697 44.5987 94.6405 44.8176C94.5841 45.0364 94.4851 45.242 94.3492 45.4225C94.2134 45.6031 94.0433 45.7551 93.8486 45.8699C93.654 45.9848 93.4386 46.0601 93.2149 46.0917C92.9911 46.1233 92.7633 46.1106 92.5445 46.0541C92.3257 45.9977 92.1201 45.8987 91.9396 45.7628L84.3358 40.0772L59.6064 58.6191L168.231 140.115C168.446 140.277 168.621 140.486 168.741 140.726C168.861 140.967 168.924 141.232 168.924 141.501C168.924 141.769 168.861 142.035 168.741 142.275C168.621 142.515 168.446 142.725 168.231 142.886L160.25 148.867C159.883 149.141 159.423 149.257 158.97 149.192C158.518 149.126 158.11 148.883 157.836 148.517C157.563 148.15 157.446 147.69 157.512 147.237C157.578 146.785 157.821 146.377 158.187 146.103L164.326 141.497L55.6946 60.0147C55.4786 59.8563 55.3029 59.6493 55.1819 59.4105C55.0608 59.1716 54.9977 58.9075 54.9977 58.6397C54.9977 58.3719 55.0608 58.1078 55.1819 57.869C55.3029 57.6301 55.4786 57.4231 55.6946 57.2647L83.3046 36.5435V36.5366ZM110.921 36.5366C111.216 36.3082 111.578 36.1832 111.95 36.1807C112.323 36.1782 112.686 36.2984 112.984 36.5228L168.225 77.9585C168.515 78.1731 168.729 78.4752 168.835 78.8203C168.942 79.1655 168.935 79.5356 168.816 79.8766C168.704 80.2205 168.486 80.5202 168.193 80.7327C167.901 80.9451 167.548 81.0594 167.186 81.0591H139.57C139.198 81.0567 138.837 80.9363 138.538 80.7153L102.286 53.5316C102.105 53.3957 101.952 53.2254 101.836 53.0304C101.721 52.8355 101.645 52.6196 101.612 52.3952C101.58 52.1708 101.592 51.9423 101.648 51.7226C101.705 51.5029 101.803 51.2965 101.939 51.115C102.075 50.9335 102.245 50.7806 102.44 50.665C102.635 50.5493 102.851 50.4732 103.076 50.4409C103.3 50.4087 103.529 50.421 103.748 50.4771C103.968 50.5331 104.174 50.632 104.356 50.7678L140.154 77.6078H162.01L111.96 40.0703L77.3096 66.0578C77.1281 66.1937 76.9216 66.2925 76.702 66.3486C76.4823 66.4047 76.2538 66.417 76.0294 66.3847C75.5762 66.3196 75.1674 66.0771 74.893 65.7106C74.6186 65.3441 74.501 64.8837 74.5661 64.4305C74.6312 63.9773 74.8737 63.5685 75.2402 63.2941L110.921 36.5366ZM63.3189 72.2522C63.6872 72.0297 64.1251 71.9522 64.5473 72.0347C64.9696 72.1173 65.346 72.354 65.6034 72.6989C65.8607 73.0437 65.9805 73.4719 65.9395 73.9002C65.8985 74.3285 65.6995 74.7262 65.3814 75.016L59.5996 79.3472L168.231 160.843C168.448 161.003 168.623 161.212 168.744 161.452C168.865 161.692 168.928 161.957 168.928 162.225C168.928 162.494 168.865 162.759 168.744 162.999C168.623 163.239 168.448 163.447 168.231 163.607L140.615 184.322C140.316 184.542 139.954 184.66 139.583 184.66C139.212 184.66 138.851 184.542 138.552 184.322L130.556 178.327C130.19 178.05 129.948 177.64 129.884 177.185C129.821 176.731 129.94 176.27 130.216 175.903C130.492 175.537 130.903 175.295 131.357 175.231C131.812 175.167 132.273 175.287 132.64 175.563L139.583 180.767L164.333 162.205L55.6739 80.7291C55.4615 80.5667 55.2894 80.3576 55.171 80.1179C55.0525 79.8783 54.9909 79.6145 54.9909 79.3472C54.9909 79.0799 55.0525 78.8161 55.171 78.5765C55.2894 78.3368 55.4615 78.1277 55.6739 77.9653L63.3052 72.2591L63.3189 72.2522ZM56.7258 139.758V139.772H84.3289C84.7016 139.766 85.0651 139.888 85.3602 140.115L121.22 167.003C121.402 167.139 121.555 167.309 121.671 167.503C121.786 167.698 121.863 167.913 121.895 168.137C121.928 168.361 121.916 168.59 121.86 168.809C121.805 169.029 121.706 169.235 121.571 169.417C121.435 169.598 121.266 169.751 121.071 169.867C120.876 169.983 120.661 170.059 120.437 170.092C120.213 170.124 119.984 170.112 119.765 170.057C119.546 170.001 119.339 169.903 119.158 169.767L83.7789 143.223H61.9096L111.966 180.76L146.548 154.828C146.729 154.691 146.936 154.592 147.156 154.536C147.375 154.479 147.604 154.467 147.829 154.499C148.054 154.53 148.27 154.606 148.465 154.722C148.661 154.837 148.831 154.99 148.968 155.172C149.104 155.353 149.203 155.56 149.26 155.779C149.316 155.999 149.329 156.228 149.297 156.453C149.265 156.677 149.189 156.894 149.074 157.089C148.958 157.285 148.805 157.455 148.624 157.592L113.005 184.294C112.707 184.517 112.345 184.638 111.973 184.638C111.599 184.641 111.234 184.52 110.935 184.294L55.6808 142.872C55.4089 142.869 55.1416 142.801 54.9007 142.675C54.6598 142.549 54.4522 142.368 54.2947 142.146C54.1373 141.924 54.0345 141.668 53.9947 141.399C53.9549 141.13 53.9792 140.856 54.0657 140.598C54.1522 140.34 54.2985 140.106 54.4925 139.916C54.6865 139.725 54.9228 139.583 55.1821 139.501C55.4414 139.419 55.7165 139.4 55.9847 139.444C56.253 139.489 56.5069 139.596 56.7258 139.758Z" fill="white"/>
</g>
<defs>
<clipPath id="clip0_108_377">
<rect width="220" height="220" fill="white"/>
</clipPath>
</defs>
</svg>
