<svg width="220" height="220" viewBox="0 0 220 220" fill="none" xmlns="http://www.w3.org/2000/svg">
<g clip-path="url(#clip0_108_378)">
<path d="M110 220C170.751 220 220 170.751 220 110C220 49.2487 170.751 0 110 0C49.2487 0 0 49.2487 0 110C0 170.751 49.2487 220 110 220Z" fill="#2D9CDB"/>
<path d="M124.169 62.4525C147.572 86.9687 153.512 91.3 159.198 92.8606C139.432 90.3856 128.281 88.9831 109.656 79.2069L97.9 92.8881L171.875 109.312C148.734 128.989 138.71 139.473 124.169 157.534H96.1812C83.8819 139.535 75.68 133.691 59.8813 126.411C80.905 128.349 92.5925 129.642 109.656 139.748L122.451 125.379L48.125 109.312C65.4087 95.0675 75.4669 85.5662 96.1744 62.4525H124.169ZM97.9 59.0356C104.294 51.1637 106.906 47.3344 110.344 41.25C113.712 47.52 116.318 51.3906 122.444 59.0356H97.9ZM122.444 160.964C116.043 168.836 113.424 172.666 110 178.75C106.631 172.48 104.019 168.609 97.9 160.964H122.444Z" fill="white"/>
</g>
<defs>
<clipPath id="clip0_108_378">
<rect width="220" height="220" fill="white"/>
</clipPath>
</defs>
</svg>
