<svg width="220" height="220" viewBox="0 0 220 220" fill="none" xmlns="http://www.w3.org/2000/svg">
<g clip-path="url(#clip0_108_379)">
<path d="M110 220C170.751 220 220 170.751 220 110C220 49.2487 170.751 0 110 0C49.2487 0 0 49.2487 0 110C0 170.751 49.2487 220 110 220Z" fill="#0082C6"/>
<path d="M124.066 103.832C123.922 103.803 123.773 103.814 123.635 103.863C123.497 103.913 123.375 104 123.282 104.114C123.219 104.193 123.173 104.285 123.147 104.383C123.12 104.481 123.114 104.584 123.129 104.684C123.144 104.785 123.179 104.881 123.233 104.968C123.286 105.054 123.357 105.128 123.441 105.186C153.546 127.035 110.694 177.057 27.5 123.824C98.0375 190.202 196.261 116.881 124.066 103.832ZM83.8887 74.6268C21.4225 94.6125 92.9844 141.747 99.1925 117.939C99.2201 117.84 99.2271 117.736 99.213 117.634C99.1989 117.532 99.1641 117.433 99.1106 117.345C99.0572 117.257 98.9862 117.181 98.9022 117.121C98.8181 117.061 98.7227 117.019 98.6219 116.997C98.4773 116.96 98.3252 116.962 98.1819 117.004C88.99 119.995 38.3625 105.839 83.8819 74.6268H83.8887ZM192.5 86.6375C138.414 48.0687 36.9325 79.8725 89.2856 107.104C89.4727 107.199 89.6889 107.218 89.8898 107.158C90.0906 107.098 90.2608 106.963 90.365 106.781C90.4203 106.678 90.451 106.564 90.4545 106.447C90.4581 106.33 90.4345 106.214 90.3856 106.107C69.0938 61.1175 177.244 74.7987 192.5 86.6375ZM147.62 142.676C176.213 129.682 152.962 85.1937 115.142 93.7806C114.939 93.8263 114.726 93.7908 114.549 93.6816C114.372 93.5724 114.244 93.3982 114.194 93.1962C114.161 93.0571 114.17 92.9114 114.219 92.7771C114.268 92.6428 114.354 92.5257 114.469 92.44C143.894 70.33 199.128 121.947 147.62 142.676Z" fill="white"/>
</g>
<defs>
<clipPath id="clip0_108_379">
<rect width="220" height="220" fill="white"/>
</clipPath>
</defs>
</svg>
