<svg width="220" height="220" viewBox="0 0 220 220" fill="none" xmlns="http://www.w3.org/2000/svg">
<g clip-path="url(#clip0_108_380)">
<path d="M110 220C170.751 220 220 170.751 220 110C220 49.2487 170.751 0 110 0C49.2487 0 0 49.2487 0 110C0 170.751 49.2487 220 110 220Z" fill="#002342"/>
<path d="M27.5 89.375H36.4237V97.7694H27.5V89.375ZM36.4237 122.196H62.3906V130.625H27.5V106.164H53.6938V114.551H36.4306V122.196H36.4237ZM157.609 106.164H192.5V130.625H166.306V122.196H183.576V114.558H157.609V106.164ZM183.721 98.175H157.596V89.7806H183.721V98.1681V98.175ZM70.895 106.164H105.786V122.554H97.0956V130.625H70.895V106.164ZM96.8619 122.196V114.558H79.8187V122.189H96.8688L96.8619 122.196ZM70.895 89.375H105.786V97.7694H70.895V89.375ZM114.441 106.164H149.332V122.554H140.642V130.625H114.448V106.164H114.441ZM140.374 122.196V114.558H123.324V122.189H140.374V122.196ZM114.441 89.375H149.332V97.7694H114.441V89.375Z" fill="white"/>
</g>
<defs>
<clipPath id="clip0_108_380">
<rect width="220" height="220" fill="white"/>
</clipPath>
</defs>
</svg>
