<svg width="220" height="220" viewBox="0 0 220 220" fill="none" xmlns="http://www.w3.org/2000/svg">
<g clip-path="url(#clip0_108_381)">
<path d="M110 220C170.751 220 220 170.751 220 110C220 49.2487 170.751 0 110 0C49.2487 0 0 49.2487 0 110C0 170.751 49.2487 220 110 220Z" fill="#7B346E"/>
<path d="M55.6462 94.0363L70.1525 108.543H41.25L55.6462 94.0363ZM70.1525 111.568L55.6462 125.964L41.25 111.568H70.1525ZM89.76 91.9531L75.2537 106.349V77.4537L89.76 91.9531ZM72.2287 106.349L57.8394 91.9531L72.2356 77.4469L72.2287 106.349ZM91.85 89.76L77.4537 75.3638H106.349L91.85 89.76ZM91.85 57.8394L106.349 72.3388H77.4537L91.85 57.8394ZM125.964 55.7494L111.457 70.1456V41.25L125.964 55.7494ZM108.433 70.1456L94.0363 55.7562L108.433 41.25V70.1456ZM89.76 128.15L75.2537 142.546V113.651L89.76 128.15ZM57.8394 128.15L72.2356 113.651V142.546L57.8394 128.15ZM128.047 89.76L113.651 75.3638H142.546L128.047 89.76ZM113.651 72.3388L128.047 57.8325L142.553 72.3388H113.651ZM106.356 147.764L91.85 162.161L77.4606 147.764H106.356ZM91.85 130.233L106.356 144.739H77.4606L91.85 130.233ZM162.167 91.9531L147.668 106.349V77.4537L162.167 91.9531ZM130.247 91.9531L144.643 77.4469V106.349L130.247 91.9531ZM94.0431 164.347L108.439 149.854V178.75L94.0431 164.347ZM111.464 149.854L125.971 164.354L111.457 178.75L111.464 149.854ZM128.054 162.161L113.657 147.764H142.553L128.054 162.161ZM128.054 130.24L142.56 144.746H113.644L128.054 130.24ZM147.668 113.651L162.174 128.157L147.668 142.546V113.651ZM130.247 128.157L144.643 113.651V142.546L130.247 128.157ZM164.257 125.957L149.861 111.568H178.75L164.257 125.957ZM164.257 94.0363L178.75 108.543H149.854L164.257 94.0363Z" fill="white"/>
</g>
<defs>
<clipPath id="clip0_108_381">
<rect width="220" height="220" fill="white"/>
</clipPath>
</defs>
</svg>
