<svg width="220" height="220" viewBox="0 0 220 220" fill="none" xmlns="http://www.w3.org/2000/svg">
<g clip-path="url(#clip0_108_382)">
<path d="M110 220C170.751 220 220 170.751 220 110C220 49.2487 170.751 0 110 0C49.2487 0 0 49.2487 0 110C0 170.751 49.2487 220 110 220Z" fill="#5244D4"/>
<path d="M107.938 188.375C63.5112 188.375 27.5 152.364 27.5 107.938C27.5 63.5112 63.5112 27.5 107.938 27.5C152.364 27.5 188.375 63.5112 188.375 107.938C188.375 152.364 152.364 188.375 107.938 188.375ZM127.806 135.438L107.938 107.938L88.0688 135.438L71.9125 107.938L89.925 77.1375H125.95L143.963 107.938L127.806 135.438ZM133.719 63.9375H82.1562L56.4438 107.938L82.225 151.938H133.719L159.431 107.938L133.719 63.9375Z" fill="white"/>
</g>
<defs>
<clipPath id="clip0_108_382">
<rect width="220" height="220" fill="white"/>
</clipPath>
</defs>
</svg>
