<svg width="220" height="220" viewBox="0 0 220 220" fill="none" xmlns="http://www.w3.org/2000/svg">
<g clip-path="url(#clip0_108_383)">
<path d="M110 220C170.751 220 220 170.751 220 110C220 49.2487 170.751 0 110 0C49.2487 0 0 49.2487 0 110C0 170.751 49.2487 220 110 220Z" fill="#14C8FF"/>
<path d="M172.425 78.9122C176.777 82.4391 179.52 89.7335 178.557 95.0891L169.207 146.817C168.231 152.207 163.075 158.14 157.767 160.003L106.762 177.912C101.454 179.775 93.5619 178.428 89.2169 174.901L47.5681 141.097C43.2162 137.57 40.4662 130.31 41.4493 124.92L50.7993 73.1922C51.7687 67.8022 56.925 61.876 62.2393 60.006L113.252 42.0897C118.566 40.2197 126.452 41.581 130.804 45.101L172.425 78.9122ZM129.037 102.136L131.113 91.6172L111.643 91.6516L114.393 77.7916H108.102C103.565 84.7455 96.9557 90.0967 89.21 93.0885L87.4431 102.157H95.9543C95.9543 102.157 93.0737 115.178 92.1044 119.983C89.6981 132.221 95.7481 140.897 105.043 140.897H120.773L123.523 129.278H110.364C104.521 129.278 104.83 126.082 105.964 120.41L109.587 102.108L129.037 102.136Z" fill="white"/>
</g>
<defs>
<clipPath id="clip0_108_383">
<rect width="220" height="220" fill="white"/>
</clipPath>
</defs>
</svg>
