<svg width="220" height="220" viewBox="0 0 220 220" fill="none" xmlns="http://www.w3.org/2000/svg">
<g clip-path="url(#clip0_108_384)">
<path d="M110 220C170.751 220 220 170.751 220 110C220 49.2487 170.751 0 110 0C49.2487 0 0 49.2487 0 110C0 170.751 49.2487 220 110 220Z" fill="#0899CD"/>
<path d="M185.419 115.961C184.133 134.31 176.811 150.136 163.453 163.453C160.084 166.829 156.558 169.819 152.866 172.425C152.704 172.18 152.527 171.946 152.336 171.724L184.58 115.864C184.855 115.913 185.13 115.947 185.419 115.961ZM149.414 174.728C137.796 181.995 124.651 185.625 110 185.625C95.9956 185.625 83.3663 182.304 72.1119 175.67C73.8031 176.667 75.5219 177.581 77.275 178.42C77.4485 178.136 77.5958 177.837 77.715 177.526H142.285C142.401 177.837 142.546 178.136 142.718 178.42C145.008 177.32 147.235 176.083 149.414 174.728ZM67.1344 172.459C63.33 169.769 59.7647 166.756 56.4781 163.453C43.1613 150.136 35.8669 134.303 34.5813 115.961C34.8606 115.95 35.1387 115.918 35.4131 115.864L67.6637 171.724C67.4667 171.954 67.2896 172.2 67.1344 172.459ZM34.375 108.831C34.65 88.4331 42.0062 70.9775 56.4712 56.4712C71.2594 41.745 89.1 34.375 110 34.375C130.9 34.375 148.72 41.745 163.453 56.4781C178.166 71.1906 185.556 88.9419 185.625 109.718C185.622 107.867 185.553 106.016 185.419 104.17C185.139 104.183 184.861 104.218 184.587 104.273L152.371 48.3106C152.569 48.0781 152.749 47.8298 152.907 47.5681C149.694 45.2926 146.297 43.2873 142.753 41.5731C142.567 41.8834 142.41 42.2102 142.285 42.5494H77.715C77.5901 42.21 77.4336 41.8832 77.2475 41.5731C73.7344 43.2644 70.3519 45.2512 67.1 47.5406C67.2581 47.8156 67.4437 48.0906 67.6637 48.3381L35.4131 104.273C35.1367 104.217 34.8562 104.182 34.5744 104.17C34.4712 105.71 34.4025 107.264 34.3819 108.838L34.375 108.831ZM181.129 106.274C180.667 106.795 180.303 107.396 180.056 108.048H153.402C153.092 107.241 152.611 106.512 151.993 105.909C151.388 105.29 150.656 104.809 149.847 104.5V52.0575L181.129 106.281V106.274ZM180.056 112.069C180.304 112.721 180.667 113.321 181.129 113.843L149.847 168.004V115.617C150.656 115.31 151.388 114.832 151.993 114.214C152.612 113.61 153.093 112.878 153.402 112.069H180.056ZM39.9437 108.054C39.6964 107.403 39.333 106.802 38.8712 106.281L70.1525 52.0575V104.507C69.3437 104.816 68.6118 105.296 68.0075 105.916C67.3887 106.519 66.9079 107.248 66.5981 108.054H39.9437ZM77.6531 46.7019C77.6807 46.6585 77.7037 46.6124 77.7219 46.5644H142.292C142.542 47.2142 142.905 47.8146 143.364 48.3381L123.633 82.4381C122.278 82.1711 120.872 82.4083 119.68 83.105L77.6531 46.7019ZM77.7219 108.054C77.4123 107.248 76.9315 106.519 76.3125 105.916C75.708 105.297 74.9762 104.816 74.1675 104.507V52.0575L105.483 106.212C105.03 106.758 104.681 107.383 104.452 108.054H77.7219ZM128.129 90.3375C128.377 89.6615 128.5 88.9466 128.494 88.2269C128.51 86.8413 128.021 85.4973 127.119 84.4456L145.846 52.0644V104.5C145.544 104.61 145.252 104.746 144.973 104.906L128.129 90.3306V90.3375ZM117.109 86.1231C116.836 86.7908 116.698 87.5057 116.703 88.2269C116.703 89.6706 117.171 90.9356 118.113 92.015L111.045 104.204C110.36 104.068 109.654 104.068 108.969 104.204L79.86 53.9L117.102 86.1231H117.109ZM115.596 108.054C115.353 107.384 114.992 106.762 114.531 106.219L121.564 94.0225C122.919 94.2895 124.325 94.0523 125.517 93.3556L142.361 107.924C142.342 107.971 142.319 108.017 142.292 108.061H115.596V108.054ZM143.701 114.221C144.306 114.841 145.038 115.322 145.846 115.631V168.004L114.531 113.754C114.959 113.257 115.299 112.689 115.534 112.076H142.292C142.601 112.885 143.082 113.617 143.701 114.221ZM109.037 115.83C109.705 115.919 110.381 115.908 111.045 115.796L140.147 166.196L102.939 134.014C103.189 133.339 103.315 132.624 103.311 131.904C103.327 130.518 102.838 129.174 101.936 128.122L109.037 115.83ZM142.361 173.367C142.341 173.414 142.318 173.46 142.292 173.504H77.7219C77.4847 172.854 77.1332 172.251 76.6838 171.724L96.3737 137.692C97.7287 137.96 99.1347 137.723 100.327 137.026L142.361 173.367ZM98.45 126.108C97.0951 125.84 95.6888 126.077 94.4969 126.775L77.6531 112.214C77.6802 112.17 77.7032 112.124 77.7219 112.076H104.479C104.713 112.695 105.057 113.279 105.517 113.816L98.45 126.108ZM91.9188 129.793C91.6475 130.463 91.512 131.181 91.52 131.904C91.52 133.348 91.9875 134.606 92.9294 135.685L74.1675 168.039V115.624C74.4695 115.516 74.7616 115.383 75.0406 115.225L91.9188 129.8V129.793ZM68.0075 114.221C68.6121 114.841 69.3439 115.322 70.1525 115.631V168.004L38.8712 113.85C39.3329 113.328 39.6963 112.727 39.9437 112.076H66.5981C66.9072 112.885 67.388 113.617 68.0075 114.221Z" fill="white"/>
</g>
<defs>
<clipPath id="clip0_108_384">
<rect width="220" height="220" fill="white"/>
</clipPath>
</defs>
</svg>
