<svg width="220" height="220" viewBox="0 0 220 220" fill="none" xmlns="http://www.w3.org/2000/svg">
<g clip-path="url(#clip0_108_385)">
<path d="M110 220C170.751 220 220 170.751 220 110C220 49.2487 170.751 0 110 0C49.2487 0 0 49.2487 0 110C0 170.751 49.2487 220 110 220Z" fill="#F4C257"/>
<path d="M57.7156 148.081L49.7269 143.44V73.4594L62.5969 65.9794L70.5856 70.6131L57.7156 78.1V102.424L90.2619 121.344V130.343L57.7156 111.43V148.074V148.081ZM170.156 134.159V143.44L109.945 178.434L97.075 170.947V161.666L109.945 169.146L130.879 156.984V119.158L138.621 114.654V152.488L170.156 134.159ZM185.508 108.446V106.865L154.433 124.933V115.926L185.508 97.8656V64.5356L109.931 20.625L72.1531 42.5837L70.7919 43.3744L101.867 61.435L94.1256 65.9313L63.0506 47.8706L34.375 64.5356V152.357L72.1531 174.316L73.5212 175.106V138.985L81.2625 143.481V179.609L109.945 196.268L185.508 152.357V108.446ZM146.355 91.7812L115.074 109.973V147.799L109.945 150.776L106.074 148.528V112.159L73.5212 93.2388V87.285L77.3919 85.03L108.687 103.214L141.24 84.3081L146.362 87.285V91.7881L146.355 91.7812ZM101.956 43.1063L109.938 38.4725L170.149 73.4662V88.4194L162.174 93.0531V78.0931L141.226 65.9313L108.68 84.8444L100.932 80.3481L133.485 61.4281L101.956 43.1063Z" fill="white"/>
</g>
<defs>
<clipPath id="clip0_108_385">
<rect width="220" height="220" fill="white"/>
</clipPath>
</defs>
</svg>
