<svg width="220" height="220" viewBox="0 0 220 220" fill="none" xmlns="http://www.w3.org/2000/svg">
<g clip-path="url(#clip0_108_386)">
<path d="M110 220C170.751 220 220 170.751 220 110C220 49.2487 170.751 0 110 0C49.2487 0 0 49.2487 0 110C0 170.751 49.2487 220 110 220Z" fill="#434247"/>
<path d="M110 27.5C88.281 27.5 67.4515 36.1278 52.0939 51.4855C36.7362 66.8431 28.1084 87.6726 28.1084 109.392C28.1084 131.111 36.7362 151.94 52.0939 167.298C67.4515 182.655 88.281 191.283 110 191.283C155.231 191.283 191.888 154.619 191.888 109.388C191.888 64.1644 155.237 27.5 110 27.5ZM110 187.969C66.5637 187.969 31.35 152.756 31.35 109.319C31.35 65.8969 66.5706 30.6831 110 30.6831C153.429 30.6831 188.65 65.8969 188.65 109.333C188.65 152.762 153.436 187.976 110 187.976" fill="white"/>
<path d="M118.993 117.437H139.755V148.072C139.755 151.111 136.641 152.733 133.671 154.294C130.763 155.847 126.026 155.511 118.044 155.511H108.309C93.3626 155.847 89.1688 154.699 85.587 153.139C82.0051 151.516 80.1763 149.22 80.1763 146.243V117.437H69.4238V149.894C69.4238 151.654 70.3038 153.682 71.6582 155.511C73.212 157.607 73.0126 158.212 76.3882 159.904C79.4338 161.457 82.4795 162.674 87.952 163.355C92.2145 163.891 91.472 163.761 99.0482 163.891H117.033C130.556 163.623 133.327 164.572 141.371 160.516C147.936 157.264 150.171 153.482 150.638 151.042V106.891H119.061V117.437H118.993ZM90.9976 54.95C85.5182 55.2937 80.9876 56.985 77.4745 58.3325C73.8926 59.6868 73.1432 61.3093 71.6582 63.0693C70.2832 64.6643 69.5132 66.7062 69.4926 68.8168V104.794H80.3138V72.2543C80.3138 69.4837 82.0051 67.2562 85.3188 65.6337C88.7013 63.9425 93.6376 63.1312 98.2369 63.1312H119.329C127.373 63.1312 131.704 62.9937 134.207 64.4787C136.778 66.1012 139.824 67.5243 139.824 70.57V79.1568H150.638V67.6C150.439 66.1081 148.816 61.8525 141.171 58.2637C134.276 55.0187 132.048 54.8193 121.227 54.8193" fill="white"/>
</g>
<defs>
<clipPath id="clip0_108_386">
<rect width="220" height="220" fill="white"/>
</clipPath>
</defs>
</svg>
