<svg width="220" height="220" viewBox="0 0 220 220" fill="none" xmlns="http://www.w3.org/2000/svg">
<g clip-path="url(#clip0_108_387)">
<path d="M110 220C170.751 220 220 170.751 220 110C220 49.2487 170.751 0 110 0C49.2487 0 0 49.2487 0 110C0 170.751 49.2487 220 110 220Z" fill="#2AB8E6"/>
<path d="M75.35 41.25H144.65L151.25 48.0769V171.923L144.65 178.75H75.35L68.75 171.923V48.0769L75.35 41.25ZM81.95 165.089H138.05V54.9106H81.95V165.089ZM130.996 129.546H116.648V145.104H103.696V129.552H89.3475V116.153H130.996V129.546ZM130.996 91.1694V104.562H89.3475V91.1694H103.696V75.6113H116.648V91.1694H130.996Z" fill="white"/>
</g>
<defs>
<clipPath id="clip0_108_387">
<rect width="220" height="220" fill="white"/>
</clipPath>
</defs>
</svg>
