<svg width="220" height="220" viewBox="0 0 220 220" fill="none" xmlns="http://www.w3.org/2000/svg">
<g clip-path="url(#clip0_208_28)">
<path d="M110 220C170.751 220 220 170.751 220 110C220 49.2487 170.751 0 110 0C49.2487 0 0 49.2487 0 110C0 170.751 49.2487 220 110 220Z" fill="#49BF87"/>
<path d="M50.7573 61.026L44 68.6482L70.7594 75.7639L80.9522 101.272L87.7325 93.6238L78.1927 67.3788L50.7573 61.026Z" fill="white"/>
<path d="M91.0967 56.5436L84.3394 64.1658L111.099 71.2815L121.292 96.7894L128.072 89.1414L118.532 62.8964L91.0967 56.5436Z" fill="white"/>
<path d="M129.195 52.0616L122.438 59.6839L149.197 66.7995L159.39 92.3075L166.17 84.6594L156.631 58.4144L129.195 52.0616Z" fill="white"/>
<path d="M129.195 90.1598L122.438 97.782L149.197 104.898L159.39 130.406L166.17 122.758L156.631 96.5126L129.195 90.1598Z" fill="white"/>
<path d="M129.195 137.223L122.438 144.845L149.197 151.961L159.39 177.469L166.17 169.821L156.631 143.576L129.195 137.223Z" fill="white"/>
</g>
<defs>
<clipPath id="clip0_208_28">
<rect width="220" height="220" fill="white"/>
</clipPath>
</defs>
</svg>
