<svg width="220" height="220" viewBox="0 0 220 220" fill="none" xmlns="http://www.w3.org/2000/svg">
<g clip-path="url(#clip0_108_388)">
<path d="M110 220C170.751 220 220 170.751 220 110C220 49.2487 170.751 0 110 0C49.2487 0 0 49.2487 0 110C0 170.751 49.2487 220 110 220Z" fill="#EF494D"/>
<path fill-rule="evenodd" clip-rule="evenodd" d="M41.25 78.2787C41.25 76.8144 42.4394 75.625 43.9106 75.625H78.4506C94.3869 75.625 104.356 83.8475 104.356 95.4594C104.356 100.306 102.142 104.713 97.7144 108.68C103.909 112.207 107.009 117.494 107.009 124.541C107.009 141.075 91.0663 144.375 80.4375 144.375H43.9038C43.1999 144.375 42.5249 144.095 42.0273 143.598C41.5296 143.1 41.25 142.425 41.25 141.721V133.815C41.25 132.344 42.4394 131.154 43.9038 131.154H80.4375C87.9656 131.154 91.7331 128.727 91.7331 123.881C91.7331 119.034 87.9656 116.387 80.4375 115.947H43.9038C43.2011 115.947 42.5272 115.668 42.0297 115.172C41.5322 114.676 41.2518 114.003 41.25 113.3V105.394C41.25 103.922 42.4394 102.733 43.9038 102.733H80.4375C85.7519 101.853 88.4125 99.6531 88.4125 96.1263C88.4125 91.2794 85.7519 88.8525 80.4375 88.8525H43.9038C43.5547 88.8525 43.209 88.7836 42.8866 88.6498C42.5642 88.516 42.2714 88.32 42.0248 88.0728C41.7783 87.8257 41.583 87.5323 41.45 87.2095C41.3171 86.8868 41.2491 86.5409 41.25 86.1919V78.2856V78.2787ZM112.991 78.2787C112.991 76.8144 114.18 75.625 115.644 75.625H150.851C152.316 75.625 153.512 76.8144 153.512 78.2787V141.721C153.512 142.07 153.443 142.416 153.309 142.738C153.175 143.061 152.979 143.354 152.732 143.6C152.485 143.847 152.192 144.042 151.869 144.175C151.546 144.308 151.2 144.376 150.851 144.375H140.883C140.179 144.375 139.504 144.095 139.006 143.598C138.508 143.1 138.229 142.425 138.229 141.721V91.5063C138.23 91.1572 138.162 90.8114 138.029 90.4886C137.896 90.1658 137.7 89.8725 137.454 89.6253C137.207 89.3782 136.915 89.1821 136.592 89.0483C136.27 88.9145 135.924 88.8456 135.575 88.8456H115.638C114.934 88.8456 114.259 88.566 113.761 88.0684C113.263 87.5707 112.984 86.8957 112.984 86.1919L112.991 78.2787ZM162.8 75.625H176.089C177.554 75.625 178.743 76.8144 178.743 78.2787V86.185C178.744 86.5341 178.676 86.8799 178.543 87.2027C178.41 87.5254 178.215 87.8188 177.968 88.0659C177.722 88.3131 177.429 88.5092 177.107 88.643C176.784 88.7768 176.438 88.8456 176.089 88.8456H162.8C162.096 88.8456 161.421 88.566 160.924 88.0684C160.426 87.5707 160.146 86.8957 160.146 86.1919V78.2856C160.146 76.8144 161.336 75.625 162.8 75.625Z" fill="white"/>
</g>
<defs>
<clipPath id="clip0_108_388">
<rect width="220" height="220" fill="white"/>
</clipPath>
</defs>
</svg>
