<svg width="220" height="220" viewBox="0 0 220 220" fill="none" xmlns="http://www.w3.org/2000/svg">
<g clip-path="url(#clip0_108_389)">
<path d="M110 220C170.751 220 220 170.751 220 110C220 49.2487 170.751 0 110 0C49.2487 0 0 49.2487 0 110C0 170.751 49.2487 220 110 220Z" fill="#24DD7B"/>
<path d="M90.0075 54.4019L120.278 41.25L120.031 75.9894H158.125V100.052H119.776V141.735C119.776 154.385 141.226 155.877 149.298 151.662L156.613 173.497C138.696 183.913 89.7531 181.431 89.7531 141.983V54.395H90.0075V54.4019ZM61.7513 106.501C54.2231 106.501 48.125 99.1719 48.125 90.1312C48.125 81.0837 54.2231 73.755 61.7513 73.755C69.2725 73.755 75.3706 81.0837 75.3706 90.1312C75.3706 99.1719 69.2725 106.501 61.7513 106.501Z" fill="white"/>
</g>
<defs>
<clipPath id="clip0_108_389">
<rect width="220" height="220" fill="white"/>
</clipPath>
</defs>
</svg>
