<svg width="220" height="220" viewBox="0 0 220 220" fill="none" xmlns="http://www.w3.org/2000/svg">
<g clip-path="url(#clip0_108_390)">
<path d="M110 220C170.751 220 220 170.751 220 110C220 49.2487 170.751 0 110 0C49.2487 0 0 49.2487 0 110C0 170.751 49.2487 220 110 220Z" fill="#895AF8"/>
<path fill-rule="evenodd" clip-rule="evenodd" d="M122.169 97.9684C123.268 97.9023 124.37 97.9023 125.469 97.9684C135.644 98.6559 140.319 112.475 146.781 111.718C140.724 116.67 133.699 120.299 126.156 122.375C123.02 122.832 119.823 122.193 117.104 120.564C114.386 118.935 112.313 116.418 111.238 113.437V140.937L151.25 118.112V82.4996L122.169 97.9684ZM102.3 97.8996C100.783 96.6425 99.5467 95.0814 98.6704 93.317C97.7941 91.5526 97.2975 89.6241 97.2125 87.6559V87.1059C97.2125 79.1309 110.069 66.4809 110.481 66.4809C110.894 66.8934 123.75 79.1996 123.75 87.1059V87.7246C123.627 91.2555 122.15 94.6036 119.625 97.0746L151.25 80.0934L110 59.8809L68.75 79.8871L102.3 97.8996ZM109.037 113.712C107.974 116.706 105.907 119.239 103.187 120.88C100.467 122.522 97.2631 123.172 94.1187 122.718C86.576 120.643 79.5505 117.013 73.4937 112.062C79.9562 112.543 84.5625 98.6559 94.8062 98.3121C95.9053 98.2461 97.0072 98.2461 98.1063 98.3121L68.75 82.4996V118.181L109.106 141.487L109.037 113.712Z" fill="white"/>
<path d="M110 27.5C64.4394 27.5 27.5 64.4394 27.5 110C27.5 155.561 64.4394 192.5 110 192.5C155.561 192.5 192.5 155.561 192.5 110C192.5 88.1196 183.808 67.1354 168.336 51.6637C152.865 36.1919 131.88 27.5 110 27.5ZM63.9375 76.9312L110 54.5875L156.131 76.9312V120.863L110 147.469L63.9375 120.863V76.9312ZM156.269 138.806L110.344 165.344L63.8688 138.531V135.988L110.344 162.8L156.269 136.262V138.806ZM156.269 133.65L110.344 160.188L63.8688 133.375V130.625L110.344 157.506L156.269 130.969V133.65ZM156.269 128.494L110.344 155.031L63.8688 128.219V125.675L110.344 152.556L156.269 126.019V128.494Z" fill="white"/>
</g>
<defs>
<clipPath id="clip0_108_390">
<rect width="220" height="220" fill="white"/>
</clipPath>
</defs>
</svg>
