<svg width="220" height="220" viewBox="0 0 220 220" fill="none" xmlns="http://www.w3.org/2000/svg">
<g clip-path="url(#clip0_108_391)">
<path d="M110 220C170.751 220 220 170.751 220 110C220 49.2487 170.751 0 110 0C49.2487 0 0 49.2487 0 110C0 170.751 49.2487 220 110 220Z" fill="#FFC04E"/>
<path d="M107.236 81.5169H107.257L107.051 82.4106L105.263 90.8462H105.057L93.28 140.938H78.2994L90.31 90.8462H70.1525L58.8362 140.938H42.3638L57.3375 79.0625H107.752L107.236 81.5169ZM135.706 79.0625H160.662C182.132 80.0456 180.132 94.2837 180.132 94.2837H185.625L183.631 100.176H178.633C177.141 105.579 167.152 108.529 167.152 108.529C178.633 110 178.138 118.841 178.138 118.841H183.631L182.133 124.733H177.636C176.488 132.914 169.235 136.888 163.274 138.779C159.67 139.904 155.913 140.468 152.137 140.449H120.725L135.706 79.0625ZM50.3456 90.8462H34.375L37.3725 79.0625H53.3431L50.3456 90.8462ZM118.738 134.062L105.758 103.613L111.251 80.0456L124.224 109.017L118.738 134.062ZM156.922 103.613C158.709 103.613 160.428 102.926 161.686 101.674C162.944 100.423 163.659 98.7456 163.659 96.9856C163.659 95.2256 162.951 93.5413 161.686 92.2969C160.421 91.0525 158.709 90.3581 156.922 90.3581H147.194L144.203 103.613H156.922ZM153.56 129.154C158.036 129.154 161.666 125.744 161.666 121.543C161.666 117.336 158.056 113.926 153.56 113.926H141.859L138.256 129.154H153.56Z" fill="white"/>
</g>
<defs>
<clipPath id="clip0_108_391">
<rect width="220" height="220" fill="white"/>
</clipPath>
</defs>
</svg>
