<svg width="220" height="220" viewBox="0 0 220 220" fill="none" xmlns="http://www.w3.org/2000/svg">
<g clip-path="url(#clip0_108_392)">
<path d="M110 220C170.751 220 220 170.751 220 110C220 49.2487 170.751 0 110 0C49.2487 0 0 49.2487 0 110C0 170.751 49.2487 220 110 220Z" fill="#FF439B"/>
<path fill-rule="evenodd" clip-rule="evenodd" d="M125.304 94.9025L164.031 161.562H56.6844L69.5475 140.229L127.38 140.243L112.722 116.318L125.304 94.9025ZM85.7725 110.412L125.146 44.9625L178.75 135.211H153.01L124.685 85.9856L110.928 110.419L85.7725 110.412ZM119.357 135.293L41.25 134.922L94.9231 44.6875L107.711 66.3162L78.1275 113.877H106.776L119.357 135.293Z" fill="white"/>
</g>
<defs>
<clipPath id="clip0_108_392">
<rect width="220" height="220" fill="white"/>
</clipPath>
</defs>
</svg>
