<svg width="220" height="220" viewBox="0 0 220 220" fill="none" xmlns="http://www.w3.org/2000/svg">
<g clip-path="url(#clip0_108_393)">
<path d="M110 220C170.751 220 220 170.751 220 110C220 49.2487 170.751 0 110 0C49.2487 0 0 49.2487 0 110C0 170.751 49.2487 220 110 220Z" fill="#FF4081"/>
<path d="M95.4938 147.832L96.58 171.874C96.58 171.874 109.471 169.688 122.897 171.874L123.97 147.832H95.4938ZM79.9288 129.249C79.9288 129.249 117.528 125.97 139.549 129.249L141.694 103.021C120.779 101.399 99.7707 101.399 78.8563 103.021L79.9288 129.249ZM178.75 61.489C178.75 61.489 106.776 46.1852 41.25 62.5821L46.0831 92.6327L51.9956 81.1584C51.9956 81.1584 113.761 71.8702 169.077 81.1584L174.453 92.6396L178.75 61.489Z" fill="white"/>
</g>
<defs>
<clipPath id="clip0_108_393">
<rect width="220" height="220" fill="white"/>
</clipPath>
</defs>
</svg>
