<svg width="220" height="220" viewBox="0 0 220 220" fill="none" xmlns="http://www.w3.org/2000/svg">
<g clip-path="url(#clip0_108_394)">
<path d="M110 220C170.751 220 220 170.751 220 110C220 49.2487 170.751 0 110 0C49.2487 0 0 49.2487 0 110C0 170.751 49.2487 220 110 220Z" fill="#1A1F36"/>
<path d="M127.36 99.441C128.332 99.4432 129.267 99.0696 129.97 98.3982C130.673 97.7269 131.089 96.8098 131.132 95.8386C131.175 94.8675 130.84 93.9174 130.199 93.1871C129.557 92.4568 128.658 92.0027 127.69 91.9197H101.29V85.3197C101.031 84.4067 100.481 83.6031 99.7245 83.0308C98.9676 82.4585 98.0447 82.1489 97.0958 82.1489C96.1469 82.1489 95.2239 82.4585 94.467 83.0308C93.7101 83.6031 93.1606 84.4067 92.902 85.3197V91.9197H85.8414C84.844 91.9197 83.8875 92.3159 83.1822 93.0212C82.477 93.7264 82.0808 94.683 82.0808 95.6803C82.0808 96.6777 82.477 97.6343 83.1822 98.3395C83.8875 99.0448 84.844 99.441 85.8414 99.441H92.9089V122.403C92.9415 128.181 95.2549 133.712 99.3456 137.792C103.436 141.873 108.973 144.172 114.751 144.19C119.568 144.117 124.219 142.419 127.951 139.371L129.532 138.051C130.041 137.694 130.469 137.234 130.788 136.701C131.107 136.168 131.31 135.573 131.384 134.956C131.458 134.339 131.401 133.714 131.216 133.12C131.032 132.527 130.725 131.979 130.315 131.512C129.904 131.046 129.4 130.671 128.835 130.412C128.27 130.153 127.657 130.016 127.036 130.011C126.414 130.005 125.799 130.13 125.229 130.378C124.659 130.627 124.148 130.992 123.73 131.451L122.54 132.441C120.65 134.005 118.347 134.988 115.91 135.268C113.473 135.549 111.007 135.116 108.811 134.022C106.565 132.952 104.667 131.269 103.337 129.167C102.006 127.065 101.296 124.63 101.29 122.142V99.441H127.36ZM170.26 125.05C170.347 124.625 170.349 124.187 170.267 123.76C170.185 123.334 170.019 122.928 169.779 122.566C169.54 122.204 169.231 121.893 168.871 121.65C168.511 121.408 168.107 121.238 167.681 121.152H166.031C165.298 121.149 164.585 121.396 164.01 121.852C163.435 122.308 163.033 122.946 162.869 123.662C161.267 130.668 158.216 137.261 153.912 143.017C149.608 148.773 144.147 153.564 137.88 157.082C131.612 160.599 124.678 162.765 117.522 163.441C110.367 164.117 103.15 163.286 96.3347 161.004C89.5197 158.722 83.2581 155.037 77.953 150.189C72.6479 145.34 68.4169 139.434 65.5322 132.851C62.6475 126.269 61.1732 119.155 61.204 111.968C61.2349 104.781 62.7703 97.68 65.7114 91.1222C68.0772 85.4111 71.545 80.2221 75.9167 75.8515C80.2884 71.481 85.4784 68.0146 91.1901 65.6503C102.333 60.6754 114.874 59.7879 126.607 63.1439C138.34 66.4999 148.514 73.8846 155.341 83.9997C155.824 84.7048 156.562 85.1949 157.399 85.3668C158.237 85.5386 159.108 85.3788 159.83 84.921L160.421 84.5222C161.214 84.0211 161.777 83.2273 161.989 82.3134C162.2 81.3994 162.042 80.4391 161.549 79.641C154.102 68.679 143.202 60.5224 130.585 56.4686C117.968 52.4149 104.357 52.6969 91.9189 57.2697C84.0281 59.9816 76.8473 64.4316 70.9071 70.291C64.9668 76.1503 60.4187 83.2694 57.5989 91.1222C54.6683 98.703 53.3356 106.807 53.6842 114.927C54.0328 123.047 56.0553 131.008 59.6248 138.309C63.1943 145.611 68.2339 152.097 74.4275 157.359C80.6211 162.622 87.8353 166.548 95.6175 168.892C103.4 171.235 111.582 171.946 119.652 170.979C127.722 170.012 135.505 167.388 142.513 163.271C149.521 159.155 155.603 153.636 160.377 147.058C165.152 140.481 168.516 132.989 170.26 125.05ZM116.009 34.0322H109.409C97.4833 34.5333 85.8281 37.7415 75.3259 43.4137C64.8237 49.086 55.7498 57.0736 48.7916 66.7718C41.8333 76.4699 37.173 87.6242 35.1637 99.39C33.1543 111.156 33.8486 123.224 37.1939 134.682C37.483 135.637 38.1393 136.437 39.0186 136.908C39.8979 137.378 40.9281 137.481 41.8826 137.192H42.412C43.21 136.806 43.8463 136.151 44.2085 135.343C44.5708 134.534 44.6358 133.623 44.392 132.771C40.0193 117.795 40.6905 101.796 46.3022 87.2386C51.9139 72.6811 62.155 60.3716 75.4488 52.2054C88.7426 44.0392 104.352 40.4689 119.874 42.0442C135.396 43.6196 149.97 50.2532 161.352 60.9239C172.734 71.5945 180.293 85.7105 182.865 101.099C185.438 116.487 182.881 132.294 175.589 146.086C168.296 159.879 156.672 170.892 142.507 177.43C128.341 183.968 112.419 185.669 97.192 182.271C96.5333 182.131 95.8485 182.181 95.2169 182.415C94.5854 182.648 94.033 183.056 93.6239 183.591C93.2155 184.1 92.944 184.705 92.8352 185.349C92.7264 185.992 92.7839 186.653 93.0022 187.268C93.2206 187.883 93.5925 188.432 94.0828 188.863C94.573 189.294 95.1652 189.593 95.8033 189.73C106.297 191.653 117.072 191.419 127.472 189.044C137.872 186.669 147.68 182.202 156.299 175.914C164.917 169.627 172.166 161.651 177.603 152.472C183.04 143.294 186.552 133.105 187.925 122.525C189.298 111.946 188.503 101.198 185.589 90.9353C182.675 80.6729 177.702 71.1111 170.974 62.8322C164.246 54.5532 155.903 47.7303 146.453 42.7791C137.004 37.8278 126.645 34.8518 116.009 34.0322Z" fill="white"/>
</g>
<defs>
<clipPath id="clip0_108_394">
<rect width="220" height="220" fill="white"/>
</clipPath>
</defs>
</svg>
