<svg width="220" height="220" viewBox="0 0 220 220" fill="none" xmlns="http://www.w3.org/2000/svg">
<g clip-path="url(#clip0_108_395)">
<path d="M110 220C170.751 220 220 170.751 220 110C220 49.2487 170.751 0 110 0C49.2487 0 0 49.2487 0 110C0 170.751 49.2487 220 110 220Z" fill="#3058A6"/>
<path d="M109.966 187.195C67.3544 187.195 32.8075 152.648 32.8075 110.037C32.8075 67.4254 67.3544 32.8785 109.966 32.8785C152.577 32.8785 187.124 67.4254 187.124 110.037C187.124 152.648 152.577 187.195 109.966 187.195ZM109.966 27.9629C64.7075 27.9629 27.8919 64.7785 27.8919 110.037C27.8919 155.295 64.7075 192.11 109.966 192.11C155.224 192.11 192.039 155.295 192.039 110.037C192.039 64.7785 155.224 27.9629 109.966 27.9629Z" fill="white"/>
<path fill-rule="evenodd" clip-rule="evenodd" d="M138.868 139.394L134.585 157.95L133.554 162.439H128.947L105.263 162.426H105.167C95.6724 162.267 88.2199 159.744 83.3318 155.289C87.553 162.735 96.518 167.046 109.031 167.252H109.127L132.804 167.266H137.411L138.449 162.776L142.732 144.221L139.391 137.132L138.868 139.394ZM131.422 59.8437L128.04 52.8105L127.559 55.0105L124.348 69.6337H129.271L131.422 59.8437ZM148.521 76.763L144.258 94.8099L143.199 99.2649H117.535L111.017 129.02C110.88 129.872 110.797 130.739 110.797 131.22C110.797 131.639 110.846 131.907 110.887 132.038C111.377 132.222 111.897 132.31 112.42 132.299H115.225L121.399 104.098H147.063L148.115 99.6362L152.377 81.5893L149.064 74.4668L148.514 76.763H148.521ZM84.8443 99.2649H66.9624L73.1224 104.098H83.7924L84.8443 99.2649Z" fill="white"/>
<path fill-rule="evenodd" clip-rule="evenodd" d="M112.984 138.093H112.33C107.353 137.962 105.002 135.37 105.002 131.218C105.002 130.228 105.167 128.915 105.332 127.932L112.88 93.4741H138.62L142.883 75.4272H117.143L121.9 53.771H100.904L96.1399 75.4272H73.3561L69.2586 93.4741H92.0424L83.1736 134.002C82.6924 135.968 82.5205 138.265 82.5205 139.413C82.5205 150.977 91.6436 156.408 105.263 156.635L128.94 156.642L133.224 138.093H112.984Z" fill="white"/>
</g>
<defs>
<clipPath id="clip0_108_395">
<rect width="220" height="220" fill="white"/>
</clipPath>
</defs>
</svg>
