<svg width="220" height="220" viewBox="0 0 220 220" fill="none" xmlns="http://www.w3.org/2000/svg">
<g clip-path="url(#clip0_108_396)">
<path d="M110 220C170.751 220 220 170.751 220 110C220 49.2487 170.751 0 110 0C49.2487 0 0 49.2487 0 110C0 170.751 49.2487 220 110 220Z" fill="#30C0F2"/>
<path d="M69.5955 48.125H150.542C150.542 48.125 152.687 58.8088 164.154 59.5238C164.154 59.5238 202.118 147.868 109.711 185.625C109.711 185.625 24.468 158.551 54.553 60.2388C54.553 60.2388 67.4505 59.5238 69.5955 48.125ZM146.252 55.1581H73.9268L73.8305 56.6981C73.2255 60.06 71.5412 62.4044 69.073 63.9856C67.5434 64.9501 65.8294 65.5846 64.0405 65.8488L62.7755 65.9725L62.418 67.1963C55.7562 89.9525 55.5293 109.615 60.7749 126.39C65.0787 140.14 72.868 151.415 83.1324 160.421C88.5497 165.172 94.5437 169.221 100.973 172.473C103.104 173.552 105.098 174.439 106.879 175.154C107.958 175.587 108.749 175.869 109.182 176.014L109.856 176.22L110.509 175.945C135.987 165.055 151.401 148.596 158.304 128.095C164.01 111.182 163.501 93.1769 159.246 76.1269C158.427 72.856 157.441 69.6296 156.289 66.4606C156.196 66.2095 156.1 65.9597 156.001 65.7112L155.561 64.625L154.385 64.5494C151.044 64.3294 148.919 62.9681 147.606 60.7819C146.907 59.6064 146.473 58.2925 146.334 56.9319L146.252 55.1581ZM77.1924 58.905C120.966 58.9119 142.849 58.9188 142.849 58.9256C143.151 60.2113 143.639 61.49 144.361 62.7069C146.121 65.6288 148.947 67.6019 152.907 68.1656C153.946 71.076 154.84 74.0359 155.588 77.0344C159.686 93.4519 160.167 110.763 154.729 126.906C148.232 146.204 133.787 161.741 109.691 172.212C107.301 171.311 104.962 170.281 102.685 169.125C96.5389 166.02 90.8083 162.153 85.628 157.616C75.8587 149.036 68.4612 138.339 64.3774 125.283C59.4412 109.505 59.5718 90.9562 65.7111 69.3619C67.6217 68.9255 69.4459 68.1726 71.108 67.1344C74.1051 65.2607 76.2795 62.3196 77.1924 58.905ZM127.792 97.2812H125.709C125.916 93.1012 124.987 83.9988 113.678 81.4688C110.392 80.6831 106.951 80.8404 103.751 81.9225C99.3368 83.49 94.0705 87.4294 93.8712 97.2812H92.338C90.7759 97.2812 89.2772 97.8994 88.1694 99.0008C87.0615 100.102 86.4346 101.597 86.4255 103.159V127.738C86.4346 129.3 87.0615 130.795 88.1694 131.896C89.2772 132.997 90.7759 133.616 92.338 133.616H127.799C129.361 133.616 130.86 132.997 131.968 131.896C133.076 130.795 133.703 129.3 133.712 127.738V103.159C133.703 101.597 133.076 100.102 131.968 99.0008C130.86 97.8994 129.361 97.2812 127.799 97.2812H127.792ZM114.008 125.07H106.129L108.212 114.709C107.233 114.287 106.429 113.539 105.938 112.592C105.446 111.645 105.297 110.558 105.515 109.513C105.734 108.469 106.306 107.532 107.136 106.862C107.966 106.191 109.002 105.828 110.069 105.834C110.699 105.562 111.381 105.434 112.066 105.459C112.752 105.483 113.423 105.66 114.032 105.976C114.641 106.292 115.172 106.739 115.586 107.286C116.001 107.832 116.289 108.464 116.429 109.135C116.57 109.807 116.559 110.501 116.398 111.168C116.237 111.835 115.93 112.457 115.499 112.991C115.068 113.524 114.524 113.955 113.906 114.252C113.287 114.55 112.611 114.706 111.925 114.709L114.008 125.07ZM98.9655 97.2812C99.158 94.0637 100.519 86.4462 108.996 85.8825C108.996 85.8825 120.175 85.2706 119.976 97.2812H98.9655Z" fill="white"/>
</g>
<defs>
<clipPath id="clip0_108_396">
<rect width="220" height="220" fill="white"/>
</clipPath>
</defs>
</svg>
