<svg width="220" height="220" viewBox="0 0 220 220" fill="none" xmlns="http://www.w3.org/2000/svg">
<g clip-path="url(#clip0_108_397)">
<path d="M110 220C170.751 220 220 170.751 220 110C220 49.2487 170.751 0 110 0C49.2487 0 0 49.2487 0 110C0 170.751 49.2487 220 110 220Z" fill="#00843D"/>
<path d="M110.041 38.5005C112.75 38.5005 115.411 39.2086 117.755 40.563L166.98 68.9843C169.326 70.3398 171.275 72.2892 172.629 74.6365C173.983 76.9838 174.695 79.6463 174.694 82.3561V140.34C174.694 145.854 171.758 150.948 166.98 153.705L117.748 182.133C115.402 183.488 112.74 184.201 110.031 184.201C107.322 184.201 104.66 183.488 102.314 182.133L53.0749 153.705C50.7286 152.35 48.7801 150.402 47.4249 148.056C46.0697 145.71 45.3556 143.049 45.3543 140.34V82.3561C45.3543 76.8424 48.2968 71.748 53.0749 68.9843L102.3 40.563C104.651 39.2086 107.319 38.4936 110.021 38.4936H110.034L110.041 38.5005ZM110.027 27.7686C105.437 27.7713 100.927 28.9805 96.9512 31.2749L47.7124 59.6893C43.7394 61.9911 40.4401 65.2953 38.1442 69.2718C35.8484 73.2482 34.6363 77.7576 34.6293 82.3493V140.333C34.6363 144.925 35.8484 149.434 38.1442 153.41C40.4401 157.387 43.7394 160.691 47.7124 162.993L96.9374 191.414C105.036 196.089 115.012 196.089 123.104 191.414L172.336 162.993C176.309 160.691 179.608 157.387 181.904 153.41C184.2 149.434 185.412 144.925 185.419 140.333V82.3493C185.412 77.7576 184.2 73.2482 181.904 69.2718C179.608 65.2953 176.309 61.9911 172.336 59.6893L123.111 31.2611C119.13 28.9644 114.616 27.7552 110.021 27.7549L110.027 27.7686Z" fill="white"/>
<path d="M103.998 120.453C103.432 120.454 102.877 120.306 102.386 120.023C101.896 119.741 101.49 119.334 101.207 118.844L95.2873 108.58C95.005 108.091 94.8563 107.536 94.8563 106.971C94.8563 106.407 95.005 105.852 95.2873 105.363L101.207 95.0982C101.49 94.6084 101.896 94.2018 102.386 93.9193C102.877 93.6369 103.432 93.4886 103.998 93.4895H116.084C116.648 93.4912 117.202 93.6406 117.691 93.9229C118.179 94.2051 118.585 94.6103 118.869 95.0982L124.795 105.363C125.077 105.852 125.226 106.407 125.226 106.971C125.226 107.536 125.077 108.091 124.795 108.58L118.869 118.844C118.586 119.333 118.181 119.739 117.692 120.022C117.203 120.304 116.649 120.453 116.084 120.453H103.998ZM87.8486 104.29C88.4139 104.29 88.9692 104.141 89.459 103.858C89.9488 103.576 90.356 103.17 90.6399 102.681L96.5592 92.417C96.8416 91.9278 96.9903 91.373 96.9903 90.8082C96.9903 90.2434 96.8416 89.6886 96.5592 89.1995L89.1755 76.4051L74.7586 84.2701C74.2418 84.5533 73.8126 84.973 73.518 85.4834C73.2234 85.9938 73.0747 86.5753 73.088 87.1645C73.2049 92.9257 73.8786 98.6595 75.0886 104.29H87.8486ZM132.227 104.29C131.662 104.29 131.108 104.141 130.619 103.859C130.13 103.576 129.725 103.17 129.442 102.681L123.516 92.417C123.234 91.9278 123.085 91.373 123.085 90.8082C123.085 90.2434 123.234 89.6886 123.516 89.1995L130.9 76.4051L145.31 84.2701C145.827 84.5518 146.257 84.97 146.553 85.4792C146.848 85.9883 146.999 86.5689 146.987 87.1576C146.87 92.9189 146.202 98.6558 144.994 104.29H132.227ZM111.581 65.852C111.109 65.5944 110.579 65.4595 110.041 65.4595C109.503 65.4595 108.974 65.5944 108.501 65.852L93.8849 73.827L101.214 86.5182C101.496 87.007 101.902 87.413 102.39 87.6954C102.879 87.9778 103.434 88.1266 103.998 88.127H116.084C116.649 88.1273 117.203 87.9787 117.692 87.6963C118.181 87.4139 118.587 87.0075 118.869 86.5182L126.197 73.8338L111.581 65.8588V65.852ZM76.4224 109.653C79.1797 119.462 83.5852 128.731 89.4505 137.063L96.5661 124.743C96.8485 124.254 96.9972 123.699 96.9972 123.134C96.9972 122.57 96.8485 122.015 96.5661 121.526L90.6399 111.261C90.3576 110.773 89.9518 110.367 89.4631 110.084C88.9743 109.802 88.4199 109.653 87.8555 109.653H76.4224ZM143.646 109.653C140.891 119.462 136.488 128.731 130.625 137.063L123.509 124.743C123.227 124.254 123.078 123.699 123.078 123.134C123.078 122.57 123.227 122.015 123.509 121.526L129.442 111.261C129.725 110.773 130.13 110.367 130.619 110.084C131.108 109.802 131.662 109.653 132.227 109.653H143.653H143.646ZM103.998 125.816C103.432 125.815 102.877 125.963 102.386 126.246C101.896 126.528 101.49 126.935 101.207 127.424L92.9567 141.724C97.3998 147.245 102.474 152.227 108.075 156.568C108.64 157.002 109.332 157.237 110.045 157.237C110.757 157.237 111.449 157.002 112.014 156.568C117.613 152.224 122.685 147.24 127.125 141.718L118.875 127.424C118.593 126.936 118.187 126.53 117.699 126.247C117.21 125.965 116.656 125.816 116.091 125.816H103.991H103.998Z" fill="white"/>
</g>
<defs>
<clipPath id="clip0_108_397">
<rect width="220" height="220" fill="white"/>
</clipPath>
</defs>
</svg>
