<svg width="220" height="220" viewBox="0 0 220 220" fill="none" xmlns="http://www.w3.org/2000/svg">
<g clip-path="url(#clip0_108_399)">
<path d="M110 220C170.751 220 220 170.751 220 110C220 49.2487 170.751 0 110 0C49.2487 0 0 49.2487 0 110C0 170.751 49.2487 220 110 220Z" fill="#2B2E7F"/>
<path d="M117.267 130.817V90.5292H122.561C140.058 90.5292 144.368 74.2148 144.368 74.2148H98.4225C76.615 74.2148 72.9163 90.5361 72.9163 90.5361H100.024V151.153C100.024 151.153 117.267 145.976 117.267 130.817Z" fill="white"/>
<path d="M167.716 162.208C183.171 146.148 189.097 123.845 183.535 102.512C180.6 91.3498 174.71 81.1848 166.485 73.0873C165.742 72.3586 165 71.6161 164.134 70.8873L163.391 70.1517C162.887 69.6656 162.349 69.2153 161.782 68.8042L160.792 68.0686L159.314 66.9686L158.441 66.3498C157.851 65.9634 157.275 65.5552 156.716 65.1261L155.595 64.3973C155.133 64.0612 154.638 63.7733 154.117 63.5379L153.003 62.8023C152.508 62.5548 152.013 62.1836 151.518 61.9429L150.404 61.3242C149.909 61.0836 149.414 60.8361 148.796 60.5954L148.417 60.4717C149.779 61.5717 151.133 62.8023 152.371 64.0261C158.011 69.6186 162.488 76.2728 165.543 83.6047C168.599 90.9365 170.172 98.8009 170.172 106.744C170.172 114.687 168.599 122.551 165.543 129.883C162.488 137.215 158.011 143.869 152.371 149.462C122.217 179.368 73.2737 179.368 43.1062 149.462C41.9925 148.362 41.0025 147.262 39.8956 146.162L39.0293 145.179C38.3816 144.425 37.7624 143.648 37.1731 142.848C41.0508 150.452 46.099 157.401 52.1331 163.439C83.6481 194.692 134.812 194.692 166.327 163.439C166.876 163.134 167.35 162.712 167.716 162.201V162.208Z" fill="white"/>
<path d="M71.5 153.905C70.1246 152.783 68.8031 151.597 67.54 150.351C61.8938 144.753 57.4121 138.092 54.3536 130.753C51.2951 123.414 49.7205 115.542 49.7205 107.592C49.7205 99.6407 51.2951 91.7687 54.3536 84.4297C57.4121 77.0907 61.8938 70.4302 67.54 64.8324C97.7281 34.8987 146.713 34.8987 176.901 64.8324C179.004 66.9224 180.977 69.1293 182.834 71.4599C178.952 63.8871 173.901 56.9732 167.867 50.9724C136.324 19.6843 85.1056 19.6843 53.5631 50.9724C53.1919 51.3368 52.8206 51.8318 52.3256 52.1962C31.4187 74.0381 28.5725 106.674 45.2787 131.458C51.8375 141.014 60.9812 148.989 71.5 153.905Z" fill="white"/>
</g>
<defs>
<clipPath id="clip0_108_399">
<rect width="220" height="220" fill="white"/>
</clipPath>
</defs>
</svg>
