<svg width="220" height="220" viewBox="0 0 220 220" fill="none" xmlns="http://www.w3.org/2000/svg">
<g clip-path="url(#clip0_108_400)">
<path d="M110 220C170.751 220 220 170.751 220 110C220 49.2487 170.751 0 110 0C49.2487 0 0 49.2487 0 110C0 170.751 49.2487 220 110 220Z" fill="#374851"/>
<path fill-rule="evenodd" clip-rule="evenodd" d="M121.688 105.875V158.111C123.09 157.767 124.465 157.376 125.812 156.922V176.928C116.795 179.05 107.442 179.333 98.3125 177.76V105.875H74.25V86.625H145.75V105.875H121.688ZM131.312 175.381V154.688C141.448 149.853 149.638 141.715 154.538 131.611C159.439 121.507 160.758 110.037 158.279 99.0849C155.801 88.1323 149.672 78.348 140.898 71.3384C132.125 64.3288 121.23 60.5106 110 60.5106C98.7705 60.5106 87.8747 64.3288 79.1016 71.3384C70.3284 78.348 64.1994 88.1323 61.7208 99.0849C59.2422 110.037 60.5614 121.507 65.4617 131.611C70.362 141.715 78.5521 149.853 88.6875 154.688V175.381C61.1531 166.409 41.25 140.525 41.25 110C41.25 72.0294 72.0294 41.25 110 41.25C147.971 41.25 178.75 72.0294 178.75 110C178.75 140.525 158.847 166.409 131.312 175.381Z" fill="white"/>
</g>
<defs>
<clipPath id="clip0_108_400">
<rect width="220" height="220" fill="white"/>
</clipPath>
</defs>
</svg>
