<svg width="220" height="220" viewBox="0 0 220 220" fill="none" xmlns="http://www.w3.org/2000/svg">
<g clip-path="url(#clip0_108_401)">
<path d="M110 220C170.751 220 220 170.751 220 110C220 49.2487 170.751 0 110 0C49.2487 0 0 49.2487 0 110C0 170.751 49.2487 220 110 220Z" fill="#00EA90"/>
<path d="M125.228 51.6162L178.695 79.5837L127.181 111.161L125.228 51.6162ZM94.7718 168.086L41.3049 140.118L92.8193 108.534L94.7718 168.086Z" fill="white" fill-opacity="0.698"/>
<path d="M178.695 142.168L104.356 185.625V124.651L178.695 79.585V142.168ZM41.3049 77.5431L115.644 34.375V95.1087L41.3049 140.119V77.5362V77.5431Z" fill="white"/>
</g>
<defs>
<clipPath id="clip0_108_401">
<rect width="220" height="220" fill="white"/>
</clipPath>
</defs>
</svg>
