<svg width="220" height="220" viewBox="0 0 220 220" fill="none" xmlns="http://www.w3.org/2000/svg">
<g clip-path="url(#clip0_108_402)">
<path d="M110 220C170.751 220 220 170.751 220 110C220 49.2487 170.751 0 110 0C49.2487 0 0 49.2487 0 110C0 170.751 49.2487 220 110 220Z" fill="#FF4A4A"/>
<path d="M132.88 130.494H125.923C125.609 130.495 125.298 130.434 125.008 130.315C124.719 130.195 124.455 130.019 124.234 129.798C124.012 129.576 123.836 129.313 123.717 129.023C123.597 128.733 123.536 128.422 123.537 128.109V109.808L111.354 117.411C110.852 117.728 110.27 117.895 109.677 117.895C109.083 117.895 108.502 117.728 107.999 117.411L95.8856 109.808V128.109C95.8856 129.401 94.8544 130.494 93.5 130.494H86.6044C86.2908 130.495 85.9802 130.434 85.6904 130.315C85.4005 130.195 85.1372 130.019 84.9155 129.798C84.6938 129.576 84.5181 129.313 84.3985 129.023C84.2789 128.733 84.2178 128.422 84.2188 128.109V92.7919C84.2188 91.9532 84.5519 91.1488 85.145 90.5557C85.7381 89.9626 86.5425 89.6294 87.3812 89.6294C88.0206 89.6294 88.5981 89.8288 89.1138 90.2138L108.322 103.428C108.705 103.712 109.169 103.865 109.646 103.865C110.123 103.865 110.587 103.712 110.969 103.428L130.171 90.2138C130.646 89.8957 131.198 89.7112 131.769 89.6795C132.34 89.6479 132.909 89.7702 133.416 90.0337C133.924 90.2972 134.351 90.6923 134.653 91.1775C134.956 91.6628 135.122 92.2203 135.135 92.7919V128.109C135.151 128.415 135.104 128.722 134.998 129.01C134.892 129.298 134.729 129.561 134.518 129.784C134.307 130.007 134.053 130.185 133.772 130.307C133.49 130.429 133.187 130.493 132.88 130.494ZM73.8375 130.433H30.6625C29.8238 130.433 29.0194 130.099 28.4263 129.506C27.8332 128.913 27.5 128.109 27.5 127.27V91.7607C27.5126 91.1212 27.7765 90.5124 28.2345 90.0659C28.6925 89.6195 29.3079 89.3713 29.9475 89.375H36.9187C38.2044 89.375 39.3044 90.4063 39.3044 91.7607V118.766H65.4706V91.7607C65.4706 90.4682 66.5019 89.375 67.8563 89.375H74.6213C75.9137 89.375 77.0069 90.4063 77.0069 91.7607V127.277C77.0051 128.114 76.6711 128.917 76.0782 129.509C75.4853 130.1 74.6819 130.433 73.8444 130.433H73.8375ZM145.64 89.375H188.829C189.666 89.3769 190.469 89.7109 191.061 90.3037C191.652 90.8966 191.984 91.7 191.984 92.5375V128.047C191.984 129.339 190.953 130.433 189.661 130.433H182.703C182.39 130.433 182.079 130.372 181.789 130.253C181.499 130.133 181.236 129.958 181.014 129.736C180.793 129.514 180.617 129.251 180.497 128.961C180.378 128.671 180.317 128.36 180.318 128.047V102.589C180.312 102.18 180.147 101.79 179.859 101.501C179.57 101.212 179.179 101.047 178.771 101.042H155.76C155.351 101.047 154.961 101.212 154.672 101.501C154.383 101.79 154.218 102.18 154.213 102.589V128.047C154.213 129.339 153.182 130.433 151.827 130.433H144.87C144.556 130.433 144.246 130.372 143.956 130.253C143.666 130.133 143.403 129.958 143.181 129.736C142.959 129.514 142.784 129.251 142.664 128.961C142.545 128.671 142.483 128.36 142.484 128.047V92.5307C142.486 91.6931 142.82 90.8905 143.413 90.2989C144.006 89.7073 144.809 89.375 145.647 89.375H145.64Z" fill="white"/>
<path d="M163.756 108.516H170.651C171.937 108.516 173.037 109.547 173.037 110.902V117.928C173.037 119.22 172.006 120.314 170.651 120.314H163.756C163.442 120.315 163.131 120.253 162.841 120.134C162.552 120.014 162.288 119.839 162.067 119.617C161.845 119.395 161.669 119.132 161.55 118.842C161.43 118.552 161.369 118.242 161.37 117.928V110.84C161.37 109.547 162.47 108.516 163.756 108.516Z" fill="white"/>
</g>
<defs>
<clipPath id="clip0_108_402">
<rect width="220" height="220" fill="white"/>
</clipPath>
</defs>
</svg>
