<svg width="220" height="220" viewBox="0 0 220 220" fill="none" xmlns="http://www.w3.org/2000/svg">
<g clip-path="url(#clip0_108_403)">
<path d="M110 220C170.751 220 220 170.751 220 110C220 49.2487 170.751 0 110 0C49.2487 0 0 49.2487 0 110C0 170.751 49.2487 220 110 220Z" fill="#FF007A"/>
<path d="M84.2944 39.6464C82.335 39.3439 82.2525 39.3026 83.1738 39.1651C84.9407 38.8901 89.1207 39.2683 92.0013 39.9489C98.7182 41.5508 104.83 45.6414 111.361 52.9083L113.094 54.8333L115.569 54.4414C126.019 52.757 136.654 54.0976 145.544 58.202C147.991 59.3295 151.848 61.5776 152.329 62.162C152.488 62.3408 152.769 63.5301 152.955 64.7951C153.615 69.1745 153.285 72.5295 151.951 75.0389C151.223 76.4001 151.181 76.8264 151.669 77.9951C151.901 78.4779 152.264 78.8859 152.716 79.1727C153.168 79.4596 153.691 79.6137 154.227 79.6176C156.441 79.6176 158.819 76.0426 159.919 71.072L160.359 69.0989L161.226 70.082C165.983 75.472 169.716 82.8214 170.356 88.0464L170.528 89.4145L169.723 88.177C168.348 86.0458 166.973 84.5883 165.199 83.4126C162.009 81.302 158.634 80.587 149.696 80.1126C141.625 79.6864 137.053 78.9989 132.529 77.5208C124.823 75.0114 120.938 71.6633 111.781 59.6526C107.718 54.3176 105.201 51.3683 102.706 48.9964C97.02 43.5926 91.4375 40.7601 84.2944 39.6464Z" fill="white"/>
<path d="M154.151 51.5601C154.357 47.9851 154.839 45.627 155.815 43.4751C156.2 42.6226 156.564 41.9214 156.619 41.9214C156.558 42.404 156.431 42.8759 156.241 43.3239C155.533 45.4139 155.416 48.2739 155.904 51.5945C156.523 55.8158 156.88 56.4208 161.335 60.9789C163.432 63.117 165.866 65.812 166.746 66.9739L168.348 69.0776L166.746 67.572C164.787 65.7364 160.277 62.1408 159.28 61.632C158.613 61.2883 158.51 61.2951 158.097 61.7008C157.719 62.0858 157.637 62.6495 157.589 65.3376C157.506 69.5176 156.935 72.2126 155.554 74.8939C154.811 76.3376 154.694 76.0351 155.368 74.392C155.87 73.1683 155.918 72.632 155.918 68.5826C155.918 60.4426 154.949 58.4901 149.277 55.1351C147.57 54.1448 145.817 53.2363 144.024 52.4126C143.138 52.0573 142.279 51.6391 141.453 51.1614C141.611 51.0033 147.139 52.612 149.359 53.4714C152.673 54.7433 153.216 54.9083 153.622 54.7501C153.89 54.647 154.02 53.8633 154.151 51.5601ZM88.103 65.482C84.1223 60.0026 81.6611 51.5945 82.1905 45.3108L82.3555 43.3651L83.263 43.5301C84.968 43.8395 87.9036 44.9326 89.2786 45.7714C93.0461 48.0608 94.6823 51.0789 96.3392 58.8201C96.8273 61.0889 97.4667 63.6533 97.7624 64.5264C98.2299 65.922 100.017 69.1876 101.475 71.312C102.52 72.8383 101.819 73.5601 99.5086 73.3539C95.9748 73.0308 91.1898 69.7308 88.103 65.482ZM149.325 106.285C130.714 98.7914 124.162 92.2876 124.162 81.3151C124.162 79.6995 124.217 78.3795 124.279 78.3795C124.348 78.3795 125.07 78.9089 125.881 79.562C129.655 82.587 133.884 83.8795 145.578 85.5845C152.46 86.5951 156.337 87.4064 159.912 88.5889C171.27 92.3564 178.296 100.001 179.974 110.41C180.455 113.435 180.173 119.107 179.382 122.098C178.764 124.463 176.859 128.718 176.357 128.883C176.22 128.925 176.082 128.395 176.041 127.66C175.849 123.755 173.875 119.946 170.555 117.093C166.78 113.855 161.714 111.27 149.318 106.285H149.325ZM136.262 109.393C136.042 108.065 135.742 106.751 135.362 105.46L134.88 104.044L135.767 105.034C136.984 106.409 137.954 108.155 138.765 110.493C139.39 112.273 139.459 112.803 139.452 115.697C139.452 118.543 139.377 119.135 138.799 120.743C137.996 123.102 136.652 125.24 134.874 126.986C131.47 130.451 127.105 132.362 120.794 133.16C119.694 133.297 116.504 133.531 113.692 133.675C106.61 134.046 101.956 134.803 97.7692 136.274C97.3917 136.443 96.9861 136.541 96.573 136.563C96.408 136.391 99.2542 134.693 101.612 133.558C104.933 131.956 108.233 131.083 115.637 129.853C119.295 129.241 123.076 128.505 124.032 128.21C133.093 125.432 137.747 118.268 136.255 109.393H136.262Z" fill="white"/>
<path d="M144.787 124.545C142.312 119.231 141.749 114.095 143.103 109.31C143.247 108.802 143.481 108.382 143.619 108.382C144.084 108.551 144.522 108.787 144.918 109.084C146.059 109.854 148.342 111.146 154.426 114.46C162.023 118.605 166.354 121.816 169.304 125.474C171.882 128.684 173.477 132.342 174.247 136.797C174.68 139.32 174.426 145.39 173.779 147.934C171.737 155.95 166.987 162.248 160.222 165.919C159.583 166.289 158.922 166.617 158.242 166.902C158.146 166.902 158.503 165.988 159.046 164.86C161.315 160.103 161.583 155.469 159.857 150.313C158.806 147.157 156.654 143.3 152.316 136.797C147.269 129.234 146.032 127.213 144.787 124.545ZM74.8894 153.221C81.7987 147.391 90.3856 143.252 98.2162 141.98C101.585 141.43 107.209 141.65 110.33 142.448C115.335 143.727 119.817 146.6 122.148 150.017C124.417 153.359 125.4 156.274 126.411 162.75C126.823 165.307 127.256 167.872 127.387 168.456C128.143 171.811 129.635 174.499 131.477 175.847C134.399 177.985 139.439 178.115 144.389 176.19C144.906 175.953 145.451 175.782 146.011 175.682C146.19 175.86 143.701 177.531 141.941 178.411C139.864 179.522 137.538 180.086 135.183 180.047C130.646 180.047 126.878 177.744 123.736 173.035C123.117 172.107 121.729 169.336 120.642 166.868C117.329 159.305 115.692 156.995 111.842 154.472C108.481 152.272 104.156 151.88 100.904 153.475C96.6281 155.572 95.4387 161.038 98.4981 164.496C99.715 165.871 101.984 167.06 103.84 167.287C104.65 167.395 105.473 167.327 106.254 167.089C107.036 166.85 107.757 166.447 108.369 165.906C108.981 165.365 109.469 164.699 109.802 163.953C110.134 163.207 110.303 162.398 110.296 161.581C110.296 159.299 109.416 158.006 107.216 157.009C104.211 155.655 100.98 157.236 100.994 160.062C101.001 161.265 101.523 162.021 102.733 162.571C103.51 162.915 103.524 162.949 102.891 162.819C100.134 162.241 99.4881 158.92 101.709 156.714C104.369 154.06 109.876 155.229 111.767 158.845C112.564 160.364 112.654 163.396 111.959 165.225C110.412 169.315 105.889 171.46 101.303 170.292C98.1819 169.494 96.91 168.635 93.1494 164.757C86.6112 158.02 84.0744 156.714 74.6419 155.242L72.8337 154.96L74.8962 153.221H74.8894Z" fill="white"/>
<path fill-rule="evenodd" clip-rule="evenodd" d="M42.5974 23.0284L43.2574 23.8328C68.7499 55.0453 81.9224 71.2428 82.7612 72.3978C84.1362 74.309 83.6205 76.0209 81.2555 77.3684C79.9424 78.1178 77.2337 78.874 75.8862 78.874C74.353 78.874 72.6274 78.1384 71.3693 76.949C70.4824 76.1034 66.9005 70.7546 58.6299 57.919C54.7569 51.8525 50.8334 45.8183 46.8599 39.8171C46.523 39.5009 46.5299 39.5078 57.9837 60.0021C65.1749 72.8721 67.6087 77.4165 67.6087 78.0284C67.6087 79.2659 67.2649 79.9121 65.7387 81.6171C63.1949 84.4565 62.0605 87.6465 61.2355 94.2465C60.3143 101.651 57.7293 106.876 50.5518 115.82C46.358 121.059 45.6705 122.021 44.6049 124.132C43.2712 126.786 42.9068 128.278 42.7555 131.633C42.5974 135.18 42.9068 137.476 43.993 140.866C44.9418 143.836 45.9318 145.802 48.4618 149.721C50.648 153.11 51.9062 155.626 51.9062 156.61C51.9062 157.393 52.0574 157.393 55.4468 156.63C63.5524 154.801 70.1318 151.577 73.8374 147.631C76.1268 145.19 76.663 143.843 76.6837 140.495C76.6905 138.308 76.6149 137.848 76.0237 136.59C75.0612 134.541 73.308 132.836 69.4443 130.196C64.3774 126.731 62.2187 123.94 61.6205 120.11C61.1255 116.968 61.6962 114.748 64.5012 108.877C67.3955 102.799 68.1174 100.214 68.6055 94.0884C68.9149 90.1284 69.348 88.5678 70.4893 87.3165C71.6718 86.0103 72.7443 85.5634 75.6799 85.1646C80.4649 84.5115 83.5105 83.274 86.013 80.9709C88.1855 78.9634 89.093 77.0315 89.2305 74.1303L89.3405 71.9303L88.1237 70.514C86.3774 68.479 71.933 52.5428 44.7837 22.6915L44.0549 21.9009L42.5974 23.0353V23.0284ZM54.3812 135.655C54.8608 134.805 55.004 133.807 54.7825 132.857C54.5609 131.907 53.9908 131.075 53.1849 130.526C51.6174 129.481 49.1768 129.976 49.1768 131.337C49.1768 131.75 49.4037 132.052 49.9193 132.32C50.7924 132.767 50.8543 133.276 50.1737 134.3C49.4793 135.345 49.5343 136.267 50.3318 136.892C51.6105 137.896 53.4255 137.339 54.388 135.655H54.3812ZM92.3587 86.3196C90.1105 87.0071 87.9312 89.3928 87.2505 91.8884C86.838 93.4078 87.0718 96.0821 87.6905 96.9071C88.6874 98.2409 89.6568 98.5915 92.2693 98.5709C97.3843 98.5365 101.826 96.3434 102.348 93.6003C102.774 91.3521 100.815 88.2378 98.1268 86.8628C96.738 86.1615 93.7887 85.8796 92.3587 86.3196ZM98.3399 90.9946C99.1305 89.874 98.7799 88.6571 97.4462 87.8459C94.8887 86.2853 91.0249 87.5709 91.0249 89.9909C91.0249 91.1871 93.0393 92.5003 94.8818 92.5003C96.1193 92.5003 97.7968 91.7646 98.3399 90.9946Z" fill="white"/>
</g>
<defs>
<clipPath id="clip0_108_403">
<rect width="220" height="220" fill="white"/>
</clipPath>
</defs>
</svg>
