<svg width="220" height="220" viewBox="0 0 220 220" fill="none" xmlns="http://www.w3.org/2000/svg">
<g clip-path="url(#clip0_108_404)">
<path d="M110 220C170.751 220 220 170.751 220 110C220 49.2487 170.751 0 110 0C49.2487 0 0 49.2487 0 110C0 170.751 49.2487 220 110 220Z" fill="#F58634"/>
<path d="M91.3549 156.283H91.3824C99.5567 155.293 106.432 152.818 112.007 148.858C119.391 143.564 123.083 136.84 123.083 128.687C123.083 121.812 120.381 116.057 114.984 111.348C109.574 106.652 102.245 103.799 92.998 102.809C89.8561 102.403 85.4011 102.108 79.6811 101.778C67.2099 101.022 59.118 99.3165 55.3643 96.6422C54.0298 95.6848 52.9065 94.4633 52.0642 93.0534C51.3507 91.7715 50.9812 90.3267 50.9917 88.8597C50.9917 85.0028 53.2192 81.744 57.7086 79.1797C62.1911 76.6222 67.8561 75.3159 74.7449 75.3159C81.2692 75.3159 87.7386 76.4297 93.8574 78.6159C120.161 87.9934 145.282 120.773 162.009 144.245C148.376 152.529 129.807 157.637 109.347 157.637C103.324 157.637 97.3086 157.19 91.3549 156.283ZM61.9367 142.932C37.9224 134.166 27.4105 112.503 39.2699 91.4653C39.5999 94.4215 40.693 97.2609 42.453 99.7153C44.653 102.802 47.8842 105.312 52.1261 107.285C66.9417 113.72 94.1874 109.608 105.407 117.783C109.182 120.533 111.072 124.046 111.072 128.329C111.072 133.712 108.439 138.119 103.173 141.543C97.9136 144.967 91.0661 146.678 82.6374 146.678C75.5744 146.639 68.5721 145.371 61.9436 142.932H61.9367Z" fill="white"/>
<path opacity="0.5" d="M178.145 129.766V89.5197C182.662 95.6316 185.185 102.458 185.185 109.643C185.185 116.834 182.662 123.647 178.145 129.766ZM166.808 78.4785L166.842 129.773C150.734 106.907 126.665 78.1347 97.0818 68.5235C91.964 66.8523 86.677 65.7524 81.3174 65.2441C90.4885 62.984 99.9013 61.8527 109.347 61.8753C132.309 61.8753 152.9 68.3103 166.808 78.4785Z" fill="white"/>
</g>
<defs>
<clipPath id="clip0_108_404">
<rect width="220" height="220" fill="white"/>
</clipPath>
</defs>
</svg>
