<svg width="220" height="220" viewBox="0 0 220 220" fill="none" xmlns="http://www.w3.org/2000/svg">
<g clip-path="url(#clip0_108_405)">
<path d="M110 220C170.751 220 220 170.751 220 110C220 49.2487 170.751 0 110 0C49.2487 0 0 49.2487 0 110C0 170.751 49.2487 220 110 220Z" fill="#6CDE07"/>
<path fill-rule="evenodd" clip-rule="evenodd" d="M154.688 131.684C154.688 149.352 140.346 161.081 119.171 162.848V178.75H104.665V162.69C90.3422 161.075 76.7338 155.574 65.3125 146.781L75.9825 132.165C85.4906 139.556 94.49 144.375 105.332 145.984V114.496C80.9875 108.391 69.6506 99.5569 69.6506 81.4069C69.6506 64.0612 83.82 52.1744 104.665 50.5656V41.25H119.171V50.8888C130.509 52.1481 141.318 56.3581 150.521 63.0988L141.178 78.1962C133.842 72.8956 126.342 69.52 118.504 67.9181V98.4362C143.852 104.541 154.688 114.338 154.688 131.684ZM105.325 95.0606V66.7906C94.8269 67.595 89.3269 73.2188 89.3269 80.2863C89.3269 87.0238 92.4894 91.3688 105.332 95.0675L105.325 95.0606ZM135.011 132.804C135.011 125.586 131.505 121.247 118.504 117.549V146.63C129.009 145.819 135.011 140.518 135.011 132.811V132.804Z" fill="white"/>
</g>
<defs>
<clipPath id="clip0_108_405">
<rect width="220" height="220" fill="white"/>
</clipPath>
</defs>
</svg>
