<svg width="220" height="220" viewBox="0 0 220 220" fill="none" xmlns="http://www.w3.org/2000/svg">
<g clip-path="url(#clip0_108_406)">
<path d="M110 220C170.751 220 220 170.751 220 110C220 49.2487 170.751 0 110 0C49.2487 0 0 49.2487 0 110C0 170.751 49.2487 220 110 220Z" fill="#2775C9"/>
<path d="M108.281 189.062C63.6625 189.062 27.5 152.9 27.5 108.281C27.5 63.6625 63.6625 27.5 108.281 27.5C152.9 27.5 189.062 63.6625 189.062 108.281C189.062 129.706 180.552 150.253 165.402 165.402C150.253 180.552 129.706 189.062 108.281 189.062ZM103.469 78.3063C99.0489 78.5254 94.8705 80.3889 91.7541 83.5308C88.6377 86.6726 86.8082 90.866 86.625 95.2875C86.625 103.606 91.7125 109.038 102.506 111.306L110.069 113.094C117.425 114.813 120.45 117.287 120.45 121.481C120.45 125.675 115.156 129.8 108.281 129.8C105.839 130.024 103.384 129.556 101.195 128.449C99.0066 127.343 97.1738 125.643 95.9062 123.544C95.5307 122.747 94.9378 122.073 94.1959 121.599C93.4539 121.124 92.5931 120.869 91.7125 120.863H87.6562C87.3443 120.92 87.0469 121.039 86.7811 121.212C86.5153 121.385 86.2863 121.609 86.1074 121.871C85.9285 122.133 85.8032 122.428 85.7386 122.739C85.6741 123.049 85.6716 123.37 85.7313 123.681C86.7193 127.714 89.0166 131.305 92.2635 133.893C95.5104 136.48 99.5236 137.918 103.675 137.981V143.756C103.675 145.042 104.186 146.275 105.095 147.184C106.004 148.092 107.236 148.603 108.522 148.603C109.807 148.603 111.04 148.092 111.949 147.184C112.858 146.275 113.369 145.042 113.369 143.756V137.912C118.063 137.859 122.551 135.976 125.877 132.663C129.203 129.349 131.104 124.869 131.175 120.175C131.175 111.444 126.156 106.425 114.263 103.881L107.387 102.369C100.512 100.65 97.2812 98.3812 97.2812 94.5312C97.2812 90.6813 101.406 86.4187 108.281 86.4187C110.446 86.1926 112.631 86.5981 114.571 87.5863C116.51 88.5745 118.123 90.1031 119.213 91.9875C119.654 92.9286 120.354 93.7252 121.23 94.2849C122.106 94.8446 123.123 95.1446 124.162 95.15H127.394C128.128 94.9703 128.763 94.5095 129.162 93.8667C129.56 93.2239 129.691 92.4504 129.525 91.7125C128.594 87.9893 126.51 84.6552 123.572 82.1861C120.634 79.717 116.991 78.2388 113.162 77.9625V73.2187C113.162 71.9333 112.652 70.7005 111.743 69.7915C110.834 68.8825 109.601 68.3719 108.316 68.3719C107.03 68.3719 105.797 68.8825 104.888 69.7915C103.979 70.7005 103.469 71.9333 103.469 73.2187V78.3063ZM47.7125 108.281C47.7204 120.945 51.7067 133.287 59.1084 143.563C66.5101 153.839 76.9531 161.53 88.9625 165.55H89.925C90.7455 165.55 91.5324 165.224 92.1126 164.644C92.6928 164.064 93.0187 163.277 93.0187 162.456V161.012C93.021 159.733 92.6433 158.481 91.9334 157.416C91.2235 156.351 90.2134 155.521 89.0312 155.031C79.6785 151.256 71.6674 144.772 66.026 136.412C60.3847 128.051 57.3706 118.195 57.3706 108.109C57.3706 98.0235 60.3847 88.1678 66.026 79.8072C71.6674 71.4466 79.6785 64.9626 89.0312 61.1875C90.208 60.7095 91.2157 59.8918 91.9259 58.8388C92.6361 57.7858 93.0165 56.5451 93.0187 55.275V53.6938C93.0232 53.2295 92.9156 52.771 92.7052 52.3571C92.4947 51.9433 92.1875 51.5863 91.8097 51.3164C91.4319 51.0465 90.9946 50.8718 90.5348 50.8069C90.0751 50.742 89.6065 50.789 89.1688 50.9437C77.1097 54.9319 66.6139 62.6182 59.172 72.9111C51.73 83.2039 47.7204 95.5799 47.7125 108.281ZM168.85 108.281C168.828 95.6288 164.835 83.3024 157.434 73.0401C150.033 62.7778 139.598 55.0972 127.6 51.0812H126.569C125.712 51.0812 124.89 51.4217 124.284 52.0277C123.678 52.6336 123.338 53.4555 123.338 54.3125V55.3438C123.365 56.6697 123.776 57.9594 124.52 59.0572C125.264 60.1551 126.31 61.0143 127.531 61.5312C136.863 65.3174 144.852 71.8018 150.477 80.1545C156.102 88.5073 159.107 98.3485 159.107 108.419C159.107 118.489 156.102 128.33 150.477 136.683C144.852 145.036 136.863 151.52 127.531 155.306C126.333 155.829 125.309 156.682 124.578 157.765C123.848 158.849 123.441 160.118 123.406 161.425V162.594C123.412 163.103 123.538 163.604 123.775 164.056C124.012 164.508 124.352 164.897 124.767 165.192C125.183 165.487 125.662 165.679 126.167 165.753C126.671 165.828 127.186 165.781 127.669 165.619C139.676 161.584 150.112 153.877 157.502 143.588C164.892 133.3 168.861 120.949 168.85 108.281Z" fill="white"/>
</g>
<defs>
<clipPath id="clip0_108_406">
<rect width="220" height="220" fill="white"/>
</clipPath>
</defs>
</svg>
