<svg width="220" height="220" viewBox="0 0 220 220" fill="none" xmlns="http://www.w3.org/2000/svg">
<g clip-path="url(#clip0_304_119)">
<g opacity="0.98">
<path opacity="0.98" d="M110 220C88.2441 220 66.9767 213.549 48.8873 201.462C30.7979 189.375 16.6989 172.195 8.3733 152.095C0.0476609 131.995 -2.13071 109.878 2.11367 88.5401C6.35804 67.2022 16.8345 47.6021 32.2183 32.2183C47.6021 16.8345 67.2022 6.35804 88.5401 2.11367C109.878 -2.13071 131.995 0.0476609 152.095 8.3733C172.195 16.6989 189.375 30.7979 201.462 48.8873C213.549 66.9767 220 88.2441 220 110C220 139.174 208.411 167.153 187.782 187.782C167.153 208.411 139.174 220 110 220Z" fill="#112451"/>
</g>
<path d="M114.468 125.467C114.468 125.467 100.031 133.029 100.718 144.923C101.406 156.817 117.356 174.898 126.981 171.323C136.606 167.748 163.418 152.211 166.168 136.948C168.918 121.686 142.243 114.123 142.243 114.123L114.468 125.467Z" fill="#2844AD"/>
<path d="M151.731 60.6384C142.914 53.4618 132.256 48.9087 120.975 47.4986C109.694 46.0884 98.244 47.8781 87.9313 52.6634L72.3251 74.9384C73.0722 77.4434 74.4312 79.7229 76.2796 81.5713C78.128 83.4197 80.4076 84.7788 82.9126 85.5259C91.8501 88.4821 130.556 73.5634 130.556 73.5634L151.731 60.6384Z" fill="#2844AD"/>
<path d="M50.0487 82.4993C50.0487 82.4993 63.1112 58.5055 80.5737 52.9368C98.0362 47.368 95.5612 64.8305 80.5737 71.9118C65.5862 78.993 56.1675 83.0493 50.0487 82.4993Z" fill="#5493F7"/>
<path d="M47.574 89.9258C47.574 89.9258 27.499 146.232 82.499 171.876C82.499 171.876 86.7615 149.395 78.9927 135.163C73.2286 123.777 66.2685 113.038 58.2302 103.126C54.3959 98.9613 50.8363 94.552 47.574 89.9258Z" fill="#5493F7"/>
<path d="M168.025 144.375C168.025 144.375 153.656 171.875 132.893 171.875C132.363 171.708 131.873 171.432 131.455 171.065C131.038 170.698 130.701 170.247 130.468 169.742C130.235 169.237 130.11 168.689 130.102 168.132C130.093 167.576 130.201 167.024 130.418 166.512C131.725 162.525 144.718 148.362 168.025 144.375Z" fill="#5493F7"/>
<path d="M152.211 61.0528C160.243 67.184 166.525 75.3152 170.43 84.634C176.794 99.9014 177.716 116.892 173.043 132.759C169.536 142.04 164.105 139.634 152.418 137.159C140.73 134.684 96.2488 122.172 84.7676 106.909C73.2863 91.6465 82.1551 79.409 97.0051 71.5028C111.855 63.5965 142.38 55.0028 152.211 61.0528Z" fill="#5493F7"/>
<path d="M90.4062 155.996L89.375 131.383L122.65 129.39C122.65 130.49 122.65 131.59 122.65 132.69C122.65 133.79 122.65 135.027 122.65 136.196C122.65 137.365 122.65 138.602 122.65 139.771C122.65 140.94 122.65 142.108 122.65 143.277C122.65 144.446 122.65 145.683 122.65 146.852C122.65 148.021 122.65 149.258 122.65 150.427C122.65 151.596 122.65 152.627 122.65 153.658C122.65 153.658 122.65 154.69 122.65 153.658L90.3375 155.583C90.3375 155.583 90.6125 156.133 90.4062 155.996Z" fill="#3C3B6E"/>
<path d="M174.761 168.711C174.761 169.811 174.761 170.98 174.761 172.08C174.761 172.08 174.761 173.18 174.761 172.08L91.574 177.099C91.574 177.099 91.574 174.899 91.574 173.799H92.124L174.624 168.849C174.624 168.849 174.555 168.574 174.761 168.711Z" fill="#B12234"/>
<path d="M174.763 168.715H174.419L91.369 173.733V170.158H91.919L174.419 165.208C174.597 165.145 174.791 165.145 174.969 165.208L174.763 168.715Z" fill="#FEFEFE"/>
<path d="M174.351 158.125V161.7H173.939L91.4388 166.719C91.2609 166.782 91.0667 166.782 90.8888 166.719V163.144H91.5075L174.008 158.125C174.008 158.125 174.214 158.125 174.351 158.125Z" fill="#FEFEFE"/>
<path d="M174.349 158.126L91.1611 163.145V159.639L173.661 154.62C173.661 154.62 174.074 154.62 174.28 154.62L174.349 158.126Z" fill="#B12234"/>
<path d="M174.281 154.479H173.937L90.8185 159.498V155.923L123.75 153.998H124.575L173.731 151.042C173.731 151.042 174.075 151.042 174.281 151.042V154.479Z" fill="#FEFEFE"/>
<path d="M90.8185 166.649L173.937 161.63V165.136L90.8185 170.155V166.649Z" fill="#B12234"/>
<path d="M123.2 132.687V129.112L173.181 126.087C173.181 126.087 173.181 128.356 173.181 129.456H172.562L123.75 132.687C123.75 132.687 123.337 132.824 123.2 132.687Z" fill="#B12234"/>
<path d="M123.2 132.69L129.25 132.278L173.043 129.665V133.171L123.75 136.265C123.674 136.333 123.576 136.37 123.475 136.37C123.373 136.37 123.275 136.333 123.2 136.265V132.69Z" fill="#FEFEFE"/>
<path d="M123.75 150.424V146.849H124.3L173.388 143.824C173.388 143.824 173.8 143.824 173.938 143.824V147.399L124.712 150.355C124.712 150.355 123.75 150.562 123.75 150.424Z" fill="#FEFEFE"/>
<path d="M173.869 143.826L123.75 146.851V143.276H124.3L173.388 140.319C173.388 140.319 173.8 140.319 173.938 140.319L173.869 143.826Z" fill="#B12234"/>
<path d="M173.731 140.252L163.694 140.871L123.75 143.277V139.771L173.044 136.814H173.525L173.731 140.252Z" fill="#FEFEFE"/>
<path d="M123.75 150.427L173.594 147.402V150.909L123.888 153.865L123.75 150.427Z" fill="#B12234"/>
<path d="M173.663 136.676H173.319L123.75 139.77V136.195L139.15 135.301L173.525 133.17L173.663 136.676Z" fill="#B12234"/>
<path d="M114.538 148.225V147.4C114.538 147.4 114.538 147.4 114.538 147.056C114.324 146.965 114.135 146.823 113.988 146.643H114.744V145.818C114.744 145.818 114.744 146.231 114.744 146.437C114.744 146.643 114.744 146.781 115.225 146.437H115.775L115.225 146.918C115.207 147.17 115.207 147.423 115.225 147.675L114.538 147.262V148.225Z" fill="#FDFDFD"/>
<path d="M97.349 147.674H97.9677C97.9677 147.674 97.9677 147.674 98.3115 147.674C98.2587 147.448 98.2587 147.212 98.3115 146.986C98.3115 146.986 98.3115 147.468 98.3115 147.743C98.3115 147.743 98.3115 148.018 98.3115 147.743H99.1365C99.1365 147.743 99.1365 148.086 98.5865 148.155C98.0365 148.224 98.5865 148.155 98.5865 148.705C98.6067 148.911 98.6067 149.118 98.5865 149.324L97.9677 148.911C97.793 149.109 97.5832 149.272 97.349 149.393C97.3799 149.141 97.3799 148.887 97.349 148.636C97.349 148.636 97.349 148.636 97.349 148.293L96.7302 147.88L97.349 147.674Z" fill="#FDFDFD"/>
<path d="M107.455 141.145L106.837 140.733L106.218 141.283C106.201 141.008 106.201 140.732 106.218 140.458L105.599 139.976H106.355C106.336 139.702 106.336 139.426 106.355 139.151V139.77C106.355 139.77 106.355 139.77 106.768 139.77H107.387L106.837 140.251C106.812 140.305 106.799 140.364 106.799 140.423C106.799 140.483 106.812 140.541 106.837 140.595C107.072 140.742 107.282 140.928 107.455 141.145Z" fill="#FDFDFD"/>
<path d="M115.981 131.654L115.5 131.998C115.457 132.03 115.423 132.072 115.399 132.119C115.375 132.167 115.363 132.22 115.363 132.273C115.363 132.326 115.375 132.379 115.399 132.427C115.423 132.475 115.457 132.516 115.5 132.548V133.167L114.813 132.754L114.194 133.304V132.479L113.575 131.998H114.263C114.263 131.998 114.263 131.998 114.606 131.998C114.574 131.77 114.574 131.539 114.606 131.311C114.606 131.311 114.606 131.311 114.606 131.723C114.606 132.136 114.606 132.204 115.225 132.136H115.706L115.981 131.654Z" fill="#FDFDFD"/>
<path d="M94.2552 140.385H95.0114V139.629C95.0398 139.88 95.0398 140.134 95.0114 140.385H95.7677C95.6153 140.56 95.4279 140.7 95.2177 140.798V141.279V141.966L94.5989 141.554C94.5989 141.554 94.5989 141.554 94.2552 141.554L93.6364 142.035C93.5966 141.808 93.5966 141.575 93.6364 141.348C93.6364 141.348 93.6364 141.004 93.6364 140.866H93.1552L94.2552 140.385Z" fill="#FDFDFD"/>
<path d="M113.438 139.288L112.819 139.769C112.869 140.019 112.869 140.276 112.819 140.526L112.201 140.113C112.201 140.113 112.201 140.113 111.857 140.113C111.683 140.33 111.474 140.516 111.238 140.663C111.238 140.319 111.238 140.044 111.238 139.838C111.238 139.632 111.238 139.838 111.238 139.838C111.025 139.716 110.838 139.552 110.688 139.357H111.376C111.349 139.105 111.349 138.852 111.376 138.601V139.151C111.376 139.563 111.376 139.563 111.857 139.494H112.407L113.438 139.288Z" fill="#FDFDFD"/>
<path d="M120.793 145.268C120.811 145.519 120.811 145.772 120.793 146.024H121.549L120.999 146.436C120.999 146.436 120.999 146.436 120.999 146.849C121.068 147.073 121.068 147.312 120.999 147.536L120.38 147.124C120.22 147.336 120.007 147.502 119.762 147.605V146.918C119.762 146.918 119.762 146.918 119.762 146.505C119.548 146.414 119.359 146.272 119.212 146.093H119.968L120.793 145.268Z" fill="#FDFDFE"/>
<path d="M103.126 147.333H103.813C103.783 147.082 103.783 146.828 103.813 146.577V147.265H104.226H104.845L104.295 147.746C104.295 147.746 104.295 147.746 104.295 148.09C104.312 148.341 104.312 148.594 104.295 148.846L103.676 148.433L103.057 148.983V148.158C103.082 148.104 103.095 148.046 103.095 147.987C103.095 147.927 103.082 147.869 103.057 147.815H102.507L103.126 147.333Z" fill="#FDFDFE"/>
<path d="M92.401 132.068C92.3896 132.297 92.3896 132.527 92.401 132.756H93.0885L92.6073 133.168C92.6073 133.168 92.6073 133.168 92.6073 133.65C92.6187 133.879 92.6187 134.108 92.6073 134.337L91.9198 133.856L91.301 134.268V133.581L90.6135 133.168H91.3698C91.3698 133.168 91.3698 133.168 91.7135 133.168C91.8764 132.764 92.1091 132.392 92.401 132.068Z" fill="#FDFDFD"/>
<path d="M104.363 133.857L103.745 133.445L103.126 133.995C103.109 133.72 103.109 133.444 103.126 133.17L102.507 132.688H103.126V132.001C103.154 132.252 103.154 132.506 103.126 132.757H103.882L103.263 133.238C103.263 133.238 103.263 133.238 103.263 133.582C103.649 133.565 104.031 133.661 104.363 133.857Z" fill="#FDFDFD"/>
<path d="M109.107 131.035C109.125 131.287 109.125 131.54 109.107 131.791H109.863L109.244 132.341C109.244 132.341 109.244 132.823 109.244 133.098L108.694 132.685C108.694 132.685 108.35 132.685 108.213 132.685L107.732 133.098C107.693 132.87 107.693 132.638 107.732 132.41V131.998L107.113 131.585H107.938L109.107 131.035Z" fill="#FDFDFD"/>
<path d="M119.899 131.657C119.845 131.407 119.845 131.15 119.899 130.9C119.86 131.151 119.86 131.406 119.899 131.657Z" fill="#FDFDFD"/>
<path d="M108.968 148.429V147.741L108.281 147.26H109.037V146.504C109.037 146.504 109.037 147.054 109.037 147.26C109.037 147.26 109.037 147.466 109.037 147.26H109.862L109.243 147.81C109.225 148.062 109.225 148.315 109.243 148.566L108.556 148.154L108.006 148.635L108.968 148.429Z" fill="#FDFDFD"/>
<path d="M100.995 139.011C100.995 139.629 100.995 139.629 101.889 139.629L101.339 140.111C101.377 140.361 101.377 140.616 101.339 140.867L100.72 140.454C100.72 140.454 100.72 140.454 100.376 140.454L99.826 140.936C99.7873 140.685 99.7873 140.43 99.826 140.179L99.2073 139.698H99.8948L100.995 139.011Z" fill="#FDFDFD"/>
<path d="M91.8503 152.968H92.6753V152.143C92.6639 152.372 92.6639 152.601 92.6753 152.83H93.4316L92.8128 153.38C92.7946 153.632 92.7946 153.885 92.8128 154.136L92.1253 153.724L91.5066 154.205V153.449L91.8503 152.968Z" fill="#FDFDFE"/>
<path d="M109.174 153.45C109.174 153.45 109.174 152.969 109.174 152.762C109.174 152.556 109.174 152.762 109.174 152.762L108.486 152.281H109.311L109.999 151.25C110.027 151.501 110.027 151.755 109.999 152.006C110.223 151.937 110.462 151.937 110.686 152.006L110.067 152.488C110.096 152.739 110.096 152.992 110.067 153.244L109.999 152.969C109.999 152.969 109.999 152.969 109.655 152.969L109.105 153.381L109.174 153.45Z" fill="#FDFDFE"/>
<path d="M121 150.217C121 150.217 121 150.767 121 151.042C121 151.042 121 151.317 121 151.042H121.825L121.206 151.592C121.206 151.592 121.206 151.592 121.206 151.936V152.692L120.518 152.211L119.9 152.761V151.936L119.762 151.248H120.518C120.637 150.886 120.799 150.54 121 150.217Z" fill="#FDFDFE"/>
<path d="M99.4817 137.499C99.246 137.646 99.0368 137.832 98.8629 138.049C98.8913 138.3 98.8913 138.554 98.8629 138.805L98.1754 138.393L97.4879 138.943C97.5115 138.668 97.5115 138.392 97.4879 138.118L96.8004 137.636C97.0514 137.602 97.3057 137.602 97.5567 137.636C97.5567 137.636 97.5567 137.636 97.9004 137.293C97.8682 137.088 97.8682 136.879 97.9004 136.674C97.9558 136.9 97.9558 137.136 97.9004 137.361L99.4817 137.499Z" fill="#FEFEFE"/>
<path d="M115.774 138.185L115.086 137.704L114.468 138.254V137.429L113.78 136.947H114.33C114.743 136.947 114.743 136.947 114.88 136.466V135.916V136.741H115.636L115.018 137.291L115.774 138.185Z" fill="#FEFEFE"/>
<path d="M96.2501 146.78V146.368C96.2501 146.368 96.2501 146.368 95.8376 146.368L95.2876 146.849C95.2876 146.505 95.2876 146.299 95.2876 146.024C95.2876 145.749 95.2876 146.024 95.2876 146.024L94.6688 145.543H95.4251C95.3632 145.271 95.3632 144.989 95.4251 144.718C95.4251 144.718 95.4251 145.268 95.4251 145.474H96.2501L95.5626 146.024C95.8075 146.261 96.0372 146.514 96.2501 146.78Z" fill="#FEFEFE"/>
<path d="M111.099 144.374H111.924V143.549C111.942 143.801 111.942 144.053 111.924 144.305H112.68L112.061 144.855C112.042 145.13 112.042 145.405 112.061 145.68L111.443 145.199C111.443 145.199 111.443 145.199 111.099 145.199L110.48 145.68V144.924C110.48 144.924 110.48 144.924 110.48 144.58L111.099 144.374Z" fill="#FEFEFE"/>
<path d="M102.437 137.498H103.124C103.124 137.498 103.468 137.498 103.537 137.154V136.467C103.537 136.467 103.537 137.017 103.537 137.292C103.537 137.292 103.537 137.567 103.537 137.292H104.362L103.743 137.842C103.772 138.093 103.772 138.347 103.743 138.598L103.124 138.186C102.95 138.402 102.741 138.588 102.506 138.736C102.506 138.392 102.506 138.186 102.506 137.911C102.506 137.636 102.506 137.911 102.506 137.911L102.437 137.498Z" fill="#FEFEFE"/>
<path d="M97.4197 152.624H98.1072C98.1072 152.624 98.4509 152.624 98.5197 152.28C98.4936 152.052 98.4936 151.821 98.5197 151.593C98.538 151.845 98.538 152.097 98.5197 152.349H99.2759L98.6572 152.899C98.6389 153.151 98.6389 153.404 98.6572 153.655L97.9697 153.243L97.351 153.793V153.037C97.351 153.037 97.351 153.037 97.351 152.624H97.4197Z" fill="#FDFDFE"/>
<path d="M116.257 153.109L115.638 152.627L114.951 153.177C114.951 153.177 114.951 152.627 114.951 152.421C114.951 152.215 114.951 152.421 114.951 152.077L114.263 151.596H115.088C115.027 151.348 115.027 151.088 115.088 150.84V151.321C115.088 151.734 115.088 151.734 115.707 151.734H116.876L116.257 152.284C116.257 152.284 116.257 152.284 116.257 152.627C116.264 152.788 116.264 152.948 116.257 153.109Z" fill="#FDFDFE"/>
<path d="M99.9624 144.996H100.65C100.65 144.996 100.65 144.996 100.65 144.652V143.965C100.65 143.965 100.65 144.515 100.65 144.79C100.65 144.79 100.65 145.065 100.65 144.79H101.475L100.856 145.34C100.838 145.592 100.838 145.844 100.856 146.096L100.169 145.684C99.9757 145.86 99.7687 146.021 99.5499 146.165V145.409L99.9624 144.996Z" fill="#FEFEFE"/>
<path d="M105.53 144.374H106.355C106.355 144.374 106.355 143.893 106.355 143.549V144.305H107.111L106.492 144.855V145.543L105.874 145.199H105.461L104.911 145.68C104.911 145.336 104.911 145.13 104.911 144.855C104.911 144.58 104.911 144.855 104.911 144.855L105.53 144.374Z" fill="#FEFEFE"/>
<path d="M118.8 145.474L118.181 144.993C118.181 144.993 118.181 144.993 117.837 144.993L117.219 145.474C117.202 145.222 117.202 144.969 117.219 144.718L116.875 144.374H117.7C117.7 144.374 117.7 143.893 117.7 143.549V144.168C117.7 144.168 117.7 144.58 118.113 144.511H118.731L118.181 144.993C118.181 144.993 118.181 144.993 118.181 145.405L118.8 145.474Z" fill="#FEFEFE"/>
<path d="M110.62 136.882L110.001 137.5V138.325L109.382 137.844H108.97L108.42 138.325C108.38 138.075 108.38 137.82 108.42 137.569C108.42 137.569 108.42 137.569 108.42 137.225L107.801 136.813H108.489V136.057C108.489 136.057 108.489 136.607 108.489 136.813L110.62 136.882Z" fill="#FEFEFE"/>
<path d="M91.9188 139.561C91.8864 139.31 91.8864 139.056 91.9188 138.805L91.2313 138.323H91.8501C92.1938 138.323 92.1938 138.323 92.3313 137.842C92.3134 137.659 92.3134 137.475 92.3313 137.292V138.048H93.1563L92.4688 138.598C92.5076 138.849 92.5076 139.104 92.4688 139.355L91.8501 138.942C91.8501 138.942 91.8501 138.942 91.5063 138.942C91.6841 139.118 91.8245 139.329 91.9188 139.561Z" fill="#FEFEFE"/>
<path d="M108.211 149.529C108.211 149.529 107.593 149.873 107.524 150.148C107.503 150.445 107.503 150.744 107.524 151.042L106.905 150.56C106.905 150.56 106.905 150.56 106.561 150.56L105.943 151.042C105.943 151.042 105.943 150.492 105.943 150.217C105.943 149.942 105.943 150.217 105.943 150.217L105.324 149.804H106.08V149.048C106.108 149.276 106.108 149.507 106.08 149.735C106.08 149.735 106.08 149.735 106.424 149.735L108.211 149.529Z" fill="#FEFEFE"/>
<path d="M97.0757 142.722H97.8319V141.897C97.8516 142.172 97.8516 142.448 97.8319 142.722H98.6569L98.0382 143.272C98.0185 143.547 98.0185 143.823 98.0382 144.097L97.4194 143.616C97.4194 143.616 97.4194 143.616 97.0757 143.616L97.6257 144.372V143.547L97.0757 142.722Z" fill="#FEFEFE"/>
<path d="M102.094 134.957L101.544 135.439C101.544 135.439 101.544 135.439 101.544 135.782V136.539L100.856 136.057L100.306 136.539V135.714L99.6875 135.301H100.444C100.444 135.301 100.444 134.82 100.444 134.476C100.444 134.132 100.444 135.026 100.444 135.301C100.444 135.301 100.444 135.576 100.444 135.301H101.2L102.094 134.957Z" fill="#FEFEFE"/>
<path d="M118.799 133.991L118.318 134.404C118.318 134.404 118.318 134.404 118.318 134.816C118.357 135.044 118.357 135.276 118.318 135.504L117.699 135.091C117.699 135.091 117.699 135.091 117.356 135.091L116.737 135.641C116.72 135.366 116.72 135.091 116.737 134.816V134.472L116.187 134.06H116.874V133.304C116.903 133.555 116.903 133.809 116.874 134.06H117.562L118.799 133.991Z" fill="#FEFEFE"/>
<path d="M92.0552 144.374C92.0552 144.03 92.0552 143.824 92.0552 143.549C92.0552 143.274 92.0552 143.549 92.0552 143.549L91.4364 143.136H92.1926C92.1926 143.136 92.1926 142.655 92.1926 142.311C92.1926 141.968 92.1926 142.861 92.1926 143.067C92.1926 143.067 92.1926 143.274 92.1926 143.067H92.8801C92.8801 143.067 92.8801 143.067 92.5364 143.48C92.1926 143.892 92.5364 143.48 92.5364 144.167V144.717L91.8489 144.236L92.0552 144.374Z" fill="#FEFEFE"/>
<path d="M108.762 143.549V142.793C108.762 142.793 108.762 142.793 108.762 142.449C108.527 142.36 108.316 142.219 108.144 142.037H108.831C108.848 141.785 108.848 141.532 108.831 141.28V142.105H109.656L108.969 142.655C108.969 142.655 108.969 143.137 108.969 143.48L110 142.999L108.762 143.549Z" fill="#FEFEFE"/>
<path d="M116.875 148.983H117.494V148.296C117.494 148.296 117.494 148.777 117.494 149.052C117.494 149.052 117.494 149.327 117.494 149.052H118.182C118.077 149.244 117.906 149.391 117.7 149.465C117.7 149.465 117.7 149.465 117.7 149.946C117.712 150.175 117.712 150.404 117.7 150.633L117.15 150.29C117.15 150.29 116.807 150.29 116.6 150.29L116.119 150.702C116.079 150.475 116.079 150.242 116.119 150.015V149.602L116.875 149.052V148.983Z" fill="#FEFEFE"/>
<path d="M113.781 149.189L113.231 149.671C113.231 149.671 113.231 149.671 113.231 150.014C113.212 150.266 113.212 150.519 113.231 150.771L112.612 150.358C112.612 150.358 112.612 150.358 112.199 150.358L111.649 150.839V150.014C111.423 149.91 111.214 149.771 111.031 149.602H111.787C111.764 149.35 111.764 149.097 111.787 148.846C111.817 149.074 111.817 149.305 111.787 149.533H112.199L113.781 149.189Z" fill="#FEFEFE"/>
<path d="M102.713 149.808L102.094 150.358C102.094 150.358 102.094 150.358 102.094 150.701C102.144 150.951 102.144 151.208 102.094 151.458L101.682 151.251C101.682 151.251 101.682 151.251 101.269 151.251L100.65 151.733V150.976C100.65 150.976 100.65 150.976 100.65 150.633L99.9628 150.22H100.719C100.736 149.968 100.736 149.716 100.719 149.464C100.747 149.715 100.747 149.969 100.719 150.22C100.719 150.22 100.719 150.22 101.063 150.22L102.713 149.808Z" fill="#FEFEFE"/>
<path d="M95.7691 149.256C95.7888 149.531 95.7888 149.806 95.7691 150.081H96.5253L95.9066 150.631C95.9265 150.906 95.9265 151.181 95.9066 151.456L96.2503 151.25C96.0764 151.466 95.8673 151.652 95.6316 151.8C95.6316 151.456 95.6316 151.25 95.6316 150.975C95.6316 150.7 95.6316 150.975 95.6316 150.975L94.9441 150.562H95.7691C95.7691 150.562 95.7003 149.6 95.7691 149.256Z" fill="#FEFEFE"/>
<path d="M106.013 134.751C105.99 134.5 105.99 134.247 106.013 133.995C106.041 134.246 106.041 134.5 106.013 134.751Z" fill="#FEFEFE"/>
<path d="M111.993 133.304C112.012 133.578 112.012 133.854 111.993 134.129H112.749L112.199 134.61C112.199 134.61 112.199 135.091 112.199 135.366L111.58 134.954L110.961 135.435C110.922 135.208 110.922 134.975 110.961 134.747C110.961 134.747 110.961 134.404 110.961 134.266L110.48 133.922H111.168C111.168 133.922 111.924 133.647 111.993 133.304Z" fill="#FEFEFE"/>
<path d="M102.714 142.381H103.47V141.556C103.47 141.556 103.47 141.899 103.47 142.106C103.476 142.168 103.497 142.228 103.53 142.28C103.564 142.333 103.608 142.378 103.661 142.411C103.714 142.444 103.774 142.465 103.836 142.472C103.898 142.478 103.961 142.471 104.02 142.449C104.02 142.449 104.02 142.449 104.501 142.449L103.951 142.931C103.972 143.182 103.972 143.435 103.951 143.687L103.264 143.206L102.645 143.756V142.931L102.714 142.381Z" fill="#FEFEFE"/>
<path d="M121.895 141.282L121.345 141.695C121.345 141.695 121.345 141.695 121.345 142.038V142.795L120.726 142.382L120.176 142.863C120.136 142.613 120.136 142.358 120.176 142.107C120.2 142.053 120.213 141.995 120.213 141.935C120.213 141.876 120.2 141.817 120.176 141.763C119.941 141.675 119.729 141.534 119.557 141.351H120.313C120.259 141.102 120.259 140.844 120.313 140.595V141.282C120.313 141.282 120.313 141.282 120.657 141.282H121.345H121.895Z" fill="#FEFEFE"/>
</g>
<defs>
<clipPath id="clip0_304_119">
<rect width="220" height="220" fill="white"/>
</clipPath>
</defs>
</svg>
