<svg width="220" height="220" viewBox="0 0 220 220" fill="none" xmlns="http://www.w3.org/2000/svg">
<g clip-path="url(#clip0_108_408)">
<path d="M110 220C170.751 220 220 170.751 220 110C220 49.2487 170.751 0 110 0C49.2487 0 0 49.2487 0 110C0 170.751 49.2487 220 110 220Z" fill="#30367A"/>
<path d="M98.6769 153.299V62.0675H72.1875V41.25H147.812V62.0675H121.323V153.299H98.6769ZM92.5787 178.75C78.9044 178.75 72.435 172.177 72.435 158.276V68.035H92.3313V157.355C92.3313 159.555 93.0531 160.284 95.2119 160.284H125.042C127.201 160.284 127.93 159.548 127.93 157.355V68.035H147.812V158.276C147.812 172.177 141.336 178.75 127.669 178.75H92.5787Z" fill="white"/>
</g>
<defs>
<clipPath id="clip0_108_408">
<rect width="220" height="220" fill="white"/>
</clipPath>
</defs>
</svg>
