<svg width="220" height="220" viewBox="0 0 220 220" fill="none" xmlns="http://www.w3.org/2000/svg">
<g clip-path="url(#clip0_108_409)">
<path d="M110 220C170.751 220 220 170.751 220 110C220 49.2487 170.751 0 110 0C49.2487 0 0 49.2487 0 110C0 170.751 49.2487 220 110 220Z" fill="#FF9933"/>
<path d="M41.25 55C48.84 55.0138 56.4369 55.0138 64.02 55L78.3956 131.863C78.6225 132.997 78.8975 134.118 79.1931 135.231C80.3206 130.762 81.0288 126.198 81.9706 121.688L95.0606 55L117.088 55.0069C109.01 90.9769 100.932 126.954 92.84 162.924H65.4981C57.4063 126.974 49.3281 91.025 41.25 55.0688V55ZM125.909 88.9075C130.701 82.885 138.359 80.1556 145.743 79.6744C153.031 79.1656 160.882 79.8256 167.056 84.1706C172.521 87.9931 175.519 94.4556 176.942 100.884C178.668 108.941 178.757 117.219 178.75 125.427H138.394C138.428 131.498 138.05 137.761 140.078 143.578C141.061 146.438 142.897 149.284 145.812 150.322C148.919 151.332 152.659 150.673 154.928 148.17C157.953 144.746 158.586 139.947 159.246 135.554H177.561C177.148 142.842 175.801 150.542 171.029 156.269C166.244 162.222 158.531 164.656 151.229 164.952C143.296 165.254 134.681 164.175 128.356 158.833C122.478 153.931 119.914 146.162 118.896 138.717C117.879 130.144 117.824 121.468 118.298 112.853C118.938 104.452 120.457 95.5556 125.902 88.9006L125.909 88.9075ZM141.543 97.4669C138.421 101.963 138.339 107.752 138.394 113.053H159.239C158.916 108.013 158.95 102.692 156.681 98.0787C153.863 92.3862 144.953 92.3656 141.556 97.4738H141.543V97.4669Z" fill="white"/>
</g>
<defs>
<clipPath id="clip0_108_409">
<rect width="220" height="220" fill="white"/>
</clipPath>
</defs>
</svg>
