<svg width="220" height="220" viewBox="0 0 220 220" fill="none" xmlns="http://www.w3.org/2000/svg">
<g clip-path="url(#clip0_108_410)">
<path d="M110 220C170.751 220 220 170.751 220 110C220 49.2487 170.751 0 110 0C49.2487 0 0 49.2487 0 110C0 170.751 49.2487 220 110 220Z" fill="#15BDFF"/>
<path d="M101.324 170.046L48.4002 62.1912C48.2072 61.7939 48.1181 61.3542 48.1413 60.9131C48.1644 60.472 48.299 60.044 48.5325 59.669C48.766 59.2941 49.0907 58.9844 49.4764 58.7691C49.862 58.5537 50.296 58.4396 50.7377 58.4375H69.0802C70.0633 58.4375 70.9845 58.9875 71.4177 59.8538L110.069 138.098C113.506 145.111 123.482 145.111 126.926 138.098L165.454 59.9156C165.676 59.4878 166.012 59.1293 166.424 58.8795C166.836 58.6297 167.309 58.4982 167.791 58.4994H170.074C171.428 58.4994 172.288 59.9156 171.676 61.0844L118.188 170.053C114.744 177.066 104.775 177.066 101.324 170.053V170.046Z" fill="white"/>
</g>
<defs>
<clipPath id="clip0_108_410">
<rect width="220" height="220" fill="white"/>
</clipPath>
</defs>
</svg>
