<svg width="220" height="220" viewBox="0 0 220 220" fill="none" xmlns="http://www.w3.org/2000/svg">
<g clip-path="url(#clip0_108_411)">
<path d="M110 220C170.751 220 220 170.751 220 110C220 49.2487 170.751 0 110 0C49.2487 0 0 49.2487 0 110C0 170.751 49.2487 220 110 220Z" fill="#565656"/>
<path d="M76.5394 98.285H55.0344V86.4669H72.0156L58.9875 52.4356L69.74 48.125L94.1463 111.836L125.778 112.042L150.26 48.125L161.019 52.4356L147.984 86.4669H164.966V98.2919H143.461L138.16 112.111L165 112.283L164.931 124.101L133.65 123.901L110 185.625L86.24 123.606L55 123.399L55.0688 111.588L81.7025 111.76L76.5394 98.285ZM98.6769 123.681L110 153.23L121.261 123.826L98.6769 123.681Z" fill="white"/>
</g>
<defs>
<clipPath id="clip0_108_411">
<rect width="220" height="220" fill="white"/>
</clipPath>
</defs>
</svg>
