<svg width="220" height="220" viewBox="0 0 220 220" fill="none" xmlns="http://www.w3.org/2000/svg">
<g clip-path="url(#clip0_108_413)">
<path d="M110 220C170.751 220 220 170.751 220 110C220 49.2487 170.751 0 110 0C49.2487 0 0 49.2487 0 110C0 170.751 49.2487 220 110 220Z" fill="#338BE5"/>
<path d="M155.581 116.311C160.6 117.659 165.55 119.219 170.005 121.962C171.985 123.179 173.835 124.609 175.505 126.218C177.98 128.968 177.815 131.869 175.56 134.778C173.58 137.308 170.885 138.923 168.018 140.271C160.758 143.77 153.058 145.764 145.193 146.946C138.806 147.909 132.316 148.459 125.875 149.263C125.572 149.328 125.285 149.451 125.03 149.627C124.775 149.803 124.557 150.027 124.39 150.288C119.88 157.011 115.425 163.742 110.915 170.472C110.552 170.916 110.222 171.385 109.925 171.875C105.161 164.728 100.447 157.548 95.7827 150.336C95.5861 149.998 95.3056 149.716 94.9684 149.519C94.6311 149.321 94.2485 149.214 93.8577 149.208C80.9808 148.294 68.2758 146.623 56.1139 142.264C52.2639 140.917 48.579 139.246 45.389 136.716C45.2171 136.551 44.9971 136.441 44.8389 136.283C40.1639 132.357 40.0471 128.157 44.5639 124.114C48.1389 120.883 52.5389 119.054 57.1039 117.652C61.669 116.249 66.2889 115.232 70.9158 114.049C71.1358 113.994 71.3558 113.994 71.7408 113.884C61.779 98.6494 51.934 83.5725 41.8621 68.2825C42.4671 68.2275 42.9071 68.1725 43.2921 68.1725C49.5139 68.1175 55.729 68.1725 61.944 68.1175C62.3834 68.0911 62.8209 68.1943 63.2022 68.4143C63.5835 68.6343 63.8918 68.9614 64.0889 69.355C79.1452 92.3175 94.1877 115.287 109.21 138.277C109.43 138.661 109.688 139.023 109.98 139.356C113.445 134.131 116.8 129.126 120.1 124.114C132.2 105.827 144.306 87.56 156.413 69.3069C156.853 68.6606 157.183 68.1725 158.173 68.1725C164.718 68.2275 171.27 68.2275 177.815 68.2275C178.125 68.2275 178.434 68.2413 178.75 68.2825C168.535 83.6952 158.3 99.0952 148.046 114.483C150.638 115.122 153.113 115.665 155.588 116.311H155.581ZM61.174 129.236C62.4527 130.659 63.9583 131.883 65.6289 132.839C72.504 136.503 80.1008 137.844 87.9727 139.026C87.8627 138.655 87.8627 138.49 87.8077 138.387C83.3458 131.649 78.9458 124.871 74.4908 118.14C74.312 117.964 74.0943 117.834 73.8553 117.758C73.6163 117.683 73.3629 117.665 73.1158 117.707C70.5033 118.566 67.9458 119.591 65.464 120.78C63.8574 121.665 62.4229 122.832 61.229 124.224C60.5616 124.883 60.1814 125.778 60.1711 126.716C60.1608 127.653 60.5212 128.556 61.174 129.229V129.236ZM147.826 135.046C150.824 134.236 153.568 132.68 155.801 130.522C158.008 128.322 158.008 125.84 155.801 123.578C155.256 122.988 154.628 122.478 153.938 122.066C151.573 120.883 149.098 119.756 146.671 118.573C145.846 118.14 145.351 118.463 144.856 119.219C142.271 123.207 139.631 127.126 136.991 131.065C135.341 133.54 133.691 136.07 131.986 138.655C132.425 138.71 132.868 138.71 133.306 138.655C138.146 137.472 143.041 136.393 147.826 135.046ZM147.881 61.875L110.2 121.908L72.0158 61.875H147.881Z" fill="white"/>
</g>
<defs>
<clipPath id="clip0_108_413">
<rect width="220" height="220" fill="white"/>
</clipPath>
</defs>
</svg>
