<svg width="220" height="220" viewBox="0 0 220 220" fill="none" xmlns="http://www.w3.org/2000/svg">
<g clip-path="url(#clip0_108_414)">
<path d="M110 220C170.751 220 220 170.751 220 110C220 49.2487 170.751 0 110 0C49.2487 0 0 49.2487 0 110C0 170.751 49.2487 220 110 220Z" fill="#408AF1"/>
<path d="M158.462 70.6553C159.195 69.4101 160.17 68.3241 161.329 67.4616C162.488 66.5991 163.808 65.9774 165.211 65.6334C166.615 65.2893 168.073 65.2297 169.499 65.4581C170.926 65.6866 172.293 66.1984 173.518 66.9635C178.675 70.1947 180.297 77.0697 177.135 82.3428C165.42 101.854 152.199 122.273 141.178 137.865C125.091 160.622 121.605 168.438 110 168.438C98.3952 168.438 95.7827 161.543 79.2346 137.803C69.4034 123.71 57.0765 104.838 43.0034 82.556C41.427 80.0621 40.8862 77.0515 41.4961 74.165C42.106 71.2784 43.8185 68.7439 46.269 67.101C47.4759 66.3063 48.8299 65.7615 50.2509 65.4989C51.6719 65.2363 53.1311 65.2612 54.5423 65.572C55.9536 65.8828 57.2882 66.4733 58.4674 67.3086C59.6465 68.144 60.6464 69.2071 61.4077 70.4353C75.3159 92.4491 106.735 138.333 110.09 142.423C113.596 138.271 147.022 89.7128 158.462 70.6485V70.6553Z" fill="white"/>
</g>
<defs>
<clipPath id="clip0_108_414">
<rect width="220" height="220" fill="white"/>
</clipPath>
</defs>
</svg>
