<svg width="220" height="220" viewBox="0 0 220 220" fill="none" xmlns="http://www.w3.org/2000/svg">
<g clip-path="url(#clip0_108_415)">
<path d="M110 220C170.751 220 220 170.751 220 110C220 49.2487 170.751 0 110 0C49.2487 0 0 49.2487 0 110C0 170.751 49.2487 220 110 220Z" fill="#418BCA"/>
<path d="M139.322 55H171.875L110 178.75L48.125 55H80.465L110.213 117.652L139.322 55ZM110 89.0931C104.583 89.0931 100.189 84.5831 100.189 79.0213C100.189 73.4594 104.583 68.9425 110 68.9425C115.418 68.9425 119.811 73.4594 119.811 79.0213C119.811 84.5831 115.411 89.0931 110 89.0931ZM154.447 116.868C159.864 116.868 164.258 121.385 164.251 126.947C164.251 132.516 159.864 137.019 154.447 137.019C149.029 137.019 144.636 132.509 144.636 126.947C144.636 121.385 149.029 116.875 154.447 116.875V116.868Z" fill="white"/>
</g>
<defs>
<clipPath id="clip0_108_415">
<rect width="220" height="220" fill="white"/>
</clipPath>
</defs>
</svg>
