<svg width="220" height="220" viewBox="0 0 220 220" fill="none" xmlns="http://www.w3.org/2000/svg">
<g clip-path="url(#clip0_108_416)">
<path d="M110 220C170.751 220 220 170.751 220 110C220 49.2487 170.751 0 110 0C49.2487 0 0 49.2487 0 110C0 170.751 49.2487 220 110 220Z" fill="#FFB500"/>
<path d="M191.799 99.8738C189.811 83.8505 183.165 68.7625 172.686 56.4788C165.354 47.8573 156.307 40.8567 146.121 35.9226C132.45 29.2465 117.195 26.4929 102.053 27.9682C88.0101 29.3262 74.5514 34.2674 62.9661 42.3183C51.3807 50.3693 42.0568 61.2604 35.8877 73.9482C28.5265 89.0991 25.9741 106.139 28.5727 122.781C31.0592 138.682 38.159 153.503 48.9914 165.406C64.4258 182.608 87.4295 192.666 110.536 192.398C122.168 192.323 133.652 189.788 144.234 184.957C154.816 180.127 164.255 173.111 171.931 164.372C179.607 155.632 185.346 145.366 188.77 134.25C192.194 123.133 193.227 111.418 191.799 99.8738ZM166.678 82.0676C166.301 82.5929 165.974 83.1522 165.701 83.7382L129.415 160.174C127.676 163.825 125.93 167.517 123.95 171.037C114.964 170.968 105.978 171.003 96.9858 171.003C82.6652 141.523 68.4133 112.015 54.0583 82.5695C53.7627 81.9988 53.4602 81.3938 53.1577 80.8232C53.3914 80.6582 53.9277 80.3557 54.1614 80.2182C59.7645 73.247 65.4364 66.3032 71.067 59.3251C71.7683 58.4245 72.5795 57.5513 73.377 56.747C73.7483 57.3451 74.1127 57.9501 74.4152 58.6238C77.5364 65.8013 80.7195 73.0132 83.9027 80.1838C87.1339 80.1838 90.3445 80.2526 93.5964 80.0463C94.772 81.1601 95.4114 82.6382 95.8789 84.1438C96.4839 82.6038 96.7177 80.9607 96.7864 79.2832C97.8245 69.6582 97.9964 59.9301 99.0345 50.3051C99.1995 48.2288 102.321 48.2288 102.589 50.2363C103.593 59.3595 103.826 68.5857 104.569 77.7363C104.706 80.4863 104.803 83.2363 105.408 85.9176C106.783 84.1095 106.343 80.9263 108.859 80.1838C110.942 79.4826 113.286 80.6582 115.266 79.4138C117.982 77.7707 118.986 74.5532 120.698 72.037C121.674 70.3938 123.915 69.2182 125.73 70.1601C127.538 70.8613 128.308 72.807 129.25 74.3538C130.323 76.1276 131.299 78.1076 133.038 79.2832C134.585 79.9501 136.325 80.0532 138.002 80.0188C141.391 72.3738 144.877 64.7563 148.335 57.1457C154.371 64.7288 160.071 72.5457 166.107 80.122C167.015 80.5207 167.18 81.1945 166.678 82.0676Z" fill="white"/>
<path d="M124.252 72.4731C121.537 75.4294 120.567 80.1869 116.504 81.6994C114.428 82.7031 111.912 81.8644 109.835 82.6412C108.02 86.1956 108.254 90.3825 106.879 94.0743C105.944 95.8206 103.125 94.9475 103.125 93.0362C101.957 83.0056 101.854 72.8787 100.781 62.855C99.6398 71.875 99.3373 80.9912 97.928 89.9425C97.928 92.2662 94.2705 92.6306 93.9405 90.3206C93.2323 87.7081 93.0673 84.9581 91.7542 82.5037C89.4856 82.4702 87.2166 82.4702 84.948 82.5037C93.5005 101.891 101.984 121.272 110.537 140.659C119.192 121.272 128.144 102.022 136.73 82.6069L136.765 82.5381C134.517 82.2631 132.069 82.0362 130.192 80.6269C127.58 78.4475 126.569 74.955 124.252 72.4731Z" fill="white"/>
</g>
<defs>
<clipPath id="clip0_108_416">
<rect width="220" height="220" fill="white"/>
</clipPath>
</defs>
</svg>
