<svg width="220" height="220" viewBox="0 0 220 220" fill="none" xmlns="http://www.w3.org/2000/svg">
<g clip-path="url(#clip0_108_417)">
<path d="M110 220C170.751 220 220 170.751 220 110C220 49.2487 170.751 0 110 0C49.2487 0 0 49.2487 0 110C0 170.751 49.2487 220 110 220Z" fill="#048657"/>
<path d="M18.0948 113.919L31.501 98.6495H79.1998L108.508 136.036L185.199 29.7964C189.906 34.0451 194.189 38.7423 197.986 43.8214C201.943 49.0856 205.387 54.7167 208.271 60.6376L114.118 190.871C112.337 192.741 110.467 193.676 108.508 193.676C106.542 193.676 104.569 192.741 102.582 190.871L43.0373 113.912H18.0948V113.919Z" fill="white"/>
</g>
<defs>
<clipPath id="clip0_108_417">
<rect width="220" height="220" fill="white"/>
</clipPath>
</defs>
</svg>
