<svg width="220" height="220" viewBox="0 0 220 220" fill="none" xmlns="http://www.w3.org/2000/svg">
<g clip-path="url(#clip0_108_419)">
<path d="M110 220C170.751 220 220 170.751 220 110C220 49.2487 170.751 0 110 0C49.2487 0 0 49.2487 0 110C0 170.751 49.2487 220 110 220Z" fill="#399B32"/>
<path d="M150.494 51.3414C149.751 54.3252 149.882 58.1477 150.707 58.4914C151.532 58.8421 153.608 56.8689 154.825 54.6277C155.994 52.5652 157.032 51.9533 158.469 52.4827C160.373 53.2252 160.071 53.8852 156.166 57.2608C152.921 60.0727 152.268 61.0833 153.141 61.9564C153.656 62.4858 154.041 62.3964 155.904 61.3858C158.242 60.1621 159.548 60.2446 159.548 61.6539C159.548 62.3071 158.682 62.8364 155.519 64.0602C153.264 64.9402 151.051 66.0814 150.535 66.6521C149.497 67.7933 147.675 71.3958 145.509 76.7033C143.646 81.3096 141.866 84.6921 140.697 86.0052C139.741 87.0571 136.538 87.7239 129.779 88.2464C126.617 88.5077 126.225 88.4664 126.053 87.7171C125.566 85.6742 125.176 83.6093 124.884 81.5296C124.884 81.3989 126.486 81.4402 128.48 81.5777C132.034 81.8389 135.582 82.8014 137.232 83.9427C138.49 84.8227 138.621 84.6921 139.184 82.2308C139.872 79.4258 141.35 75.7408 143.598 71.1758C145.289 67.7933 145.338 67.5321 145.159 64.3283C144.946 60.7739 144.334 59.2408 142.216 56.9102C141.433 56.0852 140.958 55.1571 141.089 54.8064C141.199 54.5369 141.286 54.2586 141.35 53.9746C141.35 53.8852 141.735 53.7958 142.175 53.7958C142.691 53.7958 143.598 54.5864 144.423 55.7689C146.719 59.0208 147.414 58.4021 147.414 53.0052C147.414 50.5508 147.586 49.4989 148.149 48.8802C149.016 47.9177 149.71 47.8764 150.446 48.7496C150.879 49.2789 150.879 49.8496 150.494 51.3414ZM116.043 69.7252C116.346 72.9771 116.951 74.1114 118.903 74.8127C119.68 75.1221 120.759 75.5689 121.282 75.7408C122.54 76.2633 122.891 78.1471 124.231 90.4396C125.661 103.777 125.964 105.668 127.311 109.793C129.346 116.063 129.168 123.35 126.789 130.679C125.572 134.453 124.231 136.165 121.461 137.657C115.913 140.593 110.186 138.448 105.731 131.772C102.417 126.96 101.193 120.978 102.348 115.231C103.001 112.158 103.345 107.51 103.036 106.362C102.912 105.798 101.523 104.045 99.9625 102.375C95.1088 97.3283 89.9938 88.2877 90.9975 86.6652C91.3 86.2252 91.5131 84.8639 91.5131 83.6814C91.5131 81.2683 90.8256 80.2989 87.7869 78.5939C85.7931 77.4527 85.6625 76.3114 87.3125 73.1489C88.22 71.3064 88.7425 70.9146 93.2938 68.5839C97.9275 66.2189 100.011 65.5589 106.899 64.3283C109.759 63.7989 111.836 63.8471 113.396 64.5071C115.218 65.2977 115.734 66.3014 116.043 69.7321V69.7252ZM75.0475 86.0946C75.0475 88.3289 75.7831 90.5289 76.3056 89.9583C76.5256 89.7383 76.9931 88.5077 77.4331 87.2358C78.1206 85.0358 79.3856 83.7296 80.2519 84.2933C80.9875 84.7746 80.7262 87.3183 79.7706 88.8996C78.4712 91.0514 78.4712 95.1352 79.8187 97.8577C81.1594 100.491 83.93 103.385 85.1469 103.385C85.8825 103.337 86.7488 102.285 89.1344 98.2083L92.1594 93.0727L92.6406 96.1458C93.1219 99.6108 92.9019 100.663 90.9494 104.045C88.7838 107.861 86.3569 110.845 85.4494 110.845C84.4113 110.845 82.0669 108.521 80.0731 105.537C79.2963 104.3 77.1306 101.935 75.3088 100.223L71.9744 97.1083L69.9394 97.4589C68.6938 97.6916 67.4317 97.8249 66.165 97.8577C64.6044 97.8989 64.4325 97.8096 64.3088 96.7164C64.1713 95.7539 64.3913 95.4446 65.2988 95.2246C66.2868 95.0505 67.2962 95.0342 68.2894 95.1764C69.4994 95.3552 70.4138 95.2658 70.8881 94.9152C71.6238 94.3858 71.5825 94.2964 70.8469 93.4233C70.4138 92.8939 69.1144 92.1927 67.8975 91.8008C64.8725 90.8383 62.9131 89.5183 62.9131 88.5077C62.9131 87.1946 64.5631 86.8852 65.9038 87.9783C70.3725 91.6702 71.6238 92.1927 72.7994 91.0033C73.6244 90.1783 73.4044 88.5971 72.0156 85.8333C70.8056 83.3721 70.3656 81.0896 71.0188 80.4364C71.4519 79.9552 72.5794 80.0858 73.3563 80.6977C74.2706 81.4402 75.0475 83.8602 75.0475 86.0946ZM154.303 125.626C153.223 126.774 150.102 130.418 147.373 133.704C139.308 143.446 138.49 144.498 138.834 144.855C139.178 145.199 146.025 142.174 147.586 140.991C149.538 139.451 153.086 135.684 153.739 134.405C154.041 133.883 154.474 132.26 154.784 130.851C155.299 128.218 156.729 126.203 158.029 126.203C158.895 126.203 159.287 127.214 158.943 128.527C158.352 130.011 157.627 131.437 156.778 132.79C155.691 134.584 154.956 136.206 155.038 136.385C155.471 137.038 157.08 136.729 158.943 135.636C160.023 135.017 161.583 133.401 162.752 131.731C165.048 128.486 166.609 127.083 167.998 127.083C169.166 127.083 170.555 128.575 170.253 129.448C170.115 129.799 168.121 131.511 165.873 133.23C161.975 136.165 160.758 137.698 161.452 138.84C161.844 139.5 165.44 138.62 169.256 136.915C175.753 133.972 177.533 133.793 178.571 135.766C179.438 137.396 177.313 138.4 168.994 140.242C166.698 140.771 164.182 141.603 163.405 142.085L161.975 142.965L162.972 143.796C163.838 144.505 164.746 144.635 169.036 144.635C172.893 144.635 174.329 144.807 174.976 145.288C175.801 145.948 175.753 145.996 174.543 147.09C173.759 147.75 173.03 148.1 172.59 147.921C170.686 147.131 164.23 145.948 161.886 145.948C157.685 145.948 157.334 147.488 161.15 148.973C162.883 149.681 163.536 150.472 163.185 151.393C162.8 152.445 161.755 152.266 157.988 150.513C150.356 146.959 148.974 146.78 139.838 147.97C135.499 148.54 134.241 148.588 133.767 148.141C132.811 147.351 132.983 146.608 134.331 145.426C135.41 144.505 143.777 128.926 143.385 128.575C143.165 128.355 134.723 131.38 128.604 133.924C127.827 134.233 127.827 134.192 128.604 132.961C131.471 128.266 139.741 122.993 149.366 119.706C154.351 117.995 154.653 117.953 156.729 117.995C158.118 118.084 158.51 118.263 158.593 118.957C158.73 120.057 156.991 122.78 154.303 125.626ZM54.945 141.129C56.5469 143.411 60.2319 147.275 60.7888 147.275C61.3594 147.275 60.8781 143.453 59.84 139.458C58.8844 135.815 58.8019 134.061 59.5375 133.319C60.1012 132.748 62.0125 132.618 62.7894 133.14C63.0919 133.319 63.4356 135.821 63.6969 139.596C64.1781 146.485 64.5219 147.756 66.2063 148.85C67.2925 149.599 67.375 149.599 67.8975 148.898C68.1588 148.499 68.4613 146.876 68.5094 145.254C68.6331 140.909 69.6781 138.977 71.5344 139.596C72.9713 140.029 73.1019 141.83 72.0156 145.254C70.7575 149.241 70.5444 152.143 71.1081 156.048C71.9331 161.362 73.9269 166.099 74.9169 165.088C75.1369 164.916 75.2606 158.99 75.3088 151.971C75.35 140.998 75.4394 138.805 76.0925 136.743C77.3025 132.961 77.5638 132.79 82.3281 132.79C90.1725 132.79 104.734 134.9 106.679 136.296C108.763 137.795 108.329 138.324 104.211 139.637C95.2394 142.401 90.8669 142.93 85.4494 141.878C83.6756 141.521 82.0669 141.308 81.895 141.397C81.7231 141.48 81.895 142.49 82.2388 143.631C83.325 147.186 83.0225 149.379 80.465 157.189C79.1244 161.183 77.8662 165.838 77.6944 167.501C77.5225 169.172 77.0413 170.836 76.78 171.186C75.6525 172.548 74.4012 171.936 72.3594 169.083C69.8088 165.576 65.7731 161.713 63.4356 160.482C62.4388 159.953 59.1456 158.99 56.155 158.282C50.7856 157.058 49.0531 156.22 49.6994 155.175C49.9194 154.776 50.8681 154.735 52.9513 154.906C56.76 155.305 57.0694 154.776 54.5119 152.363C51.7231 149.887 48.5273 147.912 45.0656 146.526C41.8137 145.213 41.25 144.773 41.25 143.721C41.25 142.882 42.46 142.002 43.6356 142.002C44.0206 142.002 45.76 143.191 47.4444 144.683C50.9988 147.708 53.4669 149.159 54.8144 148.946C57.2894 148.588 54.3331 142.841 49.6994 138.977C48.0081 137.575 46.365 135.863 46.0144 135.203C45.4506 134.103 45.4506 133.979 46.2344 133.408C46.9535 132.99 47.7845 132.805 48.6131 132.879C49.9606 133.016 50.2631 133.278 51.865 136.083C52.8206 137.795 54.2025 140.07 54.945 141.129ZM117.081 65.7789C119.295 65.4352 119.763 67.2296 119.763 67.1883C120.938 70.2133 120.244 73.9946 120.244 73.9946C118.683 73.6852 117.514 71.7533 117.514 71.7533C116.607 69.6014 117.081 65.7858 117.081 65.7858V65.7789ZM85.8413 78.2914C85.8413 78.2914 89.1756 80.1339 90.4338 82.1071C90.4338 82.1071 91.3 84.1696 90.6469 85.6614C90.6469 85.6614 87.1819 84.0389 85.4494 81.3164C85.4494 81.3646 84.3219 79.9139 85.8413 78.2914Z" fill="white"/>
</g>
<defs>
<clipPath id="clip0_108_419">
<rect width="220" height="220" fill="white"/>
</clipPath>
</defs>
</svg>
