<svg width="220" height="220" viewBox="0 0 220 220" fill="none" xmlns="http://www.w3.org/2000/svg">
<g clip-path="url(#clip0_108_420)">
<path d="M110 220C170.751 220 220 170.751 220 110C220 49.2487 170.751 0 110 0C49.2487 0 0 49.2487 0 110C0 170.751 49.2487 220 110 220Z" fill="#136AAD"/>
<path fill-rule="evenodd" clip-rule="evenodd" d="M48.125 76.2438L66.4606 84.0125V127.689L110 101.654L153.959 127.689V84.0125L171.875 76.2438V158.565L110 122.024L48.125 158.565V76.2438ZM50.2081 72.8819L110 37.8125L170.211 72.8819L153.959 79.6056L110 54.1956L66.4606 79.6056L50.2081 72.8819ZM63.1263 154.151L76.67 146.382L110.206 165.804L143.33 146.382L157.286 154.151L110.206 182.188L63.1263 154.151Z" fill="white"/>
</g>
<defs>
<clipPath id="clip0_108_420">
<rect width="220" height="220" fill="white"/>
</clipPath>
</defs>
</svg>
