<svg width="220" height="220" viewBox="0 0 220 220" fill="none" xmlns="http://www.w3.org/2000/svg">
<g clip-path="url(#clip0_108_422)">
<path d="M110 220C170.751 220 220 170.751 220 110C220 49.2487 170.751 0 110 0C49.2487 0 0 49.2487 0 110C0 170.751 49.2487 220 110 220Z" fill="#F89022"/>
<path fill-rule="evenodd" clip-rule="evenodd" d="M192.5 130.364H176.247L164.718 120.491L153.23 130.322H139.494L132.928 122.347H110.296L116.022 115.273H127.153L118.676 104.906L89.0794 140.938H75.35L83.9163 130.474H69.6094L61.875 108.79L54.2025 130.309H39.6894L27.5 96.5319H38.6375L46.8325 119.536L55 96.635H68.75L76.8969 119.487L85.0369 96.6281H96.2088L83.9163 130.474L86.6525 127.133L111.76 96.5731H125.579L146.472 122.066L156.523 113.424L124.712 85.9375H141.041L192.5 130.364ZM176.378 109.931L168.713 103.359L176.364 96.8413L191.833 96.855L176.378 109.931Z" fill="white"/>
</g>
<defs>
<clipPath id="clip0_108_422">
<rect width="220" height="220" fill="white"/>
</clipPath>
</defs>
</svg>
