<svg width="220" height="220" viewBox="0 0 220 220" fill="none" xmlns="http://www.w3.org/2000/svg">
<g clip-path="url(#clip0_108_423)">
<path d="M110 220C170.751 220 220 170.751 220 110C220 49.2487 170.751 0 110 0C49.2487 0 0 49.2487 0 110C0 170.751 49.2487 220 110 220Z" fill="#201A2D"/>
<path d="M156.874 65.902L152.749 70.027C162.592 80.791 168.05 94.8487 168.05 109.435C168.05 124.02 162.592 138.078 152.749 148.842L156.874 152.967C167.82 141.094 173.897 125.536 173.897 109.386C173.897 93.2371 167.82 77.6792 156.874 65.8058V65.902ZM70.125 66.2595C80.8889 56.4166 94.9467 50.9582 109.533 50.9582C124.118 50.9582 138.176 56.4166 148.94 66.2595L153.065 62.1345C141.192 51.1882 125.634 45.1108 109.484 45.1108C93.3351 45.1108 77.7771 51.1882 65.9038 62.1345L70.125 66.2595ZM66.2612 148.883C56.43 138.122 50.9788 124.073 50.9788 109.496C50.9788 94.9203 56.43 80.8711 66.2612 70.1095L62.1362 65.9845C51.1899 77.8579 45.1125 93.4158 45.1125 109.565C45.1125 125.714 51.1899 141.272 62.1362 153.146L66.2612 148.883ZM148.885 152.692C138.121 162.535 124.063 167.993 109.478 167.993C94.8917 167.993 80.8339 162.535 70.07 152.692L65.945 156.817C77.8184 167.763 93.3763 173.841 109.526 173.841C125.675 173.841 141.233 167.763 153.106 156.817L148.885 152.692ZM135.534 95.7258C134.709 87.1183 127.284 84.2308 117.893 83.3508V71.4983H110.632V83.1308H104.83V71.4983H97.625V83.4333H82.8987V91.202C82.8987 91.202 88.2612 91.1058 88.1788 91.202C89.1457 91.0957 90.1161 91.3688 90.8856 91.9639C91.6551 92.5589 92.1635 93.4295 92.3037 94.392V127.062C92.2831 127.402 92.1946 127.733 92.0434 128.038C91.8923 128.343 91.6816 128.614 91.4238 128.836C91.1708 129.062 90.8747 129.234 90.5534 129.343C90.232 129.452 89.892 129.494 89.5537 129.468C89.65 129.551 84.2738 129.468 84.2738 129.468L82.8987 138.145H97.4875V150.272H104.748V138.323H110.55V150.217H117.824V138.227C130.089 137.485 138.641 134.46 139.714 122.978C140.58 113.738 136.235 109.613 129.291 107.95C133.513 105.873 136.125 102.023 135.534 95.7258ZM125.359 121.548C125.359 130.568 109.904 129.537 104.981 129.537V113.532C109.904 113.546 125.359 112.13 125.359 121.548ZM121.99 98.9983C121.99 107.248 109.093 106.245 104.995 106.245V91.697C109.093 91.697 121.99 90.4045 121.99 98.9983Z" fill="white"/>
<path d="M109.478 184.607C67.9937 184.601 34.375 150.968 34.375 109.484C34.375 68.0075 68.0075 34.375 109.484 34.375C150.968 34.375 184.601 67.9937 184.607 109.478C184.609 119.344 182.667 129.115 178.892 138.231C175.117 147.347 169.583 155.63 162.606 162.606C155.63 169.583 147.347 175.117 138.231 178.892C129.115 182.667 119.344 184.609 109.478 184.607ZM109.478 40.2325C71.2594 40.26 40.3012 71.2594 40.315 109.478C40.3287 147.696 71.3213 178.668 109.533 178.668C147.751 178.668 178.736 147.696 178.75 109.478C178.754 100.381 176.964 91.3726 173.484 82.968C170.003 74.5633 164.901 66.9272 158.467 60.4961C152.033 54.065 144.395 48.9652 135.989 45.4882C127.583 42.0112 118.574 40.2253 109.478 40.2325Z" fill="white"/>
</g>
<defs>
<clipPath id="clip0_108_423">
<rect width="220" height="220" fill="white"/>
</clipPath>
</defs>
</svg>
