<svg width="220" height="220" viewBox="0 0 220 220" fill="none" xmlns="http://www.w3.org/2000/svg">
<g clip-path="url(#clip0_108_424)">
<path d="M110 220C170.751 220 220 170.751 220 110C220 49.2487 170.751 0 110 0C49.2487 0 0 49.2487 0 110C0 170.751 49.2487 220 110 220Z" fill="#B80000"/>
<path d="M178.014 78.2856C179.087 80.1075 178.942 82.0187 177.877 83.8887C176.282 86.4325 174.811 89.0244 173.291 91.5887C169.125 98.7112 164.959 105.834 160.779 112.956C152.436 127.128 144.085 141.295 135.726 155.458C135.258 156.328 134.546 157.043 133.678 157.515C132.81 157.988 131.823 158.197 130.838 158.118C128.727 158.022 127.229 156.977 126.232 155.155C125.207 153.333 124.142 151.532 123.069 149.717C119.563 143.722 116.043 137.741 112.53 131.766C111.746 130.412 110.942 129.085 110.041 127.586C109.161 129.078 108.329 130.405 107.546 131.766L97.0062 149.71C95.9296 151.512 94.8754 153.327 93.8437 155.155C92.8468 156.977 91.355 158.022 89.2375 158.118C88.253 158.192 87.2682 157.98 86.4011 157.508C85.5341 157.037 84.8216 156.324 84.3493 155.458C80.3825 148.782 76.4637 142.106 72.5243 135.403C68.1001 127.93 63.6909 120.447 59.2968 112.956C55.1375 105.834 50.9643 98.7112 46.7843 91.5887C45.2718 89.0244 43.7731 86.4325 42.2056 83.8887C41.0643 82.0187 40.8993 80.1075 41.965 78.2856C43.01 76.4913 44.6943 75.625 46.86 75.625C60.39 75.6731 73.9268 75.7625 87.4568 75.6456C90.8737 75.625 92.9156 76.9313 94.5106 79.7775C97.9275 85.8756 101.564 91.8225 105.077 97.8519C106.549 100.396 107.999 102.96 109.491 105.504C109.608 105.689 109.801 105.834 109.972 105.992C110.156 105.861 110.314 105.698 110.44 105.511C111.918 102.967 113.362 100.396 114.861 97.8519C118.394 91.8225 122.011 85.8481 125.427 79.7775C127.016 76.9313 129.057 75.625 132.474 75.6525C146.011 75.7625 159.541 75.6731 173.078 75.625C175.285 75.625 176.969 76.4913 178.014 78.2856ZM103.469 117.851C103.601 117.571 103.671 117.266 103.675 116.956C103.679 116.647 103.615 116.34 103.489 116.057C102.802 114.654 101.894 113.328 101.09 111.946C96.25 103.682 91.4031 95.4456 86.5837 87.1613C86.0887 86.3156 85.5181 86.0131 84.5212 86.0131C75.5012 86.0612 66.4743 86.0612 57.4543 86.0819C57.0281 86.0819 56.6018 86.1506 55.9831 86.1988C66.9968 104.988 77.9143 123.64 88.9625 142.478C89.9112 140.896 90.7156 139.631 91.4787 138.325C95.5075 131.519 99.5018 124.692 103.469 117.851ZM131.037 142.478C142.072 123.64 152.996 104.988 164.037 86.1988C163.398 86.1506 162.992 86.0819 162.566 86.0819C153.539 86.0612 144.519 86.0612 135.499 86.0131C134.502 86.0131 133.932 86.3156 133.437 87.1544C128.607 95.4217 123.772 103.685 118.931 111.946C118.119 113.3 117.239 114.627 116.524 116.057C116.396 116.338 116.329 116.644 116.329 116.954C116.329 117.264 116.396 117.57 116.524 117.851C120.512 124.685 124.506 131.512 128.521 138.325C129.277 139.631 130.089 140.917 131.037 142.478Z" fill="white"/>
</g>
<defs>
<clipPath id="clip0_108_424">
<rect width="220" height="220" fill="white"/>
</clipPath>
</defs>
</svg>
