<svg width="220" height="220" viewBox="0 0 220 220" fill="none" xmlns="http://www.w3.org/2000/svg">
<g clip-path="url(#clip0_108_426)">
<path d="M110 220C170.751 220 220 170.751 220 110C220 49.2487 170.751 0 110 0C49.2487 0 0 49.2487 0 110C0 170.751 49.2487 220 110 220Z" fill="#5783CB"/>
<path d="M104.775 27.5H113.3C131.915 28.396 149.626 35.7919 163.35 48.4C165.687 49.9125 165.688 53.625 162.938 54.5875C160.6 55.1375 158.812 53.075 157.025 51.8375C141.829 40.265 122.739 35.0316 103.766 37.2366C84.7927 39.4416 67.4122 48.9134 55.275 63.6625C45.3647 75.8511 39.7009 90.9399 39.143 106.639C38.5851 122.338 43.1635 137.791 52.1836 150.652C61.2037 163.514 74.173 173.082 89.1235 177.904C104.074 182.727 120.19 182.541 135.025 177.375C147.16 173.175 157.998 165.9 166.481 156.26C174.964 146.62 180.802 134.945 183.425 122.375C184.635 117.363 185.419 112.255 185.762 107.113C185.851 106.359 186.231 105.67 186.821 105.194C187.411 104.717 188.164 104.49 188.919 104.562C189.674 104.634 190.371 104.999 190.861 105.578C191.35 106.158 191.593 106.906 191.537 107.662L191.262 116.188C190.193 136.07 181.762 154.842 167.612 168.85C153.264 183.074 134.167 191.497 113.987 192.5H105.875C85.3769 191.464 65.9979 182.837 51.5105 168.299C37.0231 153.761 28.4642 134.352 27.5 113.85V106.15C28.4997 85.847 36.923 66.6186 51.1695 52.1187C65.416 37.6187 84.4928 28.8575 104.775 27.5Z" fill="white"/>
<path d="M171.875 70.2631C177.375 64.2131 188.787 67.5131 190.025 75.6256C191.812 82.9131 184.8 89.1006 177.65 88.5506C168.162 98.1756 160.6 109.588 154.137 121.551C151.525 125.126 154.825 129.801 152.762 133.513C150.287 140.801 139.562 142.313 134.887 136.263C131.45 132.413 132.412 127.051 134.2 122.788C131.583 117.357 128.1 112.388 123.887 108.076L119.762 108.213C110.732 118.164 103.268 129.43 97.6247 141.626C98.5872 145.338 99.2747 149.738 96.6622 153.038C93.2247 158.676 84.1497 159.226 79.8872 154.001C76.7247 150.426 77.1372 145.338 78.7872 141.076C74.0403 128.167 67.2634 116.098 58.7122 105.326C53.3497 105.051 47.7122 101.888 47.0247 96.2506C45.2372 88.5506 54.0372 81.1256 61.3247 84.5631C67.7872 86.9006 69.5747 95.1506 66.4122 100.788C71.6067 113.972 78.8964 126.229 87.9997 137.088C97.895 127.28 105.952 115.777 111.787 103.126C110.687 99.4131 110 95.1506 112.475 91.7131C116.187 85.6631 126.087 85.5256 129.937 91.5756C132.825 95.2881 131.862 100.238 130.212 104.226C132.765 109.668 136.151 114.678 140.25 119.076L144.375 118.801C154.412 108.213 163.625 96.5256 169.812 83.1881C169.125 78.7881 168.3 73.5631 172.012 70.2631H171.875Z" fill="white"/>
</g>
<defs>
<clipPath id="clip0_108_426">
<rect width="220" height="220" fill="white"/>
</clipPath>
</defs>
</svg>
