<svg width="220" height="220" viewBox="0 0 220 220" fill="none" xmlns="http://www.w3.org/2000/svg">
<g clip-path="url(#clip0_108_427)">
<path d="M110 220C170.751 220 220 170.751 220 110C220 49.2487 170.751 0 110 0C49.2487 0 0 49.2487 0 110C0 170.751 49.2487 220 110 220Z" fill="#0DC9F7"/>
<path d="M129.965 108.204L109.03 124.457L100.457 94.7226L50.7922 81.4194L115.974 84.7676L129.965 108.204Z" fill="white" fill-opacity="0.305"/>
<path d="M56.8564 164.952L169.029 77.894L178.75 99.5228L165.997 95.9959L165.55 118.436L56.8564 164.952Z" fill="white" fill-opacity="0.7"/>
<path d="M156.723 122.238L124.087 66.1306L41.25 61.875L104.383 78.7944L121.502 137.163L156.723 122.238Z" fill="white"/>
</g>
<defs>
<clipPath id="clip0_108_427">
<rect width="220" height="220" fill="white"/>
</clipPath>
</defs>
</svg>
