<svg width="220" height="220" viewBox="0 0 220 220" fill="none" xmlns="http://www.w3.org/2000/svg">
<g clip-path="url(#clip0_108_428)">
<path d="M110 220C170.751 220 220 170.751 220 110C220 49.2487 170.751 0 110 0C49.2487 0 0 49.2487 0 110C0 170.751 49.2487 220 110 220Z" fill="#FFE600"/>
<path fill-rule="evenodd" clip-rule="evenodd" d="M27.4521 37.2941C32.8916 31.1226 39.0023 25.5769 45.6709 20.7598L76.2784 130.196L89.8428 72.1848H115.555L129.113 130.196L145.18 72.1848H170.954L171.195 73.216L199.203 174.375C194.127 181.399 188.243 187.802 181.672 193.453L158.043 108.134L144.568 156.795L144.327 157.827H115.548L102.699 110.169L89.8428 157.827H61.064L60.8234 156.795L27.4521 37.2941Z" fill="white"/>
</g>
<defs>
<clipPath id="clip0_108_428">
<rect width="220" height="220" fill="white"/>
</clipPath>
</defs>
</svg>
