<svg width="220" height="220" viewBox="0 0 220 220" fill="none" xmlns="http://www.w3.org/2000/svg">
<g clip-path="url(#clip0_108_429)">
<path d="M110 220C170.751 220 220 170.751 220 110C220 49.2487 170.751 0 110 0C49.2487 0 0 49.2487 0 110C0 170.751 49.2487 220 110 220Z" fill="#8200FF"/>
<path fill-rule="evenodd" clip-rule="evenodd" d="M126.596 90.5166L121.921 91.6647C117.7 92.6959 114.744 96.4084 114.744 100.671V131.87L99.2956 135.651C98.0853 135.957 96.8031 135.773 95.7272 135.14C94.6513 134.507 93.8683 133.475 93.5481 132.268C93.4554 131.9 93.4092 131.521 93.4106 131.141V79.2003C93.4106 77.0691 94.8888 75.2128 96.9994 74.6903L120.704 68.8878C121.915 68.5819 123.197 68.7654 124.273 69.3986C125.349 70.0318 126.132 71.0636 126.452 72.2703C126.548 72.6347 126.589 73.0128 126.589 73.3909V90.5166H126.596ZM74.4425 90.2278L68.585 91.6647C64.3637 92.6959 61.4006 96.4084 61.4006 100.671V132.158L47.1419 135.651C45.9315 135.957 44.6494 135.773 43.5734 135.14C42.4975 134.507 41.7146 133.475 41.3944 132.268C41.2993 131.9 41.2508 131.521 41.25 131.141V79.2003C41.25 77.0691 42.7281 75.2128 44.8387 74.6903L68.5506 68.8878C69.761 68.5819 71.0432 68.7654 72.1191 69.3986C73.195 70.0318 73.9779 71.0636 74.2981 72.2703C74.3944 72.6347 74.4356 73.0128 74.4356 73.3909V90.2347L74.4425 90.2278ZM149.153 74.8347L172.858 69.0322C174.068 68.726 175.349 68.9086 176.425 69.5404C177.5 70.1722 178.284 71.2024 178.606 72.4078C178.701 72.776 178.75 73.1549 178.75 73.5353V125.483C178.75 127.614 177.272 129.47 175.161 129.986L151.449 135.788C150.24 136.095 148.959 135.912 147.883 135.28C146.807 134.648 146.024 133.618 145.702 132.413C145.609 132.044 145.563 131.665 145.564 131.285V79.3378C145.564 77.2066 147.042 75.3503 149.153 74.8347Z" fill="white"/>
<path opacity="0.504" fill-rule="evenodd" clip-rule="evenodd" d="M88.6668 91.5366V131.144C88.6668 131.9 88.7562 132.656 88.9418 133.398C89.5346 135.622 90.9149 137.553 92.8259 138.835C94.7369 140.116 97.0484 140.659 99.3299 140.363V146.818C99.3299 148.95 97.8518 150.806 95.7412 151.322L72.0362 157.124C70.8258 157.432 69.5427 157.251 68.4654 156.619C67.388 155.987 66.6034 154.955 66.2818 153.749C66.1891 153.38 66.1429 153.001 66.1443 152.621V100.673C66.1443 98.5422 67.6224 96.686 69.7331 96.1704L88.6668 91.5366ZM140.821 91.8254V131.288C140.821 132.044 140.917 132.8 141.096 133.543C142.374 138.513 147.524 141.538 152.604 140.294L152.673 140.28V146.812C152.665 147.856 152.307 148.868 151.656 149.685C151.006 150.503 150.1 151.079 149.084 151.322L125.372 157.124C124.163 157.43 122.882 157.248 121.806 156.616C120.73 155.984 119.947 154.954 119.625 153.749C119.532 153.38 119.486 153.001 119.487 152.621V100.673C119.487 98.5422 120.966 96.686 123.076 96.1704L140.814 91.8254H140.821Z" fill="white"/>
</g>
<defs>
<clipPath id="clip0_108_429">
<rect width="220" height="220" fill="white"/>
</clipPath>
</defs>
</svg>
