<svg width="220" height="220" viewBox="0 0 220 220" fill="none" xmlns="http://www.w3.org/2000/svg">
<g clip-path="url(#clip0_108_430)">
<path d="M110 220C170.751 220 220 170.751 220 110C220 49.2487 170.751 0 110 0C49.2487 0 0 49.2487 0 110C0 170.751 49.2487 220 110 220Z" fill="#3B5998"/>
<path fill-rule="evenodd" clip-rule="evenodd" d="M97.0474 41.3174H109.972V81.7561L97.0474 68.2605V41.3174Z" fill="white"/>
<path fill-rule="evenodd" clip-rule="evenodd" d="M41.3257 54.9532H75.3501C86.8795 67.0188 98.457 79.0638 109.986 91.1569C116.662 84.22 123.317 77.235 129.965 70.2775C134.881 65.1832 139.776 60.0613 144.678 54.9463H178.619C162.779 70.965 146.96 86.9975 131.113 103.003C129.449 104.673 127.779 106.358 126.149 108.049C126.548 108.475 126.974 108.894 127.332 109.348L173.883 156.414L178.633 161.199H152.302C151.621 161.199 150.941 161.241 150.274 161.151C148.397 161.096 146.513 161.179 144.636 161.11C141.233 157.597 137.871 154.036 134.468 150.509C127.779 143.551 121.117 136.553 114.428 129.581C112.943 128.041 111.492 126.46 109.973 124.961C106.741 128.399 103.428 131.788 100.176 135.226L81.7713 154.434C79.6263 156.669 77.5088 158.917 75.3501 161.11C73.4938 161.165 71.6238 161.11 69.7538 161.138C68.6882 161.268 67.6088 161.179 66.5432 161.206H41.3188L91.2863 110.675C92.1457 109.809 92.9982 108.936 93.8301 108.049L41.3188 54.9532H41.3257Z" fill="white"/>
<path fill-rule="evenodd" clip-rule="evenodd" d="M110 134.277C114.304 138.835 118.663 143.345 122.98 147.89C123.008 156.875 122.98 165.847 122.98 174.84H109.986C109.986 161.317 109.986 147.8 110.014 134.277H110Z" fill="white"/>
</g>
<defs>
<clipPath id="clip0_108_430">
<rect width="220" height="220" fill="white"/>
</clipPath>
</defs>
</svg>
