<svg width="220" height="220" viewBox="0 0 220 220" fill="none" xmlns="http://www.w3.org/2000/svg">
<g clip-path="url(#clip0_108_431)">
<path d="M110 220C170.751 220 220 170.751 220 110C220 49.2487 170.751 0 110 0C49.2487 0 0 49.2487 0 110C0 170.751 49.2487 220 110 220Z" fill="#FAA00D"/>
<path d="M178.695 99.4881L113.596 175.182L110.674 178.75L41.2981 100.251L41.5181 100.162L41.25 100.121L68.2137 55.0412L68.2275 55.055L68.2137 55H152.46L152.446 55.0481L178.75 99.4813L178.695 99.4881ZM88.385 102.644L73.4662 127.903L110.261 169.923L147.132 127.559L132.543 102.568L88.385 102.644ZM69.2863 123.131L81.3863 102.651L51.3975 102.699L69.2863 123.131ZM136.132 96.69L170.191 96.635L148.809 60.83L115.246 60.8987L136.132 96.69ZM168.933 102.506L139.556 102.554L151.332 122.732L168.933 102.506ZM129.119 96.7038L110.619 64.9963L91.85 96.7588L129.119 96.7038ZM71.3762 60.995L50.0638 96.8344L84.8512 96.7725L106.026 60.9263L71.3762 60.995Z" fill="white"/>
</g>
<defs>
<clipPath id="clip0_108_431">
<rect width="220" height="220" fill="white"/>
</clipPath>
</defs>
</svg>
