<svg width="220" height="220" viewBox="0 0 220 220" fill="none" xmlns="http://www.w3.org/2000/svg">
<g clip-path="url(#clip0_108_432)">
<path d="M110 220C170.751 220 220 170.751 220 110C220 49.2487 170.751 0 110 0C49.2487 0 0 49.2487 0 110C0 170.751 49.2487 220 110 220Z" fill="#F7931A"/>
<path d="M178.592 135.809L174.845 150.817L164.842 148.329L168.582 133.314L153.574 129.574L156.07 119.571L171.078 123.311L174.825 108.302L184.828 110.798L181.088 125.806L196.096 129.546L193.6 139.556L178.592 135.809ZM141.694 94.6006C140.298 103.882 135.238 108.392 128.549 110.001C137.7 114.834 142.333 122.286 137.816 135.28C132.206 151.416 119.075 152.846 101.64 149.58L97.309 166.919L87.0927 164.375L91.3621 147.256C88.6411 146.583 85.9276 145.879 83.2221 145.146L78.9321 162.333L68.7296 159.789L73.0608 142.409C70.6683 141.797 68.2483 141.151 65.7733 140.532L52.4702 137.212L57.6127 125.236C57.6127 125.236 65.1408 127.236 65.0377 127.092C67.939 127.8 69.2315 125.868 69.7471 124.582L76.5808 97.165L77.6671 97.4331C77.32 97.2946 76.964 97.1798 76.6015 97.0894L81.4827 77.5162C81.6202 75.2956 80.8846 72.5044 76.739 71.4662C76.904 71.3631 69.3208 69.6237 69.3208 69.6237L72.1052 58.4587L86.199 61.9787L86.1852 62.0269C88.3027 62.5562 90.489 63.0581 92.7165 63.56L96.9996 46.3862L107.216 48.93L103.015 65.7737C105.758 66.3925 108.515 67.025 111.196 67.6987L115.37 50.9719L125.593 53.5156L121.31 70.6962C134.207 75.165 143.619 81.9231 141.694 94.6006ZM118.133 128.185C121.509 114.641 99.2821 111.272 92.3521 109.54L86.6252 132.551C93.5552 134.269 114.916 141.165 118.147 128.178L118.133 128.185ZM121.481 94.525C124.548 82.1981 105.958 79.5581 100.19 78.1212L94.9852 99.0006C100.753 100.444 118.532 106.336 121.481 94.525Z" fill="white"/>
</g>
<defs>
<clipPath id="clip0_108_432">
<rect width="220" height="220" fill="white"/>
</clipPath>
</defs>
</svg>
