<svg width="220" height="220" viewBox="0 0 220 220" fill="none" xmlns="http://www.w3.org/2000/svg">
<g clip-path="url(#clip0_108_433)">
<path d="M110 220C170.751 220 220 170.751 220 110C220 49.2487 170.751 0 110 0C49.2487 0 0 49.2487 0 110C0 170.751 49.2487 220 110 220Z" fill="#21AF67"/>
<path d="M110 192.5C64.4394 192.5 27.5 155.561 27.5 110C27.5 64.4394 64.4394 27.5 110 27.5C155.561 27.5 192.5 64.4394 192.5 110C192.5 155.561 155.561 192.5 110 192.5ZM141.714 80.1006C140.504 78.4506 138.531 77.11 135.823 76.065C133.121 75.0269 129.401 74.5044 124.685 74.5044H114.716L122.808 52.2638L128.205 37.4344C122.782 36.0813 117.224 35.341 111.636 35.2275C111.086 35.2275 110.536 35.1863 109.986 35.1863C109.143 35.1919 108.299 35.2148 107.456 35.255C67.3819 36.5887 35.1863 69.5888 35.1863 110C35.1863 131.539 44.4813 152.027 60.6925 166.196L66.5569 150.074C56.4543 139.175 50.8432 124.861 50.8475 110C50.8475 80.245 72.93 55.5706 101.564 51.4594C102.981 51.2531 104.445 51.1156 105.896 50.9919L84.2944 110.351L127.394 106.109C127.372 106.098 127.349 106.088 127.325 106.081C128.666 105.648 129.951 105.077 131.175 104.363C134.321 102.557 137.088 100.16 139.322 97.3019C140.546 95.7206 141.522 93.9469 142.196 92.0563C142.952 90.035 143.385 87.9037 143.474 85.7519C143.56 83.7212 142.938 81.7239 141.714 80.1006ZM123.331 94.5725C122.389 97.13 120.924 98.9313 118.896 99.9694C116.997 100.981 114.881 101.519 112.729 101.537H104.961L110.172 87.2094H117.941C118.869 87.2094 119.797 87.3263 120.691 87.5669C121.509 87.7606 122.266 88.1578 122.891 88.7219C123.499 89.3278 123.868 90.1338 123.929 90.9906C124.007 92.2147 123.803 93.4404 123.331 94.5725ZM132 38.4862L126.631 53.2469C134.361 55.5066 141.548 59.3211 147.752 64.4568C153.955 69.5924 159.045 75.9409 162.708 83.1131C166.371 90.2853 168.531 98.1302 169.056 106.167C169.58 114.203 168.457 122.262 165.757 129.849C163.056 137.437 158.835 144.393 153.351 150.291C147.867 156.189 141.236 160.905 133.865 164.149C126.494 167.394 118.538 169.099 110.484 169.161C102.431 169.222 94.4501 167.637 87.0306 164.505C85.8232 163.987 84.6332 163.43 83.4625 162.834L89.595 146.025H99.55C108.57 146.025 115.967 144.499 121.756 141.433C127.538 138.373 131.656 133.485 134.111 126.761C135.011 124.272 135.348 122.086 135.08 120.202C134.883 118.488 134.315 116.836 133.416 115.363C132.609 114.069 131.53 112.967 130.254 112.131C129.255 111.484 128.196 110.936 127.091 110.495L83.6 114.785L69.6094 153.154L63.9031 168.857C69.3219 173.11 75.2995 176.599 81.6681 179.224C90.6537 182.923 100.279 184.821 110 184.814C151.25 184.814 184.814 151.257 184.814 110C184.814 76.4019 162.553 47.905 132 38.4862ZM100.1 117.377H109.175C110.261 117.384 111.341 117.487 112.406 117.686C113.438 117.851 114.434 118.229 115.321 118.786C116.146 119.35 116.738 120.189 116.985 121.151C117.274 122.189 117.123 123.551 116.511 125.235C115.969 126.849 115.088 128.329 113.926 129.573C112.949 130.584 111.794 131.402 110.516 131.993C109.337 132.527 108.086 132.884 106.803 133.052C105.671 133.209 104.529 133.292 103.386 133.299H94.2906L100.1 117.377Z" fill="white"/>
</g>
<defs>
<clipPath id="clip0_108_433">
<rect width="220" height="220" fill="white"/>
</clipPath>
</defs>
</svg>
