<svg width="220" height="220" viewBox="0 0 220 220" fill="none" xmlns="http://www.w3.org/2000/svg">
<g clip-path="url(#clip0_108_434)">
<path d="M110 220C170.751 220 220 170.751 220 110C220 49.2487 170.751 0 110 0C49.2487 0 0 49.2487 0 110C0 170.751 49.2487 220 110 220Z" fill="#56F4F1"/>
<path d="M41.25 61.985C41.25 61.8819 42.6938 61.875 61.3113 61.8887L81.3794 61.9094L92.7919 81.1113L104.397 100.643L104.589 100.966L106.404 97.8725C107.394 96.1675 108.206 94.7444 108.192 94.7031C108.178 94.6619 103.812 87.2919 98.4981 78.3406C93.1837 69.3894 88.8319 62.0263 88.8319 61.9781C88.8319 61.8888 91.85 61.875 109.959 61.875C121.688 61.875 131.079 61.9025 131.079 61.9438C131.079 62.0813 86.2881 138.236 86.185 138.256C86.1094 138.27 79.5575 127.201 63.6625 100.189C51.3356 79.2413 41.25 62.0537 41.25 61.985ZM138.462 61.9231C138.462 61.8956 147.537 61.875 158.613 61.875H178.75L178.723 62.0263C178.702 62.1156 168.664 79.2206 156.42 100.038C141.577 125.249 134.104 137.892 134.008 137.906C133.918 137.919 131.814 134.42 124.761 122.547C119.728 114.091 115.596 107.147 115.569 107.133C115.514 107.099 111.904 113.224 111.932 113.307C111.939 113.341 116.084 120.319 121.131 128.817C124.232 133.976 127.28 139.167 130.274 144.389C130.212 144.629 110.089 178.729 110.007 178.75C109.876 178.777 89.87 144.787 89.9113 144.616C89.9456 144.54 137.72 63.1469 138.456 61.9231H138.462Z" fill="white"/>
</g>
<defs>
<clipPath id="clip0_108_434">
<rect width="220" height="220" fill="white"/>
</clipPath>
</defs>
</svg>
