<svg width="220" height="220" viewBox="0 0 220 220" fill="none" xmlns="http://www.w3.org/2000/svg">
<g clip-path="url(#clip0_108_16)">
<path d="M110 220C170.751 220 220 170.751 220 110C220 49.2487 170.751 0 110 0C49.2487 0 0 49.2487 0 110C0 170.751 49.2487 220 110 220Z" fill="#FFCE47"/>
<path d="M152 149.45H68.0002C67.7189 149.452 67.44 149.398 67.1802 149.29C66.9206 149.187 66.6855 149.03 66.4902 148.83C66.2933 148.632 66.137 148.398 66.0302 148.14C65.9225 147.88 65.8681 147.601 65.8702 147.32V73.5601C65.8728 67.6581 68.2192 61.9987 72.3935 57.8263C76.5678 53.6539 82.2282 51.3101 88.1302 51.3101H131.89C137.79 51.3127 143.448 53.6577 147.62 57.8299C151.792 62.002 154.138 67.6598 154.14 73.5601V147.32C154.143 147.601 154.089 147.88 153.98 148.14C153.762 148.665 153.345 149.082 152.82 149.3C152.56 149.405 152.281 149.456 152 149.45ZM70.1202 145.2H149.87V73.5601C149.87 68.7862 147.974 64.2078 144.598 60.8321C141.222 57.4565 136.644 55.5601 131.87 55.5601H88.1202C83.3463 55.5601 78.7679 57.4565 75.3922 60.8321C72.0166 64.2078 70.1202 68.7862 70.1202 73.5601V145.2Z" fill="#32407B"/>
<path d="M87.5099 136.25C85.4589 136.254 83.4698 135.547 81.882 134.249C80.2941 132.951 79.2058 131.142 78.8027 129.131C78.3996 127.12 78.7066 125.032 79.6715 123.222C80.6363 121.412 82.1991 119.993 84.0934 119.207C85.9877 118.42 88.096 118.316 90.0589 118.91C92.0218 119.505 93.7175 120.762 94.8569 122.468C95.9963 124.173 96.5088 126.221 96.3069 128.262C96.105 130.303 95.2013 132.211 93.7498 133.66C92.0954 135.316 89.851 136.248 87.5099 136.25ZM87.5099 122.83C86.6025 122.829 85.7153 123.097 84.9598 123.6C84.208 124.107 83.6207 124.823 83.2698 125.66C82.9222 126.498 82.8316 127.422 83.0097 128.312C83.1877 129.202 83.6264 130.019 84.2698 130.66C84.8034 131.19 85.4593 131.58 86.1794 131.796C86.8996 132.012 87.662 132.048 88.3992 131.9C89.1364 131.752 89.8258 131.424 90.4065 130.947C90.9872 130.469 91.4414 129.856 91.7289 129.161C92.0164 128.466 92.1284 127.711 92.055 126.963C91.9817 126.214 91.7251 125.496 91.3082 124.87C90.8912 124.244 90.3265 123.731 89.6641 123.375C89.0017 123.019 88.2618 122.832 87.5099 122.83Z" fill="#32407B"/>
<path d="M132.48 136.25C130.435 136.25 128.453 135.541 126.871 134.244C125.29 132.947 124.208 131.142 123.808 129.136C123.409 127.13 123.718 125.048 124.681 123.244C125.645 121.44 127.205 120.026 129.094 119.243C130.983 118.46 133.086 118.357 135.043 118.95C137 119.543 138.691 120.797 139.828 122.498C140.964 124.198 141.476 126.24 141.276 128.275C141.076 130.31 140.176 132.213 138.73 133.66C137.909 134.481 136.935 135.133 135.863 135.577C134.79 136.022 133.641 136.25 132.48 136.25ZM132.48 122.83C131.576 122.831 130.692 123.099 129.94 123.6C129.188 124.105 128.602 124.821 128.256 125.658C127.91 126.495 127.82 127.416 127.996 128.305C128.173 129.193 128.608 130.009 129.247 130.651C129.887 131.293 130.702 131.731 131.59 131.91C132.478 132.086 133.399 131.995 134.236 131.648C135.072 131.3 135.787 130.713 136.29 129.96C136.752 129.27 137.018 128.467 137.06 127.638C137.101 126.809 136.916 125.984 136.525 125.251C136.133 124.519 135.55 123.907 134.838 123.48C134.125 123.054 133.31 122.829 132.48 122.83Z" fill="#32407B"/>
<path d="M122.77 66.9998H97.22C96.9415 67 96.6657 66.9454 96.4083 66.839C96.151 66.7326 95.9171 66.5766 95.72 66.3798C95.5229 66.1829 95.3665 65.9491 95.2598 65.6917C95.1531 65.4343 95.0981 65.1584 95.0981 64.8798C95.0981 64.6011 95.1531 64.3253 95.2598 64.0679C95.3665 63.8105 95.5229 63.5767 95.72 63.3798C95.9171 63.183 96.151 63.0269 96.4083 62.9205C96.6657 62.8142 96.9415 62.7595 97.22 62.7598H122.77C123.335 62.7598 123.877 62.9842 124.276 63.3836C124.676 63.7831 124.9 64.3249 124.9 64.8898C124.9 65.4547 124.676 65.9965 124.276 66.3959C123.877 66.7954 123.335 67.0198 122.77 67.0198V66.9998Z" fill="#32407B"/>
<path d="M150.79 169.88C150.442 169.884 150.098 169.802 149.79 169.64C149.48 169.492 149.209 169.273 149 169L135.5 149.73C135.342 149.5 135.23 149.242 135.17 148.97C135.115 148.696 135.115 148.414 135.17 148.14C135.214 147.862 135.316 147.596 135.47 147.36C135.62 147.125 135.813 146.921 136.04 146.76C136.27 146.602 136.528 146.49 136.8 146.43C137.074 146.37 137.357 146.37 137.63 146.43C137.903 146.475 138.165 146.574 138.4 146.72C138.637 146.871 138.842 147.068 139 147.3L152.55 166.55C152.772 166.869 152.903 167.242 152.93 167.63C152.968 168.023 152.894 168.42 152.717 168.773C152.54 169.127 152.267 169.424 151.93 169.63C151.599 169.832 151.218 169.939 150.83 169.94L150.79 169.88Z" fill="#32407B"/>
<path d="M69.2102 169.88C68.8189 169.879 68.4352 169.772 68.1001 169.57C67.7676 169.367 67.4977 169.077 67.3202 168.73C67.1427 168.384 67.0599 167.998 67.0802 167.61C67.108 167.218 67.2429 166.841 67.4702 166.52L81.0002 147.28C81.1581 147.042 81.3621 146.838 81.6002 146.68C81.8345 146.519 82.1004 146.41 82.3801 146.36C82.6598 146.306 82.9475 146.309 83.226 146.369C83.5044 146.43 83.7677 146.545 84.0002 146.71C84.2325 146.872 84.4298 147.08 84.5802 147.32C84.7312 147.565 84.8331 147.836 84.8801 148.12C84.9349 148.397 84.9349 148.683 84.8801 148.96C84.8181 149.237 84.6951 149.497 84.5201 149.72L71.0002 169C70.8018 169.279 70.5417 169.508 70.2401 169.67C69.9199 169.825 69.5657 169.898 69.2102 169.88Z" fill="#32407B"/>
<path d="M72.5598 165.11C72.1717 165.109 71.7912 165.002 71.4598 164.8C71.1219 164.601 70.8478 164.309 70.6698 163.96C70.4935 163.614 70.414 163.227 70.4398 162.84C70.469 162.453 70.6001 162.08 70.8198 161.76L80.9998 147.28C81.1578 147.042 81.3618 146.838 81.5998 146.68C81.8383 146.527 82.1026 146.418 82.3798 146.36C82.9447 146.266 83.524 146.391 83.9998 146.71C84.2303 146.878 84.427 147.089 84.5798 147.33C84.7293 147.572 84.8311 147.84 84.8798 148.12C84.9639 148.688 84.8201 149.267 84.4798 149.73L74.2998 164.21C74.1069 164.491 73.8453 164.718 73.5398 164.87C73.2377 165.029 72.9012 165.111 72.5598 165.11Z" fill="#32407B"/>
<path d="M152 83.28H68.0001C67.7136 83.289 67.4282 83.2414 67.1601 83.14C66.6397 82.9256 66.2234 82.5166 66.0001 82C65.8891 81.7338 65.8314 81.4484 65.8301 81.16C65.8314 80.8748 65.8892 80.5927 66.0001 80.33C66.114 80.0682 66.2769 79.8306 66.4801 79.63C66.6866 79.4321 66.9317 79.2789 67.2001 79.18C67.4514 79.0654 67.7238 79.0041 68.0001 79H152C152.288 78.989 152.574 79.0402 152.84 79.15C153.106 79.248 153.348 79.4014 153.55 79.6C153.756 79.8002 153.923 80.0378 154.04 80.3C154.148 80.5634 154.202 80.8455 154.2 81.13C154.194 81.4306 154.125 81.7267 154 82C153.885 82.2606 153.718 82.4953 153.51 82.69C153.309 82.8922 153.067 83.049 152.8 83.15C152.544 83.243 152.273 83.2871 152 83.28Z" fill="#32407B"/>
<path d="M152 110.23H68C67.713 110.249 67.4254 110.201 67.16 110.09C66.8917 109.991 66.6465 109.838 66.44 109.64C66.2369 109.44 66.074 109.202 65.96 108.94C65.8491 108.678 65.7914 108.395 65.79 108.11C65.7914 107.822 65.8491 107.536 65.96 107.27C66.0703 107.006 66.2337 106.768 66.4402 106.57C66.6466 106.372 66.8917 106.219 67.16 106.12C67.4295 106.026 67.7149 105.985 68 106H152C152.287 105.991 152.572 106.039 152.84 106.14C153.105 106.241 153.346 106.394 153.55 106.59C153.756 106.79 153.922 107.028 154.04 107.29C154.148 107.557 154.202 107.842 154.2 108.13C154.202 108.415 154.148 108.697 154.04 108.96C153.922 109.222 153.756 109.46 153.55 109.66C153.348 109.859 153.106 110.012 152.84 110.11C152.573 110.214 152.286 110.256 152 110.23Z" fill="#32407B"/>
<path d="M87.5099 110.23C87.103 110.231 86.7045 110.115 86.3609 109.897C86.0173 109.679 85.7429 109.368 85.5699 109C85.4067 108.626 85.3513 108.214 85.4099 107.81C85.4693 107.406 85.6427 107.028 85.9099 106.72L95.6199 95.66C95.9021 95.3615 96.2645 95.1509 96.6636 95.0537C97.0627 94.9565 97.4814 94.9767 97.8692 95.112C98.2571 95.2473 98.5975 95.4918 98.8496 95.8161C99.1017 96.1404 99.2546 96.5307 99.2899 96.94C99.3397 97.4888 99.1708 98.0351 98.8199 98.46L89.1099 109.53C88.9131 109.761 88.6675 109.945 88.3908 110.07C88.1141 110.194 87.8132 110.256 87.5099 110.25V110.23Z" fill="#32407B"/>
<path d="M100.28 110.23C99.8707 110.237 99.4694 110.118 99.1298 109.89C98.784 109.671 98.5098 109.355 98.341 108.982C98.1722 108.609 98.1162 108.194 98.1798 107.79C98.2392 107.386 98.4127 107.008 98.6798 106.7L118.1 84.5699C118.285 84.3619 118.509 84.192 118.76 84.0699C119.01 83.9468 119.282 83.8754 119.56 83.8599C119.84 83.8381 120.122 83.8721 120.39 83.9599C120.654 84.0543 120.898 84.1967 121.11 84.3799C121.53 84.7538 121.785 85.2786 121.82 85.8399C121.842 86.1172 121.808 86.3962 121.72 86.6599C121.632 86.9268 121.489 87.1721 121.3 87.3799L101.88 109.51C101.683 109.739 101.437 109.92 101.16 110.04C100.884 110.167 100.584 110.232 100.28 110.23Z" fill="#32407B"/>
<path d="M140.71 156.24H79.2901C79.0036 156.249 78.7181 156.202 78.4501 156.1C78.1812 155.997 77.9362 155.841 77.7301 155.64C77.5258 155.44 77.3627 155.203 77.2501 154.94C77.1381 154.678 77.0803 154.395 77.0801 154.11C77.0814 153.825 77.1392 153.543 77.2501 153.28C77.3676 153.02 77.5301 152.783 77.7301 152.58C77.9388 152.383 78.1831 152.226 78.4501 152.12C78.7181 152.019 79.0036 151.971 79.2901 151.98H140.71C141.261 152.005 141.783 152.237 142.17 152.63C142.457 152.926 142.651 153.299 142.73 153.704C142.809 154.109 142.769 154.528 142.614 154.91C142.459 155.292 142.197 155.621 141.859 155.857C141.521 156.093 141.122 156.226 140.71 156.24Z" fill="#32407B"/>
<path d="M147.43 165.11H72.5602C71.9953 165.11 71.4535 164.886 71.054 164.486C70.6546 164.087 70.4302 163.545 70.4302 162.98C70.4302 162.415 70.6546 161.873 71.054 161.474C71.4535 161.075 71.9953 160.85 72.5602 160.85H147.43C147.993 160.855 148.532 161.081 148.931 161.48C149.329 161.878 149.555 162.417 149.56 162.98C149.56 163.261 149.504 163.539 149.396 163.798C149.288 164.057 149.13 164.292 148.93 164.49C148.734 164.688 148.5 164.844 148.243 164.951C147.985 165.057 147.709 165.111 147.43 165.11Z" fill="#32407B"/>
</g>
<defs>
<clipPath id="clip0_108_16">
<rect width="220" height="220" fill="white"/>
</clipPath>
</defs>
</svg>
