<svg width="220" height="220" viewBox="0 0 220 220" fill="none" xmlns="http://www.w3.org/2000/svg">
<g clip-path="url(#clip0_108_435)">
<path d="M110 220C170.751 220 220 170.751 220 110C220 49.2487 170.751 0 110 0C49.2487 0 0 49.2487 0 110C0 170.751 49.2487 220 110 220Z" fill="#ED1650"/>
<path fill-rule="evenodd" clip-rule="evenodd" d="M161.425 68.75H133.622C133.059 68.751 132.5 68.8646 131.981 69.0842C131.461 69.3038 130.991 69.6249 130.597 70.0287L79.8943 121.791C79.5007 122.194 79.0303 122.516 78.5108 122.735C77.9914 122.955 77.4333 123.068 76.8693 123.069H67.5743C67.0104 123.068 66.4523 122.955 65.9328 122.735C65.4134 122.516 64.943 122.194 64.5493 121.791L57.9768 115.094C57.1715 114.274 56.7199 113.171 56.7187 112.021V102.554C56.7188 101.403 57.1705 100.297 57.9768 99.4744L64.5493 92.7781C64.9433 92.3746 65.4137 92.0537 65.9331 91.8341C66.4525 91.6145 67.0104 91.5008 67.5743 91.4994H76.8693C78.0037 91.4994 79.09 91.96 79.8943 92.7781L83.93 96.8894C84.3233 97.2935 84.7936 97.6147 85.3132 97.8341C85.8328 98.0534 86.391 98.1664 86.955 98.1664C87.5189 98.1664 88.0772 98.0534 88.5967 97.8341C89.1163 97.6147 89.5866 97.2935 89.98 96.8894L99.7356 86.9619C100.539 86.1377 100.988 85.0325 100.988 83.8819C100.988 82.7312 100.539 81.6261 99.7356 80.8019L89.1481 70.0287C88.7542 69.6252 88.2838 69.3043 87.7644 69.0847C87.245 68.8652 86.687 68.7514 86.1231 68.75H58.3206C57.7567 68.7514 57.1987 68.8652 56.6793 69.0847C56.1599 69.3043 55.6895 69.6252 55.2956 70.0287L35.6331 90.0487C34.8293 90.8723 34.3801 91.978 34.3818 93.1287V121.44C34.3818 122.595 34.8356 123.709 35.6331 124.52L55.2956 144.547C55.6901 144.949 56.1607 145.269 56.6801 145.487C57.1995 145.706 57.7572 145.818 58.3206 145.819H86.13C86.6939 145.817 87.2518 145.704 87.7712 145.484C88.2906 145.264 88.7611 144.944 89.155 144.54L139.858 92.785C140.251 92.3802 140.722 92.058 141.241 91.8373C141.76 91.6165 142.319 91.5016 142.883 91.4994H152.178C153.312 91.4994 154.399 91.96 155.203 92.7781L161.776 99.4744C162.582 100.297 163.034 101.403 163.034 102.554V112.021C163.032 113.171 162.58 114.274 161.776 115.094L155.203 121.791C154.809 122.194 154.339 122.516 153.82 122.735C153.3 122.955 152.742 123.068 152.178 123.069H142.883C142.319 123.068 141.761 122.955 141.242 122.735C140.722 122.516 140.252 122.194 139.858 121.791L135.788 117.645C135.398 117.244 134.931 116.924 134.416 116.705C133.901 116.486 133.347 116.371 132.787 116.368C132.228 116.365 131.673 116.473 131.155 116.687C130.638 116.9 130.168 117.214 129.772 117.611L117.741 129.587C117.333 129.996 117.009 130.482 116.788 131.016C116.568 131.551 116.455 132.123 116.456 132.701V160.476C116.456 162.882 118.374 164.835 120.732 164.835H134.757C135.324 164.83 135.884 164.714 136.406 164.493C136.929 164.272 137.402 163.95 137.8 163.546C138.197 163.142 138.512 162.664 138.725 162.138C138.937 161.612 139.044 161.05 139.04 160.483V150.171C139.04 147.764 140.958 145.819 143.316 145.819H161.432C161.995 145.818 162.553 145.706 163.072 145.487C163.592 145.269 164.062 144.949 164.457 144.547L184.119 124.52C184.926 123.698 185.377 122.592 185.377 121.44V93.1287C185.379 91.978 184.93 90.8723 184.126 90.0487L164.464 70.0287C164.07 69.6252 163.599 69.3043 163.08 69.0847C162.561 68.8652 162.003 68.7514 161.439 68.75" fill="white"/>
</g>
<defs>
<clipPath id="clip0_108_435">
<rect width="220" height="220" fill="white"/>
</clipPath>
</defs>
</svg>
