<svg width="220" height="220" viewBox="0 0 220 220" fill="none" xmlns="http://www.w3.org/2000/svg">
<g clip-path="url(#clip0_108_436)">
<path d="M110 220C170.751 220 220 170.751 220 110C220 49.2487 170.751 0 110 0C49.2487 0 0 49.2487 0 110C0 170.751 49.2487 220 110 220Z" fill="#4F7AA2"/>
<path d="M91.4994 82.5H110.323C119.412 82.5 135.644 88.0206 135.644 110C135.644 131.979 119.419 137.5 110.323 137.5H91.5063L91.4994 82.5ZM101.881 126.362H109.677C116.167 126.362 123.956 122.389 123.956 110C123.956 97.6112 116.167 93.6375 109.677 93.6375H101.887L101.881 126.362ZM142.794 82.5H146.685L181.734 130.804V82.5H185.625V137.5H181.727L146.678 90.255V137.5H142.78L142.794 82.5ZM34.375 82.5H47.355V96.25H34.375V82.5ZM53.8519 82.5H66.825V96.25H53.8519V82.5ZM73.3219 82.5H86.3088V96.25H73.3219V82.5ZM73.3219 103.125H86.3088V116.875H73.3219V103.125ZM73.3219 123.75H86.3088V137.5H73.3219V123.75ZM53.8519 103.125H66.825V116.875H53.8519V103.125Z" fill="white"/>
</g>
<defs>
<clipPath id="clip0_108_436">
<rect width="220" height="220" fill="white"/>
</clipPath>
</defs>
</svg>
