<svg width="220" height="220" viewBox="0 0 220 220" fill="none" xmlns="http://www.w3.org/2000/svg">
<g clip-path="url(#clip0_108_437)">
<path d="M110 220C170.751 220 220 170.751 220 110C220 49.2487 170.751 0 110 0C49.2487 0 0 49.2487 0 110C0 170.751 49.2487 220 110 220Z" fill="#67B2E8"/>
<path fill-rule="evenodd" clip-rule="evenodd" d="M42.2469 82.1821C41.6035 76.8941 41.2707 71.5729 41.25 66.2459C50.2735 61.106 59.8494 57.003 69.795 54.0152C83.7494 49.8161 98.2772 47.8372 112.846 48.1509C116.751 48.2265 122.402 48.6596 126.692 49.1202C121.249 52.0395 116.53 56.1431 112.883 61.1286C109.236 66.1141 106.754 71.8544 105.621 77.9265C105.208 80.0852 104.981 82.3265 104.906 84.719C104.796 88.404 104.438 91.3052 103.668 94.0209C101.937 100.141 98.3732 105.585 93.4561 109.62C88.539 113.655 82.5043 116.088 76.1635 116.591C69.8228 117.094 63.48 115.643 57.9881 112.434C52.4962 109.225 48.1185 104.412 45.4438 98.6409C45.1413 97.98 44.9108 97.2885 44.7563 96.5784C43.6674 91.8271 42.8297 87.0216 42.2469 82.1821ZM156.461 141.032C154.825 143.576 153.093 146.051 151.291 148.492C151.347 141.548 149.619 134.707 146.272 128.623C142.83 122.214 137.736 116.842 131.519 113.065L130.9 112.686C130.556 112.484 130.215 112.278 129.876 112.068C122.059 107.097 117.294 100.14 115.617 91.1609C114.161 83.3394 115.762 75.2574 120.089 68.5815C124.417 61.9055 131.141 57.1445 138.875 55.2802C144.513 53.919 150.081 54.1115 155.629 55.8509C159.885 57.1915 164.189 58.9446 169.434 61.399C172.459 62.8221 175.512 64.4034 178.757 66.239C178.713 75.8269 177.671 85.3841 175.649 94.7565C172.121 111.219 165.621 126.901 156.468 141.032H156.461ZM135.582 166.284C127.819 173.681 119.239 180.17 110.007 185.623C107.621 184.248 105.289 182.783 103.015 181.23C80.9635 166.4 63.5856 145.603 52.91 121.266C57.9957 124.258 63.6744 126.1 69.5475 126.663C78.1818 127.538 86.8726 125.679 94.3937 121.349C98.0092 119.289 101.994 117.96 106.122 117.437C113.442 116.512 120.852 118.222 127.026 122.26C133.201 126.299 137.737 132.402 139.824 139.478C142.127 147.185 141.453 154.755 137.878 162.214C137.576 162.846 137.314 163.355 136.696 164.572L136.393 165.17C136.189 165.586 135.915 165.963 135.582 166.284Z" fill="white"/>
</g>
<defs>
<clipPath id="clip0_108_437">
<rect width="220" height="220" fill="white"/>
</clipPath>
</defs>
</svg>
