<svg width="220" height="220" viewBox="0 0 220 220" fill="none" xmlns="http://www.w3.org/2000/svg">
<g clip-path="url(#clip0_108_438)">
<path d="M110 220C170.751 220 220 170.751 220 110C220 49.2487 170.751 0 110 0C49.2487 0 0 49.2487 0 110C0 170.751 49.2487 220 110 220Z" fill="#1EB5FA"/>
<path d="M181.535 49.1632L156.578 60.2319C155.85 60.6301 155.243 61.2168 154.819 61.9304C154.396 62.6441 154.173 63.4584 154.172 64.2882V153.526C154.169 154.364 154.399 155.188 154.836 155.904C155.273 156.62 155.9 157.201 156.647 157.582L181.603 168.376C181.959 168.57 182.359 168.668 182.764 168.66C183.169 168.651 183.565 168.537 183.913 168.329C184.26 168.12 184.547 167.825 184.745 167.471C184.943 167.118 185.045 166.718 185.041 166.313V51.2257C185.028 50.8198 184.912 50.4239 184.705 50.0747C184.498 49.7255 184.206 49.4345 183.856 49.2286C183.506 49.0227 183.109 48.9088 182.704 48.8973C182.298 48.8859 181.896 48.9773 181.535 49.1632ZM62.0126 60.0944L37.8126 49.0944C37.457 48.9002 37.0568 48.8023 36.6517 48.8105C36.2466 48.8187 35.8506 48.9327 35.5032 49.1412C35.1557 49.3497 34.8688 49.6454 34.671 49.999C34.4731 50.3526 34.3711 50.7517 34.3751 51.1569V166.244C34.3754 166.662 34.487 167.071 34.6984 167.431C34.9098 167.79 35.2133 168.087 35.5776 168.29C35.9419 168.493 36.3539 168.596 36.7709 168.587C37.188 168.577 37.5951 168.457 37.9501 168.238L62.2876 155.382C62.9598 154.972 63.5153 154.397 63.9006 153.711C64.2859 153.024 64.4881 152.25 64.4876 151.463V64.1507C64.4613 63.3182 64.2195 62.5068 63.7856 61.7958C63.3518 61.0848 62.7409 60.4986 62.0126 60.0944ZM137.913 90.5507L111.856 75.6319C111.157 75.2263 110.362 75.0127 109.553 75.0127C108.744 75.0127 107.95 75.2263 107.25 75.6319L80.7126 90.4132C80.0027 90.8262 79.4133 91.4181 79.0032 92.1297C78.5931 92.8414 78.3766 93.6481 78.3751 94.4694V124.719C78.3751 126.39 79.2689 127.937 80.7126 128.776L107.25 144.038C108.673 144.863 110.433 144.863 111.856 144.038L137.913 128.913C138.623 128.5 139.212 127.908 139.622 127.197C140.032 126.485 140.249 125.678 140.25 124.857V94.6069C140.257 93.7839 140.044 92.9739 139.633 92.2608C139.222 91.5477 138.628 90.9573 137.913 90.5507Z" fill="white"/>
</g>
<defs>
<clipPath id="clip0_108_438">
<rect width="220" height="220" fill="white"/>
</clipPath>
</defs>
</svg>
