<svg width="220" height="220" viewBox="0 0 220 220" fill="none" xmlns="http://www.w3.org/2000/svg">
<g clip-path="url(#clip0_108_440)">
<path d="M110 220C170.751 220 220 170.751 220 110C220 49.2487 170.751 0 110 0C49.2487 0 0 49.2487 0 110C0 170.751 49.2487 220 110 220Z" fill="#DD0632"/>
<path d="M155.939 48.125H120.464L109.917 66.3575L99.4056 48.125H63.9169L27.5 111.203L62.7619 172.253L86.6662 130.872L110 171.16L133.265 130.872L157.224 172.535L192.5 111.485L155.939 48.125ZM62.7137 148.115L41.3875 111.224L58.3481 81.8538L79.6606 118.772L62.7069 148.149V148.115H62.7137ZM65.3537 69.7263L70.9775 59.9569H92.2281L102.919 78.4712L86.6662 106.652L65.3537 69.7263ZM109.904 146.946L93.665 118.745L109.917 90.5781L117.178 103.125L126.184 118.752L109.917 146.919L109.904 146.953V146.946ZM116.896 78.4712L127.607 59.9569H148.858L154.55 69.7194L133.1 106.652L116.896 78.4644V78.4712ZM171.676 123.413L157.286 148.376L140.181 118.676L161.494 81.8331L167.241 91.7331L178.606 111.416L171.676 123.413Z" fill="white"/>
</g>
<defs>
<clipPath id="clip0_108_440">
<rect width="220" height="220" fill="white"/>
</clipPath>
</defs>
</svg>
