<svg width="220" height="220" viewBox="0 0 220 220" fill="none" xmlns="http://www.w3.org/2000/svg">
<g clip-path="url(#clip0_108_441)">
<path d="M110 220C170.751 220 220 170.751 220 110C220 49.2487 170.751 0 110 0C49.2487 0 0 49.2487 0 110C0 170.751 49.2487 220 110 220Z" fill="#004A80"/>
<path fill-rule="evenodd" clip-rule="evenodd" d="M158.125 134.338L147.929 171.875H61.875V165.598L108.556 112.53L62.8169 54.945V48.125H147.593L150.549 77.3575H145.118C141.536 70.6956 138.497 65.7112 135.988 62.4044C133.485 59.0975 131.251 57.0419 129.284 56.2238C127.896 55.55 125.984 55.0687 123.551 54.78C120.645 54.4601 117.722 54.3109 114.799 54.3331H90.7156L126.803 99.2956V101.461L82.1975 152.096H133.107C135.609 152.096 137.906 151.498 139.982 150.308C142.058 149.112 143.859 147.613 145.379 145.812C146.975 143.95 148.391 141.94 149.607 139.81C150.909 137.55 152.053 135.202 153.031 132.784L158.125 134.338Z" fill="white"/>
</g>
<defs>
<clipPath id="clip0_108_441">
<rect width="220" height="220" fill="white"/>
</clipPath>
</defs>
</svg>
