<svg width="220" height="220" viewBox="0 0 220 220" fill="none" xmlns="http://www.w3.org/2000/svg">
<g clip-path="url(#clip0_108_442)">
<path d="M110 220C170.751 220 220 170.751 220 110C220 49.2487 170.751 0 110 0C49.2487 0 0 49.2487 0 110C0 170.751 49.2487 220 110 220Z" fill="#FF6600"/>
<path d="M192.5 109.998C192.5 155.566 155.568 192.498 110 192.498C64.4325 192.498 27.5 155.566 27.5 109.998C27.5 91.5663 33.5569 74.5507 43.7388 60.8213L57.2137 74.2963C50.0592 84.8268 46.2406 97.2672 46.255 109.998C46.255 145.129 74.8069 173.674 109.938 173.674C145.062 173.674 173.614 145.123 173.614 109.998C173.609 97.2681 169.792 84.8311 162.656 74.2895L176.131 60.8145C186.792 74.992 192.539 92.2595 192.5 109.998Z" fill="white"/>
<path d="M155.629 110C155.617 122.098 150.805 133.697 142.251 142.251C133.696 150.805 122.098 155.617 110 155.63C97.9011 155.619 86.3007 150.808 77.7448 142.253C69.1889 133.699 64.3765 122.099 64.3638 110C64.3638 102.073 66.4263 94.277 70.3588 87.3814L110 127.009L149.641 87.3677C153.572 94.2629 155.638 102.063 155.636 110" fill="white"/>
<path d="M163.948 47.6096L110 101.489L68.8807 60.4384L56.0519 47.6096C71.0064 34.5952 90.1756 27.4498 110 27.5003C130.625 27.5003 149.449 35.0421 163.948 47.6096Z" fill="white"/>
</g>
<defs>
<clipPath id="clip0_108_442">
<rect width="220" height="220" fill="white"/>
</clipPath>
</defs>
</svg>
