<svg width="220" height="220" viewBox="0 0 220 220" fill="none" xmlns="http://www.w3.org/2000/svg">
<g clip-path="url(#clip0_108_444)">
<path d="M110 220C170.751 220 220 170.751 220 110C220 49.2487 170.751 0 110 0C49.2487 0 0 49.2487 0 110C0 170.751 49.2487 220 110 220Z" fill="#EC1076"/>
<path fill-rule="evenodd" clip-rule="evenodd" d="M144.719 144.375C140.58 144.375 136.036 142.292 136.036 136.042C136.036 132.963 138.442 123.496 143.241 107.635C144.224 105.188 144.712 102.987 144.712 101.042C144.712 97.295 141.824 93.5481 136.448 93.5481C133.327 93.5481 126.528 94.7856 124.465 101.454C123.09 105.903 119.921 117.707 114.957 136.874C113.032 141.873 109.588 144.375 104.631 144.375C97.192 144.375 95.9476 138.957 95.9476 135.623C95.9476 134.303 97.9276 126.321 101.894 111.698C103.441 106.817 104.211 103.262 104.211 101.042C104.211 97.7075 101.736 93.5481 95.9476 93.5481C90.1657 93.5481 84.7895 97.7075 82.3145 106.872C80.6645 112.991 78.3201 122.155 75.2882 134.372C73.6382 141.041 69.912 144.375 64.1301 144.375C58.8913 144.375 56.1413 141.46 55.8663 135.623L65.3676 96.0438H44.2957C42.9899 96.0893 41.6882 95.8731 40.4672 95.408C39.2462 94.9429 38.1306 94.2383 37.1859 93.3356C36.2413 92.4329 35.4868 91.3504 34.9668 90.1517C34.4469 88.9531 34.1719 87.6625 34.1581 86.356C34.1444 85.0495 34.3921 83.7534 34.8867 82.5441C35.3814 81.3347 36.1129 80.2365 37.0383 79.3141C37.9637 78.3917 39.0643 77.6638 40.2752 77.1731C41.4861 76.6824 42.783 76.4389 44.0895 76.4569H79.4201C84.377 76.4569 87.4088 78.8219 88.5088 83.5381C93.4726 77.2956 100.079 75.625 105.875 75.625C111.671 75.625 119.096 78.9594 122.403 86.46C126.94 81.455 134.798 75.625 145.956 75.625C156.283 75.625 164.966 82.7062 164.966 95.205C164.966 99.9281 162.621 109.794 157.939 124.795L176.069 124.671C181.369 124.671 185.625 129.085 185.625 134.523C185.625 139.961 181.369 144.375 176.117 144.375H144.719Z" fill="white"/>
</g>
<defs>
<clipPath id="clip0_108_444">
<rect width="220" height="220" fill="white"/>
</clipPath>
</defs>
</svg>
