<svg width="220" height="220" viewBox="0 0 220 220" fill="none" xmlns="http://www.w3.org/2000/svg">
<g clip-path="url(#clip0_108_445)">
<path d="M110 220C170.751 220 220 170.751 220 110C220 49.2487 170.751 0 110 0C49.2487 0 0 49.2487 0 110C0 170.751 49.2487 220 110 220Z" fill="#008200"/>
<path d="M101.681 158.125H89.32L81.8812 128.906L100.066 119.405L105.985 136.317L110.392 114.008L134.557 101.379L133.224 108.089L147.18 108.219C152.57 108.137 156.743 106.315 159.713 102.767C162.683 99.2131 164.092 94.4487 163.941 88.4469C163.917 87.6743 163.837 86.9046 163.701 86.1437L182.469 76.3331C185.068 81.1112 186.058 86.7419 185.453 93.2112C184.449 102.644 180.366 110.192 173.222 115.851C166.079 121.516 156.97 124.348 145.908 124.348L130.054 124.279L123.337 158.125H101.681ZM104.576 82.5688H116.607L98.065 108.866L52.2775 132.798L69.245 108.804L52.9375 61.875H76.8625L85.3187 94.7994L92.5512 82.5619H104.582H92.5512L105.462 61.875H120.691L155.932 61.9438C163.941 62.1638 170.507 64.2881 175.636 68.3169L156.386 78.3819C155.913 78.2941 155.435 78.2345 154.956 78.2031L139.184 78.0656L137.122 88.4469L112.942 101.083L116.6 82.5619L104.576 82.5688ZM39.7787 150.92L76.4019 131.773L60.2594 158.125H34.375L39.6481 150.666L39.7787 150.92Z" fill="white"/>
</g>
<defs>
<clipPath id="clip0_108_445">
<rect width="220" height="220" fill="white"/>
</clipPath>
</defs>
</svg>
