<svg width="220" height="220" viewBox="0 0 220 220" fill="none" xmlns="http://www.w3.org/2000/svg">
<g clip-path="url(#clip0_108_446)">
<path d="M110 220C170.751 220 220 170.751 220 110C220 49.2487 170.751 0 110 0C49.2487 0 0 49.2487 0 110C0 170.751 49.2487 220 110 220Z" fill="#4FA784"/>
<path fill-rule="evenodd" clip-rule="evenodd" d="M175.828 88.3173L120.072 72.3398L101.001 104.824L78.8493 79.1323L88.8868 77.8398L99.2337 89.9948L110.715 69.6517L60.1837 55.1661C59.5048 54.9649 58.7849 54.9461 58.0965 55.1118C57.4081 55.2774 56.7755 55.6215 56.2624 56.1095C55.7494 56.5975 55.374 57.212 55.174 57.8913C54.9741 58.5705 54.9568 59.2905 55.1237 59.9786L77.5087 149.876L101.551 109.396L123.702 135.088L113.664 136.38L103.324 124.225L80.5681 162.155L83.9368 175.699C84.1121 176.385 84.4643 177.014 84.9584 177.523C85.4525 178.031 86.0712 178.401 86.7528 178.596C87.4344 178.791 88.1552 178.803 88.8432 178.633C89.5313 178.462 90.1626 178.114 90.6743 177.624L177.506 95.0548C178.018 94.5691 178.393 93.956 178.591 93.2781C178.789 92.6002 178.803 91.8819 178.633 91.1966C178.462 90.5113 178.112 89.8837 177.62 89.3778C177.127 88.8719 176.509 88.5059 175.828 88.3173Z" fill="white"/>
</g>
<defs>
<clipPath id="clip0_108_446">
<rect width="220" height="220" fill="white"/>
</clipPath>
</defs>
</svg>
