<svg width="220" height="220" viewBox="0 0 220 220" fill="none" xmlns="http://www.w3.org/2000/svg">
<g clip-path="url(#clip0_108_447)">
<path d="M110 220C170.751 220 220 170.751 220 110C220 49.2487 170.751 0 110 0C49.2487 0 0 49.2487 0 110C0 170.751 49.2487 220 110 220Z" fill="#FFD81B"/>
<path d="M165 106.989C165 137.397 141.446 147.737 121.619 147.737V155.664H136.916V166.403H121.626V178.75H97.7006V166.403H83.0775V155.664H97.6731V147.634C91.3275 147.634 55 146.128 55 104.782V55H78.7531V106.686C78.7531 128.267 97.7694 128.068 97.7694 128.068V55H121.626V128.068C121.626 128.068 141.247 129.168 141.247 106.391V55H165V106.989Z" fill="white"/>
</g>
<defs>
<clipPath id="clip0_108_447">
<rect width="220" height="220" fill="white"/>
</clipPath>
</defs>
</svg>
