<svg width="220" height="220" viewBox="0 0 220 220" fill="none" xmlns="http://www.w3.org/2000/svg">
<g clip-path="url(#clip0_108_449)">
<path d="M110 220C170.751 220 220 170.751 220 110C220 49.2487 170.751 0 110 0C49.2487 0 0 49.2487 0 110C0 170.751 49.2487 220 110 220Z" fill="#D21E2B"/>
<path d="M110.962 40.2531V20.625L184.016 62.7825L167.124 72.6L110.962 40.2531ZM168.245 139.37V74.69L185.302 64.8725V149.188L168.252 139.37H168.245ZM110.962 173.807L167.124 141.467L184.016 151.277L110.962 193.435V173.807ZM35.5025 151.277L52.5525 141.467L108.549 173.807V193.435L35.5025 151.277ZM34.375 64.8725L51.2669 74.69V139.37L34.375 149.188V64.8725ZM35.5025 62.7825L108.549 20.625V40.2531L52.5594 72.6L35.5025 62.7825ZM109.917 42.1025L53.6044 74.4562V139.459L109.917 171.964L166.072 139.459V74.4562L109.917 42.1094V42.1025ZM155.134 100.196L152.721 104.376L136.634 95.37L116.036 106.947L136.627 118.532L152.714 109.526L155.134 113.706L141.618 121.268L155.134 128.831L152.721 133.017L139.205 125.455V140.58H134.214V122.719L113.623 111.134V134.303L129.552 143.151L127.139 147.256L113.623 139.693V154.818H108.625V139.693L95.1087 147.256L92.5375 143.076L108.625 134.221V111.134L88.0275 122.719V140.58H82.8781V125.455L69.5269 133.017L66.9487 128.831L80.465 121.268L66.9487 113.706L69.5269 109.526L85.4563 118.532L106.212 106.947L85.4494 95.3631L69.5269 104.369L66.9487 100.189L80.465 92.6269L66.9487 85.0644L69.5269 80.8844L82.8781 88.4469V73.2394H88.0344V91.1006L108.625 102.685V79.5988L92.6956 70.7438L95.1087 66.5638L108.625 74.1262V59.0012H113.616V74.1262L127.133 66.5638L129.539 70.7438L113.616 79.5988V102.768L134.207 91.1831V73.2394H139.198V88.3644L152.714 80.8019L155.121 84.9888L141.611 92.5512L155.127 100.189L155.134 100.196Z" fill="white"/>
</g>
<defs>
<clipPath id="clip0_108_449">
<rect width="220" height="220" fill="white"/>
</clipPath>
</defs>
</svg>
