<svg width="220" height="220" viewBox="0 0 220 220" fill="none" xmlns="http://www.w3.org/2000/svg">
<g clip-path="url(#clip0_108_19)">
<path d="M110 220C170.751 220 220 170.751 220 110C220 49.2487 170.751 0 110 0C49.2487 0 0 49.2487 0 110C0 170.751 49.2487 220 110 220Z" fill="white"/>
<path d="M110 212.31C166.504 212.31 212.31 166.504 212.31 110C212.31 53.4957 166.504 7.68994 110 7.68994C53.4957 7.68994 7.68994 53.4957 7.68994 110C7.68994 166.504 53.4957 212.31 110 212.31Z" fill="white"/>
<path d="M124.31 176.77C114.777 176.77 107.823 174.473 103.45 169.88C99.389 165.999 97.0334 160.666 96.9 155.05C96.8359 153.346 97.2149 151.654 98 150.14C98.7501 148.84 99.8297 147.76 101.13 147.01C102.644 146.255 104.313 145.863 106.005 145.863C107.697 145.863 109.366 146.255 110.88 147.01C112.176 147.758 113.25 148.839 113.99 150.14C114.811 151.644 115.222 153.337 115.18 155.05C115.263 157.091 114.676 159.103 113.51 160.78C112.524 162.155 111.121 163.175 109.51 163.69C111.078 165.68 113.292 167.06 115.77 167.59C118.546 168.393 121.42 168.807 124.31 168.82C128.131 168.849 131.872 167.731 135.05 165.61C138.346 163.28 140.801 159.948 142.05 156.11C143.642 151.544 144.42 146.735 144.35 141.9C144.471 136.861 143.619 131.846 141.84 127.13C140.501 123.357 137.957 120.131 134.6 117.95C131.483 115.97 127.862 114.929 124.17 114.95C120.966 115.224 117.877 116.275 115.17 118.01L108.47 121.37V118L138.58 77.61H96.9V119.53C96.7819 122.552 97.5801 125.54 99.19 128.1C99.9695 129.215 101.023 130.109 102.249 130.698C103.476 131.287 104.833 131.549 106.19 131.46C108.701 131.408 111.13 130.553 113.12 129.02C115.375 127.358 117.335 125.33 118.92 123.02C119.061 122.617 119.323 122.268 119.67 122.02C119.949 121.782 120.303 121.651 120.67 121.65C121.409 121.703 122.111 121.994 122.67 122.48C123.371 123.258 123.749 124.273 123.73 125.32C123.652 126.021 123.529 126.715 123.36 127.4C121.879 130.991 119.392 134.077 116.2 136.29C113.248 138.286 109.764 139.349 106.2 139.34C97.1667 139.34 90.91 137.56 87.43 134C85.6378 132.032 84.2565 129.726 83.367 127.217C82.4775 124.708 82.0978 122.047 82.25 119.39V77.64H61V69.86H82.29V52.1L77.41 47.21V43.21H91.57L96.9 46V69.86L152 69.69L157.49 75.2L123.69 109.2C125.731 108.379 127.88 107.861 130.07 107.66C134.408 107.852 138.641 109.058 142.43 111.18C146.81 113.268 150.501 116.564 153.07 120.68C155.367 124.169 156.995 128.055 157.87 132.14C158.584 135.359 158.966 138.643 159.01 141.94C159.038 148.24 157.611 154.462 154.84 160.12C152.214 165.597 147.797 170.013 142.32 172.64C136.715 175.384 130.551 176.798 124.31 176.77Z" fill="#2C7DF7"/>
</g>
<defs>
<clipPath id="clip0_108_19">
<rect width="220" height="220" fill="white"/>
</clipPath>
</defs>
</svg>
