<svg width="220" height="220" viewBox="0 0 220 220" fill="none" xmlns="http://www.w3.org/2000/svg">
<g clip-path="url(#clip0_108_451)">
<path d="M110 220C170.751 220 220 170.751 220 110C220 49.2487 170.751 0 110 0C49.2487 0 0 49.2487 0 110C0 170.751 49.2487 220 110 220Z" fill="#25AAE3"/>
<path d="M185.625 110C185.625 151.766 151.766 185.625 110 185.625C68.2344 185.625 34.375 151.766 34.375 110C34.375 68.2275 68.2344 34.375 110 34.375C151.766 34.375 185.625 68.2344 185.625 110ZM159.706 112.379C159.754 111.519 159.706 112.379 159.706 111.506C159.706 86.7075 141.384 64.68 117.618 60.9744V46.5369L102.217 51.3356V60.9812C78.4644 64.68 60.2662 85.1812 60.2662 109.966C60.2662 135.334 79.31 156.234 103.881 159.225V173.443L119.281 168.644V158.702C127.778 157.06 135.698 153.227 142.259 147.584C148.82 141.941 153.793 134.683 156.688 126.527H140.731C137.75 132.105 133.31 136.768 127.885 140.019C122.461 143.27 116.255 144.987 109.931 144.987C101.085 144.98 92.5696 141.627 86.0948 135.6C79.62 129.572 75.6659 121.318 75.0269 112.496L159.713 112.379H159.706ZM77.3438 97.1437C79.9178 90.5987 84.4031 84.9805 90.2156 81.0209C96.0281 77.0613 102.898 74.9439 109.931 74.9444C116.961 74.9504 123.826 77.0716 129.635 81.0319C135.443 84.9923 139.925 90.6087 142.498 97.1506H77.3506L77.3438 97.1437Z" fill="white"/>
</g>
<defs>
<clipPath id="clip0_108_451">
<rect width="220" height="220" fill="white"/>
</clipPath>
</defs>
</svg>
