<svg width="220" height="220" viewBox="0 0 220 220" fill="none" xmlns="http://www.w3.org/2000/svg">
<g clip-path="url(#clip0_108_454)">
<path d="M110 220C170.751 220 220 170.751 220 110C220 49.2487 170.751 0 110 0C49.2487 0 0 49.2487 0 110C0 170.751 49.2487 220 110 220Z" fill="#23B852"/>
<path d="M128.734 131.643H152.04V152.02H82.0186L168.939 65.0377C170.318 63.6428 171.26 61.8765 171.65 59.9547C172.041 58.0329 171.864 56.0389 171.139 54.2165C170.371 52.4052 169.084 50.861 167.442 49.7774C165.8 48.6938 163.874 48.1191 161.906 48.1252H58.0936C56.7808 48.1161 55.4792 48.3681 54.2647 48.8667C53.0502 49.3653 51.947 50.1005 51.0193 51.0295C50.0916 51.9584 49.358 53.0627 48.8611 54.2778C48.3641 55.493 48.1139 56.7949 48.1249 58.1077V131.643L91.2655 88.4677H67.9592V67.9802H137.864L51.0605 154.963C49.6821 156.358 48.7399 158.124 48.3492 160.046C47.9585 161.968 48.1362 163.962 48.8605 165.784C50.4349 169.462 54.003 171.875 58.0936 171.875H161.906C163.216 171.875 164.514 171.617 165.724 171.115C166.935 170.613 168.034 169.878 168.96 168.951C169.886 168.023 170.62 166.923 171.12 165.712C171.62 164.501 171.877 163.203 171.875 161.893V88.4677L128.734 131.643Z" fill="white"/>
</g>
<defs>
<clipPath id="clip0_108_454">
<rect width="220" height="220" fill="white"/>
</clipPath>
</defs>
</svg>
