<svg width="220" height="220" viewBox="0 0 220 220" fill="none" xmlns="http://www.w3.org/2000/svg">
<g clip-path="url(#clip0_108_455)">
<path d="M110 220C170.751 220 220 170.751 220 110C220 49.2487 170.751 0 110 0C49.2487 0 0 49.2487 0 110C0 170.751 49.2487 220 110 220Z" fill="#006AE3"/>
<path d="M104.568 153.724V67.0579H114.001V153.724H104.568Z" fill="white"/>
<path d="M152.604 95.9322L123.454 103.66L116.957 73.4097L125.62 71.4572L129.044 85.7847C129.044 85.7847 136.916 72.8734 126.418 59.4947C120.23 52.6197 117.294 52.3309 110.358 51.2447C104.253 50.3715 90.0625 52.434 85.8344 68.9959C84.0469 79.6659 86.0612 87.5584 99.8112 97.8915L99.0413 109.393C99.0413 109.393 83.6894 98.579 79.7294 90.9959C76.67 84.994 71.4106 73.1415 80.8981 56.6415C85.9994 48.3915 96.0644 40.4784 113.795 41.3103C122.705 41.6815 144.478 52.5853 141.103 78.0365C140.518 82.8078 138.043 89.1603 138.043 89.1603L150.006 86.4997L152.604 95.9322ZM135.96 163.747C130.625 171.853 120.354 179.491 102.664 178.205C93.7475 177.6 72.2906 166.119 76.3331 140.764C77.0412 136.02 79.6881 129.743 79.6881 129.743L67.6638 132.081L65.3125 122.6L94.6688 115.643L100.375 146.058L91.6438 147.79L88.605 133.353C88.605 133.353 80.3962 146.037 90.5231 159.705C96.5181 166.745 99.44 167.102 106.377 168.367C112.441 169.412 126.686 167.707 131.354 151.269C133.416 140.661 131.601 132.707 118.147 121.995L119.226 110.514C119.226 110.514 134.289 121.72 138.043 129.413C140.917 135.518 145.853 147.515 135.96 163.747Z" fill="white"/>
</g>
<defs>
<clipPath id="clip0_108_455">
<rect width="220" height="220" fill="white"/>
</clipPath>
</defs>
</svg>
