<svg width="220" height="220" viewBox="0 0 220 220" fill="none" xmlns="http://www.w3.org/2000/svg">
<g clip-path="url(#clip0_108_456)">
<path d="M110 220C170.751 220 220 170.751 220 110C220 49.2487 170.751 0 110 0C49.2487 0 0 49.2487 0 110C0 170.751 49.2487 220 110 220Z" fill="#21A5DE"/>
<path d="M147.744 113.953C150.081 116.456 151.497 119.79 151.497 123.447C151.497 131.209 145.118 137.5 137.253 137.5C129.394 137.5 123.021 131.209 123.021 123.447C123.021 119.79 124.438 116.456 126.761 113.953C126.012 114.528 125.117 114.884 124.177 114.981C123.238 115.078 122.289 114.912 121.438 114.503C120.587 114.093 119.866 113.455 119.355 112.66C118.844 111.866 118.564 110.945 118.546 110C118.544 108.876 118.924 107.785 119.625 106.906C117.088 109.203 113.713 110.605 110 110.605C106.287 110.605 102.912 109.203 100.375 106.906C101.076 107.785 101.456 108.876 101.454 110C101.454 112.771 99.1856 115.019 96.3669 115.019C95.2349 115.02 94.1346 114.645 93.2388 113.953C95.5625 116.456 96.9856 119.79 96.9856 123.447C96.9856 131.209 90.6056 137.5 82.7475 137.5C74.8825 137.5 68.5025 131.209 68.5025 123.447C68.5025 119.79 69.9256 116.456 72.2494 113.953C71.4997 114.528 70.6052 114.884 69.6654 114.981C68.7257 115.078 67.7774 114.912 66.9261 114.503C66.0747 114.093 65.3537 113.455 64.8431 112.66C64.3325 111.866 64.0523 110.945 64.0338 110C64.0319 108.876 64.4126 107.785 65.1131 106.906C62.5762 109.203 59.2006 110.605 55.4881 110.605C47.6231 110.605 41.25 104.314 41.25 96.5525C41.25 88.7906 47.6231 82.5 55.4881 82.5C63.3531 82.5 69.7263 88.7906 69.7263 96.5525C69.7278 100.078 68.3882 103.472 65.9794 106.047C66.729 105.47 67.6242 105.113 68.565 105.015C69.5058 104.916 70.4554 105.082 71.308 105.491C72.1605 105.901 72.8825 106.54 73.3934 107.336C73.9044 108.132 74.1843 109.054 74.2019 110C74.2037 111.124 73.8231 112.215 73.1225 113.094C75.6525 110.798 79.035 109.395 82.7475 109.395C86.46 109.395 89.8288 110.798 92.3725 113.094C91.6695 112.216 91.2863 111.125 91.2862 110C90.5951 109.468 90.0517 108.768 89.7077 107.967C89.3636 107.166 89.2305 106.29 89.3209 105.422C89.4113 104.555 89.7223 103.725 90.2242 103.012C90.7261 102.299 91.4022 101.726 92.1882 101.348C92.9741 100.97 93.8437 100.8 94.7142 100.853C95.5846 100.907 96.4269 101.182 97.1607 101.653C97.8946 102.124 98.4957 102.775 98.9067 103.544C99.3177 104.313 99.525 105.175 99.5088 106.047C97.1011 103.472 95.7617 100.078 95.7619 96.5525C95.7619 88.7906 102.135 82.5 110 82.5C117.865 82.5 124.238 88.7906 124.238 96.5525C124.24 100.078 122.9 103.472 120.491 106.047C121.241 105.47 122.136 105.113 123.077 105.015C124.018 104.916 124.967 105.082 125.82 105.491C126.672 105.901 127.394 106.54 127.905 107.336C128.416 108.132 128.696 109.054 128.714 110C128.716 111.124 128.335 112.215 127.634 113.094C130.164 110.798 133.547 109.395 137.259 109.395C140.972 109.395 144.341 110.798 146.884 113.094C146.181 112.216 145.798 111.125 145.798 110C145.107 109.468 144.564 108.768 144.22 107.967C143.876 107.166 143.742 106.29 143.833 105.422C143.923 104.555 144.234 103.725 144.736 103.012C145.238 102.299 145.914 101.726 146.7 101.348C147.486 100.97 148.356 100.8 149.226 100.853C150.096 100.907 150.939 101.182 151.673 101.653C152.407 102.124 153.008 102.775 153.419 103.544C153.83 104.313 154.037 105.175 154.021 106.047C151.613 103.472 150.274 100.078 150.274 96.5525C150.274 88.7906 156.647 82.5 164.512 82.5C172.377 82.5 178.75 88.7906 178.75 96.5525C178.75 104.314 172.377 110.605 164.512 110.605C160.799 110.605 157.424 109.203 154.887 106.906C155.587 107.785 155.968 108.876 155.966 110C155.966 112.771 153.697 115.019 150.879 115.019C149.747 115.02 148.646 114.645 147.751 113.953H147.744Z" fill="white"/>
</g>
<defs>
<clipPath id="clip0_108_456">
<rect width="220" height="220" fill="white"/>
</clipPath>
</defs>
</svg>
