<svg width="220" height="220" viewBox="0 0 220 220" fill="none" xmlns="http://www.w3.org/2000/svg">
<g clip-path="url(#clip0_108_457)">
<path d="M110 220C170.751 220 220 170.751 220 110C220 49.2487 170.751 0 110 0C49.2487 0 0 49.2487 0 110C0 170.751 49.2487 220 110 220Z" fill="#C87035"/>
<path d="M109.945 185.625C68.1794 185.598 34.375 151.731 34.375 109.904C34.375 68.1656 68.2825 34.3475 110.103 34.375C151.8 34.4025 185.68 68.2963 185.625 110.014C185.542 151.278 152.377 185.57 109.945 185.625ZM79.1244 144.581C79.3375 144.176 79.5025 143.853 79.6606 143.591C86.4256 131.656 93.2044 119.735 99.9831 107.828C105.923 97.3913 111.849 86.9413 117.755 76.4913C117.837 76.2906 117.982 76.1219 118.168 76.0103C118.354 75.8988 118.571 75.8505 118.786 75.8725C125.689 75.9069 132.619 75.9069 139.514 75.9069H140.498C130.914 92.8194 121.399 109.615 111.808 126.507C112.152 126.534 112.344 126.534 112.53 126.534C129.848 126.534 147.153 126.541 164.45 126.562C165.034 126.562 165.22 126.349 165.351 125.84C167.972 116.593 168.22 106.835 166.072 97.4669C163.488 86.1231 157.816 76.5463 149.449 68.5369C145.694 64.9576 141.432 61.9528 136.799 59.62C125.29 53.7488 113.169 51.8856 100.464 54.12C87.8144 56.3681 77.1581 62.3425 68.42 71.7888C67.2719 73.0263 66.2338 74.3531 65.1406 75.6388C65.1681 75.7144 65.2231 75.7763 65.2506 75.845H114.613C114.338 76.3606 114.152 76.7319 113.939 77.0825C110.935 82.4175 107.889 87.725 104.912 93.0669C104.795 93.3295 104.597 93.5482 104.348 93.6915C104.098 93.8348 103.81 93.8953 103.524 93.8644C87.9725 93.8369 72.4212 93.83 56.8838 93.8369H55.9487C48.07 118.608 59.2006 149.676 87.12 162.106C114.152 174.178 142.498 163.068 155.787 144.526C130.247 144.574 104.693 144.595 79.1313 144.574L79.1244 144.581ZM166.045 157.63C175.636 146.974 184.161 129.443 183.624 108.384C183.198 91.0388 177.258 75.7969 166.155 62.3219C162.69 65.8144 159.308 69.2038 155.952 72.5931C173.553 93.7613 174.309 125.063 156.138 147.538L166.045 157.63Z" fill="white"/>
</g>
<defs>
<clipPath id="clip0_108_457">
<rect width="220" height="220" fill="white"/>
</clipPath>
</defs>
</svg>
