<svg width="220" height="220" viewBox="0 0 220 220" fill="none" xmlns="http://www.w3.org/2000/svg">
<g clip-path="url(#clip0_108_459)">
<path d="M110 220C170.751 220 220 170.751 220 110C220 49.2487 170.751 0 110 0C49.2487 0 0 49.2487 0 110C0 170.751 49.2487 220 110 220Z" fill="#183C87"/>
<path fill-rule="evenodd" clip-rule="evenodd" d="M34.375 107.353L65.2781 89.9044L96.1744 107.353V140.676L65.2781 158.125L34.375 140.676V107.353ZM123.819 107.353L154.722 89.9044L185.625 107.353V140.676L154.722 158.125L123.826 140.676V107.353H123.819ZM120.574 136.297L109.732 142.257L99.4262 136.599V104.706L71.2388 88.7837V77.2062L109.732 55L148.218 77.2062V89.1L120.574 104.706V136.304V136.297Z" fill="white"/>
</g>
<defs>
<clipPath id="clip0_108_459">
<rect width="220" height="220" fill="white"/>
</clipPath>
</defs>
</svg>
