<svg width="220" height="220" viewBox="0 0 220 220" fill="none" xmlns="http://www.w3.org/2000/svg">
<g clip-path="url(#clip0_108_460)">
<path d="M110 220C170.751 220 220 170.751 220 110C220 49.2487 170.751 0 110 0C49.2487 0 0 49.2487 0 110C0 170.751 49.2487 220 110 220Z" fill="#00EAAB"/>
<path d="M170.5 65.7822L158.262 84.826C162.167 92.4774 164.184 100.952 164.147 109.542C164.147 139.792 139.672 164.15 109.539 164.15C100.989 164.188 92.5541 162.17 84.9473 158.265L65.7798 170.619C78.1342 179.392 93.1423 184.706 109.422 184.706C150.872 184.706 184.587 151.108 184.587 109.542C184.587 93.1447 179.389 78.1366 170.5 65.7822Z" fill="white"/>
<path d="M109.54 147.059C118.344 147.059 126.87 143.976 133.638 138.347C140.407 132.717 144.992 124.895 146.596 116.239C134.844 113.68 122.685 113.623 110.909 116.07C99.1337 118.517 88.0045 123.414 78.2446 130.442C81.6879 135.577 86.3465 139.781 91.8062 142.681C97.2659 145.581 103.358 147.088 109.54 147.066V147.059Z" fill="white"/>
<path d="M128.013 107.456C134.592 107.456 140.938 108.151 147.18 109.54C147.176 99.5268 143.197 89.9251 136.117 82.845C129.037 75.7649 119.435 71.7857 109.423 71.7821C104.042 71.7864 98.7247 72.9432 93.8287 75.1746C88.9326 77.406 84.5713 80.6603 81.0382 84.7184C77.5051 88.7765 74.8823 93.5442 73.3461 98.7009C71.8099 103.858 71.3961 109.283 72.1325 114.613C62.6657 121.894 58.1625 127.552 57.9288 127.779C55.8872 121.954 54.8346 115.829 54.8144 109.656C54.8144 79.4064 79.2894 55.0414 109.423 55.0414C118.312 55.0414 126.624 57.1177 134.014 60.9333L153.065 48.5789C140.446 39.3168 125.193 34.3391 109.539 34.3752C99.6661 34.3662 89.888 36.3042 80.7646 40.0783C71.6411 43.8525 63.3515 49.3887 56.37 56.3702C49.3885 63.3516 43.8523 71.6413 40.0782 80.7647C36.304 89.8882 34.366 99.6663 34.375 109.54C34.375 126.28 39.8063 141.639 49.0394 154.103C52.6144 147.641 56.8907 141.749 61.8544 136.435C61.8544 136.435 69.245 128.707 74.9032 124.781C90.3095 113.498 108.916 107.428 128.013 107.456Z" fill="white"/>
</g>
<defs>
<clipPath id="clip0_108_460">
<rect width="220" height="220" fill="white"/>
</clipPath>
</defs>
</svg>
