<svg width="220" height="220" viewBox="0 0 220 220" fill="none" xmlns="http://www.w3.org/2000/svg">
<g clip-path="url(#clip0_108_461)">
<path d="M110 220C170.751 220 220 170.751 220 110C220 49.2487 170.751 0 110 0C49.2487 0 0 49.2487 0 110C0 170.751 49.2487 220 110 220Z" fill="#07BC9C"/>
<path fill-rule="evenodd" clip-rule="evenodd" d="M164.292 46.0281C160.38 45.0519 151.264 45.1825 148.466 49.0256C151.264 50.5863 153.217 52.9925 156.083 53.0613C158.95 53.13 162.271 50.3869 165.915 51.9544C164.354 51.9544 157.321 53.2606 156.867 55.4056C157.85 57.0213 159.033 58.5063 160.38 59.8331C162.209 61.3319 162.402 61.8544 165.138 60.3556C168.487 58.2412 171.014 55.047 172.302 51.3013C172.302 49.3488 172.886 50.6481 171.456 49.0256C169.354 47.447 166.892 46.4168 164.292 46.0281ZM127.559 49.4794C132.849 46.6576 138.995 45.8912 144.815 47.3275C144.252 41.055 141.319 35.233 136.613 31.0475C142.251 34.5537 146.218 40.1913 147.613 46.6744C150.81 46.1588 154.131 44.9213 157.19 44.4606C156.639 38.2258 153.893 32.3888 149.442 27.9881C147.29 25.9669 141.233 20.625 137.775 20.625C134.317 20.625 129.828 28.4419 128.528 31.6319C126.3 37.3229 125.958 43.5792 127.552 49.4794H127.559Z" fill="white"/>
<path fill-rule="evenodd" clip-rule="evenodd" d="M126.706 59.7036C125.538 56.9055 130.68 55.7986 132.248 55.9911C135.046 56.8161 137.61 58.2874 139.741 60.288C143.839 63.3542 151.91 72.4086 157.843 70.2567C163.77 68.1049 156.736 57.6205 153.478 54.8842C150.815 52.3741 147.603 50.5201 144.098 49.4698C140.592 48.4195 136.89 48.2018 133.286 48.8342C130 49.8174 127.305 52.203 125.93 55.338C125.538 56.7749 124.108 59.7036 126.713 59.7036H126.706Z" fill="white"/>
<path d="M153.931 98.7778C150.288 96.5641 148.981 90.0466 146.706 86.4716C143.578 81.4528 139.02 77.3553 136.283 72.1441C133.547 66.9328 133.224 62.9591 128.535 60.4841C126.738 59.537 124.737 59.042 122.705 59.042C120.674 59.042 118.673 59.537 116.875 60.4841C111.052 63.1241 104.926 65.0491 98.6358 66.2178C95.8472 66.8783 93.1069 67.7282 90.4339 68.7616C88.203 70.015 85.8711 71.0798 83.4627 71.9447C77.4677 72.7903 66.399 65.4341 67.4439 76.826C67.4439 78.916 69.589 80.0228 68.9358 82.6903C68.2896 85.3647 65.4227 87.7091 64.0546 89.7922C61.2452 94.5057 59.0547 99.5615 57.5371 104.835C53.8359 116.779 54.5533 129.655 59.5583 141.114C61.9646 146.752 65.1752 152.018 69.0664 156.748C70.9708 158.968 72.6414 161.368 74.0852 163.912C75.1852 166.923 76.5602 169.824 78.1896 172.574C79.5978 174.344 81.4689 175.688 83.5951 176.459C85.7213 177.23 88.0195 177.396 90.2346 176.94C92.5109 176.158 94.6961 175.132 96.7521 173.88C100.264 172.484 103.94 171.541 107.69 171.075C121.375 168.93 133.857 162.008 142.925 151.537C147.221 146.353 150.553 140.441 152.763 134.081C154.047 130.534 154.984 126.871 155.561 123.143C155.891 120.798 155.176 114.865 156.867 113.312C157.967 112.26 160.58 112.005 161.363 111.022C161.957 109.728 162.413 108.376 162.725 106.987C163.962 103.143 156.736 100.084 153.938 98.7778H153.931ZM158.881 108.093C157.905 110.307 154.069 111.613 152.371 113.958C149.936 118.35 146.689 122.24 142.801 125.418C138.884 127.46 134.378 128.069 130.06 127.141C125.742 126.214 121.884 123.807 119.151 120.338C116.267 116.735 114.705 112.254 114.723 107.64C114.723 104.058 118.635 95.0653 114.723 93.1128C110.818 91.1603 108.996 97.4785 107.498 99.6303C104.876 103.982 100.891 107.346 96.1608 109.2C92.4807 110.446 88.5311 110.668 84.7347 109.842C80.9382 109.016 77.4377 107.174 74.6077 104.512C72.7154 101.819 71.4566 98.7333 70.9257 95.4854C70.3947 92.2375 70.6052 88.9116 71.5414 85.7566C71.6287 82.5424 71.345 79.3289 70.6958 76.1797C70.6958 71.491 74.8002 73.1822 78.1208 73.8353C86.3531 75.3014 94.1731 78.5232 101.049 83.2816C107.506 88.6458 115.25 92.2355 123.516 93.6972C129.051 94.2197 134.537 95.1547 139.934 96.5022C142.601 97.286 145.076 98.5853 147.682 99.4997C150.432 100.393 153.1 101.542 155.63 102.951C157.39 103.728 159.926 105.288 158.95 107.832L158.881 108.093Z" fill="white"/>
</g>
<defs>
<clipPath id="clip0_108_461">
<rect width="220" height="220" fill="white"/>
</clipPath>
</defs>
</svg>
