<svg width="220" height="220" viewBox="0 0 220 220" fill="none" xmlns="http://www.w3.org/2000/svg">
<g clip-path="url(#clip0_108_462)">
<path d="M110 220C170.751 220 220 170.751 220 110C220 49.2487 170.751 0 110 0C49.2487 0 0 49.2487 0 110C0 170.751 49.2487 220 110 220Z" fill="#49C1BF"/>
<path d="M61.875 50.0569L138.284 87.065L157.843 78.2512L81.7506 41.25L61.875 50.0569Z" fill="white" fill-opacity="0.304"/>
<path d="M138.284 86.9763L157.843 78.1694V97.8663L138.284 106.673V86.9763ZM138.284 178.304V116.862L157.843 107.959V169.497L138.284 178.304Z" fill="white" fill-opacity="0.646"/>
<path d="M61.875 50.0786V69.9955L114.764 95.6874L61.875 121.881V141.516L138.284 178.455V158.697L86.3913 133.459L138.284 106.777V87.0799L61.875 50.0786Z" fill="white"/>
</g>
<defs>
<clipPath id="clip0_108_462">
<rect width="220" height="220" fill="white"/>
</clipPath>
</defs>
</svg>
