<svg width="220" height="220" viewBox="0 0 220 220" fill="none" xmlns="http://www.w3.org/2000/svg">
<g clip-path="url(#clip0_108_463)">
<path d="M110 220C170.751 220 220 170.751 220 110C220 49.2487 170.751 0 110 0C49.2487 0 0 49.2487 0 110C0 170.751 49.2487 220 110 220Z" fill="#00004D"/>
<path d="M106.597 43.1328C105.964 45.814 104.067 54.2703 103.201 59.9353C102.857 62.259 101.413 65.3596 105.442 67.0303C104.521 67.209 104.239 67.3259 103.95 67.264C101.076 66.9065 98.1407 66.494 95.267 66.1365C94.6345 66.0746 93.8301 65.9578 93.2526 66.2534C89.4026 68.2815 87.6839 73.1078 89.6295 77.219C90.7295 79.5428 91.0732 81.6878 90.6126 84.1353C90.554 84.7694 90.673 85.4074 90.9564 85.9778C93.1976 91.464 93.6032 96.9434 91.8157 102.663C91.527 103.557 91.7057 104.637 91.7607 105.585C91.8776 107.435 91.9876 109.284 92.1595 111.127C89.3407 108.865 86.247 106.837 83.882 104.093C82.7062 102.712 81.8163 101.111 81.264 99.3835C80.7116 97.6558 80.5079 95.8355 80.6645 94.0284C80.7195 93.3134 80.1489 92.4746 79.6882 91.8215C78.3614 89.8553 76.8145 88.0678 75.7214 85.9778C74.1676 83.0009 72.2701 81.7496 69.1626 82.7053C67.6157 83.1796 66.172 84.1903 64.852 85.2078C63.7039 86.0328 62.7207 87.1121 61.6895 88.0678C61.5726 87.944 61.4007 87.8271 61.2907 87.7103C61.4626 87.2909 61.5176 86.8165 61.7514 86.3971C63.3601 83.4203 63.2982 83.4753 61.0639 80.9728C56.7464 76.1465 53.0064 70.9628 51.3976 64.404C50.5932 61.1315 49.6101 57.9071 48.7576 54.6896C44.4401 60.0521 43.8695 79.3709 48.1251 86.9953C46.7982 80.2578 45.4782 73.8846 46.9701 67.3259C47.2589 68.8178 47.4307 70.2478 47.4926 71.7397C47.7195 77.0403 48.9845 82.0522 51.2257 86.7547C51.6864 87.7653 53.0132 88.3634 53.9895 89.0784C54.3332 89.319 54.7939 89.4359 55.1926 89.6146C55.1376 89.8553 55.1376 90.0959 55.0757 90.2678C52.9514 90.1509 50.882 89.9103 48.7507 89.8553C47.3757 89.7934 45.767 89.4359 44.6739 90.034C43.2301 90.804 42.082 92.3028 41.2776 93.7878C41.0507 94.2003 42.1989 95.8709 43.0651 96.5309C45.3614 98.2565 46.9151 100.161 46.5714 103.378C46.5095 104.155 47.3757 105.53 48.1251 105.826C50.1876 106.603 50.7651 108.15 51.1089 110.116C51.3426 111.367 51.5145 112.976 52.3189 113.691C54.9039 116.077 55.7082 118.937 55.7701 122.395C55.8251 124.595 56.9732 126.863 56.6914 129.008C56.4576 130.858 56.8014 132.226 57.5507 133.298H57.4957L57.6676 133.477C58.1282 134.192 58.7607 134.783 59.5032 135.327L61.002 136.757C61.002 136.757 63.587 139.555 63.642 142.298C63.7039 145.041 63.4701 145.392 64.2745 147.839C65.0857 150.225 66.172 152.129 66.5226 154.157C66.8664 156.185 66.117 156.777 67.327 158.09C68.5301 159.396 69.857 160.29 71.232 161.788C72.5589 163.335 74.4564 163.872 75.7214 165.185C76.9864 166.491 78.9939 168.938 80.5476 170.485C81.352 171.324 82.4451 171.977 83.2495 172.452C83.4832 172.692 83.5932 172.809 83.5382 172.933C82.4451 175.312 84.6864 175.257 85.5526 176.027C87.0445 177.34 89.1757 178.172 90.262 179.78C92.2214 182.702 94.7514 184.194 97.9139 185.088C98.2026 185.15 98.5464 185.205 98.6564 185.383C99.062 185.865 99.3439 186.456 99.6945 186.992C99.5776 187.171 99.4057 187.35 99.2889 187.528C102.451 188.663 105.614 189.852 108.776 190.925C109.409 191.165 110.22 191.165 110.791 190.993C113.438 190.1 116.084 189.137 118.724 188.188C119.24 188.01 120.044 187.473 119.989 187.233C119.591 185.328 121.138 185.624 122.004 185.15C124.066 184.015 126.486 183.183 128.04 181.575C129.938 179.547 131.663 177.457 134.193 176.088C135.224 175.49 137.294 175.257 136.256 172.995C136.201 172.871 136.778 172.397 137.067 172.101C137.466 171.737 137.926 171.441 138.504 170.967C138.903 170.788 139.363 170.485 140.113 169.949C142.451 168.028 144.624 165.915 146.609 163.631C147.984 161.905 150.233 159.76 150.233 159.76C150.233 159.76 148.789 156.364 149.717 153.38L154.598 149.75C155.636 147.543 155.925 146.705 157.073 144.443C158.166 142.174 158.448 137.829 160.009 136.097C161.384 134.612 163.054 133.415 162.993 132.467C163.354 131.454 163.472 130.371 163.336 129.304C163.171 127.757 163.68 126.142 163.859 124.595C163.976 123.288 163.859 121.975 164.203 120.724C164.78 118.696 165.179 116.317 166.444 114.88C167.819 113.333 168.747 111.965 168.919 109.875C169.091 108.088 169.778 106.658 171.566 105.819C172.425 105.407 173.285 103.977 173.285 103.021C173.229 100.34 174.089 98.4353 176.275 97.0053C176.908 96.5928 177.375 95.8709 178.001 95.3965C179.032 94.6197 178.867 93.7259 178.29 92.7153C176.798 90.034 174.549 89.0784 171.566 89.6215C169.318 90.034 165.928 90.2678 164.718 90.2678C163.515 90.2678 164.374 89.374 164.374 89.374C168.63 89.2571 169.146 85.744 170.122 82.884C170.933 80.4984 171.387 77.9959 171.793 75.4934C172.198 73.1078 172.198 71.9734 172.652 68.2746C173.113 64.5828 174.206 75.4315 172.48 84.314C175.931 79.0684 174.838 60.0521 170.988 54.4559C170.871 54.5728 170.755 54.6346 170.755 54.7515C170.583 55.4665 170.473 56.1815 170.301 56.8965C168.63 66.0128 165.179 74.1803 158.799 80.8559C156.441 83.2965 156.558 83.3584 158.166 86.514C158.338 86.8165 158.338 87.229 158.393 87.6484C157.018 86.9953 155.987 86.0396 154.949 85.1459C154.043 84.2705 152.969 83.5872 151.793 83.1371C150.616 82.687 149.36 82.4793 148.101 82.5265C145.351 82.5265 144.595 84.5478 143.791 86.514C142.299 90.089 138.793 92.2959 138.676 97.0672C138.504 104.038 132.296 107.552 128.267 112.199C128.212 112.268 128.04 112.144 127.806 112.144C127.751 111.903 127.579 111.608 127.634 111.367C127.634 107.077 128.789 102.725 126.892 98.614C126.775 98.3734 126.83 98.0159 126.892 97.7821C127.634 91.7596 128.329 85.799 129.133 79.8384C129.243 79.0684 129.649 78.3534 129.993 77.6384C132.007 73.3484 130.508 68.4603 126.431 66.3153C125.928 66.0869 125.371 66.0036 124.823 66.0746C122.574 66.3703 120.395 66.7896 118.209 67.0853C117.109 67.264 115.968 67.264 114.874 67.3259C114.813 67.1471 114.758 66.9684 114.703 66.8446C116.538 66.2534 117.459 65.1259 117.061 63.0978L112.915 42.4728C112.805 41.9365 112.688 39.2553 113.321 40.6303C113.953 42.0603 115.968 48.1928 117.116 52.0703C118.209 55.824 119.068 59.7015 120.044 63.5103C118.436 52.8471 115.968 42.4728 109.869 32.999C108.246 35.0329 106.948 37.3056 106.019 39.7365C104.54 44.0746 103.16 48.4459 101.881 52.8471C100.904 56.2434 98.3745 62.919 99.4676 63.0909C100.554 63.2765 105.903 43.2496 106.246 41.8196C106.59 40.3896 107.229 40.4446 106.59 43.1259L106.597 43.1328Z" fill="white"/>
</g>
<defs>
<clipPath id="clip0_108_463">
<rect width="220" height="220" fill="white"/>
</clipPath>
</defs>
</svg>
