<svg width="220" height="220" viewBox="0 0 220 220" fill="none" xmlns="http://www.w3.org/2000/svg">
<g clip-path="url(#clip0_108_464)">
<path d="M110 220C170.751 220 220 170.751 220 110C220 49.2487 170.751 0 110 0C49.2487 0 0 49.2487 0 110C0 170.751 49.2487 220 110 220Z" fill="#302C2C"/>
<path fill-rule="evenodd" clip-rule="evenodd" d="M106.535 185.625C104.679 185.432 102.822 185.261 100.966 185.041C90.9858 183.851 81.3477 180.661 72.6274 175.663C72.4968 175.594 72.3799 175.491 72.1255 175.319C87.2918 163.976 102.389 152.701 117.569 141.357L122.141 145.805C124.685 148.294 127.242 150.755 129.738 153.278C130.357 153.897 130.804 153.89 131.526 153.519C139.086 149.745 145.545 144.086 150.28 137.088L151.016 136.001C151.229 136.249 151.429 136.448 151.594 136.668C156.867 143.694 162.133 150.721 167.427 157.726C167.887 158.331 167.832 158.689 167.344 159.239C155.086 173.168 139.851 181.748 121.488 184.683C119.178 185.054 116.834 185.192 114.503 185.446C114.194 185.481 113.884 185.563 113.582 185.625H106.535ZM113.204 34.375C114.482 34.5056 115.768 34.6431 117.054 34.76C127.889 35.7913 138.022 39.0019 147.462 44.385C147.599 44.4675 147.716 44.5638 147.943 44.7288L101.757 77.8594C101.145 77.2819 100.554 76.7319 99.9693 76.1613C96.7243 72.9987 93.4655 69.8431 90.2411 66.6531C89.7255 66.1444 89.3336 66.0894 88.6874 66.4125C80.9933 70.2095 74.4277 75.9551 69.6436 83.0775L68.9561 84.1088L51.9886 61.5037C53.7005 59.6888 55.2818 57.8806 56.9936 56.21C68.1518 45.3269 81.3999 38.4038 96.7518 35.6194C99.708 35.0831 102.726 34.9044 105.717 34.5538C106.054 34.5194 106.39 34.4369 106.721 34.375H113.197H113.204ZM44.3986 72.4213L78.7393 117.439L71.8093 124.547C70.0836 126.314 68.3718 128.102 66.6118 129.841C66.1168 130.336 66.0961 130.714 66.3986 131.319C70.1903 139.015 75.9341 145.581 83.0568 150.363C83.2974 150.514 83.538 150.673 83.7649 150.844C83.8061 150.872 83.8268 150.941 83.9505 151.174L61.5311 167.991C48.1249 156.447 39.428 142.223 35.9355 124.974C32.1955 106.507 35.2274 89.0588 44.4055 72.4213H44.3986ZM141.852 102.465L148.163 95.9131C149.923 94.0844 151.655 92.235 153.457 90.4544C154.02 89.8975 154.014 89.4781 153.684 88.8181C149.868 81.0301 144.056 74.3927 136.84 69.5819C136.585 69.41 136.338 69.2244 135.905 68.915L158.448 52.0025C171.215 62.9338 179.692 76.4088 183.583 92.6681C188.444 112.963 184.112 133.038 175.697 147.173L141.852 102.465Z" fill="white"/>
</g>
<defs>
<clipPath id="clip0_108_464">
<rect width="220" height="220" fill="white"/>
</clipPath>
</defs>
</svg>
