<svg width="220" height="220" viewBox="0 0 220 220" fill="none" xmlns="http://www.w3.org/2000/svg">
<g clip-path="url(#clip0_108_467)">
<path d="M110 220C170.751 220 220 170.751 220 110C220 49.2487 170.751 0 110 0C49.2487 0 0 49.2487 0 110C0 170.751 49.2487 220 110 220Z" fill="#2B61D1"/>
<path d="M171.285 106.41L137.696 87.2905L104.368 106.737L104.565 145.368L138.154 164.487L171.481 145.041L171.285 106.41Z" fill="white"/>
<path d="M88.065 122.912L68.4221 111.715L48.8447 123.108L48.9757 145.763L68.6186 156.959L88.1305 145.501L88.065 122.912Z" fill="white"/>
<path d="M68.2912 95.5369L89.7019 107.781L89.6364 98.3524L137.63 70.3286L171.154 89.4476L171.089 74.4536L109.803 39.4238L48.8447 75.0429L48.9757 106.864L68.2912 95.5369Z" fill="white"/>
<path d="M82.8276 164.815L110.524 180.66L123.488 173.065L95.7919 157.285L82.8276 164.815Z" fill="white"/>
</g>
<defs>
<clipPath id="clip0_108_467">
<rect width="220" height="220" fill="white"/>
</clipPath>
</defs>
</svg>
